<svg width="318" height="318" viewBox="0 0 318 318" fill="none" xmlns="http://www.w3.org/2000/svg">
<path d="M125.154 0L125.439 1.32599C53.5336 17.0988 1.34317 82.6417 1.34317 157.174C1.33856 166.74 2.18494 176.334 3.85471 185.681L2.52994 185.918C0.850983 176.487 -0.00460815 166.814 0 157.169C0 120.222 12.6911 84.1353 35.7412 55.5629C58.4739 27.3952 90.2224 7.66306 125.154 0ZM230.128 13.2975C284.329 40.7672 318 95.8974 318 157.174C318 170.611 316.358 183.96 313.124 196.852L311.822 196.517C315.028 183.732 316.657 170.499 316.657 157.174C316.657 96.4138 283.271 41.7489 229.526 14.5118L230.128 13.2975ZM55.8841 277.81C84.4955 302.855 121.12 316.646 159 316.646C193.426 316.641 226.135 305.619 253.583 284.77L254.393 285.859C226.706 306.88 193.72 317.995 159 318C120.793 318 83.8607 304.093 55.0056 278.838L55.8841 277.81Z" fill="url(#paint0_linear_1357_245)"/>
<defs>
<linearGradient id="paint0_linear_1357_245" x1="-9.58355" y1="24.8022" x2="360.808" y2="296.552" gradientUnits="userSpaceOnUse">
<stop stop-color="#006CE4"/>
<stop offset="1" stop-color="#00B98D"/>
</linearGradient>
</defs>
</svg>
