<svg width="55" height="56" viewBox="0 0 55 56" fill="none" xmlns="http://www.w3.org/2000/svg">
<path d="M26.0176 1.22276C23.4724 1.39078 21.0271 1.91752 18.7272 2.7485C19.1881 4.69654 19.1177 7.37113 17.8621 8.0954C17.6305 8.22936 17.3694 8.28839 17.0924 8.28839C15.7733 8.28839 14.0455 6.93293 12.9648 5.67284C10.8919 7.06462 9.02555 8.74248 7.42035 10.6474C8.7917 12.105 10.0654 14.4527 9.34114 15.7059C8.9529 16.3803 8.04926 16.6323 7.00486 16.6323C5.98088 16.6323 4.82523 16.3871 3.88526 16.0556C2.79999 18.2602 2.00987 20.6373 1.56941 23.1371C3.48793 23.7115 5.76519 25.1101 5.76519 26.5587C5.76519 28.0958 3.19732 29.2196 1.21976 29.5875C1.3855 32.1326 1.91224 34.5802 2.74777 36.8779C3.44253 36.7144 4.2281 36.6167 4.98416 36.6167C6.35324 36.6167 7.62923 36.9346 8.09467 37.7429C8.86435 39.0756 7.20011 41.3347 5.6721 42.6425C7.06389 44.7154 8.74175 46.584 10.6467 48.1869C11.8114 47.088 13.546 46.055 14.8356 46.055C15.158 46.055 15.4532 46.1208 15.7052 46.2661C17.038 47.0358 16.7269 49.8262 16.0549 51.722C18.2595 52.8073 20.6389 53.5974 23.1364 54.0379C23.7108 52.1194 25.1071 49.8421 26.5557 49.8421C28.0928 49.8421 29.2166 52.41 29.5844 54.3875C32.1296 54.2195 34.5749 53.6928 36.8748 52.8595C36.4117 50.9115 36.4843 48.2369 37.7399 47.5126C37.9715 47.3787 38.2326 47.3174 38.5096 47.3174C39.8287 47.3174 41.5565 48.6706 42.6372 49.9329C44.7102 48.5411 46.5765 46.8655 48.1817 44.9584C46.8081 43.5007 45.5366 41.1554 46.2609 39.8998C46.6491 39.2255 47.5528 38.9735 48.5949 38.9735C49.6166 38.9735 50.7745 39.2187 51.7145 39.5502C52.7998 37.3456 53.5899 34.9684 54.0303 32.4686C52.1141 31.8942 49.8346 30.4956 49.8346 29.0471C49.8346 27.51 52.4024 26.3861 54.3777 26.0183C54.2097 23.4731 53.683 21.0256 52.8497 18.7256C52.155 18.8891 51.3694 18.9867 50.6133 18.9867C49.2442 18.9867 47.9705 18.6689 47.5051 17.8606C46.7354 16.5278 48.3974 14.2687 49.9254 12.961C48.5336 10.8881 46.8557 9.02175 44.9508 7.41881C43.7861 8.51544 42.0515 9.54849 40.7641 9.54849C40.4417 9.54849 40.1466 9.48265 39.8945 9.33734C38.5618 8.56766 38.8728 5.77955 39.5449 3.88145C37.3403 2.79618 34.9609 2.00607 32.4634 1.5656C31.8889 3.48413 30.4926 5.76138 29.0441 5.76138C27.5093 5.7682 26.3831 3.19805 26.0176 1.22276ZM27.7999 41.3325C20.3278 41.3325 14.2726 35.2749 14.2726 27.8029C14.2726 20.3308 20.3301 14.2756 27.7999 14.2756C35.2719 14.2756 41.3272 20.3331 41.3272 27.8029C41.3295 35.2749 35.2719 41.3325 27.7999 41.3325ZM26.5012 0.598392L26.5965 1.11378C26.9598 3.06863 27.9974 5.17788 29.0464 5.17788C30.0794 5.17788 31.3554 3.2253 31.9003 1.40213L32.0501 0.898087L32.5678 0.988903C35.0812 1.43164 37.5174 2.22857 39.8083 3.35698L40.2782 3.58857L40.1034 4.08352C39.4382 5.95891 39.2815 8.30656 40.192 8.83103C40.3441 8.9173 40.5371 8.96272 40.7664 8.96272C41.7608 8.96272 43.3184 8.15216 44.549 6.99197L44.9304 6.63097L45.3323 6.96926C47.2848 8.61307 48.9968 10.5202 50.4158 12.634L50.7087 13.07L50.3091 13.4105C48.7992 14.7024 47.4915 16.6595 48.0159 17.5677C48.3156 18.0876 49.2874 18.3987 50.6133 18.3987C51.299 18.3987 52.046 18.3124 52.7135 18.1535L53.2243 18.0331L53.4037 18.5281C54.271 20.9212 54.7978 23.43 54.9658 25.982L54.9998 26.5042L54.4844 26.5995C52.5318 26.9605 50.4226 28.0004 50.4226 29.0471C50.4226 30.0801 52.3729 31.3584 54.1984 31.9033L54.7001 32.0532L54.6093 32.5708C54.1666 35.0819 53.3696 37.5181 52.2412 39.809L52.0096 40.279L51.5147 40.1042C50.5566 39.7636 49.4622 39.5615 48.5926 39.5615C48.0477 39.5615 47.085 39.6433 46.7695 40.1927C46.2541 41.085 47.303 43.167 48.6085 44.552L48.9695 44.9334L48.6312 45.3353C46.9897 47.2856 45.0825 48.9952 42.9642 50.4188L42.5283 50.7117L42.1877 50.3121C41.1637 49.1156 39.5699 47.9031 38.5096 47.9031C38.3234 47.9031 38.169 47.9417 38.035 48.0189C37.1405 48.5343 37.0088 50.8661 37.4493 52.7188L37.5696 53.2296L37.0746 53.409C34.6793 54.2763 32.1705 54.803 29.6208 54.971L29.0986 55.0051L29.0032 54.4897C28.6399 52.5349 27.6001 50.4256 26.5534 50.4256C25.5203 50.4256 24.2444 52.3782 23.6994 54.2014L23.5496 54.7054L23.0319 54.6146C20.5186 54.1741 18.0824 53.3772 15.7938 52.2488L15.3238 52.0172L15.4986 51.5222C16.1638 49.6468 16.3182 47.2992 15.4101 46.7747C15.2602 46.6885 15.0672 46.643 14.8356 46.643C13.8389 46.643 12.2836 47.4536 11.0531 48.6138L10.6716 48.9748L10.2698 48.6365C8.31717 46.9927 6.60526 45.0878 5.18396 42.9695L4.89107 42.5335L5.29067 42.193C6.80279 40.9011 8.10829 38.944 7.58609 38.0358C7.28639 37.5158 6.31464 37.2048 4.98643 37.2048C4.30075 37.2048 3.55378 37.2911 2.884 37.45L2.37315 37.5703L2.19378 37.0777C1.32647 34.6846 0.799726 32.1758 0.631713 29.6238L0.597656 29.1016L1.11305 29.0062C3.0679 28.6452 5.17715 27.6054 5.17715 26.5587C5.17715 25.5256 3.22456 24.2474 1.40139 23.7025L0.899626 23.5526L0.990443 23.0349C1.43318 20.5238 2.23011 18.0876 3.35852 15.7968L3.5901 15.3268L4.08506 15.5016C5.04319 15.8422 6.13755 16.0442 7.00713 16.0442C7.55203 16.0442 8.5147 15.9625 8.83257 15.4108C9.34796 14.5185 8.29901 12.4365 6.9935 11.0515L6.6325 10.6701L6.9708 10.2682C8.6146 8.31564 10.5218 6.60599 12.6378 5.18469L13.0738 4.8918L13.4143 5.2914C14.4383 6.48793 16.0299 7.70035 17.0924 7.70035C17.2786 7.70035 17.433 7.66175 17.5692 7.58455C18.4638 7.06916 18.5932 4.73741 18.155 2.88473L18.0347 2.37388L18.5296 2.19452C20.9272 1.32721 23.4338 0.802731 25.9835 0.634716L26.5012 0.598392ZM27.7999 40.7422C34.9336 40.7422 40.7392 34.9389 40.7392 27.8029C40.7392 20.6691 34.9359 14.8636 27.7999 14.8636C20.6639 14.8636 14.8606 20.6669 14.8606 27.8029C14.8606 34.9389 20.6661 40.7422 27.7999 40.7422Z" fill="url(#paint0_radial_1357_2409)"/>
<defs>
<radialGradient id="paint0_radial_1357_2409" cx="0" cy="0" r="1" gradientUnits="userSpaceOnUse" gradientTransform="translate(29.4998 30) rotate(-174.523) scale(36.6674 36.6644)">
<stop stop-color="#006CE4"/>
<stop offset="1" stop-color="white" stop-opacity="0"/>
</radialGradient>
</defs>
</svg>
