<svg width="51" height="20" viewBox="0 0 51 20" fill="none" xmlns="http://www.w3.org/2000/svg">
<path fill-rule="evenodd" clip-rule="evenodd" d="M50.0562 9.99949C50.0562 10.3081 49.806 10.5583 49.4974 10.5583L1.83293 10.5583L9.47438 19.1672C9.6577 19.3737 9.63889 19.6897 9.43236 19.873C9.22584 20.0563 8.90982 20.0375 8.72651 19.831L0.294495 10.3315L-0.00012207 9.99957L0.294495 9.66765L8.72651 0.168133C8.90982 -0.0383873 9.22584 -0.0572014 9.43236 0.126112C9.63889 0.309425 9.6577 0.625448 9.47438 0.83197L1.83306 9.4407L49.4974 9.4407C49.806 9.4407 50.0562 9.69088 50.0562 9.99949Z" fill="url(#paint0_linear_1357_2417)"/>
<defs>
<linearGradient id="paint0_linear_1357_2417" x1="50.0562" y1="9.99957" x2="-0.00012207" y2="9.99957" gradientUnits="userSpaceOnUse">
<stop stop-color="#006CE4"/>
<stop offset="1" stop-color="#00B98D"/>
</linearGradient>
</defs>
</svg>
