<svg width="54" height="36" viewBox="0 0 54 36" fill="none" xmlns="http://www.w3.org/2000/svg">
<circle cx="36" cy="18" r="17.5" stroke="url(#paint0_linear_1_2)"/>
<path d="M1 17.5C0.723858 17.5 0.5 17.7239 0.5 18C0.5 18.2761 0.723858 18.5 1 18.5V17.5ZM36.3536 18.3536C36.5488 18.1583 36.5488 17.8417 36.3536 17.6464L33.1716 14.4645C32.9763 14.2692 32.6597 14.2692 32.4645 14.4645C32.2692 14.6597 32.2692 14.9763 32.4645 15.1716L35.2929 18L32.4645 20.8284C32.2692 21.0237 32.2692 21.3403 32.4645 21.5355C32.6597 21.7308 32.9763 21.7308 33.1716 21.5355L36.3536 18.3536ZM1 18.5L36 18.5V17.5L1 17.5V18.5Z" fill="url(#paint1_linear_1_2)"/>
<defs>
<linearGradient id="paint0_linear_1_2" x1="54" y1="18" x2="18" y2="18" gradientUnits="userSpaceOnUse">
<stop stop-color="#F86CA7"/>
<stop offset="1" stop-color="#FF7F18"/>
</linearGradient>
<linearGradient id="paint1_linear_1_2" x1="36" y1="18" x2="1" y2="18" gradientUnits="userSpaceOnUse">
<stop stop-color="#F86CA7"/>
<stop offset="1" stop-color="#FF7F18"/>
</linearGradient>
</defs>
</svg>
