<svg width="101" height="28" viewBox="0 0 101 28" fill="none" xmlns="http://www.w3.org/2000/svg">
<path d="M99.6269 6.71312C97.9091 7.67661 96.1945 8.63944 94.4767 9.60293C93.9579 9.89506 93.4062 9.42722 93.4061 8.89467C93.4104 7.85237 93.4141 6.80681 93.4152 5.76517C86.7697 5.39397 80.2095 7.4037 74.3252 10.5412C68.0628 13.8812 62.3684 19.7142 54.9415 20.1397C53.3639 20.23 51.3683 19.978 49.4019 19.3875C47.3622 22.791 43.9318 25.5582 40.5359 26.8496C36.029 28.5637 30.944 27.9021 27.1201 25.1454C22.8847 26.8144 17.5109 26.4118 13.5447 24.9663C6.30526 22.3244 1.12696 15.7691 0.133073 8.1251C0.0653332 7.59273 0.86794 7.41587 0.957806 7.95731C1.89294 13.717 5.17232 18.9828 10.1615 22.0656C14.6985 24.8706 20.8168 26.0072 25.9387 24.1917C25.4 23.7042 24.8948 23.1659 24.4279 22.5824C21.5011 18.9003 19.9271 10.4991 26.4437 9.63802C32.3873 8.8528 35.0919 15.3652 32.767 20.126C31.8122 22.0808 30.332 23.498 28.5655 24.4714C31.7964 26.5075 35.8669 27.0192 39.5801 25.7414C42.8759 24.6061 46.1019 22.0807 48.0431 18.9244C44.1748 17.4285 40.8392 14.5792 41.6236 10.4236C42.0871 7.96488 44.266 6.42588 46.7293 6.94917C49.4899 7.53749 51.1693 10.0249 51.2678 12.7526C51.3363 14.6349 50.871 16.4868 50.0381 18.2099C53.8768 19.2776 58.1355 18.5537 61.7585 16.6666C64.6661 15.1523 67.2833 13.1578 70.0469 11.4015C72.7918 9.65236 75.687 8.12707 78.7161 6.92733C83.4103 5.06995 88.4105 4.01873 93.4224 4.28809C93.4235 3.74511 93.4272 3.1982 93.4283 2.65522C93.3491 2.18285 93.2576 1.71638 93.155 1.24538C93.077 0.894904 93.3033 0.611395 93.5875 0.495904C93.8548 0.197293 94.4014 0.208203 94.719 0.48959C96.6208 2.17532 98.5207 3.86823 100.435 5.54806C101.056 6.09327 100.3 6.91533 99.6269 6.71312ZM32.2832 17.4156C32.6841 14.8984 31.6813 12.2632 29.2 11.3025C26.543 10.2759 23.726 11.5207 23.2417 14.4585C22.8221 16.9999 23.8888 19.7002 25.4459 21.6697C26.0155 22.3917 26.6562 23.0314 27.3493 23.596C29.8311 22.3651 31.829 20.2523 32.2832 17.4156ZM49.8416 13.8535C50.1197 11.1815 48.39 7.64932 45.1689 8.27075C43.6947 8.55371 42.9361 10.0107 42.9176 11.4154C42.8955 13.0685 43.9293 14.4933 45.1156 15.5376C46.2158 16.5078 47.4249 17.232 48.6923 17.7442C49.297 16.5119 49.7033 15.2012 49.8416 13.8535Z" fill="url(#paint0_linear_1453_2769)"/>
<defs>
<linearGradient id="paint0_linear_1453_2769" x1="-0.499997" y1="7.5" x2="102" y2="4.5" gradientUnits="userSpaceOnUse">
<stop stop-color="#F86CA7"/>
<stop offset="1" stop-color="#FF7F18"/>
</linearGradient>
</defs>
</svg>
