<svg width="28" height="28" viewBox="0 0 28 28" fill="none" xmlns="http://www.w3.org/2000/svg">
<path d="M3.59311 28C2.88242 27.9998 2.18773 27.789 1.59686 27.394C1.00599 26.9991 0.545475 26.4378 0.273526 25.7812C0.00157753 25.1245 -0.069592 24.402 0.0690149 23.7049C0.207622 23.0078 0.549782 22.3675 1.05224 21.8648L16.0369 6.87914H4.22743C3.31526 6.87914 2.44045 6.51676 1.79545 5.87172C1.15045 5.22667 0.78809 4.3518 0.78809 3.43957C0.78809 2.52734 1.15045 1.65247 1.79545 1.00743C2.44045 0.362382 3.31526 0 4.22743 0H27.1006C27.3389 0 27.5675 0.094666 27.7359 0.263173C27.9044 0.43168 27.9991 0.660224 27.9991 0.898529V23.7697C28.0096 24.2281 27.9283 24.684 27.7602 25.1106C27.592 25.5372 27.3403 25.9259 27.0198 26.2538C26.6993 26.5817 26.3165 26.8423 25.8939 27.0202C25.4713 27.1981 25.0174 27.2897 24.5589 27.2897C24.1004 27.2897 23.6465 27.1981 23.2239 27.0202C22.8013 26.8423 22.4185 26.5817 22.098 26.2538C21.7775 25.9259 21.5258 25.5372 21.3576 25.1106C21.1894 24.684 21.1082 24.2281 21.1186 23.7697V11.9612L6.13398 26.9469C5.80134 27.282 5.40543 27.5477 4.96923 27.7285C4.53304 27.9093 4.06527 28.0016 3.59311 28V28ZM4.22743 1.79706C3.79183 1.79706 3.37408 1.97011 3.06607 2.27814C2.75806 2.58617 2.58503 3.00395 2.58503 3.43957C2.58503 3.87519 2.75806 4.29297 3.06607 4.601C3.37408 4.90903 3.79183 5.08208 4.22743 5.08208H18.2058C18.3832 5.08248 18.5565 5.13539 18.7039 5.23414C18.8513 5.3329 18.9662 5.47309 19.034 5.63703C19.1018 5.80097 19.1196 5.98133 19.0851 6.15536C19.0506 6.3294 18.9654 6.48932 18.8401 6.61498L2.32267 23.1353C1.9858 23.4723 1.79655 23.9293 1.79655 24.4059C1.79655 24.8824 1.9858 25.3394 2.32267 25.6764C2.66475 26.0035 3.11981 26.1861 3.59311 26.1861C4.0664 26.1861 4.52146 26.0035 4.86354 25.6764L21.381 9.15782C21.5065 9.03194 21.6666 8.94614 21.8409 8.91128C22.0153 8.87642 22.196 8.89406 22.3603 8.96198C22.5246 9.0299 22.6651 9.14503 22.7639 9.29282C22.8628 9.4406 22.9155 9.61438 22.9156 9.79218V23.7697C22.9083 23.9901 22.9454 24.2097 23.0247 24.4154C23.104 24.6212 23.2239 24.8089 23.3772 24.9674C23.5305 25.1259 23.7141 25.2519 23.9171 25.3379C24.1201 25.424 24.3384 25.4684 24.5589 25.4684C24.7794 25.4684 24.9976 25.424 25.2006 25.3379C25.4036 25.2519 25.5872 25.1259 25.7405 24.9674C25.8939 24.8089 26.0137 24.6212 26.093 24.4154C26.1723 24.2097 26.2095 23.9901 26.2022 23.7697V1.79706H4.22743Z" fill="#FF7222"/>
</svg>
