<svg width="30" height="30" viewBox="0 0 30 30" fill="none" xmlns="http://www.w3.org/2000/svg">
<path d="M24.9897 20.4419H24.9879C24.1252 20.4414 23.6382 19.9937 23.3594 18.9459C23.0744 17.8743 23.0648 16.3202 23.0548 14.6747C23.0426 12.6812 23.0289 10.4217 22.5334 8.40086C22.4748 8.16191 22.2333 8.01566 21.9944 8.07425C21.7556 8.13284 21.6094 8.37408 21.6677 8.61304C22.1385 10.532 22.1518 12.7359 22.1637 14.6802C22.1743 16.384 22.1839 17.9933 22.4981 19.1748C22.6348 19.6886 22.8307 20.1109 23.0838 20.4419H4.51812C4.77126 20.1109 4.96718 19.6886 5.10383 19.1748C5.41808 17.9933 5.42792 16.384 5.43822 14.6802C5.45401 12.079 5.4721 9.13077 6.53639 6.87445C7.73436 4.33456 10.1106 3.09974 13.8011 3.09974C15.8278 3.09974 17.4863 3.4806 18.7303 4.23202C19.809 4.88341 20.6009 5.80924 21.1514 7.06236C21.2503 7.28758 21.5132 7.39012 21.7385 7.29102C21.9637 7.19214 22.0662 6.92938 21.9673 6.70394C21.3491 5.29677 20.4151 4.20844 19.191 3.46916C18.4096 2.9972 17.492 2.65686 16.447 2.44949C16.3417 1.08146 15.1957 0 13.8011 0C12.4065 0 11.2603 1.08169 11.1557 2.44995C10.1587 2.64747 9.27725 2.96585 8.5208 3.40415C7.3036 4.10957 6.36473 5.14937 5.73027 6.49428C4.5822 8.92843 4.56344 11.9813 4.54719 14.6747C4.53712 16.3202 4.52773 17.8743 4.24255 18.9459C3.96377 19.9937 3.47671 20.4414 2.61405 20.4419H2.61222C1.17187 20.4419 0 21.6137 0 23.0543C0 24.4947 1.17187 25.6665 2.61222 25.6665H5.43227C5.67832 25.6665 5.8779 25.4669 5.8779 25.2209C5.8779 24.9749 5.67832 24.7755 5.43227 24.7755H2.61222C1.66328 24.7755 0.891035 24.0033 0.891035 23.0543C0.891035 22.1054 1.66305 21.3333 2.61199 21.3331H2.61222H2.61383H24.9879H24.9895H24.99C25.9387 21.3333 26.7107 22.1054 26.7107 23.0543C26.7107 24.0033 25.9384 24.7755 24.9895 24.7755H7.21457C6.96852 24.7755 6.76917 24.9749 6.76917 25.2209C6.76917 25.4669 6.96852 25.6665 7.21457 25.6665H9.04356C9.26901 28.0936 11.3161 29.9999 13.8011 29.9999C16.2858 29.9999 18.3329 28.0936 18.5584 25.6665H24.9897C26.4301 25.6665 27.6019 24.4947 27.6019 23.0543C27.6019 21.6137 26.4301 20.4419 24.9897 20.4419ZM13.8011 0.891035C14.6544 0.891035 15.368 1.50055 15.5298 2.3069C14.9828 2.24235 14.4069 2.20871 13.8011 2.20871C13.1952 2.20871 12.6194 2.24212 12.0726 2.30667C12.2344 1.50032 12.9478 0.891035 13.8011 0.891035ZM13.8011 29.1089C11.808 29.1089 10.1612 27.601 9.9394 25.6665H17.6625C17.4408 27.601 15.794 29.1089 13.8011 29.1089Z" fill="url(#paint0_linear_1453_2770)"/>
<path d="M20.9545 2.79623C20.9625 2.80058 21.7558 3.2533 22.5363 4.30502C23.5818 5.71356 24.1117 7.4732 24.1117 9.5352C24.1117 9.78124 24.3113 9.98083 24.5573 9.98083C24.8034 9.98083 25.0029 9.78124 25.0029 9.5352C25.0029 6.6966 24.0336 4.81245 23.2204 3.7319C22.3269 2.54446 21.4248 2.03794 21.3868 2.01689C21.1719 1.89832 20.9023 1.97614 20.7828 2.19038C20.6633 2.40484 20.7405 2.67584 20.9545 2.79623Z" fill="url(#paint1_linear_1453_2770)"/>
<path d="M24.3163 2.95968C24.3879 3.0066 26.0723 4.13705 26.0723 6.98114C26.0723 7.22718 26.2719 7.42654 26.5179 7.42654C26.764 7.42654 26.9633 7.22718 26.9633 6.98114C26.9633 3.62664 24.8853 2.26548 24.7967 2.20918C24.59 2.07757 24.3168 2.13845 24.184 2.34468C24.0513 2.55067 24.111 2.82579 24.3163 2.95968Z" fill="url(#paint2_linear_1453_2770)"/>
<path d="M3.04404 9.98089C3.29008 9.98089 3.48967 9.78131 3.48967 9.53526C3.48967 7.47326 4.01976 5.71362 5.06506 4.30508C5.84074 3.26001 6.62924 2.80636 6.64664 2.79629C6.8611 2.67705 6.93892 2.40651 6.82013 2.19159C6.70088 1.97621 6.42989 1.89816 6.21451 2.01695C6.17651 2.03801 5.27449 2.54452 4.38094 3.73196C3.56795 4.81251 2.59863 6.69667 2.59863 9.53526C2.59863 9.78131 2.79799 9.98089 3.04404 9.98089Z" fill="url(#paint3_linear_1453_2770)"/>
<path d="M1.08357 7.42652C1.32962 7.42652 1.52898 7.22716 1.52898 6.98111C1.52898 4.13932 3.2108 3.00818 3.28496 2.95989C3.49095 2.82737 3.55138 2.55294 3.41977 2.34603C3.2877 2.13843 3.01236 2.07732 2.80453 2.20938C2.71619 2.26569 0.637939 3.62662 0.637939 6.98111C0.637939 7.22716 0.837524 7.42652 1.08357 7.42652Z" fill="url(#paint4_linear_1453_2770)"/>
<defs>
<linearGradient id="paint0_linear_1453_2770" x1="9.25455e-07" y1="15" x2="26.5" y2="15" gradientUnits="userSpaceOnUse">
<stop stop-color="#F86CA7"/>
<stop offset="1" stop-color="#FF7F18"/>
</linearGradient>
<linearGradient id="paint1_linear_1453_2770" x1="20.7266" y1="5.97113" x2="24.8322" y2="5.97113" gradientUnits="userSpaceOnUse">
<stop stop-color="#F86CA7"/>
<stop offset="1" stop-color="#FF7F18"/>
</linearGradient>
<linearGradient id="paint2_linear_1453_2770" x1="24.1133" y1="4.78311" x2="26.8495" y2="4.78311" gradientUnits="userSpaceOnUse">
<stop stop-color="#F86CA7"/>
<stop offset="1" stop-color="#FF7F18"/>
</linearGradient>
<linearGradient id="paint3_linear_1453_2770" x1="2.59863" y1="5.97117" x2="6.70498" y2="5.97117" gradientUnits="userSpaceOnUse">
<stop stop-color="#F86CA7"/>
<stop offset="1" stop-color="#FF7F18"/>
</linearGradient>
<linearGradient id="paint4_linear_1453_2770" x1="0.63794" y1="4.7831" x2="3.37557" y2="4.7831" gradientUnits="userSpaceOnUse">
<stop stop-color="#F86CA7"/>
<stop offset="1" stop-color="#FF7F18"/>
</linearGradient>
</defs>
</svg>
