<svg width="70" height="70" viewBox="0 0 70 70" fill="none" xmlns="http://www.w3.org/2000/svg">
<path d="M1.89033 0.0172577C0.996965 0.00775146 0.267666 0.72934 0.267666 1.62276C0.267666 2.50328 0.976831 3.21952 1.85731 3.22827L63.8758 3.84426L0 67.7298L2.26981 70L66.1456 6.11442L66.772 68.1639C66.7809 69.0445 67.4972 69.7537 68.3779 69.7537C69.2711 69.7537 69.9927 69.0249 69.9838 68.1317L69.3255 2.29157C69.3209 1.97507 69.223 1.66696 69.0439 1.40596C68.8649 1.14495 68.6127 0.942673 68.3191 0.824532C68.1328 0.74688 67.9319 0.71035 67.7302 0.717453L1.89033 0.0172577Z" fill="white"/>
</svg>
