<svg width="32" height="23" viewBox="0 0 32 23" fill="none" xmlns="http://www.w3.org/2000/svg">
<path d="M25.3383 8.20741L25.5621 7.64464C26.2907 5.81191 27.4335 4.01439 28.9472 2.29376L28.9473 2.29371C29.2717 1.92509 29.3125 1.40196 29.0514 0.99576L29.0502 0.993847C28.8457 0.672527 28.5163 0.500061 28.1493 0.500061C28.0209 0.500061 27.9389 0.51012 27.8696 0.534882L27.8558 0.539825L27.8417 0.543949C26.3194 0.98925 23.7894 1.99977 21.6202 4.1523C19.4631 6.29275 17.6334 9.59016 17.5345 14.676L25.3383 8.20741ZM25.3383 8.20741L25.9333 8.32056M25.3383 8.20741L25.9333 8.32056M25.9333 8.32056C29.17 8.93614 31.5 11.8087 31.5 15.0934C31.5 17.0642 30.6637 18.9558 29.2012 20.2794C27.7384 21.5926 25.7665 22.2403 23.784 22.0413M25.9333 8.32056L23.784 22.0413M23.784 22.0413C20.2309 21.6747 17.4646 18.4554 17.5345 14.6764L23.784 22.0413Z" stroke="white"/>
<path d="M14.4648 15.0934C14.4648 17.0642 13.6285 18.9558 12.166 20.2793C10.703 21.5928 8.73109 22.2402 6.75975 22.0413C3.23445 21.6745 0.499472 18.5344 0.499472 14.816V14.6716C0.599346 9.58827 2.42854 6.29214 4.58499 4.15231C6.75424 1.99978 9.2842 0.989262 10.8065 0.543962L10.8206 0.539839L10.8345 0.534893C10.9037 0.51013 10.9858 0.500072 11.1141 0.500072C11.4811 0.500072 11.8105 0.67256 12.0149 0.993814L12.0162 0.9958C12.2774 1.40199 12.2365 1.9251 11.9121 2.29372L11.9121 2.29377C10.3984 4.01439 9.25557 5.8119 8.52685 7.64463L8.30308 8.20741L8.89805 8.32056C12.1349 8.93615 14.4648 11.8088 14.4648 15.0934Z" stroke="white"/>
</svg>
