<svg width="64" height="46" viewBox="0 0 64 46" fill="none" xmlns="http://www.w3.org/2000/svg">
<path d="M44.5 22.5198C44.5 34.67 34.6503 44.5198 22.5 44.5198C10.3497 44.5198 0.5 34.67 0.5 22.5198C0.5 10.3695 10.3497 0.519775 22.5 0.519775C34.6503 0.519775 44.5 10.3695 44.5 22.5198Z" stroke="url(#paint0_linear_1_2)"/>
<path d="M23 22.5198C22.7239 22.5198 22.5 22.7436 22.5 23.0198C22.5 23.2959 22.7239 23.5198 23 23.5198V22.5198ZM63.3536 23.3733C63.5488 23.1781 63.5488 22.8615 63.3536 22.6662L60.1716 19.4842C59.9763 19.289 59.6597 19.289 59.4645 19.4842C59.2692 19.6795 59.2692 19.9961 59.4645 20.1913L62.2929 23.0198L59.4645 25.8482C59.2692 26.0435 59.2692 26.36 59.4645 26.5553C59.6597 26.7506 59.9763 26.7506 60.1716 26.5553L63.3536 23.3733ZM23 23.5198L63 23.5198V22.5198L23 22.5198V23.5198Z" fill="url(#paint1_linear_1_2)"/>
<defs>
<linearGradient id="paint0_linear_1_2" x1="4.81727e-08" y1="23" x2="45" y2="23" gradientUnits="userSpaceOnUse">
<stop stop-color="#F86CA7"/>
<stop offset="1" stop-color="#FF7F18"/>
</linearGradient>
<linearGradient id="paint1_linear_1_2" x1="23" y1="23.0198" x2="63" y2="23" gradientUnits="userSpaceOnUse">
<stop stop-color="#F86CA7"/>
<stop offset="1" stop-color="#FF7F18"/>
</linearGradient>
</defs>
</svg>
