<svg width="300" height="96" viewBox="0 0 300 96" fill="none" xmlns="http://www.w3.org/2000/svg">
<g clip-path="url(#clip0_1134_278)">
<path d="M170.711 26.4458H164.404C164.005 26.4458 163.682 26.7694 163.682 27.1685C163.682 27.5677 164.005 27.8913 164.404 27.8913H170.711C171.11 27.8913 171.433 27.5677 171.433 27.1685C171.433 26.7694 171.11 26.4458 170.711 26.4458Z" fill="#160803"/>
<path d="M160.823 27.8913H161.592C161.991 27.8913 162.315 27.5677 162.315 27.1685C162.315 26.7694 161.991 26.4458 161.592 26.4458H160.823C160.424 26.4458 160.101 26.7694 160.101 27.1685C160.101 27.5677 160.424 27.8913 160.823 27.8913Z" fill="#160803"/>
<path d="M160.823 31.2868H170.711C171.11 31.2868 171.434 30.9632 171.434 30.5641C171.434 30.1649 171.11 29.8413 170.711 29.8413H160.823C160.424 29.8413 160.101 30.1649 160.101 30.5641C160.101 30.9632 160.424 31.2868 160.823 31.2868Z" fill="#160803"/>
<path d="M163.437 65.6522C163.437 62.7652 162.474 59.9329 160.718 57.6445L160.852 55.177C160.943 53.4974 159.61 52.0763 157.915 52.0763H150.003C149.639 51.8191 149.419 51.4014 149.419 50.9502V48.9322C150.645 48.1389 151.507 47.2342 152.139 46.1576H153.538C155.156 46.1576 156.472 44.8412 156.472 43.2232V37.8255C156.472 36.9151 155.946 36.1104 155.158 35.7296V31.9414C155.158 30.2169 153.755 28.8138 152.031 28.8138H151.949C151.9 28.8138 151.86 28.7736 151.86 28.7243C151.86 26.9998 150.457 25.5967 148.732 25.5967H141.078C137.279 25.5967 134.187 28.6878 134.187 32.4873V35.7295C133.4 36.1103 132.873 36.915 132.873 37.8254V40.5705C132.873 41.8549 133.918 42.8998 135.203 42.8998H136.136C136.377 44.9423 137.335 46.8078 138.836 48.1047C139.188 48.409 139.552 48.6809 139.927 48.9237V50.9501C139.927 51.3999 139.705 51.8178 139.34 52.0762H131.431C129.749 52.0762 128.402 53.4842 128.494 55.1769L128.628 57.6444C126.872 59.9329 125.908 62.7652 125.908 65.6522V68.3745C125.549 68.7772 125.33 69.3077 125.33 69.8886C125.33 71.1441 126.351 72.1654 127.607 72.1654H161.739C162.994 72.1654 164.016 71.144 164.016 69.8886C164.016 69.3077 163.797 68.7772 163.437 68.3746V65.6522ZM161.992 65.6522V67.6261C161.909 67.6169 161.825 67.6118 161.739 67.6118H160.177L160.585 60.0961C161.5 61.7952 161.992 63.7093 161.992 65.6522ZM154.953 37.4726C155 37.5813 155.027 37.7006 155.027 37.8256V40.5707C155.027 41.058 154.631 41.4544 154.143 41.4544H153.284V38.7299L153.729 38.5747C154.28 38.3828 154.714 37.978 154.953 37.4726ZM150.127 45.8466H148.314C148.021 45.8466 147.783 45.6088 147.783 45.3164C147.783 45.0241 148.021 44.7862 148.314 44.7862H150.127C150.42 44.7862 150.658 45.0241 150.658 45.3164C150.658 45.6088 150.42 45.8466 150.127 45.8466ZM153.538 44.7122H152.808C153.011 44.1319 153.152 43.524 153.226 42.8999H154.143C154.456 42.8999 154.754 42.8376 155.027 42.7253V43.2234C155.027 44.0443 154.359 44.7122 153.538 44.7122ZM135.633 32.4875C135.633 29.4851 138.076 27.0424 141.078 27.0424H148.733C149.66 27.0424 150.415 27.797 150.415 28.7245C150.415 29.5709 151.103 30.2595 151.95 30.2595H152.031C152.958 30.2595 153.713 31.0141 153.713 31.9416V36.5637C153.713 36.8545 153.528 37.1141 153.254 37.2098L151.735 37.7388C151.674 37.76 151.61 37.7158 151.61 37.65L151.613 34.7779C151.622 32.6818 149.659 30.8538 146.909 31.7371C145.526 32.1815 143.815 32.18 142.436 31.7371C139.715 30.8624 137.724 32.658 137.733 34.7757L137.736 37.6502C137.736 37.7165 137.671 37.7601 137.612 37.7388L136.092 37.2097C135.818 37.1141 135.633 36.8544 135.633 36.5636V32.4875H135.633ZM134.319 40.5707V37.8255C134.319 37.7006 134.346 37.5812 134.393 37.4725C134.633 37.978 135.066 38.3828 135.617 38.5747L136.062 38.7298V41.4544H135.203C134.715 41.4544 134.319 41.0579 134.319 40.5707ZM137.521 42.0651C137.497 41.115 137.512 40.1064 137.508 39.183C137.552 39.1869 137.597 39.1891 137.642 39.1891C138.501 39.1891 139.183 38.4906 139.181 37.6481L139.178 34.7717C139.173 33.5982 140.226 32.5448 141.994 33.1132C143.67 33.6517 145.681 33.65 147.352 33.1132C149.036 32.5719 150.173 33.5248 150.168 34.7741L150.165 37.6483C150.164 38.5441 150.93 39.2618 151.838 39.183V42.1236C151.817 42.7483 151.714 43.3579 151.54 43.9376C151.181 43.5699 150.681 43.3406 150.127 43.3406H148.314C147.224 43.3406 146.338 44.2269 146.338 45.3163C146.338 46.4058 147.224 47.292 148.314 47.292H149.232C147.897 48.334 146.379 48.8774 144.711 48.905C141.062 48.8758 137.625 46.1802 137.521 42.0651ZM141.373 50.9503V49.6857C142.417 50.1183 143.532 50.3424 144.709 50.3507H144.714C144.718 50.3507 144.722 50.3507 144.725 50.3506C145.871 50.3328 146.956 50.1108 147.973 49.6916V50.9502C147.973 51.3448 148.056 51.7268 148.208 52.0763H141.137C141.29 51.7267 141.373 51.3446 141.373 50.9503ZM128.761 60.0961L128.875 62.199C128.897 62.5976 129.238 62.9042 129.636 62.8815C130.034 62.8599 130.34 62.5193 130.318 62.1207L129.937 55.0988C129.891 54.2446 130.569 53.5219 131.431 53.5219H157.915C158.771 53.5219 159.455 54.2381 159.409 55.0988L158.73 67.6119H147.396C147.534 66.7863 147.906 66.0098 148.479 65.3736L148.499 65.3504C150.687 62.9029 150.032 59.0756 147.204 57.4688C146.479 57.0566 145.557 57.5707 145.557 58.4253V61.7047C145.557 61.855 145.435 61.9772 145.285 61.9772H144.061C143.911 61.9772 143.789 61.8549 143.789 61.7047V58.4253C143.789 57.5723 142.868 57.0557 142.141 57.4688C139.306 59.0801 138.664 62.9088 140.849 65.3528L140.867 65.3736C141.44 66.0097 141.812 66.7862 141.95 67.6118H130.616L130.501 65.475C130.479 65.0765 130.138 64.7705 129.74 64.7925C129.341 64.8141 129.036 65.1547 129.057 65.5533L129.169 67.6118H127.607C127.521 67.6118 127.437 67.617 127.354 67.6261V65.6522C127.354 63.7094 127.846 61.7952 128.761 60.0961ZM143.41 67.6118C143.262 66.4275 142.755 65.3096 141.942 64.4065L141.924 64.387C140.528 62.8249 140.715 60.4092 142.343 59.077V61.7046C142.343 62.652 143.114 63.4226 144.061 63.4226H145.285C146.232 63.4226 147.003 62.6519 147.003 61.7046V59.077C148.62 60.4004 148.828 62.8143 147.42 64.389L147.404 64.4064C146.591 65.3096 146.084 66.4275 145.936 67.6118H143.41ZM161.739 70.72H127.607C127.149 70.72 126.776 70.347 126.776 69.8887C126.776 69.4304 127.149 69.0574 127.607 69.0574H161.739C162.197 69.0574 162.57 69.4303 162.57 69.8887C162.57 70.3471 162.197 70.72 161.739 70.72Z" fill="#160803"/>
<path d="M173.947 27.8324C174.346 27.8324 174.669 27.5088 174.669 27.1097V25.7108C174.669 24.1534 173.402 22.8862 171.845 22.8862H159.689C158.131 22.8862 156.864 24.1534 156.864 25.7108V31.7904C156.864 33.348 158.131 34.6151 159.689 34.6151C159.967 34.6151 160.194 34.8415 160.194 35.1198V38.8796C160.194 39.4226 160.545 39.8848 161.069 40.0296C161.595 40.1753 162.133 39.9562 162.41 39.4932L165.189 34.8602C165.279 34.709 165.445 34.6151 165.622 34.6151H171.845C173.402 34.6151 174.669 33.348 174.669 31.7904V30.4887C174.669 30.0895 174.346 29.7659 173.947 29.7659C173.548 29.7659 173.224 30.0895 173.224 30.4887V31.7904C173.224 32.5509 172.605 33.1696 171.845 33.1696H165.622C164.94 33.1696 164.299 33.5326 163.949 34.1169L161.639 37.9686V35.1198C161.639 34.0445 160.764 33.1696 159.689 33.1696C158.928 33.1696 158.31 32.5509 158.31 31.7904V25.7108C158.31 24.9504 158.928 24.3317 159.689 24.3317H171.845C172.605 24.3317 173.224 24.9504 173.224 25.7108V27.1097C173.224 27.5088 173.548 27.8324 173.947 27.8324Z" fill="#160803"/>
</g>
<path fill-rule="evenodd" clip-rule="evenodd" d="M150 1C158.25 1 177.546 4.47362 188.748 21.6067C192.693 27.6401 194.373 31.931 195.958 38.0756C194.458 38.4006 193.334 39.7357 193.334 41.3333C193.334 43.1742 194.826 44.6666 196.667 44.6666C198.508 44.6666 200.001 43.1742 200.001 41.3333C200.001 39.5961 198.672 38.1693 196.975 38.014C195.353 31.6835 193.641 27.2623 189.585 21.0595C178.121 3.52618 158.417 0 150 0V0.0139394C141.581 0.000156967 121.879 3.54094 110.415 21.0734C106.362 27.2716 104.65 31.6909 103.029 38.0139C101.331 38.1682 100.001 39.5955 100.001 41.3334C100.001 43.1744 101.493 44.6667 103.334 44.6667C105.175 44.6667 106.668 43.1744 106.668 41.3334C106.668 39.7365 105.545 38.4019 104.045 38.0761C105.63 31.9387 107.31 27.6497 111.252 21.6207C122.455 4.48732 141.751 1.00021 149.999 1.01394L150 0.51394V1Z" fill="#FF7F18"/>
<path fill-rule="evenodd" clip-rule="evenodd" d="M150 94.9995C158.25 94.9995 177.546 91.5259 188.748 74.3928C192.693 68.3594 194.373 64.0685 195.958 57.9239C194.458 57.5989 193.334 56.2638 193.334 54.6662C193.334 52.8253 194.826 51.3329 196.667 51.3329C198.508 51.3329 200.001 52.8253 200.001 54.6662C200.001 56.4034 198.672 57.8302 196.975 57.9855C195.353 64.316 193.641 68.7372 189.585 74.94C178.121 92.4733 158.417 95.9995 150 95.9995V95.9856C141.581 95.9994 121.879 92.4586 110.415 74.9261C106.362 68.7279 104.65 64.3086 103.029 57.9856C101.331 57.8313 100.001 56.404 100.001 54.6661C100.001 52.8251 101.493 51.3328 103.334 51.3328C105.175 51.3328 106.668 52.8251 106.668 54.6661C106.668 56.263 105.545 57.5976 104.045 57.9234C105.63 64.0608 107.31 68.3498 111.252 74.3788C122.455 91.5122 141.751 94.9993 149.999 94.9856L150 95.4856V94.9995Z" fill="#FF7F18"/>
<rect x="210" y="47" width="90" height="1" fill="#FF7F18"/>
<rect y="47" width="90" height="1" fill="#FF7F18"/>
<defs>
<clipPath id="clip0_1134_278">
<rect width="49.3396" height="49.3396" fill="white" transform="translate(125.33 22.856)"/>
</clipPath>
</defs>
</svg>
