<svg width="14" height="14" viewBox="0 0 14 14" fill="none" xmlns="http://www.w3.org/2000/svg">
<path d="M13.5998 1.91401C13.3938 1.7077 13.0597 1.70734 12.8537 1.91313L6.52383 8.22631L4.24002 5.74588C4.04268 5.53167 3.70903 5.51778 3.49447 5.71509C3.28007 5.91243 3.26634 6.24624 3.46368 6.46064L6.11947 9.34489C6.21673 9.4506 6.35285 9.51199 6.49637 9.51497C6.50023 9.51513 6.50395 9.51513 6.50764 9.51513C6.64712 9.51513 6.7813 9.45973 6.88014 9.36124L13.5987 2.66025C13.8052 2.45448 13.8056 2.12032 13.5998 1.91401Z" fill="url(#paint0_linear_1533_2006)"/>
<path d="M13.4723 6.47235C13.1809 6.47235 12.9447 6.70854 12.9447 7C12.9447 10.2781 10.2781 12.9447 7 12.9447C3.72214 12.9447 1.05528 10.2781 1.05528 7C1.05528 3.72214 3.72214 1.05528 7 1.05528C7.29143 1.05528 7.52765 0.819082 7.52765 0.527652C7.52765 0.236195 7.29143 0 7 0C3.14016 0 0 3.14016 0 7C0 10.8597 3.14016 14 7 14C10.8597 14 14 10.8597 14 7C14 6.70857 13.7638 6.47235 13.4723 6.47235Z" fill="url(#paint1_linear_1533_2006)"/>
<defs>
<linearGradient id="paint0_linear_1533_2006" x1="3.32422" y1="5.63708" x2="13.7539" y2="5.63708" gradientUnits="userSpaceOnUse">
<stop stop-color="#F86CA7"/>
<stop offset="1" stop-color="#FF7F18"/>
</linearGradient>
<linearGradient id="paint1_linear_1533_2006" x1="0" y1="7" x2="14" y2="7" gradientUnits="userSpaceOnUse">
<stop stop-color="#F86CA7"/>
<stop offset="1" stop-color="#FF7F18"/>
</linearGradient>
</defs>
</svg>
