<svg width="36" height="37" viewBox="0 0 36 37" fill="none" xmlns="http://www.w3.org/2000/svg">
<path d="M16.2 20.6994C16.2 21.0307 16.4687 21.2994 16.8 21.2994C17.1314 21.2994 17.4 21.0307 17.4 20.6994C17.4 18.7146 15.564 17.0742 13.2 16.833V16.1994C13.2 15.868 12.9314 15.5994 12.6 15.5994C12.2687 15.5994 12 15.868 12 16.1994V16.833C9.63605 17.073 7.80005 18.7146 7.80005 20.6994C7.80005 22.6842 9.63605 24.3246 12 24.5658V29.9585C10.3002 29.7437 9.00005 28.6343 9.00005 27.2994C9.00005 26.968 8.73142 26.6994 8.40005 26.6994C8.06868 26.6994 7.80005 26.968 7.80005 27.2994C7.80005 29.2841 9.63605 30.9245 12 31.1657V31.7993C12 32.1307 12.2687 32.3993 12.6 32.3993C12.9314 32.3993 13.2 32.1307 13.2 31.7993V31.1657C15.564 30.9257 17.4 29.2841 17.4 27.2994C17.4 25.3146 15.564 23.6742 13.2 23.433V18.0402C14.8998 18.255 16.2 19.3644 16.2 20.6994ZM9.00005 20.6994C9.00005 19.3644 10.3002 18.255 12 18.0402V23.3586C10.3002 23.1438 9.00005 22.0344 9.00005 20.6994ZM16.2 27.2994C16.2 28.6343 14.8998 29.7437 13.2 29.9585V24.6402C14.8998 24.855 16.2 25.9644 16.2 27.2994Z" fill="white"/>
<path d="M2.16004 18.1033C1.85949 17.9638 1.50276 18.0943 1.36324 18.3949C0.460195 20.3384 -0.00515901 22.4564 4.31392e-05 24.5995C4.31392e-05 32.1636 4.23904 35.9994 12.6 35.9994C14.2895 36.026 15.9751 35.8317 17.6142 35.4216C17.9345 35.3365 18.1251 35.0078 18.0399 34.6875C17.9548 34.3673 17.6261 34.1767 17.3058 34.2618C15.7667 34.6419 14.1852 34.8226 12.6 34.7994C4.92904 34.7994 1.20004 31.4628 1.20004 24.5995C1.18925 22.6301 1.61699 20.683 2.45224 18.8995C2.59125 18.5989 2.46047 18.2426 2.16004 18.1033Z" fill="white"/>
<path d="M34.2001 14.9995H21.0001C20.006 14.9995 19.2001 15.8054 19.2001 16.7995V34.1995C19.2001 35.1936 20.006 35.9995 21.0001 35.9995H34.2001C35.1942 35.9995 36.0001 35.1936 36.0001 34.1995V16.7995C36.0001 15.8054 35.1942 14.9995 34.2001 14.9995ZM34.8001 34.1995C34.8001 34.5309 34.5314 34.7995 34.2001 34.7995H21.0001C20.6687 34.7995 20.4001 34.5309 20.4001 34.1995V16.7995C20.4001 16.4681 20.6687 16.1995 21.0001 16.1995H34.2001C34.5314 16.1995 34.8001 16.4681 34.8001 16.7995V34.1995Z" fill="white"/>
<path d="M23.4001 22.7995H31.8001C32.4628 22.7995 33.0001 22.2622 33.0001 21.5995V19.1995C33.0001 18.5368 32.4628 17.9995 31.8001 17.9995H23.4001C22.7373 17.9995 22.2001 18.5368 22.2001 19.1995V21.5995C22.2001 22.2622 22.7373 22.7995 23.4001 22.7995ZM23.4001 19.1995H31.8001V21.5995H23.4001V19.1995Z" fill="white"/>
<path d="M24.6001 24.5994H22.8001C22.4687 24.5994 22.2001 24.868 22.2001 25.1994C22.2001 25.5307 22.4687 25.7994 22.8001 25.7994H24.6001C24.9314 25.7994 25.2001 25.5307 25.2001 25.1994C25.2001 24.868 24.9314 24.5994 24.6001 24.5994Z" fill="white"/>
<path d="M24.6001 26.9995H22.8001C22.4687 26.9995 22.2001 27.2681 22.2001 27.5995C22.2001 27.9309 22.4687 28.1995 22.8001 28.1995H24.6001C24.9314 28.1995 25.2001 27.9309 25.2001 27.5995C25.2001 27.2681 24.9314 26.9995 24.6001 26.9995Z" fill="white"/>
<path d="M24.6001 29.3994H22.8001C22.4687 29.3994 22.2001 29.668 22.2001 29.9994C22.2001 30.3308 22.4687 30.5994 22.8001 30.5994H24.6001C24.9314 30.5994 25.2001 30.3308 25.2001 29.9994C25.2001 29.668 24.9314 29.3994 24.6001 29.3994Z" fill="white"/>
<path d="M24.6001 31.7993H22.8001C22.4687 31.7993 22.2001 32.0679 22.2001 32.3993C22.2001 32.7307 22.4687 32.9993 22.8001 32.9993H24.6001C24.9314 32.9993 25.2001 32.7307 25.2001 32.3993C25.2001 32.0679 24.9314 31.7993 24.6001 31.7993Z" fill="white"/>
<path d="M28.8 24.5994H27C26.6687 24.5994 26.4 24.868 26.4 25.1994C26.4 25.5307 26.6687 25.7994 27 25.7994H28.8C29.1314 25.7994 29.4 25.5307 29.4 25.1994C29.4 24.868 29.1314 24.5994 28.8 24.5994Z" fill="white"/>
<path d="M28.8 26.9995H27C26.6687 26.9995 26.4 27.2681 26.4 27.5995C26.4 27.9309 26.6687 28.1995 27 28.1995H28.8C29.1314 28.1995 29.4 27.9309 29.4 27.5995C29.4 27.2681 29.1314 26.9995 28.8 26.9995Z" fill="white"/>
<path d="M28.8 29.3994H27C26.6687 29.3994 26.4 29.668 26.4 29.9994C26.4 30.3308 26.6687 30.5994 27 30.5994H28.8C29.1314 30.5994 29.4 30.3308 29.4 29.9994C29.4 29.668 29.1314 29.3994 28.8 29.3994Z" fill="white"/>
<path d="M28.8 31.7993H27C26.6687 31.7993 26.4 32.0679 26.4 32.3993C26.4 32.7307 26.6687 32.9993 27 32.9993H28.8C29.1314 32.9993 29.4 32.7307 29.4 32.3993C29.4 32.0679 29.1314 31.7993 28.8 31.7993Z" fill="white"/>
<path d="M33 24.5994H31.2C30.8686 24.5994 30.6 24.868 30.6 25.1994C30.6 25.5307 30.8686 25.7994 31.2 25.7994H33C33.3313 25.7994 33.6 25.5307 33.6 25.1994C33.6 24.868 33.3313 24.5994 33 24.5994Z" fill="white"/>
<path d="M33 26.9995H31.2C30.8686 26.9995 30.6 27.2681 30.6 27.5995C30.6 27.9309 30.8686 28.1995 31.2 28.1995H33C33.3313 28.1995 33.6 27.9309 33.6 27.5995C33.6 27.2681 33.3313 26.9995 33 26.9995Z" fill="white"/>
<path d="M33 29.3994H31.2C30.8686 29.3994 30.6 29.668 30.6 29.9994C30.6 30.3308 30.8686 30.5994 31.2 30.5994H33C33.3313 30.5994 33.6 30.3308 33.6 29.9994C33.6 29.668 33.3313 29.3994 33 29.3994Z" fill="white"/>
<path d="M33 31.7993H31.2C30.8686 31.7993 30.6 32.0679 30.6 32.3993C30.6 32.7307 30.8686 32.9993 31.2 32.9993H33C33.3313 32.9993 33.6 32.7307 33.6 32.3993C33.6 32.0679 33.3313 31.7993 33 31.7993Z" fill="white"/>
<path d="M3.79504 0.757286C2.21524 2.20448 4.99084 6.66848 6.62644 8.99948H6.30004C5.74268 8.99745 5.20761 9.21821 4.81384 9.61267C4.42141 10.0081 4.20084 10.5424 4.20004 11.0995C4.20262 11.8471 4.60376 12.5367 5.25244 12.9085C4.55208 13.6493 3.89231 14.4274 3.27604 15.2395C3.07722 15.5046 3.13094 15.8806 3.39604 16.0795C3.66114 16.2783 4.03722 16.2246 4.23604 15.9595C4.97716 14.9899 5.77875 14.068 6.63604 13.1995H18.9C19.6503 13.1995 20.3435 12.7992 20.7187 12.1495C21.0938 11.4997 21.0938 10.6992 20.7187 10.0495C20.3435 9.39973 19.6503 8.99948 18.9 8.99948H18.5736C20.2086 6.66848 22.9842 2.20508 21.4056 0.757286C20.6796 0.0924868 19.8336 0.577286 19.0878 1.00149C18.4096 1.46594 17.62 1.74139 16.8 1.79948C16.1491 1.79811 15.5286 1.52388 15.0894 1.04349C14.4329 0.375952 13.5357 0 12.5994 0C11.6631 0 10.766 0.375952 10.1094 1.04349C9.66953 1.52465 9.04778 1.79895 8.39584 1.79948C7.57633 1.74199 6.78709 1.46648 6.10984 1.00149C5.36464 0.576086 4.51924 0.0930868 3.79504 0.757286ZM19.5378 10.4623C19.796 10.7198 19.8733 11.1076 19.7335 11.4444C19.5938 11.7812 19.2646 12.0004 18.9 11.9995H6.30004C5.80298 11.9995 5.40004 11.5965 5.40004 11.0995C5.40004 10.6024 5.80298 10.1995 6.30004 10.1995H18.9C19.139 10.1995 19.3682 10.294 19.5378 10.4623ZM8.39584 2.99948C9.33252 2.99935 10.2299 2.62298 10.8864 1.95488C11.3246 1.4735 11.9455 1.19911 12.5964 1.19911C13.2474 1.19911 13.8682 1.4735 14.3064 1.95488C14.9638 2.62349 15.8624 2.99989 16.8 2.99948C17.8302 2.94536 18.8269 2.61501 19.6854 2.04308C19.9594 1.84974 20.2693 1.71325 20.5968 1.64168C21.2124 2.20568 19.5852 5.60708 17.0976 8.99948H15.6V5.99948C15.6 5.66811 15.3314 5.39948 15 5.39948C14.6687 5.39948 14.4 5.66811 14.4 5.99948V8.99948H10.8V5.99948C10.8 5.66811 10.5314 5.39948 10.2 5.39948C9.86866 5.39948 9.60003 5.66811 9.60003 5.99948V8.99948H8.10484C5.61724 5.60708 3.99004 2.20568 4.61404 1.63268C4.93482 1.71836 5.23901 1.85708 5.51404 2.04308C6.3713 2.61493 7.36677 2.94531 8.39584 2.99948Z" fill="white"/>
</svg>
