<svg width="36" height="36" viewBox="0 0 36 36" fill="none" xmlns="http://www.w3.org/2000/svg">
<path d="M33.5717 18.0044C34.3293 16.4943 34.9257 14.9762 35.3397 13.4804C36.6376 8.79366 36.0091 4.86906 33.5695 2.43009C31.1303 -0.00887894 27.2051 -0.637573 22.5178 0.66019C21.0218 1.0741 19.5036 1.67066 17.9933 2.42789C16.1144 1.48499 14.2327 0.795048 12.4197 0.397616C8.20868 -0.525238 4.65936 0.196566 2.42582 2.43009C0.992195 3.86354 0.160696 5.87761 0.0217008 8.25478C-0.103285 10.3933 0.330182 12.8474 1.27486 15.3753C0.499119 15.9886 0 16.9368 0 18C0 19.0632 0.499119 20.0113 1.27486 20.6246C0.330182 23.1526 -0.103285 25.6069 0.0217008 27.7451C0.160971 30.1223 0.992195 32.1364 2.42582 33.5698C4.02674 35.1708 6.27291 35.9962 8.98607 35.9962C9.53078 35.9962 10.0945 35.9629 10.6757 35.8959C13.0021 35.6276 15.4878 34.8352 17.9969 33.5737C19.506 34.3303 21.0232 34.9261 22.5178 35.3397C24.1129 35.7814 25.6199 36 27.0101 36C29.7046 36 31.9604 35.1788 33.5695 33.5698C35.8033 31.3366 36.5252 27.7877 35.6023 23.5769C35.2048 21.7644 34.5148 19.883 33.5717 18.0044ZM22.7996 1.67835C27.1043 0.486606 30.6638 1.01889 32.8224 3.17716C34.9809 5.33543 35.5133 8.89446 34.3214 13.1986C33.9876 14.4044 33.5292 15.6266 32.9589 16.8478C31.937 15.0155 30.6803 13.2 29.2241 11.4683C29.6703 10.8997 29.9373 10.1843 29.9373 9.40725C29.9373 8.65606 29.6941 7.94634 29.2338 7.35473L28.3998 8.0032C28.7146 8.40777 28.8808 8.89336 28.8808 9.40725C28.8808 10.6696 27.8537 11.6963 26.5915 11.6963C25.3293 11.6963 24.3022 10.6696 24.3022 9.40725C24.3022 8.14492 25.3293 7.11824 26.5915 7.11824C27.0035 7.11824 27.4076 7.22866 27.7595 7.43795L28.2995 6.52993C27.7842 6.22368 27.1936 6.06163 26.5915 6.06163C25.8144 6.06163 25.0988 6.32888 24.5305 6.77492C22.7982 5.31895 20.9825 4.06239 19.15 3.04038C20.3713 2.47047 21.5937 2.01206 22.7996 1.67835ZM3.17299 3.17716C6.02953 0.320986 11.2674 0.427554 16.8409 3.03736C14.1201 4.55458 11.4514 6.58623 9.01683 9.02026C7.21154 10.8253 5.62271 12.7641 4.28797 14.7881C3.98718 14.7008 3.67074 14.6543 3.34605 14.6543C2.94637 14.6543 2.56317 14.7252 2.20744 14.854C0.37688 9.86538 0.719698 5.62987 3.17299 3.17716ZM9.01354 34.936C6.62342 34.936 4.59151 34.2411 3.17272 32.8227C0.719698 30.37 0.376606 26.1348 2.20744 21.1459C2.56317 21.275 2.94637 21.3456 3.34605 21.3456C3.67266 21.3456 3.98801 21.2975 4.28688 21.2099C5.62161 23.2347 7.21099 25.174 9.01683 26.9797C11.4506 29.4129 14.1184 31.444 16.8385 32.9612C14.0446 34.2686 11.3567 34.9362 9.01354 34.936ZM17.9947 32.3863C15.1409 30.8875 12.3228 28.7908 9.764 26.2326C8.04469 24.5132 6.5281 22.6708 5.2494 20.7493C6.12018 20.1448 6.69182 19.1381 6.69182 18.0002C6.69182 17.9011 6.6877 17.8008 6.67891 17.7022L5.62628 17.7953C5.63233 17.8629 5.63535 17.9316 5.63535 18C5.63535 19.2623 4.60827 20.289 3.34605 20.289C2.08383 20.289 1.05675 19.2623 1.05675 18C1.05675 16.7376 2.08383 15.7109 3.34605 15.7109C4.21793 15.7109 5.00273 16.1954 5.39389 16.9752L6.33829 16.5017C6.08008 15.9867 5.70375 15.5602 5.2516 15.2468C6.53003 13.3269 8.04579 11.4853 9.764 9.76733C12.3233 7.20833 15.1425 5.11104 17.9971 3.61222C19.94 4.63478 21.9058 5.95314 23.8102 7.54973C23.4537 8.08147 23.2454 8.72033 23.2454 9.40725C23.2454 11.2519 24.7466 12.7526 26.5915 12.7526C27.2785 12.7526 27.9174 12.5444 28.4492 12.1879C30.046 14.0921 31.3643 16.0578 32.387 18.0002C30.888 20.8545 28.7904 23.6733 26.2314 26.2326C25.9498 26.5138 25.6605 26.7934 25.3683 27.0673C24.7851 26.574 24.0322 26.2757 23.2103 26.2757C22.459 26.2757 21.7492 26.5191 21.1575 26.9791L21.8063 27.813C22.2107 27.4985 22.6963 27.3323 23.2103 27.332C24.4725 27.332 25.4996 28.359 25.4996 29.621C25.4996 30.8834 24.4725 31.9101 23.2103 31.9101C21.9481 31.9101 20.921 30.8834 20.921 29.621C20.921 29.2091 21.0314 28.8053 21.2407 28.4535L20.3326 27.9132C20.0263 28.4285 19.8642 29.019 19.8642 29.621C19.8642 30.1511 19.9887 30.6521 20.209 31.0979C19.4687 31.5703 18.7292 31.9999 17.9947 32.3863ZM32.8224 32.8227C30.6638 34.9813 27.1043 35.5133 22.7996 34.3218C21.5945 33.9881 20.3732 33.5303 19.1528 32.9606C19.7093 32.6497 20.2661 32.316 20.8213 31.9606C21.4292 32.5808 22.2752 32.9667 23.2103 32.9667C25.0551 32.9667 26.5563 31.4659 26.5563 29.6213C26.5563 28.9789 26.3739 28.3788 26.0588 27.8685C26.3704 27.577 26.6786 27.2793 26.9783 26.9797C29.4129 24.5451 31.4445 21.8768 32.9622 19.1563C35.5723 24.7294 35.6789 29.9666 32.8224 32.8227Z" fill="white"/>
<path d="M26.6618 23.4585H25.5702V20.7968C25.5702 19.6196 24.7788 18.5743 23.6457 18.2545L23.2507 18.1433L22.9639 19.1601L23.3589 19.2716C24.0385 19.4633 24.5135 20.0904 24.5135 20.7968V23.4585H22.6115V22.0146H21.555V23.4585H16.8V24.5148H26.6618V23.4585Z" fill="white"/>
<path d="M19.745 18.2522L21.947 18.8735L22.234 17.8564L20.0757 17.2478V15.8448C21.0528 15.1785 21.6959 14.0571 21.6959 12.7879V11.2383C21.6959 9.19947 20.037 7.54053 17.9977 7.54053C15.9586 7.54053 14.2995 9.19947 14.2995 11.2383V12.7879C14.2995 14.0571 14.9425 15.1785 15.9196 15.8448V17.2478L12.3497 18.2544C11.2166 18.5741 10.4252 19.6195 10.4252 20.7967V23.4584H9.33356V24.5147H15.7435V23.4584H14.4404V22.0145H13.3839V23.4584H11.4819V20.7967C11.4819 20.0902 11.9569 19.4632 12.6365 19.2715L16.2504 18.2525C16.6954 18.7392 17.3239 19.0213 17.9977 19.0213C18.6715 19.0213 19.3003 18.7389 19.745 18.2522ZM17.9977 8.59714C19.4541 8.59714 20.6391 9.78202 20.6391 11.2385V11.8269L19.5286 10.358H15.5076C15.871 9.33323 16.8497 8.59714 17.9977 8.59714ZM15.3562 12.7879V11.4146H19.0028L20.5515 13.4624C20.2524 14.5932 19.2209 15.429 17.9977 15.429C16.5413 15.429 15.3562 14.2441 15.3562 12.7879ZM16.9764 17.4771V16.3409C17.3008 16.4345 17.6433 16.4856 17.9977 16.4856C18.352 16.4856 18.6943 16.4345 19.019 16.3409V17.4771C18.7707 17.7845 18.3987 17.9647 17.9977 17.9647C17.5966 17.9647 17.2244 17.7845 16.9764 17.4771Z" fill="white"/>
<path d="M20.788 20.7419L19.2997 20.3222L19.5868 19.3054L21.0748 19.7251L20.788 20.7419Z" fill="white"/>
<path d="M23.1076 20.2965L22.8205 21.3133L21.8036 21.0266L22.0906 20.0098L23.1076 20.2965Z" fill="white"/>
<path d="M26.0632 8.87915H27.1197V9.93576H26.0632V8.87915Z" fill="white"/>
<path d="M22.682 29.0933H23.7385V30.1496H22.682V29.0933Z" fill="white"/>
<path d="M2.81757 17.4719H3.87431V18.5283H2.81757V17.4719Z" fill="white"/>
</svg>
