<svg width="36" height="36" viewBox="0 0 36 36" fill="none" xmlns="http://www.w3.org/2000/svg">
<path d="M29.2414 31.3548L27.8941 27.3216C27.4233 25.9136 26.222 24.8742 24.7578 24.6083L20.8683 23.9022V23.6014C21.5452 23.2095 22.1342 22.6852 22.6032 22.0645H23.7783C24.7409 22.0645 25.5242 21.2829 25.5242 20.3225V13.3548C25.5242 9.19272 22.1301 5.8064 17.9584 5.8064C13.7867 5.8064 10.3926 9.19272 10.3926 13.3548V17.4193C10.3926 18.5388 11.1905 19.4754 12.2485 19.6937C12.575 21.3625 13.6203 22.7746 15.0485 23.6014V23.9022L11.1585 24.6083C9.69477 24.8742 8.49297 25.9136 8.02272 27.3216L7.78993 28.019L5.80768 26.0413C5.5807 25.8148 5.5807 25.4461 5.80768 25.2197L8.10653 22.9267L3.79167 18.6218L1.19368 21.2138C0.424297 21.9814 0.000610352 23.0022 0.000610352 24.088C0.000610352 25.1738 0.424297 26.194 1.19368 26.9616L9.05924 34.809C9.82863 35.5767 10.8518 35.9999 11.9401 35.9999C13.0284 35.9999 14.0509 35.5767 14.8023 34.8265L17.6371 32.235L16.7531 31.3548H29.2414ZM24.3603 20.3225C24.3603 20.643 24.099 20.9032 23.7783 20.9032H23.2888C23.4576 20.5194 23.5856 20.1147 23.6683 19.6937C23.9174 19.642 24.1467 19.5433 24.3603 19.419V20.3225ZM23.7783 18.4192V16.4194C24.1246 16.6209 24.3603 16.9914 24.3603 17.4193C24.3603 17.8472 24.1246 18.2177 23.7783 18.4192ZM12.1385 18.4192C11.7923 18.2177 11.5565 17.8472 11.5565 17.4193C11.5565 16.9914 11.7923 16.6209 12.1385 16.4194V18.4192ZM12.1385 14.5161V15.1792C11.9313 15.2332 11.737 15.3145 11.5565 15.4196V13.3548C11.5565 9.83317 14.4287 6.96769 17.9584 6.96769C21.4882 6.96769 24.3603 9.83317 24.3603 13.3548V15.4196C24.1799 15.3145 23.9855 15.2326 23.7783 15.1792V14.5161H23.1963C21.4754 14.5161 19.8574 13.8472 18.6399 12.633L17.9584 11.9531L17.2769 12.633C16.0594 13.8472 14.4415 14.5161 12.7205 14.5161H12.1385ZM13.3025 18.5806V15.6553C15.0502 15.5241 16.6798 14.8047 17.9584 13.5917C19.237 14.8047 20.8666 15.5247 22.6143 15.6553V18.5806C22.6143 19.4272 22.3827 20.2192 21.9846 20.9032H17.9584V22.0645H21.0278C20.2072 22.785 19.1346 23.2257 17.9584 23.2257C15.3913 23.2257 13.3025 21.1418 13.3025 18.5806ZM19.7044 24.1194V24.1467L17.9584 25.8886L16.2124 24.1467V24.1194C16.7642 24.2924 17.3502 24.387 17.9584 24.387C18.5666 24.387 19.1526 24.2924 19.7044 24.1194ZM9.12617 27.6886C9.46198 26.6829 10.3204 25.9403 11.3662 25.7498L15.4343 25.0124L17.9584 27.5307L20.4819 25.013L24.5494 25.7504C25.5952 25.9408 26.4537 26.6829 26.7895 27.6892L27.627 30.1935H15.5891L13.3223 27.9319L10.8035 30.2051C10.584 30.4252 10.2005 30.4252 9.98053 30.2051L8.70947 28.937L9.12617 27.6886ZM3.79109 20.2639L6.46009 22.9267L5.82805 23.5573L3.15905 20.8945L3.79109 20.2639ZM13.9962 33.9892C13.4468 34.5361 12.7159 34.8387 11.9389 34.8387C11.162 34.8387 10.431 34.5361 9.88101 33.988L2.01545 26.1412C1.46605 25.593 1.16342 24.8638 1.16342 24.0886C1.16342 23.3128 1.46605 22.5836 2.01545 22.0354L2.33554 21.7161L5.00454 24.3789L4.98358 24.3998C4.30324 25.0792 4.30324 26.1841 4.98358 26.8635L9.15701 31.0273C9.487 31.3559 9.92524 31.5377 10.392 31.5377C10.8587 31.5377 11.297 31.3565 11.6054 31.0476L11.6491 31.0087L14.3303 33.6838L13.9962 33.9892ZM15.1893 32.8976L12.5139 30.2283L13.2827 29.535L15.9535 32.1996L15.1893 32.8976Z" fill="white"/>
<path d="M34.254 0H26.1062C25.1436 0 24.3602 0.781548 24.3602 1.74194V6.3871C24.3602 7.34748 25.1436 8.12903 26.1062 8.12903H27.6607L27.0589 11.6309L32.6751 8.12903H34.254C35.2166 8.12903 36 7.34748 36 6.3871V1.74194C36 0.781548 35.2166 0 34.254 0ZM34.836 6.3871C34.836 6.70703 34.5747 6.96774 34.254 6.96774H32.341L28.6448 9.27232L29.0412 6.96774H26.1062C25.7855 6.96774 25.5242 6.70703 25.5242 6.3871V1.74194C25.5242 1.422 25.7855 1.16129 26.1062 1.16129H34.254C34.5747 1.16129 34.836 1.422 34.836 1.74194V6.3871Z" fill="white"/>
<path d="M33.6721 2.32251H26.6882V3.4838H33.6721V2.32251Z" fill="white"/>
<path d="M31.3441 4.64526H26.6882V5.80655H31.3441V4.64526Z" fill="white"/>
<path d="M33.672 4.64526H32.5081V5.80655H33.672V4.64526Z" fill="white"/>
<path d="M17.9584 1.74194C10.3541 1.74194 3.80387 6.98981 2.10097 14.31L0.998108 12.4757L0 13.0732L2.04569 16.4741L5.45438 14.4331L4.85552 13.4373L3.27833 14.3814C4.92769 7.68485 10.9635 2.90323 17.9584 2.90323C19.4873 2.90323 20.9958 3.12969 22.442 3.57678L22.7865 2.46775C21.2286 1.98581 19.6042 1.74194 17.9584 1.74194Z" fill="white"/>
<path d="M35.7171 12.8566L32.3084 10.8157L30.2633 14.2171L31.2614 14.8146L32.2799 13.1208C32.8159 14.6857 33.09 16.3225 33.09 18C33.09 21.4531 31.8911 24.829 29.7151 27.5052L30.6189 28.2368C32.9632 25.3544 34.254 21.7184 34.254 18C34.254 16.2238 33.9671 14.4894 33.4078 12.8288L35.1183 13.8524L35.7171 12.8566Z" fill="white"/>
</svg>
