<svg width="36" height="32" viewBox="0 0 36 32" fill="none" xmlns="http://www.w3.org/2000/svg">
<path d="M18.7209 30.9346H15.7018C15.4145 30.9346 15.1276 30.8348 14.8935 30.6533C14.0363 29.9898 13.1236 29.7949 12.2384 29.7128V20.6923C12.9958 19.8528 13.8076 19.241 14.5941 18.6483C16.3697 17.3101 18.0468 16.0462 17.8765 12.7323C17.9021 12.2117 18.1716 11.925 18.6851 11.872C19.0385 11.872 19.3564 12.1075 19.4583 12.4449C19.6647 13.1279 19.8098 13.7602 19.9017 14.3778C19.945 14.6686 20.2136 14.8691 20.5016 14.8252C20.7897 14.7814 20.9879 14.5102 20.9447 14.2194C20.8449 13.5497 20.6887 12.8677 20.4671 12.1343C20.2274 11.3405 19.5114 10.8071 18.6851 10.8071C17.5028 10.929 16.8821 11.5892 16.8233 12.7878C16.9644 15.5332 15.7056 16.4819 13.9632 17.7949C13.4179 18.2059 12.8249 18.6528 12.2375 19.1923V18.1394C12.2375 17.8237 11.9792 17.6493 11.7099 17.6069L6.91482 17.609C6.62373 17.6092 6.38776 17.8475 6.38776 18.1415V23.4319C6.38776 23.726 6.62387 23.9644 6.9151 23.9644C7.20633 23.9644 7.44244 23.726 7.44244 23.4319V18.6737L11.1829 18.6721V30.9321L7.44244 30.9343V25.7527C7.44244 25.4587 7.20633 25.2203 6.9151 25.2203C6.62387 25.2203 6.38776 25.4587 6.38776 25.7527V31.467C6.38776 31.7827 6.64608 31.9571 6.91538 31.9995L11.7105 31.9967C12.0016 31.9965 12.2375 31.7582 12.2375 31.4642V30.7833C13.0585 30.8686 13.665 31.0442 14.2514 31.4981C14.6684 31.8215 15.1835 31.9995 15.7018 31.9995H18.7209C19.0121 31.9995 19.2482 31.761 19.2482 31.467C19.2482 31.1729 19.0122 30.9346 18.7209 30.9346Z" fill="white"/>
<path d="M9.55627 22.6578V21.3001C9.55627 21.006 9.32016 20.7676 9.02893 20.7676C8.7377 20.7676 8.50159 21.006 8.50159 21.3001V22.6578C8.50159 22.9519 8.7377 23.1903 9.02893 23.1903C9.32016 23.1903 9.55627 22.9519 9.55627 22.6578Z" fill="white"/>
<path d="M28.492 21.9952C29.4846 20.6453 28.4847 18.7085 26.8525 18.7085L20.6549 18.7083C20.8565 18.0391 20.9857 17.3535 21.0402 16.6619C21.0632 16.3687 20.8466 16.1122 20.5563 16.0888C20.2655 16.0656 20.0119 16.2843 19.9888 16.5774C19.9221 17.4242 19.7388 18.2273 19.4287 19.0319C19.4015 19.096 19.3864 19.1668 19.3864 19.241V20.541C19.3864 22.0165 18.1975 23.217 16.7362 23.217C16.445 23.217 16.2089 23.4554 16.2089 23.7494C16.2089 24.0435 16.445 24.2819 16.7362 24.2819C18.7791 24.2819 20.441 22.6038 20.441 20.541V19.7732H21.9233C21.3962 20.733 21.8084 22.0949 22.7731 22.6001C22.2379 23.4173 22.2379 24.2346 22.7731 25.0519C21.3282 25.8084 21.3282 27.9568 22.7731 28.7133C22.2924 29.4393 22.2435 30.1798 22.6262 30.9349H21.0194C20.7281 30.9349 20.492 31.1733 20.492 31.4674C20.492 31.7615 20.7281 31.9999 21.0194 31.9999L26.1494 32C27.7816 32 28.7815 30.0632 27.789 28.7133C28.8466 28.1595 29.2115 26.6352 28.492 25.6567C29.9369 24.9 29.9369 22.7517 28.492 21.9952ZM22.7233 20.7693C22.7233 20.2201 23.1658 19.7734 23.7096 19.7734H26.8526C27.3964 19.7734 27.8388 20.2201 27.8388 20.7693C27.8388 21.3185 27.3964 21.7652 26.8526 21.7652H23.7096C23.1658 21.7652 22.7233 21.3184 22.7233 20.7693ZM26.1495 30.9349H24.4235C24.4198 30.9349 24.4162 30.9348 24.4126 30.9348H24.397C23.8604 30.9263 23.4264 30.4829 23.4264 29.9391C23.4264 29.3899 23.8689 28.9432 24.4127 28.9432H26.1495C26.6933 28.9432 27.1358 29.3899 27.1358 29.9391C27.1358 30.4882 26.6933 30.9349 26.1495 30.9349ZM26.8525 27.8783H23.7095C23.1657 27.8783 22.7232 27.4316 22.7232 26.8824C22.7232 26.3333 23.1657 25.8866 23.7095 25.8866H26.8525C27.3963 25.8866 27.8388 26.3333 27.8388 26.8824C27.8388 27.4316 27.3964 27.8783 26.8525 27.8783ZM27.5556 24.8217H24.4126C23.8688 24.8217 23.4264 24.375 23.4264 23.8259C23.4264 23.2767 23.8688 22.83 24.4126 22.83H27.5556C28.0994 22.83 28.5419 23.2767 28.5419 23.8259C28.5419 24.375 28.0994 24.8217 27.5556 24.8217Z" fill="white"/>
<path d="M14.3819 3.97398L15.4485 5.02387L15.1967 6.50635C15.0849 7.4582 15.7792 7.96405 16.676 7.59153L17.9944 6.89158L19.3129 7.59153C19.9781 7.94453 20.9414 7.38508 20.7921 6.50635L20.5403 5.0238L21.607 3.97398C22.2565 3.2961 22.0367 2.37322 21.042 2.21816L19.5679 2.00184L18.9086 0.653045C18.53 -0.147086 17.5389 -0.28553 17.0802 0.653045L16.4209 2.00184L14.9468 2.21816C13.9863 2.42647 13.7402 3.26068 14.3819 3.97398ZM16.5909 3.05308C16.923 3.00438 17.21 2.79387 17.3586 2.48994L17.9945 1.18893L18.6304 2.48994C18.7789 2.79387 19.0659 3.00438 19.398 3.05308L20.8199 3.26174L19.791 4.27444C19.5507 4.511 19.4412 4.85164 19.4978 5.1856L19.7407 6.61555L18.4689 5.94044C18.1526 5.78276 17.8364 5.78276 17.5201 5.94044L16.2484 6.61555L16.4913 5.18553C16.548 4.85149 16.4383 4.51092 16.1981 4.27444L15.1692 3.26174L16.5909 3.05308Z" fill="white"/>
<path d="M6.62042 6.81364L7.68706 7.86347L7.43527 9.34594C7.286 10.2245 8.24921 10.7843 8.91451 10.4312L10.2329 9.73124L11.5514 10.4312C12.3867 10.8074 13.1074 10.2803 13.0307 9.34602L12.7789 7.86361L13.8456 6.81371C14.4609 6.14485 14.25 5.28402 13.2806 5.0579L11.8065 4.84157L11.1472 3.49278C10.629 2.5951 9.8117 2.67497 9.31881 3.49278L8.65956 4.84157L7.18545 5.0579C6.20825 5.26627 5.97095 6.10928 6.62042 6.81364ZM8.82957 5.89267C9.16166 5.8439 9.44853 5.63339 9.5971 5.3296L10.233 4.02859L10.8689 5.3296C11.0174 5.63346 11.3044 5.84397 11.6365 5.89274L13.0584 6.1014L12.0296 7.11403C11.7892 7.35052 11.6796 7.69123 11.7364 8.0252L11.9792 9.45507L10.7075 8.77996C10.3912 8.62221 10.0749 8.62221 9.75861 8.77996L8.48687 9.45507L8.72973 8.0252C8.78647 7.69123 8.67692 7.35059 8.43652 7.11403L7.40764 6.10133L8.82957 5.89267Z" fill="white"/>
<path d="M6.71332 15.7353L6.46153 14.2528L7.52817 13.2029C8.18573 12.5786 7.87833 11.6025 6.96321 11.4471L5.48904 11.2308L4.82979 9.88196C4.5472 9.20643 3.46017 8.94339 3.00138 9.88196L2.34213 11.2308L0.868031 11.4471C-0.0932811 11.6557 -0.216328 12.5609 0.30307 13.203L1.36971 14.2529L1.11792 15.7353C1.01414 16.7142 1.69969 17.2466 2.59716 16.8205L3.91566 16.1206L5.23416 16.8205C5.89938 17.1735 6.86259 16.6139 6.71332 15.7353ZM5.71214 13.5032C5.47181 13.7397 5.3622 14.0803 5.41887 14.4144L5.66173 15.8442L4.38991 15.1691C4.09291 15.0115 3.73826 15.0115 3.44112 15.1691L2.16938 15.8442L2.41223 14.4143C2.46898 14.0803 2.35936 13.7396 2.11903 13.5032L1.09015 12.4905L2.51194 12.2819C2.84409 12.2332 3.13104 12.0227 3.27961 11.7188L3.91552 10.4178L4.55142 11.7187C4.69999 12.0226 4.98694 12.2332 5.31902 12.2819L6.74088 12.4905L5.71214 13.5032Z" fill="white"/>
<path d="M35.1199 11.4469L33.6458 11.2306L32.9865 9.88183C32.5218 8.93119 31.6168 8.94319 31.1581 9.88183L30.4988 11.2306L29.0248 11.4469C28.062 11.629 27.811 12.4809 28.4597 13.2028L29.5264 14.2527L29.2745 15.7351C29.1253 16.6138 30.0885 17.1733 30.7537 16.8203L32.0722 16.1204L33.3907 16.8203C34.2881 17.2287 34.9913 16.6963 34.8698 15.7351L34.6181 14.2527L35.6848 13.2028C36.2833 12.6229 35.9933 11.5845 35.1199 11.4469ZM33.8688 13.5031C33.6285 13.7396 33.5189 14.0803 33.5757 14.4142L33.8185 15.8441L32.5467 15.169C32.2305 15.0113 31.9142 15.0113 31.5979 15.169L30.3262 15.8441L30.569 14.4142C30.6259 14.0801 30.5162 13.7395 30.2758 13.5031L29.247 12.4904L30.6689 12.2817C31.001 12.233 31.2879 12.0225 31.4365 11.7187L32.0725 10.4176L32.7084 11.7186C32.8569 12.0225 33.1438 12.233 33.476 12.2817L34.8979 12.4904L33.8688 13.5031Z" fill="white"/>
<path d="M22.1641 6.81365L23.2307 7.86348L22.9789 9.34596C22.8629 10.3068 23.5572 10.8073 24.4581 10.4311L25.7765 9.73119L27.095 10.4311C27.7603 10.7841 28.7235 10.2246 28.5743 9.34596L28.3225 7.86348L29.3891 6.81365C30.0256 6.0383 29.8322 5.25734 28.8241 5.05784L27.35 4.84151L26.6907 3.49279C26.3167 2.72759 25.2362 2.72773 24.8623 3.49279L24.203 4.84158L22.7289 5.05791C21.738 5.24854 21.4919 6.04718 22.1641 6.81365ZM24.3732 5.89269C24.7053 5.84391 24.9923 5.63341 25.1408 5.32954L25.7767 4.0286L26.4126 5.32954C26.5611 5.63341 26.8481 5.84391 27.1803 5.89269L28.6022 6.10135L27.5733 7.11404C27.333 7.3506 27.2234 7.69124 27.2801 8.02521L27.523 9.45515L26.2513 8.78005C25.935 8.62236 25.6187 8.62236 25.3023 8.78005L24.0306 9.45515L24.2735 8.02528C24.3303 7.69131 24.2207 7.35067 23.9803 7.11411L22.9514 6.10142L24.3732 5.89269Z" fill="white"/>
</svg>
