<svg width="20" height="20" viewBox="0 0 20 20" fill="none" xmlns="http://www.w3.org/2000/svg">
<path d="M17.9165 20.0001H2.08331C0.934158 20.0001 0 19.0651 0 17.9168V10.4169C0 10.1869 0.186665 10.0002 0.416663 10.0002C0.646661 10.0002 0.833325 10.1869 0.833325 10.4169V17.9168C0.833325 18.606 1.39415 19.1668 2.08331 19.1668H17.9165C18.6057 19.1668 19.1665 18.606 19.1665 17.9168V5.41693C19.1665 4.72777 18.6057 4.16694 17.9165 4.16694H14.5832C14.3532 4.16694 14.1665 3.98028 14.1665 3.75028C14.1665 3.52028 14.3532 3.33362 14.5832 3.33362H17.9165C19.0657 3.33362 19.9998 4.26861 19.9998 5.41693V17.9168C19.9998 19.0651 19.0657 20.0001 17.9165 20.0001Z" fill="url(#paint0_linear_1521_179)"/>
<path d="M14.5834 13.3335C14.4276 13.3335 14.2826 13.2469 14.2109 13.1035L13.5109 11.7036C12.7276 10.1386 11.1568 9.16692 9.40845 9.16692H6.66681V12.0836C6.66681 12.2519 6.56515 12.4044 6.40931 12.4686C6.25432 12.5336 6.07515 12.4977 5.95515 12.3786L0.121874 6.54528C-0.0406246 6.38278 -0.0406246 6.11862 0.121874 5.95612L5.95515 0.122839C6.07515 0.00284057 6.25515 -0.0329924 6.40931 0.0320069C6.56515 0.096173 6.66681 0.248672 6.66681 0.417003V3.33364H7.9168C11.8226 3.33364 15.0001 6.51111 15.0001 10.4169V12.9169C15.0001 13.1102 14.8676 13.2785 14.6792 13.3227C14.6467 13.3302 14.6151 13.3335 14.5834 13.3335ZM6.25015 8.33359H9.40845C11.4093 8.33359 13.2142 9.41108 14.1667 11.1594V10.4169C14.1667 6.97027 11.3634 4.16697 7.9168 4.16697H6.25015C6.02015 4.16697 5.83349 3.9803 5.83349 3.7503V1.42283L1.00603 6.25028L5.83349 11.0777V8.75026C5.83349 8.52026 6.02015 8.33359 6.25015 8.33359Z" fill="url(#paint1_linear_1521_179)"/>
<defs>
<linearGradient id="paint0_linear_1521_179" x1="-1.11864e-07" y1="12.5001" x2="19.9998" y2="12.5001" gradientUnits="userSpaceOnUse">
<stop stop-color="#F86CA7"/>
<stop offset="1" stop-color="#FF7F18"/>
</linearGradient>
<linearGradient id="paint1_linear_1521_179" x1="-8.38993e-08" y1="7.3334" x2="15.0001" y2="7.3334" gradientUnits="userSpaceOnUse">
<stop stop-color="#F86CA7"/>
<stop offset="1" stop-color="#FF7F18"/>
</linearGradient>
</defs>
</svg>
