<svg width="54" height="38" viewBox="0 0 54 38" fill="none" xmlns="http://www.w3.org/2000/svg">
<path d="M10.4556 25.0058L10.6774 24.4444L10.0846 24.3309C4.51108 23.2642 0.5 18.2873 0.5 12.5956C0.5 9.18078 1.93983 5.90436 4.45712 3.61194C6.97468 1.33733 10.3664 0.216684 13.7754 0.561309C19.9014 1.19704 24.6504 6.77506 24.5303 13.304C24.3633 21.9545 21.2667 27.5896 17.5964 31.2547C13.9142 34.9317 9.625 36.6542 7.04855 37.4126L7.03439 37.4168L7.0205 37.4218C6.85118 37.4827 6.66908 37.5 6.44038 37.5C5.71618 37.5 5.05679 37.1539 4.65077 36.5119L4.64955 36.51C4.12886 35.6949 4.21329 34.6457 4.85436 33.9126L4.8544 33.9125C7.36515 31.0405 9.25375 28.0479 10.4556 25.0058Z" stroke="url(#paint0_linear_750_22)"/>
<path d="M39.4255 25.0058L39.6472 24.4444L39.0544 24.3309C33.4808 23.2642 29.4697 18.2873 29.4697 12.5956C29.4697 9.18081 30.9095 5.90442 33.4269 3.612C35.9446 1.33712 39.3363 0.216805 42.727 0.561273C48.8039 1.19726 53.4999 6.63782 53.4999 13.0624V13.3088C53.3318 21.9565 50.2357 27.5903 46.5662 31.2547C42.884 34.9317 38.5948 36.6542 36.0183 37.4126L36.0041 37.4168L35.9902 37.4218C35.8209 37.4827 35.6388 37.5 35.4102 37.5C34.686 37.5 34.0265 37.1539 33.6206 36.5119L33.6194 36.5099C33.0986 35.6948 33.183 34.6457 33.8241 33.9126L33.8241 33.9125C36.3349 31.0405 38.2235 28.0479 39.4255 25.0058Z" stroke="url(#paint1_linear_750_22)"/>
<defs>
<linearGradient id="paint0_linear_750_22" x1="12.5162" y1="0" x2="12.5162" y2="38" gradientUnits="userSpaceOnUse">
<stop stop-color="#F86CA7"/>
<stop offset="1" stop-color="#FF7F18"/>
</linearGradient>
<linearGradient id="paint1_linear_750_22" x1="41.4848" y1="0" x2="41.4848" y2="38" gradientUnits="userSpaceOnUse">
<stop stop-color="#F86CA7"/>
<stop offset="1" stop-color="#FF7F18"/>
</linearGradient>
</defs>
</svg>
