<svg width="100" height="69" viewBox="0 0 100 69" fill="none" xmlns="http://www.w3.org/2000/svg">
<path d="M79.8839 23.5579L79.4343 24.6849L80.6265 24.9109C90.8111 26.8413 98.1309 35.8444 98.1309 46.1291C98.1309 52.3004 95.5034 58.224 90.9063 62.37C86.3081 66.4841 80.111 68.5128 73.8807 67.8891C62.6872 66.7387 54.0172 56.6467 54.2369 44.8438C54.5428 29.1637 60.2094 18.9554 66.9225 12.3166C73.6602 5.65359 81.5106 2.53091 86.2281 1.15564L86.2562 1.14744L86.2838 1.1376C86.582 1.03134 86.9058 1 87.3222 1C88.6265 1 89.8086 1.61669 90.5355 2.755L90.538 2.75883C91.4684 4.20126 91.319 6.05719 90.1707 7.35761L90.1706 7.35772C85.5616 12.5791 82.0924 18.0219 79.8839 23.5579Z" stroke="#F1F6FB" stroke-width="2"/>
<path d="M27.6444 23.5579L27.1948 24.6849L28.387 24.9109C38.5718 26.8413 45.8916 35.8444 45.8916 46.1291C45.8916 52.3004 43.2641 58.224 38.6669 62.37C34.0684 66.4846 27.8713 68.5125 21.6747 67.8891C10.5711 66.7383 1.99782 56.8953 1.99782 45.2815V44.835C2.30565 29.1599 7.97139 18.9542 14.6832 12.3167C21.4208 5.65363 29.2712 2.53094 33.9888 1.15567L34.0169 1.14747L34.0445 1.13764C34.3428 1.03138 34.6666 1.00004 35.0827 1.00004C36.3871 1.00004 37.5693 1.61678 38.296 2.75495L38.2986 2.75892C39.2291 4.20133 39.0797 6.05724 37.9315 7.35765L37.9314 7.35775C33.3223 12.5791 29.8531 18.0219 27.6444 23.5579Z" stroke="#F1F6FB" stroke-width="2"/>
</svg>
