<svg width="195" height="184" viewBox="0 0 195 184" fill="none" xmlns="http://www.w3.org/2000/svg">
<path d="M53.12 85.6286L0.752201 37.6552L17.5044 19.3685L47.707 47.0366L60.9736 32.5547L98.749 67.1602L98.857 67.0422L46.4892 19.0688L63.2414 0.782051L93.444 28.4502L106.711 13.9683L190.195 90.4475C195.246 95.0747 195.59 102.916 190.963 107.967C186.335 113.018 178.494 113.361 173.443 108.734L159.625 96.0755C155.628 92.4143 149.412 92.6866 145.751 96.6831C142.089 100.68 142.362 106.896 146.358 110.557L182.342 143.521C187.393 148.149 187.736 155.99 183.109 161.041C178.482 166.092 170.641 166.435 165.59 161.808L129.223 128.493C128.698 128.148 128.185 127.76 127.706 127.321L113.888 114.662C109.891 111.001 103.675 111.273 100.014 115.27C96.3524 119.266 96.6247 125.483 100.621 129.144L136.605 162.108C141.656 166.735 141.999 174.576 137.372 179.627C132.745 184.678 124.903 185.022 119.853 180.395L36.3678 103.915L53.12 85.6286Z" fill="white"/>
</svg>
