<svg width="195" height="184" viewBox="0 0 195 184" fill="none" xmlns="http://www.w3.org/2000/svg">
<path d="M141.873 98.4495L194.241 146.423L177.489 164.71L147.286 137.041L134.02 151.523L96.2443 116.918L96.1362 117.036L148.504 165.009L131.752 183.296L101.549 155.628L88.2826 170.11L4.79787 93.6306C-0.253098 89.0034 -0.596496 81.1621 4.03062 76.1111C8.65775 71.0602 16.4991 70.7167 21.5501 75.3439L35.3683 88.0026C39.3649 91.6638 45.5815 91.3915 49.2426 87.395C52.9038 83.3985 52.6315 77.1819 48.635 73.5207L12.6515 40.5567C7.60052 35.9296 7.25712 28.0882 11.8842 23.0372C16.5114 17.9863 24.3527 17.6429 29.4037 22.27L65.7706 55.5853C66.2954 55.9303 66.8078 56.3184 67.2871 56.7575L81.1054 69.4162C85.1019 73.0774 91.3185 72.8051 94.9796 68.8086C98.6408 64.812 98.3685 58.5955 94.372 54.9343L58.3885 21.9703C53.3375 17.3432 52.9941 9.50179 57.6213 4.45083C62.2484 -0.600137 70.0897 -0.943549 75.1407 3.68358L158.625 80.1628L141.873 98.4495Z" fill="white"/>
</svg>
