<svg width="100" height="14" viewBox="0 0 100 14" fill="none" xmlns="http://www.w3.org/2000/svg">
<g opacity="0.5">
<path d="M89.8362 13.0211L88.3684 10.8631L95.0864 6.29656L88.067 2.26238L89.3678 0L100 6.10999L89.8362 13.0211Z" fill="#FF7F18"/>
<path d="M0 4.91626H1.95707V7.52569H0V4.91626Z" fill="#FF7F18"/>
<path d="M1.97014 7.52569L1.95709 4.91626H1.97014V7.52569Z" fill="#FF7F18"/>
<path d="M95.2142 7.527L95.2011 4.91756H95.2142V7.527ZM91.1735 7.527L91.1604 4.91756H91.1735V7.527ZM91.1591 7.527H87.1041V4.91756H91.1591V7.527ZM87.1041 7.527L87.091 4.91756H87.1041V7.527ZM83.0634 7.527L83.0503 4.91756H83.0634V7.527ZM83.0503 7.527H78.9953V4.91756H83.0503V7.527ZM78.9953 7.527L78.9822 4.91756H78.9953V7.527ZM74.9546 7.527L74.9415 4.9554V7.527L70.8864 7.48786L70.8734 4.91626H70.8864V6.22098V4.91626H74.9546V7.527ZM66.8457 7.527L66.8314 4.91756H66.8457V7.527ZM66.8314 7.527H62.7776V4.91756H66.8314V7.527ZM62.7763 7.527L62.7633 4.91756H62.7763V7.527ZM58.7356 7.527L58.7213 4.91756H58.7356V7.527ZM58.7213 7.527H54.6675V4.91756H58.7213V7.527ZM54.6675 7.527L54.6545 4.91756H54.6675V7.527ZM50.6255 7.527L50.6125 4.91756H50.6255V7.527ZM50.6125 7.527H46.5587V4.91756H50.6125V7.527ZM46.5587 7.527L46.5444 4.91756H46.5587V7.527ZM42.5167 7.527L42.5037 4.91756H42.5167V7.527ZM42.5037 7.527H38.4499V4.91756H42.5037V7.527ZM38.4486 7.527L38.4342 4.91756H38.4486V7.527ZM34.4079 7.527L34.3948 4.91756H34.4079V7.527ZM34.3935 7.527H30.3385V4.91756H34.3935V7.527ZM30.3398 7.527L30.3267 4.91756H30.3398V7.527ZM26.2978 7.52569L26.2847 4.91626H26.2978V7.52569ZM26.2847 7.52569H22.2297V4.91626H26.2847V7.52569ZM22.2297 7.52569L22.2166 4.91626H22.2297V7.52569ZM18.189 7.52569L18.1759 4.91626H18.189V7.52569ZM18.1759 7.52569H14.1209V4.91626H18.1759V7.52569ZM14.1209 7.52569L14.1078 4.91626H14.1209V7.52569ZM10.0802 7.52569L10.0671 4.91626H10.0802V7.52569ZM10.0658 7.52569H6.01074V4.91626H10.0658V7.52569Z" fill="#FF7F18"/>
<path d="M95.2144 4.91748H97.1714V7.52691H95.2144V4.91748Z" fill="#FF7F18"/>
</g>
</svg>
