<svg width="17" height="21" viewBox="0 0 17 21" fill="none" xmlns="http://www.w3.org/2000/svg">
<path d="M16.498 5.53711L12.1914 4.30664L10.9609 0H2.34766C1.32829 0 0.501953 0.826342 0.501953 1.8457V19.1543C0.501953 20.1737 1.32829 21 2.34766 21H14.6523C15.6717 21 16.498 20.1737 16.498 19.1543V5.53711Z" fill="#4086F4"/>
<path d="M16.498 5.53711V19.1543C16.498 20.1737 15.6717 21 14.6523 21H8.5V0H10.9609L12.1914 4.30664L16.498 5.53711Z" fill="#4175DF"/>
<path d="M16.498 5.53711H12.1914C11.5146 5.53711 10.9609 4.9834 10.9609 4.30664V0C11.1209 0 11.2809 0.0615234 11.3916 0.184611L16.3134 5.10649C16.4365 5.21719 16.498 5.37715 16.498 5.53711Z" fill="#80AEF8"/>
<path d="M12.1914 9.88477H4.80859C4.46853 9.88477 4.19336 9.60959 4.19336 9.26953C4.19336 8.92947 4.46853 8.6543 4.80859 8.6543H12.1914C12.5315 8.6543 12.8066 8.92947 12.8066 9.26953C12.8066 9.60959 12.5315 9.88477 12.1914 9.88477ZM12.1914 12.3457H4.80859C4.46853 12.3457 4.19336 12.0705 4.19336 11.7305C4.19336 11.3904 4.46853 11.1152 4.80859 11.1152H12.1914C12.5315 11.1152 12.8066 11.3904 12.8066 11.7305C12.8066 12.0705 12.5315 12.3457 12.1914 12.3457ZM12.1914 14.8066H4.80859C4.46853 14.8066 4.19336 14.5315 4.19336 14.1914C4.19336 13.8513 4.46853 13.5762 4.80859 13.5762H12.1914C12.5315 13.5762 12.8066 13.8513 12.8066 14.1914C12.8066 14.5315 12.5315 14.8066 12.1914 14.8066ZM9.73047 17.2676H4.80859C4.46853 17.2676 4.19336 16.9924 4.19336 16.6523C4.19336 16.3123 4.46853 16.0371 4.80859 16.0371H9.73047C10.0705 16.0371 10.3457 16.3123 10.3457 16.6523C10.3457 16.9924 10.0705 17.2676 9.73047 17.2676Z" fill="#FFF5F5"/>
<path d="M8.5 17.2676H9.73047C10.0705 17.2676 10.3457 16.9924 10.3457 16.6523C10.3457 16.3123 10.0705 16.0371 9.73047 16.0371H8.5V17.2676ZM8.5 14.8066H12.1914C12.5315 14.8066 12.8066 14.5315 12.8066 14.1914C12.8066 13.8513 12.5315 13.5762 12.1914 13.5762H8.5V14.8066ZM8.5 12.3457H12.1914C12.5315 12.3457 12.8066 12.0705 12.8066 11.7305C12.8066 11.3904 12.5315 11.1152 12.1914 11.1152H8.5V12.3457ZM8.5 9.88477H12.1914C12.5315 9.88477 12.8066 9.60959 12.8066 9.26953C12.8066 8.92947 12.5315 8.6543 12.1914 8.6543H8.5V9.88477Z" fill="#E3E7EA"/>
</svg>
