<svg width="195" height="176" viewBox="0 0 195 176" fill="none" xmlns="http://www.w3.org/2000/svg">
<path d="M33.2706 49.7761C34.0255 53.6662 38.4961 57.9279 41.6738 59.955C42.5161 60.4941 43.4958 59.4998 43.0569 58.6518C41.7983 56.2292 38.9881 53.3408 38.1328 50.6093C65.681 52.3385 94.0683 61.1507 114.074 80.9781C131.338 98.0728 141.738 123.106 137.863 147.491C137.63 148.924 139.791 149.621 140.079 148.142C144.923 123.05 135.834 97.6313 118.409 79.3116C97.9169 57.7678 68.1957 48.0324 39.1405 45.9338C40.4678 43.7909 42.5202 41.6629 43.5443 40.2334C45.24 37.8651 41.3821 35.4925 39.7084 37.8568C37.477 40.9849 32.4586 45.6191 33.2706 49.7761Z" fill="#FF7F18"/>
<path d="M33.7698 16.4057C34.1901 20.406 39.9402 24.7827 43.0287 26.7941C43.7355 27.2621 44.4297 26.4237 44.1393 25.7444C43.0449 23.2241 39.9553 20.3995 38.9641 17.6698C78.1859 21.2416 117.296 35.88 142.445 67.4411C166.085 97.1107 171.902 140.422 149.475 172.515C148.563 173.811 150.627 175.052 151.556 173.803C175.185 141.772 170.824 98.3661 147.975 67.2406C122.71 32.8105 81.1221 16.7779 39.7978 12.7349C41.3929 10.0348 44.2361 7.20094 45.686 5.20863C47.4798 2.75453 43.4034 0.203077 41.6559 2.71246C39.7849 5.39404 37.8563 8.0587 36.0276 10.7735C34.893 12.4728 33.5396 14.2433 33.7698 16.4057Z" fill="#FF7F18"/>
</svg>
