<svg width="38" height="38" viewBox="0 0 38 38" fill="none" xmlns="http://www.w3.org/2000/svg">
<path d="M0.979736 14.9133C1.68121 15.1021 2.40606 14.6831 2.59897 13.9749C2.75095 13.4143 2.51713 12.8418 2.06117 12.5291C4.69754 5.50617 11.4784 0.70819 19.0017 0.70819C26.5192 0.70819 33.3001 5.50617 35.9423 12.5291C35.4863 12.8418 35.2525 13.4084 35.4045 13.9749C35.5915 14.6831 36.3164 15.108 37.0237 14.9133C37.7252 14.7244 38.1461 13.9926 37.9531 13.2786C37.7895 12.6589 37.2166 12.2576 36.6028 12.293C33.8671 4.99274 26.8173 0 19.0017 0C11.1803 0 4.13051 4.99274 1.39477 12.2989C0.786831 12.2635 0.213963 12.6648 0.0444404 13.2845C-0.142619 13.9926 0.278264 14.7244 0.979736 14.9133Z" fill="url(#paint0_linear_1_2)"/>
<path d="M1.01017 23.2226C1.71165 23.0278 2.44235 23.4409 2.63525 24.1491C2.78724 24.7098 2.55926 25.2881 2.10915 25.6009C4.79228 32.6415 11.4153 37.2919 18.9971 37.2919C26.5788 37.2919 33.2077 32.6415 35.8909 25.6009C35.4408 25.2881 35.2069 24.7157 35.3648 24.1491C35.5577 23.4409 36.2884 23.0219 36.9898 23.2226C37.6913 23.4173 38.1063 24.155 37.9076 24.8632C37.7381 25.4829 37.1652 25.8783 36.5514 25.837C33.7689 33.1608 26.8828 38.0001 18.9971 38.0001C11.1172 38.0001 4.22525 33.1608 1.44275 25.837C0.834807 25.8783 0.256091 25.4829 0.0865684 24.8632C-0.100491 24.1491 0.308702 23.4173 1.01017 23.2226Z" fill="url(#paint1_linear_1_2)"/>
<path d="M9 14C9 13.337 9.26339 12.7011 9.73223 12.2322C10.2011 11.7634 10.837 11.5 11.5 11.5H26.5C27.163 11.5 27.7989 11.7634 28.2678 12.2322C28.7366 12.7011 29 13.337 29 14V24C29 24.663 28.7366 25.2989 28.2678 25.7678C27.7989 26.2366 27.163 26.5 26.5 26.5H11.5C10.837 26.5 10.2011 26.2366 9.73223 25.7678C9.26339 25.2989 9 24.663 9 24V14ZM11.5 12.75C11.1685 12.75 10.8505 12.8817 10.6161 13.1161C10.3817 13.3505 10.25 13.6685 10.25 14V14.2713L19 19.5212L27.75 14.2713V14C27.75 13.6685 27.6183 13.3505 27.3839 13.1161C27.1495 12.8817 26.8315 12.75 26.5 12.75H11.5ZM27.75 15.7287L21.865 19.26L27.75 22.8812V15.7287ZM27.7075 24.3237L20.6575 19.985L19 20.9788L17.3425 19.985L10.2925 24.3225C10.3635 24.5885 10.5204 24.8236 10.7387 24.9913C10.9571 25.159 11.2247 25.25 11.5 25.25H26.5C26.7752 25.25 27.0426 25.1593 27.261 24.9918C27.4793 24.8243 27.6362 24.5895 27.7075 24.3237V24.3237ZM10.25 22.8812L16.135 19.26L10.25 15.7287V22.8812Z" fill="url(#paint2_linear_1_2)"/>
<defs>
<linearGradient id="paint0_linear_1_2" x1="3.77276" y1="7.25026" x2="45.0608" y2="7.25026" gradientUnits="userSpaceOnUse">
<stop stop-color="#FFA811"/>
<stop offset="1" stop-color="#F33B00"/>
</linearGradient>
<linearGradient id="paint1_linear_1_2" x1="34.1929" y1="30.3582" x2="-7.00391" y2="30.3582" gradientUnits="userSpaceOnUse">
<stop stop-color="#FFA811"/>
<stop offset="1" stop-color="#F33B00"/>
</linearGradient>
<linearGradient id="paint2_linear_1_2" x1="9" y1="18.3333" x2="29" y2="18.3333" gradientUnits="userSpaceOnUse">
<stop stop-color="#FFA811"/>
<stop offset="1" stop-color="#F33B00"/>
</linearGradient>
</defs>
</svg>
