<svg width="18" height="18" viewBox="0 0 18 18" fill="none" xmlns="http://www.w3.org/2000/svg">
<path d="M2.81251 8.99997C2.81234 7.91376 3.09812 6.84664 3.64112 5.90588C4.18411 4.96513 4.96519 4.1839 5.90584 3.64071C6.84649 3.09753 7.91355 2.81155 8.99977 2.81151C10.086 2.81146 11.1531 3.09737 12.0938 3.64047C12.2229 3.71389 12.3758 3.73325 12.5192 3.69433C12.6625 3.65541 12.7846 3.56138 12.8589 3.43274C12.9332 3.3041 12.9536 3.15131 12.9156 3.00771C12.8776 2.8641 12.7844 2.74135 12.6563 2.66622C11.2622 1.86138 9.64158 1.539 8.04565 1.74908C6.44973 1.95916 4.96772 2.68996 3.82946 3.82815C2.6912 4.96634 1.9603 6.4483 1.75012 8.04421C1.53993 9.64012 1.86221 11.2608 2.66696 12.6549C3.47172 14.049 4.71398 15.1386 6.2011 15.7547C7.68821 16.3708 9.33706 16.479 10.8919 16.0625C12.4468 15.6461 13.8208 14.7282 14.8009 13.4513C15.781 12.1743 16.3123 10.6097 16.3125 8.99997C16.3125 8.85079 16.2532 8.70771 16.1478 8.60223C16.0423 8.49674 15.8992 8.43747 15.75 8.43747C15.6008 8.43747 15.4578 8.49674 15.3523 8.60223C15.2468 8.70771 15.1875 8.85079 15.1875 8.99997C15.1875 10.641 14.5356 12.2148 13.3752 13.3752C12.2149 14.5356 10.641 15.1875 9.00001 15.1875C7.35898 15.1875 5.78517 14.5356 4.62479 13.3752C3.46441 12.2148 2.81251 10.641 2.81251 8.99997Z" fill="url(#paint0_linear_861_346)"/>
<path d="M17.2732 3.77323C17.3255 3.72093 17.367 3.65884 17.3953 3.59051C17.4236 3.52218 17.4382 3.44894 17.4382 3.37498C17.4382 3.30102 17.4236 3.22778 17.3953 3.15945C17.367 3.09111 17.3255 3.02903 17.2732 2.97673C17.2209 2.92443 17.1588 2.88294 17.0905 2.85464C17.0222 2.82634 16.9489 2.81177 16.875 2.81177C16.801 2.81177 16.7278 2.82634 16.6594 2.85464C16.5911 2.88294 16.529 2.92443 16.4767 2.97673L8.99998 10.4546L6.02323 7.47673C5.97093 7.42443 5.90884 7.38294 5.84051 7.35464C5.77218 7.32633 5.69894 7.31177 5.62498 7.31177C5.55102 7.31177 5.47778 7.32633 5.40945 7.35464C5.34111 7.38294 5.27903 7.42443 5.22673 7.47673C5.17443 7.52903 5.13294 7.59111 5.10464 7.65945C5.07634 7.72778 5.06177 7.80102 5.06177 7.87498C5.06177 7.94894 5.07634 8.02218 5.10464 8.09051C5.13294 8.15884 5.17443 8.22093 5.22673 8.27323L8.60173 11.6482C8.65398 11.7006 8.71605 11.7422 8.78439 11.7705C8.85273 11.7989 8.92599 11.8135 8.99998 11.8135C9.07397 11.8135 9.14723 11.7989 9.21557 11.7705C9.2839 11.7422 9.34598 11.7006 9.39823 11.6482L17.2732 3.77323Z" fill="url(#paint1_linear_861_346)"/>
<defs>
<linearGradient id="paint0_linear_861_346" x1="9.00001" y1="1.68652" x2="9.00001" y2="16.3115" gradientUnits="userSpaceOnUse">
<stop stop-color="#FFA811"/>
<stop offset="1" stop-color="#F33B00"/>
</linearGradient>
<linearGradient id="paint1_linear_861_346" x1="11.25" y1="2.81177" x2="11.25" y2="11.8135" gradientUnits="userSpaceOnUse">
<stop stop-color="#FFA811"/>
<stop offset="1" stop-color="#F33B00"/>
</linearGradient>
</defs>
</svg>
