<svg width="38" height="38" viewBox="0 0 38 38" fill="none" xmlns="http://www.w3.org/2000/svg">
<path d="M0.979736 14.9133C1.68121 15.1021 2.40606 14.6831 2.59897 13.9749C2.75095 13.4143 2.51713 12.8418 2.06117 12.5291C4.69754 5.50617 11.4784 0.70819 19.0017 0.70819C26.5192 0.70819 33.3001 5.50617 35.9423 12.5291C35.4863 12.8418 35.2525 13.4084 35.4045 13.9749C35.5915 14.6831 36.3164 15.108 37.0237 14.9133C37.7252 14.7244 38.1461 13.9926 37.9531 13.2786C37.7895 12.6589 37.2166 12.2576 36.6028 12.293C33.8671 4.99274 26.8173 0 19.0017 0C11.1803 0 4.13051 4.99274 1.39477 12.2989C0.786831 12.2635 0.213963 12.6648 0.0444404 13.2845C-0.142619 13.9926 0.278264 14.7244 0.979736 14.9133Z" fill="url(#paint0_linear_1_9)"/>
<path d="M1.01017 23.2228C1.71165 23.028 2.44235 23.4411 2.63525 24.1493C2.78724 24.71 2.55926 25.2883 2.10915 25.6011C4.79228 32.6417 11.4153 37.2921 18.9971 37.2921C26.5788 37.2921 33.2077 32.6417 35.8909 25.6011C35.4408 25.2883 35.2069 24.7159 35.3648 24.1493C35.5577 23.4411 36.2884 23.0221 36.9898 23.2228C37.6913 23.4175 38.1063 24.1552 37.9076 24.8634C37.7381 25.4831 37.1652 25.8785 36.5514 25.8372C33.7689 33.161 26.8828 38.0003 18.9971 38.0003C11.1172 38.0003 4.22525 33.161 1.44275 25.8372C0.834807 25.8785 0.256091 25.4831 0.0865684 24.8634C-0.100491 24.1493 0.308702 23.4175 1.01017 23.2228Z" fill="url(#paint1_linear_1_9)"/>
<g clip-path="url(#clip0_1_9)">
<path d="M24.2075 20.175C23.5525 21.5025 22.665 22.825 21.7575 24.0125C20.8966 25.132 19.9761 26.2044 19 27.225C18.0239 26.2044 17.1034 25.132 16.2425 24.0125C15.335 22.825 14.4475 21.5025 13.7925 20.175C13.13 18.8337 12.75 17.5775 12.75 16.5C12.75 14.8424 13.4085 13.2527 14.5806 12.0806C15.7527 10.9085 17.3424 10.25 19 10.25C20.6576 10.25 22.2473 10.9085 23.4194 12.0806C24.5915 13.2527 25.25 14.8424 25.25 16.5C25.25 17.5775 24.8688 18.8337 24.2075 20.175ZM19 29C19 29 26.5 21.8925 26.5 16.5C26.5 14.5109 25.7098 12.6032 24.3033 11.1967C22.8968 9.79018 20.9891 9 19 9C17.0109 9 15.1032 9.79018 13.6967 11.1967C12.2902 12.6032 11.5 14.5109 11.5 16.5C11.5 21.8925 19 29 19 29Z" fill="url(#paint2_linear_1_9)"/>
<path d="M19 19C18.337 19 17.7011 18.7366 17.2322 18.2678C16.7634 17.7989 16.5 17.163 16.5 16.5C16.5 15.837 16.7634 15.2011 17.2322 14.7322C17.7011 14.2634 18.337 14 19 14C19.663 14 20.2989 14.2634 20.7678 14.7322C21.2366 15.2011 21.5 15.837 21.5 16.5C21.5 17.163 21.2366 17.7989 20.7678 18.2678C20.2989 18.7366 19.663 19 19 19ZM19 20.25C19.9946 20.25 20.9484 19.8549 21.6517 19.1517C22.3549 18.4484 22.75 17.4946 22.75 16.5C22.75 15.5054 22.3549 14.5516 21.6517 13.8483C20.9484 13.1451 19.9946 12.75 19 12.75C18.0054 12.75 17.0516 13.1451 16.3483 13.8483C15.6451 14.5516 15.25 15.5054 15.25 16.5C15.25 17.4946 15.6451 18.4484 16.3483 19.1517C17.0516 19.8549 18.0054 20.25 19 20.25V20.25Z" fill="url(#paint3_linear_1_9)"/>
</g>
<defs>
<linearGradient id="paint0_linear_1_9" x1="3.77276" y1="7.25026" x2="45.0608" y2="7.25026" gradientUnits="userSpaceOnUse">
<stop stop-color="#FFA811"/>
<stop offset="1" stop-color="#F33B00"/>
</linearGradient>
<linearGradient id="paint1_linear_1_9" x1="34.1929" y1="30.3584" x2="-7.00391" y2="30.3584" gradientUnits="userSpaceOnUse">
<stop stop-color="#FFA811"/>
<stop offset="1" stop-color="#F33B00"/>
</linearGradient>
<linearGradient id="paint2_linear_1_9" x1="19" y1="9" x2="19" y2="29" gradientUnits="userSpaceOnUse">
<stop stop-color="#FFA811"/>
<stop offset="1" stop-color="#F33B00"/>
</linearGradient>
<linearGradient id="paint3_linear_1_9" x1="19" y1="12.75" x2="19" y2="20.25" gradientUnits="userSpaceOnUse">
<stop stop-color="#FFA811"/>
<stop offset="1" stop-color="#F33B00"/>
</linearGradient>
<clipPath id="clip0_1_9">
<rect width="20" height="20" fill="white" transform="translate(9 9)"/>
</clipPath>
</defs>
</svg>
