<svg width="52" height="8" viewBox="0 0 52 8" fill="none" xmlns="http://www.w3.org/2000/svg">
<path d="M1 3.5C0.723858 3.5 0.5 3.72386 0.5 4C0.5 4.27614 0.723858 4.5 1 4.5L1 3.5ZM51.3536 4.35355C51.5488 4.15829 51.5488 3.84171 51.3536 3.64645L48.1716 0.464466C47.9763 0.269204 47.6597 0.269204 47.4645 0.464466C47.2692 0.659728 47.2692 0.976311 47.4645 1.17157L50.2929 4L47.4645 6.82843C47.2692 7.02369 47.2692 7.34027 47.4645 7.53553C47.6597 7.7308 47.9763 7.7308 48.1716 7.53553L51.3536 4.35355ZM1 4.5L51 4.5V3.5L1 3.5L1 4.5Z" fill="url(#paint0_linear_1619_2553)"/>
<defs>
<linearGradient id="paint0_linear_1619_2553" x1="0.98588" y1="4" x2="51" y2="4.00024" gradientUnits="userSpaceOnUse">
<stop stop-color="#F86CA7"/>
<stop offset="1" stop-color="#FF7F18"/>
</linearGradient>
</defs>
</svg>
