<svg width="45" height="45" viewBox="0 0 45 45" fill="none" xmlns="http://www.w3.org/2000/svg">
<path d="M31.5374 22.9875L45 19.0655L31.4899 19.3314L42.1796 11.0632L29.2361 16.454L35.9816 4.16256L26.6151 13.9026L28.3276 0.496975L22.9875 13.4626L19.0655 0L19.3314 13.5133L11.0632 2.82358L16.454 15.7671L4.16256 9.01836L13.9026 18.3849L0.496975 16.6756L13.4626 22.0157L0 25.9345L13.5133 25.6686L2.82358 33.9399L15.7671 28.5492L9.01836 40.8406L18.3849 31.0974L16.6756 44.503L22.0157 31.5374L25.9345 45L25.6718 31.4899L33.9399 42.1796L28.5492 29.2361L40.8406 35.9816L31.0974 26.6151L44.503 28.3276L31.5374 22.9875Z" fill="#B9B5B5"/>
</svg>
