<svg width="17" height="21" viewBox="0 0 17 21" fill="none" xmlns="http://www.w3.org/2000/svg">
<path fill-rule="evenodd" clip-rule="evenodd" d="M3.38036 0H10.4013L16.3519 6.2024V18.2661C16.3519 19.7774 15.1292 21 13.6232 21H3.38036C1.86912 21 0.646484 19.7774 0.646484 18.2661V2.73387C0.646458 1.22263 1.86909 0 3.38036 0Z" fill="#E5252A"/>
<path opacity="0.302" fill-rule="evenodd" clip-rule="evenodd" d="M10.3965 0V6.15517H16.3523L10.3965 0Z" fill="white"/>
<path d="M3.68555 15.6687V11.8328H5.31749C5.72154 11.8328 6.04164 11.943 6.28301 12.1687C6.52439 12.389 6.64509 12.6882 6.64509 13.0607C6.64509 13.4333 6.52439 13.7324 6.28301 13.9528C6.04164 14.1784 5.72154 14.2886 5.31749 14.2886H4.66681V15.6687H3.68555ZM4.66681 13.4543H5.20729C5.35421 13.4543 5.46966 13.4228 5.54838 13.3493C5.62708 13.2811 5.66908 13.1867 5.66908 13.0607C5.66908 12.9348 5.6271 12.8404 5.54838 12.7721C5.46968 12.6987 5.35424 12.6672 5.20729 12.6672H4.66681V13.4543ZM7.04911 15.6687V11.8328H8.40818C8.6758 11.8328 8.92768 11.8695 9.1638 11.9483C9.39992 12.027 9.61508 12.1372 9.80397 12.2894C9.99289 12.4363 10.1451 12.6357 10.2553 12.8876C10.3602 13.1394 10.4179 13.428 10.4179 13.7534C10.4179 14.0735 10.3602 14.3621 10.2553 14.6139C10.1451 14.8658 9.99289 15.0652 9.80397 15.2121C9.61506 15.3643 9.39992 15.4745 9.1638 15.5532C8.92768 15.6319 8.6758 15.6687 8.40818 15.6687H7.04911ZM8.00938 14.8343H8.29273C8.4449 14.8343 8.58659 14.8186 8.71777 14.7819C8.8437 14.7451 8.9644 14.6874 9.07985 14.6087C9.19004 14.53 9.27925 14.4198 9.34221 14.2729C9.40518 14.126 9.43667 13.9528 9.43667 13.7534C9.43667 13.5487 9.40518 13.3756 9.34221 13.2286C9.27925 13.0817 9.19004 12.9715 9.07985 12.8928C8.9644 12.8141 8.84373 12.7564 8.71777 12.7197C8.58659 12.6829 8.4449 12.6672 8.29273 12.6672H8.00938V14.8343ZM10.9112 15.6687V11.8328H13.6398V12.6672H11.8924V13.2811H13.2882V14.1102H11.8924V15.6687H10.9112Z" fill="white"/>
</svg>
