<svg width="187" height="222" viewBox="0 0 187 222" fill="none" xmlns="http://www.w3.org/2000/svg">
<rect width="1" height="73" transform="matrix(1 0 0 -1 93 222)" fill="url(#paint0_linear_883_35)"/>
<rect x="93" width="1" height="73" fill="url(#paint1_linear_883_35)"/>
<rect x="138" y="111" width="49" height="1" fill="url(#paint2_linear_883_35)"/>
<rect width="49" height="1" transform="matrix(-1 0 0 1 49 111)" fill="url(#paint3_linear_883_35)"/>
<path d="M66.4696 104.977C67.5218 105.256 68.6091 104.638 68.8985 103.594C69.1264 102.768 68.7757 101.925 68.0918 101.464C72.0463 91.1143 82.2176 84.0436 93.5026 84.0436C104.779 84.0436 114.95 91.1143 118.913 101.464C118.229 101.925 117.879 102.76 118.107 103.594C118.387 104.638 119.475 105.264 120.536 104.977C121.588 104.699 122.219 103.621 121.93 102.568C121.684 101.655 120.825 101.064 119.904 101.116C115.801 90.3577 105.226 83 93.5026 83C81.7705 83 71.1958 90.3577 67.0922 101.125C66.1802 101.072 65.3209 101.664 65.0667 102.577C64.7861 103.621 65.4174 104.699 66.4696 104.977Z" fill="url(#paint4_linear_883_35)"/>
<path d="M66.5153 117.223C67.5675 116.936 68.6635 117.544 68.9529 118.588C69.1809 119.414 68.8389 120.267 68.1637 120.728C72.1884 131.103 82.123 137.956 93.4956 137.956C104.868 137.956 114.812 131.103 118.836 120.728C118.161 120.267 117.81 119.423 118.047 118.588C118.337 117.544 119.433 116.927 120.485 117.223C121.537 117.51 122.16 118.597 121.861 119.64C121.607 120.554 120.748 121.136 119.827 121.075C115.653 131.868 105.324 139 93.4956 139C81.6758 139 71.3379 131.868 67.1641 121.075C66.2522 121.136 65.3841 120.554 65.1299 119.64C64.8493 118.588 65.4631 117.51 66.5153 117.223Z" fill="url(#paint5_linear_883_35)"/>
<path d="M102.14 114.237C101.566 113.643 100.874 113.326 100.14 113.326C99.412 113.326 98.7137 113.638 98.116 114.231L96.2458 116.081C96.092 115.998 95.9381 115.922 95.7902 115.846C95.5771 115.74 95.3759 115.64 95.2043 115.534C93.4525 114.43 91.8605 112.992 90.3337 111.13C89.5939 110.202 89.0968 109.421 88.7358 108.628C89.2211 108.188 89.6708 107.73 90.1088 107.289C90.2745 107.125 90.4402 106.954 90.6059 106.79C91.8487 105.557 91.8487 103.959 90.6059 102.726L88.9903 101.123C88.8068 100.941 88.6174 100.753 88.4399 100.565C88.0848 100.201 87.712 99.825 87.3273 99.4727C86.7532 98.9089 86.0667 98.6094 85.3447 98.6094C84.6227 98.6094 83.9244 98.9089 83.3326 99.4727C83.3266 99.4785 83.3266 99.4785 83.3207 99.4844L81.3086 101.499C80.5511 102.25 80.119 103.167 80.0244 104.23C79.8823 105.944 80.3913 107.542 80.7819 108.587C81.7406 111.153 83.1728 113.532 85.3092 116.081C87.9013 119.152 91.0202 121.577 94.5829 123.286C95.944 123.926 97.7609 124.684 99.7908 124.813C99.9151 124.819 100.045 124.825 100.164 124.825C101.531 124.825 102.679 124.338 103.578 123.369C103.584 123.357 103.596 123.351 103.602 123.339C103.91 122.969 104.265 122.634 104.638 122.276C104.892 122.035 105.153 121.783 105.407 121.519C105.993 120.914 106.301 120.209 106.301 119.487C106.301 118.758 105.987 118.06 105.389 117.472L102.14 114.237ZM104.259 120.42C104.253 120.42 104.253 120.426 104.259 120.42C104.028 120.667 103.791 120.89 103.537 121.137C103.152 121.501 102.762 121.883 102.395 122.311C101.797 122.946 101.093 123.245 100.17 123.245C100.081 123.245 99.9861 123.245 99.8973 123.239C98.1396 123.128 96.5062 122.447 95.2812 121.865C91.9316 120.256 88.9903 117.972 86.5461 115.076C84.528 112.663 83.1787 110.431 82.2851 108.035C81.7347 106.573 81.5335 105.433 81.6222 104.359C81.6814 103.672 81.9477 103.102 82.4389 102.615L84.457 100.612C84.747 100.342 85.0547 100.195 85.3566 100.195C85.7294 100.195 86.0312 100.418 86.2206 100.606C86.2265 100.612 86.2324 100.618 86.2384 100.624C86.5994 100.958 86.9426 101.305 87.3036 101.675C87.4871 101.863 87.6764 102.051 87.8658 102.245L89.4815 103.848C90.1088 104.47 90.1088 105.046 89.4815 105.668C89.3098 105.839 89.1441 106.009 88.9725 106.173C88.4754 106.678 88.0019 107.148 87.4871 107.606C87.4752 107.618 87.4634 107.624 87.4575 107.636C86.9485 108.141 87.0432 108.634 87.1497 108.969C87.1557 108.986 87.1616 109.004 87.1675 109.022C87.5877 110.032 88.1795 110.983 89.079 112.116L89.085 112.122C90.7183 114.119 92.4405 115.675 94.3402 116.867C94.5829 117.02 94.8314 117.143 95.0681 117.261C95.2812 117.367 95.4824 117.466 95.654 117.572C95.6777 117.584 95.7014 117.602 95.7251 117.613C95.9263 117.713 96.1156 117.76 96.3109 117.76C96.8021 117.76 97.1099 117.455 97.2105 117.355L99.2345 115.346C99.4357 115.147 99.7553 114.906 100.128 114.906C100.495 114.906 100.797 115.135 100.98 115.335C100.986 115.341 100.986 115.341 100.992 115.346L104.253 118.582C104.863 119.181 104.863 119.798 104.259 120.42Z" fill="url(#paint6_linear_883_35)"/>
<path d="M95.1327 103.619C96.6833 103.878 98.0918 104.606 99.2162 105.722C100.341 106.838 101.069 108.235 101.335 109.774C101.4 110.162 101.737 110.432 102.122 110.432C102.169 110.432 102.211 110.426 102.258 110.42C102.696 110.349 102.986 109.938 102.915 109.504C102.595 107.642 101.708 105.945 100.352 104.6C98.9972 103.255 97.2869 102.374 95.4109 102.057C94.9729 101.987 94.5646 102.275 94.4877 102.703C94.4107 103.132 94.6948 103.549 95.1327 103.619Z" fill="url(#paint7_linear_883_35)"/>
<path d="M107.988 109.274C107.461 106.209 106.005 103.419 103.768 101.199C101.531 98.9794 98.7201 97.5348 95.6309 97.0121C95.1989 96.9357 94.7905 97.2294 94.7136 97.6581C94.6426 98.0927 94.9325 98.4979 95.3705 98.5742C98.1283 99.0382 100.644 100.336 102.644 102.315C104.644 104.3 105.946 106.796 106.414 109.533C106.479 109.92 106.816 110.19 107.201 110.19C107.248 110.19 107.29 110.184 107.337 110.179C107.769 110.114 108.065 109.703 107.988 109.274Z" fill="url(#paint8_linear_883_35)"/>
<defs>
<linearGradient id="paint0_linear_883_35" x1="0.5" y1="0" x2="0.5" y2="73" gradientUnits="userSpaceOnUse">
<stop stop-color="#FFA811"/>
<stop offset="1" stop-color="#F33B00"/>
</linearGradient>
<linearGradient id="paint1_linear_883_35" x1="93.5" y1="0" x2="93.5" y2="73" gradientUnits="userSpaceOnUse">
<stop stop-color="#FFA811"/>
<stop offset="1" stop-color="#F33B00"/>
</linearGradient>
<linearGradient id="paint2_linear_883_35" x1="187" y1="111.5" x2="138" y2="111.5" gradientUnits="userSpaceOnUse">
<stop stop-color="#FFA811"/>
<stop offset="1" stop-color="#F33B00"/>
</linearGradient>
<linearGradient id="paint3_linear_883_35" x1="49" y1="0.500025" x2="4.27409e-08" y2="0.500029" gradientUnits="userSpaceOnUse">
<stop stop-color="#FFA811"/>
<stop offset="1" stop-color="#F33B00"/>
</linearGradient>
<linearGradient id="paint4_linear_883_35" x1="70.6591" y1="93.6845" x2="132.591" y2="93.6845" gradientUnits="userSpaceOnUse">
<stop stop-color="#FFA811"/>
<stop offset="1" stop-color="#F33B00"/>
</linearGradient>
<linearGradient id="paint5_linear_883_35" x1="116.289" y1="127.738" x2="54.4941" y2="127.738" gradientUnits="userSpaceOnUse">
<stop stop-color="#FFA811"/>
<stop offset="1" stop-color="#F33B00"/>
</linearGradient>
<linearGradient id="paint6_linear_883_35" x1="78.9044" y1="112.293" x2="109.04" y2="112.841" gradientUnits="userSpaceOnUse">
<stop stop-color="#FFA811"/>
<stop offset="1" stop-color="#F33B00"/>
</linearGradient>
<linearGradient id="paint7_linear_883_35" x1="94.1231" y1="106.423" x2="103.806" y2="106.6" gradientUnits="userSpaceOnUse">
<stop stop-color="#FFA811"/>
<stop offset="1" stop-color="#F33B00"/>
</linearGradient>
<linearGradient id="paint8_linear_883_35" x1="94.149" y1="103.885" x2="109.385" y2="104.163" gradientUnits="userSpaceOnUse">
<stop stop-color="#FFA811"/>
<stop offset="1" stop-color="#F33B00"/>
</linearGradient>
</defs>
</svg>
