<svg width="50" height="51" viewBox="0 0 50 51" fill="none" xmlns="http://www.w3.org/2000/svg">
<path fill-rule="evenodd" clip-rule="evenodd" d="M25.9485 49.0663C25.6338 49.0785 25.3176 49.0847 25 49.0847C11.7452 49.0847 1 38.3395 1 25.0847C1 11.8298 11.7452 1.08468 25 1.08468C38.2548 1.08468 49 11.8298 49 25.0847C49 25.143 48.9998 25.2012 48.9994 25.2594L49.9678 26.3653C49.9892 25.9411 50 25.5142 50 25.0847C50 11.2776 38.8071 0.0846767 25 0.0846767C11.1929 0.0846767 0 11.2776 0 25.0847C0 38.8918 11.1929 50.0847 25 50.0847C25.6003 50.0847 26.1956 50.0635 26.7853 50.0219L25.9485 49.0663Z" fill="#FF7F18"/>
<path d="M31.9775 27.9518C31.4855 27.4402 30.892 27.1667 30.263 27.1667C29.639 27.1667 29.0404 27.4352 28.5281 27.9468L26.9251 29.5424C26.7932 29.4714 26.6613 29.4056 26.5345 29.3398C26.3519 29.2486 26.1794 29.1625 26.0323 29.0713C24.5308 28.119 23.1663 26.878 21.8575 25.2723C21.2234 24.4719 20.7973 23.7983 20.4879 23.1144C20.9038 22.7345 21.2894 22.3394 21.6647 21.9595C21.8068 21.8177 21.9488 21.6708 22.0908 21.529C23.1561 20.4652 23.1561 19.0875 22.0908 18.0237L20.706 16.6409C20.5487 16.4839 20.3864 16.3218 20.2342 16.1597C19.9299 15.8456 19.6103 15.5215 19.2806 15.2175C18.7885 14.7313 18.2001 14.4729 17.5812 14.4729C16.9624 14.4729 16.3638 14.7313 15.8565 15.2175C15.8514 15.2226 15.8514 15.2226 15.8464 15.2277L14.1216 16.9651C13.4723 17.6135 13.102 18.4037 13.0209 19.3205C12.8991 20.7996 13.3354 22.1773 13.6702 23.079C14.492 25.2925 15.7195 27.344 17.5508 29.5424C19.7726 32.1915 22.4459 34.2835 25.4997 35.7576C26.6664 36.3097 28.2237 36.9631 29.9637 37.0745C30.0702 37.0796 30.1818 37.0847 30.2832 37.0847C31.455 37.0847 32.4391 36.6643 33.2102 35.8285C33.2153 35.8183 33.2254 35.8133 33.2305 35.8031C33.4943 35.484 33.7986 35.1953 34.1182 34.8863C34.3363 34.6786 34.5595 34.4608 34.7777 34.2329C35.2798 33.7112 35.5436 33.1033 35.5436 32.4803C35.5436 31.8522 35.2748 31.2494 34.7624 30.7429L31.9775 27.9518ZM33.7936 33.2857C33.7885 33.2857 33.7885 33.2907 33.7936 33.2857C33.5957 33.4984 33.3928 33.6909 33.1747 33.9036C32.845 34.2177 32.5102 34.5469 32.1957 34.9167C31.6833 35.4638 31.0797 35.7221 30.2883 35.7221C30.2122 35.7221 30.1311 35.7221 30.055 35.717C28.5484 35.6208 27.1483 35.0332 26.0983 34.5317C23.2271 33.1438 20.706 31.1734 18.611 28.6762C16.8812 26.5943 15.7246 24.6695 14.9586 22.6028C14.4869 21.3416 14.3144 20.3589 14.3905 19.4319C14.4412 18.8393 14.6695 18.3479 15.0905 17.9275L16.8203 16.2002C17.0689 15.9672 17.3327 15.8406 17.5914 15.8406C17.9109 15.8406 18.1697 16.0331 18.332 16.1952C18.3371 16.2002 18.3421 16.2053 18.3472 16.2104C18.6566 16.4991 18.9509 16.7979 19.2603 17.1171C19.4175 17.2791 19.5799 17.4412 19.7422 17.6084L21.127 18.9912C21.6647 19.5282 21.6647 20.0246 21.127 20.5615C20.9799 20.7084 20.8379 20.8553 20.6908 20.9971C20.2647 21.4327 19.8589 21.838 19.4175 22.2331C19.4074 22.2432 19.3972 22.2483 19.3922 22.2584C18.9559 22.694 19.0371 23.1195 19.1284 23.4082C19.1335 23.4234 19.1385 23.4386 19.1436 23.4538C19.5038 24.325 20.011 25.1456 20.7821 26.1233L20.7872 26.1283C22.1872 27.8505 23.6634 29.1929 25.2917 30.2211C25.4997 30.3528 25.7128 30.4592 25.9157 30.5605C26.0983 30.6517 26.2707 30.7378 26.4179 30.829C26.4381 30.8391 26.4584 30.8543 26.4787 30.8644C26.6512 30.9505 26.8135 30.9911 26.9809 30.9911C27.402 30.9911 27.6657 30.7277 27.752 30.6415L29.4868 28.9092C29.6593 28.737 29.9332 28.5293 30.2528 28.5293C30.5673 28.5293 30.826 28.7268 30.9833 28.8991C30.9884 28.9041 30.9884 28.9041 30.9934 28.9092L33.7885 31.7002C34.311 32.2169 34.311 32.7487 33.7936 33.2857Z" fill="#FF7F18"/>
<path d="M25.9709 18.7939C27.3 19.0168 28.5073 19.6449 29.4711 20.6073C30.4349 21.5697 31.0588 22.7753 31.2871 24.1024C31.3429 24.4367 31.632 24.6697 31.9618 24.6697C32.0023 24.6697 32.0378 24.6646 32.0784 24.6596C32.4538 24.5988 32.7024 24.2442 32.6415 23.8694C32.3676 22.2637 31.6067 20.7998 30.445 19.6398C29.2834 18.4799 27.8174 17.72 26.2093 17.4465C25.8339 17.3857 25.4839 17.6339 25.418 18.0037C25.352 18.3735 25.5955 18.7331 25.9709 18.7939Z" fill="#FF7F18"/>
<path d="M36.9898 23.6716C36.5383 21.0274 35.2904 18.6214 33.3729 16.7067C31.4554 14.792 29.0459 13.5459 26.398 13.0951C26.0277 13.0293 25.6776 13.2825 25.6117 13.6523C25.5508 14.0271 25.7994 14.3766 26.1748 14.4425C28.5386 14.8426 30.6945 15.9621 32.4091 17.6691C34.1237 19.3812 35.2397 21.534 35.6404 23.8944C35.6962 24.2287 35.9854 24.4618 36.3151 24.4618C36.3557 24.4618 36.3912 24.4567 36.4318 24.4516C36.8021 24.3959 37.0557 24.0413 36.9898 23.6716Z" fill="#FF7F18"/>
</svg>
