<svg width="51" height="36" viewBox="0 0 51 36" fill="none" xmlns="http://www.w3.org/2000/svg">
<path d="M9.98471 23.7003L10.2083 23.1376L9.61351 23.0244C4.31223 22.0157 0.5 17.3103 0.5 11.9326C0.5 8.706 1.86842 5.60941 4.26188 3.44236C6.65579 1.29201 9.88166 0.232066 13.1244 0.557973C18.951 1.15912 23.4656 6.43307 23.3514 12.6032C23.1924 20.7907 20.2448 26.1225 16.752 29.5901C13.2472 33.0697 9.16394 34.7001 6.71067 35.4181L6.69657 35.4222L6.68273 35.4272C6.52482 35.4836 6.35413 35.5 6.13704 35.5C5.45353 35.5 4.83282 35.1754 4.45092 34.5751L4.44969 34.5731C3.96046 33.8117 4.03936 32.8319 4.6425 32.1461L4.64254 32.1461C7.0366 29.4234 8.83806 26.5857 9.98471 23.7003Z" stroke="url(#paint0_linear_1266_86)"/>
<path d="M37.1332 23.7003L37.3569 23.1376L36.7621 23.0244C31.4607 22.0157 27.6484 17.3103 27.6484 11.9326C27.6484 8.70599 29.0169 5.6094 31.4104 3.44236C33.8045 1.29177 37.0303 0.232186 40.2556 0.557939C46.0355 1.15934 50.4997 6.30337 50.4997 12.3749V12.608C50.3397 20.7928 47.3925 26.1232 43.9005 29.5901C40.3957 33.0696 36.3124 34.7001 33.8591 35.4181L33.845 35.4222L33.8312 35.4271C33.6733 35.4836 33.5026 35.5 33.2856 35.5C32.602 35.5 31.9813 35.1754 31.5995 34.5751L31.5982 34.5731C31.1089 33.8117 31.1878 32.8318 31.7909 32.1461L31.791 32.1461C34.1851 29.4234 35.9865 26.5857 37.1332 23.7003Z" stroke="url(#paint1_linear_1266_86)"/>
<defs>
<linearGradient id="paint0_linear_1266_86" x1="11.9267" y1="0" x2="11.9267" y2="36" gradientUnits="userSpaceOnUse">
<stop stop-color="#FF7222"/>
<stop offset="1" stop-color="#FF166A"/>
</linearGradient>
<linearGradient id="paint1_linear_1266_86" x1="39.0741" y1="0" x2="39.0741" y2="36" gradientUnits="userSpaceOnUse">
<stop stop-color="#FF7222"/>
<stop offset="1" stop-color="#FF166A"/>
</linearGradient>
</defs>
</svg>
