<svg width="117" height="83" viewBox="0 0 117 83" fill="none" xmlns="http://www.w3.org/2000/svg">
<path d="M92.4248 30.6941C92.1895 28.1502 92.3695 21.2348 98.9943 11.6186C99.4954 10.8929 99.4045 9.91425 98.7821 9.2921C96.0812 6.5912 94.409 4.88687 93.2361 3.69424C91.6939 2.12172 90.9898 1.40519 89.9593 0.470873C89.2712 -0.147623 88.2301 -0.158393 87.5347 0.447872C75.9878 10.4955 63.1626 31.2574 65.0185 56.6939C66.1059 71.6298 77.0004 82.4708 90.9221 82.4708C105.209 82.4708 116.833 70.849 116.833 56.5619C116.833 42.7794 106.015 31.4767 92.4248 30.6941ZM90.9221 78.8197C78.9667 78.8197 69.6055 69.4032 68.659 56.4301C68.659 56.4301 68.659 56.4301 68.659 56.4283C66.5713 27.8203 83.577 9.23861 88.715 4.31821C89.2159 4.81203 89.7882 5.3931 90.6314 6.25238C91.6475 7.28637 93.0382 8.7019 95.1418 10.8128C87.0997 23.203 88.6169 32.0311 89.2818 33.2969C89.5974 33.8977 90.2446 34.3025 90.9221 34.3025C103.196 34.3025 113.181 44.2877 113.181 56.5619C113.181 68.8345 103.196 78.8197 90.9221 78.8197Z" fill="#FFF2E8"/>
<path d="M27.5895 30.6941C27.3524 28.1573 27.5271 21.2473 34.1589 11.6186C34.6582 10.893 34.5689 9.91428 33.9468 9.29213C31.2512 6.59653 29.5808 4.89402 28.4095 3.70139C26.8622 2.1254 26.1561 1.40686 25.1257 0.470906C24.4375 -0.14759 23.3964 -0.156535 22.7012 0.446078C11.1543 10.4937 -1.67275 31.2522 0.179449 56.6939V56.6957C1.27058 71.6298 12.1667 82.4708 26.0883 82.4708C40.3754 82.4708 51.9991 70.849 51.9991 56.5619C51.9991 42.7778 41.1812 31.4733 27.5895 30.6941ZM26.0883 78.8197C14.135 78.8197 4.76833 69.4032 3.81995 56.4283V56.4301C1.73774 27.815 18.7434 9.23682 23.8813 4.31825C24.384 4.81206 24.9581 5.39678 25.8032 6.25789C26.8175 7.29188 28.2063 8.70558 30.3065 10.8128C22.2644 23.2048 23.7816 32.0311 24.4464 33.2952C24.7621 33.8959 25.4109 34.3025 26.0883 34.3025C38.3628 34.3025 48.348 44.2877 48.348 56.5619C48.348 68.8345 38.3628 78.8197 26.0883 78.8197Z" fill="#FFF2E8"/>
</svg>
