<svg width="14" height="16" viewBox="0 0 14 16" fill="none" xmlns="http://www.w3.org/2000/svg">
<path d="M13.9761 3.67554C13.9632 3.5495 13.9175 3.42868 13.8431 3.3244C13.7688 3.22012 13.6683 3.13578 13.5511 3.07929L7.34667 0.0792871C7.23892 0.0271466 7.1201 0 6.99961 0C6.87913 0 6.7603 0.0271466 6.65255 0.0792871L0.448131 3.07929C0.331235 3.1361 0.231064 3.22054 0.156904 3.32477C0.0827448 3.429 0.0369977 3.54965 0.0239038 3.67554C0.0153727 3.75579 -0.721402 11.7508 6.68513 14.936C6.78409 14.9792 6.89142 15.0016 7 15.0016C7.10858 15.0016 7.21591 14.9792 7.31487 14.936C14.7214 11.7508 13.9846 3.75654 13.9761 3.67554ZM7 13.4233C1.75028 10.9693 1.50211 5.73204 1.54476 4.22679L7 1.58904L12.4514 4.22529C12.4801 5.71704 12.197 10.9888 7 13.4233Z" fill="url(#paint0_linear_903_246)"/>
<path d="M6.22458 7.93997L4.44624 6.22021L3.34961 7.28071L6.22458 10.061L10.6507 5.78071L9.55403 4.72021L6.22458 7.93997Z" fill="url(#paint1_linear_903_246)"/>
<defs>
<linearGradient id="paint0_linear_903_246" x1="7" y1="0" x2="7" y2="15.0016" gradientUnits="userSpaceOnUse">
<stop stop-color="#FFA811"/>
<stop offset="1" stop-color="#F33B00"/>
</linearGradient>
<linearGradient id="paint1_linear_903_246" x1="7.00014" y1="4.72021" x2="7.00014" y2="10.061" gradientUnits="userSpaceOnUse">
<stop stop-color="#FFA811"/>
<stop offset="1" stop-color="#F33B00"/>
</linearGradient>
</defs>
</svg>
