<svg width="40" height="40" viewBox="0 0 40 40" fill="none" xmlns="http://www.w3.org/2000/svg">
<path d="M38.2055 25.5244C37.4771 25.1521 36.6248 25.0185 35.797 25.1469C34.9692 25.2753 34.2183 25.6576 33.6751 26.2272L28.8557 23.998V16.002L33.6785 13.7711C34.2568 14.3722 35.0667 14.7598 35.9498 14.8583C36.8329 14.9567 37.7255 14.7587 38.453 14.3032C39.1805 13.8477 39.6904 13.1673 39.883 12.3953C40.0756 11.6234 39.9369 10.8153 39.4942 10.1294C39.0515 9.44341 38.3366 8.92895 37.4894 8.68666C36.6422 8.44437 35.7237 8.4917 34.9137 8.8194C34.1037 9.14709 33.4606 9.73154 33.1101 10.4584C32.7596 11.1852 32.7271 12.0021 33.0188 12.7491L28.1931 14.9812L20.6878 11.51V6.32037C21.5664 6.17368 22.3517 5.74088 22.8899 5.10673C23.4281 4.47258 23.6805 3.68276 23.5976 2.89196C23.5147 2.10116 23.1025 1.36634 22.4417 0.83142C21.7809 0.296496 20.9191 0 20.0252 0C19.1312 0 18.2695 0.296496 17.6087 0.83142C16.9479 1.36634 16.5357 2.10116 16.4527 2.89196C16.3698 3.68276 16.6222 4.47258 17.1604 5.10673C17.6986 5.74088 18.4839 6.17368 19.3625 6.32037V11.51L11.8573 14.9812L7.03151 12.7491C7.32904 11.9929 7.29794 11.1652 6.9443 10.4283C6.59066 9.69144 5.93998 9.09847 5.11982 8.76566C4.29966 8.43284 3.36916 8.38417 2.51071 8.6292C1.65226 8.87422 0.927767 9.39527 0.479252 10.0902C0.0307379 10.7851 -0.109458 11.6038 0.0861463 12.3858C0.281751 13.1678 0.79905 13.8567 1.53664 14.3175C2.27423 14.7782 3.17893 14.9776 4.07339 14.8765C4.96785 14.7755 5.78757 14.3812 6.37187 13.7711L11.1946 16.002V23.998L6.3749 26.2272C5.79707 25.6227 4.9861 25.2317 4.10078 25.1306C3.21545 25.0295 2.31952 25.2256 1.58841 25.6805C0.857301 26.1355 0.343665 26.8165 0.14807 27.5903C-0.0475256 28.364 0.0890064 29.1748 0.530933 29.8638C0.97286 30.5528 1.68836 31.0705 2.53733 31.3154C3.3863 31.5604 4.30761 31.5149 5.12086 31.188C5.93411 30.8612 6.58075 30.2764 6.93415 29.5481C7.28755 28.8199 7.32227 28.0007 7.03151 27.2509L11.8573 25.0188L19.3625 28.49V33.6796C18.4839 33.8263 17.6986 34.2591 17.1604 34.8933C16.6222 35.5274 16.3698 36.3172 16.4527 37.108C16.5357 37.8988 16.9479 38.6337 17.6087 39.1686C18.2695 39.7035 19.1312 40 20.0252 40C20.9191 40 21.7809 39.7035 22.4417 39.1686C23.1025 38.6337 23.5147 37.8988 23.5976 37.108C23.6805 36.3172 23.4281 35.5274 22.8899 34.8933C22.3517 34.2591 21.5664 33.8263 20.6878 33.6796V28.49L28.1931 25.0188L33.0188 27.2509C32.7983 27.8224 32.7652 28.4378 32.9233 29.0254C33.0813 29.613 33.4241 30.1486 33.9117 30.5697C34.3993 30.9909 35.0115 31.2802 35.6771 31.4041C36.3427 31.5279 37.0342 31.4811 37.671 31.2692C38.3078 31.0573 38.8637 30.6889 39.2738 30.207C39.684 29.7252 39.9316 29.1497 39.9878 28.5476C40.0439 27.9455 39.9063 27.3416 39.5909 26.8064C39.2756 26.2711 38.7955 25.8265 38.2066 25.5244H38.2055ZM35.2802 9.9746C35.6678 9.77569 36.113 9.68334 36.5595 9.70925C37.0061 9.73515 37.434 9.87815 37.7892 10.1201C38.1443 10.3621 38.4106 10.6923 38.5545 11.0687C38.6984 11.4452 38.7134 11.8512 38.5976 12.2353C38.4818 12.6193 38.2404 12.9643 37.9039 13.2264C37.5674 13.4886 37.151 13.6562 36.7073 13.7081C36.2636 13.7599 35.8125 13.6937 35.4111 13.5178C35.0098 13.3419 34.6762 13.0642 34.4525 12.7198C34.3023 12.4916 34.2046 12.2393 34.1649 11.9773C34.1252 11.7154 34.1445 11.449 34.2214 11.1937C34.2984 10.9384 34.4317 10.6992 34.6134 10.4899C34.7951 10.2807 35.0218 10.1055 35.2802 9.9746ZM17.7626 3.18962C17.7626 2.79206 17.8953 2.40342 18.1439 2.07285C18.3925 1.74229 18.7459 1.48465 19.1593 1.33251C19.5728 1.18036 20.0277 1.14056 20.4666 1.21812C20.9055 1.29568 21.3086 1.48713 21.625 1.76825C21.9415 2.04937 22.1569 2.40754 22.2442 2.79746C22.3315 3.18739 22.2867 3.59156 22.1155 3.95886C21.9442 4.32617 21.6543 4.6401 21.2822 4.86098C20.9101 5.08186 20.4727 5.19975 20.0252 5.19975C19.4253 5.19921 18.8502 4.98726 18.426 4.6104C18.0018 4.23355 17.7632 3.72258 17.7626 3.18962ZM20.0252 12.5314L26.7579 15.6457L20.0252 18.7596L13.2924 15.645L20.0252 12.5314ZM2.50755 13.4566C2.11992 13.2579 1.8073 12.9616 1.60922 12.6051C1.41114 12.2486 1.3365 11.8479 1.39474 11.4537C1.45298 11.0596 1.64148 10.6896 1.93641 10.3906C2.23134 10.0916 2.61944 9.87696 3.05164 9.77392C3.48385 9.67087 3.94074 9.68401 4.36453 9.81167C4.78833 9.93932 5.16001 10.1758 5.43255 10.4911C5.7051 10.8064 5.86627 11.1865 5.8957 11.5832C5.92513 11.9799 5.82148 12.3754 5.59787 12.7198C5.29733 13.1809 4.80326 13.5174 4.22396 13.6553C3.64466 13.7933 3.02742 13.7216 2.50755 13.4559V13.4566ZM4.7701 30.0254C4.38259 30.2243 3.93738 30.3167 3.49079 30.2908C3.0442 30.2648 2.6163 30.1219 2.26119 29.8799C1.90608 29.6379 1.63973 29.3077 1.49582 28.9313C1.35192 28.5548 1.33692 28.1488 1.45273 27.7647C1.56854 27.3807 1.80995 27.0357 2.14643 26.7736C2.48291 26.5114 2.89935 26.3438 3.34306 26.2919C3.78678 26.2401 4.23784 26.3063 4.6392 26.4822C5.04056 26.6581 5.37418 26.9358 5.59787 27.2802C5.74805 27.5084 5.84579 27.7607 5.88545 28.0227C5.9251 28.2846 5.90588 28.551 5.8289 28.8063C5.75191 29.0616 5.61869 29.3008 5.43695 29.5101C5.25521 29.7193 5.02855 29.8945 4.7701 30.0254ZM12.5199 16.6149L19.3625 19.78V27.1628L12.5199 23.998V16.6149ZM22.2877 36.8104C22.2877 37.2079 22.155 37.5966 21.9064 37.9271C21.6578 38.2577 21.3044 38.5154 20.891 38.6675C20.4776 38.8196 20.0227 38.8594 19.5838 38.7819C19.1449 38.7043 18.7417 38.5129 18.4253 38.2318C18.1089 37.9506 17.8934 37.5925 17.8061 37.2025C17.7188 36.8126 17.7636 36.4084 17.9348 36.0411C18.1061 35.6738 18.3961 35.3599 18.7682 35.139C19.1402 34.9181 19.5777 34.8002 20.0252 34.8002C20.6251 34.8008 21.2002 35.0127 21.6244 35.3896C22.0486 35.7664 22.2871 36.2774 22.2877 36.8104ZM20.6878 27.1628V19.78L27.5304 16.6149V23.998L20.6878 27.1628ZM38.3717 29.29C38.148 29.6343 37.8143 29.9119 37.413 30.0877C37.0116 30.2636 36.5606 30.3297 36.117 30.2778C35.6733 30.226 35.2569 30.0583 34.9205 29.7962C34.584 29.5341 34.3426 29.1892 34.2268 28.8052C34.111 28.4212 34.126 28.0153 34.2698 27.6388C34.4136 27.2623 34.6799 26.9322 35.0349 26.6902C35.3899 26.4482 35.8178 26.3051 36.2643 26.2791C36.7108 26.2531 37.156 26.3453 37.5435 26.5441C37.8024 26.6747 38.0295 26.8498 38.2115 27.0591C38.3935 27.2684 38.5269 27.5077 38.6039 27.7632C38.6809 28.0187 38.6999 28.2853 38.6599 28.5474C38.6199 28.8095 38.5217 29.0619 38.3709 29.29H38.3717Z" fill="url(#paint0_linear_1357_521)"/>
<defs>
<linearGradient id="paint0_linear_1357_521" x1="-2" y1="21.6" x2="40" y2="22.8" gradientUnits="userSpaceOnUse">
<stop stop-color="#006CE4"/>
<stop offset="1" stop-color="#00B98D"/>
</linearGradient>
</defs>
</svg>
