<svg width="50" height="50" viewBox="0 0 50 50" fill="none" xmlns="http://www.w3.org/2000/svg">
<g clip-path="url(#clip0_1111_442)">
<path d="M6.37568 15.0735L10.539 18.4036C10.2634 19.4742 10.0909 20.5688 10.0237 21.6723L5.03789 23.5515C4.88052 23.6108 4.74649 23.7193 4.65572 23.8609C4.56495 24.0024 4.52229 24.1695 4.53408 24.3373C4.62678 25.646 4.83167 26.9443 5.14649 28.218C5.1855 28.3758 5.27279 28.5175 5.39619 28.6234C5.51958 28.7293 5.67293 28.794 5.83486 28.8086C8.31465 29.0305 11.6773 29.4451 11.7249 29.4552C11.8521 29.482 11.984 29.4766 12.1086 29.4396C12.2332 29.4026 12.3466 29.3351 12.4385 29.2432L16.9677 24.714C17.0524 24.6292 17.1165 24.5262 17.155 24.4127C17.1936 24.2992 17.2055 24.1784 17.1898 24.0597C16.9114 21.955 17.2993 19.816 18.2992 17.9432C19.2991 16.0704 20.8606 14.558 22.7643 13.6184C24.668 12.6788 26.8183 12.3593 28.913 12.7048C31.0077 13.0503 32.9415 14.0433 34.4427 15.5445C35.9439 17.0457 36.937 18.9795 37.2825 21.0742C37.628 23.1688 37.3085 25.3191 36.3689 27.2229C35.4294 29.1266 33.9169 30.6882 32.0442 31.688C30.1714 32.6879 28.0324 33.0759 25.9277 32.7975C25.8089 32.7818 25.6881 32.7937 25.5747 32.8323C25.4612 32.8708 25.3582 32.9349 25.2734 33.0196L20.7442 37.5488C20.6523 37.6407 20.5848 37.7542 20.5478 37.8788C20.5107 38.0034 20.5054 38.1353 20.5322 38.2625C20.542 38.31 20.9569 41.6726 21.1788 44.1524C21.1933 44.3144 21.258 44.4679 21.3639 44.5913C21.4698 44.7148 21.6115 44.8022 21.7694 44.8412C23.043 45.1559 24.3413 45.3606 25.6499 45.4531C25.8177 45.4649 25.9848 45.4223 26.1264 45.3316C26.268 45.2408 26.3765 45.1068 26.4358 44.9494L28.3152 39.9636C29.4188 39.8964 30.5133 39.7239 31.584 39.4483L34.9141 43.6116C35.0192 43.7428 35.1638 43.8366 35.3265 43.8791C35.4891 43.9216 35.6611 43.9106 35.817 43.8476C37.0328 43.3553 38.2037 42.7585 39.3164 42.0639C39.459 41.9748 39.569 41.8421 39.6301 41.6855C39.6913 41.5289 39.7003 41.3568 39.6559 41.1947L38.2448 36.0533C38.67 35.7017 39.0808 35.3285 39.4705 34.9389C39.8603 34.5492 40.2336 34.1381 40.585 33.7132L45.7264 35.1242C45.8885 35.1687 46.0606 35.1596 46.2172 35.0985C46.3738 35.0373 46.5064 34.9273 46.5955 34.7848C47.2902 33.6719 47.8871 32.5009 48.3795 31.2849C48.4424 31.129 48.4535 30.9569 48.4109 30.7942C48.3684 30.6315 48.2745 30.4869 48.1433 30.3817L43.98 27.0516C44.2556 25.981 44.4281 24.8865 44.4952 23.783L49.4811 21.9036C49.6384 21.8443 49.7724 21.7357 49.8632 21.5941C49.954 21.4525 49.9966 21.2854 49.9848 21.1177C49.8922 19.809 49.6875 18.5107 49.373 17.2371C49.3325 17.0736 49.2403 16.9275 49.11 16.8207C48.9798 16.7139 48.8186 16.652 48.6503 16.6443L43.3301 16.3977C42.925 15.3682 42.4213 14.3802 41.8262 13.4475L44.753 8.99969C44.8456 8.85902 44.8903 8.69219 44.8803 8.52408C44.8704 8.35597 44.8064 8.19557 44.6978 8.06678C44.2701 7.55897 43.8231 7.07167 43.3697 6.61786C42.9163 6.16405 42.4285 5.71708 41.9208 5.28973C41.792 5.18125 41.6316 5.11728 41.4635 5.10736C41.2954 5.09743 41.1286 5.14208 40.988 5.23465L36.54 8.16141C35.6074 7.56626 34.6194 7.06262 33.5898 6.65751L33.3434 1.33661C33.3357 1.16834 33.2738 1.00706 33.1669 0.876832C33.0601 0.746602 32.914 0.654392 32.7505 0.613952C31.4768 0.299218 30.1784 0.0944621 28.8696 0.00193979C28.7018 -0.00990405 28.5347 0.0327194 28.3931 0.123473C28.2515 0.214226 28.1429 0.348262 28.0836 0.505651L26.2043 5.49149C25.1008 5.55859 24.0063 5.73112 22.9356 6.00672L19.6056 1.84344C19.5005 1.71208 19.3559 1.61813 19.1931 1.57557C19.0304 1.53301 18.8583 1.54411 18.7023 1.60721C17.4864 2.09959 16.3154 2.69648 15.2025 3.3912C15.06 3.48027 14.95 3.61295 14.8888 3.76953C14.8277 3.9261 14.8186 4.09823 14.8631 4.26034L16.2741 9.40174C15.8489 9.75331 15.4381 10.1266 15.0485 10.5162C14.659 10.9057 14.2854 11.317 13.934 11.7419L8.79277 10.331C8.63066 10.2866 8.45854 10.2956 8.30196 10.3568C8.14538 10.4179 8.01271 10.5279 7.92363 10.6705C7.22885 11.7832 6.63189 12.954 6.13945 14.1699C6.07643 14.3259 6.06538 14.4981 6.10793 14.6608C6.15048 14.8236 6.24438 14.9683 6.37568 15.0735ZM14.0158 13.3848C14.1649 13.4257 14.3227 13.4215 14.4694 13.3727C14.6161 13.3238 14.7449 13.2326 14.8397 13.1105C15.6534 12.063 16.5949 11.1214 17.6425 10.3078C17.7646 10.213 17.8558 10.0841 17.9046 9.93749C17.9534 9.79084 17.9576 9.63301 17.9167 9.48397L16.5263 4.4162C17.2459 3.99402 17.9899 3.61477 18.7543 3.28046L22.0362 7.38387C22.1328 7.50468 22.263 7.59412 22.4104 7.64086C22.5578 7.68761 22.7157 7.68956 22.8643 7.64647C24.1375 7.27698 25.4522 7.06962 26.7773 7.02928C26.932 7.02456 27.0818 6.97401 27.2077 6.88404C27.3336 6.79406 27.43 6.66872 27.4846 6.52391L29.3371 1.60926C30.1682 1.69078 30.9937 1.82092 31.8096 1.99901L32.0525 7.24315C32.0597 7.39782 32.1127 7.54686 32.2047 7.67137C32.2967 7.79589 32.4237 7.89024 32.5694 7.94247C33.8176 8.38989 35.0036 8.99453 36.0988 9.74178C36.2267 9.82907 36.3777 9.87636 36.5326 9.87767C36.6874 9.87897 36.8392 9.83422 36.9686 9.74911L41.3533 6.86405C41.978 7.41833 42.569 8.00949 43.123 8.63436L40.238 13.0191C40.1529 13.1485 40.1081 13.3003 40.1094 13.4552C40.1107 13.61 40.158 13.761 40.2453 13.889C40.9926 14.9841 41.5973 16.1701 42.0446 17.4182C42.0969 17.564 42.1912 17.691 42.3157 17.783C42.4402 17.875 42.5893 17.928 42.7439 17.9351L47.9881 18.1781C48.1662 18.9938 48.2963 19.8193 48.3778 20.6502L43.4632 22.5027C43.3184 22.5573 43.193 22.6537 43.1031 22.7796C43.0131 22.9055 42.9625 23.0553 42.9578 23.2099C42.9176 24.5352 42.7104 25.8501 42.3409 27.1234C42.2978 27.2719 42.2997 27.4299 42.3464 27.5773C42.3931 27.7247 42.4825 27.8549 42.6032 27.9515L46.7066 31.2334C46.3723 31.9978 45.9931 32.7418 45.5709 33.4614L40.5037 32.0703C40.3547 32.0294 40.1968 32.0336 40.0501 32.0824C39.9035 32.1312 39.7746 32.2224 39.6798 32.3445C38.8662 33.3921 37.9246 34.3336 36.8771 35.1473C36.755 35.2421 36.6637 35.3709 36.6149 35.5176C36.5661 35.6643 36.5619 35.8221 36.6028 35.9712L37.9936 41.0386C37.2739 41.4607 36.5299 41.84 35.7655 42.1743L32.4836 38.0709C32.387 37.9501 32.2568 37.8608 32.1094 37.8141C31.962 37.7674 31.8041 37.7655 31.6556 37.8086C30.3822 38.178 29.0673 38.3853 27.742 38.4256C27.5873 38.4303 27.4376 38.4809 27.3117 38.5708C27.1858 38.6608 27.0894 38.7861 27.0349 38.9308L25.1823 43.8455C24.3425 43.7631 23.5084 43.631 22.6842 43.45C22.6317 42.8802 22.1774 38.5238 22.1514 38.3515L26.1118 34.391C28.5163 34.6276 30.9352 34.1154 33.0374 32.9243C35.1395 31.7332 36.8222 29.9216 37.8551 27.7374C38.888 25.5532 39.2206 23.1031 38.8074 20.7226C38.3942 18.3421 37.2554 16.1474 35.5469 14.439C33.8384 12.7306 31.6436 11.592 29.263 11.179C26.8825 10.766 24.4324 11.0988 22.2483 12.1319C20.0642 13.165 18.2527 14.8478 17.0618 16.9501C15.8709 19.0523 15.3589 21.4713 15.5957 23.8758L11.6353 27.8363C11.4629 27.8101 7.10654 27.3558 6.53672 27.3034C6.35571 26.4792 6.22361 25.645 6.14111 24.8053L11.0559 22.9527C11.2007 22.8981 11.326 22.8018 11.416 22.6759C11.506 22.55 11.5565 22.4002 11.5612 22.2455C11.6014 20.9202 11.8087 19.6054 12.1781 18.332C12.2213 18.1835 12.2194 18.0256 12.1727 17.8782C12.126 17.7308 12.0367 17.6006 11.9159 17.504L7.8125 14.2221C8.14677 13.4576 8.52598 12.7137 8.94814 11.994L14.0158 13.3848ZM29.9805 15.9369C29.9471 15.8057 29.8803 15.6854 29.7865 15.5879C29.6927 15.4903 29.5752 15.4187 29.4454 15.3803C28.1821 15.0047 26.8434 14.9613 25.5584 15.2541C24.2735 15.5468 23.0857 16.166 22.1099 17.0517C21.134 17.9375 20.403 19.0599 19.9874 20.3105C19.5718 21.5612 19.4858 22.8979 19.7375 24.1915L1.29365 42.6348C-0.35996 44.2885 -0.420605 46.991 1.1585 48.6593C1.18652 48.6886 1.21465 48.7179 1.24326 48.7463C2.04682 49.5492 3.13637 50.0002 4.27234 50C5.40832 49.9998 6.49771 49.5484 7.30098 48.7452L25.796 30.2501C27.0896 30.5019 28.4263 30.4158 29.677 30.0003C30.9277 29.5848 32.0501 28.8537 32.9358 27.8779C33.8216 26.902 34.4407 25.7142 34.7335 24.4293C35.0263 23.1443 34.9828 21.8055 34.6072 20.5423C34.5687 20.4125 34.4972 20.2949 34.3996 20.2011C34.3019 20.1074 34.1816 20.0405 34.0504 20.0072C33.9192 19.9739 33.7816 19.9753 33.6511 20.0112C33.5205 20.0471 33.4016 20.1163 33.3059 20.212L29.3439 24.1738L26.5596 23.4277L25.8135 20.6433L29.7754 16.6815C29.8712 16.5858 29.9404 16.4669 29.9764 16.3363C30.0123 16.2058 30.0137 16.0681 29.9805 15.9369ZM25.167 24.2676C25.2025 24.4 25.2723 24.5208 25.3693 24.6177C25.4662 24.7147 25.587 24.7845 25.7194 24.82L29.375 25.7998C29.5075 25.8353 29.6469 25.8353 29.7794 25.7998C29.9118 25.7643 30.0326 25.6946 30.1296 25.5976L33.3522 22.375C33.4067 23.3187 33.2412 24.2621 32.8687 25.1309C32.4963 25.9996 31.9271 26.77 31.206 27.3812C30.485 27.9925 29.6318 28.4278 28.7138 28.653C27.7957 28.8781 26.8379 28.8869 25.9159 28.6787C25.7272 28.6352 25.5305 28.6405 25.3444 28.6939C25.1583 28.7474 24.9888 28.8474 24.852 28.9844L6.19609 47.6403C5.93877 47.8976 5.63245 48.1007 5.29527 48.2376C4.95808 48.3745 4.59687 48.4424 4.233 48.4372C3.86913 48.432 3.50999 48.354 3.17681 48.2076C2.84364 48.0612 2.5432 47.8495 2.29326 47.585C1.29033 46.5257 1.3376 44.8006 2.39854 43.7396L21.0027 25.1355C21.1397 24.9986 21.2395 24.8292 21.293 24.6431C21.3465 24.457 21.3518 24.2604 21.3084 24.0717C21.1001 23.1496 21.1089 22.1918 21.334 21.2738C21.5592 20.3557 21.9945 19.5025 22.6057 18.7815C23.217 18.0604 23.9873 17.4912 24.8561 17.1187C25.7249 16.7462 26.6683 16.5807 27.612 16.6351L24.3894 19.8578C24.2924 19.9548 24.2226 20.0756 24.1871 20.208C24.1516 20.3405 24.1516 20.48 24.1871 20.6125L25.167 24.2676Z" fill="#FF7F18"/>
</g>
<defs>
<clipPath id="clip0_1111_442">
<rect width="50" height="50" fill="white"/>
</clipPath>
</defs>
</svg>
