<svg width="50" height="50" viewBox="0 0 50 50" fill="none" xmlns="http://www.w3.org/2000/svg">
<g clip-path="url(#clip0_2707_37)">
<path d="M14.8438 26.0781C15.051 26.0781 15.2497 25.9958 15.3962 25.8493C15.5427 25.7028 15.625 25.5041 15.625 25.2969V9.31641L48.4375 9.34375V30.5156C48.4365 31.5389 48.0295 32.5199 47.306 33.2435C46.5824 33.967 45.6014 34.374 44.5781 34.375H24.5586C24.3514 34.375 24.1527 34.4573 24.0062 34.6038C23.8597 34.7503 23.7773 34.9491 23.7773 35.1562C23.7773 35.3634 23.8597 35.5622 24.0062 35.7087C24.1527 35.8552 24.3514 35.9375 24.5586 35.9375H44.5781C46.0158 35.9365 47.3943 35.3649 48.4108 34.3483C49.4274 33.3318 49.999 31.9533 50 30.5156V5.42188C49.999 3.98422 49.4274 2.60575 48.4108 1.58917C47.3943 0.572598 46.0158 0.00103466 44.5781 0L19.4844 0C18.0467 0.00103466 16.6682 0.572598 15.6517 1.58917C14.6351 2.60575 14.0635 3.98422 14.0625 5.42188V25.2969C14.0625 25.5041 14.1448 25.7028 14.2913 25.8493C14.4378 25.9958 14.6365 26.0781 14.8438 26.0781ZM19.4844 1.5625H44.5781C45.6014 1.56353 46.5824 1.97048 47.306 2.69403C48.0295 3.41758 48.4365 4.39862 48.4375 5.42188V7.76562L15.625 7.73828V5.39453C15.6332 4.37603 16.0434 3.40198 16.7661 2.68433C17.4889 1.96668 18.4658 1.5635 19.4844 1.5625Z" fill="#FF7F18"/>
<path d="M45.2461 5.66406C45.6776 5.66406 46.0273 5.31429 46.0273 4.88281C46.0273 4.45134 45.6776 4.10156 45.2461 4.10156C44.8146 4.10156 44.4648 4.45134 44.4648 4.88281C44.4648 5.31429 44.8146 5.66406 45.2461 5.66406Z" fill="#FF7F18"/>
<path d="M42.1484 5.66406C42.5799 5.66406 42.9297 5.31429 42.9297 4.88281C42.9297 4.45134 42.5799 4.10156 42.1484 4.10156C41.717 4.10156 41.3672 4.45134 41.3672 4.88281C41.3672 5.31429 41.717 5.66406 42.1484 5.66406Z" fill="#FF7F18"/>
<path d="M39.0469 5.66406C39.4783 5.66406 39.8281 5.31429 39.8281 4.88281C39.8281 4.45134 39.4783 4.10156 39.0469 4.10156C38.6154 4.10156 38.2656 4.45134 38.2656 4.88281C38.2656 5.31429 38.6154 5.66406 39.0469 5.66406Z" fill="#FF7F18"/>
<path d="M26.7343 23.2655C26.6618 23.1929 26.5756 23.1352 26.4808 23.0959C26.3859 23.0566 26.2843 23.0364 26.1816 23.0364C26.0789 23.0364 25.9773 23.0566 25.8824 23.0959C25.7876 23.1352 25.7014 23.1929 25.6289 23.2655L15.4531 33.4413C15.3805 33.5139 15.3229 33.6 15.2836 33.6949C15.2443 33.7897 15.2241 33.8914 15.2241 33.994C15.2241 34.0967 15.2443 34.1983 15.2836 34.2932C15.3229 34.388 15.3805 34.4742 15.4531 34.5468C15.5257 34.6193 15.6118 34.6769 15.7067 34.7162C15.8015 34.7555 15.9032 34.7757 16.0058 34.7757C16.1085 34.7757 16.2101 34.7555 16.3049 34.7162C16.3998 34.6769 16.486 34.6193 16.5585 34.5468L26.7343 24.371C26.807 24.2984 26.8646 24.2123 26.9039 24.1174C26.9432 24.0226 26.9635 23.9209 26.9635 23.8182C26.9635 23.7156 26.9432 23.6139 26.9039 23.5191C26.8646 23.4242 26.807 23.3381 26.7343 23.2655Z" fill="#FF7F18"/>
<path d="M24.2189 30.4335C24.3908 30.4492 24.5613 30.457 24.7306 30.457C25.4132 30.4582 26.0893 30.3246 26.72 30.0638C27.3508 29.803 27.9239 29.4203 28.4064 28.9374L31.922 25.4218C32.7908 24.4309 33.2516 23.1474 33.2114 21.8301C33.1712 20.5129 32.633 19.2598 31.7053 18.3238C30.7777 17.3877 29.5296 16.8382 28.2127 16.7861C26.8959 16.7339 25.6083 17.1831 24.6095 18.0429L21.0939 21.5585C20.5661 22.0873 20.1583 22.7234 19.8981 23.4237C19.638 24.124 19.5315 24.8721 19.5861 25.6171C19.6011 25.8243 19.6978 26.0171 19.855 26.153C20.0121 26.2889 20.2168 26.3568 20.424 26.3417C20.6312 26.3267 20.8239 26.23 20.9598 26.0729C21.0957 25.9157 21.1636 25.711 21.1486 25.5038C21.1099 24.9828 21.1838 24.4596 21.3651 23.9696C21.5464 23.4797 21.8309 23.0344 22.1994 22.664L25.715 19.1484C26.4084 18.5183 27.3178 18.1795 28.2544 18.2022C29.1911 18.225 30.083 18.6076 30.7449 19.2706C31.4069 19.9336 31.7882 20.826 31.8095 21.7627C31.8308 22.6994 31.4906 23.6083 30.8595 24.3007L27.3439 27.8163C26.963 28.1972 26.5022 28.4887 25.9948 28.6697C25.4875 28.8508 24.9463 28.9169 24.4103 28.8632C24.3077 28.8535 24.2042 28.864 24.1057 28.8943C24.0072 28.9245 23.9156 28.9739 23.8361 29.0396C23.7567 29.1052 23.691 29.1859 23.6427 29.2769C23.5944 29.368 23.5646 29.4677 23.5548 29.5702C23.5451 29.6728 23.5556 29.7764 23.5859 29.8749C23.6162 29.9734 23.6655 30.065 23.7312 30.1444C23.7968 30.2239 23.8775 30.2896 23.9685 30.3378C24.0596 30.3861 24.1593 30.416 24.2619 30.4257L24.2189 30.4335ZM10.2306 39.7695C11.2081 40.7439 12.532 41.2911 13.9123 41.2911C15.2925 41.2911 16.6164 40.7439 17.5939 39.7695L21.1095 36.2538C21.6337 35.7371 22.0425 35.1153 22.3091 34.4292C22.5757 33.7432 22.6941 33.0084 22.6564 32.2734C22.6455 32.0662 22.5528 31.8718 22.3986 31.733C22.2444 31.5941 22.0413 31.5223 21.8341 31.5331C21.6269 31.544 21.4325 31.6368 21.2937 31.791C21.1549 31.9452 21.083 32.1482 21.0939 32.3554C21.1214 32.866 21.0414 33.3768 20.8591 33.8545C20.6767 34.3323 20.3961 34.7664 20.0353 35.1288L16.5197 38.6445C15.839 39.3329 14.9128 39.7227 13.9447 39.7282C12.9766 39.7337 12.046 39.3544 11.3576 38.6738C10.6691 37.9931 10.2793 37.0669 10.2738 36.0988C10.2683 35.1307 10.6476 34.2001 11.3283 33.5117L14.8439 29.996C15.1994 29.635 15.626 29.3517 16.0967 29.1641C16.5674 28.9765 17.0719 28.8887 17.5783 28.9062C17.6809 28.9098 17.7832 28.8931 17.8793 28.8572C17.9755 28.8212 18.0636 28.7667 18.1387 28.6967C18.2138 28.6267 18.2743 28.5426 18.3169 28.4492C18.3595 28.3558 18.3833 28.2549 18.3869 28.1523C18.3904 28.0497 18.3738 27.9474 18.3379 27.8512C18.3019 27.7551 18.2474 27.6669 18.1774 27.5918C18.1074 27.5168 18.0233 27.4562 17.9298 27.4136C17.8364 27.371 17.7355 27.3473 17.633 27.3437C16.9183 27.3178 16.206 27.439 15.5401 27.6997C14.8742 27.9604 14.269 28.3551 13.7619 28.8593L10.2462 32.3749C9.75802 32.8585 9.37019 33.4338 9.10504 34.0677C8.83988 34.7017 8.70264 35.3818 8.70118 36.069C8.69973 36.7561 8.8341 37.4368 9.09657 38.0719C9.35905 38.7069 9.74444 39.2838 10.2306 39.7695Z" fill="#FF7F18"/>
<path d="M5.42188 50H30.5156C31.9533 49.999 33.3318 49.4274 34.3483 48.4108C35.3649 47.3943 35.9365 46.0158 35.9375 44.5781V38.0039C35.9375 37.7967 35.8552 37.598 35.7087 37.4515C35.5622 37.305 35.3634 37.2227 35.1562 37.2227C34.9491 37.2227 34.7503 37.305 34.6038 37.4515C34.4573 37.598 34.375 37.7967 34.375 38.0039V44.5781C34.374 45.6014 33.967 46.5824 33.2435 47.306C32.5199 48.0295 31.5389 48.4365 30.5156 48.4375H5.42188C4.39862 48.4365 3.41758 48.0295 2.69403 47.306C1.97048 46.5824 1.56353 45.6014 1.5625 44.5781V23.4375H11.7188C11.926 23.4375 12.1247 23.3552 12.2712 23.2087C12.4177 23.0622 12.5 22.8635 12.5 22.6562C12.5 22.449 12.4177 22.2503 12.2712 22.1038C12.1247 21.9573 11.926 21.875 11.7188 21.875H1.5625V19.4844C1.56353 18.4611 1.97048 17.4801 2.69403 16.7565C3.41758 16.033 4.39862 15.626 5.42188 15.625H11.7188C11.926 15.625 12.1247 15.5427 12.2712 15.3962C12.4177 15.2497 12.5 15.051 12.5 14.8438C12.5 14.6365 12.4177 14.4378 12.2712 14.2913C12.1247 14.1448 11.926 14.0625 11.7188 14.0625H5.42188C3.98422 14.0635 2.60575 14.6351 1.58917 15.6517C0.572598 16.6682 0.00103466 18.0467 0 19.4844L0 44.5781C0.00103466 46.0158 0.572598 47.3943 1.58917 48.4108C2.60575 49.4274 3.98422 49.999 5.42188 50Z" fill="#FF7F18"/>
</g>
<defs>
<clipPath id="clip0_2707_37">
<rect width="50" height="50" fill="white"/>
</clipPath>
</defs>
</svg>
