<svg width="50" height="50" viewBox="0 0 50 50" fill="none" xmlns="http://www.w3.org/2000/svg">
<g clip-path="url(#clip0_1117_489)">
<path d="M41.2732 41.8995H25.2626V41.5433C25.2626 41.1387 24.9347 40.8108 24.5301 40.8108C24.1254 40.8108 23.7976 41.1387 23.7976 41.5433V41.8995H15.3536C14.949 41.8995 14.6211 42.2274 14.6211 42.6319C14.6211 43.0365 14.949 43.3644 15.3536 43.3644H23.7976V43.7207C23.7976 44.1252 24.1254 44.4532 24.5301 44.4532C24.9347 44.4532 25.2626 44.1252 25.2626 43.7207V43.3644H41.2733C41.678 43.3644 42.0058 43.0365 42.0058 42.6319C42.0058 42.2274 41.6779 41.8995 41.2732 41.8995Z" fill="#FF7F18"/>
<path d="M7.99771 38.6489C5.80143 38.6489 4.01465 40.4357 4.01465 42.632C4.01465 44.8283 5.80143 46.6151 7.99771 46.6151C10.194 46.6151 11.9808 44.8283 11.9808 42.632C11.9808 40.4357 10.194 38.6489 7.99771 38.6489ZM7.99771 45.1501C6.60921 45.1501 5.47962 44.0205 5.47962 42.632C5.47962 41.2435 6.60921 40.1139 7.99771 40.1139C9.38621 40.1139 10.5158 41.2435 10.5158 42.632C10.5158 44.0205 9.38612 45.1501 7.99771 45.1501Z" fill="#FF7F18"/>
<path d="M18.8425 29.7349C18.9852 30.1128 19.4089 30.3041 19.7864 30.1616C20.1649 30.0188 20.3559 29.5961 20.213 29.2176L17.2311 21.316C17.2287 21.3092 17.2259 21.3025 17.2232 21.2959C17.0817 20.9518 16.7499 20.7295 16.377 20.7295C16.0046 20.7298 15.6729 20.9528 15.5319 21.2974C15.5296 21.303 15.5274 21.3085 15.5253 21.3141L12.516 29.2154C12.3719 29.5935 12.5618 30.0166 12.9398 30.1606C13.3173 30.3047 13.741 30.1149 13.885 29.7368L14.4548 28.2408H18.2788C18.2787 28.2409 18.8422 29.7341 18.8425 29.7349ZM15.0127 26.7759L16.3755 23.1978L17.7258 26.7759H15.0127Z" fill="#FF7F18"/>
<path d="M31.2676 30.1337C32.3854 30.1337 33.3248 29.4167 33.5013 28.4289C33.6346 27.6817 33.3004 26.7075 31.9622 26.2138C31.6346 26.093 31.3101 25.9638 30.9878 25.8293C30.8272 25.7623 30.4832 25.6656 30.5172 25.4295C30.5275 25.3582 30.5808 25.1841 30.8529 25.102C31.5155 24.9025 32.1398 25.3903 32.1613 25.4075C32.4708 25.6637 32.9298 25.6227 33.1889 25.3144C33.4492 25.0047 33.4092 24.5427 33.0996 24.2824C33.05 24.2407 31.8686 23.2662 30.4303 23.6994C29.6921 23.9216 29.1698 24.505 29.067 25.2216C28.9702 25.8958 29.2625 26.5446 29.8297 26.9149C30.299 27.2212 30.933 27.3958 31.455 27.5884C31.6109 27.6458 32.1149 27.8577 32.059 28.1714C32.0162 28.4106 31.7015 28.6687 31.2675 28.6687C30.7895 28.6687 30.3307 28.4772 30.0399 28.1563C29.7682 27.8565 29.305 27.8339 29.0053 28.1054C28.7055 28.3771 28.6827 28.8403 28.9544 29.1401C29.5268 29.7715 30.3698 30.1337 31.2676 30.1337Z" fill="#FF7F18"/>
<path d="M24.1115 30.1337C24.7947 30.1337 25.43 29.9244 25.9565 29.5666C26.0315 29.8915 26.3226 30.1337 26.6702 30.1337C27.0749 30.1337 27.4027 29.8057 27.4027 29.4012V21.7703C27.4027 21.3658 27.0749 21.0378 26.6702 21.0378C26.2656 21.0378 25.9378 21.3658 25.9378 21.7703V24.1057C25.4149 23.7557 24.7866 23.5512 24.1115 23.5512C22.2967 23.5512 20.8203 25.0276 20.8203 26.8425C20.8203 28.6573 22.2967 30.1337 24.1115 30.1337ZM24.1115 25.0161C25.1185 25.0161 25.9378 25.8354 25.9378 26.8424C25.9378 27.8493 25.1184 28.6686 24.1115 28.6686C23.1046 28.6686 22.2853 27.8493 22.2853 26.8424C22.2853 25.8354 23.1045 25.0161 24.1115 25.0161Z" fill="#FF7F18"/>
<path d="M40.9338 0.0507812C40.0503 0.0507812 39.1771 0.177746 38.338 0.428061C37.9504 0.543793 37.7299 0.951739 37.8456 1.33947C37.9612 1.7271 38.3693 1.94743 38.7569 1.83189C39.4598 1.62211 40.1923 1.51575 40.9338 1.51575C45.1252 1.51575 48.535 4.92562 48.535 9.11701C48.535 13.3084 45.1252 16.7183 40.9338 16.7183C36.7425 16.7183 33.3326 13.3084 33.3326 9.11701C33.3326 6.83937 34.3415 4.7009 36.1007 3.24989C36.4128 2.99245 36.4571 2.53078 36.1998 2.21875C35.9422 1.90661 35.4806 1.86246 35.1685 2.11981C34.0122 3.0737 33.1276 4.27674 32.5666 5.61943H2.19658C0.985438 5.61943 0 6.60477 0 7.81592V47.7524C0 48.9637 0.985438 49.949 2.19658 49.949H43.8001C45.0113 49.949 45.9967 48.9637 45.9967 47.7524V16.6343C48.4101 15.0036 49.9999 12.2424 49.9999 9.11691C50 4.11784 45.9329 0.0507812 40.9338 0.0507812ZM1.46497 7.81592C1.46497 7.41256 1.79313 7.08431 2.19658 7.08431H32.0968C31.9458 7.74384 31.8676 8.42495 31.8676 9.11691C31.8676 9.67379 31.9181 10.2191 32.0147 10.7484H1.46497V7.81592ZM44.5318 47.7524C44.5318 48.1559 44.2037 48.484 43.8002 48.484H2.19658C1.79313 48.484 1.46497 48.1559 1.46497 47.7524V12.2134H32.4122C32.6536 12.8756 32.9702 13.5022 33.3515 14.0825H5.41717C4.63058 14.0825 3.99068 14.7224 3.99068 15.509V35.4291C3.99068 36.2157 4.63068 36.8556 5.41717 36.8556H12.2889C12.6935 36.8556 13.0214 36.5276 13.0214 36.1231C13.0214 35.7186 12.6935 35.3906 12.2889 35.3906H5.45556V15.5475H34.5489C36.102 17.0897 38.2089 18.0748 40.5412 18.1747V35.3907H15.6665C15.2619 35.3907 14.934 35.7187 14.934 36.1232C14.934 36.5277 15.2619 36.8557 15.6665 36.8557H40.5796C41.3662 36.8557 42.0061 36.2158 42.0061 35.4292V18.12C42.8932 18.0151 43.7415 17.7814 44.5317 17.4384V47.7524H44.5318Z" fill="#FF7F18"/>
<path d="M41.1147 12.1935C40.2964 12.1935 39.507 11.8613 39.0029 11.3049C38.7312 11.0052 38.268 10.9823 37.9682 11.254C37.6684 11.5257 37.6456 11.9889 37.9173 12.2887C38.4988 12.9305 39.3142 13.3786 40.201 13.5637V14.3867C40.201 14.7913 40.5289 15.1192 40.9335 15.1192C41.3381 15.1192 41.666 14.7913 41.666 14.3867V13.6128C42.8989 13.407 43.9036 12.5258 44.1039 11.4038C44.4145 9.66405 42.8012 8.71602 41.3834 8.27741C40.6749 8.05815 40.0058 7.8511 39.7578 7.35623C39.4882 6.81771 39.8436 6.29325 40.3879 6.12927C41.5783 5.77055 42.6593 6.63205 42.6867 6.65431C42.9963 6.91215 43.4564 6.87142 43.716 6.56271C43.9762 6.25301 43.9363 5.79096 43.6266 5.53068C43.5796 5.49122 42.794 4.84312 41.6661 4.63763V3.84772C41.6661 3.44319 41.3382 3.11523 40.9336 3.11523C40.529 3.11523 40.2011 3.44319 40.2011 3.84772V4.6643C40.1232 4.68207 40.0446 4.70278 39.9654 4.72651C39.2503 4.94196 38.6765 5.44522 38.3911 6.10759C38.1235 6.72854 38.1438 7.40516 38.4482 8.01264C38.9758 9.06595 40.0707 9.40465 40.9505 9.67694C41.5938 9.87598 42.8237 10.2408 42.662 11.1463C42.5699 11.6609 41.966 12.1935 41.1147 12.1935Z" fill="#FF7F18"/>
<path d="M8.40342 42.0242C8.325 41.9706 8.23612 41.932 8.1407 41.9134C7.69242 41.8256 7.26465 42.1794 7.26465 42.6322C7.26465 43.0176 7.61253 43.3646 7.99713 43.3646C8.3918 43.3646 8.72962 43.031 8.72962 42.6322C8.72972 42.3865 8.59953 42.1584 8.40342 42.0242Z" fill="#FF7F18"/>
</g>
<defs>
<clipPath id="clip0_1117_489">
<rect width="50" height="50" fill="white"/>
</clipPath>
</defs>
</svg>
