<svg width="61" height="60" viewBox="0 0 61 60" fill="none" xmlns="http://www.w3.org/2000/svg">
<path d="M45.5605 25.7113C45.3179 25.7113 45.1211 25.908 45.1211 26.1508V39.2988C45.1211 40.155 44.4245 40.8516 43.5684 40.8516H18.4316C17.5755 40.8516 16.8789 40.155 16.8789 39.2988V37.3572C16.8789 37.1144 16.6821 36.9177 16.4395 36.9177C16.1968 36.9177 16 37.1144 16 37.3572V39.2988C16 40.6396 17.0908 41.7305 18.4316 41.7305H43.5684C44.9092 41.7305 46 40.6396 46 39.2988V26.1508C46 25.9081 45.8032 25.7113 45.5605 25.7113Z" fill="url(#paint0_linear_869_962)"/>
<path d="M43.5684 18H31C30.7573 18 30.5605 18.1967 30.5605 18.4395C30.5605 18.6822 30.7573 18.8789 31 18.8789H43.5684C44.4245 18.8789 45.1211 19.5755 45.1211 20.4316V22.6875H39.9053V20.8694C39.9053 20.1434 39.3146 19.5527 38.5853 19.5527C37.8593 19.5527 37.2686 20.1434 37.2686 20.8694V22.6875H16.8789V20.4316C16.8789 19.5755 17.5755 18.8789 18.4316 18.8789H29.1064C29.3491 18.8789 29.5458 18.6822 29.5458 18.4395C29.5458 18.1967 29.3491 18 29.1064 18H18.4316C17.0908 18 16 19.0908 16 20.4316V35.4604C16 35.7031 16.1968 35.8998 16.4395 35.8998C16.6821 35.8998 16.8789 35.7031 16.8789 35.4604V23.5664H37.2686C37.2812 32.9 37.2249 33.0131 37.2943 33.2068L37.8944 35.0092C37.8988 35.0224 37.9037 35.0352 37.9093 35.0478C38.1688 35.636 39.0046 35.637 39.2646 35.0478C39.2702 35.0352 39.2751 35.0223 39.2795 35.0092L39.8796 33.2068C39.9428 33.0305 39.8921 33.2953 39.9053 23.5664H45.1211V24.2599C45.1211 24.5027 45.3179 24.6994 45.5605 24.6994C45.8032 24.6994 46 24.5027 46 24.2599V20.4316C46 19.0908 44.9092 18 43.5684 18ZM38.1475 28.4587H39.0264V32.6191H38.1475V28.4587ZM38.1475 27.5798V22.043H39.0264V23.1134C39.0263 23.1179 39.0262 23.1224 39.0262 23.127C39.0262 23.1315 39.0263 23.136 39.0264 23.1405V27.5798H38.1475ZM38.1475 20.8694C38.1475 20.628 38.3439 20.4316 38.5887 20.4316C38.83 20.4316 39.0264 20.628 39.0264 20.8694V21.1641H38.1475V20.8694ZM38.587 34.3071L38.3175 33.498H38.8563L38.587 34.3071Z" fill="url(#paint1_linear_869_962)"/>
<path d="M18.373 20.7639C18.373 21.5232 18.9907 22.1409 19.75 22.1409C20.5093 22.1409 21.127 21.5232 21.127 20.7639C21.127 20.0047 20.5093 19.387 19.75 19.387C18.9907 19.387 18.373 20.0047 18.373 20.7639ZM20.248 20.7639C20.248 21.0385 20.0246 21.262 19.75 21.262C19.4754 21.262 19.252 21.0385 19.252 20.7639C19.252 20.4893 19.4754 20.2659 19.75 20.2659C20.0246 20.2659 20.248 20.4893 20.248 20.7639Z" fill="url(#paint2_linear_869_962)"/>
<path d="M21.7129 20.7639C21.7129 21.5232 22.3306 22.1409 23.0898 22.1409C23.8491 22.1409 24.4668 21.5232 24.4668 20.7639C24.4668 20.0047 23.8491 19.387 23.0898 19.387C22.3306 19.387 21.7129 20.0047 21.7129 20.7639ZM23.5879 20.7639C23.5879 21.0385 23.3645 21.262 23.0898 21.262C22.8152 21.262 22.5918 21.0385 22.5918 20.7639C22.5918 20.4893 22.8152 20.2659 23.0898 20.2659C23.3645 20.2659 23.5879 20.4893 23.5879 20.7639Z" fill="url(#paint3_linear_869_962)"/>
<path d="M25.0527 20.7639C25.0527 21.5232 25.6704 22.1409 26.4297 22.1409C27.1889 22.1409 27.8066 21.5232 27.8066 20.7639C27.8066 20.0047 27.1889 19.387 26.4297 19.387C25.6704 19.387 25.0527 20.0047 25.0527 20.7639ZM26.9277 20.7639C26.9277 21.0385 26.7043 21.262 26.4297 21.262C26.1551 21.262 25.9316 21.0385 25.9316 20.7639C25.9316 20.4893 26.1551 20.2659 26.4297 20.2659C26.7043 20.2659 26.9277 20.4893 26.9277 20.7639Z" fill="url(#paint4_linear_869_962)"/>
<path d="M24.6133 30.5065C24.9848 30.5065 25.2871 30.2042 25.2871 29.8326V26.7858C25.2871 26.4142 24.9848 26.1119 24.6133 26.1119H21.5664C21.1949 26.1119 20.8926 26.4142 20.8926 26.7858V29.8326C20.8926 30.2042 21.1949 30.5065 21.5664 30.5065H24.6133ZM21.7715 26.9908H24.4082V29.6276H21.7715V26.9908Z" fill="url(#paint5_linear_869_962)"/>
<path d="M27.3672 26.4961H34.0145C34.2572 26.4961 34.454 26.2994 34.454 26.0566C34.454 25.8139 34.2572 25.6172 34.0145 25.6172H27.3672C27.1245 25.6172 26.9277 25.8139 26.9277 26.0566C26.9277 26.2994 27.1245 26.4961 27.3672 26.4961Z" fill="url(#paint6_linear_869_962)"/>
<path d="M27.3672 28.7487H34.0145C34.2572 28.7487 34.454 28.552 34.454 28.3092C34.454 28.0665 34.2572 27.8698 34.0145 27.8698H27.3672C27.1245 27.8698 26.9277 28.0665 26.9277 28.3092C26.9277 28.552 27.1245 28.7487 27.3672 28.7487Z" fill="url(#paint7_linear_869_962)"/>
<path d="M27.3672 30.9784H34.0145C34.2572 30.9784 34.454 30.7817 34.454 30.5389C34.454 30.2962 34.2572 30.0995 34.0145 30.0995H27.3672C27.1245 30.0995 26.9277 30.2962 26.9277 30.5389C26.9277 30.7817 27.1245 30.9784 27.3672 30.9784Z" fill="url(#paint8_linear_869_962)"/>
<path d="M20.248 32.7686C20.248 33.0113 20.4448 33.208 20.6875 33.208H34.0145C34.2572 33.208 34.454 33.0113 34.454 32.7686C34.454 32.5258 34.2572 32.3291 34.0145 32.3291H20.6875C20.4448 32.3291 20.248 32.5258 20.248 32.7686Z" fill="url(#paint9_linear_869_962)"/>
<path d="M20.6875 35.4376H34.0145C34.2572 35.4376 34.454 35.2409 34.454 34.9982C34.454 34.7554 34.2572 34.5587 34.0145 34.5587H20.6875C20.4448 34.5587 20.248 34.7554 20.248 34.9982C20.248 35.2409 20.4448 35.4376 20.6875 35.4376Z" fill="url(#paint10_linear_869_962)"/>
<path d="M20.6875 37.6672H41.3702C41.6129 37.6672 41.8096 37.4705 41.8096 37.2278C41.8096 36.985 41.6129 36.7883 41.3702 36.7883H20.6875C20.4448 36.7883 20.248 36.985 20.248 37.2278C20.248 37.4705 20.4448 37.6672 20.6875 37.6672Z" fill="url(#paint11_linear_869_962)"/>
<path d="M1.57273 23.5471C2.69878 23.8453 3.86236 23.1837 4.17203 22.0655C4.416 21.1803 4.04065 20.2764 3.30872 19.7826C7.54078 8.69389 18.4259 1.11819 30.5028 1.11819C42.5702 1.11819 53.4553 8.69389 57.6968 19.7826C56.9649 20.2764 56.5895 21.171 56.8335 22.0655C57.1338 23.1837 58.2973 23.8546 59.4328 23.5471C60.5588 23.2489 61.2345 22.0935 60.9248 20.966C60.662 19.9876 59.7424 19.3539 58.7572 19.4098C54.3656 7.88321 43.0488 0 30.5028 0C17.9473 0 6.63056 7.88321 2.23898 19.4192C1.26307 19.3632 0.343466 19.9969 0.0713385 20.9753C-0.228941 22.0935 0.446687 23.2489 1.57273 23.5471Z" fill="url(#paint12_linear_869_962)"/>
<path d="M1.62169 36.6672C2.74774 36.3597 3.92071 37.012 4.23037 38.1302C4.47435 39.0154 4.10838 39.9286 3.38584 40.4224C7.69297 51.5391 18.3247 58.8818 30.4954 58.8818C42.6661 58.8818 53.3073 51.5391 57.6144 40.4224C56.8918 39.9286 56.5165 39.0247 56.7698 38.1302C57.0795 37.012 58.2525 36.3504 59.3785 36.6672C60.5046 36.9747 61.1708 38.1395 60.8518 39.2577C60.5796 40.2361 59.66 40.8604 58.6747 40.7952C54.2081 52.3591 43.1541 60 30.4954 60C17.8462 60 6.78275 52.3591 2.31609 40.7952C1.34018 40.8604 0.411194 40.2361 0.139065 39.2577C-0.161217 38.1302 0.495647 36.9747 1.62169 36.6672Z" fill="url(#paint13_linear_869_962)"/>
<defs>
<linearGradient id="paint0_linear_869_962" x1="15" y1="33.7209" x2="49.9286" y2="31.8519" gradientUnits="userSpaceOnUse">
<stop stop-color="#FFA811"/>
<stop offset="1" stop-color="#F33B00"/>
</linearGradient>
<linearGradient id="paint1_linear_869_962" x1="15" y1="26.9499" x2="49.9484" y2="25.2763" gradientUnits="userSpaceOnUse">
<stop stop-color="#FFA811"/>
<stop offset="1" stop-color="#F33B00"/>
</linearGradient>
<linearGradient id="paint2_linear_869_962" x1="18.2812" y1="20.7639" x2="21.4941" y2="20.6721" gradientUnits="userSpaceOnUse">
<stop stop-color="#FFA811"/>
<stop offset="1" stop-color="#F33B00"/>
</linearGradient>
<linearGradient id="paint3_linear_869_962" x1="21.6211" y1="20.7639" x2="24.834" y2="20.6721" gradientUnits="userSpaceOnUse">
<stop stop-color="#FFA811"/>
<stop offset="1" stop-color="#F33B00"/>
</linearGradient>
<linearGradient id="paint4_linear_869_962" x1="24.9609" y1="20.7639" x2="28.1738" y2="20.6721" gradientUnits="userSpaceOnUse">
<stop stop-color="#FFA811"/>
<stop offset="1" stop-color="#F33B00"/>
</linearGradient>
<linearGradient id="paint5_linear_869_962" x1="20.7461" y1="28.3092" x2="25.873" y2="28.1627" gradientUnits="userSpaceOnUse">
<stop stop-color="#FFA811"/>
<stop offset="1" stop-color="#F33B00"/>
</linearGradient>
<linearGradient id="paint6_linear_869_962" x1="26.6769" y1="26.0566" x2="34.9683" y2="24.028" gradientUnits="userSpaceOnUse">
<stop stop-color="#FFA811"/>
<stop offset="1" stop-color="#F33B00"/>
</linearGradient>
<linearGradient id="paint7_linear_869_962" x1="26.6769" y1="28.3092" x2="34.9683" y2="26.2806" gradientUnits="userSpaceOnUse">
<stop stop-color="#FFA811"/>
<stop offset="1" stop-color="#F33B00"/>
</linearGradient>
<linearGradient id="paint8_linear_869_962" x1="26.6769" y1="30.5389" x2="34.9683" y2="28.5103" gradientUnits="userSpaceOnUse">
<stop stop-color="#FFA811"/>
<stop offset="1" stop-color="#F33B00"/>
</linearGradient>
<linearGradient id="paint9_linear_869_962" x1="19.7745" y1="32.7686" x2="33.446" y2="26.455" gradientUnits="userSpaceOnUse">
<stop stop-color="#FFA811"/>
<stop offset="1" stop-color="#F33B00"/>
</linearGradient>
<linearGradient id="paint10_linear_869_962" x1="19.7745" y1="34.9982" x2="33.446" y2="28.6846" gradientUnits="userSpaceOnUse">
<stop stop-color="#FFA811"/>
<stop offset="1" stop-color="#F33B00"/>
</linearGradient>
<linearGradient id="paint11_linear_869_962" x1="19.5293" y1="37.2278" x2="36.4111" y2="25.3949" gradientUnits="userSpaceOnUse">
<stop stop-color="#FFA811"/>
<stop offset="1" stop-color="#F33B00"/>
</linearGradient>
<linearGradient id="paint12_linear_869_962" x1="6.05628" y1="11.4477" x2="72.3345" y2="11.4477" gradientUnits="userSpaceOnUse">
<stop stop-color="#FFA811"/>
<stop offset="1" stop-color="#F33B00"/>
</linearGradient>
<linearGradient id="paint13_linear_869_962" x1="54.8887" y1="47.934" x2="-11.243" y2="47.934" gradientUnits="userSpaceOnUse">
<stop stop-color="#FFA811"/>
<stop offset="1" stop-color="#F33B00"/>
</linearGradient>
</defs>
</svg>
