<svg width="45" height="45" viewBox="0 0 45 45" fill="none" xmlns="http://www.w3.org/2000/svg">
<g clip-path="url(#clip0_1368_14406)">
<path d="M45.0003 37.5792V32.0974L42.9005 31.5608C42.886 31.5254 42.8714 31.49 42.8562 31.4549L43.9616 29.5918L40.0852 25.7154L38.2221 26.8208C38.1863 26.8055 38.1509 26.791 38.1161 26.7765L37.5796 24.6774H32.0978L31.5612 26.7772C31.5258 26.7917 31.4903 26.8062 31.4552 26.8215L29.5922 25.7161L25.7158 29.5925L26.8211 31.4556C26.8059 31.4914 26.7914 31.5268 26.7768 31.5615L24.6777 32.0981V37.5799L26.7775 38.1165C26.7921 38.1519 26.8066 38.1874 26.8218 38.2224L25.7165 40.0855L29.5929 43.9619L31.4559 42.8566C31.4917 42.8718 31.5272 42.8863 31.5619 42.9009L32.0985 44.9999H37.5803L38.1168 42.9001C38.1523 42.8856 38.1877 42.8711 38.2228 42.8558L40.0859 43.9612L43.9623 40.0848L42.8569 38.2217C42.8722 38.1859 42.8867 38.1505 42.9012 38.1158L45.0003 37.5792ZM42.1386 39.8562L39.8566 42.1382L38.3054 41.2178L37.9563 41.3847C37.7313 41.4914 37.5013 41.5878 37.2645 41.6714L36.8988 41.8012L36.4533 43.5483H33.2255L32.78 41.8012L32.4142 41.6714C32.1775 41.5885 31.9468 41.4921 31.7225 41.3847L31.3734 41.2178L29.8222 42.1382L27.5402 39.8562L28.4606 38.305L28.2937 37.9559C28.187 37.7309 28.0906 37.5009 28.0069 37.2642L27.8772 36.8984L26.1293 36.4529V33.2251L27.8765 32.7796L28.0062 32.4139C28.0892 32.1771 28.1856 31.9464 28.2929 31.7221L28.4599 31.373L27.5395 29.8218L29.8215 27.5398L31.3727 28.4602L31.7217 28.2933C31.9468 28.1866 32.1768 28.0902 32.4135 28.0066L32.7793 27.8769L33.2247 26.129H36.4526L36.8981 27.8762L37.2638 28.0059C37.5006 28.0888 37.7313 28.1852 37.9556 28.2926L38.3047 28.4595L39.8559 27.5391L42.1378 29.8211L41.2175 31.3723L41.3844 31.7214C41.4911 31.9464 41.5875 32.1764 41.6711 32.4132L41.8008 32.7789L43.5487 33.2244V36.4522L41.8015 36.8977L41.6718 37.2634C41.5889 37.5002 41.4925 37.7309 41.3851 37.9552L41.2182 38.3043L42.1386 39.8562Z" fill="url(#paint0_linear_1368_14406)"/>
<path d="M34.8387 29.0322C31.637 29.0322 29.0322 31.637 29.0322 34.8387C29.0322 38.0403 31.637 40.6451 34.8387 40.6451C38.0403 40.6451 40.6451 38.0403 40.6451 34.8387C40.6451 31.637 38.0403 29.0322 34.8387 29.0322ZM34.8387 39.1935C32.4369 39.1935 30.4838 37.2404 30.4838 34.8387C30.4838 32.4369 32.4369 30.4838 34.8387 30.4838C37.2404 30.4838 39.1935 32.4369 39.1935 34.8387C39.1935 37.2404 37.2404 39.1935 34.8387 39.1935Z" fill="url(#paint1_linear_1368_14406)"/>
<path d="M34.8388 31.9354C33.2376 31.9354 31.9355 33.2375 31.9355 34.8387C31.9355 36.4398 33.2376 37.7419 34.8388 37.7419C36.4399 37.7419 37.742 36.4398 37.742 34.8387C37.742 33.2375 36.4399 31.9354 34.8388 31.9354ZM34.8388 36.2903C34.0382 36.2903 33.3872 35.6392 33.3872 34.8387C33.3872 34.0381 34.0382 33.387 34.8388 33.387C35.6394 33.387 36.2904 34.0381 36.2904 34.8387C36.2904 35.6392 35.6394 36.2903 34.8388 36.2903Z" fill="url(#paint2_linear_1368_14406)"/>
<path d="M18.3809 12.2894C18.624 13.0021 19.0472 13.6305 19.5965 14.1242V14.7398L16.1454 16.0337C14.7366 16.5614 13.79 17.9269 13.79 19.4313V23.2258H31.2094V19.4313C31.2094 17.9269 30.2628 16.5614 28.8548 16.0329L25.4029 14.739V14.1242C25.9523 13.6312 26.3754 13.0029 26.6185 12.2894C27.9861 12.0548 29.032 10.8683 29.032 9.43548V6.53226C29.032 2.93087 26.1018 0 22.4997 0C18.8976 0 15.9675 2.93087 15.9675 6.53226V9.43548C15.9675 10.8683 17.0133 12.0548 18.3809 12.2894ZM23.9513 15.041L22.4997 17.4601L21.0481 15.041V14.9878C21.5031 15.1498 21.9901 15.2419 22.4997 15.2419C23.0093 15.2419 23.4963 15.1491 23.9513 14.9878V15.041ZM20.0108 16.134L21.4741 18.5719L20.0203 19.2984L19.0812 16.4823L20.0108 16.134ZM29.7578 19.4313V21.7742H15.2417V19.4313C15.2417 18.5283 15.8094 17.7096 16.6546 17.3924L17.7217 16.9927L19.1726 21.3461L22.4997 19.6825L25.8268 21.3461L27.2777 16.9927L28.3455 17.3931C29.19 17.7096 29.7578 18.5283 29.7578 19.4313ZM25.9182 16.4823L24.9791 19.2991L23.5253 18.5726L24.9887 16.134L25.9182 16.4823ZM22.4997 13.7903C20.8985 13.7903 19.5965 12.4883 19.5965 10.8871V7.93461C20.659 7.82262 21.6616 7.43526 22.4997 6.77608C23.3379 7.43597 24.3405 7.82262 25.4029 7.93461V10.8871C25.4029 12.4883 24.1009 13.7903 22.4997 13.7903ZM26.8546 10.6854V8.18623C27.2866 8.43821 27.5804 8.90141 27.5804 9.43619C27.5804 9.97098 27.2866 10.4335 26.8546 10.6854ZM22.4997 1.45161C25.3005 1.45161 27.5804 3.73074 27.5804 6.53226V6.93592C27.1515 6.68607 26.66 6.53226 26.1287 6.53226H26.004C24.8738 6.53226 23.8113 6.09245 23.0129 5.29328L22.4997 4.77941L21.9865 5.29328C21.1874 6.09245 20.1256 6.53226 18.9954 6.53226H18.8707C18.3394 6.53226 17.8479 6.68607 17.4191 6.93592V6.53226C17.4191 3.73074 19.6989 1.45161 22.4997 1.45161ZM18.1449 8.18552V10.6847C17.7129 10.4328 17.4191 9.96956 17.4191 9.43477C17.4191 8.89999 17.7129 8.4375 18.1449 8.18552Z" fill="url(#paint3_linear_1368_14406)"/>
<path d="M0 45H14.5161V26.129H0V45ZM1.45161 27.5806H13.0645V43.5484H1.45161V27.5806Z" fill="url(#paint4_linear_1368_14406)"/>
<path d="M2.90332 29.0322H11.613V30.4838H2.90332V29.0322Z" fill="url(#paint5_linear_1368_14406)"/>
<path d="M2.90332 31.9354H4.35493V33.387H2.90332V31.9354Z" fill="url(#paint6_linear_1368_14406)"/>
<path d="M5.80664 31.9354H11.6131V33.387H5.80664V31.9354Z" fill="url(#paint7_linear_1368_14406)"/>
<path d="M2.90332 34.8387H11.613V36.2904H2.90332V34.8387Z" fill="url(#paint8_linear_1368_14406)"/>
<path d="M2.90332 37.7419H11.613V39.1936H2.90332V37.7419Z" fill="url(#paint9_linear_1368_14406)"/>
<path d="M10.1611 40.6451H11.6127V42.0968H10.1611V40.6451Z" fill="url(#paint10_linear_1368_14406)"/>
<path d="M2.90332 40.6451H8.70977V42.0968H2.90332V40.6451Z" fill="url(#paint11_linear_1368_14406)"/>
<path d="M19.3841 32.4487L18.3578 31.4224L14.9414 34.8388L18.3578 38.2552L19.3841 37.2288L17.7199 35.5646H23.2258V34.113H17.7199L19.3841 32.4487Z" fill="url(#paint12_linear_1368_14406)"/>
<path d="M7.98384 11.6129C7.98384 11.2131 8.30918 10.8871 8.70965 10.8871H12.0381L10.3739 12.5513L11.4002 13.5777L14.8166 10.1613L11.4002 6.74487L10.3739 7.77121L12.0381 9.43546H8.70965C7.5093 9.43546 6.53223 10.4125 6.53223 11.6129V24.6774H7.98384V11.6129Z" fill="url(#paint13_linear_1368_14406)"/>
<path d="M34.8382 11.6128V20.7478L33.174 19.0835L32.1476 20.1099L35.564 23.5263L38.9804 20.1099L37.9541 19.0835L36.2898 20.7478V11.6128C36.2898 10.4125 35.3128 9.43542 34.1124 9.43542H30.4834V10.887H34.1124C34.5129 10.887 34.8382 11.2131 34.8382 11.6128Z" fill="url(#paint14_linear_1368_14406)"/>
</g>
<defs>
<linearGradient id="paint0_linear_1368_14406" x1="24.2713" y1="34.8387" x2="45.0003" y2="34.8387" gradientUnits="userSpaceOnUse">
<stop stop-color="#F86CA7"/>
<stop offset="1" stop-color="#FF7F18"/>
</linearGradient>
<linearGradient id="paint1_linear_1368_14406" x1="28.8" y1="34.8387" x2="40.6451" y2="34.8387" gradientUnits="userSpaceOnUse">
<stop stop-color="#F86CA7"/>
<stop offset="1" stop-color="#FF7F18"/>
</linearGradient>
<linearGradient id="paint2_linear_1368_14406" x1="31.8194" y1="34.8387" x2="37.742" y2="34.8387" gradientUnits="userSpaceOnUse">
<stop stop-color="#F86CA7"/>
<stop offset="1" stop-color="#FF7F18"/>
</linearGradient>
<linearGradient id="paint3_linear_1368_14406" x1="13.4417" y1="11.6129" x2="31.2094" y2="11.6129" gradientUnits="userSpaceOnUse">
<stop stop-color="#F86CA7"/>
<stop offset="1" stop-color="#FF7F18"/>
</linearGradient>
<linearGradient id="paint4_linear_1368_14406" x1="-0.290323" y1="35.5645" x2="14.5161" y2="35.5645" gradientUnits="userSpaceOnUse">
<stop stop-color="#F86CA7"/>
<stop offset="1" stop-color="#FF7F18"/>
</linearGradient>
<linearGradient id="paint5_linear_1368_14406" x1="2.72913" y1="29.758" x2="11.613" y2="29.758" gradientUnits="userSpaceOnUse">
<stop stop-color="#F86CA7"/>
<stop offset="1" stop-color="#FF7F18"/>
</linearGradient>
<linearGradient id="paint6_linear_1368_14406" x1="2.87429" y1="32.6612" x2="4.35493" y2="32.6612" gradientUnits="userSpaceOnUse">
<stop stop-color="#F86CA7"/>
<stop offset="1" stop-color="#FF7F18"/>
</linearGradient>
<linearGradient id="paint7_linear_1368_14406" x1="5.69051" y1="32.6612" x2="11.6131" y2="32.6612" gradientUnits="userSpaceOnUse">
<stop stop-color="#F86CA7"/>
<stop offset="1" stop-color="#FF7F18"/>
</linearGradient>
<linearGradient id="paint8_linear_1368_14406" x1="2.72913" y1="35.5646" x2="11.613" y2="35.5646" gradientUnits="userSpaceOnUse">
<stop stop-color="#F86CA7"/>
<stop offset="1" stop-color="#FF7F18"/>
</linearGradient>
<linearGradient id="paint9_linear_1368_14406" x1="2.72913" y1="38.4678" x2="11.613" y2="38.4677" gradientUnits="userSpaceOnUse">
<stop stop-color="#F86CA7"/>
<stop offset="1" stop-color="#FF7F18"/>
</linearGradient>
<linearGradient id="paint10_linear_1368_14406" x1="10.1321" y1="41.3709" x2="11.6127" y2="41.3709" gradientUnits="userSpaceOnUse">
<stop stop-color="#F86CA7"/>
<stop offset="1" stop-color="#FF7F18"/>
</linearGradient>
<linearGradient id="paint11_linear_1368_14406" x1="2.78719" y1="41.3709" x2="8.70977" y2="41.3709" gradientUnits="userSpaceOnUse">
<stop stop-color="#F86CA7"/>
<stop offset="1" stop-color="#FF7F18"/>
</linearGradient>
<linearGradient id="paint12_linear_1368_14406" x1="14.7757" y1="34.8388" x2="23.2258" y2="34.8388" gradientUnits="userSpaceOnUse">
<stop stop-color="#F86CA7"/>
<stop offset="1" stop-color="#FF7F18"/>
</linearGradient>
<linearGradient id="paint13_linear_1368_14406" x1="6.36654" y1="15.7111" x2="14.8166" y2="15.7111" gradientUnits="userSpaceOnUse">
<stop stop-color="#F86CA7"/>
<stop offset="1" stop-color="#FF7F18"/>
</linearGradient>
<linearGradient id="paint14_linear_1368_14406" x1="30.3135" y1="16.4809" x2="38.9804" y2="16.4809" gradientUnits="userSpaceOnUse">
<stop stop-color="#F86CA7"/>
<stop offset="1" stop-color="#FF7F18"/>
</linearGradient>
<clipPath id="clip0_1368_14406">
<rect width="45" height="45" fill="white"/>
</clipPath>
</defs>
</svg>
