<svg width="40" height="40" viewBox="0 0 40 40" fill="none" xmlns="http://www.w3.org/2000/svg">
<path d="M31.2269 8.52078C30.2898 6.08219 28.6714 3.99258 26.5337 2.46547C24.2759 0.852578 21.6118 0 18.8292 0C14.9607 0 11.2924 1.68445 8.76491 4.62141C8.55381 4.86664 8.58147 5.23664 8.82678 5.44773C9.07209 5.65883 9.44194 5.63109 9.65311 5.38586C11.9579 2.70781 15.3023 1.17188 18.8292 1.17188C23.908 1.17188 28.484 4.3832 30.2158 9.16266C30.3297 9.47758 30.6323 9.68898 30.9697 9.68898H30.9707C35.3034 9.68906 38.8283 13.2193 38.8283 17.5585C38.8283 19.5803 38.064 21.5016 36.676 22.9683C36.4535 23.2033 36.4637 23.5741 36.6988 23.7966C36.9335 24.0187 37.3044 24.0091 37.5272 23.7737C39.1219 22.0884 40.0002 19.8812 40.0002 17.5585C40.0002 12.6595 36.0891 8.65805 31.2269 8.52078Z" fill="url(#paint0_linear_1357_534)"/>
<path d="M20.5469 35.785V34.5312C20.5469 34.2077 20.2846 33.9453 19.9609 33.9453C19.6373 33.9453 19.375 34.2077 19.375 34.5312V35.785C18.4744 36.0408 17.8125 36.8701 17.8125 37.8516C17.8125 39.0363 18.7763 40 19.9609 40C21.1455 40 22.1094 39.0363 22.1094 37.8516C22.1094 36.8701 21.4475 36.0408 20.5469 35.785ZM19.9609 38.8281C19.4224 38.8281 18.9844 38.3901 18.9844 37.8516C18.9844 37.313 19.4224 36.875 19.9609 36.875C20.4995 36.875 20.9375 37.313 20.9375 37.8516C20.9375 38.3901 20.4995 38.8281 19.9609 38.8281Z" fill="url(#paint1_linear_1357_534)"/>
<path d="M15.0391 30.1953C14.7154 30.1953 14.4531 30.4577 14.4531 30.7812V33.9453C14.4531 34.2253 14.2253 34.4531 13.9453 34.4531H12.8869C12.6311 33.5525 11.8018 32.8906 10.8203 32.8906C9.6357 32.8906 8.67188 33.8544 8.67188 35.0391C8.67188 36.2238 9.6357 37.1875 10.8203 37.1875C11.8018 37.1875 12.6311 36.5256 12.8869 35.625H13.9453C14.8715 35.625 15.625 34.8715 15.625 33.9453V30.7812C15.625 30.4577 15.3627 30.1953 15.0391 30.1953ZM10.8203 36.0156C10.2818 36.0156 9.84375 35.5776 9.84375 35.0391C9.84375 34.5005 10.2818 34.0625 10.8203 34.0625C11.3588 34.0625 11.7969 34.5005 11.7969 35.0391C11.7969 35.5776 11.3588 36.0156 10.8203 36.0156Z" fill="url(#paint2_linear_1357_534)"/>
<path d="M33.9453 28.5157C32.9638 28.5157 32.1345 29.1775 31.8787 30.0782H30.8203C30.5403 30.0782 30.3125 29.8503 30.3125 29.5704V26.5615C31.2616 26.5607 31.8128 26.5589 31.8462 26.5557C33.0173 26.4428 34.1381 26.1073 35.1773 25.5586C35.4635 25.4075 35.573 25.0531 35.422 24.7669C35.2709 24.4807 34.9164 24.3711 34.6303 24.5223C33.7321 24.9964 32.7639 25.2875 31.7521 25.3875C31.6216 25.3898 30.8864 25.3907 29.7273 25.3907C29.727 25.3907 29.7268 25.3907 29.7266 25.3907C29.7263 25.3907 29.7261 25.3907 29.7259 25.3907C25.0758 25.3904 13.6027 25.3736 6.92586 25.3626C5.80937 25.3606 4.75383 25.059 3.87336 24.4907C2.1818 23.399 1.17188 21.5458 1.17188 19.5336C1.17188 16.6493 3.22961 14.2059 6.06484 13.7238C6.43664 13.6604 6.71406 13.339 6.72445 12.9596C6.77727 11.04 7.26453 9.21465 8.17281 7.53441C8.32672 7.24973 8.22062 6.89426 7.93602 6.74035C7.65117 6.58629 7.29578 6.69254 7.14195 6.97715C6.19305 8.73262 5.66297 10.6317 5.56461 12.6268C2.32211 13.3231 0 16.1798 0 19.5336C0 21.9457 1.21039 24.1668 3.23781 25.4754C4.30742 26.1657 5.58203 26.532 6.92383 26.5345C7.80797 26.536 8.70562 26.5374 9.60938 26.5389V29.5704C9.60938 29.8503 9.38156 30.0782 9.10156 30.0782H8.04313C7.78734 29.1775 6.95805 28.5157 5.97656 28.5157C4.79195 28.5157 3.82812 29.4794 3.82812 30.6641C3.82812 31.8488 4.79195 32.8125 5.97656 32.8125C6.95805 32.8125 7.78734 32.1507 8.04313 31.25H9.10156C10.0277 31.25 10.7812 30.4965 10.7812 29.5704V26.5407C12.0062 26.5427 13.2362 26.5446 14.4531 26.5464V28.0469C14.4531 28.3705 14.7154 28.6329 15.0391 28.6329C15.3627 28.6329 15.625 28.3705 15.625 28.0469V26.5481C16.9038 26.55 18.1611 26.5517 19.375 26.5532V31.7969C19.375 32.1205 19.6373 32.3829 19.9609 32.3829C20.2846 32.3829 20.5469 32.1205 20.5469 31.7969V26.5547C21.8703 26.5564 23.1305 26.5578 24.2969 26.5589V33.9454C24.2969 34.8715 25.0504 35.625 25.9766 35.625H27.035C27.2908 36.5257 28.1201 37.1875 29.1016 37.1875C30.2862 37.1875 31.25 36.2238 31.25 35.0391C31.25 33.8544 30.2862 32.8907 29.1016 32.8907C28.1201 32.8907 27.2908 33.5525 27.035 34.4532H25.9766C25.6966 34.4532 25.4688 34.2253 25.4688 33.9454V26.56C26.8891 26.5612 28.1352 26.5619 29.1398 26.5619H29.1406V29.5704C29.1406 30.4965 29.8941 31.25 30.8203 31.25H31.8787C32.1345 32.1507 32.9638 32.8125 33.9453 32.8125C35.1299 32.8125 36.0938 31.8488 36.0938 30.6641C36.0938 29.4794 35.1299 28.5157 33.9453 28.5157ZM5.97656 31.6407C5.43805 31.6407 5 31.2026 5 30.6641C5 30.1256 5.43805 29.6875 5.97656 29.6875C6.51508 29.6875 6.95312 30.1256 6.95312 30.6641C6.95312 31.2026 6.51508 31.6407 5.97656 31.6407ZM29.1016 34.0625C29.6401 34.0625 30.0781 34.5006 30.0781 35.0391C30.0781 35.5776 29.6401 36.0157 29.1016 36.0157C28.563 36.0157 28.125 35.5776 28.125 35.0391C28.125 34.5006 28.563 34.0625 29.1016 34.0625ZM33.9453 31.6407C33.4068 31.6407 32.9688 31.2026 32.9688 30.6641C32.9688 30.1256 33.4068 29.6875 33.9453 29.6875C34.4838 29.6875 34.9219 30.1256 34.9219 30.6641C34.9219 31.2026 34.4838 31.6407 33.9453 31.6407Z" fill="url(#paint3_linear_1357_534)"/>
<defs>
<linearGradient id="paint0_linear_1357_534" x1="7.05419" y1="12.9368" x2="39.981" y2="14.1689" gradientUnits="userSpaceOnUse">
<stop stop-color="#006CE4"/>
<stop offset="1" stop-color="#00B98D"/>
</linearGradient>
<linearGradient id="paint1_linear_1357_534" x1="17.5977" y1="37.2148" x2="22.1112" y2="37.3064" gradientUnits="userSpaceOnUse">
<stop stop-color="#006CE4"/>
<stop offset="1" stop-color="#00B98D"/>
</linearGradient>
<linearGradient id="paint2_linear_1357_534" x1="8.32422" y1="33.9711" x2="15.6251" y2="34.1785" gradientUnits="userSpaceOnUse">
<stop stop-color="#006CE4"/>
<stop offset="1" stop-color="#00B98D"/>
</linearGradient>
<linearGradient id="paint3_linear_1357_534" x1="-1.80469" y1="23.1493" x2="36.0814" y2="24.4296" gradientUnits="userSpaceOnUse">
<stop stop-color="#006CE4"/>
<stop offset="1" stop-color="#00B98D"/>
</linearGradient>
</defs>
</svg>
