<svg width="45" height="45" viewBox="0 0 45 45" fill="none" xmlns="http://www.w3.org/2000/svg">
<g clip-path="url(#clip0_1294_44190)">
<path d="M22.5192 17.8723C19.9676 17.8723 17.8916 19.9483 17.8916 22.5C17.8916 23.0459 17.9859 23.5807 18.1721 24.0896C18.2974 24.4322 18.6765 24.6083 19.0192 24.4831C19.3617 24.3578 19.538 23.9785 19.4127 23.6358C19.2799 23.2728 19.2126 22.8906 19.2126 22.4999C19.2126 20.6766 20.6959 19.1932 22.5192 19.1932C24.3425 19.1932 25.8258 20.6766 25.8258 22.4999C25.8258 24.3232 24.3425 25.8066 22.5192 25.8066C21.9171 25.8066 21.328 25.6434 20.8155 25.3346C20.5034 25.1466 20.0972 25.247 19.909 25.5594C19.7207 25.8719 19.8213 26.2778 20.1338 26.4661C20.8521 26.8989 21.6769 27.1277 22.5193 27.1277C25.0709 27.1277 27.1469 25.0517 27.1469 22.5C27.1467 19.9483 25.0709 17.8723 22.5192 17.8723Z" fill="url(#paint0_linear_1294_44190)"/>
<path d="M32.0188 20.6407L30.794 20.4566C30.5891 19.6219 30.2611 18.8305 29.815 18.0943L30.5513 17.0976C30.9246 16.5919 30.8731 15.9024 30.4287 15.458L29.5615 14.5907C29.1171 14.1463 28.4276 14.0949 27.922 14.4682L26.9253 15.2043C26.1892 14.7581 25.3978 14.4301 24.5631 14.2252L24.3791 13.0005C24.2855 12.3789 23.7615 11.9279 23.133 11.9279H21.9066C21.2781 11.9279 20.7541 12.379 20.6606 13.0005L20.4764 14.2252C19.6418 14.4301 18.8506 14.758 18.1142 15.2043L17.1175 14.4681C16.6121 14.0947 15.9226 14.1463 15.4781 14.5907L14.6111 15.4579C14.1664 15.9024 14.1148 16.5919 14.4885 17.0977L15.2245 18.0943C14.7783 18.8304 14.4503 19.6219 14.2456 20.4566L13.021 20.6407C12.3994 20.7341 11.9482 21.2581 11.9482 21.8867V23.1132C11.9482 23.7418 12.3994 24.2659 13.0209 24.3592L14.2456 24.5433C14.4504 25.378 14.7784 26.1694 15.2245 26.9057L14.4885 27.9022C14.1148 28.408 14.1664 29.0976 14.6109 29.5419L15.4781 30.4092C15.9227 30.8536 16.6122 30.9051 17.1176 30.5317L18.1142 29.7955C18.8506 30.2418 19.6417 30.5697 20.4764 30.7746L20.6606 31.9994C20.7541 32.6209 21.2781 33.072 21.9066 33.072H23.1329C23.7614 33.072 24.2855 32.6208 24.379 31.9993L24.563 30.7746C25.3977 30.5697 26.1891 30.2417 26.9252 29.7955L27.922 30.5318C28.4275 30.9051 29.1171 30.8535 29.5614 30.4092L30.4287 29.5419C30.873 29.0976 30.9245 28.408 30.5511 27.9022L29.8149 26.9057C30.2611 26.1695 30.5891 25.378 30.7939 24.5433L32.0185 24.3592C32.6402 24.2659 33.0913 23.7418 33.0913 23.1132V21.8867C33.0914 21.2581 32.6403 20.7341 32.0188 20.6407ZM31.7704 23.0606L30.1469 23.3047C29.8688 23.3464 29.6477 23.5597 29.596 23.8361C29.4119 24.8168 29.0324 25.7328 28.4677 26.5586C28.3091 26.7906 28.3146 27.0977 28.4818 27.3238L29.4576 28.6448L28.6645 29.4378L27.3435 28.4619C27.1174 28.2949 26.8104 28.2895 26.5783 28.448C25.7525 29.0127 24.8365 29.3922 23.8558 29.5762C23.5795 29.6281 23.3662 29.8492 23.3245 30.1273L23.0805 31.7508H21.9591L21.715 30.1272C21.6733 29.8491 21.4599 29.628 21.1836 29.5762C20.203 29.3923 19.2871 29.0127 18.4612 28.448C18.2291 28.2892 17.9221 28.2947 17.6959 28.462L16.375 29.4378L15.582 28.6448L16.5578 27.3238C16.7248 27.0977 16.7305 26.7906 16.5717 26.5586C16.007 25.7327 15.6275 24.8168 15.4436 23.8362C15.3918 23.5597 15.1707 23.3464 14.8927 23.3047L13.2692 23.0606V21.9393L14.8927 21.6952C15.1708 21.6534 15.3918 21.4402 15.4436 21.1638C15.6275 20.1832 16.007 19.2672 16.5717 18.4413C16.7305 18.2093 16.7249 17.9022 16.5578 17.6761L15.582 16.3551L16.375 15.5621L17.6959 16.5379C17.9221 16.7051 18.2291 16.7104 18.4612 16.552C19.2871 15.9873 20.203 15.6077 21.1836 15.4236C21.4599 15.3719 21.6733 15.1507 21.715 14.8726L21.9591 13.249H23.0805L23.3245 14.8725C23.3663 15.1506 23.5795 15.3717 23.8558 15.4236C24.8365 15.6077 25.7525 15.9872 26.5783 16.552C26.8103 16.7106 27.1173 16.7052 27.3435 16.538L28.6645 15.5621L29.4576 16.3551L28.4818 17.6761C28.3147 17.9022 28.3091 18.2093 28.4677 18.4413C29.0324 19.2671 29.4119 20.1831 29.596 21.1638C29.6477 21.4402 29.8689 21.6535 30.1469 21.6952L31.7704 21.9393V23.0606Z" fill="url(#paint1_linear_1294_44190)"/>
<path d="M44.9473 22.2618C44.8437 22.0181 44.6044 21.8598 44.3395 21.8598H43.2051C43.0538 16.9204 41.153 12.2187 37.8143 8.55818C34.4075 4.823 29.7902 2.47571 24.791 1.92946L22.9777 0.183166C22.5842 -0.222449 21.8401 0.0940452 21.8591 0.658918V1.81424C17.8031 1.94098 13.9257 3.23447 10.6074 5.5742C10.3092 5.78435 10.238 6.19655 10.4482 6.49468C10.6584 6.7928 11.0705 6.86417 11.3687 6.65385C14.6429 4.34523 18.4988 3.12487 22.5197 3.12487C22.8845 3.12487 23.1802 2.8292 23.1802 2.46437V2.21195L26.6362 5.54036L23.18 8.33291V7.68226C23.18 7.31742 22.8844 7.02176 22.5195 7.02176C18.8042 7.02176 15.212 8.35805 12.4045 10.7843C9.99045 12.8705 8.28625 15.6434 7.51281 18.7024L6.09734 16.9504C5.86161 16.6447 5.36899 16.6235 5.10778 16.9074L3.55659 18.5183C4.37661 14.5985 6.40109 11.0118 9.38155 8.26031C9.64961 8.0129 9.66631 7.59498 9.4189 7.327C9.17157 7.05903 8.75357 7.04233 8.48559 7.28965C4.81765 10.6757 2.5049 15.2467 1.95426 20.1822L0.183088 22.0214C-0.222351 22.4153 0.0939673 23.1589 0.65884 23.1401H1.83394C1.98511 28.0716 3.88056 32.7675 7.20994 36.4257C10.6069 40.1583 15.2135 42.5097 20.2027 43.066L22.0207 44.8167C22.4164 45.2226 23.1575 44.9054 23.1392 44.341V43.187C27.2709 43.0661 31.2118 41.7373 34.5722 39.3257C34.8686 39.113 34.9365 38.7003 34.7238 38.4039C34.5109 38.1075 34.0983 38.04 33.802 38.2524C30.4997 40.6223 26.5983 41.875 22.5116 41.8748L22.4787 41.8744C22.1138 41.8744 21.8182 42.1701 21.8182 42.5349V42.7879L18.3621 39.4595L21.8182 36.667V37.3171C21.8182 37.6803 22.1114 37.9753 22.4744 37.9776L22.5194 37.9782C26.2268 37.9782 29.8134 36.6468 32.6182 34.2294C35.0298 32.1509 36.7364 29.3865 37.5162 26.3356L38.9008 28.0494C39.1367 28.3549 39.6286 28.3767 39.8904 28.0924L41.4929 26.4283C40.691 30.313 38.7048 33.8788 35.7777 36.6273C35.5118 36.8771 35.4987 37.295 35.7483 37.5609C35.9984 37.8272 36.4164 37.8397 36.682 37.5904C40.2863 34.2059 42.5551 29.6608 43.0896 24.7702L44.8152 22.9783C44.999 22.7878 45.051 22.5056 44.9473 22.2618ZM16.9498 38.9023C16.6441 39.1381 16.6227 39.6306 16.9068 39.8919L18.5392 41.464C14.5723 40.6351 10.9519 38.5746 8.18685 35.5365C4.9356 31.9641 3.14518 27.3343 3.14518 22.5023L3.14544 22.4796C3.14544 22.1148 2.84978 21.8191 2.48494 21.8191H2.21187L5.54011 18.3629L8.33248 21.8191H7.70248C7.33765 21.8191 7.04199 22.1125 7.04199 22.4773L7.04181 22.5C7.04181 26.2084 8.37353 29.7955 10.7918 32.6007C12.871 35.0126 15.6361 36.719 18.6878 37.4982L16.9498 38.9023ZM31.756 33.2288C29.3474 35.3047 26.3085 36.5049 23.1392 36.6436V35.2842C23.1568 34.7457 22.4714 34.4185 22.0636 34.7704L20.0052 36.4336C16.8247 35.863 13.9174 34.2033 11.7923 31.738C9.71984 29.3339 8.51987 26.3014 8.37713 23.14H9.71535C10.2539 23.1577 10.5811 22.4721 10.2292 22.0643L8.57946 20.0225C9.14283 16.8331 10.8002 13.9166 13.2682 11.7837C15.6691 9.70884 18.6976 8.50553 21.859 8.35805V9.71561C21.8414 10.254 22.527 10.5814 22.9346 10.2294L25.0008 8.56002C28.189 9.1241 31.1045 10.7819 33.2366 13.2497C35.3157 15.6561 36.5192 18.6928 36.662 21.8598H35.283C34.7445 21.8421 34.4173 22.5278 34.7692 22.9355L36.452 25.0183C35.8807 28.1981 34.2208 31.1045 31.756 33.2288ZM39.4582 26.6371L36.6659 23.1809H37.3367C37.7015 23.1809 37.9972 22.8875 37.9972 22.5227L37.9974 22.5C37.9974 18.7854 36.6617 15.1935 34.2363 12.3862C32.1508 9.97234 29.3789 8.2677 26.3208 7.49364L28.0485 6.09759C28.3542 5.86187 28.3757 5.36933 28.0915 5.10803L26.4486 3.52582C30.4287 4.34611 34.0626 6.40503 36.8383 9.44842C40.0984 13.0229 41.894 17.658 41.894 22.4976L41.8937 22.5203C41.8937 22.8851 42.1894 23.1808 42.5542 23.1808H42.7865L39.4582 26.6371Z" fill="url(#paint2_linear_1294_44190)"/>
</g>
<defs>
<linearGradient id="paint0_linear_1294_44190" x1="17.7065" y1="22.5" x2="27.1469" y2="22.5" gradientUnits="userSpaceOnUse">
<stop stop-color="#F86CA7"/>
<stop offset="1" stop-color="#FF7F18"/>
</linearGradient>
<linearGradient id="paint1_linear_1294_44190" x1="11.5254" y1="22.4999" x2="33.0913" y2="22.4999" gradientUnits="userSpaceOnUse">
<stop stop-color="#F86CA7"/>
<stop offset="1" stop-color="#FF7F18"/>
</linearGradient>
<linearGradient id="paint2_linear_1294_44190" x1="-0.9" y1="22.5" x2="45" y2="22.5" gradientUnits="userSpaceOnUse">
<stop stop-color="#F86CA7"/>
<stop offset="1" stop-color="#FF7F18"/>
</linearGradient>
<clipPath id="clip0_1294_44190">
<rect width="45" height="45" fill="white"/>
</clipPath>
</defs>
</svg>
