<svg width="61" height="60" viewBox="0 0 61 60" fill="none" xmlns="http://www.w3.org/2000/svg">
<path d="M42.1885 33.6244C42.5668 32.457 42.7589 31.2394 42.7589 29.9988C42.7589 28.7627 42.5681 27.5495 42.1922 26.3858C43.0189 26.0753 43.7706 25.5783 44.3947 24.9173C45.4732 23.7755 46.0424 22.2819 45.9975 20.712C45.9046 17.4708 43.1925 14.91 39.9508 15.0025C38.3807 15.0474 36.9223 15.701 35.8437 16.843C35.2991 17.4197 34.8847 18.0862 34.6134 18.8069C33.4494 18.4312 32.2362 18.2405 30.9997 18.2405C29.7625 18.2405 28.5483 18.4317 27.3837 18.8078C26.5437 16.585 24.3939 15 21.8805 15C18.6379 15 16 17.6379 16 20.8803C16 23.3934 17.5852 25.543 19.8081 26.3828C19.4317 27.5477 19.2407 28.7618 19.2407 29.9988C19.2407 31.2394 19.4328 32.457 19.811 33.6244C17.5866 34.4635 16 36.614 16 39.1283C16 40.0134 16.1919 40.8644 16.5703 41.6574C16.6749 41.8765 16.9373 41.9695 17.1564 41.8649C17.3753 41.7602 17.4682 41.4979 17.3638 41.2788C17.0422 40.6047 16.8792 39.8813 16.8792 39.1283C16.8792 36.3708 19.1228 34.1274 21.8805 34.1274C24.6384 34.1274 26.8821 36.3708 26.8821 39.1283C26.8821 41.8859 24.6384 44.1294 21.8805 44.1294C20.6227 44.1294 19.4205 43.6607 18.4955 42.8097C18.3167 42.6453 18.0385 42.657 17.8744 42.8356C17.71 43.0144 17.7215 43.2923 17.9003 43.4567C18.988 44.4574 20.4015 45.0085 21.8805 45.0085C24.3975 45.0085 26.5501 43.4187 27.3874 41.1908C28.5506 41.5663 29.7636 41.757 30.9997 41.757C32.236 41.757 33.4492 41.5663 34.6125 41.1911C35.4497 43.4189 37.6023 45.0085 40.1193 45.0085C43.3619 45.0085 45.9998 42.3706 45.9998 39.1283C45.9998 36.614 44.4132 34.4632 42.1885 33.6244ZM36.483 17.4465C37.4001 16.4753 38.6408 15.9195 39.9762 15.8812C40.0248 15.8798 40.0728 15.8792 40.1214 15.8792C42.8133 15.8792 45.0412 18.0292 45.1186 20.737C45.1568 22.0722 44.6728 23.3424 43.7557 24.3138C42.8385 25.285 41.5979 25.8409 40.2624 25.8791C40.2139 25.8805 40.1656 25.8812 40.1173 25.8812C37.4253 25.8812 35.1974 23.7311 35.12 21.0234C35.0816 19.6881 35.5658 18.4177 36.483 17.4465ZM34.3659 40.3467C33.2827 40.6988 32.1524 40.8779 30.9997 40.8779C29.8474 40.8779 28.7171 40.6988 27.6339 40.3467C27.717 39.9534 27.7612 39.5459 27.7612 39.1283C27.7612 35.8859 25.1231 33.2482 21.8805 33.2482C21.4604 33.2482 21.0506 33.2929 20.6552 33.3769C20.3001 32.2898 20.1199 31.1554 20.1199 29.9988C20.1199 28.8458 20.2992 27.715 20.652 26.6307C21.0483 26.7154 21.4592 26.7603 21.8805 26.7603C22.8879 26.7603 23.8817 26.5011 24.7552 26.011C24.9667 25.8921 25.042 25.6243 24.9232 25.4125C24.8044 25.2007 24.5365 25.1256 24.3247 25.2445C23.5825 25.6609 22.7372 25.8812 21.8805 25.8812C19.1226 25.8812 16.8792 23.6377 16.8792 20.88C16.8792 18.1226 19.1228 15.8792 21.8805 15.8792C24.6384 15.8792 26.8821 18.1226 26.8821 20.8803C26.8821 22.0339 26.4798 23.1594 25.7495 24.0498C25.5954 24.2373 25.6229 24.5143 25.8106 24.6684C25.9981 24.8223 26.2751 24.795 26.4292 24.6073C27.288 23.5603 27.7612 22.2366 27.7612 20.88C27.7612 20.459 27.7161 20.048 27.6316 19.6517C28.7157 19.2989 29.8467 19.1197 30.9997 19.1197C32.1524 19.1197 33.283 19.2987 34.3666 19.6511C34.2706 20.1048 34.2276 20.573 34.2411 21.0485C34.3325 24.2325 36.9516 26.7605 40.117 26.7603C40.1736 26.7603 40.2306 26.7596 40.2876 26.7578C40.648 26.7475 41.0024 26.7047 41.3479 26.6316C41.7004 27.7155 41.8797 28.8462 41.8797 29.9988C41.8797 31.1554 41.6993 32.2898 41.3444 33.3769C40.949 33.2926 40.5392 33.2482 40.1193 33.2482C36.8767 33.2482 34.2388 35.8859 34.2388 39.1283C34.2388 39.5461 34.2828 39.9536 34.3659 40.3467ZM40.1193 44.1294C37.3614 44.1294 35.118 41.8859 35.118 39.1285C35.118 36.3708 37.3614 34.1274 40.1193 34.1274C42.8772 34.1274 45.1207 36.3708 45.1207 39.1285C45.1207 41.8859 42.8772 44.1294 40.1193 44.1294Z" fill="url(#paint0_linear_869_903)"/>
<path d="M24.8739 18.2854C24.7223 18.1824 24.5229 18.184 24.3732 18.2898C24.2234 18.3953 24.0632 18.4835 23.8947 18.5533C23.2907 18.0808 22.4154 18.0862 21.8158 18.6076C21.5042 18.8786 21.3094 19.2534 21.2641 19.6582C20.6191 19.5623 20.0362 19.2072 19.6539 18.6627C19.5628 18.5332 19.4089 18.4629 19.2516 18.478C19.0939 18.4933 18.9567 18.5922 18.8924 18.7369C18.8798 18.7653 18.584 19.4412 18.6218 20.2683C18.6506 20.9014 18.8771 21.7173 19.7029 22.3474C19.4055 22.4433 19.0913 22.4878 18.7784 22.4752C18.5746 22.4671 18.3926 22.5997 18.3377 22.7957C18.2827 22.9917 18.3695 23.1998 18.5474 23.2987C19.237 23.6817 19.9758 23.8736 20.6976 23.8736C21.3911 23.8736 22.0688 23.6964 22.6719 23.3417C23.4281 22.8969 23.9775 22.2158 24.2759 21.384C24.2852 21.3629 24.293 21.341 24.2992 21.3183C24.4526 20.8666 24.533 20.3718 24.533 19.8471C24.533 19.8242 24.5323 19.8011 24.5314 19.7782C24.7823 19.4824 24.9613 19.1318 25.0538 18.7529C25.0969 18.5748 25.0254 18.3885 24.8739 18.2854ZM23.6403 19.7099C23.649 19.7557 23.6536 19.8031 23.6536 19.8485C23.6536 20.2793 23.5895 20.6784 23.4674 21.039C23.4608 21.0555 23.4553 21.0726 23.4507 21.0903C23.2225 21.729 22.8069 22.2421 22.2261 22.5839C21.6945 22.8969 21.0843 23.0301 20.4625 22.985C20.6049 22.9145 20.7425 22.8344 20.8742 22.7451C21.006 22.6553 21.0793 22.5013 21.0651 22.3421C21.0509 22.183 20.9515 22.0443 20.8057 21.9795C19.9849 21.6148 19.546 21.0346 19.5014 20.2555C19.4922 20.0959 19.5002 19.9428 19.5174 19.8024C20.1221 20.3077 20.8966 20.5834 21.705 20.5625C21.9433 20.5564 22.1334 20.3615 22.1334 20.1232V19.8565C22.1334 19.8546 22.1334 19.8526 22.1334 19.8505C22.1304 19.6282 22.2247 19.4169 22.3928 19.271C22.7069 18.9979 23.1845 19.0311 23.4576 19.3452C23.5125 19.4082 23.5826 19.4528 23.6591 19.4764C23.6323 19.5501 23.6252 19.6305 23.6403 19.7099Z" fill="url(#paint1_linear_869_903)"/>
<path d="M38.673 21.2269H39.2962V23.8482C39.2962 24.0908 39.4931 24.2877 39.7357 24.2877C39.9787 24.2877 40.1753 24.0908 40.1753 23.8482V21.2269H40.8542C41.0968 21.2269 41.2937 21.03 41.2937 20.7874C41.2937 20.5447 41.0968 20.3478 40.8542 20.3478H40.1753V19.1179C40.1753 18.6957 40.519 18.3521 40.9414 18.3521H41.5105C41.7532 18.3521 41.9501 18.1552 41.9501 17.9125C41.9501 17.6696 41.7532 17.4729 41.5105 17.4729H40.9414C40.0343 17.4729 39.2962 18.2108 39.2962 19.1179V20.3478H38.673C38.4303 20.3478 38.2334 20.5447 38.2334 20.7874C38.2334 21.03 38.4303 21.2269 38.673 21.2269Z" fill="url(#paint2_linear_869_903)"/>
<path d="M20.8832 41.4017C20.9878 41.4017 21.0925 41.3747 21.1856 41.3209L24.1777 39.5926C24.3643 39.485 24.4802 39.2842 24.4802 39.0688C24.4802 38.8535 24.3643 38.6528 24.1777 38.5452L21.1856 36.8168C20.9993 36.709 20.7676 36.709 20.581 36.8168C20.3944 36.9244 20.2783 37.1252 20.2783 37.3407V40.7971C20.2783 41.0125 20.3944 41.2133 20.581 41.3209C20.6742 41.3749 20.7786 41.4017 20.8832 41.4017ZM21.1575 37.816L23.327 39.069L21.1575 40.322V37.816Z" fill="url(#paint3_linear_869_903)"/>
<path d="M42.0294 36.015H38.2092C37.5457 36.015 37.0059 36.5549 37.0059 37.2186V41.0381C37.0059 41.7018 37.5457 42.2417 38.2092 42.2417H42.0294C42.6929 42.2417 43.2328 41.7018 43.2328 41.0381V37.2186C43.2328 36.5549 42.6929 36.015 42.0294 36.015ZM42.3536 41.0381C42.3536 41.2171 42.2082 41.3625 42.0294 41.3625H38.2092C38.0304 41.3625 37.885 41.2171 37.885 41.0381V37.2186C37.885 37.0398 38.0304 36.8942 38.2092 36.8942H42.0294C42.2082 36.8942 42.3536 37.0398 42.3536 37.2186V41.0381Z" fill="url(#paint4_linear_869_903)"/>
<path d="M40.1193 37.7997C39.3867 37.7997 38.7905 38.3959 38.7905 39.1285C38.7905 39.8611 39.3867 40.4571 40.1193 40.4571C40.852 40.4571 41.4481 39.8611 41.4481 39.1285C41.4481 38.3959 40.852 37.7997 40.1193 37.7997ZM40.1193 39.5779C39.8714 39.5779 39.6697 39.3762 39.6697 39.1285C39.6697 38.8805 39.8714 38.6788 40.1193 38.6788C40.3673 38.6788 40.569 38.8805 40.569 39.1285C40.569 39.3762 40.3673 39.5779 40.1193 39.5779Z" fill="url(#paint5_linear_869_903)"/>
<path d="M34.1813 25.4381C33.9383 25.4381 33.7417 25.635 33.7417 25.8777V26.0748C33.1221 26.44 32.4708 26.7552 31.8011 27.0133C31.2649 27.2198 30.7111 27.3915 30.1509 27.5259C30.0648 27.4597 29.9576 27.4196 29.8409 27.4196H27.8282C27.3419 27.4196 26.9465 27.8153 26.9465 28.3013V30.6098C26.9465 31.0961 27.3419 31.4915 27.8282 31.4915H28.2305L28.3829 34.4224C28.3951 34.6571 28.5892 34.8391 28.8216 34.8391C28.8292 34.8391 28.8369 34.8389 28.8447 34.8384C29.0872 34.8258 29.2735 34.6191 29.261 34.3767L29.1108 31.4915H29.8409C29.9574 31.4915 30.0648 31.4516 30.1506 31.3855C30.5073 31.4715 30.8622 31.5727 31.2091 31.6879C31.4396 31.7641 31.6883 31.6394 31.7647 31.409C31.8412 31.1785 31.7162 30.9296 31.4859 30.8534C31.1134 30.7298 30.7324 30.621 30.3491 30.5287V28.3828C30.9494 28.239 31.5426 28.0547 32.1171 27.8336C32.6725 27.6195 33.2165 27.3688 33.7414 27.0849V31.8273C33.5482 31.7229 33.3529 31.6233 33.1563 31.5288C32.9374 31.4235 32.6748 31.5155 32.5697 31.7344C32.4644 31.9533 32.5564 32.2159 32.7753 32.3212C33.1027 32.4787 33.4264 32.6522 33.7414 32.8372V33.0334C33.7414 33.2763 33.9383 33.473 34.181 33.473C34.4237 33.473 34.6206 33.2763 34.6206 33.0334V25.8777C34.6208 25.635 34.4239 25.4381 34.1813 25.4381ZM29.4702 30.6121L27.8257 30.6098L27.8282 28.2988H29.4702V30.6121Z" fill="url(#paint6_linear_869_903)"/>
<path d="M1.57273 23.5471C2.69878 23.8453 3.86236 23.1837 4.17203 22.0655C4.416 21.1803 4.04065 20.2764 3.30872 19.7826C7.54078 8.69389 18.4259 1.11819 30.5028 1.11819C42.5702 1.11819 53.4553 8.69389 57.6968 19.7826C56.9649 20.2764 56.5895 21.171 56.8335 22.0655C57.1338 23.1837 58.2973 23.8546 59.4328 23.5471C60.5588 23.2489 61.2345 22.0935 60.9248 20.966C60.662 19.9876 59.7424 19.3539 58.7572 19.4098C54.3656 7.88321 43.0488 0 30.5028 0C17.9473 0 6.63056 7.88321 2.23898 19.4192C1.26307 19.3632 0.343466 19.9969 0.0713385 20.9753C-0.228941 22.0935 0.446687 23.2489 1.57273 23.5471Z" fill="url(#paint7_linear_869_903)"/>
<path d="M1.62169 36.6672C2.74774 36.3597 3.92071 37.012 4.23037 38.1302C4.47435 39.0154 4.10838 39.9286 3.38584 40.4224C7.69297 51.5391 18.3247 58.8818 30.4954 58.8818C42.6661 58.8818 53.3073 51.5391 57.6144 40.4224C56.8918 39.9286 56.5165 39.0247 56.7698 38.1302C57.0795 37.012 58.2525 36.3504 59.3785 36.6672C60.5046 36.9747 61.1708 38.1395 60.8518 39.2577C60.5796 40.2361 59.66 40.8604 58.6747 40.7952C54.2081 52.3591 43.1541 60 30.4954 60C17.8462 60 6.78275 52.3591 2.31609 40.7952C1.34018 40.8604 0.411194 40.2361 0.139065 39.2577C-0.161217 38.1302 0.495647 36.9747 1.62169 36.6672Z" fill="url(#paint8_linear_869_903)"/>
<defs>
<linearGradient id="paint0_linear_869_903" x1="15" y1="30.0042" x2="50" y2="29.0045" gradientUnits="userSpaceOnUse">
<stop stop-color="#FFA811"/>
<stop offset="1" stop-color="#F33B00"/>
</linearGradient>
<linearGradient id="paint1_linear_869_903" x1="18.0965" y1="21.0405" x2="25.9628" y2="20.7729" gradientUnits="userSpaceOnUse">
<stop stop-color="#FFA811"/>
<stop offset="1" stop-color="#F33B00"/>
</linearGradient>
<linearGradient id="paint2_linear_869_903" x1="38.1095" y1="20.8803" x2="42.4482" y2="20.8127" gradientUnits="userSpaceOnUse">
<stop stop-color="#FFA811"/>
<stop offset="1" stop-color="#F33B00"/>
</linearGradient>
<linearGradient id="paint3_linear_869_903" x1="20.1383" y1="39.0688" x2="25.0412" y2="38.9427" gradientUnits="userSpaceOnUse">
<stop stop-color="#FFA811"/>
<stop offset="1" stop-color="#F33B00"/>
</linearGradient>
<linearGradient id="paint4_linear_869_903" x1="36.7983" y1="39.1283" x2="44.063" y2="38.9208" gradientUnits="userSpaceOnUse">
<stop stop-color="#FFA811"/>
<stop offset="1" stop-color="#F33B00"/>
</linearGradient>
<linearGradient id="paint5_linear_869_903" x1="38.7019" y1="39.1284" x2="41.8025" y2="39.0398" gradientUnits="userSpaceOnUse">
<stop stop-color="#FFA811"/>
<stop offset="1" stop-color="#F33B00"/>
</linearGradient>
<linearGradient id="paint6_linear_869_903" x1="26.6907" y1="30.1386" x2="35.6463" y2="29.9297" gradientUnits="userSpaceOnUse">
<stop stop-color="#FFA811"/>
<stop offset="1" stop-color="#F33B00"/>
</linearGradient>
<linearGradient id="paint7_linear_869_903" x1="6.05628" y1="11.4477" x2="72.3345" y2="11.4477" gradientUnits="userSpaceOnUse">
<stop stop-color="#FFA811"/>
<stop offset="1" stop-color="#F33B00"/>
</linearGradient>
<linearGradient id="paint8_linear_869_903" x1="54.8887" y1="47.934" x2="-11.243" y2="47.934" gradientUnits="userSpaceOnUse">
<stop stop-color="#FFA811"/>
<stop offset="1" stop-color="#F33B00"/>
</linearGradient>
</defs>
</svg>
