<svg width="45" height="45" viewBox="0 0 45 45" fill="none" xmlns="http://www.w3.org/2000/svg">
<g clip-path="url(#clip0_1294_44200)">
<path d="M44.3593 11.8166C44.3593 11.8166 44.3593 11.8166 44.3592 11.8166L44.3577 11.8152L41.4531 11.4007C41.0448 11.3426 40.761 10.9645 40.8191 10.5562C40.847 10.36 40.9518 10.1831 41.1103 10.0642L43.4579 8.30348C43.7878 8.05605 43.8547 7.58806 43.6072 7.25812L40.9192 3.67403C40.6717 3.34408 40.2038 3.27726 39.8738 3.52469L37.527 5.28538C37.1984 5.53468 36.7301 5.47046 36.4808 5.14192C36.3597 4.98241 36.3078 4.7809 36.3368 4.58274L36.7519 1.67813C36.8104 1.26988 36.527 0.891592 36.1188 0.832978C36.1185 0.832978 36.1183 0.832884 36.118 0.832884L31.6856 0.199694C31.2775 0.141079 30.899 0.424447 30.8404 0.832698C30.8404 0.832791 30.8404 0.832791 30.8404 0.832884L30.4252 3.73749C30.3671 4.14575 29.989 4.42958 29.5807 4.37143C29.3845 4.34352 29.2076 4.23871 29.0887 4.08022L27.3287 1.73264C27.0813 1.4027 26.6133 1.33587 26.2834 1.5833L24.0396 3.26708C23.0245 3.15919 22.0007 3.15919 20.9856 3.26708C14.3377 4.02693 9.12442 9.32859 8.47639 15.9884C8.45623 16.1997 8.44876 16.4095 8.43831 16.6193H8.2143C7.86 16.62 7.55488 16.8696 7.48404 17.2167L6.96808 19.6703L4.90125 18.2449C4.60463 18.0402 4.20403 18.0767 3.94923 18.3315L1.70917 20.5715C1.45473 20.8263 1.41833 21.2263 1.62255 21.5228L3.04126 23.5859L0.586897 24.1019C0.243608 24.1771 -0.00074498 24.4815 1.70658e-06 24.8329V27.8196C-0.000184965 28.1728 0.247248 28.4778 0.592871 28.5506L3.04723 29.0666L1.62853 31.1297C1.42431 31.4262 1.46071 31.8263 1.71514 32.081L3.9552 34.321C4.21001 34.5758 4.6106 34.6123 4.90723 34.4076L6.97032 32.9852L7.48628 35.4396C7.55712 35.7867 7.86224 36.0363 8.21654 36.0369H11.2033C11.5565 36.0371 11.8615 35.7897 11.9343 35.444L12.4503 32.9897L14.5133 34.4084C14.8099 34.6126 15.2099 34.5762 15.4646 34.3218L16.6242 33.1584V35.2865C16.6276 36.3488 17.1967 37.3287 18.1176 37.8581V42.0067C18.1176 43.6562 19.4548 44.9934 21.1044 44.9934H24.0911C25.7406 44.9934 27.0778 43.6562 27.0778 42.0067V37.8581C27.9988 37.3287 28.5679 36.3488 28.5712 35.2865V32.3311C28.5915 31.0876 29.242 29.9396 30.2983 29.2831C30.918 28.8811 31.5056 28.4317 32.056 27.9391L31.0599 26.8265C30.5676 27.2678 30.0415 27.67 29.4867 28.0295C28.004 28.96 27.0964 30.5807 27.0778 32.3311V35.2865C27.0778 36.1113 26.4093 36.7799 25.5845 36.7799H19.611C18.7862 36.7799 18.1176 36.1113 18.1176 35.2865V32.2691C18.1003 30.5518 17.207 28.9624 15.7491 28.0548C9.83097 24.3362 8.04788 16.524 11.7666 10.6059C14.0738 6.93397 18.1005 4.69904 22.4372 4.68355C22.4261 4.71015 22.4163 4.73731 22.4081 4.76494C22.3803 4.96094 22.4317 5.16003 22.5507 5.31823L24.3106 7.66507C24.4962 7.90522 24.514 8.23507 24.3554 8.49389C24.2027 8.7543 23.9075 8.89635 23.6087 8.85304L20.7041 8.43789C20.2959 8.37936 19.9176 8.66283 19.859 9.07098C19.859 9.07126 19.8589 9.07154 19.8589 9.07182L19.2249 13.5064C19.1664 13.9146 19.4499 14.2929 19.858 14.3516C19.8583 14.3516 19.8586 14.3516 19.8589 14.3516L22.7635 14.7668C23.1717 14.825 23.4556 15.2031 23.3974 15.6113C23.3695 15.8075 23.2647 15.9845 23.1062 16.1034L20.7594 17.8633C20.4294 18.1107 20.3626 18.5787 20.61 18.9087L23.2981 22.4928C23.5455 22.8227 24.0135 22.8895 24.3435 22.6421L26.6911 20.8822C27.0213 20.6352 27.4893 20.7027 27.7362 21.033C27.8544 21.191 27.9053 21.3894 27.8775 21.5848L27.4631 24.4894C27.4045 24.8976 27.6879 25.276 28.0961 25.3347C28.0962 25.3347 28.0962 25.3347 28.0963 25.3347L32.5316 25.9686C32.5666 25.9731 32.6017 25.9753 32.6369 25.9753C33.0087 25.9758 33.3241 25.7027 33.3769 25.3347L33.7913 22.43C33.8495 22.0218 34.2276 21.738 34.6358 21.7961C34.832 21.824 35.009 21.9288 35.1279 22.0873L36.8886 24.4342C37.136 24.7641 37.604 24.8309 37.9339 24.5835L41.518 21.8954C41.848 21.648 41.9148 21.18 41.6674 20.8501L39.9074 18.5032C39.7227 18.2627 39.7049 17.9334 39.8626 17.6744C40.012 17.4105 40.31 17.2675 40.6093 17.316L43.5139 17.7304C43.9221 17.789 44.3005 17.5056 44.3592 17.0974C44.3592 17.0973 44.3592 17.0973 44.3592 17.0972L44.9924 12.6619C45.051 12.2536 44.7676 11.8753 44.3593 11.8166ZM19.611 38.2732H25.5845V39.7666H19.611V38.2732ZM19.611 41.26H25.5845V42.0067C25.5845 42.8315 24.9159 43.5 24.0911 43.5H21.1044C20.2795 43.5 19.611 42.8315 19.611 42.0067V41.26ZM13.6666 28.3834C14.0743 28.7168 14.5003 29.0272 14.9427 29.313C15.6482 29.7589 16.1793 30.4334 16.4473 31.2238L14.8456 32.8224L13.2948 31.7532C12.6156 31.2852 11.6857 31.4564 11.2177 32.1355C11.1055 32.2984 11.0267 32.4818 10.986 32.6753L10.5947 34.5398H8.81986L8.4286 32.6783C8.25873 31.8712 7.46677 31.3546 6.6597 31.5245C6.46621 31.5652 6.28272 31.644 6.11984 31.7562L4.56823 32.8224L3.20777 31.465L4.27628 29.9148C4.74473 29.236 4.57411 28.306 3.89528 27.8376C3.73231 27.7251 3.54863 27.6461 3.35486 27.6053L1.49337 27.2133V25.4392L3.35486 25.0472C4.16166 24.8761 4.67706 24.0834 4.50598 23.2765C4.46537 23.0851 4.38763 22.9035 4.27702 22.7422L3.20777 21.1876L4.56823 19.8301L6.12059 20.8993C6.79998 21.3669 7.72989 21.1951 8.19741 20.5157C8.30941 20.353 8.388 20.1697 8.4286 19.9764L8.55927 19.3552C8.67893 20.2156 8.87708 21.063 9.15139 21.8872C6.69451 22.1801 4.94027 24.4093 5.23315 26.8662C5.52604 29.3231 7.75528 31.0773 10.2122 30.7844C11.6912 30.608 12.9858 29.7082 13.6666 28.3834ZM12.507 27.3313C11.9494 28.8811 10.2411 29.6855 8.69125 29.128C7.14141 28.5704 6.33704 26.8621 6.89453 25.3123C7.32108 24.1266 8.4468 23.3369 9.70683 23.3395C9.71654 23.3395 9.7255 23.3395 9.73521 23.3395C10.4219 24.8201 11.3596 26.1706 12.507 27.3313ZM42.9823 16.1444L40.8169 15.8353C39.5921 15.6604 38.4575 16.5115 38.2826 17.7362C38.1986 18.3243 38.3517 18.9217 38.7082 19.397L40.0202 21.1465L37.6308 22.9385L36.3181 21.1898C35.5759 20.2 34.1718 19.9992 33.1821 20.7414C32.7068 21.0978 32.3926 21.6284 32.3084 22.2165L32.006 24.3849L29.0498 23.9622L29.359 21.7969C29.5344 20.5722 28.6837 19.4372 27.459 19.2619C26.8705 19.1777 26.2728 19.3307 25.7973 19.6875L24.0478 20.9994L22.2557 18.61L24.0045 17.2973C24.9943 16.5551 25.1951 15.1511 24.4529 14.1613C24.0965 13.6861 23.5659 13.3718 22.9778 13.2876L20.8124 12.9785L21.235 10.0224L23.4004 10.3315C24.6251 10.5069 25.76 9.6562 25.9353 8.43154C26.0196 7.84306 25.8665 7.24533 25.5098 6.76979L24.1934 5.01881L26.5828 3.22676L27.8955 4.97625C28.6377 5.96607 30.0417 6.16684 31.0315 5.42463C31.5067 5.06828 31.821 4.53766 31.9052 3.94955L32.2143 1.78416L35.1704 2.20604L34.8613 4.37143C34.6864 5.59618 35.5374 6.73077 36.7622 6.90569C37.3503 6.98969 37.9477 6.83662 38.423 6.48007L40.1725 5.16815L41.9645 7.55754L40.215 8.87022C39.2252 9.61242 39.0245 11.0165 39.7667 12.0062C40.123 12.4815 40.6536 12.7957 41.2417 12.8799L43.4071 13.1891L42.9823 16.1444Z" fill="url(#paint0_linear_1294_44200)"/>
<path d="M32.1073 7.1095C28.8082 7.1095 26.1338 9.78394 26.1338 13.083C26.1338 16.382 28.8082 19.0565 32.1073 19.0565C35.4063 19.0565 38.0808 16.382 38.0808 13.083C38.077 9.78544 35.4048 7.11314 32.1073 7.1095ZM32.1073 17.5631C29.6329 17.5631 27.6272 15.5573 27.6272 13.083C27.6272 10.6087 29.6329 8.60287 32.1073 8.60287C34.5816 8.60287 36.5874 10.6087 36.5874 13.083C36.5845 15.5561 34.5804 17.5602 32.1073 17.5631Z" fill="url(#paint1_linear_1294_44200)"/>
<path d="M23.344 33.0464H21.8506V35.2864H23.344V33.0464Z" fill="url(#paint2_linear_1294_44200)"/>
<path d="M19.3316 25.7132C14.7222 23.9126 12.4453 18.7162 14.246 14.1068C14.9438 12.3207 16.1961 10.8056 17.8188 9.78415L17.0206 8.52075C12.1358 11.5981 10.6705 18.0528 13.7479 22.9376C14.9397 24.8294 16.7067 26.2893 18.7895 27.1028C20.6331 27.8092 21.8505 29.5788 21.8509 31.553H23.3443C23.3466 28.9628 21.7504 26.6398 19.3316 25.7132Z" fill="url(#paint3_linear_1294_44200)"/>
<path d="M42.012 27.8196H36.7852V29.313H42.012V27.8196Z" fill="url(#paint4_linear_1294_44200)"/>
<path d="M36.5165 31.7254L35.5605 32.8728L40.041 36.6056L40.9969 35.4583L36.5165 31.7254Z" fill="url(#paint5_linear_1294_44200)"/>
<path d="M33.7981 33.7931H32.3047V39.0199H33.7981V33.7931Z" fill="url(#paint6_linear_1294_44200)"/>
<path d="M6.73577 11.4145L0.762695 12.9076L1.12466 14.3556L7.09774 12.8625L6.73577 11.4145Z" fill="url(#paint7_linear_1294_44200)"/>
<path d="M2.87044 4.06572L2.00293 5.28027L7.22932 9.01332L8.09684 7.79877L2.87044 4.06572Z" fill="url(#paint8_linear_1294_44200)"/>
<path d="M9.84717 0.00619009L8.40039 0.376099L9.92756 6.34913L11.3743 5.97922L9.84717 0.00619009Z" fill="url(#paint9_linear_1294_44200)"/>
</g>
<defs>
<linearGradient id="paint0_linear_1294_44200" x1="-0.900001" y1="22.5927" x2="45" y2="22.5927" gradientUnits="userSpaceOnUse">
<stop stop-color="#F86CA7"/>
<stop offset="1" stop-color="#FF7F18"/>
</linearGradient>
<linearGradient id="paint1_linear_1294_44200" x1="25.8948" y1="13.083" x2="38.0808" y2="13.083" gradientUnits="userSpaceOnUse">
<stop stop-color="#F86CA7"/>
<stop offset="1" stop-color="#FF7F18"/>
</linearGradient>
<linearGradient id="paint2_linear_1294_44200" x1="21.8207" y1="34.1664" x2="23.344" y2="34.1664" gradientUnits="userSpaceOnUse">
<stop stop-color="#F86CA7"/>
<stop offset="1" stop-color="#FF7F18"/>
</linearGradient>
<linearGradient id="paint3_linear_1294_44200" x1="11.9136" y1="20.0369" x2="23.3443" y2="20.0369" gradientUnits="userSpaceOnUse">
<stop stop-color="#F86CA7"/>
<stop offset="1" stop-color="#FF7F18"/>
</linearGradient>
<linearGradient id="paint4_linear_1294_44200" x1="36.6806" y1="28.5663" x2="42.012" y2="28.5663" gradientUnits="userSpaceOnUse">
<stop stop-color="#F86CA7"/>
<stop offset="1" stop-color="#FF7F18"/>
</linearGradient>
<linearGradient id="paint5_linear_1294_44200" x1="37.7816" y1="34.7622" x2="38.7567" y2="33.5919" gradientUnits="userSpaceOnUse">
<stop stop-color="#F86CA7"/>
<stop offset="1" stop-color="#FF7F18"/>
</linearGradient>
<linearGradient id="paint6_linear_1294_44200" x1="32.2748" y1="36.4065" x2="33.7981" y2="36.4065" gradientUnits="userSpaceOnUse">
<stop stop-color="#F86CA7"/>
<stop offset="1" stop-color="#FF7F18"/>
</linearGradient>
<linearGradient id="paint7_linear_1294_44200" x1="0.824215" y1="13.6615" x2="6.91676" y2="12.1385" gradientUnits="userSpaceOnUse">
<stop stop-color="#F86CA7"/>
<stop offset="1" stop-color="#FF7F18"/>
</linearGradient>
<linearGradient id="paint8_linear_1294_44200" x1="4.59878" y1="7.17109" x2="5.48364" y2="5.93225" gradientUnits="userSpaceOnUse">
<stop stop-color="#F86CA7"/>
<stop offset="1" stop-color="#FF7F18"/>
</linearGradient>
<linearGradient id="paint9_linear_1294_44200" x1="9.13504" y1="3.37002" x2="10.6108" y2="2.99271" gradientUnits="userSpaceOnUse">
<stop stop-color="#F86CA7"/>
<stop offset="1" stop-color="#FF7F18"/>
</linearGradient>
<clipPath id="clip0_1294_44200">
<rect width="45" height="45" fill="white"/>
</clipPath>
</defs>
</svg>
