<svg width="40" height="40" viewBox="0 0 40 40" fill="none" xmlns="http://www.w3.org/2000/svg">
<path d="M36.7742 6.45161H19.3548V1.93548C19.3548 0.868387 18.4865 0 17.4194 0H1.93548C0.868387 0 0 0.868387 0 1.93548V14.8387C0 15.9058 0.868387 16.7742 1.93548 16.7742H5.16129V30.3226C5.16129 32.1013 6.60839 33.5484 8.3871 33.5484H15.4839V36.129H14.1935C13.4819 36.129 12.9032 36.7077 12.9032 37.4194V38.7097C12.9032 39.4213 13.4819 40 14.1935 40H30.9677C31.6794 40 32.2581 39.4213 32.2581 38.7097V37.4194C32.2581 36.7077 31.6794 36.129 30.9677 36.129H29.6774V33.5484H36.7742C38.5529 33.5484 40 32.1013 40 30.3226V9.67742C40 7.89871 38.5529 6.45161 36.7742 6.45161ZM9.03226 17.6865L10.2445 18.8987C10.5342 19.1884 10.9355 19.3548 11.3458 19.3548C12.2045 19.3548 12.9032 18.6561 12.9032 17.7974V16.7742H17.4194C18.42 16.7742 19.2361 16.0077 19.3355 15.0329C19.6006 15.5497 19.929 16.08 20.2839 16.5948C17.9555 17.0432 16.7742 17.7523 16.7742 18.7097C16.7742 20.009 18.9497 20.6535 21.1755 20.9742C22.0168 22.6864 23.7735 23.871 25.8064 23.871C26.2761 23.871 26.7297 23.8026 27.1626 23.6839C28.5961 24.7606 30.2935 25.8045 31.5045 25.8045C31.9058 25.8045 32.2542 25.6897 32.52 25.4232C33.1955 24.7477 32.9897 23.5284 31.8903 21.6961C31.7219 21.4155 31.529 21.1232 31.3258 20.8265C33.2084 20.4684 34.8387 19.8342 34.8387 18.7097C34.8387 17.6368 33.3555 16.8761 30.4368 16.4445C29.5961 14.7329 27.8394 13.5484 25.8064 13.5484C25.3368 13.5484 24.8832 13.6168 24.4503 13.7355C23.8858 13.3123 23.3374 12.9361 22.82 12.6258C21.2026 11.6555 20.0645 11.3832 19.3548 11.7974V10.3226H36.129V27.0968H9.03226V17.6865ZM25.8064 22.5806C24.6006 22.5806 23.5219 22.0258 22.8116 21.1587C24.2561 21.2806 25.48 21.2903 25.8064 21.2903C26.1329 21.2903 27.3568 21.2806 28.8013 21.1587C28.091 22.0258 27.0123 22.5806 25.8064 22.5806ZM30.1819 21.4342C31.32 23.0626 31.7626 24.2026 31.6219 24.5C31.4735 24.5729 30.551 24.4981 28.531 23.0852C29.1994 22.6677 29.7639 22.1026 30.1819 21.4342ZM30.8865 17.8271C32.5877 18.1374 33.3129 18.5252 33.5097 18.7129C33.2587 18.9761 32.3503 19.3232 30.8865 19.591C30.9368 19.3039 30.9677 19.011 30.9677 18.7097C30.9677 18.4084 30.9361 18.1142 30.8865 17.8271ZM26.9148 17.6013C27.7084 18.3948 28.3877 19.1497 28.971 19.8535C28.04 19.9439 26.9839 20 25.8064 20C24.3916 20 23.1484 19.92 22.0935 19.7955C21.9923 19.4503 21.9355 19.0871 21.9355 18.7097C21.9355 17.1419 22.8742 15.7916 24.2174 15.1839C25.0432 15.8394 25.951 16.6381 26.9148 17.6013ZM25.829 14.84C27.9458 14.8523 29.6639 16.571 29.6761 18.6871C29.109 18.0232 28.4884 17.351 27.8271 16.689C27.1658 16.0271 26.4929 15.4071 25.829 14.84ZM20.7258 19.591C19.2619 19.3232 18.3535 18.9761 18.1026 18.7129C18.2994 18.5252 19.0245 18.1374 20.7258 17.8271C20.6768 18.1142 20.6452 18.4084 20.6452 18.7097C20.6452 19.011 20.6761 19.3039 20.7258 19.591ZM21.431 15.9852C20.0168 13.9632 19.94 13.0439 19.9903 12.9194C20.3019 12.7606 21.4484 13.1981 23.08 14.3348C22.4129 14.7529 21.8484 15.3174 21.431 15.9852ZM1.29032 14.8387V1.93548C1.29032 1.57935 1.57935 1.29032 1.93548 1.29032H17.4194C17.7755 1.29032 18.0645 1.57935 18.0645 1.93548V14.8387C18.0645 15.1948 17.7755 15.4839 17.4194 15.4839H11.6129V17.7974C11.6135 18.0155 11.3103 18.14 11.1568 17.9865L8.65419 15.4839H1.93548C1.57935 15.4839 1.29032 15.1948 1.29032 14.8387ZM30.969 38.7097H14.1935V37.4194H30.9677L30.969 38.7097ZM28.3871 36.129H16.7742V33.5484H28.3871V36.129ZM38.7097 30.3226C38.7097 31.3897 37.8413 32.2581 36.7742 32.2581H8.3871C7.32 32.2581 6.45161 31.3897 6.45161 30.3226V16.7742H7.74194V27.0968C7.74194 27.8084 8.32065 28.3871 9.03226 28.3871H36.129C36.8406 28.3871 37.4194 27.8084 37.4194 27.0968V10.3226C37.4194 9.61097 36.8406 9.03226 36.129 9.03226H19.3548V7.74194H36.7742C37.8413 7.74194 38.7097 8.61032 38.7097 9.67742V30.3226Z" fill="url(#paint0_linear_1357_561)"/>
<path d="M11.7298 13.3412L12.5511 13.7257L15.0156 11.2612L14.6311 10.4399L15.484 10.1296V6.64444L14.6317 6.3354L15.0163 5.51411L12.5517 3.0496L11.7304 3.43411L11.4201 2.58057H7.93496L7.62593 3.43282L6.80464 3.04831L4.34013 5.51282L4.72464 6.33411L3.87109 6.64444V10.1296L4.72335 10.4386L4.33884 11.2599L6.80335 13.7244L7.62464 13.3399L7.93496 14.1935H11.4201L11.7298 13.3412ZM10.5156 12.9031H8.83948L8.64593 12.3722L8.51561 12.087L7.85045 11.8115L7.07755 12.1735L5.89174 10.987L6.25367 10.2141L5.96593 9.51734L5.16142 9.22508V7.54895L5.69238 7.3554L5.97755 7.22508L6.25303 6.55992L5.89174 5.78702L7.07755 4.60121L7.85045 4.96315L8.54722 4.67541L8.83948 3.87089H10.5156L10.7092 4.40186L10.8395 4.68702L11.5046 4.9625L12.2775 4.60057L13.4634 5.78637L13.1014 6.55928L13.3892 7.25605L14.1937 7.54895V9.22508L13.6627 9.41863L13.3775 9.54895L13.1021 10.2141L13.464 10.987L12.2782 12.1728L11.5053 11.8109L10.8085 12.0986L10.5156 12.9031Z" fill="url(#paint1_linear_1357_561)"/>
<path d="M12.9033 8.38718C12.9033 6.60847 11.4562 5.16138 9.67747 5.16138C7.89876 5.16138 6.45166 6.60847 6.45166 8.38718C6.45166 10.1659 7.89876 11.613 9.67747 11.613C11.4562 11.613 12.9033 10.1659 12.9033 8.38718ZM9.67747 10.3227C8.61037 10.3227 7.74198 9.45428 7.74198 8.38718C7.74198 7.32009 8.61037 6.4517 9.67747 6.4517C10.7446 6.4517 11.613 7.32009 11.613 8.38718C11.613 9.45428 10.7446 10.3227 9.67747 10.3227Z" fill="url(#paint2_linear_1357_561)"/>
<path d="M36.7741 30.9678C37.1304 30.9678 37.4192 30.679 37.4192 30.3227C37.4192 29.9663 37.1304 29.6775 36.7741 29.6775C36.4178 29.6775 36.1289 29.9663 36.1289 30.3227C36.1289 30.679 36.4178 30.9678 36.7741 30.9678Z" fill="url(#paint3_linear_1357_561)"/>
<path d="M34.1935 30.9678C34.5498 30.9678 34.8387 30.679 34.8387 30.3227C34.8387 29.9663 34.5498 29.6775 34.1935 29.6775C33.8372 29.6775 33.5483 29.9663 33.5483 30.3227C33.5483 30.679 33.8372 30.9678 34.1935 30.9678Z" fill="url(#paint4_linear_1357_561)"/>
<path d="M31.6129 30.9678C31.9692 30.9678 32.2581 30.679 32.2581 30.3227C32.2581 29.9663 31.9692 29.6775 31.6129 29.6775C31.2566 29.6775 30.9678 29.9663 30.9678 30.3227C30.9678 30.679 31.2566 30.9678 31.6129 30.9678Z" fill="url(#paint5_linear_1357_561)"/>
<path d="M10.3228 24.5161H16.7744V25.8064H10.3228V24.5161Z" fill="url(#paint6_linear_1357_561)"/>
<path d="M10.3228 21.9355H16.7744V23.2259H10.3228V21.9355Z" fill="url(#paint7_linear_1357_561)"/>
<defs>
<linearGradient id="paint0_linear_1357_561" x1="-2" y1="21.6" x2="40" y2="22.8" gradientUnits="userSpaceOnUse">
<stop stop-color="#006CE4"/>
<stop offset="1" stop-color="#00B98D"/>
</linearGradient>
<linearGradient id="paint1_linear_1357_561" x1="3.29045" y1="8.85153" x2="15.484" y2="9.19992" gradientUnits="userSpaceOnUse">
<stop stop-color="#006CE4"/>
<stop offset="1" stop-color="#00B98D"/>
</linearGradient>
<linearGradient id="paint2_linear_1357_561" x1="6.12908" y1="8.64525" x2="12.9033" y2="8.8388" gradientUnits="userSpaceOnUse">
<stop stop-color="#006CE4"/>
<stop offset="1" stop-color="#00B98D"/>
</linearGradient>
<linearGradient id="paint3_linear_1357_561" x1="36.0644" y1="30.3743" x2="37.4192" y2="30.413" gradientUnits="userSpaceOnUse">
<stop stop-color="#006CE4"/>
<stop offset="1" stop-color="#00B98D"/>
</linearGradient>
<linearGradient id="paint4_linear_1357_561" x1="33.4838" y1="30.3743" x2="34.8387" y2="30.413" gradientUnits="userSpaceOnUse">
<stop stop-color="#006CE4"/>
<stop offset="1" stop-color="#00B98D"/>
</linearGradient>
<linearGradient id="paint5_linear_1357_561" x1="30.9033" y1="30.3743" x2="32.2581" y2="30.413" gradientUnits="userSpaceOnUse">
<stop stop-color="#006CE4"/>
<stop offset="1" stop-color="#00B98D"/>
</linearGradient>
<linearGradient id="paint6_linear_1357_561" x1="10.0002" y1="25.2129" x2="16.6443" y2="26.162" gradientUnits="userSpaceOnUse">
<stop stop-color="#006CE4"/>
<stop offset="1" stop-color="#00B98D"/>
</linearGradient>
<linearGradient id="paint7_linear_1357_561" x1="10.0002" y1="22.6323" x2="16.6443" y2="23.5815" gradientUnits="userSpaceOnUse">
<stop stop-color="#006CE4"/>
<stop offset="1" stop-color="#00B98D"/>
</linearGradient>
</defs>
</svg>
