<svg width="61" height="60" viewBox="0 0 61 60" fill="none" xmlns="http://www.w3.org/2000/svg">
<path d="M31 38.5H18.9297C17.9604 38.5 17.1719 37.7115 17.1719 36.7422V18.9297C17.1719 17.9604 17.9604 17.1719 18.9297 17.1719H39.9062C40.8756 17.1719 41.6641 17.9604 41.6641 18.9297V30.2072C41.6641 30.5308 41.9264 30.7931 42.25 30.7931C42.5736 30.7931 42.8359 30.5308 42.8359 30.2072V18.9297C42.8359 17.3142 41.5217 16 39.9062 16H18.9297C17.3142 16 16 17.3142 16 18.9297V36.7422C16 38.3576 17.3142 39.6719 18.9297 39.6719H31C31.3236 39.6719 31.5859 39.4096 31.5859 39.0859C31.5859 38.7623 31.3236 38.5 31 38.5Z" fill="url(#paint0_linear_869_924)"/>
<path d="M42.6643 32.8596C42.7732 32.7507 42.8359 32.5996 42.8359 32.4456C42.8359 32.2906 42.7732 32.1402 42.6643 32.0313C42.5553 31.9221 42.404 31.8596 42.25 31.8596C42.096 31.8596 41.9447 31.9221 41.8357 32.0313C41.7268 32.1402 41.6641 32.2913 41.6641 32.4456C41.6641 32.5996 41.7268 32.7507 41.8357 32.8596C41.9447 32.9686 42.096 33.0315 42.25 33.0315C42.404 33.0313 42.5553 32.9686 42.6643 32.8596Z" fill="url(#paint1_linear_869_924)"/>
<path d="M45.4141 38.5H43.3212C43.0793 37.8179 42.4279 37.3281 41.6641 37.3281C40.9003 37.3281 40.2489 37.8179 40.007 38.5H33.3777C33.054 38.5 32.7917 38.7623 32.7917 39.0859C32.7917 39.4096 33.054 39.6719 33.3777 39.6719H40.007C40.2489 40.3539 40.9003 40.8438 41.6641 40.8438C42.4279 40.8438 43.0793 40.3539 43.3212 39.6719H45.4141C45.7378 39.6719 46.0001 39.4096 46.0001 39.0859C46.0001 38.7623 45.7378 38.5 45.4141 38.5ZM41.6641 39.6719C41.3409 39.6719 41.0782 39.4091 41.0782 39.0859C41.0782 38.7628 41.3409 38.5 41.6641 38.5C41.9873 38.5 42.2501 38.7628 42.2501 39.0859C42.2501 39.4091 41.9873 39.6719 41.6641 39.6719Z" fill="url(#paint2_linear_869_924)"/>
<path d="M45.4141 42.0706H38.7845C38.5426 41.3887 37.8914 40.8987 37.1274 40.8987C36.3637 40.8987 35.7125 41.3887 35.4706 42.0706H33.3774C33.054 42.0706 32.7915 42.3329 32.7915 42.6565C32.7915 42.9801 33.054 43.2424 33.3774 43.2424H35.4706C35.7125 43.9245 36.3637 44.4143 37.1274 44.4143C37.8914 44.4143 38.5426 43.9245 38.7845 43.2424H45.4141C45.7377 43.2424 46 42.9801 46 42.6565C46 42.3329 45.7377 42.0706 45.4141 42.0706ZM37.1277 43.2424C36.8045 43.2424 36.5417 42.9797 36.5417 42.6565C36.5417 42.3335 36.8045 42.0706 37.1277 42.0706C37.4506 42.0706 37.7136 42.3335 37.7136 42.6565C37.7136 42.9797 37.4506 43.2424 37.1277 43.2424Z" fill="url(#paint3_linear_869_924)"/>
<path d="M37.1277 33.7576C36.3637 33.7576 35.7125 34.2476 35.4706 34.9294H33.3777C33.054 34.9294 32.7917 35.1917 32.7917 35.5154C32.7917 35.839 33.054 36.1013 33.3777 36.1013H35.4706C35.7125 36.7834 36.3637 37.2732 37.1277 37.2732C37.8915 37.2732 38.5429 36.7834 38.7846 36.1013H45.4141C45.7378 36.1013 46.0001 35.839 46.0001 35.5154C46.0001 35.1917 45.7378 34.9294 45.4141 34.9294H38.7846C38.5429 34.2476 37.8915 33.7576 37.1277 33.7576ZM37.1277 36.1013C36.8045 36.1013 36.5417 35.8386 36.5417 35.5154C36.5417 35.1924 36.8045 34.9294 37.1277 34.9294C37.4506 34.9294 37.7136 35.1924 37.7136 35.5154C37.7136 35.8386 37.4506 36.1013 37.1277 36.1013Z" fill="url(#paint4_linear_869_924)"/>
<path d="M35.9822 28.215C35.9822 24.5954 33.0374 21.6506 29.4178 21.6506C25.7983 21.6506 22.8535 24.5954 22.8535 28.215C22.8535 31.8345 25.7983 34.7795 29.4178 34.7795C33.0374 34.7795 35.9822 31.8345 35.9822 28.215ZM29.4178 33.6077C26.4444 33.6077 24.0254 31.1884 24.0254 28.215C24.0254 25.2416 26.4444 22.8225 29.4178 22.8225C32.3913 22.8225 34.8103 25.2416 34.8103 28.215C34.8103 31.1884 32.3913 33.6077 29.4178 33.6077Z" fill="url(#paint5_linear_869_924)"/>
<path d="M32.2416 27.0694L29.0629 25.0319C28.6644 24.7764 28.1588 24.7588 27.7434 24.9859C27.3278 25.2131 27.0698 25.6482 27.0698 26.1218V30.1968C27.0698 30.6701 27.3278 31.1055 27.7432 31.3328C27.9373 31.4387 28.1511 31.4914 28.3644 31.4914C28.6077 31.4914 28.8505 31.4229 29.0629 31.2868L32.2419 29.2492C32.6149 29.0101 32.8376 28.6027 32.8376 28.1593C32.8376 27.716 32.6149 27.3086 32.2416 27.0694ZM31.6095 28.2625L28.4305 30.3C28.3898 30.3261 28.3479 30.3275 28.3056 30.3044C28.263 30.2813 28.2417 30.2451 28.2417 30.1968V26.1218C28.2417 26.0735 28.2632 26.0373 28.3056 26.014C28.3252 26.0032 28.3452 25.9977 28.3648 25.9977C28.387 25.9977 28.409 26.0046 28.4305 26.0186L31.6095 28.0561C31.6559 28.0858 31.6658 28.1286 31.6658 28.1593C31.6658 28.19 31.6559 28.2326 31.6095 28.2625Z" fill="url(#paint6_linear_869_924)"/>
<path d="M18.8125 26.5581V32.271C18.8125 32.5946 19.0748 32.8569 19.3984 32.8569C19.7221 32.8569 19.9844 32.5946 19.9844 32.271V26.5581C19.9844 26.2347 19.7221 25.9722 19.3984 25.9722C19.0748 25.9722 18.8125 26.2347 18.8125 26.5581Z" fill="url(#paint7_linear_869_924)"/>
<path d="M19.8127 23.7449C19.7038 23.6353 19.5525 23.5732 19.3984 23.5732C19.2444 23.5732 19.0931 23.6353 18.9842 23.7449C18.8752 23.8532 18.8125 24.0045 18.8125 24.1592C18.8125 24.3132 18.8752 24.4645 18.9842 24.5732C19.0931 24.6824 19.2444 24.7451 19.3984 24.7451C19.5525 24.7451 19.7038 24.6824 19.8127 24.5732C19.9217 24.4638 19.9844 24.3132 19.9844 24.1592C19.9844 24.0045 19.9217 23.8539 19.8127 23.7449Z" fill="url(#paint8_linear_869_924)"/>
<path d="M1.57273 23.5471C2.69878 23.8453 3.86236 23.1837 4.17203 22.0655C4.416 21.1803 4.04065 20.2764 3.30872 19.7826C7.54078 8.69389 18.4259 1.11819 30.5028 1.11819C42.5702 1.11819 53.4553 8.69389 57.6968 19.7826C56.9649 20.2764 56.5895 21.171 56.8335 22.0655C57.1338 23.1837 58.2973 23.8546 59.4328 23.5471C60.5588 23.2489 61.2345 22.0935 60.9248 20.966C60.662 19.9876 59.7424 19.3539 58.7572 19.4098C54.3656 7.88321 43.0488 0 30.5028 0C17.9473 0 6.63056 7.88321 2.23898 19.4192C1.26307 19.3632 0.343466 19.9969 0.0713385 20.9753C-0.228941 22.0935 0.446687 23.2489 1.57273 23.5471Z" fill="url(#paint9_linear_869_924)"/>
<path d="M1.62169 36.6672C2.74774 36.3597 3.92071 37.012 4.23037 38.1302C4.47435 39.0154 4.10838 39.9286 3.38584 40.4224C7.69297 51.5391 18.3247 58.8818 30.4954 58.8818C42.6661 58.8818 53.3073 51.5391 57.6144 40.4224C56.8918 39.9286 56.5165 39.0247 56.7698 38.1302C57.0795 37.012 58.2525 36.3504 59.3785 36.6672C60.5046 36.9747 61.1708 38.1395 60.8518 39.2577C60.5796 40.2361 59.66 40.8604 58.6747 40.7952C54.2081 52.3591 43.1541 60 30.4954 60C17.8462 60 6.78275 52.3591 2.31609 40.7952C1.34018 40.8604 0.411194 40.2361 0.139065 39.2577C-0.161217 38.1302 0.495647 36.9747 1.62169 36.6672Z" fill="url(#paint10_linear_869_924)"/>
<defs>
<linearGradient id="paint0_linear_869_924" x1="15.1055" y1="27.8359" x2="46.4068" y2="26.822" gradientUnits="userSpaceOnUse">
<stop stop-color="#FFA811"/>
<stop offset="1" stop-color="#F33B00"/>
</linearGradient>
<linearGradient id="paint1_linear_869_924" x1="41.625" y1="32.4456" x2="42.9922" y2="32.4065" gradientUnits="userSpaceOnUse">
<stop stop-color="#FFA811"/>
<stop offset="1" stop-color="#F33B00"/>
</linearGradient>
<linearGradient id="paint2_linear_869_924" x1="32.3515" y1="39.0859" x2="47.5981" y2="37.4493" gradientUnits="userSpaceOnUse">
<stop stop-color="#FFA811"/>
<stop offset="1" stop-color="#F33B00"/>
</linearGradient>
<linearGradient id="paint3_linear_869_924" x1="32.3512" y1="42.6565" x2="47.5981" y2="41.0198" gradientUnits="userSpaceOnUse">
<stop stop-color="#FFA811"/>
<stop offset="1" stop-color="#F33B00"/>
</linearGradient>
<linearGradient id="paint4_linear_869_924" x1="32.3515" y1="35.5154" x2="47.5981" y2="33.8787" gradientUnits="userSpaceOnUse">
<stop stop-color="#FFA811"/>
<stop offset="1" stop-color="#F33B00"/>
</linearGradient>
<linearGradient id="paint5_linear_869_924" x1="22.4159" y1="28.2151" x2="37.7327" y2="27.7774" gradientUnits="userSpaceOnUse">
<stop stop-color="#FFA811"/>
<stop offset="1" stop-color="#F33B00"/>
</linearGradient>
<linearGradient id="paint6_linear_869_924" x1="26.8776" y1="28.1593" x2="33.6081" y2="27.9928" gradientUnits="userSpaceOnUse">
<stop stop-color="#FFA811"/>
<stop offset="1" stop-color="#F33B00"/>
</linearGradient>
<linearGradient id="paint7_linear_869_924" x1="18.7734" y1="29.4145" x2="20.1417" y2="29.4079" gradientUnits="userSpaceOnUse">
<stop stop-color="#FFA811"/>
<stop offset="1" stop-color="#F33B00"/>
</linearGradient>
<linearGradient id="paint8_linear_869_924" x1="18.7734" y1="24.1592" x2="20.1406" y2="24.1201" gradientUnits="userSpaceOnUse">
<stop stop-color="#FFA811"/>
<stop offset="1" stop-color="#F33B00"/>
</linearGradient>
<linearGradient id="paint9_linear_869_924" x1="6.05628" y1="11.4477" x2="72.3345" y2="11.4477" gradientUnits="userSpaceOnUse">
<stop stop-color="#FFA811"/>
<stop offset="1" stop-color="#F33B00"/>
</linearGradient>
<linearGradient id="paint10_linear_869_924" x1="54.8887" y1="47.934" x2="-11.243" y2="47.934" gradientUnits="userSpaceOnUse">
<stop stop-color="#FFA811"/>
<stop offset="1" stop-color="#F33B00"/>
</linearGradient>
</defs>
</svg>
