<svg width="50" height="49" viewBox="0 0 50 49" fill="none" xmlns="http://www.w3.org/2000/svg">
<path d="M19.1774 39.6392H13.6853C13.5338 39.6392 13.3885 39.5786 13.2814 39.4706C13.1743 39.3626 13.1141 39.2162 13.1141 39.0634C13.1141 38.9107 13.1743 38.7643 13.2814 38.6563C13.3885 38.5483 13.5338 38.4876 13.6853 38.4876H19.1774C19.3289 38.4876 19.4742 38.5483 19.5813 38.6563C19.6885 38.7643 19.7487 38.9107 19.7487 39.0634C19.7487 39.2162 19.6885 39.3626 19.5813 39.4706C19.4742 39.5786 19.3289 39.6392 19.1774 39.6392ZM46.189 39.6392H43.7082C43.5567 39.6392 43.4114 39.5786 43.3042 39.4706C43.1971 39.3626 43.1369 39.2162 43.1369 39.0634C43.1369 38.9107 43.1971 38.7643 43.3042 38.6563C43.4114 38.5483 43.5567 38.4876 43.7082 38.4876H46.1972C47.6661 38.4876 48.8575 37.2785 48.8575 35.7979V3.83314C48.8575 3.4803 48.7884 3.13093 48.6542 2.80505C48.52 2.47917 48.3233 2.18319 48.0754 1.93408C47.8275 1.68497 47.5333 1.48762 47.2096 1.35334C46.8859 1.21907 46.539 1.1505 46.189 1.15159H3.80284C3.09793 1.15376 2.42251 1.43697 1.92406 1.93939C1.42561 2.44181 1.14464 3.12261 1.14248 3.83314V35.7979C1.14248 37.2785 2.33393 38.4876 3.80284 38.4876H9.84984C10.0013 38.4876 10.1466 38.5483 10.2538 38.6563C10.3609 38.7643 10.4211 38.9107 10.4211 39.0634C10.4211 39.2162 10.3609 39.3626 10.2538 39.4706C10.1466 39.5786 10.0013 39.6392 9.84984 39.6392H3.811C2.80026 39.6392 1.83092 39.2345 1.11622 38.5141C0.401515 37.7937 0 36.8167 0 35.7979V3.83314C0 1.71915 1.70557 0 3.80284 0H46.1972C48.2944 0 50 1.71915 50 3.83314V35.7979C50 37.9201 48.2781 39.6392 46.189 39.6392Z" fill="#FF7F18"/>
<path d="M49.4288 9.65741H0.571242C0.419739 9.65741 0.274442 9.59675 0.167313 9.48877C0.0601843 9.38078 0 9.23433 0 9.08162C0 8.92891 0.0601843 8.78245 0.167313 8.67447C0.274442 8.56649 0.419739 8.50583 0.571242 8.50583H49.4288C49.5803 8.50583 49.7256 8.56649 49.8327 8.67447C49.9398 8.78245 50 8.92891 50 9.08162C50 9.23433 49.9398 9.38078 49.8327 9.48877C49.7256 9.59675 49.5803 9.65741 49.4288 9.65741ZM6.8141 3.89126C6.69193 3.89126 6.57096 3.91551 6.45809 3.96264C6.34522 4.00976 6.24266 4.07883 6.15627 4.16591C6.06989 4.25298 6.00136 4.35636 5.95461 4.47013C5.90786 4.5839 5.88379 4.70583 5.88379 4.82898C5.88379 4.95212 5.90786 5.07406 5.95461 5.18783C6.00136 5.3016 6.06989 5.40497 6.15627 5.49205C6.24266 5.57912 6.34522 5.64819 6.45809 5.69532C6.57096 5.74244 6.69193 5.7667 6.8141 5.7667C7.06083 5.7667 7.29746 5.6679 7.47193 5.49205C7.64639 5.31619 7.74441 5.07768 7.74441 4.82898C7.74441 4.58028 7.64639 4.34177 7.47193 4.16591C7.29746 3.99005 7.06083 3.89126 6.8141 3.89126ZM6.8141 6.91828C6.26328 6.91828 5.73502 6.69773 5.34553 6.30514C4.95604 5.91254 4.73723 5.38007 4.73723 4.82486C4.73723 4.26965 4.95604 3.73719 5.34553 3.34459C5.73502 2.952 6.26328 2.73145 6.8141 2.73145C7.36492 2.73145 7.89318 2.952 8.28267 3.34459C8.67216 3.73719 8.89097 4.26965 8.89097 4.82486C8.89097 5.38007 8.67216 5.91254 8.28267 6.30514C7.89318 6.69773 7.36492 6.91828 6.8141 6.91828ZM13.0814 3.89126C12.9593 3.89126 12.8383 3.91551 12.7254 3.96264C12.6126 4.00976 12.51 4.07883 12.4236 4.16591C12.3372 4.25298 12.2687 4.35636 12.2219 4.47013C12.1752 4.5839 12.1511 4.70583 12.1511 4.82898C12.1511 4.95212 12.1752 5.07406 12.2219 5.18783C12.2687 5.3016 12.3372 5.40497 12.4236 5.49205C12.51 5.57912 12.6126 5.64819 12.7254 5.69532C12.8383 5.74244 12.9593 5.7667 13.0814 5.7667C13.3282 5.7667 13.5648 5.6679 13.7393 5.49205C13.9137 5.31619 14.0117 5.07768 14.0117 4.82898C14.0117 4.58028 13.9137 4.34177 13.7393 4.16591C13.5648 3.99005 13.3282 3.89126 13.0814 3.89126ZM13.0814 6.91828C12.5306 6.91828 12.0024 6.69773 11.6129 6.30514C11.2234 5.91254 11.0046 5.38007 11.0046 4.82486C11.0046 4.26965 11.2234 3.73719 11.6129 3.34459C12.0024 2.952 12.5306 2.73145 13.0814 2.73145C13.6323 2.73145 14.1605 2.952 14.55 3.34459C14.9395 3.73719 15.1583 4.26965 15.1583 4.82486C15.1583 5.38007 14.9395 5.91254 14.55 6.30514C14.1605 6.69773 13.6323 6.91828 13.0814 6.91828ZM19.3569 3.89126C19.2348 3.89126 19.1138 3.91551 19.0009 3.96264C18.8881 4.00976 18.7855 4.07883 18.6991 4.16591C18.6127 4.25298 18.5442 4.35636 18.4974 4.47013C18.4507 4.5839 18.4266 4.70583 18.4266 4.82898C18.4266 4.95212 18.4507 5.07406 18.4974 5.18783C18.5442 5.3016 18.6127 5.40497 18.6991 5.49205C18.7855 5.57912 18.8881 5.64819 19.0009 5.69532C19.1138 5.74244 19.2348 5.7667 19.3569 5.7667C19.6037 5.7667 19.8403 5.6679 20.0148 5.49205C20.1892 5.31619 20.2873 5.07768 20.2873 4.82898C20.2873 4.58028 20.1892 4.34177 20.0148 4.16591C19.8403 3.99005 19.6037 3.89126 19.3569 3.89126ZM19.3569 6.91828C18.8061 6.91828 18.2779 6.69773 17.8884 6.30514C17.4989 5.91254 17.2801 5.38007 17.2801 4.82486C17.2801 4.26965 17.4989 3.73719 17.8884 3.34459C18.2779 2.952 18.8061 2.73145 19.3569 2.73145C19.9078 2.73145 20.436 2.952 20.8255 3.34459C21.215 3.73719 21.4338 4.26965 21.4338 4.82486C21.4338 5.38007 21.215 5.91254 20.8255 6.30514C20.436 6.69773 19.9078 6.91828 19.3569 6.91828ZM39.84 20.4905H23.0374C22.8859 20.4905 22.7406 20.4299 22.6334 20.3219C22.5263 20.2139 22.4661 20.0675 22.4661 19.9148C22.4661 19.762 22.5263 19.6156 22.6334 19.5076C22.7406 19.3996 22.8859 19.339 23.0374 19.339H39.84C39.9916 19.339 40.1368 19.3996 40.244 19.5076C40.3511 19.6156 40.4113 19.762 40.4113 19.9148C40.4113 20.0675 40.3511 20.2139 40.244 20.3219C40.1368 20.4299 39.9916 20.4905 39.84 20.4905ZM39.84 25.1051H23.0374C22.8859 25.1051 22.7406 25.0445 22.6334 24.9365C22.5263 24.8285 22.4661 24.682 22.4661 24.5293C22.4661 24.3766 22.5263 24.2302 22.6334 24.1222C22.7406 24.0142 22.8859 23.9535 23.0374 23.9535H39.84C39.9916 23.9535 40.1368 24.0142 40.244 24.1222C40.3511 24.2302 40.4113 24.3766 40.4113 24.5293C40.4113 24.682 40.3511 24.8285 40.244 24.9365C40.1368 25.0445 39.9916 25.1051 39.84 25.1051ZM39.84 29.7361H23.0374C22.8848 29.7361 22.7385 29.675 22.6306 29.5663C22.5227 29.4575 22.4621 29.31 22.4621 29.1562C22.4621 29.0024 22.5227 28.8549 22.6306 28.7462C22.7385 28.6374 22.8848 28.5763 23.0374 28.5763H39.84C39.9916 28.5763 40.1368 28.637 40.244 28.745C40.3511 28.853 40.4113 28.9994 40.4113 29.1521C40.4113 29.3048 40.3511 29.4513 40.244 29.5593C40.1368 29.6673 39.9916 29.7279 39.84 29.7279V29.7361ZM26.4893 34.3425H23.0374C22.8859 34.3425 22.7406 34.2818 22.6334 34.1738C22.5263 34.0659 22.4661 33.9194 22.4661 33.7667C22.4661 33.614 22.5263 33.4675 22.6334 33.3595C22.7406 33.2516 22.8859 33.1909 23.0374 33.1909H26.4893C26.6408 33.1909 26.7861 33.2516 26.8932 33.3595C27.0004 33.4675 27.0605 33.614 27.0605 33.7667C27.0605 33.9194 27.0004 34.0659 26.8932 34.1738C26.7861 34.2818 26.6408 34.3425 26.4893 34.3425ZM39.84 38.9735H37.1797C37.1047 38.9735 37.0304 38.9586 36.9611 38.9297C36.8918 38.9007 36.8288 38.8583 36.7758 38.8049C36.7227 38.7514 36.6806 38.6879 36.6519 38.6181C36.6232 38.5482 36.6085 38.4733 36.6085 38.3977C36.6085 38.3221 36.6232 38.2472 36.6519 38.1774C36.6806 38.1075 36.7227 38.044 36.7758 37.9906C36.8288 37.9371 36.8918 37.8947 36.9611 37.8657C37.0304 37.8368 37.1047 37.8219 37.1797 37.8219H39.84C39.9916 37.8219 40.1368 37.8826 40.244 37.9906C40.3511 38.0985 40.4113 38.245 40.4113 38.3977C40.4113 38.5504 40.3511 38.6969 40.244 38.8049C40.1368 38.9128 39.9916 38.9735 39.84 38.9735ZM39.84 43.5881H23.0374C22.8859 43.5881 22.7406 43.5274 22.6334 43.4194C22.5263 43.3114 22.4661 43.165 22.4661 43.0123C22.4661 42.8596 22.5263 42.7131 22.6334 42.6051C22.7406 42.4971 22.8859 42.4365 23.0374 42.4365H39.84C39.9916 42.4365 40.1368 42.4971 40.244 42.6051C40.3511 42.7131 40.4113 42.8596 40.4113 43.0123C40.4113 43.165 40.3511 43.3114 40.244 43.4194C40.1368 43.5274 39.9916 43.5881 39.84 43.5881ZM39.84 34.3425H30.6431C30.4916 34.3425 30.3463 34.2818 30.2391 34.1738C30.132 34.0659 30.0718 33.9194 30.0718 33.7667C30.0718 33.614 30.132 33.4675 30.2391 33.3595C30.3463 33.2516 30.4916 33.1909 30.6431 33.1909H39.84C39.9916 33.1909 40.1368 33.2516 40.244 33.3595C40.3511 33.4675 40.4113 33.614 40.4113 33.7667C40.4113 33.9194 40.3511 34.0659 40.244 34.1738C40.1368 34.2818 39.9916 34.3425 39.84 34.3425ZM31.4346 38.9735H23.0374C22.9624 38.9735 22.8881 38.9586 22.8188 38.9297C22.7495 38.9007 22.6865 38.8583 22.6334 38.8049C22.5804 38.7514 22.5383 38.6879 22.5096 38.6181C22.4809 38.5482 22.4661 38.4733 22.4661 38.3977C22.4661 38.3221 22.4809 38.2472 22.5096 38.1774C22.5383 38.1075 22.5804 38.044 22.6334 37.9906C22.6865 37.9371 22.7495 37.8947 22.8188 37.8657C22.8881 37.8368 22.9624 37.8219 23.0374 37.8219H31.4428C31.5943 37.8219 31.7396 37.8826 31.8467 37.9906C31.9539 38.0985 32.014 38.245 32.014 38.3977C32.014 38.5504 31.9539 38.6969 31.8467 38.8049C31.7396 38.9128 31.5861 38.9735 31.4346 38.9735Z" fill="#FF7F18"/>
<path d="M21.8283 15.0776C21.2743 15.0776 20.7429 15.2995 20.3511 15.6944C19.9593 16.0893 19.7392 16.6249 19.7392 17.1834V45.7427C19.7392 46.9025 20.6777 47.8485 21.8283 47.8485H41.0466C42.189 47.8485 43.1275 46.9025 43.1275 45.7427V17.1834C43.1275 16.6263 42.9085 16.0919 42.5185 15.6973C42.1285 15.3026 41.5992 15.0798 41.0466 15.0776H21.8283ZM41.0466 49H21.8283C20.9713 49 20.1493 48.6569 19.5433 48.046C18.9372 47.4351 18.5967 46.6066 18.5967 45.7427V17.1834C18.5967 15.382 20.0493 13.926 21.8283 13.926H41.0466C42.8256 13.926 44.2782 15.382 44.2782 17.1834V45.7427C44.2782 46.6066 43.9377 47.4351 43.3316 48.046C42.7256 48.6569 41.9036 49 41.0466 49ZM10.4198 43.6287H13.1128V26.9801H10.4198V43.6287ZM13.6841 44.7803H9.84859C9.69708 44.7803 9.55179 44.7196 9.44466 44.6117C9.33753 44.5037 9.27734 44.3572 9.27734 44.2045V26.4043C9.27734 26.2516 9.33753 26.1051 9.44466 25.9971C9.55179 25.8892 9.69708 25.8285 9.84859 25.8285H13.6841C13.8356 25.8285 13.9809 25.8892 14.088 25.9971C14.1951 26.1051 14.2553 26.2516 14.2553 26.4043V44.2045C14.2553 44.3572 14.1951 44.5037 14.088 44.6117C13.9809 44.7196 13.8356 44.7803 13.6841 44.7803Z" fill="#FF7F18"/>
<path d="M9.27237 25.8283H14.2667V19.3301H9.27237V25.8283ZM14.8379 26.9799H8.70113C8.54962 26.9799 8.40432 26.9192 8.2972 26.8112C8.19007 26.7032 8.12988 26.5568 8.12988 26.4041V18.7543C8.12988 18.6015 8.19007 18.4551 8.2972 18.3471C8.40432 18.2391 8.54962 18.1785 8.70113 18.1785H14.8379C14.9894 18.1785 15.1347 18.2391 15.2418 18.3471C15.349 18.4551 15.4091 18.6015 15.4091 18.7543V26.4041C15.4091 26.5568 15.349 26.7032 15.2418 26.8112C15.1347 26.9192 14.9894 26.9799 14.8379 26.9799Z" fill="#FF7F18"/>
<path d="M11.0107 18.1787H12.5286V15.0776H11.0189L11.0107 18.1787ZM13.108 19.3303H10.4395C10.288 19.3303 10.1427 19.2696 10.0356 19.1616C9.92843 19.0536 9.86824 18.9072 9.86824 18.7545V14.5018C9.86824 14.3491 9.92843 14.2027 10.0356 14.0947C10.1427 13.9867 10.288 13.926 10.4395 13.926H13.108C13.2595 13.926 13.4048 13.9867 13.5119 14.0947C13.6191 14.2027 13.6792 14.3491 13.6792 14.5018V18.7627C13.6792 18.9154 13.6191 19.0619 13.5119 19.1698C13.4048 19.2778 13.2595 19.3303 13.108 19.3303ZM6.2939 35.0659C6.1424 35.0659 5.9971 35.0052 5.88997 34.8972C5.78284 34.7892 5.72266 34.6428 5.72266 34.4901V22.5794C5.72266 22.4267 5.78284 22.2802 5.88997 22.1722C5.9971 22.0642 6.1424 22.0036 6.2939 22.0036H8.70128C8.85278 22.0036 8.99808 22.0642 9.1052 22.1722C9.21233 22.2802 9.27252 22.4267 9.27252 22.5794C9.27252 22.7321 9.21233 22.8785 9.1052 22.9865C8.99808 23.0945 8.85278 23.1552 8.70128 23.1552H6.86514V34.4818C6.86514 34.5575 6.85036 34.6323 6.82166 34.7022C6.79295 34.772 6.75087 34.8355 6.69783 34.889C6.64478 34.9425 6.58181 34.9849 6.5125 35.0138C6.4432 35.0427 6.36892 35.0659 6.2939 35.0659ZM10.7496 44.7885L11.7697 47.0341L12.7979 44.7803L10.7496 44.7885ZM11.7697 49C11.6596 49.0005 11.5518 48.9689 11.4592 48.9091C11.3665 48.8493 11.293 48.7637 11.2474 48.6628L9.32964 44.4431C9.28811 44.3548 9.26953 44.2574 9.27564 44.1599C9.28176 44.0624 9.31238 43.9681 9.36461 43.8859C9.41684 43.8036 9.48897 43.7361 9.57422 43.6897C9.65947 43.6432 9.75503 43.6194 9.85192 43.6205H13.6874C13.7843 43.6194 13.8799 43.6432 13.9651 43.6897C14.0504 43.7361 14.1225 43.8036 14.1747 43.8859C14.2269 43.9681 14.2576 44.0624 14.2637 44.1599C14.2698 44.2574 14.2512 44.3548 14.2097 44.4431L12.2919 48.6628C12.2464 48.7637 12.1728 48.8493 12.0802 48.9091C11.9875 48.9689 11.8797 49.0005 11.7697 49Z" fill="#FF7F18"/>
</svg>
