<svg width="45" height="45" viewBox="0 0 45 45" fill="none" xmlns="http://www.w3.org/2000/svg">
<g clip-path="url(#clip0_1368_14430)">
<path d="M21.7969 10.5469C21.4088 10.5469 21.0938 10.2312 21.0938 9.84375H19.6875C19.6875 11.0067 20.6339 11.9531 21.7969 11.9531V13.3594H23.2031V11.9531H25.3125V9.84375C25.3125 8.68078 24.3661 7.73438 23.2031 7.73438H21.7969C21.4088 7.73438 21.0938 7.41867 21.0938 7.03125V6.32812H23.2031C23.5912 6.32812 23.9062 6.64383 23.9062 7.03125H25.3125C25.3125 5.86828 24.3661 4.92188 23.2031 4.92188V3.51562H21.7969V4.92188H19.6875V7.03125C19.6875 8.19422 20.6339 9.14062 21.7969 9.14062H23.2031C23.5912 9.14062 23.9062 9.45633 23.9062 9.84375V10.5469H21.7969Z" fill="url(#paint0_linear_1368_14430)"/>
<path d="M41.4844 33.0469H40.7812V18.9844H42.8906V15.0567L30.2098 7.95516C29.9587 3.9157 26.602 0.703125 22.5 0.703125C18.398 0.703125 15.0413 3.9157 14.7902 7.95516L2.10938 15.0567V18.9844H4.21875V33.0469H3.51562C1.96453 33.0469 0.703125 34.3083 0.703125 35.8594C0.703125 37.4105 1.96453 38.6719 3.51562 38.6719C4.03031 38.6719 4.50633 38.5228 4.92188 38.2809V44.2969H40.0781V38.2809C40.4937 38.5228 40.9697 38.6719 41.4844 38.6719C43.0355 38.6719 44.2969 37.4105 44.2969 35.8594C44.2969 34.3083 43.0355 33.0469 41.4844 33.0469ZM39.375 33.0469H36.5625V18.9844H39.375V33.0469ZM19.6875 18.9844V33.0469H9.84375V18.9844H19.6875ZM21.0938 18.9844H23.9062V33.0469H21.0938V18.9844ZM25.3125 18.9844H35.1562V33.0469H25.3125V18.9844ZM39.4931 14.7656H26.9332C28.6425 13.5647 29.8399 11.6916 30.1479 9.53227L39.4931 14.7656ZM22.5 2.10938C25.9896 2.10938 28.8281 4.94859 28.8281 8.4375C28.8281 11.9264 25.9896 14.7656 22.5 14.7656C19.0104 14.7656 16.1719 11.9264 16.1719 8.4375C16.1719 4.94859 19.0104 2.10938 22.5 2.10938ZM18.0668 14.7656H5.50688L14.8521 9.53227C15.1601 11.6916 16.3575 13.5647 18.0668 14.7656ZM3.51562 16.1719H41.4844V17.5781H25.3125H19.6875H3.51562V16.1719ZM5.625 18.9844H8.4375V33.0469H5.625V18.9844ZM14.7656 42.8906H10.5469V39.375C10.5469 38.212 11.4933 37.2656 12.6562 37.2656C13.8192 37.2656 14.7656 38.212 14.7656 39.375V42.8906ZM24.6094 42.8906H20.3906V39.375C20.3906 38.212 21.337 37.2656 22.5 37.2656C23.663 37.2656 24.6094 38.212 24.6094 39.375V42.8906ZM34.4531 42.8906H30.2344V39.375C30.2344 38.212 31.1808 37.2656 32.3438 37.2656C33.5067 37.2656 34.4531 38.212 34.4531 39.375V42.8906ZM41.4844 37.2656C40.7088 37.2656 40.0781 36.6349 40.0781 35.8594H38.6719V42.8906H35.8594V39.375C35.8594 37.4365 34.2823 35.8594 32.3438 35.8594C30.4052 35.8594 28.8281 37.4365 28.8281 39.375V42.8906H26.0156V39.375C26.0156 37.4365 24.4385 35.8594 22.5 35.8594C20.5615 35.8594 18.9844 37.4365 18.9844 39.375V42.8906H16.1719V39.375C16.1719 37.4365 14.5948 35.8594 12.6562 35.8594C10.7177 35.8594 9.14062 37.4365 9.14062 39.375V42.8906H6.32812V35.8594H4.92188C4.92188 36.6349 4.29117 37.2656 3.51562 37.2656C2.74008 37.2656 2.10938 36.6349 2.10938 35.8594C2.10938 35.0838 2.74008 34.4531 3.51562 34.4531H19.6875H25.3125H41.4844C42.2599 34.4531 42.8906 35.0838 42.8906 35.8594C42.8906 36.6349 42.2599 37.2656 41.4844 37.2656Z" fill="url(#paint1_linear_1368_14430)"/>
<path d="M26.7188 20.3906V31.6406H33.75V20.3906H26.7188ZM32.3438 30.2344H28.125V21.7969H32.3438V30.2344Z" fill="url(#paint2_linear_1368_14430)"/>
<path d="M18.2812 31.6406V20.3906H11.25V31.6406H18.2812ZM12.6562 21.7969H16.875V30.2344H12.6562V21.7969Z" fill="url(#paint3_linear_1368_14430)"/>
</g>
<defs>
<linearGradient id="paint0_linear_1368_14430" x1="19.575" y1="8.43751" x2="25.3125" y2="8.43751" gradientUnits="userSpaceOnUse">
<stop stop-color="#F86CA7"/>
<stop offset="1" stop-color="#FF7F18"/>
</linearGradient>
<linearGradient id="paint1_linear_1368_14430" x1="-0.16875" y1="22.5" x2="44.2969" y2="22.5" gradientUnits="userSpaceOnUse">
<stop stop-color="#F86CA7"/>
<stop offset="1" stop-color="#FF7F18"/>
</linearGradient>
<linearGradient id="paint2_linear_1368_14430" x1="26.5781" y1="26.0156" x2="33.75" y2="26.0156" gradientUnits="userSpaceOnUse">
<stop stop-color="#F86CA7"/>
<stop offset="1" stop-color="#FF7F18"/>
</linearGradient>
<linearGradient id="paint3_linear_1368_14430" x1="11.1094" y1="26.0156" x2="18.2813" y2="26.0156" gradientUnits="userSpaceOnUse">
<stop stop-color="#F86CA7"/>
<stop offset="1" stop-color="#FF7F18"/>
</linearGradient>
<clipPath id="clip0_1368_14430">
<rect width="45" height="45" fill="white"/>
</clipPath>
</defs>
</svg>
