<svg width="50" height="50" viewBox="0 0 50 50" fill="none" xmlns="http://www.w3.org/2000/svg">
<g clip-path="url(#clip0_1111_295)">
<path d="M46.875 21.0938H36.3992C37.532 18.3156 38.2812 15.8156 38.2812 14.0625C38.2812 6.73906 32.3234 0.78125 25 0.78125C17.6766 0.78125 11.7188 6.73906 11.7188 14.0625C11.7188 15.8156 12.468 18.3156 13.6008 21.0938H9.375V17.1875C9.375 15.8953 8.32344 14.8438 7.03125 14.8438H5.46875C2.88359 14.8438 0.78125 16.9461 0.78125 19.5312V44.5312C0.78125 47.1164 2.88359 49.2188 5.46875 49.2188H46.875C48.1672 49.2188 49.2188 48.1672 49.2188 46.875V23.4375C49.2188 22.1453 48.1672 21.0938 46.875 21.0938ZM31.4789 35.7086L43.4266 47.6562H40.1672L28.6453 36.1344C29.4406 34.7828 30.3312 33.2328 31.2453 31.5781L40.1672 22.6562H43.4266L31.4789 34.6039C31.1734 34.9094 31.1734 35.4031 31.4789 35.7086ZM21.9359 37.1156L11.3953 47.6562H7.27266C8.28828 46.6148 9.93984 44.8852 12.7188 41.9742L20.1961 34.1406C20.818 35.2258 21.4055 36.2266 21.9359 37.1156ZM22.7648 38.4961C23.6383 39.9359 24.2352 40.8781 24.3406 41.0438C24.4844 41.2695 24.7328 41.4062 25 41.4062C25.2672 41.4062 25.5156 41.2695 25.6594 41.0438C25.7875 40.843 26.6297 39.5125 27.8227 37.5211L37.9578 47.6562H13.6047L22.7648 38.4961ZM37.9578 22.6562L33.7281 26.8859C34.4438 25.4656 35.1242 24.0398 35.7336 22.6562H37.9578ZM25 2.34375C31.4617 2.34375 36.7188 7.60078 36.7188 14.0625C36.7188 19.7656 27.5641 34.9953 25 39.1484C22.4359 34.9953 13.2812 19.7656 13.2812 14.0625C13.2812 7.60078 18.5383 2.34375 25 2.34375ZM2.34375 19.5312C2.34375 17.8078 3.74531 16.4062 5.46875 16.4062H7.03125C7.4625 16.4062 7.8125 16.7563 7.8125 17.1875V39.0625C7.8125 39.4938 7.4625 39.8438 7.03125 39.8438H5.46875C4.26953 39.8438 3.17344 40.2969 2.34375 41.0398V19.5312ZM2.34375 44.5312C2.34375 42.8078 3.74531 41.4062 5.46875 41.4062H7.03125C8.32344 41.4062 9.375 40.3547 9.375 39.0625V22.6562H14.2664C15.7375 25.9969 17.6352 29.5953 19.3914 32.7211L11.5891 40.8953C8.64375 43.9813 5.97656 46.7758 5.16484 47.6258C3.58516 47.4695 2.34375 46.1508 2.34375 44.5312ZM47.6562 46.875C47.6562 47.3063 47.3063 47.6562 46.875 47.6562H45.6359L33.1359 35.1562L45.6359 22.6562H46.875C47.3063 22.6562 47.6562 23.0063 47.6562 23.4375V46.875Z" fill="#FF7F18"/>
<path d="M35.1562 14.0625C35.1562 8.4625 30.6 3.90625 25 3.90625C19.4 3.90625 14.8438 8.4625 14.8438 14.0625C14.8438 19.6625 19.4 24.2188 25 24.2188C30.6 24.2188 35.1562 19.6625 35.1562 14.0625ZM16.4062 14.0625C16.4062 9.32422 20.2617 5.46875 25 5.46875C29.7383 5.46875 33.5938 9.32422 33.5938 14.0625C33.5938 18.8008 29.7383 22.6562 25 22.6562C20.2617 22.6562 16.4062 18.8008 16.4062 14.0625Z" fill="#FF7F18"/>
<path d="M17.9688 11.7188V14.0625C17.9688 14.4945 18.318 14.8438 18.75 14.8438H20.3125V15.625H17.9688V17.1875H21.0938C21.5258 17.1875 21.875 16.8383 21.875 16.4062V14.0625C21.875 13.6305 21.5258 13.2812 21.0938 13.2812H19.5312V12.5H21.875V10.9375H18.75C18.318 10.9375 17.9688 11.2867 17.9688 11.7188Z" fill="#FF7F18"/>
<path d="M26.5625 15.625H24.2188V14.8438H25.7812V13.2812H24.2188V12.5H26.5625V10.9375H23.4375C23.0055 10.9375 22.6562 11.2867 22.6562 11.7188V16.4062C22.6562 16.8383 23.0055 17.1875 23.4375 17.1875H26.5625V15.625Z" fill="#FF7F18"/>
<path d="M28.125 17.1875H31.25C31.682 17.1875 32.0312 16.8383 32.0312 16.4062V11.7188C32.0312 11.2867 31.682 10.9375 31.25 10.9375H28.125C27.693 10.9375 27.3438 11.2867 27.3438 11.7188V16.4062C27.3438 16.8383 27.693 17.1875 28.125 17.1875ZM28.9062 12.5H30.4688V15.625H28.9062V12.5Z" fill="#FF7F18"/>
</g>
<defs>
<clipPath id="clip0_1111_295">
<rect width="50" height="50" fill="white"/>
</clipPath>
</defs>
</svg>
