<svg width="50" height="50" viewBox="0 0 50 50" fill="none" xmlns="http://www.w3.org/2000/svg">
<path d="M8.92241 18.3342C8.51147 18.2014 8.28921 17.7584 8.41147 17.3486C8.54467 16.9389 8.98921 16.7174 9.40014 16.8506C10.7005 17.2604 11.8333 18.0576 12.6669 19.0986C13.3224 19.9182 13.8005 20.8924 14.0228 21.9666C14.3115 21.9225 14.6005 21.9002 14.8896 21.9002C16.5673 21.9002 18.1005 22.5869 19.2009 23.683C20.3009 24.7791 20.9787 26.2963 20.9787 27.9795C20.9787 28.4111 20.6345 28.7545 20.2009 28.7545C19.7677 28.7545 19.4123 28.4111 19.4123 27.9795C19.4123 26.7283 18.9123 25.5986 18.09 24.7901C17.2677 23.9705 16.1455 23.4615 14.89 23.4615C14.1119 23.4615 13.39 23.6608 12.7568 23.9932C12.1009 24.3475 11.5455 24.8569 11.1232 25.4662C10.89 25.8319 10.4009 25.9201 10.0455 25.6873C9.67866 25.444 9.5896 24.9565 9.82319 24.6022C10.3787 23.7717 11.1341 23.0963 12.0232 22.6197C12.1787 22.5311 12.3455 22.4537 12.5119 22.3873C12.3455 21.5236 11.9787 20.7264 11.4455 20.0733C10.8001 19.2643 9.92241 18.6553 8.92241 18.3342ZM17.0669 40.2041C16.7115 40.4369 16.2224 40.3373 15.9892 39.9717C15.7669 39.6061 15.8669 39.1303 16.2333 38.8975C16.7447 38.5655 17.3115 38.3108 17.9224 38.1444C18.5111 37.9783 19.1337 37.8787 19.7779 37.8787C21.4447 37.8787 22.9447 38.4764 24.0447 39.4291C25.1779 40.4143 25.8669 41.7764 25.8669 43.2936C25.8669 43.7252 25.5228 44.0686 25.0892 44.0686C24.656 44.0686 24.3001 43.7252 24.3001 43.2936C24.3001 42.2416 23.8115 41.3002 23.0224 40.6026C22.2001 39.8944 21.0556 39.4514 19.7779 39.4514C19.2779 39.4514 18.8005 39.5178 18.3447 39.6393C17.8783 39.7721 17.456 39.9717 17.0669 40.2041ZM7.10014 27.6358C7.52241 27.5916 7.91147 27.9018 7.95561 28.3334C7.98881 28.7651 7.67788 29.142 7.24467 29.1865C6.64467 29.242 6.06694 29.242 5.51108 29.1756C4.94428 29.1092 4.39975 28.9756 3.87788 28.7768C3.47788 28.6326 3.26694 28.1787 3.42241 27.7799C3.56655 27.3811 4.02202 27.1709 4.42241 27.326C4.81147 27.4701 5.24467 27.5697 5.70014 27.6252C6.14467 27.6799 6.61147 27.6799 7.10014 27.6358ZM16.3669 3.67286C16.4783 3.2631 16.9005 3.00841 17.3115 3.10841C17.7337 3.20802 17.9892 3.62872 17.8892 4.04943C17.8337 4.27091 17.7892 4.61427 17.8228 5.02404C17.8451 5.32286 17.9115 5.65529 18.0451 5.96505C18.2119 6.36388 18.0119 6.81779 17.6119 6.9838C17.2228 7.13888 16.7564 6.9506 16.6009 6.55177C16.4009 6.06466 16.3009 5.58849 16.2677 5.14552C16.2228 4.5588 16.2896 4.03849 16.3669 3.67286ZM18.756 15.0342C18.3228 15.0342 17.9669 14.6799 17.9669 14.2479C17.9669 13.8162 18.3224 13.4619 18.756 13.4619C19.656 13.4619 20.4783 13.8272 21.0673 14.4252C21.656 15.0123 22.0228 15.8319 22.0228 16.7283C22.0228 17.6252 21.656 18.4447 21.0673 19.0319C20.4783 19.6295 19.656 19.9951 18.756 19.9951C18.3228 19.9951 17.9669 19.6408 17.9669 19.2088C17.9669 18.7768 18.3224 18.4338 18.756 18.4338C19.2228 18.4338 19.6451 18.2346 19.956 17.9354C20.2673 17.6256 20.4564 17.2045 20.4564 16.7283C20.4564 16.2635 20.2673 15.8315 19.956 15.5326C19.6451 15.2225 19.2228 15.0342 18.756 15.0342ZM6.56733 37.1483C6.356 37.5248 5.87827 37.6576 5.50053 37.4475C5.13413 37.2369 5.00053 36.7604 5.21147 36.3838C5.53374 35.8303 5.93374 35.31 6.3892 34.867C6.856 34.4237 7.37827 34.0475 7.956 33.7487C8.33374 33.5604 8.81147 33.7045 9.01186 34.092C9.20053 34.4686 9.05639 34.9447 8.66733 35.1436C8.23413 35.3651 7.83413 35.653 7.47827 35.9963C7.12241 36.3393 6.81147 36.7268 6.56733 37.1483ZM18.1228 33.826C18.4896 33.6158 18.9677 33.7373 19.1896 34.1139C19.4005 34.4795 19.2783 34.9666 18.9005 35.1768C17.9451 35.7307 16.856 35.8412 15.8673 35.5756C14.8896 35.31 14.0005 34.6787 13.4451 33.7268C12.8896 32.7744 12.7783 31.6893 13.0451 30.7041C13.3119 29.7186 13.9564 28.8322 14.9119 28.2897C15.2787 28.0682 15.7564 28.2006 15.9783 28.5772C16.1896 28.9428 16.056 29.419 15.6896 29.6408C15.1119 29.9733 14.7228 30.5045 14.5564 31.1022C14.4009 31.7002 14.4673 32.3647 14.8005 32.9405C15.1341 33.5162 15.6787 33.9037 16.2787 34.0701C16.8783 34.2244 17.5341 34.158 18.1228 33.826ZM12.3224 11.4244C12.0556 11.0811 12.1111 10.594 12.4556 10.3279C12.7892 10.0623 13.2892 10.1174 13.5556 10.4608C13.6224 10.5494 13.7001 10.6381 13.7669 10.7045C14.0673 10.9928 14.4228 11.2143 14.8337 11.2475C15.256 11.2916 15.7669 11.1365 16.3556 10.6713C16.5111 10.5385 16.6779 10.4057 16.8333 10.2506L16.8443 10.2283C17.6111 9.5088 18.4556 9.10997 19.2775 8.9549C20.2552 8.78888 21.1888 8.9549 21.933 9.3424C22.322 9.54162 22.4662 10.0178 22.2662 10.3944C22.0662 10.7819 21.5994 10.926 21.2107 10.7264C20.7552 10.4826 20.1662 10.3834 19.5552 10.494C19.0107 10.5936 18.4443 10.8596 17.922 11.3576C17.722 11.5682 17.522 11.7451 17.322 11.8893C16.3775 12.6311 15.4884 12.8748 14.6884 12.7971C13.8771 12.7307 13.1884 12.3322 12.6662 11.8119C12.5451 11.6791 12.4228 11.5572 12.3224 11.4244Z" fill="url(#paint0_linear_1357_545)"/>
<path d="M25.6671 9.51982C25.2339 9.51982 24.8894 9.16553 24.8894 8.7335C24.8894 8.30146 25.2339 7.9585 25.6671 7.9585H29.1894C29.3229 7.571 29.5339 7.23896 29.812 6.96201C30.2675 6.50771 30.8894 6.22021 31.5897 6.22021C32.2897 6.22021 32.912 6.50811 33.3784 6.96201C33.8343 7.41592 34.112 8.04717 34.112 8.73389C34.112 9.43154 33.8343 10.0624 33.3784 10.5163C32.912 10.9706 32.2897 11.2476 31.5897 11.2476C30.8894 11.2476 30.2675 10.971 29.812 10.5163C29.5339 10.2397 29.3229 9.89639 29.1894 9.51982H25.6671ZM36.8897 33.7706C37.3229 33.7706 37.6788 33.4163 37.6788 32.9843C37.6788 32.5522 37.3233 32.2093 36.8897 32.2093C36.4562 32.2093 36.112 32.5526 36.112 32.9843C36.112 33.4159 36.4562 33.7706 36.8897 33.7706ZM36.8897 35.1987C37.5003 35.1987 38.0562 34.9554 38.4675 34.5456C38.8675 34.1468 39.1116 33.5933 39.1116 32.9843C39.1116 32.3753 38.8675 31.8214 38.4675 31.423C38.0562 31.0241 37.5003 30.7808 36.8897 30.7808C36.2784 30.7808 35.723 31.0241 35.323 31.423C34.923 31.8218 34.6788 32.3753 34.6788 32.9843C34.6788 33.5933 34.923 34.1472 35.323 34.5456C35.7226 34.9554 36.278 35.1987 36.8897 35.1987ZM25.0894 31.2351C24.6562 31.2351 24.3003 30.8808 24.3003 30.4487C24.3003 30.0167 24.6562 29.6737 25.0894 29.6737H31.2671C31.4007 29.6737 31.5116 29.696 31.6226 29.7511L33.9116 30.6589C34.0007 30.5483 34.1116 30.4265 34.2116 30.3159C34.9007 29.6405 35.8448 29.2085 36.8894 29.2085C37.9335 29.2085 38.8894 29.6401 39.5667 30.3159C40.2558 31.0022 40.678 31.9433 40.678 32.9843C40.678 34.0253 40.2558 34.9776 39.5667 35.6526C38.8894 36.3394 37.9331 36.7601 36.8894 36.7601C35.8444 36.7601 34.9003 36.3394 34.2116 35.6526C33.5339 34.9772 33.112 34.0253 33.112 32.9843C33.112 32.6741 33.1452 32.3644 33.223 32.0651L31.123 31.2347H25.0894V31.2351ZM25.0894 41.0124C24.6562 41.0124 24.3003 40.6694 24.3003 40.2378C24.3003 39.8062 24.6562 39.4515 25.0894 39.4515H29.7671C29.8894 39.0749 30.1007 38.7315 30.378 38.4546C30.8335 38.0007 31.4671 37.7237 32.1671 37.7237C32.8558 37.7237 33.4894 38.0007 33.9448 38.4546C34.4003 38.9085 34.6894 39.5397 34.6894 40.2374C34.6894 40.9347 34.4003 41.555 33.9448 42.0089C33.4894 42.4628 32.8558 42.7507 32.1671 42.7507C31.4671 42.7507 30.8335 42.4628 30.378 42.0089C30.1003 41.7319 29.889 41.3995 29.7671 41.012H25.0894V41.0124ZM32.8339 39.562C32.6675 39.396 32.4226 39.2851 32.1675 39.2851C31.9007 39.2851 31.6558 39.396 31.4897 39.562C31.312 39.739 31.2116 39.9718 31.2116 40.2374C31.2116 40.503 31.312 40.7355 31.4897 40.9128C31.6562 41.0792 31.9011 41.1897 32.1675 41.1897C32.4226 41.1897 32.6675 41.0792 32.8339 40.9128C33.012 40.7358 33.112 40.503 33.112 40.2374C33.112 39.9718 33.012 39.739 32.8339 39.562ZM36.8897 14.6687C37.3229 14.6687 37.6788 15.012 37.6788 15.444C37.6788 15.8761 37.3233 16.2304 36.8897 16.2304C36.4562 16.2304 36.112 15.8761 36.112 15.444C36.112 15.012 36.4562 14.6687 36.8897 14.6687ZM41.0116 23.3726C41.4448 23.3726 41.8007 23.7155 41.8007 24.1476C41.8007 24.5796 41.4452 24.9339 41.0116 24.9339C40.578 24.9339 40.2339 24.5796 40.2339 24.1476C40.2339 23.7155 40.5784 23.3726 41.0116 23.3726ZM25.0894 24.9339C24.6562 24.9339 24.3003 24.5796 24.3003 24.1476C24.3003 23.7155 24.6562 23.3726 25.0894 23.3726H37.312C37.4671 22.6413 37.8339 21.9882 38.3339 21.4788C39.023 20.8034 39.9675 20.3718 41.0116 20.3718C42.0671 20.3718 43.0116 20.8034 43.6894 21.4788C44.3784 22.1655 44.8007 23.1065 44.8007 24.1476C44.8007 25.1886 44.3784 26.1409 43.6894 26.8163C43.0116 27.503 42.0671 27.9237 41.0116 27.9237C39.9671 27.9237 39.0226 27.503 38.3339 26.8163C37.8339 26.3069 37.4671 25.6647 37.312 24.9339H25.0894ZM39.4452 25.7202C39.8452 26.119 40.4007 26.3628 41.012 26.3628C41.6343 26.3628 42.1901 26.119 42.5901 25.7202C42.9897 25.3108 43.2339 24.7569 43.2339 24.148C43.2339 23.539 42.9897 22.9855 42.5901 22.5866C42.1901 22.1878 41.6343 21.9444 41.012 21.9444C40.4011 21.9444 39.8456 22.1882 39.4452 22.5866C38.5784 23.4503 38.5784 24.8565 39.4452 25.7202ZM25.0894 18.7659C24.6562 18.7659 24.3003 18.4116 24.3003 17.9796C24.3003 17.5479 24.6562 17.2046 25.0894 17.2046H31.123L33.223 16.3741C33.1452 16.0749 33.112 15.7651 33.112 15.444C33.112 14.403 33.5339 13.462 34.2116 12.7753C34.9007 12.0999 35.8448 11.6792 36.8894 11.6792C37.9335 11.6792 38.8894 12.0999 39.5667 12.7753C40.2558 13.462 40.678 14.403 40.678 15.444C40.678 16.4851 40.2558 17.4374 39.5667 18.1128C38.8894 18.7991 37.9331 19.2202 36.8894 19.2202C35.8444 19.2202 34.9003 18.7991 34.2116 18.1128C34.1116 18.0022 34.0007 17.8913 33.9116 17.7694L31.6226 18.6776C31.5116 18.7331 31.4007 18.7663 31.2671 18.7663H25.0894V18.7659ZM38.4675 13.8827C38.0562 13.4839 37.5003 13.2405 36.8897 13.2405C36.2784 13.2405 35.723 13.4843 35.323 13.8827C34.923 14.2815 34.6788 14.8351 34.6788 15.444C34.6788 16.053 34.923 16.6069 35.323 17.0163C35.7226 17.4151 36.278 17.6585 36.8897 17.6585C37.5003 17.6585 38.0562 17.4147 38.4675 17.0163C38.8675 16.6065 39.1116 16.053 39.1116 15.444C39.1116 14.8351 38.8675 14.2815 38.4675 13.8827ZM32.2675 8.05811C32.0894 7.89209 31.8562 7.78115 31.5897 7.78115C31.3233 7.78115 31.0897 7.89209 30.9124 8.05811C30.7452 8.23506 30.6343 8.46748 30.6343 8.7335C30.6343 8.99912 30.7452 9.23154 30.9124 9.40889C31.0897 9.5749 31.3233 9.68545 31.5897 9.68545C31.8562 9.68545 32.0894 9.5749 32.2675 9.40889C32.4339 9.23154 32.5448 8.99912 32.5448 8.7335C32.5444 8.46787 32.4335 8.23506 32.2675 8.05811Z" fill="url(#paint1_linear_1357_545)"/>
<path d="M24.3004 3.94982V43.2381C24.3004 45.7854 22.6781 48.1217 20.0559 48.4092C19.3445 48.4869 18.6113 48.3983 17.9336 48.1549C16.6223 47.6678 15.5113 46.5604 15.1223 44.8217C15.0109 44.3233 14.4445 44.0686 13.9891 44.3119C12.7223 44.91 11.4336 45.0983 10.2668 44.9432C9.2 44.8104 8.22226 44.3674 7.4668 43.7029C6.71133 43.0385 6.17812 42.1307 5.95586 41.0342C5.73359 39.894 5.85586 38.5537 6.44453 37.0479C6.6 36.649 6.40039 36.1951 5.98906 36.0401C5.8668 35.9959 5.74492 35.9846 5.62226 35.9959C4.6668 36.1069 3.83359 35.7084 3.22226 35.0436C2.81094 34.5897 2.5 34.0026 2.32226 33.3717C2.14414 32.7404 2.1 32.0541 2.22226 31.4006C2.42226 30.349 3.07773 29.3522 4.31133 28.7541C4.93359 28.4549 4.88906 27.5803 4.2668 27.3256C3.31133 26.894 2.58906 26.1186 2.12226 25.1885C1.7 24.3139 1.5 23.3061 1.58906 22.3092C1.66679 21.324 2.01133 20.3604 2.65586 19.5631C3.33359 18.7326 4.35586 18.0682 5.75586 17.7471C6.25586 17.6252 6.5 17.0826 6.27773 16.6401C5.85547 15.7764 5.64453 14.7795 5.6668 13.794C5.68945 12.908 5.90039 12.0444 6.31133 11.2916C6.71094 10.5608 7.32226 9.94083 8.13359 9.53107C8.84492 9.17677 9.72266 8.98849 10.7672 9.01037C11.2004 9.0213 11.5562 8.67794 11.5672 8.2463C11.5672 8.20216 11.5672 8.14669 11.5562 8.09161C11.4562 7.4049 11.5562 6.70724 11.823 6.07599C12.0344 5.58888 12.3453 5.15685 12.7453 4.82482C13.1449 4.50372 13.634 4.2713 14.2008 4.18263C14.8898 4.07169 15.7117 4.18263 16.6449 4.58146C17.0449 4.74747 17.5117 4.55919 17.6785 4.16076C18.234 2.95372 19.1008 2.18966 20.0121 1.82404C20.6121 1.58029 21.2344 1.51427 21.8121 1.59161C23.1004 1.75724 24.1895 2.63185 24.3004 3.94982ZM25.034 46.649C25.534 47.6455 26.2336 48.4205 27.0563 48.9744C27.8781 49.5279 28.8117 49.8604 29.7672 49.9596C30.7227 50.0701 31.7004 49.9487 32.6008 49.6162C34.1449 49.0518 35.4785 47.8557 36.1449 46.051C37.434 46.5158 38.7227 46.6487 39.9336 46.494C41.323 46.3057 42.5898 45.7408 43.5785 44.8658C44.5785 43.9799 45.2895 42.7733 45.5785 41.3334C45.8004 40.2037 45.7559 38.9194 45.3672 37.5244C46.3785 37.3697 47.2563 36.8373 47.934 36.0959C48.5117 35.4533 48.9449 34.6561 49.1895 33.7928C49.4231 32.9401 49.4781 32.0104 49.3117 31.1131C49.0891 29.9729 48.5113 28.8983 47.5004 28.0678C48.2559 27.4811 48.8559 26.7279 49.2781 25.8756C49.8336 24.7459 50.0781 23.4506 49.9781 22.1881C49.8672 20.9037 49.4113 19.6412 48.5672 18.5893C47.8336 17.6815 46.8117 16.9393 45.4785 16.4744C45.7781 15.6108 45.923 14.6807 45.9008 13.7502C45.8672 12.6319 45.6004 11.5135 45.0563 10.5389C44.5113 9.5424 43.6781 8.68966 42.5672 8.13615C41.8449 7.78185 41.0004 7.54943 40.0449 7.47169C40.034 6.77365 39.8895 6.08732 39.6117 5.4674C39.3117 4.7588 38.8453 4.11661 38.2449 3.62911C37.6453 3.13107 36.9008 2.77638 36.0449 2.64357C35.2559 2.52169 34.3781 2.5881 33.4227 2.88732C32.6895 1.63575 31.6559 0.816614 30.5559 0.373645C29.7117 0.0416138 28.8227 -0.0693237 27.9891 0.0416138C27.1336 0.152161 26.3449 0.49552 25.7113 1.0381C25.4672 1.23732 25.2559 1.48107 25.0559 1.74669C24.3559 0.827551 23.2445 0.207629 22.0113 0.0416138C21.1781 -0.0693237 20.2891 0.0416138 19.4445 0.373645C18.3445 0.816614 17.3113 1.63575 16.5777 2.88732C15.6223 2.5881 14.7445 2.52169 13.9555 2.64357C13.1 2.77638 12.3555 3.13107 11.7445 3.62911C11.1445 4.11622 10.6887 4.7588 10.3777 5.4674C10.1109 6.08732 9.96641 6.77404 9.95547 7.47169C8.98867 7.54904 8.15547 7.78146 7.4332 8.13615C6.31094 8.68966 5.48867 9.5424 4.94414 10.5389C4.39961 11.5135 4.13281 12.6319 4.09961 13.7502C4.07734 14.6803 4.22187 15.6108 4.52187 16.4744C3.18828 16.9393 2.1664 17.6815 1.43281 18.5893C0.577341 19.6416 0.121873 20.9037 0.0218725 22.1881C-0.0781275 23.4506 0.166404 24.7459 0.721873 25.8756C1.14414 26.7283 1.74414 27.4811 2.49961 28.0678C1.47734 28.8983 0.899607 29.9729 0.688279 31.1131C0.510544 32.0104 0.566013 32.9404 0.810544 33.7928C1.05508 34.6565 1.48828 35.4537 2.06601 36.0959C2.74375 36.8373 3.62148 37.3697 4.63281 37.5244C4.24375 38.9194 4.19961 40.2037 4.42148 41.3334C4.71055 42.7733 5.42148 43.9799 6.42148 44.8658C7.41055 45.7408 8.67695 46.3057 10.066 46.494C11.266 46.6487 12.566 46.5162 13.8551 46.051C14.5219 47.8557 15.8551 49.0518 17.3996 49.6162C18.2996 49.9487 19.2773 50.0701 20.2332 49.9596C22.4004 49.7158 24.1004 48.4205 25.034 46.649ZM25.8672 3.94982C25.9453 3.19669 26.2559 2.60958 26.7227 2.21115C27.1223 1.87911 27.634 1.65763 28.1895 1.59122C28.7672 1.51388 29.3895 1.58029 29.9781 1.82365C31.0117 2.23341 31.9008 3.15255 32.3227 4.1713C32.5004 4.57013 32.9559 4.74708 33.3563 4.58107C34.2898 4.18224 35.1121 4.07169 35.8008 4.18224C36.3676 4.27091 36.8566 4.50333 37.2566 4.82443C37.6566 5.15646 37.968 5.58849 38.1789 6.0756C38.4457 6.70685 38.5453 7.40451 38.4457 8.09122C38.3563 8.57833 38.7344 9.0213 39.2234 9.01037C40.2789 8.9881 41.1566 9.17638 41.868 9.53107C42.6789 9.94083 43.2902 10.5608 43.6902 11.2916C44.1012 12.0447 44.3125 12.9084 44.3344 13.794C44.357 14.7795 44.1457 15.7764 43.7121 16.6401C43.5121 17.1494 43.7012 17.6147 44.2457 17.7471C45.6453 18.0682 46.668 18.7326 47.3457 19.5631C47.9902 20.3604 48.3348 21.3236 48.4121 22.3092C48.4898 23.3061 48.3008 24.3135 47.8789 25.1885C47.4121 26.1186 46.6902 26.894 45.7231 27.3256C45.5563 27.4033 45.4008 27.5361 45.3231 27.7131C45.1348 28.1006 45.2898 28.5658 45.6789 28.7541C46.9234 29.3522 47.568 30.349 47.7789 31.4006C47.9012 32.0541 47.8563 32.7404 47.6789 33.3717C47.2676 34.8447 46.0566 36.1955 44.3898 35.9959H44.3789C44.2566 35.985 44.1231 35.9959 44.0008 36.0401C43.6012 36.1951 43.4012 36.6494 43.5563 37.0479C44.1453 38.5537 44.2676 39.894 44.0344 41.0342C43.8234 42.1307 43.2785 43.0385 42.5344 43.7029C41.7785 44.3674 40.8008 44.8104 39.7344 44.9432C38.5563 45.0979 37.2785 44.91 36.0008 44.3119C35.5563 44.0686 34.9895 44.3229 34.8785 44.8217C34.4895 46.5604 33.3781 47.6678 32.0672 48.1549C31.3898 48.3983 30.6562 48.4873 29.9449 48.4092C29.234 48.3319 28.5449 48.0885 27.934 47.6787C26.734 46.8815 25.8672 45.3975 25.8672 43.2381V3.94982Z" fill="url(#paint2_linear_1357_545)"/>
<defs>
<linearGradient id="paint0_linear_1357_545" x1="2.2463" y1="25.2169" x2="25.8804" y2="25.5876" gradientUnits="userSpaceOnUse">
<stop stop-color="#006CE4"/>
<stop offset="1" stop-color="#00B98D"/>
</linearGradient>
<linearGradient id="paint1_linear_1357_545" x1="23.2753" y1="25.9467" x2="44.8127" y2="26.292" gradientUnits="userSpaceOnUse">
<stop stop-color="#006CE4"/>
<stop offset="1" stop-color="#00B98D"/>
</linearGradient>
<linearGradient id="paint2_linear_1357_545" x1="-2.5" y1="26.9997" x2="50" y2="28.4997" gradientUnits="userSpaceOnUse">
<stop stop-color="#006CE4"/>
<stop offset="1" stop-color="#00B98D"/>
</linearGradient>
</defs>
</svg>
