<svg width="134" height="134" viewBox="0 0 134 134" fill="none" xmlns="http://www.w3.org/2000/svg">
<circle cx="67" cy="67" r="67" fill="white"/>
<circle opacity="0.5" cx="67" cy="67" r="59.5" stroke="url(#paint0_linear_1535_2214)" stroke-dasharray="2 2"/>
<g clip-path="url(#clip0_1535_2214)">
<path d="M67.0378 57.9502C62.048 57.9502 57.9883 62.0099 57.9883 66.9999C57.9883 68.0674 58.1727 69.1133 58.5367 70.1085C58.7818 70.7784 59.5231 71.1229 60.1934 70.8779C60.8632 70.6328 61.2078 69.8912 60.9629 69.2211C60.7032 68.5111 60.5716 67.7637 60.5716 66.9998C60.5716 63.4342 63.4723 60.5333 67.0378 60.5333C70.6034 60.5333 73.5041 63.4342 73.5041 66.9998C73.5041 70.5653 70.6034 73.4662 67.0378 73.4662C65.8603 73.4662 64.7084 73.147 63.7062 72.5431C63.0957 72.1754 62.3015 72.3719 61.9333 72.9827C61.5652 73.5937 61.762 74.3876 62.373 74.7558C63.7777 75.6023 65.3906 76.0497 67.038 76.0497C72.0279 76.0497 76.0876 71.99 76.0876 66.9999C76.0872 62.0099 72.0277 57.9502 67.0378 57.9502Z" fill="url(#paint1_linear_1535_2214)"/>
<path d="M85.6143 63.3642L83.2192 63.0041C82.8185 61.3718 82.1771 59.8242 81.3047 58.3844L82.7445 56.4354C83.4746 55.4466 83.3739 54.098 82.5049 53.229L80.809 51.533C79.9398 50.664 78.5916 50.5634 77.6028 51.2934L75.6538 52.733C74.2141 51.8604 72.6666 51.219 71.0343 50.8183L70.6744 48.4232C70.4915 47.2077 69.4668 46.3257 68.2377 46.3257H65.8394C64.6103 46.3257 63.5856 47.2079 63.4027 48.4232L63.0426 50.8183C61.4105 51.219 59.8631 51.8602 58.4231 52.733L56.4741 51.2932C55.4856 50.5631 54.1372 50.664 53.2681 51.533L51.5725 53.2289C50.703 54.098 50.6021 55.4466 51.3328 56.4355L52.7722 58.3844C51.8996 59.8241 51.2582 61.3718 50.8579 63.0041L48.4631 63.3642C47.2475 63.5467 46.3652 64.5714 46.3652 65.8008V68.1992C46.3652 69.4286 47.2475 70.4533 48.4628 70.6359L50.8579 70.9959C51.2583 72.6282 51.8998 74.1758 52.7722 75.6156L51.3328 77.5645C50.6021 78.5534 50.703 79.902 51.5722 80.771L53.2681 82.467C54.1374 83.336 55.4858 83.4368 56.4742 82.7065L58.4231 81.2668C59.8631 82.1396 61.4103 82.7809 63.0426 83.1815L63.4027 85.5766C63.5856 86.7921 64.6103 87.6742 65.8394 87.6742H68.2375C69.4666 87.6742 70.4913 86.7919 70.6742 85.5764L71.0341 83.1815C72.6664 82.7809 74.214 82.1394 75.6536 81.2668L77.6028 82.7066C78.5913 83.4368 79.9398 83.3359 80.8088 82.467L82.5047 80.771C83.3737 79.902 83.4744 78.5534 82.7441 77.5645L81.3045 75.6156C82.1771 74.176 82.8185 72.6282 83.219 70.9959L85.6137 70.6359C86.8294 70.4533 87.7117 69.4286 87.7117 68.1992V65.8008C87.7118 64.5716 86.8298 63.5467 85.6143 63.3642ZM85.1285 68.0964L81.9537 68.5737C81.4099 68.6553 80.9776 69.0725 80.8764 69.6129C80.5164 71.5306 79.7743 73.3221 78.67 74.9369C78.3598 75.3906 78.3706 75.9911 78.6975 76.4334L80.6057 79.0167L79.0548 80.5673L76.4715 78.659C76.0293 78.3324 75.429 78.3218 74.975 78.6316C73.3603 79.7359 71.569 80.4781 69.6512 80.838C69.1108 80.9394 68.6937 81.3719 68.612 81.9157L68.1349 85.0905H65.942L65.4647 81.9155C65.383 81.3717 64.9659 80.9392 64.4255 80.838C62.5079 80.4783 60.7168 79.7359 59.1017 78.6316C58.6478 78.3212 58.0474 78.3319 57.6052 78.6591L55.0221 80.5673L53.4712 79.0167L55.3794 76.4334C55.7061 75.9911 55.7171 75.3906 55.4067 74.9369C54.3024 73.3219 53.5603 71.5308 53.2005 69.613C53.0993 69.0725 52.6669 68.6553 52.1232 68.5737L48.9483 68.0964V65.9036L52.1232 65.4263C52.667 65.3445 53.0993 64.9275 53.2005 64.387C53.5603 62.4694 54.3024 60.6781 55.4067 59.0632C55.7171 58.6094 55.7063 58.0089 55.3794 57.5667L53.4712 54.9834L55.0221 53.4327L57.6052 55.3409C58.0474 55.6678 58.6478 55.6783 59.1017 55.3684C60.7168 54.2641 62.5079 53.5217 64.4255 53.1618C64.9659 53.0606 65.383 52.6282 65.4647 52.0844L65.942 48.9093H68.1349L68.612 52.0842C68.6939 52.628 69.1108 53.0603 69.6512 53.1618C71.569 53.5217 73.3603 54.2639 74.975 55.3684C75.4288 55.6786 76.0291 55.6679 76.4715 55.341L79.0548 53.4327L80.6057 54.9834L78.6975 57.5667C78.3708 58.0089 78.3598 58.6094 78.67 59.0632C79.7743 60.6779 80.5164 62.4692 80.8764 64.3872C80.9776 64.9275 81.41 65.3447 81.9537 65.4263L85.1285 65.9036V68.0964Z" fill="url(#paint2_linear_1535_2214)"/>
<path d="M110.897 66.5342C110.694 66.0576 110.226 65.7481 109.708 65.7481H107.49C107.194 56.0887 103.477 46.8944 96.948 39.736C90.2858 32.4316 81.2564 27.8414 71.4801 26.7732L67.9342 23.3582C67.1647 22.565 65.7096 23.1839 65.7467 24.2886V26.5478C57.815 26.7957 50.2324 29.3252 43.7433 33.9007C43.1603 34.3116 43.0209 35.1177 43.432 35.7007C43.8431 36.2837 44.6489 36.4233 45.2321 36.012C51.6349 31.4973 59.1754 29.1108 67.0385 29.1108C67.752 29.1108 68.3302 28.5327 68.3302 27.8192V27.3256L75.0886 33.8345L68.3298 39.2955V38.0231C68.3298 37.3096 67.7516 36.7314 67.0382 36.7314C59.7727 36.7314 52.748 39.3446 47.2578 44.0892C42.5369 48.169 39.2042 53.5915 37.6917 59.5736L34.9237 56.1475C34.4627 55.5497 33.4994 55.5081 32.9885 56.0634L29.9551 59.2136C31.5587 51.5483 35.5177 44.5342 41.3461 39.1535C41.8704 38.6697 41.903 37.8524 41.4192 37.3284C40.9355 36.8043 40.1181 36.7717 39.594 37.2553C32.4212 43.877 27.8985 52.8157 26.8217 62.4675L23.358 66.0641C22.5652 66.8343 23.1838 68.2886 24.2884 68.2518H26.5864C26.882 77.8955 30.5886 87.0786 37.0994 94.2324C43.7424 101.532 52.7509 106.13 62.5076 107.218L66.0626 110.642C66.8366 111.435 68.2858 110.815 68.2501 109.711V107.455C76.3297 107.218 84.0364 104.62 90.6079 99.9036C91.1875 99.4876 91.3202 98.6805 90.9042 98.101C90.488 97.5214 89.6812 97.3894 89.1016 97.8046C82.6439 102.439 75.0144 104.889 67.0227 104.888L66.9583 104.888C66.2448 104.888 65.6666 105.466 65.6666 106.179V106.674L58.9081 100.165L65.6666 94.7044V95.9757C65.6666 96.6859 66.24 97.2629 66.95 97.2674L67.038 97.2684C74.288 97.2684 81.3017 94.6648 86.7866 89.9376C91.5027 85.8729 94.84 80.4669 96.365 74.5006L99.0728 77.8522C99.5339 78.4496 100.496 78.4923 101.008 77.9362L104.142 74.682C102.574 82.2787 98.6895 89.2518 92.9654 94.6267C92.4453 95.1151 92.4196 95.9324 92.9078 96.4525C93.3969 96.9733 94.2144 96.9977 94.7336 96.5101C101.782 89.8915 106.219 81.0033 107.264 71.4395L110.639 67.9353C110.998 67.5627 111.1 67.011 110.897 66.5342ZM56.1463 99.0757C55.5485 99.5366 55.5066 100.5 56.0622 101.011L59.2545 104.085C51.4969 102.464 44.417 98.4347 39.0098 92.4935C32.6518 85.5075 29.1506 76.4536 29.1506 67.0045L29.1511 66.9601C29.1511 66.2467 28.5729 65.6685 27.8594 65.6685H27.3254L33.834 58.9097L39.2946 65.6685H38.0626C37.3492 65.6685 36.771 66.2422 36.771 66.9557L36.7706 67C36.7706 74.2519 39.3749 81.2668 44.1039 86.7524C48.1699 91.4692 53.5773 94.8061 59.5449 96.3298L56.1463 99.0757ZM85.1005 87.9808C80.3905 92.0403 74.4477 94.3874 68.2501 94.6586V92.0003C68.2845 90.9472 66.9442 90.3073 66.1467 90.9955L62.1214 94.2479C55.9015 93.132 50.2163 89.8864 46.0605 85.0654C42.0077 80.364 39.6611 74.4338 39.3819 68.2516H41.9989C43.052 68.2861 43.6919 66.9454 43.0037 66.148L39.7776 62.155C40.8793 55.918 44.1204 50.2147 48.9468 46.0436C53.6417 41.9862 59.5642 39.633 65.7465 39.3446V41.9994C65.712 43.0523 67.0528 43.6926 67.8499 43.0042L71.8904 39.7396C78.1252 40.8427 83.8266 44.0846 87.9961 48.9105C92.0618 53.6164 94.4153 59.5547 94.6946 65.7481H91.9979C90.9448 65.7135 90.3049 67.0543 90.9931 67.8516L94.284 71.9247C93.1666 78.143 89.9206 83.8266 85.1005 87.9808ZM100.163 75.0903L94.7021 68.3315H96.0139C96.7274 68.3315 97.3055 67.7578 97.3055 67.0443L97.3061 67C97.3061 59.7359 94.6941 52.7117 89.951 47.2218C85.8728 42.5015 80.4522 39.1679 74.4718 37.6542L77.8505 34.9242C78.4483 34.4632 78.4902 33.5 77.9345 32.989L74.7217 29.8949C82.505 31.4991 89.6112 35.5254 95.0394 41.4769C101.415 48.4671 104.926 57.5312 104.926 66.9954L104.925 67.0397C104.925 67.7532 105.504 68.3313 106.217 68.3313H106.671L100.163 75.0903Z" fill="url(#paint3_linear_1535_2214)"/>
</g>
<defs>
<linearGradient id="paint0_linear_1535_2214" x1="7" y1="67" x2="127" y2="67" gradientUnits="userSpaceOnUse">
<stop stop-color="#F86CA7"/>
<stop offset="1" stop-color="#FF7F18"/>
</linearGradient>
<linearGradient id="paint1_linear_1535_2214" x1="57.6263" y1="66.9999" x2="76.0876" y2="66.9999" gradientUnits="userSpaceOnUse">
<stop stop-color="#F86CA7"/>
<stop offset="1" stop-color="#FF7F18"/>
</linearGradient>
<linearGradient id="paint2_linear_1535_2214" x1="45.5383" y1="67" x2="87.7117" y2="67" gradientUnits="userSpaceOnUse">
<stop stop-color="#F86CA7"/>
<stop offset="1" stop-color="#FF7F18"/>
</linearGradient>
<linearGradient id="paint3_linear_1535_2214" x1="21.24" y1="67" x2="111" y2="67" gradientUnits="userSpaceOnUse">
<stop stop-color="#F86CA7"/>
<stop offset="1" stop-color="#FF7F18"/>
</linearGradient>
<clipPath id="clip0_1535_2214">
<rect width="88" height="88" fill="white" transform="translate(23 23)"/>
</clipPath>
</defs>
</svg>
