<svg width="61" height="60" viewBox="0 0 61 60" fill="none" xmlns="http://www.w3.org/2000/svg">
<path d="M42.2212 18.7788C39.7844 16.342 36.5445 15 33.0983 15C29.6521 15 26.4122 16.342 23.9755 18.7788C23.7975 18.9568 23.6228 19.1419 23.4562 19.329C23.2945 19.5106 23.3105 19.7889 23.4922 19.9507C23.6738 20.1124 23.9522 20.0963 24.1138 19.9147C24.2692 19.7402 24.4322 19.5676 24.5982 19.4015C26.8687 17.1311 29.8874 15.8806 33.0984 15.8806C36.3093 15.8806 39.328 17.131 41.5985 19.4015C46.2855 24.0885 46.2855 31.7148 41.5985 36.4018C39.328 38.6722 36.3093 39.9227 33.0984 39.9227C29.8874 39.9227 26.8687 38.6723 24.5982 36.4018C22.6241 34.4277 21.3927 31.8126 21.1309 29.0382C20.8724 26.2997 21.5631 23.5373 23.0758 21.2599C23.2104 21.0574 23.1552 20.784 22.9527 20.6495C22.7502 20.515 22.4768 20.5701 22.3422 20.7727C20.7183 23.2174 19.9767 26.1823 20.2541 29.121C20.4687 31.3945 21.2904 33.5678 22.6095 35.4117L21.3164 36.7048C21.1445 36.533 20.8658 36.533 20.6939 36.7049L16.7447 40.6542C15.7518 41.647 15.7518 43.2626 16.7447 44.2554C17.241 44.7519 17.8931 45.0001 18.5452 45.0001C19.1973 45.0001 19.8494 44.7519 20.3458 44.2555L21.4619 43.1393C21.6339 42.9673 21.6339 42.6885 21.4619 42.5166C21.29 42.3446 21.0112 42.3446 20.8392 42.5166L19.723 43.6327C19.4084 43.9474 18.9901 44.1206 18.5451 44.1206C18.1002 44.1206 17.6819 43.9474 17.3672 43.6327C17.0526 43.3181 16.8793 42.8998 16.8793 42.4548C16.8793 42.0099 17.0526 41.5915 17.3672 41.2769L21.0051 37.639L23.3609 39.9947L22.0846 41.2711C21.9126 41.4431 21.9126 41.7219 22.0846 41.8938C22.2565 42.0658 22.5353 42.0658 22.7073 41.8938L24.2949 40.3062C24.4669 40.1343 24.4669 39.8556 24.2951 39.6837L25.5857 38.3931C27.7617 39.9584 30.3648 40.8034 33.0982 40.8034C36.5444 40.8034 39.7842 39.4614 42.2211 37.0246C44.658 34.5878 46 31.3478 46 27.9017C46 24.4555 44.658 21.2156 42.2212 18.7788ZM23.6725 39.0609L21.9391 37.3274L23.1507 36.1158C23.4104 36.4306 23.6852 36.7342 23.9754 37.0245C24.2667 37.3158 24.5698 37.5909 24.8829 37.8504L23.6725 39.0609Z" fill="url(#paint0_linear_869_884)"/>
<path d="M37.6029 37.2887C38.6607 36.781 39.6216 36.0992 40.4588 35.2621C44.5173 31.2035 44.5173 24.5998 40.4588 20.5412C36.4002 16.4827 29.7965 16.4827 25.738 20.5412C21.6795 24.5998 21.6795 31.2035 25.738 35.2621C27.7142 37.2382 30.3822 38.3096 33.1107 38.3095C34.035 38.3095 34.9666 38.1865 35.8802 37.934C36.1145 37.8693 36.2521 37.6268 36.1873 37.3923C36.1224 37.1579 35.8799 37.0205 35.6456 37.0852C32.3402 37.9985 28.7826 37.0613 26.3607 34.6393C22.6455 30.9241 22.6455 24.8791 26.3607 21.164C30.0759 17.4489 36.1208 17.4487 39.8361 21.164C43.5513 24.8792 43.5513 30.9242 39.8361 34.6393C39.0694 35.406 38.1899 36.0302 37.2219 36.4947C37.0026 36.6 36.9102 36.863 37.0154 37.0822C37.1207 37.3015 37.3837 37.3938 37.6029 37.2887Z" fill="url(#paint1_linear_869_884)"/>
<path d="M33.6288 25.8952C33.872 25.8952 34.0691 25.698 34.0691 25.4549C34.0691 25.2117 33.872 25.0145 33.6288 25.0145H31.5668C31.3236 25.0145 31.1265 25.2117 31.1265 25.4549V30.3485C31.1265 30.5917 31.3236 30.7888 31.5668 30.7888H33.6288C33.872 30.7888 34.0691 30.5917 34.0691 30.3485C34.0691 30.1053 33.872 29.9082 33.6288 29.9082H32.0071V28.342H33.4767C33.7199 28.342 33.9171 28.1448 33.9171 27.9017C33.9171 27.6585 33.7199 27.4613 33.4767 27.4613H32.0071V25.8952H33.6288Z" fill="url(#paint2_linear_869_884)"/>
<path d="M28.4092 29.9308C27.8692 29.9308 27.3478 29.7112 27.0144 29.3434C26.8511 29.1632 26.5727 29.1495 26.3924 29.3128C26.2122 29.4761 26.1986 29.7546 26.3619 29.9348C26.8594 30.4838 27.6248 30.8115 28.4092 30.8115C29.3487 30.8115 30.1673 30.1953 30.3132 29.3782C30.4815 28.4355 29.7403 27.8042 28.9905 27.5276C28.3549 27.2932 27.7654 27.0372 27.6166 26.9718C27.4589 26.8562 27.3823 26.6715 27.4109 26.4717C27.4471 26.2202 27.6403 26.0183 27.9279 25.9317C28.7209 25.693 29.4368 26.2675 29.4504 26.2786C29.6365 26.4336 29.9131 26.4092 30.0692 26.2235C30.2257 26.0374 30.2016 25.7596 30.0155 25.6031C29.9719 25.5665 28.9325 24.7095 27.674 25.0885C27.0588 25.2737 26.624 25.7558 26.5392 26.3466C26.4603 26.8966 26.6985 27.4256 27.1608 27.7271C27.1803 27.7397 27.2007 27.7508 27.222 27.7603C27.2503 27.773 27.9252 28.0734 28.6858 28.3539C29.2318 28.5553 29.5089 28.8723 29.4462 29.2235C29.3849 29.5664 29.0006 29.9308 28.4092 29.9308Z" fill="url(#paint3_linear_869_884)"/>
<path d="M40.3219 27.9017C40.3219 26.2972 39.0166 24.9919 37.4121 24.9919C35.8077 24.9919 34.5024 26.2972 34.5024 27.9017C34.5024 29.5061 35.8077 30.8113 37.4121 30.8113C39.0166 30.8114 40.3219 29.5061 40.3219 27.9017ZM35.3832 27.9017C35.3832 26.7829 36.2934 25.8726 37.4122 25.8726C38.531 25.8726 39.4413 26.7828 39.4413 27.9017C39.4413 29.0205 38.531 29.9307 37.4122 29.9307C36.2934 29.9307 35.3832 29.0205 35.3832 27.9017Z" fill="url(#paint4_linear_869_884)"/>
<path d="M1.57273 23.5471C2.69878 23.8453 3.86236 23.1837 4.17203 22.0655C4.416 21.1803 4.04065 20.2764 3.30872 19.7826C7.54078 8.69389 18.4259 1.11819 30.5028 1.11819C42.5702 1.11819 53.4553 8.69389 57.6968 19.7826C56.9649 20.2764 56.5895 21.171 56.8335 22.0655C57.1338 23.1837 58.2973 23.8546 59.4328 23.5471C60.5588 23.2489 61.2345 22.0935 60.9248 20.966C60.662 19.9876 59.7424 19.3539 58.7572 19.4098C54.3656 7.88321 43.0488 0 30.5028 0C17.9473 0 6.63056 7.88321 2.23898 19.4192C1.26307 19.3632 0.343466 19.9969 0.0713385 20.9753C-0.228941 22.0935 0.446687 23.2489 1.57273 23.5471Z" fill="url(#paint5_linear_869_884)"/>
<path d="M1.62169 36.6672C2.74774 36.3597 3.92071 37.012 4.23037 38.1302C4.47435 39.0154 4.10838 39.9286 3.38584 40.4224C7.69297 51.5391 18.3247 58.8818 30.4954 58.8818C42.6661 58.8818 53.3073 51.5391 57.6144 40.4224C56.8918 39.9286 56.5165 39.0247 56.7698 38.1302C57.0795 37.012 58.2525 36.3504 59.3785 36.6672C60.5046 36.9747 61.1708 38.1395 60.8518 39.2577C60.5796 40.2361 59.66 40.8604 58.6747 40.7952C54.2081 52.3591 43.1541 60 30.4954 60C17.8462 60 6.78275 52.3591 2.31609 40.7952C1.34018 40.8604 0.411194 40.2361 0.139065 39.2577C-0.161217 38.1302 0.495647 36.9747 1.62169 36.6672Z" fill="url(#paint6_linear_869_884)"/>
<defs>
<linearGradient id="paint0_linear_869_884" x1="15" y1="30" x2="50" y2="29" gradientUnits="userSpaceOnUse">
<stop stop-color="#FFA811"/>
<stop offset="1" stop-color="#F33B00"/>
</linearGradient>
<linearGradient id="paint1_linear_869_884" x1="22.0005" y1="27.9034" x2="46.2772" y2="27.2099" gradientUnits="userSpaceOnUse">
<stop stop-color="#FFA811"/>
<stop offset="1" stop-color="#F33B00"/>
</linearGradient>
<linearGradient id="paint2_linear_869_884" x1="31.0284" y1="27.9017" x2="34.4635" y2="27.8517" gradientUnits="userSpaceOnUse">
<stop stop-color="#FFA811"/>
<stop offset="1" stop-color="#F33B00"/>
</linearGradient>
<linearGradient id="paint3_linear_869_884" x1="26.1115" y1="27.9017" x2="30.8846" y2="27.8059" gradientUnits="userSpaceOnUse">
<stop stop-color="#FFA811"/>
<stop offset="1" stop-color="#F33B00"/>
</linearGradient>
<linearGradient id="paint4_linear_869_884" x1="34.3085" y1="27.9016" x2="41.0978" y2="27.7076" gradientUnits="userSpaceOnUse">
<stop stop-color="#FFA811"/>
<stop offset="1" stop-color="#F33B00"/>
</linearGradient>
<linearGradient id="paint5_linear_869_884" x1="6.05628" y1="11.4477" x2="72.3345" y2="11.4477" gradientUnits="userSpaceOnUse">
<stop stop-color="#FFA811"/>
<stop offset="1" stop-color="#F33B00"/>
</linearGradient>
<linearGradient id="paint6_linear_869_884" x1="54.8887" y1="47.934" x2="-11.243" y2="47.934" gradientUnits="userSpaceOnUse">
<stop stop-color="#FFA811"/>
<stop offset="1" stop-color="#F33B00"/>
</linearGradient>
</defs>
</svg>
