<svg width="50" height="50" viewBox="0 0 50 50" fill="none" xmlns="http://www.w3.org/2000/svg">
<path d="M48.2087 11.1663L38.8337 1.79133C38.6872 1.64482 38.4885 1.5625 38.2812 1.5625H19.5312C19.3241 1.5625 19.1253 1.64481 18.9788 1.79133C18.8323 1.93784 18.75 2.13655 18.75 2.34375V7.03125H20.3125V3.125H37.5V11.7188C37.5 11.926 37.5823 12.1247 37.7288 12.2712C37.8753 12.4177 38.0741 12.5 38.2812 12.5H46.875V41.4062H23.4375V42.9688H47.6562C47.8634 42.9687 48.0622 42.8864 48.2087 42.7399C48.3552 42.5934 48.4375 42.3947 48.4375 42.1875V11.7188C48.4375 11.5116 48.3552 11.3129 48.2087 11.1663ZM39.0625 4.22983L45.7702 10.9375H39.0625V4.22983Z" fill="#FF7F18"/>
<path d="M28.125 10.1562H29.6875V11.7188H28.125V10.1562Z" fill="#FF7F18"/>
<path d="M32.8125 16.4062H34.375V17.9688H32.8125V16.4062Z" fill="#FF7F18"/>
<path d="M35.9375 16.4062H40.625V17.9688H35.9375V16.4062Z" fill="#FF7F18"/>
<path d="M42.1875 16.4062H45.3125V17.9688H42.1875V16.4062Z" fill="#FF7F18"/>
<path d="M32.8125 19.5312H37.5V21.0938H32.8125V19.5312Z" fill="#FF7F18"/>
<path d="M39.0625 19.5312H45.3125V21.0938H39.0625V19.5312Z" fill="#FF7F18"/>
<path d="M34.375 22.6562H39.0625V24.2188H34.375V22.6562Z" fill="#FF7F18"/>
<path d="M40.625 22.6562H45.3125V24.2188H40.625V22.6562Z" fill="#FF7F18"/>
<path d="M37.5 25.7812H45.3125V27.3438H37.5V25.7812Z" fill="#FF7F18"/>
<path d="M35.9375 31.25H40.625V32.8125H35.9375V31.25Z" fill="#FF7F18"/>
<path d="M35.9375 34.375H40.625V35.9375H35.9375V34.375Z" fill="#FF7F18"/>
<path d="M21.0938 41.4062H20.3125V39.5296C23.3122 38.9113 26.065 37.4277 28.2307 35.262C30.3964 33.0963 31.8801 30.3435 32.4984 27.3438H35.9375V25.7812H32.7346C32.7859 25.2672 32.8119 24.7464 32.8125 24.2188C32.8125 15.6031 25.8032 8.59375 17.1875 8.59375C8.57182 8.59375 1.5625 15.6031 1.5625 24.2188C1.5625 31.7645 6.93913 38.0779 14.0625 39.5296V41.4062H13.2812C13.074 41.4063 12.8753 41.4886 12.7288 41.6351C12.5823 41.7816 12.5 41.9803 12.5 42.1875V48.4375H14.0625V42.9688H20.3125V48.4375H21.875V42.1875C21.875 41.9803 21.7927 41.7816 21.6462 41.6351C21.4997 41.4886 21.3009 41.4063 21.0938 41.4062ZM3.125 24.2188C3.125 16.4647 9.43336 10.1562 17.1875 10.1562C24.9416 10.1562 31.25 16.4647 31.25 24.2188C31.25 31.9728 24.9416 38.2812 17.1875 38.2812C9.43336 38.2812 3.125 31.9728 3.125 24.2188ZM15.625 39.7658C16.139 39.8171 16.6599 39.8431 17.1875 39.8438C17.7148 39.8438 18.2356 39.8178 18.75 39.7658V41.4062H15.625V39.7658Z" fill="#FF7F18"/>
<path d="M29.6875 24.2188C29.6875 21.7465 28.9544 19.3297 27.5809 17.2741C26.2074 15.2185 24.2551 13.6164 21.971 12.6703C19.687 11.7242 17.1736 11.4766 14.7489 11.9589C12.3241 12.4413 10.0968 13.6318 8.34867 15.3799C6.60051 17.1281 5.41 19.3554 4.92769 21.7801C4.44537 24.2049 4.69292 26.7182 5.63901 29.0023C6.58511 31.2864 8.18726 33.2386 10.2429 34.6121C12.2985 35.9856 14.7152 36.7188 17.1875 36.7188C20.5016 36.715 23.6788 35.3968 26.0222 33.0534C28.3656 30.7101 29.6838 27.5328 29.6875 24.2188ZM6.25001 24.2188C6.25001 22.0555 6.89148 19.9409 8.09331 18.1422C9.29513 16.3435 11.0033 14.9417 13.0019 14.1138C15.0005 13.286 17.1996 13.0694 19.3213 13.4914C21.443 13.9134 23.3918 14.9551 24.9215 16.4848C26.4511 18.0144 27.4928 19.9633 27.9148 22.085C28.3369 24.2066 28.1203 26.4058 27.2924 28.4044C26.4646 30.4029 25.0627 32.1111 23.2641 33.313C21.4654 34.5148 19.3507 35.1563 17.1875 35.1563C14.2877 35.153 11.5076 33.9996 9.45715 31.9491C7.40669 29.8986 6.25329 27.1186 6.25001 24.2188Z" fill="#FF7F18"/>
<path d="M10.9375 17.1875H14.0625V18.75H10.9375V17.1875Z" fill="#FF7F18"/>
<path d="M15.625 17.1875H20.3125V18.75H15.625V17.1875Z" fill="#FF7F18"/>
<path d="M21.875 17.1875H25V18.75H21.875V17.1875Z" fill="#FF7F18"/>
<path d="M7.8125 20.3125H12.5V21.875H7.8125V20.3125Z" fill="#FF7F18"/>
<path d="M14.0625 20.3125H20.3125V21.875H14.0625V20.3125Z" fill="#FF7F18"/>
<path d="M21.875 20.3125H26.5625V21.875H21.875V20.3125Z" fill="#FF7F18"/>
<path d="M7.8125 23.4375H15.625V25H7.8125V23.4375Z" fill="#FF7F18"/>
<path d="M17.1875 23.4375H21.875V25H17.1875V23.4375Z" fill="#FF7F18"/>
<path d="M23.4375 23.4375H26.5625V25H23.4375V23.4375Z" fill="#FF7F18"/>
<path d="M7.8125 26.5625H12.5V28.125H7.8125V26.5625Z" fill="#FF7F18"/>
<path d="M14.0625 26.5625H20.3125V28.125H14.0625V26.5625Z" fill="#FF7F18"/>
<path d="M21.875 26.5625H26.5625V28.125H21.875V26.5625Z" fill="#FF7F18"/>
<path d="M10.9375 29.6875H15.625V31.25H10.9375V29.6875Z" fill="#FF7F18"/>
<path d="M17.1875 29.6875H23.4375V31.25H17.1875V29.6875Z" fill="#FF7F18"/>
</svg>
