<svg width="45" height="45" viewBox="0 0 45 45" fill="none" xmlns="http://www.w3.org/2000/svg">
<path d="M2.8125 14.7657H1.40625V11.9532C1.4073 11.0211 1.77803 10.1275 2.43711 9.46838C3.09619 8.8093 3.98979 8.43857 4.92188 8.43753H28.8281V7.03128H27.4219C27.2828 7.03128 27.1469 6.99005 27.0312 6.91279C26.9156 6.83553 26.8255 6.72571 26.7722 6.59723C26.719 6.46875 26.7051 6.32737 26.7322 6.19097C26.7594 6.05457 26.8263 5.92929 26.9247 5.83095L31.1434 1.6122C31.2087 1.54691 31.2862 1.49511 31.3715 1.45978C31.4569 1.42444 31.5483 1.40625 31.6406 1.40625C31.733 1.40625 31.8244 1.42444 31.9097 1.45978C31.995 1.49511 32.0725 1.54691 32.1378 1.6122L36.3566 5.83095C36.4549 5.92929 36.5219 6.05457 36.549 6.19097C36.5761 6.32737 36.5622 6.46875 36.509 6.59723C36.4558 6.72571 36.3657 6.83553 36.25 6.91279C36.1344 6.99005 35.9984 7.03128 35.8594 7.03128H34.4531V8.43753H37.2656C38.1977 8.43857 39.0913 8.8093 39.7504 9.46838C40.4095 10.1275 40.7802 11.0211 40.7812 11.9532V26.0157H39.375V11.9532C39.3743 11.3939 39.1519 10.8578 38.7565 10.4623C38.361 10.0669 37.8249 9.84443 37.2656 9.84378H34.4531V22.5H33.0469V6.32815C33.0469 6.14167 33.121 5.96283 33.2528 5.83097C33.3847 5.6991 33.5635 5.62503 33.75 5.62503H34.1619L31.6406 3.10371L29.1193 5.62503H29.5312C29.7177 5.62503 29.8966 5.6991 30.0284 5.83097C30.1603 5.96283 30.2344 6.14167 30.2344 6.32815V23.2031H28.8281V9.84378H4.92188C4.36263 9.84443 3.82648 10.0669 3.43104 10.4623C3.0356 10.8578 2.81315 11.3939 2.8125 11.9532V14.7657ZM4.92188 36.5625H16.633L14.9455 42.1875H13.3594V43.5938H28.8281V42.1875H27.242L26.3376 39.1729L24.9906 39.5772L25.7737 42.1875H16.4134L18.1009 36.5625H23.2031V35.1563H4.92188C4.36263 35.1556 3.82648 34.9332 3.43104 34.5377C3.0356 34.1423 2.81315 33.6061 2.8125 33.0469V32.3438H22.5V30.9375H2.8125V16.1719H1.40625V33.0469C1.4073 33.979 1.77803 34.8726 2.43711 35.5317C3.09619 36.1908 3.98979 36.5615 4.92188 36.5625ZM26.0156 24.6094V13.3594H23.2031V29.5313H4.92188V28.125H7.73438V22.5C7.73438 22.3135 7.80845 22.1347 7.94032 22.0028C8.07218 21.871 8.25102 21.7969 8.4375 21.7969H12.6562C12.8427 21.7969 13.0216 21.871 13.1534 22.0028C13.2853 22.1347 13.3594 22.3135 13.3594 22.5V28.125H14.7656V17.5781C14.7656 17.3917 14.8397 17.2128 14.9716 17.081C15.1034 16.9491 15.2823 16.875 15.4688 16.875H19.6875C19.874 16.875 20.0528 16.9491 20.1847 17.081C20.3165 17.2128 20.3906 17.3917 20.3906 17.5781V28.125H21.7969V12.6563C21.7969 12.4698 21.871 12.291 22.0028 12.1591C22.1347 12.0272 22.3135 11.9532 22.5 11.9532H26.7188C26.9052 11.9532 27.0841 12.0272 27.2159 12.1591C27.3478 12.291 27.4219 12.4698 27.4219 12.6563V24.6094H26.0156ZM11.9531 23.2031H9.14062V28.125H11.9531V23.2031ZM18.9844 18.2813H16.1719V28.125H18.9844V18.2813ZM4.92188 11.25V12.6563H6.32812V11.25H4.92188ZM9.14062 11.25H7.73438V12.6563H9.14062V11.25ZM10.5469 11.25V12.6563H11.9531V11.25H10.5469ZM42.9756 39.9932C43.3699 40.3895 43.592 40.9253 43.5938 41.4844C43.594 41.7615 43.5396 42.0359 43.4337 42.2919C43.3278 42.548 43.1724 42.7806 42.9765 42.9765C42.7806 43.1724 42.5479 43.3278 42.2919 43.4337C42.0359 43.5396 41.7615 43.594 41.4844 43.5938C40.9259 43.5889 40.3913 43.3673 39.9931 42.9756L36.6275 39.6101C34.8572 40.6545 32.7668 41.0172 30.7481 40.6304C28.7294 40.2436 26.9212 39.1337 25.6623 37.509C24.4034 35.8842 23.7804 33.856 23.91 31.8047C24.0397 29.7534 24.913 27.8198 26.3664 26.3665C27.8198 24.9131 29.7534 24.0397 31.8047 23.9101C33.856 23.7804 35.8842 24.4035 37.5089 25.6623C39.1337 26.9212 40.2435 28.7295 40.6304 30.7481C41.0172 32.7668 40.6544 34.8572 39.6101 36.6276L42.9756 39.9932ZM39.375 32.3438C39.375 30.9531 38.9626 29.5937 38.19 28.4374C37.4174 27.2811 36.3193 26.3799 35.0345 25.8477C33.7497 25.3156 32.3359 25.1763 30.972 25.4476C29.6081 25.7189 28.3552 26.3886 27.3719 27.3719C26.3886 28.3553 25.7189 29.6081 25.4476 30.972C25.1763 32.336 25.3155 33.7497 25.8477 35.0345C26.3799 36.3193 27.2811 37.4174 28.4374 38.19C29.5937 38.9627 30.9531 39.375 32.3438 39.375C34.2079 39.3729 35.9951 38.6314 37.3133 37.3133C38.6314 35.9951 39.3729 34.2079 39.375 32.3438ZM41.9811 40.9876L38.7831 37.7894C38.4798 38.1474 38.1474 38.4798 37.7894 38.7831L40.9876 41.9812C41.0522 42.0492 41.1297 42.1036 41.2157 42.1411C41.3016 42.1787 41.3942 42.1987 41.488 42.1999C41.5818 42.2011 41.6748 42.1836 41.7617 42.1482C41.8486 42.1129 41.9275 42.0605 41.9938 41.9942C42.0602 41.9279 42.1125 41.849 42.1479 41.7621C42.1832 41.6752 42.2008 41.5821 42.1995 41.4884C42.1983 41.3946 42.1783 41.302 42.1408 41.216C42.1032 41.1301 42.0488 41.0526 41.9808 40.988L41.9811 40.9876ZM37.9688 32.3438C37.9688 33.4563 37.6388 34.5438 37.0208 35.4689C36.4027 36.3939 35.5242 37.1149 34.4963 37.5406C33.4685 37.9663 32.3375 38.0777 31.2464 37.8607C30.1552 37.6437 29.1529 37.1079 28.3663 36.3213C27.5796 35.5346 27.0439 34.5323 26.8268 33.4412C26.6098 32.35 26.7212 31.219 27.1469 30.1912C27.5727 29.1633 28.2936 28.2848 29.2187 27.6668C30.1437 27.0487 31.2312 26.7188 32.3438 26.7188C33.8351 26.7205 35.2648 27.3136 36.3194 28.3682C37.3739 29.4227 37.9671 30.8524 37.9688 32.3438ZM36.5625 32.3438C36.5625 31.5094 36.3151 30.6937 35.8515 30C35.388 29.3062 34.7291 28.7655 33.9582 28.4462C33.1873 28.1269 32.3391 28.0433 31.5207 28.2061C30.7024 28.3689 29.9506 28.7707 29.3606 29.3607C28.7706 29.9507 28.3688 30.7024 28.2061 31.5207C28.0433 32.3391 28.1268 33.1873 28.4461 33.9582C28.7654 34.7291 29.3062 35.388 29.9999 35.8515C30.6937 36.3151 31.5094 36.5625 32.3438 36.5625C33.4623 36.5613 34.5346 36.1164 35.3255 35.3255C36.1164 34.5346 36.5613 33.4623 36.5625 32.3438ZM29.5312 32.3438H30.9375C30.9379 31.971 31.0862 31.6135 31.3499 31.3499C31.6135 31.0863 31.9709 30.938 32.3438 30.9375V29.5313C31.5981 29.5321 30.8832 29.8287 30.3559 30.356C29.8287 30.8832 29.5321 31.5981 29.5312 32.3438ZM38.6719 5.62503H40.0781C40.0769 4.50652 39.632 3.43418 38.8411 2.64328C38.0502 1.85238 36.9779 1.40751 35.8594 1.40628V2.81253C36.605 2.81336 37.3199 3.10995 37.8472 3.63721C38.3745 4.16448 38.671 4.87936 38.6719 5.62503Z" fill="url(#paint0_linear_1294_44196)"/>
<defs>
<linearGradient id="paint0_linear_1294_44196" x1="0.5625" y1="22.5" x2="43.5938" y2="22.5" gradientUnits="userSpaceOnUse">
<stop stop-color="#F86CA7"/>
<stop offset="1" stop-color="#FF7F18"/>
</linearGradient>
</defs>
</svg>
