<svg width="61" height="60" viewBox="0 0 61 60" fill="none" xmlns="http://www.w3.org/2000/svg">
<path d="M43.112 18.947C43.7444 18.947 44.2562 18.446 44.2562 17.8269C44.2562 17.2078 43.7444 16.7068 43.112 16.7068C42.4795 16.7068 41.9678 17.2078 41.9678 17.8269C41.9678 18.446 42.4844 18.947 43.112 18.947ZM43.112 17.5055C43.2954 17.5055 43.4451 17.652 43.4451 17.8316C43.4451 18.0112 43.2954 18.1577 43.112 18.1577C42.9237 18.1577 42.7788 18.0159 42.7788 17.8316C42.7788 17.6473 42.9285 17.5055 43.112 17.5055Z" fill="url(#paint0_linear_869_870)"/>
<path d="M44.3821 14.8967H20.8587C19.9655 14.8967 19.2364 15.6104 19.2364 16.4847V18.9092H17.6238C16.7305 18.9092 16.0015 19.6228 16.0015 20.4972V40.4083C16.0015 41.2826 16.7305 41.9963 17.6238 41.9963H28.4053V44.2932C28.4053 44.5106 28.5888 44.6902 28.8109 44.6902H36.4299C36.652 44.6902 36.8355 44.5106 36.8355 44.2932V41.9963H41.1471C42.0404 41.9963 42.7694 41.2826 42.7694 40.4083V37.9838H44.3821C45.2753 37.9838 46.0044 37.2702 46.0044 36.3958V16.4847C46.0044 15.6104 45.2753 14.8967 44.3821 14.8967ZM20.0476 16.4847C20.0476 16.0452 20.4145 15.6907 20.8587 15.6907H44.3821C44.8311 15.6907 45.1932 16.0499 45.1932 16.4847V19.9679H29.8007L27.9901 18.1294C27.8501 17.9876 27.6569 17.9073 27.459 17.9073H23.4708C23.0652 17.9073 22.7321 18.2334 22.7321 18.6304V19.9679H20.0476V16.4847ZM17.6238 41.207C17.1747 41.207 16.8126 40.8478 16.8126 40.413V20.4972C16.8126 20.0576 17.1796 19.7032 17.6238 19.7032H19.2364V36.4006C19.2364 37.2749 19.9655 37.9885 20.8587 37.9885H29.6655C29.8248 38.291 29.8972 38.6313 29.8683 38.981H29.2406C28.7771 38.981 28.4053 39.3497 28.4053 39.7986V41.207H17.6238ZM32.2196 32.8938C32.3017 32.752 32.4514 32.6622 32.6204 32.6622C32.8715 32.6622 33.0743 32.8607 33.0743 33.1065C33.0743 33.2671 32.9873 33.4137 32.8473 33.494C32.6928 33.5838 32.5093 33.5743 32.321 33.4704C32.2969 33.4562 32.2728 33.4373 32.2631 33.4137C32.1086 33.1726 32.1714 32.9836 32.2196 32.8938ZM32.2148 31.9438C31.9203 32.0431 31.6692 32.2369 31.5147 32.511C31.283 32.9174 31.3119 33.4137 31.5823 33.839C31.6692 33.9713 31.7851 34.08 31.9251 34.1604C32.1472 34.2833 32.3886 34.3494 32.6252 34.3494C32.8473 34.3494 33.0646 34.2927 33.2577 34.184C33.644 33.9619 33.8854 33.5507 33.8854 33.1112C33.8854 32.5677 33.5233 32.1092 33.026 31.9438V29.9022L36.6134 36.2399C36.6086 36.2446 36.6037 36.2541 36.5892 36.2588C35.3194 36.5802 34.4889 37.7428 34.5565 38.981H30.6891C30.7615 37.7381 29.9262 36.5754 28.6322 36.221L32.2148 29.9022V31.9438ZM36.0243 43.8962H29.2165L29.2406 39.7703H36.0002C36.0147 39.7703 36.0243 39.7797 36.0243 39.7939V43.8962ZM41.9583 40.4083C41.9583 40.8478 41.5913 41.2023 41.1471 41.2023H36.8355V39.7939C36.8355 39.3402 36.4589 38.9763 36.0002 38.9763H35.3725C35.3435 38.6266 35.4208 38.2863 35.5753 37.9838H41.9583V40.4083ZM44.3821 37.1946H36.3623C36.4927 37.1237 36.6327 37.0622 36.7872 37.0244C37.0431 36.9582 37.2507 36.7834 37.3569 36.5471C37.4583 36.3155 37.4438 36.0556 37.3183 35.8334L33.166 28.5127C33.0598 28.3189 32.8522 28.196 32.6252 28.196C32.3935 28.2008 32.1859 28.3142 32.0748 28.5079L27.9177 35.8334C27.7921 36.0556 27.7825 36.3202 27.8839 36.5518C27.9852 36.7881 28.1929 36.9582 28.4488 37.0244C28.6033 37.0622 28.7385 37.1237 28.8737 37.1946H20.8587C20.4097 37.1946 20.0476 36.8354 20.0476 36.4006V20.7618H22.7997C23.2053 20.7618 23.5384 20.4357 23.5384 20.0387V18.7013H27.4252L29.2358 20.5397C29.3758 20.6815 29.5689 20.7618 29.7669 20.7618H45.1932V36.3958C45.1932 36.8354 44.8311 37.1946 44.3821 37.1946Z" fill="url(#paint1_linear_869_870)"/>
<path d="M40.3502 18.947C40.9827 18.947 41.4944 18.446 41.4944 17.8269C41.4944 17.2078 40.9827 16.7068 40.3502 16.7068C39.7178 16.7068 39.2061 17.2078 39.2061 17.8269C39.2061 18.446 39.7178 18.947 40.3502 18.947ZM40.3502 17.5055C40.5337 17.5055 40.6834 17.652 40.6834 17.8316C40.6834 18.0112 40.5337 18.1577 40.3502 18.1577C40.162 18.1577 40.0171 18.0159 40.0171 17.8316C40.0171 17.6473 40.1668 17.5055 40.3502 17.5055Z" fill="url(#paint2_linear_869_870)"/>
<path d="M37.5836 18.947C38.2161 18.947 38.7278 18.446 38.7278 17.8269C38.7278 17.2078 38.2161 16.7068 37.5836 16.7068C36.9512 16.7068 36.4395 17.2078 36.4395 17.8269C36.4395 18.446 36.9512 18.947 37.5836 18.947ZM37.5836 17.5055C37.7671 17.5055 37.9168 17.652 37.9168 17.8316C37.9168 18.0112 37.7671 18.1577 37.5836 18.1577C37.3954 18.1577 37.2505 18.0159 37.2505 17.8316C37.2505 17.6473 37.4002 17.5055 37.5836 17.5055Z" fill="url(#paint3_linear_869_870)"/>
<path d="M40.4374 24.2213C40.2008 24.4528 40.0511 24.7459 39.9932 25.0578H34.32V24.4339C34.32 24.0086 33.9675 23.6636 33.5329 23.6636H31.703C31.2685 23.6636 30.916 24.0086 30.916 24.4339V25.0578H25.2476C25.1945 24.7506 25.0448 24.4576 24.8034 24.2165C24.1902 23.6258 23.1425 23.6352 22.5438 24.2213C22.2396 24.519 22.0754 24.9113 22.0754 25.3272C22.0754 25.7478 22.2444 26.1448 22.5438 26.4331C22.848 26.7403 23.2535 26.8962 23.6736 26.8962C23.9392 26.8962 24.2095 26.8348 24.4654 26.7072C24.7406 26.5701 24.9676 26.3433 25.1028 26.0644C25.1366 25.9936 25.1655 25.9227 25.1897 25.8518H29.1247C26.9858 26.8726 25.3732 28.7914 24.8131 31.1072H24.1854C23.7509 31.1072 23.3984 31.4522 23.3984 31.8776V33.6688C23.3984 34.0941 23.7509 34.4391 24.1854 34.4391H26.0153C26.4499 34.4391 26.8023 34.0941 26.8023 33.6688V31.8776C26.8023 31.4522 26.4499 31.1072 26.0153 31.1072H25.6484C26.3243 28.6118 28.3667 26.6552 30.9305 26.0503V26.2204C30.9305 26.6458 31.283 26.9908 31.7175 26.9908H33.5474C33.982 26.9908 34.3344 26.6458 34.3344 26.2204V26.0503C36.8934 26.6552 38.9358 28.6118 39.6166 31.1072H39.2834C38.8489 31.1072 38.4964 31.4522 38.4964 31.8776V33.6688C38.4964 34.0941 38.8489 34.4391 39.2834 34.4391H41.1133C41.5479 34.4391 41.9003 34.0941 41.9003 33.6688V31.8776C41.9003 31.4522 41.5479 31.1072 41.1133 31.1072H40.4519C39.887 28.7914 38.2743 26.8679 36.1402 25.8518H40.0849C40.1622 26.0692 40.2877 26.2677 40.4567 26.4331C40.7609 26.7403 41.1664 26.8962 41.5865 26.8962C41.8521 26.8962 42.1224 26.8348 42.3783 26.7072C42.6536 26.5701 42.8805 26.3433 43.0157 26.0644C43.3295 25.417 43.2185 24.7128 42.7212 24.2165C42.0886 23.6305 41.0409 23.6352 40.4374 24.2213ZM24.364 25.7289C24.3061 25.8423 24.2095 25.9416 24.0937 25.9983C23.6736 26.2062 23.3115 26.0739 23.1135 25.8707C22.9638 25.7289 22.8818 25.5351 22.8818 25.3272C22.8818 25.1239 22.9638 24.9302 23.1135 24.7789C23.2632 24.6324 23.4612 24.5521 23.6736 24.5521C23.8812 24.5521 24.084 24.6324 24.2289 24.7742C24.4799 25.0294 24.5282 25.3839 24.364 25.7289ZM26.0057 33.6451L24.1999 33.6688L24.1757 31.9012H25.9815L26.0057 33.6451ZM41.0989 33.6451L39.2931 33.6688L39.2689 31.9012H41.0747L41.0989 33.6451ZM31.732 26.2251L31.7223 25.6296C31.732 25.5871 31.732 25.5446 31.7272 25.4973V25.4926C31.7272 25.4784 31.7368 25.469 31.7368 25.4548C31.7368 25.4311 31.7272 25.4122 31.7223 25.3933L31.7079 24.4623H33.5136L33.5281 25.3933C33.5233 25.417 33.5136 25.4359 33.5136 25.4595C33.5136 25.4737 33.5185 25.4831 33.5233 25.4973V25.502C33.5136 25.5635 33.5185 25.6202 33.5329 25.6722L33.5426 26.2062L31.732 26.2251ZM42.2625 25.7289C42.2045 25.8423 42.108 25.9416 41.9921 25.9983C41.572 26.2062 41.2099 26.0739 41.0119 25.8707C40.8623 25.7289 40.7802 25.5351 40.7802 25.3272C40.7802 25.1239 40.8623 24.9302 41.0119 24.7789C41.1616 24.6324 41.3596 24.5521 41.572 24.5521C41.7796 24.5521 41.9824 24.6324 42.1273 24.7742C42.3783 25.0294 42.4266 25.3839 42.2625 25.7289Z" fill="url(#paint4_linear_869_870)"/>
<path d="M1.57273 23.5471C2.69878 23.8453 3.86236 23.1837 4.17203 22.0655C4.416 21.1803 4.04065 20.2764 3.30872 19.7826C7.54078 8.69389 18.4259 1.11819 30.5028 1.11819C42.5702 1.11819 53.4553 8.69389 57.6968 19.7826C56.9649 20.2764 56.5895 21.171 56.8335 22.0655C57.1338 23.1837 58.2973 23.8546 59.4328 23.5471C60.5588 23.2489 61.2345 22.0935 60.9248 20.966C60.662 19.9876 59.7424 19.3539 58.7572 19.4098C54.3656 7.88321 43.0488 0 30.5028 0C17.9473 0 6.63056 7.88321 2.23898 19.4192C1.26307 19.3632 0.343466 19.9969 0.0713385 20.9753C-0.228941 22.0935 0.446687 23.2489 1.57273 23.5471Z" fill="url(#paint5_linear_869_870)"/>
<path d="M1.62169 36.6672C2.74774 36.3597 3.92071 37.012 4.23037 38.1302C4.47435 39.0154 4.10838 39.9286 3.38584 40.4224C7.69297 51.5391 18.3247 58.8818 30.4954 58.8818C42.6661 58.8818 53.3073 51.5391 57.6144 40.4224C56.8918 39.9286 56.5165 39.0247 56.7698 38.1302C57.0795 37.012 58.2525 36.3504 59.3785 36.6672C60.5046 36.9747 61.1708 38.1395 60.8518 39.2577C60.5796 40.2361 59.66 40.8604 58.6747 40.7952C54.2081 52.3591 43.1541 60 30.4954 60C17.8462 60 6.78275 52.3591 2.31609 40.7952C1.34018 40.8604 0.411194 40.2361 0.139065 39.2577C-0.161217 38.1302 0.495647 36.9747 1.62169 36.6672Z" fill="url(#paint6_linear_869_870)"/>
<defs>
<linearGradient id="paint0_linear_869_870" x1="41.8534" y1="17.7522" x2="44.3706" y2="17.7522" gradientUnits="userSpaceOnUse">
<stop stop-color="#FFA811"/>
<stop offset="1" stop-color="#F33B00"/>
</linearGradient>
<linearGradient id="paint1_linear_869_870" x1="14.5013" y1="28.8003" x2="47.5045" y2="28.8003" gradientUnits="userSpaceOnUse">
<stop stop-color="#FFA811"/>
<stop offset="1" stop-color="#F33B00"/>
</linearGradient>
<linearGradient id="paint2_linear_869_870" x1="39.0916" y1="17.7522" x2="41.6089" y2="17.7522" gradientUnits="userSpaceOnUse">
<stop stop-color="#FFA811"/>
<stop offset="1" stop-color="#F33B00"/>
</linearGradient>
<linearGradient id="paint3_linear_869_870" x1="36.325" y1="17.7522" x2="38.8423" y2="17.7522" gradientUnits="userSpaceOnUse">
<stop stop-color="#FFA811"/>
<stop offset="1" stop-color="#F33B00"/>
</linearGradient>
<linearGradient id="paint4_linear_869_870" x1="21.0196" y1="28.6922" x2="44.2473" y2="28.6922" gradientUnits="userSpaceOnUse">
<stop stop-color="#FFA811"/>
<stop offset="1" stop-color="#F33B00"/>
</linearGradient>
<linearGradient id="paint5_linear_869_870" x1="6.05628" y1="11.4477" x2="72.3345" y2="11.4477" gradientUnits="userSpaceOnUse">
<stop stop-color="#FFA811"/>
<stop offset="1" stop-color="#F33B00"/>
</linearGradient>
<linearGradient id="paint6_linear_869_870" x1="54.8887" y1="47.934" x2="-11.243" y2="47.934" gradientUnits="userSpaceOnUse">
<stop stop-color="#FFA811"/>
<stop offset="1" stop-color="#F33B00"/>
</linearGradient>
</defs>
</svg>
