<svg width="80" height="23" viewBox="0 0 80 23" fill="none" xmlns="http://www.w3.org/2000/svg">
<path d="M78.3464 12.8027H1.6494C0.737075 12.8027 0 12.2175 0 11.4932C0 10.769 0.737075 10.1838 1.6494 10.1838H74.3621L64.3523 2.23727C63.708 1.72578 63.708 0.895113 64.3523 0.38362C64.9966 -0.127873 66.0429 -0.127873 66.6872 0.38362L79.5164 10.5685C79.9906 10.9449 80.1298 11.5055 79.8721 11.9966C79.6144 12.4835 79.0113 12.8027 78.3464 12.8027V12.8027Z" fill="#FFEEE4"/>
<path d="M65.5016 22.9999C65.079 22.9999 64.6563 22.8731 64.3367 22.6153C63.6924 22.1038 63.6924 21.2731 64.3367 20.7617L77.1814 10.5645C77.8257 10.053 78.8721 10.053 79.5164 10.5645C80.1606 11.076 80.1606 11.9067 79.5164 12.4182L66.6717 22.6153C66.3469 22.8731 65.9243 22.9999 65.5016 22.9999Z" fill="#FFEEE4"/>
</svg>
