<svg width="50" height="50" viewBox="0 0 50 50" fill="none" xmlns="http://www.w3.org/2000/svg">
<g clip-path="url(#clip0_793_40)">
<path d="M26.0015 45.5434H21.8083C21.4093 45.5434 21.0107 45.4061 20.6855 45.1564C19.495 44.2438 18.2274 43.9758 16.9979 43.8628V31.4551C18.0499 30.3003 19.1773 29.4588 20.2697 28.6435C22.7358 26.8028 25.0651 25.0643 24.8287 20.5061C24.8642 19.7899 25.2385 19.3955 25.9518 19.3227C26.4426 19.3227 26.8841 19.6466 27.0256 20.1106C27.3122 21.0502 27.5138 21.9199 27.6414 22.7694C27.7016 23.1694 28.0746 23.4452 28.4746 23.3848C28.8747 23.3246 29.1501 22.9516 29.09 22.5516C28.9515 21.6304 28.7345 20.6922 28.4267 19.6834C28.0938 18.5915 27.0993 17.8579 25.9518 17.8579C24.3096 18.0255 23.4476 18.9337 23.3659 20.5823C23.5618 24.3586 21.8135 25.6636 19.3936 27.4696C18.6361 28.035 17.8126 28.6497 16.9967 29.3918V27.9435C16.9967 27.5093 16.638 27.2694 16.264 27.211L9.6041 27.214C9.1998 27.2142 8.87207 27.542 8.87207 27.9464V35.2234C8.87207 35.6279 9.2 35.9559 9.60449 35.9559C10.009 35.9559 10.3369 35.6279 10.3369 35.2234V28.6784L15.532 28.6762V45.5399L10.3369 45.543V38.4157C10.3369 38.0112 10.009 37.6833 9.60449 37.6833C9.2 37.6833 8.87207 38.0112 8.87207 38.4157V46.2758C8.87207 46.71 9.23086 46.9498 9.60488 47.0082L16.2647 47.0043C16.669 47.0041 16.9967 46.6763 16.9967 46.2719V45.3353C18.137 45.4526 18.9793 45.6941 19.7938 46.3186C20.3729 46.7633 21.0884 47.0081 21.8082 47.0081H26.0014C26.4059 47.0081 26.7338 46.6802 26.7338 46.2757C26.7338 45.8712 26.4061 45.5434 26.0015 45.5434Z" fill="url(#paint0_linear_793_40)"/>
<path d="M13.2725 34.1581V32.2905C13.2725 31.886 12.9445 31.5581 12.54 31.5581C12.1355 31.5581 11.8076 31.886 11.8076 32.2905V34.1581C11.8076 34.5626 12.1355 34.8905 12.54 34.8905C12.9445 34.8905 13.2725 34.5626 13.2725 34.1581Z" fill="url(#paint1_linear_793_40)"/>
<path d="M39.5727 33.2467C40.9512 31.3898 39.5624 28.7259 37.2955 28.7259L28.6878 28.7255C28.9678 27.805 29.1472 26.862 29.2229 25.9106C29.2549 25.5074 28.954 25.1546 28.5508 25.1224C28.147 25.0905 27.7946 25.3913 27.7626 25.7945C27.67 26.9593 27.4154 28.0639 26.9847 29.1706C26.9469 29.2589 26.926 29.3561 26.926 29.4583V31.2464C26.926 33.276 25.2747 34.9272 23.2451 34.9272C22.8406 34.9272 22.5127 35.2552 22.5127 35.6596C22.5127 36.0641 22.8406 36.3921 23.2451 36.3921C26.0825 36.3921 28.3907 34.0838 28.3907 31.2465V30.1903H30.4494C29.7174 31.5105 30.2898 33.3839 31.6297 34.0787C30.8864 35.2028 30.8864 36.3269 31.6297 37.4511C29.6229 38.4918 29.6229 41.4469 31.6297 42.4875C30.9621 43.4861 30.8941 44.5047 31.4257 45.5433H29.1939C28.7895 45.5433 28.4615 45.8713 28.4615 46.2758C28.4615 46.6803 28.7894 47.0082 29.1939 47.0082L36.319 47.0084C38.5859 47.0084 39.9747 44.3443 38.5962 42.4875C40.0651 41.7257 40.5719 39.629 39.5727 38.2831C41.5794 37.2423 41.5794 34.2873 39.5727 33.2467ZM31.5605 31.5604C31.5605 30.8051 32.1751 30.1906 32.9304 30.1906H37.2956C38.0509 30.1906 38.6654 30.8051 38.6654 31.5604C38.6654 32.3158 38.0509 32.9303 37.2956 32.9303H32.9304C32.1751 32.9303 31.5605 32.3157 31.5605 31.5604ZM36.3191 45.5433H33.9219C33.9168 45.5432 33.9118 45.5431 33.9067 45.5431H33.8852C33.1398 45.5314 32.5371 44.9216 32.5371 44.1735C32.5371 43.4181 33.1517 42.8037 33.9069 42.8037H36.3191C37.0744 42.8037 37.689 43.4181 37.689 44.1735C37.689 44.9289 37.0744 45.5433 36.3191 45.5433ZM37.2955 41.3389H32.9303C32.175 41.3389 31.5604 40.7245 31.5604 39.9691C31.5604 39.2137 32.175 38.5993 32.9303 38.5993H37.2955C38.0508 38.5993 38.6653 39.2137 38.6653 39.9691C38.6653 40.7245 38.0509 41.3389 37.2955 41.3389ZM38.2721 37.1346H33.9068C33.1516 37.1346 32.537 36.5201 32.537 35.7648C32.537 35.0095 33.1516 34.395 33.9068 34.395H38.2721C39.0273 34.395 39.6419 35.0095 39.6419 35.7648C39.6419 36.5201 39.0273 37.1346 38.2721 37.1346Z" fill="url(#paint2_linear_793_40)"/>
<path d="M19.9746 8.45842L21.4561 9.90256L21.1064 11.9417C20.951 13.251 21.9153 13.9468 23.1609 13.4344L24.992 12.4716L26.8233 13.4344C27.7472 13.9199 29.0851 13.1504 28.8777 11.9417L28.528 9.90247L30.0095 8.45842C30.9115 7.526 30.6064 6.25657 29.2247 6.04329L27.1774 5.74573L26.2617 3.89046C25.7359 2.78987 24.3594 2.59944 23.7223 3.89046L22.8067 5.74573L20.7593 6.04329C19.4252 6.32981 19.0834 7.47727 19.9746 8.45842ZM23.0427 7.19172C23.504 7.12473 23.9026 6.83518 24.1089 6.41712L24.9921 4.62756L25.8753 6.41712C26.0816 6.83518 26.4802 7.12473 26.9415 7.19172L28.9163 7.47874L27.4873 8.87171C27.1535 9.1971 27.0014 9.66565 27.0801 10.125L27.4174 12.0919L25.651 11.1633C25.2117 10.9464 24.7726 10.9464 24.3333 11.1633L22.567 12.0919L22.9043 10.1249C22.9831 9.66546 22.8308 9.197 22.4971 8.87171L21.0681 7.47874L23.0427 7.19172Z" fill="url(#paint3_linear_793_40)"/>
<path d="M9.19545 12.3644L10.6769 13.8084L10.3272 15.8476C10.1199 17.0561 11.4577 17.826 12.3817 17.3403L14.2128 16.3775L16.0441 17.3403C17.2041 17.8578 18.2051 17.1327 18.0986 15.8477L17.7489 13.8086L19.2304 12.3645C20.085 11.4444 19.792 10.2604 18.4456 9.94932L16.3983 9.65176L15.4827 7.79649C14.7629 6.56172 13.6278 6.67159 12.9432 7.79649L12.0276 9.65176L9.98022 9.94932C8.62299 10.2359 8.2934 11.3955 9.19545 12.3644ZM12.2637 11.0976C12.7249 11.0305 13.1234 10.7409 13.3297 10.323L14.2129 8.5335L15.0961 10.323C15.3024 10.741 15.7009 11.0306 16.1622 11.0977L18.1372 11.3847L16.7082 12.7775C16.3744 13.1028 16.2221 13.5715 16.3009 14.0309L16.6382 15.9977L14.8719 15.069C14.4327 14.8521 13.9934 14.8521 13.554 15.069L11.7877 15.9977L12.125 14.0309C12.2039 13.5715 12.0517 13.1029 11.7178 12.7775L10.2888 11.3846L12.2637 11.0976Z" fill="url(#paint4_linear_793_40)"/>
<path d="M9.32406 24.6359L8.97435 22.5967L10.4558 21.1526C11.3691 20.2939 10.9421 18.9512 9.67113 18.7375L7.62367 18.4399L6.70804 16.5846C6.31556 15.6554 4.80579 15.2936 4.16859 16.5846L3.25296 18.4399L1.2056 18.7375C-0.129557 19.0245 -0.300456 20.2696 0.420931 21.1527L1.90238 22.5968L1.55267 24.636C1.40853 25.9824 2.36068 26.7147 3.60716 26.1287L5.43841 25.1659L7.26966 26.1287C8.19359 26.6142 9.53138 25.8444 9.32406 24.6359ZM7.93353 21.5657C7.59974 21.891 7.44749 22.3595 7.5262 22.819L7.86351 24.7858L6.0971 23.8572C5.6846 23.6403 5.19202 23.6403 4.77933 23.8572L3.01302 24.7858L3.35033 22.8189C3.42913 22.3594 3.27689 21.8909 2.9431 21.5657L1.5141 20.1727L3.4888 19.8858C3.95013 19.8188 4.34867 19.5292 4.55501 19.1112L5.43822 17.3216L6.32142 19.1111C6.52777 19.5292 6.9263 19.8187 7.38753 19.8857L9.36234 20.1727L7.93353 21.5657Z" fill="url(#paint5_linear_793_40)"/>
<path d="M48.7778 18.7377L46.7305 18.4402L45.8148 16.5849C45.1693 15.2773 43.9125 15.2938 43.2754 16.5849L42.3596 18.4402L40.3124 18.7377C38.9753 18.9881 38.6265 20.1599 39.5275 21.1529L41.009 22.597L40.6592 24.6362C40.452 25.8447 41.7898 26.6144 42.7137 26.1288L44.5449 25.166L46.3761 26.1288C47.6226 26.6905 48.5992 25.9582 48.4305 24.6362L48.0808 22.597L49.5624 21.1529C50.3937 20.3552 49.9909 18.927 48.7778 18.7377ZM47.0402 21.5659C46.7064 21.8913 46.5543 22.3599 46.6331 22.8193L46.9704 24.7861L45.204 23.8574C44.7647 23.6405 44.3255 23.6405 43.8862 23.8574L42.1199 24.7861L42.4572 22.8193C42.5361 22.3597 42.3838 21.8911 42.05 21.5659L40.621 20.173L42.5959 19.886C43.0571 19.819 43.4556 19.5294 43.662 19.1114L44.5453 17.3219L45.4285 19.1114C45.6347 19.5294 46.0333 19.819 46.4946 19.886L48.4695 20.173L47.0402 21.5659Z" fill="url(#paint6_linear_793_40)"/>
<path d="M30.7838 12.3645L32.2653 13.8086L31.9154 15.8477C31.7544 17.1694 32.7187 17.8578 33.9699 17.3404L35.8011 16.3776L37.6323 17.3404C38.5564 17.826 39.8942 17.0563 39.6868 15.8477L39.3371 13.8086L40.8186 12.3645C41.7026 11.298 41.434 10.2238 40.0338 9.94939L37.9864 9.65183L37.0707 7.79666C36.5514 6.74412 35.0507 6.74431 34.5313 7.79666L33.6156 9.65193L31.5683 9.94949C30.192 10.2117 29.8502 11.3102 30.7838 12.3645ZM33.8521 11.0977C34.3133 11.0306 34.7118 10.7411 34.9182 10.3231L35.8014 8.53367L36.6846 10.3231C36.8908 10.7411 37.2894 11.0306 37.7508 11.0977L39.7256 11.3847L38.2966 12.7777C37.9628 13.1031 37.8107 13.5717 37.8894 14.031L38.2267 15.9979L36.4605 15.0693C36.0212 14.8524 35.5819 14.8524 35.1425 15.0693L33.3762 15.9979L33.7135 14.0311C33.7924 13.5718 33.6402 13.1032 33.3064 12.7778L31.8774 11.3848L33.8521 11.0977Z" fill="url(#paint7_linear_793_40)"/>
</g>
<defs>
<linearGradient id="paint0_linear_793_40" x1="18.9852" y1="17.8579" x2="18.9852" y2="47.0082" gradientUnits="userSpaceOnUse">
<stop stop-color="#F86CA7"/>
<stop offset="1" stop-color="#FF7F18"/>
</linearGradient>
<linearGradient id="paint1_linear_793_40" x1="12.54" y1="31.5581" x2="12.54" y2="34.8905" gradientUnits="userSpaceOnUse">
<stop stop-color="#F86CA7"/>
<stop offset="1" stop-color="#FF7F18"/>
</linearGradient>
<linearGradient id="paint2_linear_793_40" x1="31.7952" y1="25.1201" x2="31.7952" y2="47.0084" gradientUnits="userSpaceOnUse">
<stop stop-color="#F86CA7"/>
<stop offset="1" stop-color="#FF7F18"/>
</linearGradient>
<linearGradient id="paint3_linear_793_40" x1="25.0008" y1="2.99219" x2="25.0008" y2="13.6036" gradientUnits="userSpaceOnUse">
<stop stop-color="#F86CA7"/>
<stop offset="1" stop-color="#FF7F18"/>
</linearGradient>
<linearGradient id="paint4_linear_793_40" x1="14.2011" y1="6.91113" x2="14.2011" y2="17.5087" gradientUnits="userSpaceOnUse">
<stop stop-color="#F86CA7"/>
<stop offset="1" stop-color="#FF7F18"/>
</linearGradient>
<linearGradient id="paint5_linear_793_40" x1="5.47215" y1="15.7466" x2="5.47215" y2="26.3326" gradientUnits="userSpaceOnUse">
<stop stop-color="#F86CA7"/>
<stop offset="1" stop-color="#FF7F18"/>
</linearGradient>
<linearGradient id="paint6_linear_793_40" x1="44.5137" y1="15.6104" x2="44.5137" y2="26.3196" gradientUnits="userSpaceOnUse">
<stop stop-color="#F86CA7"/>
<stop offset="1" stop-color="#FF7F18"/>
</linearGradient>
<linearGradient id="paint7_linear_793_40" x1="35.7935" y1="7.00732" x2="35.7935" y2="17.513" gradientUnits="userSpaceOnUse">
<stop stop-color="#F86CA7"/>
<stop offset="1" stop-color="#FF7F18"/>
</linearGradient>
<clipPath id="clip0_793_40">
<rect width="50" height="50" fill="white"/>
</clipPath>
</defs>
</svg>
