<svg width="70" height="70" viewBox="0 0 70 70" fill="none" xmlns="http://www.w3.org/2000/svg">
<path d="M49.0581 35.7578L70 29.6569L48.9842 30.0706L65.6127 17.209L45.4783 25.5946L55.9714 6.47461L41.4012 21.6258L44.0651 0.772584L35.7583 20.9414L29.6574 -0.000488281L30.071 21.0202L17.2095 4.39175L25.5951 24.5261L6.4751 14.0281L21.6263 28.5983L0.773073 25.9393L20.9419 34.2461L0 40.3421L21.0207 39.9285L4.39223 52.795L24.5266 44.4093L14.0286 63.5293L28.5988 48.3732L25.9398 69.2264L34.2466 49.0576L40.3426 69.9995L39.9339 48.9838L52.7954 65.6122L44.4098 45.4778L63.5298 55.971L48.3737 41.4007L69.2269 44.0646L49.0581 35.7578Z" fill="#FFB800"/>
</svg>
