<svg width="28" height="28" viewBox="0 0 28 28" fill="none" xmlns="http://www.w3.org/2000/svg">
<path d="M4.84172 21.175C4.10283 20.3 3.52435 19.3229 3.1063 18.2437C2.68824 17.1646 2.44033 16.0417 2.36255 14.875H4.17088C4.2681 15.7889 4.48199 16.6736 4.81255 17.5292C5.1431 18.3847 5.60005 19.1625 6.18338 19.8625L4.84172 21.175ZM2.36255 12.5417C2.40144 11.375 2.63963 10.2569 3.07713 9.1875C3.51463 8.11805 4.10283 7.13611 4.84172 6.24166L6.18338 7.55416C5.61949 8.29305 5.16741 9.08055 4.82713 9.91666C4.48685 10.7528 4.2681 11.6278 4.17088 12.5417H2.36255ZM12.8625 25.4042C11.7153 25.2486 10.607 24.9764 9.53755 24.5875C8.4681 24.1986 7.47644 23.6639 6.56255 22.9833L7.90422 21.5833C8.6431 22.0889 9.4306 22.5215 10.2667 22.8812C11.1028 23.241 11.9681 23.4986 12.8625 23.6542V25.4042ZM7.96255 5.83333L6.56255 4.43333C7.49588 3.73333 8.50213 3.19375 9.5813 2.81458C10.6605 2.43541 11.7834 2.16805 12.95 2.0125V3.7625C12.0362 3.91805 11.1612 4.16597 10.325 4.50625C9.48894 4.84652 8.70144 5.28889 7.96255 5.83333ZM11.2875 18.6958V8.72083L19.1042 13.7083L11.2875 18.6958ZM15.2834 25.4042V23.6542C17.7723 23.2847 19.8334 22.1618 21.4667 20.2854C23.1 18.409 23.9167 16.2167 23.9167 13.7083C23.9167 11.2 23.1 9.00764 21.4667 7.13125C19.8334 5.25486 17.7723 4.13194 15.2834 3.7625V2.0125C18.2778 2.30416 20.757 3.57291 22.7209 5.81875C24.6848 8.06458 25.6667 10.6944 25.6667 13.7083C25.6667 16.7222 24.6848 19.3472 22.7209 21.5833C20.757 23.8194 18.2778 25.0931 15.2834 25.4042Z" fill="white"/>
</svg>
