<svg width="55" height="55" viewBox="0 0 55 55" fill="none" xmlns="http://www.w3.org/2000/svg">
<path d="M45.2208 18.7693C45.2208 17.0951 43.8617 15.7331 42.1912 15.7331C41.2664 15.7331 40.4376 16.151 39.8814 16.8077C39.8807 16.8074 39.88 16.807 39.8794 16.8066L30.569 12.6629C30.6498 12.3897 30.6939 12.1008 30.6939 11.8017C30.6939 10.1276 29.3348 8.76562 27.6643 8.76562C25.9937 8.76562 24.6346 10.1276 24.6346 11.8017C24.6346 12.1009 24.6787 12.3897 24.7595 12.6629L22.1739 13.8136C21.767 13.9948 21.5835 14.4724 21.7643 14.8803C21.8978 15.1816 22.1927 15.3607 22.5017 15.3607C22.6111 15.3607 22.7222 15.3383 22.8286 15.291L25.6258 14.0461C26.1644 14.5378 26.8799 14.838 27.6641 14.838C28.4484 14.838 29.1638 14.5378 29.7025 14.0461L39.2024 18.2742C39.1758 18.4354 39.1614 18.6007 39.1614 18.7694C39.1614 18.922 39.173 19.072 39.1948 19.2186L30.0677 23.2808C29.5116 22.6198 28.6799 22.1989 27.7516 22.1989C26.7968 22.1989 25.9443 22.6443 25.3886 23.338L15.7688 19.0565C15.7777 18.962 15.7827 18.8664 15.7827 18.7696C15.7827 18.6567 15.776 18.5452 15.7639 18.4354L19.7427 16.6646C20.1498 16.4835 20.3333 16.0059 20.1525 15.5979C19.9718 15.1899 19.4951 15.0062 19.0882 15.1873L15.1642 16.9338C14.6103 16.205 13.7358 15.7335 12.7533 15.7335C11.0827 15.7335 9.72363 17.0954 9.72363 18.7696C9.72363 20.3 10.8596 21.5689 12.3308 21.7755V33.5048C10.8597 33.7115 9.72363 34.9804 9.72363 36.5108C9.72363 38.1849 11.0827 39.5469 12.7533 39.5469C13.7358 39.5469 14.6103 39.0754 15.1642 38.3467L24.6679 42.5766C24.646 42.7232 24.6344 42.8731 24.6344 43.0258C24.6344 44.7 25.9935 46.0619 27.664 46.0619C29.3346 46.0619 30.6937 44.7 30.6937 43.0258C30.6937 42.8731 30.682 42.7232 30.6603 42.5766L33.8189 41.1707C34.226 40.9896 34.4094 40.512 34.2287 40.104C34.0479 39.696 33.5712 39.5123 33.1642 39.6935L30.0043 41.0998C29.6131 40.6233 29.08 40.2686 28.4705 40.0997V31.2885L39.1948 36.0616C39.1729 36.2083 39.1614 36.3582 39.1614 36.5109C39.1614 36.6795 39.1758 36.8448 39.2024 37.006L36.3105 38.2931C35.9035 38.4743 35.7201 38.9519 35.9008 39.3598C36.0344 39.6611 36.3292 39.8402 36.6383 39.8402C36.7476 39.8402 36.8588 39.8178 36.9653 39.7704L39.8814 38.4725C40.4376 39.1291 41.2663 39.547 42.1911 39.547C43.8616 39.547 45.2207 38.185 45.2207 36.5109C45.2207 35.1166 44.2776 33.9396 42.9975 33.5849V21.6953C44.2778 21.3404 45.2208 20.1635 45.2208 18.7693ZM27.6643 13.2214C26.8831 13.2214 26.2476 12.5845 26.2476 11.8016C26.2476 11.0188 26.8831 10.3819 27.6643 10.3819C28.4454 10.3819 29.0809 11.0188 29.0809 11.8016C29.0808 12.5845 28.4453 13.2214 27.6643 13.2214ZM42.1912 17.3495C42.9724 17.3495 43.6078 17.9864 43.6078 18.7693C43.6078 19.5521 42.9724 20.189 42.1912 20.189C41.41 20.189 40.7745 19.5521 40.7745 18.7693C40.7745 17.9864 41.41 17.3495 42.1912 17.3495ZM27.7518 23.8151C28.533 23.8151 29.1685 24.452 29.1685 25.2348C29.1685 26.0177 28.533 26.6546 27.7518 26.6546C26.9706 26.6546 26.3351 26.0177 26.3351 25.2348C26.3351 24.452 26.9706 23.8151 27.7518 23.8151ZM24.7509 24.8224C24.7325 24.9573 24.7222 25.0949 24.7222 25.2347C24.7222 26.5971 25.6223 27.7526 26.8577 28.1358V29.5198L15.1919 34.712C14.8732 34.2792 14.4429 33.9338 13.9436 33.7193V21.5608C14.4429 21.3461 14.8732 21.0009 15.1919 20.5681L24.7509 24.8224ZM11.3367 18.7693C11.3367 17.9864 11.9722 17.3495 12.7534 17.3495C13.5346 17.3495 14.1701 17.9864 14.1701 18.7693C14.1701 19.5521 13.5346 20.189 12.7534 20.189C11.9722 20.1889 11.3367 19.552 11.3367 18.7693ZM12.7534 37.9305C11.9722 37.9305 11.3367 37.2937 11.3367 36.5108C11.3367 35.7279 11.9722 35.0911 12.7534 35.0911C13.5346 35.0911 14.1701 35.7279 14.1701 36.5108C14.1699 37.2937 13.5344 37.9305 12.7534 37.9305ZM15.7642 36.8449C15.7762 36.7351 15.7829 36.6237 15.7829 36.5108C15.7829 36.414 15.7778 36.3183 15.769 36.2238L26.8578 31.2884V40.0996C26.2483 40.2686 25.7152 40.6232 25.324 41.0997L15.7642 36.8449ZM29.0808 43.0257C29.0808 43.8086 28.4453 44.4454 27.6641 44.4454C26.883 44.4454 26.2475 43.8086 26.2475 43.0257C26.2475 42.2428 26.883 41.606 27.6641 41.606C28.4453 41.606 29.0808 42.2428 29.0808 43.0257ZM28.4707 29.5198V28.1838C29.7953 27.8594 30.7814 26.6606 30.7814 25.2347C30.7814 25.0694 30.7676 24.9074 30.7422 24.7492L39.8509 20.6951C40.2421 21.1717 40.7752 21.5264 41.3847 21.6953V33.5848C40.7752 33.7538 40.2421 34.1084 39.8509 34.5849L28.4707 29.5198ZM43.6078 36.5108C43.6078 37.2937 42.9724 37.9305 42.1912 37.9305C41.41 37.9305 40.7745 37.2937 40.7745 36.5108C40.7745 35.7279 41.41 35.0911 42.1912 35.0911C42.9722 35.0911 43.6078 35.7279 43.6078 36.5108Z" fill="url(#paint0_linear_1244_1488)"/>
<path d="M1.02295 23.4965C1.07069 23.505 1.11811 23.5091 1.16488 23.5091C1.54844 23.5091 1.88855 23.2338 1.95802 22.8421C2.04888 22.3297 2.15641 21.8137 2.27791 21.3087C2.38222 20.8747 2.11576 20.4382 1.68274 20.3337C1.24972 20.2292 0.814126 20.4962 0.709823 20.9301C0.580789 21.4669 0.466486 22.015 0.370033 22.5595C0.291967 22.9989 0.584445 23.4184 1.02295 23.4965Z" fill="url(#paint1_linear_1244_1488)"/>
<path d="M4.9511 12.9736C4.56894 12.7439 4.07356 12.8685 3.84474 13.2513C3.56076 13.726 3.28785 14.2154 3.03343 14.7058C2.82806 15.1018 2.98182 15.5897 3.37699 15.7957C3.49592 15.8576 3.62301 15.8869 3.74829 15.8869C4.03958 15.8869 4.32088 15.7283 4.46453 15.4514C4.70389 14.9898 4.96089 14.5293 5.2282 14.0824C5.45724 13.6994 5.33315 13.203 4.9511 12.9736Z" fill="url(#paint2_linear_1244_1488)"/>
<path d="M10.2531 6.92061C9.95591 6.58806 9.44612 6.56004 9.11429 6.85778C8.70364 7.22643 8.29879 7.61231 7.91115 8.00467C7.5977 8.3218 7.60028 8.83355 7.91685 9.14756C8.07405 9.3036 8.27922 9.3814 8.48428 9.3814C8.69202 9.3814 8.89966 9.30144 9.0574 9.14185C9.42257 8.77235 9.80376 8.40898 10.1905 8.06178C10.5222 7.76404 10.5502 7.25304 10.2531 6.92061Z" fill="url(#paint3_linear_1244_1488)"/>
<path d="M3.26857 36.7132C3.1091 36.2965 2.64254 36.0882 2.22672 36.2482C1.81091 36.4082 1.60316 36.8756 1.76274 37.2923C1.95984 37.8073 2.17543 38.323 2.40339 38.8252C2.53856 39.1231 2.83146 39.2989 3.13792 39.2989C3.24953 39.2989 3.36308 39.2755 3.47137 39.2262C3.87686 39.0414 4.056 38.5622 3.87148 38.1559C3.65696 37.6832 3.45416 37.1978 3.26857 36.7132Z" fill="url(#paint4_linear_1244_1488)"/>
<path d="M7.12114 43.4925C6.84522 43.1422 6.33801 43.0824 5.98843 43.3589C5.63886 43.6355 5.57918 44.1437 5.8551 44.494C6.19628 44.9271 6.55543 45.3559 6.92243 45.7684C7.08178 45.9474 7.30275 46.0386 7.52459 46.0386C7.71556 46.0386 7.90739 45.971 8.06105 45.8336C8.39342 45.5365 8.42267 45.0256 8.12621 44.6925C7.78061 44.3042 7.44243 43.9004 7.12114 43.4925Z" fill="url(#paint5_linear_1244_1488)"/>
<path d="M37.9538 3.65485C38.4286 3.86552 38.9034 4.09376 39.3653 4.3332C39.4838 4.39462 39.6104 4.42371 39.7352 4.42371C40.0271 4.42371 40.3089 4.26445 40.4522 3.98675C40.6569 3.5903 40.5021 3.10269 40.1065 2.89752C39.6158 2.6431 39.1113 2.40053 38.6068 2.17682C38.1996 1.99611 37.7233 2.18048 37.5429 2.58868C37.3625 2.99687 37.5465 3.47425 37.9538 3.65485Z" fill="url(#paint6_linear_1244_1488)"/>
<path d="M52.9299 22.5301C53.0035 22.9176 53.3417 23.1875 53.7212 23.1875C53.7712 23.1875 53.8219 23.1827 53.8729 23.1731C54.3104 23.0897 54.5977 22.6667 54.5145 22.2282C54.4115 21.6852 54.2904 21.1384 54.1547 20.6031C54.0451 20.1705 53.6064 19.9089 53.1746 20.0187C52.7428 20.1285 52.4818 20.5684 52.5914 21.0009C52.7191 21.5047 52.8329 22.0191 52.9299 22.5301Z" fill="url(#paint7_linear_1244_1488)"/>
<path d="M22.499 1.90657C22.5484 1.90657 22.5986 1.90194 22.6491 1.89246C23.1588 1.79634 23.6783 1.71455 24.1934 1.64946C24.6352 1.59364 24.9483 1.18933 24.8926 0.746435C24.8367 0.303544 24.4336 -0.0102519 23.9915 0.045783C23.4444 0.114965 22.8923 0.201819 22.3508 0.303975C21.913 0.386518 21.625 0.809043 21.7074 1.24773C21.7801 1.63588 22.1186 1.90657 22.499 1.90657Z" fill="url(#paint8_linear_1244_1488)"/>
<path d="M14.9253 4.57396C15.0533 4.57396 15.1831 4.54336 15.304 4.47881C15.7614 4.23452 16.2323 4.00111 16.7035 3.78506C17.1086 3.59939 17.2867 3.11975 17.1013 2.71382C16.9159 2.30789 16.4373 2.12944 16.0325 2.31522C15.5318 2.54474 15.0315 2.79281 14.5456 3.05229C14.1524 3.26221 14.0036 3.75176 14.2131 4.14562C14.358 4.41857 14.637 4.57396 14.9253 4.57396Z" fill="url(#paint9_linear_1244_1488)"/>
<path d="M30.4353 1.61132C30.9515 1.67015 31.4721 1.74548 31.9825 1.83535C32.0297 1.84365 32.0766 1.84763 32.1228 1.84763C32.5071 1.84763 32.8475 1.57134 32.9162 1.17898C32.9932 0.739326 32.6999 0.320357 32.2612 0.243202C31.7188 0.147834 31.1658 0.0677691 30.6174 0.00526855C30.175 -0.0452707 29.7753 0.273482 29.7249 0.716912C29.6747 1.16045 29.9927 1.56088 30.4353 1.61132Z" fill="url(#paint10_linear_1244_1488)"/>
<path d="M1.75718 30.6477C1.69331 30.1325 1.64428 29.6076 1.61126 29.0875C1.58298 28.642 1.19954 28.3039 0.755229 28.3322C0.310705 28.3606 -0.02672 28.7446 0.00166762 29.1901C0.036722 29.7423 0.0888734 30.2997 0.156616 30.8468C0.20737 31.256 0.554795 31.5555 0.955985 31.5555C0.989103 31.5555 1.02265 31.5535 1.05642 31.5493C1.49814 31.4943 1.81202 31.0907 1.75718 30.6477Z" fill="url(#paint11_linear_1244_1488)"/>
<path d="M53.2333 34.5998C52.808 34.4674 52.356 34.7056 52.2238 35.1317C52.0696 35.6288 51.898 36.1282 51.7137 36.6156C51.5558 37.0331 51.7656 37.4995 52.182 37.6577C52.2761 37.6935 52.3726 37.7103 52.4676 37.7103C52.7931 37.7103 53.0996 37.5114 53.2219 37.1883C53.4178 36.6703 53.6002 36.1398 53.764 35.6115C53.8963 35.1852 53.6587 34.7323 53.2333 34.5998Z" fill="url(#paint12_linear_1244_1488)"/>
<path d="M14.124 49.678C13.6793 49.4097 13.2366 49.124 12.8083 48.8288C12.4413 48.5759 11.9393 48.6691 11.6869 49.0369C11.4346 49.4047 11.5276 49.9079 11.8946 50.1607C12.3494 50.4742 12.8196 50.7777 13.2919 51.0627C13.4221 51.1412 13.5656 51.1786 13.7072 51.1786C13.9807 51.1786 14.2474 51.0392 14.3988 50.7873C14.6285 50.4049 14.5055 49.9083 14.124 49.678Z" fill="url(#paint13_linear_1244_1488)"/>
<path d="M49.9339 41.9473C49.5673 41.6935 49.0651 41.7857 48.812 42.1531C48.5171 42.5811 48.205 43.006 47.8846 43.4159C47.6098 43.7673 47.6715 44.2753 48.022 44.5505C48.1696 44.6663 48.3448 44.7225 48.5189 44.7225C48.7582 44.7225 48.9952 44.6161 49.1543 44.4127C49.4946 43.9773 49.826 43.5261 50.1392 43.0715C50.3924 42.7043 50.3004 42.2009 49.9339 41.9473Z" fill="url(#paint14_linear_1244_1488)"/>
<path d="M54.1931 26.6055C53.7477 26.6055 53.3867 26.9673 53.3867 27.4137C53.3867 27.9351 53.3711 28.4623 53.3403 28.9804C53.3139 29.426 53.6529 29.8086 54.0975 29.8351C54.1138 29.8361 54.13 29.8365 54.1461 29.8365C54.5697 29.8365 54.925 29.5055 54.9504 29.0763C54.9831 28.5263 54.9996 27.9669 54.9996 27.4136C54.9996 26.9673 54.6385 26.6055 54.1931 26.6055Z" fill="url(#paint15_linear_1244_1488)"/>
<path d="M45.5844 6.63878C45.2489 6.34492 44.7397 6.37919 44.4465 6.71518C44.1532 7.05118 44.1874 7.56174 44.5227 7.8556C44.9137 8.19817 45.2993 8.55701 45.6687 8.92231C45.8258 9.07759 46.0305 9.15507 46.235 9.15507C46.4433 9.15507 46.6514 9.07468 46.8092 8.91445C47.122 8.59666 47.1184 8.08491 46.8013 7.77155C46.409 7.38361 45.9995 7.00247 45.5844 6.63878Z" fill="url(#paint16_linear_1244_1488)"/>
<path d="M51.7559 14.4094C51.4959 13.9227 51.2176 13.4377 50.9288 12.9678C50.6952 12.5877 50.1985 12.4693 49.8192 12.7034C49.44 12.9375 49.3219 13.4354 49.5554 13.8154C49.8273 14.2578 50.0892 14.7144 50.3341 15.1724C50.4794 15.4445 50.7578 15.5993 51.0457 15.5993C51.1742 15.5993 51.3045 15.5685 51.4257 15.5034C51.8183 15.2927 51.9661 14.8029 51.7559 14.4094Z" fill="url(#paint17_linear_1244_1488)"/>
<path d="M21.3268 52.6492C20.8224 52.5263 20.3154 52.3863 19.8199 52.233C19.3942 52.1013 18.9428 52.3403 18.8115 52.7668C18.6801 53.1933 18.9187 53.6458 19.3443 53.7774C19.871 53.9403 20.4098 54.0891 20.9457 54.2197C21.0098 54.2353 21.0739 54.2428 21.1369 54.2428C21.5002 54.2428 21.8302 53.9949 21.9199 53.6254C22.0251 53.1918 21.7596 52.7547 21.3268 52.6492Z" fill="url(#paint18_linear_1244_1488)"/>
<path d="M29.0884 53.3341C28.5711 53.366 28.045 53.3827 27.5246 53.3837C27.0792 53.3845 26.7189 53.7471 26.7197 54.1935C26.7206 54.6393 27.0815 55.0001 27.5262 55.0001H27.5279C28.0801 54.999 28.6384 54.9812 29.1874 54.9475C29.6319 54.9201 29.9702 54.5367 29.9429 54.0912C29.9155 53.6457 29.5332 53.3064 29.0884 53.3341Z" fill="url(#paint19_linear_1244_1488)"/>
<path d="M43.4745 47.8422C43.0665 48.1637 42.6435 48.4768 42.2172 48.7728C41.8512 49.0272 41.7601 49.5306 42.0139 49.8975C42.1705 50.1239 42.4218 50.2454 42.6773 50.2454C42.8358 50.2454 42.9959 50.1986 43.1361 50.1013C43.5887 49.7869 44.038 49.4543 44.4713 49.113C44.8214 48.8372 44.8822 48.3291 44.6069 47.9782C44.3315 47.6272 43.8247 47.5665 43.4745 47.8422Z" fill="url(#paint20_linear_1244_1488)"/>
<path d="M36.7008 51.689C36.2162 51.8741 35.7193 52.0469 35.2239 52.2022C34.7988 52.3356 34.5622 52.789 34.6953 53.215C34.8032 53.5606 35.1214 53.7819 35.4646 53.7819C35.5445 53.7819 35.6257 53.7699 35.7058 53.7447C36.2322 53.5795 36.7603 53.396 37.2753 53.1992C37.6916 53.0403 37.9003 52.5733 37.7417 52.1562C37.5829 51.7393 37.1169 51.5299 36.7008 51.689Z" fill="url(#paint21_linear_1244_1488)"/>
<defs>
<linearGradient id="paint0_linear_1244_1488" x1="27.4722" y1="8.76562" x2="27.4722" y2="46.0619" gradientUnits="userSpaceOnUse">
<stop stop-color="#FF7222"/>
<stop offset="1" stop-color="#FF166A"/>
</linearGradient>
<linearGradient id="paint1_linear_1244_1488" x1="1.32897" y1="20.311" x2="1.32897" y2="23.5091" gradientUnits="userSpaceOnUse">
<stop stop-color="#FF7222"/>
<stop offset="1" stop-color="#FF166A"/>
</linearGradient>
<linearGradient id="paint2_linear_1244_1488" x1="4.14274" y1="12.8584" x2="4.14274" y2="15.8869" gradientUnits="userSpaceOnUse">
<stop stop-color="#FF7222"/>
<stop offset="1" stop-color="#FF166A"/>
</linearGradient>
<linearGradient id="paint3_linear_1244_1488" x1="9.06828" y1="6.65161" x2="9.06828" y2="9.3814" gradientUnits="userSpaceOnUse">
<stop stop-color="#FF7222"/>
<stop offset="1" stop-color="#FF166A"/>
</linearGradient>
<linearGradient id="paint4_linear_1244_1488" x1="2.82655" y1="36.1943" x2="2.82655" y2="39.2989" gradientUnits="userSpaceOnUse">
<stop stop-color="#FF7222"/>
<stop offset="1" stop-color="#FF166A"/>
</linearGradient>
<linearGradient id="paint5_linear_1244_1488" x1="7.0062" y1="43.1851" x2="7.0062" y2="46.0386" gradientUnits="userSpaceOnUse">
<stop stop-color="#FF7222"/>
<stop offset="1" stop-color="#FF166A"/>
</linearGradient>
<linearGradient id="paint6_linear_1244_1488" x1="39.0081" y1="2.10742" x2="39.0081" y2="4.42371" gradientUnits="userSpaceOnUse">
<stop stop-color="#FF7222"/>
<stop offset="1" stop-color="#FF166A"/>
</linearGradient>
<linearGradient id="paint7_linear_1244_1488" x1="53.5476" y1="19.9937" x2="53.5476" y2="23.1875" gradientUnits="userSpaceOnUse">
<stop stop-color="#FF7222"/>
<stop offset="1" stop-color="#FF166A"/>
</linearGradient>
<linearGradient id="paint8_linear_1244_1488" x1="23.2962" y1="0.0393066" x2="23.2962" y2="1.90657" gradientUnits="userSpaceOnUse">
<stop stop-color="#FF7222"/>
<stop offset="1" stop-color="#FF166A"/>
</linearGradient>
<linearGradient id="paint9_linear_1244_1488" x1="15.6464" y1="2.2417" x2="15.6464" y2="4.57396" gradientUnits="userSpaceOnUse">
<stop stop-color="#FF7222"/>
<stop offset="1" stop-color="#FF166A"/>
</linearGradient>
<linearGradient id="paint10_linear_1244_1488" x1="31.3241" y1="0" x2="31.3241" y2="1.84763" gradientUnits="userSpaceOnUse">
<stop stop-color="#FF7222"/>
<stop offset="1" stop-color="#FF166A"/>
</linearGradient>
<linearGradient id="paint11_linear_1244_1488" x1="0.8817" y1="28.3306" x2="0.8817" y2="31.5555" gradientUnits="userSpaceOnUse">
<stop stop-color="#FF7222"/>
<stop offset="1" stop-color="#FF166A"/>
</linearGradient>
<linearGradient id="paint12_linear_1244_1488" x1="52.7309" y1="34.5632" x2="52.7309" y2="37.7103" gradientUnits="userSpaceOnUse">
<stop stop-color="#FF7222"/>
<stop offset="1" stop-color="#FF166A"/>
</linearGradient>
<linearGradient id="paint13_linear_1244_1488" x1="13.0297" y1="48.6865" x2="13.0297" y2="51.1786" gradientUnits="userSpaceOnUse">
<stop stop-color="#FF7222"/>
<stop offset="1" stop-color="#FF166A"/>
</linearGradient>
<linearGradient id="paint14_linear_1244_1488" x1="48.9975" y1="41.804" x2="48.9975" y2="44.7225" gradientUnits="userSpaceOnUse">
<stop stop-color="#FF7222"/>
<stop offset="1" stop-color="#FF166A"/>
</linearGradient>
<linearGradient id="paint15_linear_1244_1488" x1="54.1692" y1="26.6055" x2="54.1692" y2="29.8365" gradientUnits="userSpaceOnUse">
<stop stop-color="#FF7222"/>
<stop offset="1" stop-color="#FF166A"/>
</linearGradient>
<linearGradient id="paint16_linear_1244_1488" x1="45.6443" y1="6.43896" x2="45.6443" y2="9.15507" gradientUnits="userSpaceOnUse">
<stop stop-color="#FF7222"/>
<stop offset="1" stop-color="#FF166A"/>
</linearGradient>
<linearGradient id="paint17_linear_1244_1488" x1="50.6436" y1="12.5833" x2="50.6436" y2="15.5993" gradientUnits="userSpaceOnUse">
<stop stop-color="#FF7222"/>
<stop offset="1" stop-color="#FF166A"/>
</linearGradient>
<linearGradient id="paint18_linear_1244_1488" x1="20.3592" y1="52.1968" x2="20.3592" y2="54.2428" gradientUnits="userSpaceOnUse">
<stop stop-color="#FF7222"/>
<stop offset="1" stop-color="#FF166A"/>
</linearGradient>
<linearGradient id="paint19_linear_1244_1488" x1="28.3321" y1="53.3325" x2="28.3321" y2="55.0001" gradientUnits="userSpaceOnUse">
<stop stop-color="#FF7222"/>
<stop offset="1" stop-color="#FF166A"/>
</linearGradient>
<linearGradient id="paint20_linear_1244_1488" x1="43.3248" y1="47.6694" x2="43.3248" y2="50.2454" gradientUnits="userSpaceOnUse">
<stop stop-color="#FF7222"/>
<stop offset="1" stop-color="#FF166A"/>
</linearGradient>
<linearGradient id="paint21_linear_1244_1488" x1="36.2265" y1="51.6357" x2="36.2265" y2="53.7819" gradientUnits="userSpaceOnUse">
<stop stop-color="#FF7222"/>
<stop offset="1" stop-color="#FF166A"/>
</linearGradient>
</defs>
</svg>
