<svg width="60" height="61" viewBox="0 0 60 61" fill="none" xmlns="http://www.w3.org/2000/svg">
<path d="M40.3925 31.4635C40.8777 31.4635 41.2709 31.07 41.2709 30.5846V24.2377C41.2709 23.8714 41.0438 23.5434 40.701 23.4149L30.2901 19.5086C30.0911 19.434 29.8723 19.434 29.6732 19.5086L19.2623 23.4149C18.9195 23.5435 18.6924 23.8714 18.6924 24.2377V27.0594C18.6924 27.5448 19.0855 27.9383 19.5707 27.9383C20.0559 27.9383 20.4491 27.5448 20.4491 27.0594V25.506L29.1033 28.7531V40.3703L20.4491 37.1232V31.1706C20.4491 30.6853 20.0559 30.2918 19.5707 30.2918C19.0855 30.2918 18.6924 30.6853 18.6924 31.1706V37.7323C18.6924 38.0986 18.9195 38.4266 19.2623 38.5552L29.6732 42.4614C29.6733 42.4607 29.6735 42.4598 29.6736 42.459C29.7726 42.4961 29.8766 42.5173 29.9818 42.5173C30.0856 42.5173 30.1901 42.4989 30.2901 42.4613L40.701 38.5551C41.0438 38.4264 41.2709 38.0985 41.2709 37.7322V34.681C41.2709 34.1957 40.8777 33.8022 40.3925 33.8022C39.9073 33.8022 39.5142 34.1957 39.5142 34.681V37.1231L30.86 40.3703V28.7531L39.5142 25.506V30.5846C39.5142 31.0701 39.9073 31.4635 40.3925 31.4635ZM29.9816 27.2054L22.0724 24.2378L29.9816 21.2701L37.8909 24.2378L29.9816 27.2054Z" fill="url(#paint0_linear_781_392)"/>
<path d="M29.103 9.75923V16.0709C29.103 16.5563 29.4962 16.9499 29.9814 16.9499C30.4667 16.9499 30.8598 16.5563 30.8598 16.0709V9.75923C32.8819 9.35036 34.4092 7.5588 34.4092 5.41685C34.4092 2.97396 32.4229 0.986572 29.9814 0.986572C27.5399 0.986572 25.5537 2.97396 25.5537 5.41685C25.5537 7.5588 27.081 9.35036 29.103 9.75923ZM29.9814 2.74438C31.4541 2.74438 32.6524 3.94321 32.6524 5.41685C32.6524 6.89048 31.4541 8.08931 29.9814 8.08931C28.5088 8.08931 27.3105 6.89048 27.3105 5.41685C27.3105 3.94321 28.5088 2.74438 29.9814 2.74438Z" fill="url(#paint1_linear_781_392)"/>
<path d="M46.8799 41.8056C45.5186 41.8056 44.2605 42.2552 43.2458 43.0139L41.1431 40.91C40.8 40.5668 40.2439 40.5668 39.9008 40.91C39.5578 41.2533 39.5578 41.8098 39.9008 42.1529L42.0036 44.2568C41.2454 45.2721 40.796 46.531 40.796 47.893C40.796 51.2497 43.5254 53.9805 46.88 53.9805C50.2347 53.9805 52.9641 51.2497 52.9641 47.893C52.9641 44.5363 50.2347 41.8056 46.8799 41.8056ZM46.8799 52.2228C44.4938 52.2228 42.5527 50.2804 42.5527 47.8931C42.5527 45.5058 44.4938 43.5634 46.8799 43.5634C49.266 43.5634 51.2071 45.5058 51.2071 47.8931C51.2071 50.2804 49.266 52.2228 46.8799 52.2228Z" fill="url(#paint2_linear_781_392)"/>
<path d="M13.0839 20.165C14.4452 20.165 15.7033 19.7153 16.718 18.9566L18.8207 21.0605C18.9923 21.2321 19.2171 21.318 19.4419 21.318C19.6667 21.318 19.8915 21.2322 20.0631 21.0605C20.4062 20.7173 20.4062 20.1607 20.0631 19.8176L17.9605 17.7137C18.7187 16.6984 19.1681 15.4395 19.1681 14.0775C19.1681 10.7208 16.4387 7.98999 13.084 7.98999C9.72937 7.98999 7 10.7208 7 14.0775C7 17.4342 9.72913 20.165 13.0839 20.165ZM13.0839 9.74769C15.47 9.74769 17.4112 11.6901 17.4112 14.0774C17.4112 16.4648 15.47 18.4071 13.0839 18.4071C10.6978 18.4071 8.75668 16.4648 8.75668 14.0774C8.75668 11.6901 10.6978 9.74769 13.0839 9.74769Z" fill="url(#paint3_linear_781_392)"/>
<path d="M30.8598 52.2116V45.8999C30.8598 45.4145 30.4667 45.021 29.9814 45.021C29.4962 45.021 29.103 45.4145 29.103 45.8999V52.2116C27.081 52.6205 25.5537 54.4121 25.5537 56.554C25.5537 58.9969 27.5399 60.9843 29.9814 60.9843C32.4229 60.9843 34.4092 58.9969 34.4092 56.554C34.4092 54.4121 32.8819 52.6205 30.8598 52.2116ZM29.9814 59.2265C28.5088 59.2265 27.3105 58.0276 27.3105 56.554C27.3105 55.0804 28.5088 53.8815 29.9814 53.8815C31.4541 53.8815 32.6524 55.0804 32.6524 56.554C32.6524 58.0276 31.4541 59.2265 29.9814 59.2265Z" fill="url(#paint4_linear_781_392)"/>
<path d="M55.5361 26.5549C53.3954 26.5549 51.6049 28.0831 51.1963 30.1063H44.8882C44.4029 30.1063 44.0098 30.4998 44.0098 30.9852C44.0098 31.4706 44.4029 31.8641 44.8882 31.8641H51.1963C51.6049 33.8874 53.3954 35.4155 55.5361 35.4155C57.9776 35.4155 59.9639 33.4281 59.9639 30.9852C59.9639 28.5423 57.9776 26.5549 55.5361 26.5549ZM55.5361 33.6577C54.0635 33.6577 52.8652 32.4588 52.8652 30.9852C52.8652 29.5116 54.0634 28.3127 55.5361 28.3127C57.0089 28.3127 58.2071 29.5116 58.2071 30.9852C58.2071 32.4588 57.0089 33.6577 55.5361 33.6577Z" fill="url(#paint5_linear_781_392)"/>
<path d="M8.76761 31.8641H15.0757C15.5609 31.8641 15.9541 31.4706 15.9541 30.9852C15.9541 30.4998 15.5609 30.1063 15.0757 30.1063H8.76761C8.35898 28.0831 6.56845 26.5549 4.42773 26.5549C1.98624 26.5549 0 28.5423 0 30.9852C0 33.4281 1.98624 35.4155 4.42773 35.4155C6.56845 35.4155 8.35898 33.8874 8.76761 31.8641ZM4.42773 33.6577C2.95494 33.6577 1.7568 32.4588 1.7568 30.9852C1.7568 29.5116 2.95494 28.3127 4.42773 28.3127C5.90051 28.3127 7.09853 29.5116 7.09853 30.9852C7.09853 32.4588 5.90039 33.6577 4.42773 33.6577Z" fill="url(#paint6_linear_781_392)"/>
<path d="M40.522 21.3181C40.7468 21.3181 40.9717 21.2323 41.1432 21.0606L43.2459 18.9567C44.2606 19.7154 45.5189 20.1651 46.88 20.1651C50.2348 20.1651 52.9641 17.4342 52.9641 14.0775C52.9641 10.7208 50.2347 7.98999 46.88 7.98999C43.5254 7.98999 40.796 10.7208 40.796 14.0775C40.796 15.4396 41.2454 16.6984 42.0036 17.7137L39.9008 19.8176C39.5578 20.1609 39.5578 20.7174 39.9008 21.0605C40.0724 21.2323 40.2973 21.3181 40.522 21.3181ZM46.88 9.7478C49.2661 9.7478 51.2073 11.6902 51.2073 14.0775C51.2073 16.4649 49.2661 18.4073 46.88 18.4073C44.4939 18.4073 42.5528 16.4649 42.5528 14.0775C42.5528 11.6902 44.4939 9.7478 46.88 9.7478Z" fill="url(#paint7_linear_781_392)"/>
<path d="M18.8208 40.91L16.7182 43.0139C15.7034 42.2552 14.4452 41.8056 13.084 41.8056C9.72925 41.8056 7 44.5364 7 47.8931C7 51.2498 9.72937 53.9806 13.084 53.9806C16.4387 53.9806 19.1681 51.2498 19.1681 47.8931C19.1681 46.531 18.7187 45.2722 17.9605 44.2569L20.0631 42.153C20.4062 41.8098 20.4062 41.2532 20.0631 40.9101C19.7201 40.5668 19.164 40.5668 18.8208 40.91ZM13.084 52.2228C10.698 52.2228 8.7568 50.2804 8.7568 47.8931C8.7568 45.5057 10.698 43.5634 13.084 43.5634C15.4701 43.5634 17.4113 45.5057 17.4113 47.8931C17.4113 50.2804 15.4701 52.2228 13.084 52.2228Z" fill="url(#paint8_linear_781_392)"/>
<defs>
<linearGradient id="paint0_linear_781_392" x1="17.1862" y1="31.5672" x2="41.2845" y2="31.5672" gradientUnits="userSpaceOnUse">
<stop stop-color="#F86CA7"/>
<stop offset="1" stop-color="#FF7F18"/>
</linearGradient>
<linearGradient id="paint1_linear_781_392" x1="24.963" y1="9.37121" x2="34.4145" y2="9.37121" gradientUnits="userSpaceOnUse">
<stop stop-color="#F86CA7"/>
<stop offset="1" stop-color="#FF7F18"/>
</linearGradient>
<linearGradient id="paint2_linear_781_392" x1="38.755" y1="47.653" x2="52.9721" y2="47.653" gradientUnits="userSpaceOnUse">
<stop stop-color="#F86CA7"/>
<stop offset="1" stop-color="#FF7F18"/>
</linearGradient>
<linearGradient id="paint3_linear_781_392" x1="6.11144" y1="14.9904" x2="20.3284" y2="14.9904" gradientUnits="userSpaceOnUse">
<stop stop-color="#F86CA7"/>
<stop offset="1" stop-color="#FF7F18"/>
</linearGradient>
<linearGradient id="paint4_linear_781_392" x1="24.963" y1="53.4056" x2="34.4145" y2="53.4056" gradientUnits="userSpaceOnUse">
<stop stop-color="#F86CA7"/>
<stop offset="1" stop-color="#FF7F18"/>
</linearGradient>
<linearGradient id="paint5_linear_781_392" x1="42.9455" y1="31.2089" x2="59.9735" y2="31.2089" gradientUnits="userSpaceOnUse">
<stop stop-color="#F86CA7"/>
<stop offset="1" stop-color="#FF7F18"/>
</linearGradient>
<linearGradient id="paint6_linear_781_392" x1="-1.06425" y1="31.2089" x2="15.9637" y2="31.2089" gradientUnits="userSpaceOnUse">
<stop stop-color="#F86CA7"/>
<stop offset="1" stop-color="#FF7F18"/>
</linearGradient>
<linearGradient id="paint7_linear_781_392" x1="38.755" y1="14.9905" x2="52.9721" y2="14.9905" gradientUnits="userSpaceOnUse">
<stop stop-color="#F86CA7"/>
<stop offset="1" stop-color="#FF7F18"/>
</linearGradient>
<linearGradient id="paint8_linear_781_392" x1="6.11144" y1="47.6531" x2="20.3284" y2="47.6531" gradientUnits="userSpaceOnUse">
<stop stop-color="#F86CA7"/>
<stop offset="1" stop-color="#FF7F18"/>
</linearGradient>
</defs>
</svg>
