<svg width="55" height="55" viewBox="0 0 55 55" fill="none" xmlns="http://www.w3.org/2000/svg">
<path d="M23.0111 46.6513C22.7724 45.4447 22.28 44.3038 21.5673 43.3055C20.8545 42.3073 19.9379 41.4749 18.8792 40.8646C17.8616 40.2811 16.7727 39.8344 15.6403 39.5358C16.6497 38.7709 17.3951 37.7049 17.771 36.4887C18.1469 35.2726 18.1342 33.9679 17.7347 32.7594C17.3352 31.5509 16.5692 30.4999 15.545 29.7551C14.5209 29.0104 13.2906 28.6096 12.0283 28.6096C10.766 28.6096 9.53568 29.0104 8.51155 29.7551C7.48742 30.4999 6.72138 31.5509 6.32188 32.7594C5.92239 33.9679 5.90969 35.2726 6.28558 36.4887C6.66147 37.7049 7.40691 38.7709 8.41634 39.5358C7.28482 39.8346 6.19681 40.2813 5.17994 40.8646C4.12144 41.4748 3.20491 42.3071 2.49214 43.3052C1.77937 44.3033 1.28695 45.444 1.04806 46.6504L0.0168131 51.8656C-0.0231 52.0663 0.00857535 52.2747 0.106238 52.454C0.2039 52.6334 0.361258 52.7721 0.550485 52.8457C7.93945 55.7183 16.1223 55.7183 23.5113 52.8457C23.7005 52.7721 23.8579 52.6334 23.9555 52.454C24.0532 52.2747 24.0849 52.0663 24.0449 51.8656L23.0111 46.6513ZM7.734 34.6928C7.734 33.8351 7.98601 32.9966 8.45816 32.2835C8.9303 31.5703 9.60138 31.0145 10.3865 30.6863C11.1717 30.3581 12.0356 30.2722 12.8692 30.4395C13.7027 30.6068 14.4683 31.0198 15.0692 31.6263C15.6702 32.2328 16.0794 33.0055 16.2452 33.8467C16.411 34.6879 16.3259 35.5599 16.0007 36.3523C15.6755 37.1447 15.1247 37.822 14.4181 38.2985C13.7115 38.775 12.8807 39.0293 12.0309 39.0293C10.8917 39.028 9.79956 38.5706 8.99403 37.7577C8.18851 36.9447 7.73537 35.8425 7.734 34.6928ZM1.8447 51.4831L2.73588 46.9904C2.9265 46.0271 3.31964 45.1163 3.88877 44.3195C4.4579 43.5226 5.18978 42.8582 6.03502 42.3711C7.86742 41.3374 9.93165 40.7947 12.0309 40.7947C14.1301 40.7947 16.1943 41.3374 18.0267 42.3711C18.8721 42.8582 19.6041 43.5227 20.1732 44.3198C20.7424 45.1168 21.1354 46.0278 21.3259 46.9913L22.2171 51.4831C15.6311 53.8639 8.43061 53.8639 1.8447 51.4831Z" fill="url(#paint0_linear_1240_990)"/>
<path d="M54.9824 51.8656L53.9512 46.6478C53.7125 45.4412 53.2201 44.3003 52.5073 43.302C51.7946 42.3038 50.8779 41.4714 49.8193 40.8611C48.8006 40.2786 47.7109 39.8331 46.5778 39.5358C47.5872 38.7709 48.3326 37.7049 48.7085 36.4887C49.0844 35.2726 49.0717 33.9679 48.6722 32.7594C48.2727 31.5509 47.5067 30.4999 46.4825 29.7551C45.4584 29.0104 44.2281 28.6096 42.9658 28.6096C41.7035 28.6096 40.4732 29.0104 39.4491 29.7551C38.4249 30.4999 37.6589 31.5509 37.2594 32.7594C36.8599 33.9679 36.8472 35.2726 37.2231 36.4887C37.599 37.7049 38.3444 38.7709 39.3538 39.5358C38.2223 39.8346 37.1343 40.2813 36.1174 40.8646C35.0589 41.4748 34.1424 42.3071 33.4296 43.3052C32.7169 44.3033 32.2244 45.444 31.9856 46.6504L30.9543 51.8656C30.9144 52.0663 30.9461 52.2747 31.0437 52.454C31.1414 52.6334 31.2988 52.7721 31.488 52.8457C38.877 55.7183 47.0598 55.7183 54.4488 52.8457C54.638 52.7721 54.7954 52.6334 54.893 52.454C54.9907 52.2747 55.0224 52.0663 54.9824 51.8656ZM38.6715 34.6928C38.6715 33.8351 38.9235 32.9966 39.3957 32.2835C39.8678 31.5703 40.5389 31.0145 41.324 30.6863C42.1092 30.3581 42.9731 30.2722 43.8067 30.4395C44.6402 30.6068 45.4058 31.0198 46.0067 31.6263C46.6077 32.2328 47.0169 33.0055 47.1827 33.8467C47.3485 34.6879 47.2634 35.5599 46.9382 36.3523C46.6129 37.1447 46.0622 37.822 45.3556 38.2985C44.649 38.775 43.8182 39.0293 42.9684 39.0293C41.8292 39.028 40.7371 38.5706 39.9315 37.7577C39.126 36.9447 38.6729 35.8425 38.6715 34.6928ZM32.7822 51.4831L33.6734 46.9904C33.864 46.0271 34.2571 45.1163 34.8263 44.3195C35.3954 43.5226 36.1273 42.8582 36.9725 42.3711C38.8049 41.3374 40.8692 40.7947 42.9684 40.7947C45.0676 40.7947 47.1318 41.3374 48.9642 42.3711C49.8096 42.8582 50.5416 43.5227 51.1107 44.3198C51.6799 45.1168 52.0729 46.0278 52.2634 46.9913L53.1545 51.4831C46.5686 53.8639 39.3681 53.8639 32.7822 51.4831Z" fill="url(#paint1_linear_1240_990)"/>
<path d="M33.4623 20.767L37.088 26.4913C37.1799 26.6367 37.3126 26.7511 37.4692 26.82C37.6257 26.8889 37.7991 26.9092 37.9671 26.8782C38.1352 26.8472 38.2903 26.7663 38.4126 26.646C38.5349 26.5256 38.6189 26.3712 38.6538 26.2025L39.8905 20.2778C46.383 18.8589 50.7031 14.9413 50.7031 10.4078C50.7031 4.66876 43.5703 0 34.8047 0C26.0391 0 18.9062 4.66876 18.9062 10.4078C18.9062 15.8268 25.2656 20.3212 33.4623 20.767ZM34.8047 1.73463C42.625 1.73463 48.9844 5.62541 48.9844 10.4078C48.9844 14.1529 44.8809 17.5571 39.0062 18.6855C38.8396 18.7174 38.6861 18.7983 38.565 18.9181C38.4439 19.0378 38.3606 19.1911 38.3255 19.3585L37.4043 23.7645L34.6706 19.4504C34.5955 19.3321 34.4931 19.234 34.3722 19.1645C34.2512 19.095 34.1154 19.0562 33.9762 19.0515C26.4894 18.7852 20.625 14.9872 20.625 10.4078C20.625 5.62541 26.9844 1.73463 34.8047 1.73463Z" fill="url(#paint2_linear_1240_990)"/>
<path d="M32.6305 22.5267C32.603 22.4162 32.5541 22.3123 32.4868 22.2208C32.4195 22.1294 32.335 22.0522 32.2381 21.9937C32.1412 21.9353 32.0338 21.8966 31.9222 21.88C31.8105 21.8634 31.6967 21.8692 31.5872 21.897C28.8013 22.591 25.9092 22.7382 23.0682 22.3307C22.8659 22.301 22.6598 22.3463 22.4881 22.4582L18.4766 25.0306L19.1091 22.1564C19.1535 21.9545 19.1251 21.7432 19.0288 21.5606C18.9325 21.378 18.7748 21.2362 18.584 21.1607C14.4813 19.5371 12.0312 16.8137 12.0312 13.877C12.0312 10.9931 14.4014 8.29752 18.3709 6.66696C18.4754 6.62402 18.5706 6.56072 18.6509 6.48067C18.7312 6.40061 18.7951 6.30538 18.839 6.2004C18.8828 6.09541 18.9058 5.98275 18.9065 5.86882C18.9072 5.75489 18.8856 5.64194 18.8431 5.53642C18.8005 5.43089 18.7378 5.33486 18.6585 5.2538C18.5792 5.17273 18.4848 5.10823 18.3808 5.06398C18.2768 5.01972 18.1651 4.99658 18.0522 4.99587C17.9394 4.99515 17.8274 5.01689 17.7229 5.05983C13.0831 6.96619 10.3125 10.2629 10.3125 13.877C10.3125 17.3766 12.9001 20.5553 17.2734 22.4903L16.3462 26.6985C16.3091 26.8661 16.3221 27.041 16.3836 27.2012C16.4451 27.3613 16.5523 27.4994 16.6917 27.5979C16.831 27.6965 16.9962 27.7511 17.1663 27.7548C17.3365 27.7585 17.5038 27.7111 17.6473 27.6187L23.1473 24.087C26.106 24.4737 29.1103 24.3013 32.0066 23.5788C32.2275 23.5227 32.4173 23.3803 32.5343 23.1831C32.6513 22.9858 32.6859 22.7497 32.6305 22.5267Z" fill="url(#paint3_linear_1240_990)"/>
<path d="M29.2188 6.07129H33.5156V7.80548H29.2188V6.07129Z" fill="url(#paint4_linear_1240_990)"/>
<path d="M35.2344 6.07129H36.9531V7.80548H35.2344V6.07129Z" fill="url(#paint5_linear_1240_990)"/>
<path d="M38.6719 6.07129H42.9688V7.80548H38.6719V6.07129Z" fill="url(#paint6_linear_1240_990)"/>
<path d="M26.6406 9.54053H36.9531V11.2747H26.6406V9.54053Z" fill="url(#paint7_linear_1240_990)"/>
<path d="M38.6719 9.54053H42.9688V11.2747H38.6719V9.54053Z" fill="url(#paint8_linear_1240_990)"/>
<path d="M26.6406 13.0098H30.0781V14.744H26.6406V13.0098Z" fill="url(#paint9_linear_1240_990)"/>
<path d="M31.7969 13.0098H41.25V14.744H31.7969V13.0098Z" fill="url(#paint10_linear_1240_990)"/>
<defs>
<linearGradient id="paint0_linear_1240_990" x1="12.0309" y1="28.6096" x2="12.0309" y2="55.0001" gradientUnits="userSpaceOnUse">
<stop stop-color="#FF7222"/>
<stop offset="1" stop-color="#FF166A"/>
</linearGradient>
<linearGradient id="paint1_linear_1240_990" x1="42.9684" y1="28.6096" x2="42.9684" y2="55.0001" gradientUnits="userSpaceOnUse">
<stop stop-color="#FF7222"/>
<stop offset="1" stop-color="#FF166A"/>
</linearGradient>
<linearGradient id="paint2_linear_1240_990" x1="34.8047" y1="0" x2="34.8047" y2="26.8923" gradientUnits="userSpaceOnUse">
<stop stop-color="#FF7222"/>
<stop offset="1" stop-color="#FF166A"/>
</linearGradient>
<linearGradient id="paint3_linear_1240_990" x1="21.4844" y1="4.99585" x2="21.4844" y2="27.755" gradientUnits="userSpaceOnUse">
<stop stop-color="#FF7222"/>
<stop offset="1" stop-color="#FF166A"/>
</linearGradient>
<linearGradient id="paint4_linear_1240_990" x1="31.3672" y1="6.07129" x2="31.3672" y2="7.80548" gradientUnits="userSpaceOnUse">
<stop stop-color="#FF7222"/>
<stop offset="1" stop-color="#FF166A"/>
</linearGradient>
<linearGradient id="paint5_linear_1240_990" x1="36.0938" y1="6.07129" x2="36.0938" y2="7.80548" gradientUnits="userSpaceOnUse">
<stop stop-color="#FF7222"/>
<stop offset="1" stop-color="#FF166A"/>
</linearGradient>
<linearGradient id="paint6_linear_1240_990" x1="40.8203" y1="6.07129" x2="40.8203" y2="7.80548" gradientUnits="userSpaceOnUse">
<stop stop-color="#FF7222"/>
<stop offset="1" stop-color="#FF166A"/>
</linearGradient>
<linearGradient id="paint7_linear_1240_990" x1="31.7969" y1="9.54053" x2="31.7969" y2="11.2747" gradientUnits="userSpaceOnUse">
<stop stop-color="#FF7222"/>
<stop offset="1" stop-color="#FF166A"/>
</linearGradient>
<linearGradient id="paint8_linear_1240_990" x1="40.8203" y1="9.54053" x2="40.8203" y2="11.2747" gradientUnits="userSpaceOnUse">
<stop stop-color="#FF7222"/>
<stop offset="1" stop-color="#FF166A"/>
</linearGradient>
<linearGradient id="paint9_linear_1240_990" x1="28.3594" y1="13.0098" x2="28.3594" y2="14.744" gradientUnits="userSpaceOnUse">
<stop stop-color="#FF7222"/>
<stop offset="1" stop-color="#FF166A"/>
</linearGradient>
<linearGradient id="paint10_linear_1240_990" x1="36.5234" y1="13.0098" x2="36.5234" y2="14.744" gradientUnits="userSpaceOnUse">
<stop stop-color="#FF7222"/>
<stop offset="1" stop-color="#FF166A"/>
</linearGradient>
</defs>
</svg>
