<svg width="60" height="61" viewBox="0 0 60 61" fill="none" xmlns="http://www.w3.org/2000/svg">
<path d="M31.2572 4.15092L32.7932 2.69376C33.2054 2.30272 33.2054 1.66965 32.7932 1.27961C32.381 0.888567 31.7147 0.888567 31.3025 1.27961L27.9996 4.41395C27.5874 4.80499 27.5874 5.43706 27.9996 5.82811L31.3025 8.96245C31.7147 9.35349 32.381 9.35349 32.7932 8.96245C33.2054 8.5724 33.2054 7.93934 32.7932 7.54829L31.3236 6.15314C46.0704 6.81621 57.8537 18.4035 57.8537 32.554C57.8537 33.1061 58.3249 33.5541 58.9079 33.5541C59.4909 33.5541 59.9622 33.1061 59.9622 32.554C59.9622 17.2794 47.1984 4.78399 31.2583 4.15092H31.2572Z" fill="url(#paint0_linear_781_402)"/>
<path d="M7.04942 42.0468C6.48432 41.9028 5.90867 42.2209 5.75791 42.7539L5.22022 44.6591C-1.54835 32.2128 3.13799 16.7381 16.0573 9.66232C16.5623 9.38629 16.7342 8.77423 16.4432 8.29617C16.1511 7.81812 15.5059 7.6531 15.003 7.93013C1.05786 15.568 -3.9669 32.3018 3.42581 45.7142L1.32776 45.1812C0.762661 45.0372 0.185962 45.3552 0.0362522 45.8883C-0.114512 46.4213 0.218645 46.9704 0.781638 47.1134L5.29507 48.2605C5.84225 48.4045 6.43793 48.0915 6.58658 47.5534L7.79586 43.272C7.94662 42.7379 7.61346 42.1899 7.05047 42.0468H7.04942Z" fill="url(#paint1_linear_781_402)"/>
<path d="M56.6729 44.9902C56.521 44.4562 55.9454 44.1381 55.3814 44.2831L50.8692 45.4303C50.3073 45.5733 49.9731 46.1214 50.1239 46.6555C50.2747 47.1896 50.8534 47.5076 51.4153 47.3626L53.4226 46.8525C45.4431 58.6374 28.9726 62.5231 16.056 55.4479C15.55 55.1709 14.9069 55.3349 14.6159 55.814C14.3249 56.2931 14.4978 56.9042 15.0018 57.1802C19.71 59.7596 24.8558 60.9838 29.9372 60.9838C39.9083 60.9838 49.6179 56.254 55.2792 47.7847L55.8453 49.789C55.995 50.3271 56.5885 50.6401 57.1367 50.4961C57.6986 50.3531 58.0339 49.805 57.8821 49.2709L56.6729 44.9892V44.9902Z" fill="url(#paint2_linear_781_402)"/>
<path d="M18.3925 47.6395L20.6454 45.5022C22.231 46.4223 23.9462 47.0944 25.7638 47.5074V50.5358C25.7638 51.0878 26.2361 51.5359 26.818 51.5359H33.1435C33.7265 51.5359 34.1977 51.0878 34.1977 50.5358V47.5074C36.0152 47.0934 37.7305 46.4223 39.315 45.5022L41.5679 47.6395C41.7661 47.8275 42.0329 47.9325 42.3133 47.9325C42.5937 47.9325 42.8615 47.8275 43.0586 47.6395L47.5318 43.396C47.73 43.208 47.8407 42.954 47.8407 42.6889C47.8407 42.4239 47.73 42.1689 47.5318 41.9818L45.2789 39.8446C46.2477 38.3414 46.9572 36.7143 47.3926 34.9891H50.5849C51.1679 34.9891 51.6391 34.541 51.6391 33.989V27.9883C51.6391 27.4363 51.1679 26.9882 50.5849 26.9882H47.3926C46.9572 25.263 46.2477 23.6358 45.2789 22.1327L47.5318 19.9954C47.73 19.8074 47.8407 19.5534 47.8407 19.2884C47.8407 19.0233 47.73 18.7683 47.5318 18.5813L43.0586 14.3378C42.6622 13.9618 41.9622 13.9638 41.5679 14.3378L39.315 16.4751C37.7294 15.555 36.0142 14.8829 34.1977 14.4698V11.4415C34.1977 10.8895 33.7265 10.4414 33.1435 10.4414H26.818C26.2361 10.4414 25.7638 10.8895 25.7638 11.4415V14.4698C23.9462 14.8839 22.231 15.555 20.6454 16.4751L18.3925 14.3378C18.1943 14.1498 17.9265 14.0448 17.6471 14.0448C17.3678 14.0448 17.0989 14.1498 16.9018 14.3378L12.4286 18.5813C12.2304 18.7693 12.1197 19.0233 12.1197 19.2884C12.1197 19.5534 12.2304 19.8084 12.4286 19.9954L14.6815 22.1327C13.7116 23.6368 13.0032 25.264 12.5678 26.9882H9.37553C8.79359 26.9882 8.32129 27.4363 8.32129 27.9883V33.989C8.32129 34.541 8.79359 34.9891 9.37553 34.9891H12.5678C13.0042 36.7133 13.7116 38.3404 14.6815 39.8446L12.4286 41.9818C12.2304 42.1699 12.1197 42.4239 12.1197 42.6889C12.1197 42.954 12.2304 43.209 12.4286 43.396L16.9018 47.6395C17.2971 48.0145 17.9971 48.0145 18.3925 47.6395ZM16.7742 40.6887C17.1327 40.3497 17.1854 39.8156 16.9007 39.4186C15.6841 37.7234 14.8618 35.8342 14.4549 33.803C14.3611 33.3309 13.9257 32.9899 13.4196 32.9899H10.4308V28.9894H13.4196C13.9257 28.9894 14.3611 28.6474 14.4549 28.1763C14.8618 26.1451 15.6841 24.2559 16.9007 22.5607C17.1864 22.1637 17.1327 21.6306 16.7742 21.2906L14.6647 19.2904L17.6471 16.4611L19.7556 18.4623C20.1141 18.8023 20.676 18.8523 21.0945 18.5823C22.8815 17.4282 24.8729 16.6481 27.0141 16.262C27.5117 16.173 27.8712 15.76 27.8712 15.2799V12.4446H32.0882V15.2799C32.0882 15.76 32.4487 16.173 32.9453 16.262C35.0854 16.6471 37.0769 17.4282 38.8648 18.5823C39.2834 18.8523 39.8453 18.8033 40.2037 18.4623L42.3122 16.4611L45.2947 19.2904L43.1851 21.2906C42.8267 21.6296 42.774 22.1637 43.0597 22.5607C44.2752 24.2549 45.0986 26.1441 45.5045 28.1763C45.5994 28.6484 46.0337 28.9894 46.5397 28.9894H49.5296V32.9899H46.5397C46.0337 32.9899 45.5983 33.3319 45.5045 33.803C45.0975 35.8352 44.2752 37.7244 43.0597 39.4186C42.774 39.8156 42.8267 40.3497 43.1851 40.6887L45.2947 42.6889L42.3122 45.5182L40.2037 43.517C39.8453 43.177 39.2834 43.127 38.8648 43.397C37.0769 44.5511 35.0854 45.3322 32.9453 45.7173C32.4477 45.8063 32.0882 46.2193 32.0882 46.6994V49.5347H27.8712V46.6994C27.8712 46.2193 27.5106 45.8063 27.0141 45.7173C24.8729 45.3312 22.8815 44.5511 21.0945 43.397C20.677 43.127 20.1141 43.178 19.7556 43.517L17.6471 45.5182L14.6647 42.6889L16.7742 40.6887Z" fill="url(#paint3_linear_781_402)"/>
<path d="M29.9805 41.9912C36.3745 41.9912 41.5772 37.0556 41.5772 30.99C41.5772 24.9243 36.3745 19.9888 29.9805 19.9888C23.5865 19.9888 18.3838 24.9243 18.3838 30.99C18.3838 37.0556 23.5865 41.9912 29.9805 41.9912ZM29.9805 21.989C35.2127 21.989 39.4687 26.0274 39.4687 30.99C39.4687 35.9525 35.2127 39.991 29.9805 39.991C24.7483 39.991 20.4923 35.9525 20.4923 30.99C20.4923 26.0274 24.7493 21.989 29.9805 21.989Z" fill="url(#paint4_linear_781_402)"/>
<defs>
<linearGradient id="paint0_linear_781_402" x1="25.5376" y1="21.078" x2="60.5207" y2="21.078" gradientUnits="userSpaceOnUse">
<stop stop-color="#F86CA7"/>
<stop offset="1" stop-color="#FF7F18"/>
</linearGradient>
<linearGradient id="paint1_linear_781_402" x1="-1.10634" y1="32.7808" x2="16.8718" y2="32.7808" gradientUnits="userSpaceOnUse">
<stop stop-color="#F86CA7"/>
<stop offset="1" stop-color="#FF7F18"/>
</linearGradient>
<linearGradient id="paint2_linear_781_402" x1="11.5765" y1="54.5726" x2="58.6706" y2="54.5726" gradientUnits="userSpaceOnUse">
<stop stop-color="#F86CA7"/>
<stop offset="1" stop-color="#FF7F18"/>
</linearGradient>
<linearGradient id="paint3_linear_781_402" x1="5.43161" y1="35.7933" x2="52.3889" y2="35.7933" gradientUnits="userSpaceOnUse">
<stop stop-color="#F86CA7"/>
<stop offset="1" stop-color="#FF7F18"/>
</linearGradient>
<linearGradient id="paint4_linear_781_402" x1="16.8366" y1="33.5625" x2="41.9786" y2="33.5625" gradientUnits="userSpaceOnUse">
<stop stop-color="#F86CA7"/>
<stop offset="1" stop-color="#FF7F18"/>
</linearGradient>
</defs>
</svg>
