<svg width="55" height="55" viewBox="0 0 55 55" fill="none" xmlns="http://www.w3.org/2000/svg">
<path d="M50.5864 3.97314H43.5566C43.1117 3.97314 42.751 4.33431 42.751 4.77979C42.751 5.22528 43.1117 5.58645 43.5566 5.58645H50.5864C51.0314 5.58645 51.3921 5.22528 51.3921 4.77979C51.3921 4.33431 51.0315 3.97314 50.5864 3.97314Z" fill="url(#paint0_linear_1244_1724)"/>
<path d="M39.5654 5.58645H40.4223C40.8673 5.58645 41.228 5.22528 41.228 4.77979C41.228 4.33431 40.8673 3.97314 40.4223 3.97314H39.5654C39.1205 3.97314 38.7598 4.33431 38.7598 4.77979C38.7598 5.22528 39.1205 5.58645 39.5654 5.58645Z" fill="url(#paint1_linear_1244_1724)"/>
<path d="M39.5654 9.37575H50.5873C51.0323 9.37575 51.393 9.01459 51.393 8.5691C51.393 8.12362 51.0323 7.76245 50.5873 7.76245H39.5654C39.1205 7.76245 38.7598 8.12362 38.7598 8.5691C38.7598 9.01459 39.1205 9.37575 39.5654 9.37575Z" fill="url(#paint2_linear_1244_1724)"/>
<path d="M42.4791 47.7307C42.4791 44.5085 41.4047 41.3474 39.4477 38.7933L39.597 36.0394C39.6986 34.1648 38.2128 32.5788 36.323 32.5788H27.5039C27.0982 32.2917 26.8521 31.8255 26.8521 31.3219V29.0696C28.2195 28.1842 29.1795 27.1745 29.8847 25.9729H31.4438C33.2475 25.9729 34.7149 24.5038 34.7149 22.6978V16.6736C34.7149 15.6575 34.1279 14.7593 33.2499 14.3344V10.1065C33.2499 8.18169 31.686 6.61571 29.7635 6.61571H29.6732C29.6182 6.61571 29.5735 6.57086 29.5735 6.5159C29.5735 4.59112 28.0094 3.02515 26.087 3.02515H17.5546C13.3193 3.02515 9.87356 6.47514 9.87356 10.7156V14.3343C8.99571 14.7592 8.40854 15.6574 8.40854 16.6735V19.7372C8.40854 21.1707 9.57331 22.3369 11.005 22.3369H12.0451C12.3143 24.6166 13.3824 26.6986 15.0554 28.1461C15.4479 28.4857 15.8538 28.7891 16.2714 29.0602V31.3218C16.2714 31.8239 16.0243 32.2902 15.6167 32.5787H6.80076C4.92561 32.5787 3.42439 34.15 3.52687 36.0393L3.67618 38.7932C1.71907 41.3474 0.644637 44.5085 0.644637 47.7307V50.769C0.244062 51.2184 0 51.8105 0 52.4588C0 53.86 1.13856 54.9999 2.53805 54.9999H40.5857C41.9852 54.9999 43.1238 53.8599 43.1238 52.4588C43.1238 51.8105 42.8797 51.2184 42.4791 50.7691V47.7307ZM40.8678 47.7307V49.9337C40.7751 49.9234 40.6811 49.9177 40.5857 49.9177H38.8446L39.2994 41.5296C40.3191 43.4258 40.8678 45.5622 40.8678 47.7307ZM33.021 16.2797C33.0739 16.401 33.1038 16.5342 33.1038 16.6737V19.7374C33.1038 20.2813 32.6619 20.7238 32.1186 20.7238H31.1606V17.683L31.6571 17.5098C32.2713 17.2955 32.7544 16.8438 33.021 16.2797ZM27.6421 25.6259H25.6202C25.2943 25.6259 25.029 25.3604 25.029 25.0341C25.029 24.7078 25.2943 24.4424 25.6202 24.4424H27.6421C27.968 24.4424 28.2331 24.7078 28.2331 25.0341C28.2331 25.3604 27.968 25.6259 27.6421 25.6259ZM31.444 24.3598H30.6297C30.8566 23.7121 31.0132 23.0336 31.0958 22.3371H32.1186C32.4672 22.3371 32.7998 22.2675 33.1038 22.1422V22.6981C33.1038 23.6143 32.3592 24.3598 31.444 24.3598ZM11.4851 10.7159C11.4851 7.36492 14.208 4.63866 17.5548 4.63866H26.0872C27.1212 4.63866 27.9624 5.48091 27.9624 6.51611C27.9624 7.46076 28.73 8.22922 29.6734 8.22922H29.7638C30.7977 8.22922 31.6388 9.07147 31.6388 10.1067V15.2653C31.6388 15.5899 31.4331 15.8796 31.1269 15.9864L29.4339 16.5768C29.3656 16.6004 29.2953 16.5512 29.2953 16.4777L29.2984 13.2722C29.3082 10.9328 27.1203 8.89251 24.0549 9.87834C22.5132 10.3744 20.6053 10.3727 19.0687 9.87834C16.0352 8.90219 13.8155 10.9062 13.8253 13.2697L13.829 16.4779C13.829 16.5519 13.7571 16.6006 13.6905 16.5768L11.9969 15.9863C11.6907 15.8796 11.485 15.5897 11.485 15.2652V10.7159H11.4851ZM10.0201 19.7374V16.6736C10.0201 16.5342 10.0499 16.4009 10.1029 16.2796C10.3696 16.8438 10.8527 17.2955 11.4672 17.5098L11.9636 17.6828V20.7237H11.0053C10.462 20.7238 10.0201 20.2812 10.0201 19.7374ZM13.5896 21.4054C13.5628 20.3449 13.5793 19.2192 13.5748 18.1887C13.6244 18.193 13.6741 18.1954 13.7239 18.1954C14.6817 18.1954 15.442 17.4159 15.4404 16.4756L15.4366 13.2653C15.4311 11.9555 16.6046 10.7799 18.5758 11.4142C20.4441 12.0152 22.6857 12.0134 24.5479 11.4142C26.4259 10.8101 27.6929 11.8737 27.6871 13.268L27.684 16.4758C27.6827 17.4756 28.5362 18.2766 29.549 18.1887V21.4707C29.5256 22.1678 29.411 22.8482 29.2165 23.4952C28.8164 23.0848 28.2588 22.829 27.6421 22.829H25.6202C24.4058 22.829 23.4177 23.8181 23.4177 25.034C23.4177 26.2499 24.4058 27.2391 25.6202 27.2391H26.6438C25.1557 28.402 23.4635 29.0084 21.6041 29.0393C17.5367 29.0067 13.7059 25.9981 13.5896 21.4054ZM17.883 31.322V29.9106C19.0476 30.3934 20.2899 30.6436 21.602 30.6528H21.6077C21.6118 30.6528 21.616 30.6528 21.6202 30.6527C22.8976 30.6328 24.1069 30.385 25.2411 29.9171V31.3219C25.2411 31.7623 25.3331 32.1887 25.5027 32.5788H17.6205C17.7905 32.1886 17.883 31.7621 17.883 31.322ZM3.82443 41.5296L3.95161 43.8765C3.97578 44.3214 4.35638 44.6636 4.79971 44.6383C5.244 44.6142 5.58464 44.234 5.56058 43.7892L5.13572 35.9521C5.08405 34.9987 5.83966 34.1922 6.80076 34.1922H36.3231C37.2771 34.1922 38.0402 34.9915 37.9882 35.9521L37.2311 49.9178H24.5974C24.7513 48.9964 25.1658 48.1297 25.8042 47.4196L25.8273 47.3938C28.266 44.6622 27.536 40.3906 24.3839 38.5972C23.575 38.1371 22.5477 38.7109 22.5477 39.6648V43.3249C22.5477 43.4926 22.4114 43.629 22.2438 43.629H20.88C20.7124 43.629 20.5761 43.4925 20.5761 43.3249V39.6648C20.5761 38.7128 19.5504 38.1362 18.7399 38.5972C15.5787 40.3955 14.8636 44.6687 17.299 47.3965L17.3196 47.4196C17.958 48.1296 18.3724 48.9963 18.5264 49.9177H5.89283L5.7636 47.5329C5.73954 47.088 5.3598 46.7466 4.91551 46.7711C4.47121 46.7952 4.13058 47.1754 4.15464 47.6202L4.27914 49.9177H2.53805C2.44266 49.9177 2.34867 49.9235 2.25596 49.9337V47.7307C2.25596 45.5623 2.80478 43.4258 3.82443 41.5296ZM20.1543 49.9177C19.9895 48.5959 19.4236 47.3482 18.5173 46.3403L18.4979 46.3185C16.9413 44.5751 17.1498 41.879 18.9649 40.3921V43.3248C18.9649 44.3821 19.824 45.2422 20.8801 45.2422H22.2439C23.3 45.2422 24.1591 44.382 24.1591 43.3248V40.3921C25.9622 41.8691 26.1932 44.5632 24.6241 46.3208L24.6067 46.3402C23.7003 47.3482 23.1344 48.5959 22.9695 49.9177H20.1543ZM40.5857 53.3867H2.53805C2.02705 53.3867 1.61133 52.9705 1.61133 52.4589C1.61133 51.9474 2.02705 51.5311 2.53805 51.5311H40.5857C41.0967 51.5311 41.5125 51.9473 41.5125 52.4589C41.5125 52.9706 41.0967 53.3867 40.5857 53.3867Z" fill="url(#paint3_linear_1244_1724)"/>
<path d="M54.1944 5.52039C54.6394 5.52039 55.0001 5.15923 55.0001 4.71374V3.1525C55.0001 1.41422 53.5876 0 51.8514 0H38.3011C36.5648 0 35.1523 1.41422 35.1523 3.1525V9.93782C35.1523 11.6762 36.5648 13.0904 38.3011 13.0904C38.6113 13.0904 38.8638 13.3432 38.8638 13.6538V17.85C38.8638 18.4561 39.2556 18.9719 39.839 19.1335C40.4259 19.2962 41.0253 19.0516 41.3348 18.5349L44.4318 13.364C44.5328 13.1953 44.7178 13.0904 44.9144 13.0904H51.8515C53.5877 13.0904 55.0002 11.6762 55.0002 9.93782V8.48499C55.0002 8.03951 54.6395 7.67834 54.1946 7.67834C53.7496 7.67834 53.3889 8.03951 53.3889 8.48499V9.93782C53.3889 10.7866 52.6992 11.4771 51.8515 11.4771H44.9143C44.1548 11.4771 43.4404 11.8823 43.0498 12.5344L40.475 16.8333V13.6538C40.475 12.4536 39.4997 11.4771 38.301 11.4771C37.4532 11.4771 36.7636 10.7866 36.7636 9.93782V3.1525C36.7636 2.30379 37.4532 1.6133 38.301 1.6133H51.8514C52.6991 1.6133 53.3888 2.30379 53.3888 3.1525V4.71374C53.3888 5.15923 53.7495 5.52039 54.1944 5.52039Z" fill="url(#paint4_linear_1244_1724)"/>
<defs>
<linearGradient id="paint0_linear_1244_1724" x1="47.0715" y1="3.97314" x2="47.0715" y2="5.58645" gradientUnits="userSpaceOnUse">
<stop stop-color="#FF7222"/>
<stop offset="1" stop-color="#FF166A"/>
</linearGradient>
<linearGradient id="paint1_linear_1244_1724" x1="39.9939" y1="3.97314" x2="39.9939" y2="5.58645" gradientUnits="userSpaceOnUse">
<stop stop-color="#FF7222"/>
<stop offset="1" stop-color="#FF166A"/>
</linearGradient>
<linearGradient id="paint2_linear_1244_1724" x1="45.0764" y1="7.76245" x2="45.0764" y2="9.37575" gradientUnits="userSpaceOnUse">
<stop stop-color="#FF7222"/>
<stop offset="1" stop-color="#FF166A"/>
</linearGradient>
<linearGradient id="paint3_linear_1244_1724" x1="21.5619" y1="3.02515" x2="21.5619" y2="54.9999" gradientUnits="userSpaceOnUse">
<stop stop-color="#FF7222"/>
<stop offset="1" stop-color="#FF166A"/>
</linearGradient>
<linearGradient id="paint4_linear_1244_1724" x1="45.0763" y1="0" x2="45.0763" y2="19.1834" gradientUnits="userSpaceOnUse">
<stop stop-color="#FF7222"/>
<stop offset="1" stop-color="#FF166A"/>
</linearGradient>
</defs>
</svg>
