<svg width="60" height="61" viewBox="0 0 60 61" fill="none" xmlns="http://www.w3.org/2000/svg">
<path d="M59.2292 42.1647L56.1213 41.4728C55.9379 40.9246 55.7162 40.3901 55.4579 39.8731L57.1677 37.1835C57.2821 37.0035 57.3318 36.7899 57.3085 36.578C57.2852 36.366 57.1904 36.1683 57.0397 36.0175L53.7626 32.7385C53.6119 32.5877 53.4143 32.4929 53.2025 32.4696C52.9906 32.4463 52.7772 32.496 52.5973 32.6104L49.9092 34.3213C49.3923 34.0625 48.8578 33.8405 48.3098 33.6568L47.6188 30.5466C47.5724 30.3385 47.4565 30.1523 47.2901 30.019C47.1237 29.8856 46.9168 29.8131 46.7037 29.8132H42.0692C41.8561 29.8132 41.6493 29.886 41.483 30.0194C41.3167 30.1528 41.2009 30.339 41.1547 30.5472L40.4637 33.6573C39.9158 33.8408 39.3816 34.0626 38.8648 34.3212L36.1767 32.6103C35.9969 32.4959 35.7834 32.4462 35.5716 32.4695C35.3597 32.4928 35.1621 32.5876 35.0114 32.7384L31.7343 36.0174C31.5836 36.1682 31.4888 36.3659 31.4656 36.5779C31.4423 36.7898 31.4919 37.0034 31.6063 37.1833L33.3162 39.873C33.0575 40.39 32.8354 40.9246 32.6516 41.4728L29.5432 42.1641C29.3352 42.2105 29.1491 42.3266 29.0159 42.493C28.8826 42.6595 28.8101 42.8665 28.8102 43.0798V47.7169C28.8102 47.9302 28.8829 48.137 29.0162 48.3034C29.1496 48.4698 29.3356 48.5857 29.5437 48.632L32.6521 49.3233C32.8355 49.8715 33.0572 50.4061 33.3156 50.9231L31.6057 53.6128C31.4913 53.7927 31.4417 54.0063 31.465 54.2182C31.4882 54.4302 31.583 54.6279 31.7337 54.7787L35.0108 58.0577C35.1616 58.2085 35.3591 58.3033 35.571 58.3266C35.7828 58.3499 35.9963 58.3002 36.1761 58.1858L38.8643 56.4749C39.3809 56.7338 39.9152 56.9561 40.4631 57.1399L41.1541 60.25C41.2005 60.4582 41.3164 60.6443 41.4828 60.7777C41.6492 60.911 41.856 60.9836 42.0692 60.9835H46.7037C46.9168 60.9835 47.1236 60.9108 47.2898 60.7773C47.4561 60.6439 47.5719 60.4577 47.6182 60.2496L48.3092 57.1395C48.857 56.9559 49.3913 56.734 49.908 56.4755L52.5962 58.1864C52.776 58.3008 52.9895 58.3505 53.2013 58.3272C53.4132 58.3039 53.6107 58.209 53.7615 58.0583L57.0386 54.7793C57.1893 54.6285 57.2841 54.4308 57.3073 54.2188C57.3306 54.0069 57.281 53.7933 57.1666 53.6133L55.4567 50.9237C55.7154 50.4067 55.9375 49.8721 56.1213 49.3239L59.2297 48.6325C59.4377 48.5861 59.6237 48.4701 59.757 48.3036C59.8903 48.1372 59.9628 47.9302 59.9627 47.7169V43.0798C59.9627 42.8665 59.89 42.6596 59.7566 42.4933C59.6233 42.3269 59.4372 42.211 59.2292 42.1647ZM58.0888 46.9651L55.1831 47.6118C55.0182 47.6485 54.8663 47.7291 54.7434 47.8452C54.6205 47.9613 54.5313 48.1084 54.4852 48.271C54.2636 49.051 53.952 49.8024 53.5567 50.5103C53.4744 50.6579 53.4334 50.8251 53.4382 50.9941C53.4431 51.1631 53.4935 51.3276 53.5842 51.4703L55.1828 53.985L52.9682 56.2008L50.455 54.6013C50.3124 54.5106 50.1479 54.4601 49.9789 54.4553C49.81 54.4504 49.6429 54.4914 49.4953 54.5739C48.7879 54.9694 48.0369 55.2812 47.2574 55.503C47.0949 55.5492 46.9479 55.6384 46.8319 55.7613C46.7159 55.8842 46.6353 56.0362 46.5986 56.2012L45.9523 59.1086H42.8206L42.1743 56.2013C42.1376 56.0363 42.057 55.8842 41.941 55.7613C41.825 55.6383 41.6779 55.549 41.5154 55.5029C40.7359 55.2812 39.9849 54.9694 39.2774 54.5739C39.1299 54.4914 38.9628 54.4505 38.7939 54.4553C38.625 54.4601 38.4605 54.5106 38.3179 54.6013L35.8046 56.2008L33.5901 53.985L35.1887 51.4703C35.2794 51.3276 35.3299 51.1631 35.3347 50.994C35.3396 50.825 35.2986 50.6578 35.2163 50.5101C34.8209 49.8023 34.5092 49.0508 34.2875 48.2708C34.2414 48.1082 34.1522 47.9611 34.0294 47.8451C33.9065 47.7291 33.7546 47.6485 33.5898 47.6118L30.684 46.9651V43.8316L33.5898 43.1849C33.7547 43.1482 33.9066 43.0675 34.0295 42.9515C34.1523 42.8354 34.2415 42.6883 34.2877 42.5256C34.5093 41.7457 34.8209 40.9942 35.2163 40.2864C35.2986 40.1388 35.3396 39.9716 35.3347 39.8026C35.3299 39.6336 35.2794 39.469 35.1887 39.3264L33.5901 36.8116L35.8046 34.5959L38.3179 36.1954C38.4605 36.2861 38.625 36.3366 38.7939 36.3415C38.9629 36.3463 39.13 36.3054 39.2776 36.2229C39.985 35.8273 40.7361 35.5155 41.5156 35.2937C41.6781 35.2475 41.8251 35.1582 41.9411 35.0353C42.057 34.9124 42.1376 34.7604 42.1743 34.5954L42.8206 31.6881H45.9523L46.5986 34.5955C46.6353 34.7605 46.7159 34.9125 46.8319 35.0355C46.9479 35.1584 47.095 35.2477 47.2575 35.2938C48.037 35.5156 48.788 35.8274 49.4954 36.2229C49.643 36.3053 49.8101 36.3463 49.979 36.3414C50.1479 36.3366 50.3124 36.2861 50.455 36.1954L52.9682 34.5959L55.1828 36.8116L53.5842 39.3264C53.4935 39.469 53.443 39.6336 53.4382 39.8027C53.4334 39.9717 53.4743 40.1389 53.5567 40.2865C53.952 40.9944 54.2636 41.7459 54.4853 42.5259C54.5315 42.6885 54.6207 42.8355 54.7435 42.9515C54.8663 43.0676 55.0182 43.1482 55.1831 43.1849L58.0888 43.8316V46.9651ZM44.3864 37.5344C42.832 37.5344 41.3125 37.9956 40.02 38.8597C38.7275 39.7238 37.7201 40.952 37.1253 42.3889C36.5304 43.8259 36.3748 45.4071 36.678 46.9325C36.9813 48.458 37.7298 49.8592 38.829 50.959C39.9281 52.0588 41.3286 52.8077 42.8531 53.1112C44.3777 53.4146 45.958 53.2589 47.3941 52.6637C48.8302 52.0685 50.0577 51.0605 50.9213 49.7673C51.7849 48.4741 52.2459 46.9537 52.2459 45.3983C52.2435 43.3134 51.4147 41.3146 49.9413 39.8403C48.4679 38.366 46.4702 37.5368 44.3864 37.5344ZM44.3864 51.3874C43.2026 51.3874 42.0453 51.0361 41.061 50.378C40.0767 49.7199 39.3095 48.7846 38.8565 47.6902C38.4034 46.5959 38.2849 45.3917 38.5158 44.2299C38.7468 43.0682 39.3169 42.001 40.154 41.1635C40.9911 40.3259 42.0576 39.7555 43.2187 39.5244C44.3798 39.2933 45.5833 39.4119 46.677 39.8652C47.7708 40.3185 48.7056 41.0861 49.3633 42.071C50.021 43.0559 50.3721 44.2138 50.3721 45.3983C50.3703 46.9862 49.7391 48.5085 48.6169 49.6312C47.4948 50.754 45.9734 51.3856 44.3864 51.3874ZM0.00822427 17.178C0.101763 20.0784 0.998091 22.896 2.59739 25.3168C2.62747 25.3624 2.66148 25.4053 2.69905 25.4449C4.51112 27.3573 5.75505 29.7369 6.29142 32.3169C6.40908 32.9026 6.69967 33.4394 7.1256 33.8581C7.55153 34.2767 8.09321 34.5578 8.68056 34.665V36.5596C8.68133 37.1827 8.87475 37.7903 9.23428 38.2991C9.59381 38.8078 10.1019 39.1929 10.6887 39.4013C10.9145 40.5321 11.5249 41.5496 12.4161 42.2807C13.3073 43.0118 14.4241 43.4114 15.5765 43.4114C16.7289 43.4114 17.8457 43.0118 18.7369 42.2807C19.628 41.5496 20.2385 40.5321 20.4643 39.4013C21.0511 39.1929 21.5592 38.8078 21.9187 38.2991C22.2782 37.7903 22.4717 37.1827 22.4724 36.5596V34.6645C23.0598 34.5573 23.6015 34.2762 24.0274 33.8576C24.4533 33.439 24.7439 32.9021 24.8616 32.3164C25.3979 29.7364 26.6419 27.3568 28.4539 25.4444C28.4915 25.4048 28.5255 25.362 28.5556 25.3164C30.1118 22.9599 31.0031 20.2267 31.1354 17.4053C31.2677 14.584 30.6362 11.7793 29.3074 9.28736C27.9786 6.79542 26.002 4.70875 23.5862 3.24769C21.1704 1.78664 18.4051 1.00544 15.5824 0.986572L15.5706 0.986572C13.4783 1.00049 11.4099 1.43343 9.48737 2.25985C7.56488 3.08628 5.82721 4.28948 4.37681 5.7985C2.92642 7.30751 1.79265 9.09182 1.04237 11.0462C0.292078 13.0006 -0.0595461 15.0855 0.00822427 17.178ZM15.5763 41.5363C14.9536 41.5364 14.3451 41.3495 13.8298 40.9997C13.3145 40.6499 12.916 40.1534 12.6859 39.5744H18.4667C18.2366 40.1534 17.838 40.6499 17.3227 40.9997C16.8074 41.3495 16.199 41.5364 15.5763 41.5363ZM20.5984 36.5596C20.5981 36.8618 20.4779 37.1515 20.2644 37.3653C20.0508 37.579 19.7612 37.6992 19.4592 37.6995H11.6933C11.3913 37.6992 11.1017 37.579 10.8881 37.3653C10.6746 37.1515 10.5545 36.8618 10.5542 36.5596V34.7171H20.5984V36.5596ZM12.1811 21.2472H10.8718C10.6128 21.2472 10.3597 21.1704 10.1443 21.0265C9.92902 20.8825 9.7612 20.6779 9.6621 20.4385C9.563 20.1991 9.53707 19.9357 9.58759 19.6816C9.63811 19.4274 9.76281 19.194 9.94593 19.0108C10.129 18.8276 10.3623 18.7028 10.6163 18.6522C10.8703 18.6017 11.1336 18.6276 11.3728 18.7268C11.6121 18.8259 11.8166 18.9939 11.9604 19.2093C12.1043 19.4248 12.1811 19.678 12.1811 19.9372V21.2472ZM14.0549 32.8426V23.1221H17.0977V32.8426H14.0549ZM3.6923 9.81877C4.89426 7.72242 6.62356 5.97727 8.70837 4.75675C10.7932 3.53622 13.1609 2.88282 15.5763 2.86148C18.0543 2.8792 20.4819 3.5642 22.6041 4.84457C24.7263 6.12493 26.4648 7.95341 27.637 10.138C28.8093 12.3226 29.372 14.7827 29.2662 17.26C29.1603 19.7373 28.3898 22.1403 27.0355 24.2169C25.0151 26.3716 23.628 29.0422 23.0266 31.9348C22.9774 32.1933 22.8385 32.4261 22.6344 32.5921C22.4304 32.7581 22.1743 32.8467 21.9113 32.8422H18.9718V23.1221H20.2808C20.9103 23.1222 21.5258 22.9354 22.0493 22.5854C22.5728 22.2355 22.9808 21.7381 23.2217 21.1561C23.4627 20.5741 23.5257 19.9337 23.4029 19.3159C23.2801 18.698 22.9769 18.1305 22.5318 17.6851C22.0866 17.2396 21.5194 16.9363 20.9019 16.8134C20.2844 16.6905 19.6444 16.7535 19.0628 16.9946C18.4811 17.2357 17.9839 17.6439 17.6342 18.1677C17.2844 18.6914 17.0977 19.3072 17.0977 19.9372V21.2472H14.0549V19.9372C14.0549 19.3072 13.8683 18.6914 13.5185 18.1677C13.1687 17.6439 12.6716 17.2357 12.0899 16.9946C11.5083 16.7535 10.8682 16.6905 10.2508 16.8134C9.63329 16.9363 9.0661 17.2396 8.62093 17.685C8.17575 18.1305 7.87258 18.698 7.74976 19.3158C7.62694 19.9336 7.68997 20.574 7.9309 21.156C8.17183 21.738 8.57982 22.2354 9.10329 22.5854C9.62676 22.9354 10.2422 23.1221 10.8718 23.1221H12.1811V32.8426H9.24154C8.97857 32.847 8.72248 32.7584 8.51844 32.5924C8.31439 32.4263 8.1755 32.1935 8.12625 31.935C7.5249 29.0424 6.13775 26.3719 4.11742 24.2172C2.72188 22.0916 1.94324 19.6203 1.86819 17.0782C1.79313 14.5361 2.4246 12.0231 3.6923 9.81877ZM18.9715 21.2472V19.9372C18.9715 19.678 19.0483 19.4247 19.1922 19.2093C19.3361 18.9939 19.5406 18.8259 19.7798 18.7268C20.0191 18.6276 20.2824 18.6017 20.5364 18.6522C20.7903 18.7028 21.0236 18.8276 21.2068 19.0108C21.3899 19.1941 21.5146 19.4275 21.5651 19.6816C21.6156 19.9358 21.5896 20.1992 21.4905 20.4386C21.3914 20.678 21.2236 20.8826 21.0082 21.0265C20.7929 21.1705 20.5397 21.2473 20.2808 21.2472H18.9715ZM30.3812 56.1346C30.3812 56.3832 30.2825 56.6217 30.1068 56.7975C29.9311 56.9733 29.6928 57.0721 29.4443 57.0721H15.0193C14.7708 57.0721 14.5325 56.9733 14.3568 56.7975C14.1811 56.6217 14.0823 56.3832 14.0823 56.1346V48.2319L12.5703 49.7447C12.3939 49.9173 12.1567 50.0133 11.91 50.0119C11.6633 50.0105 11.4272 49.9119 11.2527 49.7373C11.0783 49.5628 10.9797 49.3265 10.9783 49.0797C10.977 48.8329 11.0729 48.5955 11.2454 48.419L14.3567 45.3058C14.4437 45.2187 14.547 45.1497 14.6607 45.1025C14.7744 45.0554 14.8962 45.0312 15.0193 45.0312C15.1423 45.0312 15.2641 45.0554 15.3778 45.1025C15.4915 45.1497 15.5948 45.2187 15.6818 45.3058L18.7932 48.419C18.8818 48.5057 18.9523 48.6091 19.0007 48.7233C19.0491 48.8374 19.0743 48.9601 19.075 49.084C19.0757 49.208 19.0518 49.3309 19.0047 49.4456C18.9576 49.5603 18.8882 49.6645 18.8006 49.7522C18.713 49.8399 18.6089 49.9093 18.4942 49.9564C18.3796 50.0035 18.2568 50.0274 18.1329 50.0267C18.009 50.026 17.8864 50.0008 17.7723 49.9523C17.6582 49.9039 17.5549 49.8334 17.4682 49.7447L15.9562 48.2319V55.1968H29.4443C29.6928 55.1968 29.9311 55.2956 30.1068 55.4714C30.2825 55.6472 30.3812 55.8856 30.3812 56.1343V56.1346ZM44.0065 24.9721V11.5198H32.684C32.4355 11.5198 32.1972 11.421 32.0215 11.2452C31.8458 11.0694 31.7471 10.831 31.7471 10.5823C31.7471 10.3337 31.8458 10.0953 32.0215 9.91945C32.1972 9.74364 32.4355 9.64487 32.684 9.64487H44.9434C45.1919 9.64487 45.4302 9.74364 45.6059 9.91945C45.7816 10.0953 45.8804 10.3337 45.8804 10.5823V24.9722L47.3924 23.4593C47.5688 23.2867 47.806 23.1907 48.0527 23.1921C48.2994 23.1935 48.5355 23.2921 48.71 23.4667C48.8844 23.6412 48.983 23.8775 48.9844 24.1243C48.9857 24.3711 48.8898 24.6085 48.7173 24.785L45.606 27.8981C45.519 27.9852 45.4157 28.0542 45.302 28.1013C45.1883 28.1485 45.0665 28.1727 44.9434 28.1727C44.8204 28.1727 44.6986 28.1485 44.5849 28.1013C44.4712 28.0542 44.3679 27.9852 44.2809 27.8981L41.1695 24.785C41.0817 24.6981 41.0118 24.5947 40.964 24.4808C40.9162 24.3668 40.8914 24.2445 40.8911 24.1209C40.8907 23.9973 40.9147 23.8749 40.9618 23.7606C41.0089 23.6464 41.0781 23.5426 41.1654 23.4552C41.2528 23.3678 41.3565 23.2985 41.4707 23.2514C41.5849 23.2043 41.7073 23.1802 41.8308 23.1806C41.9543 23.181 42.0765 23.2058 42.1904 23.2536C42.3043 23.3014 42.4076 23.3712 42.4945 23.4592L44.0065 24.9721Z" fill="url(#paint0_linear_781_408)"/>
<defs>
<linearGradient id="paint0_linear_781_408" x1="2" y1="39" x2="61" y2="38.5" gradientUnits="userSpaceOnUse">
<stop stop-color="#F86CA7"/>
<stop offset="1" stop-color="#FF7F18"/>
</linearGradient>
</defs>
</svg>
