<svg width="61" height="61" viewBox="0 0 61 61" fill="none" xmlns="http://www.w3.org/2000/svg">
<path d="M17.0008 28.9297H15.0009C14.7357 28.9297 14.4814 29.035 14.2939 29.2226C14.1063 29.4101 14.001 29.6645 14.001 29.9297C14.001 30.1949 14.1063 30.4493 14.2939 30.6368C14.4814 30.8243 14.7357 30.9297 15.0009 30.9297H17.0008C17.2661 30.9297 17.5204 30.8243 17.7079 30.6368C17.8955 30.4493 18.0008 30.1949 18.0008 29.9297C18.0008 29.6645 17.8955 29.4101 17.7079 29.2226C17.5204 29.035 17.2661 28.9297 17.0008 28.9297Z" fill="url(#paint0_linear_776_27)"/>
<path d="M25.0009 30.9297H27.0008C27.2661 30.9297 27.5204 30.8243 27.7079 30.6368C27.8955 30.4493 28.0008 30.1949 28.0008 29.9297C28.0008 29.6645 27.8955 29.4101 27.7079 29.2226C27.5204 29.035 27.2661 28.9297 27.0008 28.9297H25.0009C24.7357 28.9297 24.4814 29.035 24.2939 29.2226C24.1063 29.4101 24.001 29.6645 24.001 29.9297C24.001 30.1949 24.1063 30.4493 24.2939 30.6368C24.4814 30.8243 24.7357 30.9297 25.0009 30.9297Z" fill="url(#paint1_linear_776_27)"/>
<path d="M21.0513 34.2477C21.1352 34.4994 21.3156 34.7074 21.5528 34.8261C21.79 34.9447 22.0646 34.9642 22.3162 34.8803C22.5678 34.7964 22.7757 34.6159 22.8943 34.3786C23.0129 34.1413 23.0324 33.8666 22.9485 33.6149L21.9486 30.6139C21.9071 30.4893 21.8414 30.374 21.7554 30.2748C21.6693 30.1756 21.5646 30.0943 21.4471 30.0355C21.3297 29.9768 21.2018 29.9417 21.0708 29.9324C20.9398 29.9231 20.8083 29.9397 20.6837 29.9813C20.5591 30.0228 20.4439 30.0885 20.3447 30.1746C20.2455 30.2607 20.1643 30.3655 20.1055 30.483C20.0468 30.6005 20.0118 30.7284 20.0025 30.8594C19.9932 30.9905 20.0098 31.122 20.0513 31.2467L21.0513 34.2477Z" fill="url(#paint2_linear_776_27)"/>
<path d="M16 32.9302C16.5522 32.9302 16.9999 32.4825 16.9999 31.9302C16.9999 31.3779 16.5522 30.9302 16 30.9302C15.4477 30.9302 15 31.3779 15 31.9302C15 32.4825 15.4477 32.9302 16 32.9302Z" fill="url(#paint3_linear_776_27)"/>
<path d="M26.0009 32.9302C26.5532 32.9302 27.0009 32.4825 27.0009 31.9302C27.0009 31.3779 26.5532 30.9302 26.0009 30.9302C25.4487 30.9302 25.001 31.3779 25.001 31.9302C25.001 32.4825 25.4487 32.9302 26.0009 32.9302Z" fill="url(#paint4_linear_776_27)"/>
<path d="M20 38.9319H21.9999C22.2651 38.9319 22.5194 38.8265 22.7069 38.639C22.8945 38.4515 22.9998 38.1971 22.9998 37.9319C22.9998 37.6667 22.8945 37.4123 22.7069 37.2248C22.5194 37.0372 22.2651 36.9319 21.9999 36.9319H20C19.7348 36.9319 19.4804 37.0372 19.2929 37.2248C19.1054 37.4123 19 37.6667 19 37.9319C19 38.1971 19.1054 38.4515 19.2929 38.639C19.4804 38.8265 19.7348 38.9319 20 38.9319Z" fill="url(#paint5_linear_776_27)"/>
<path d="M34.8539 46.1636C32.7776 44.8661 30.4095 44.1094 27.9657 43.9627C27.7806 43.572 27.5128 43.2261 27.181 42.949L25.7347 41.7434C27.0249 41.047 28.1469 40.0762 29.0216 38.8992C29.8963 37.7223 30.5024 36.3679 30.7973 34.9313H31.0006C31.881 34.9316 32.737 34.6413 33.4356 34.1053C34.1342 33.5693 34.6364 32.8177 34.8643 31.9671C35.0923 31.1164 35.0332 30.2143 34.6962 29.4007C34.3592 28.5871 33.7632 27.9075 33.0006 27.4673V24.3424C33.0006 23.7626 32.8865 23.1884 32.6646 22.6527C32.4428 22.117 32.1176 21.6302 31.7077 21.2202C31.2978 20.8102 30.8112 20.485 30.2756 20.2631C29.7401 20.0412 29.1661 19.927 28.5864 19.927H28.4817C28.4822 19.6314 28.4243 19.3387 28.3114 19.0656C28.1985 18.7924 28.0328 18.5443 27.8237 18.3355L27.1825 17.694C25.4103 15.9214 23.0066 14.9255 20.5004 14.9255C17.9941 14.9255 15.5905 15.9214 13.8183 17.694L11.1718 20.3413C11.1263 20.3868 11.0646 20.4124 11.0002 20.4124C10.9359 20.4124 10.8742 20.3868 10.8286 20.3413C10.515 20.0276 10.1154 19.8139 9.68034 19.7274C9.2453 19.6408 8.79438 19.6853 8.38459 19.8551C7.97479 20.0248 7.62454 20.3124 7.37811 20.6813C7.13168 21.0502 7.00014 21.4839 7.00014 21.9276V22.8065C6.99794 23.6109 7.15527 24.4078 7.46303 25.151C7.77079 25.8942 8.22286 26.569 8.79308 27.1362C8.88988 27.233 8.99027 27.3248 9.09225 27.4143C8.31038 27.8386 7.69225 28.5116 7.33562 29.3268C6.97899 30.1419 6.90421 31.0527 7.12311 31.9151C7.34201 32.7776 7.8421 33.5424 8.54428 34.0887C9.24646 34.6349 10.1107 34.9314 11.0002 34.9313H11.2035C11.4927 36.3388 12.0807 37.6678 12.9277 38.8283C13.7748 39.9889 14.8612 40.9539 16.1133 41.6581C15.7928 41.9393 15.5397 42.2892 15.373 42.6817C15.2063 43.0743 15.1303 43.4994 15.1506 43.9254C15.1005 43.929 15.0508 43.9339 15 43.9339H14.9192C11.6488 43.9339 8.47215 45.0274 5.89435 47.0407C3.31654 49.0539 1.4855 51.8713 0.692275 55.0449C0.232704 56.8846 0.000213811 58.7737 0 60.67V60.9388H2.00004V60.67C2.00024 58.9373 2.21268 57.2112 2.63262 55.5302C3.40226 52.429 5.32084 49.7361 8.00015 47.9963V52.9365C8.00015 53.1 8.0402 53.261 8.1168 53.4054C8.1934 53.5498 8.30421 53.6732 8.43953 53.7648C8.57486 53.8565 8.73058 53.9136 8.89306 53.9311C9.05555 53.9486 9.21985 53.926 9.37158 53.8653L10.7022 53.3329L7.18092 58.3646L8.81938 59.5119L15.2963 50.2567L21.4834 53.7932C21.6045 53.8624 21.7098 53.9561 21.7925 54.0684C21.8752 54.1807 21.9335 54.309 21.9637 54.4452C21.9939 54.5813 21.9952 54.7223 21.9677 54.859C21.9402 54.9957 21.8844 55.1252 21.8039 55.2391L18.8907 59.3611L20.5239 60.516L23.4371 56.3939C23.8104 55.8665 24.0033 55.2325 23.9868 54.5865C23.9703 53.9405 23.7455 53.3171 23.3458 52.8094L27.6605 47.0548C27.9004 46.735 28.0737 46.3704 28.1703 45.9824C28.3537 45.9982 28.5364 46.0188 28.7186 46.0425L26.7007 54.789C26.2358 56.8059 26.0009 58.869 26.0005 60.9388H28.0005C28.0009 59.0204 28.2186 57.1082 28.6495 55.2388L29.2759 52.5236L32.6292 53.8653C32.781 53.926 32.9453 53.9486 33.1078 53.9311C33.2702 53.9136 33.426 53.8565 33.5613 53.7649C33.6966 53.6732 33.8074 53.5498 33.884 53.4054C33.9606 53.261 34.0007 53.1 34.0007 52.9365V47.9963C36.68 49.7361 38.5985 52.429 39.3682 55.5302C39.7881 57.2112 40.0006 58.9373 40.0008 60.67V60.9388H42.0008V60.67C42.0006 58.7737 41.7681 56.8846 41.3085 55.0449C40.3944 51.3571 38.0789 48.171 34.8539 46.1636ZM31.0006 32.9307V28.9296C31.531 28.9296 32.0398 29.1404 32.4148 29.5155C32.7899 29.8907 33.0006 30.3996 33.0006 30.9302C33.0006 31.4607 32.7899 31.9696 32.4148 32.3448C32.0398 32.72 31.531 32.9307 31.0006 32.9307ZM9.00017 21.9276C9.00019 21.8796 9.01443 21.8326 9.04111 21.7927C9.06778 21.7528 9.10569 21.7217 9.15004 21.7033C9.19438 21.685 9.24318 21.6802 9.29025 21.6896C9.33732 21.6989 9.38055 21.7221 9.41449 21.756C9.83541 22.176 10.4057 22.4119 11.0002 22.4119C11.5948 22.4119 12.1651 22.176 12.586 21.756L15.2325 19.1088C15.9243 18.4168 16.7456 17.8679 17.6494 17.4934C18.5533 17.1189 19.5221 16.9261 20.5004 16.9261C21.4787 16.9261 22.4475 17.1189 23.3513 17.4934C24.2552 17.8679 25.0765 18.4168 25.7683 19.1088L26.4095 19.7502C26.4563 19.7971 26.4826 19.8607 26.4826 19.927C26.4826 19.9933 26.4563 20.0569 26.4095 20.1038L25.2934 21.2202C25.1058 21.4078 25.0005 21.6622 25.0005 21.9275C25.0004 22.1928 25.1058 22.4473 25.2933 22.6349C25.4809 22.8225 25.7352 22.9279 26.0005 22.9279C26.2657 22.9279 26.5201 22.8225 26.7076 22.6349L27.4148 21.9276H28.5864C29.2267 21.9276 29.8407 22.182 30.2935 22.6349C30.7462 23.0878 31.0006 23.702 31.0006 24.3424V26.929H29.6574C29.2633 26.9301 28.8728 26.853 28.5087 26.7021C28.1446 26.5512 27.814 26.3295 27.5361 26.05L24.7076 23.2208C24.52 23.0332 24.2657 22.9279 24.0005 22.9279C23.7353 22.9279 23.4809 23.0332 23.2934 23.2208C22.1208 24.4001 20.726 25.3351 19.1897 25.9716C17.6535 26.6082 16.0063 26.9336 14.3434 26.929H13.1216C12.0285 26.929 10.9802 26.4947 10.2073 25.7215C9.43441 24.9484 9.00018 23.8998 9.00017 22.8065V21.9276ZM9.00017 30.9302C9.00078 30.3998 9.21169 29.8913 9.58664 29.5162C9.96159 29.1412 10.47 28.9302 11.0002 28.9296V32.9307C10.47 32.9301 9.96159 32.7192 9.58664 32.3441C9.21169 31.9691 9.00078 31.4606 9.00017 30.9302ZM13.0003 32.9307V28.9266C13.0407 28.9274 13.081 28.9296 13.1216 28.9296H14.3434C17.887 28.9397 21.3124 27.6559 23.9769 25.3192L26.1218 27.4646C26.8974 28.2444 27.91 28.7443 29.0006 28.8857V32.9307C28.9989 34.5226 28.5235 36.0779 27.635 37.3985C26.7465 38.7191 25.4851 39.7453 24.0115 40.3463C23.3501 39.935 22.5547 39.7973 21.7936 39.9623C21.0325 40.1273 20.3655 40.5821 19.9337 41.2304L19.723 41.5465L19.5539 41.4337C19.3671 41.3091 19.1663 41.2068 18.9556 41.1291C18.9101 40.9794 18.83 40.8425 18.722 40.7294C18.6139 40.6163 18.4808 40.5301 18.3334 40.4778C16.7744 39.9243 15.4249 38.9017 14.47 37.5504C13.5152 36.1992 13.0018 34.5855 13.0003 32.9307ZM15 45.9345C15.2816 45.9343 15.5625 45.9045 15.8378 45.8455L15.8464 45.8626L14.1751 48.3703L13.9074 48.7527L13.2821 46.0421C13.8249 45.971 14.3718 45.935 14.9192 45.9345H15ZM10.0002 46.9308C10.4327 46.7481 10.875 46.5897 11.3251 46.4563L12.2698 50.551L10.0002 51.459V46.9308ZM26.0605 45.8545L21.7301 51.6299L16.4266 48.5985L17.8324 46.4893C17.9302 46.3426 17.9875 46.1726 17.9984 45.9966C18.0094 45.8206 17.9736 45.6448 17.8948 45.4871L17.2346 44.1665C17.1523 44.0018 17.1267 43.8145 17.1619 43.6338C17.197 43.453 17.2909 43.2889 17.4289 43.1671C17.5669 43.0452 17.7413 42.9724 17.925 42.9599C18.1086 42.9475 18.2913 42.9961 18.4444 43.0982L19.4457 43.7659C19.6664 43.9131 19.9364 43.9665 20.1965 43.9145C20.4566 43.8624 20.6853 43.7092 20.8324 43.4885L21.5978 42.3401C21.6757 42.2233 21.7772 42.1242 21.8958 42.0493C22.0145 41.9743 22.1475 41.9251 22.2864 41.905C22.4253 41.8849 22.5668 41.8942 22.7018 41.9323C22.8369 41.9705 22.9624 42.0367 23.0701 42.1265L25.9006 44.4858C26.0977 44.6499 26.2242 44.8835 26.2539 45.1382C26.2837 45.393 26.2144 45.6494 26.0605 45.8545ZM29.731 50.551L30.6758 46.4558C31.1259 46.5894 31.5682 46.748 32.0006 46.9308V51.459L29.731 50.551Z" fill="url(#paint6_linear_776_27)"/>
<path d="M48.5013 0.921631H45.5012C43.4837 0.922145 41.5017 1.45343 39.7543 2.46216C38.0069 3.4709 36.5554 4.92161 35.5456 6.66871C34.5358 8.41581 34.0031 10.3979 34.001 12.4159C33.9989 14.434 34.5275 16.4172 35.5337 18.1664L34.0523 22.6117C34.0022 22.7621 33.9885 22.9222 34.0124 23.0789C34.0363 23.2356 34.0971 23.3843 34.1897 23.5129C34.2824 23.6415 34.4042 23.7462 34.5453 23.8184C34.6863 23.8906 34.8425 23.9283 35.0009 23.9283C35.056 23.9282 35.111 23.9237 35.1654 23.9147L40.8806 22.9622C42.3367 23.6029 43.9105 23.9319 45.5012 23.9283H48.5013C51.5513 23.9283 54.4764 22.7163 56.6331 20.559C58.7899 18.4017 60.0015 15.4758 60.0015 12.425C60.0015 9.37408 58.7899 6.44817 56.6331 4.29088C54.4764 2.13358 51.5513 0.921631 48.5013 0.921631ZM55.2193 19.1448C54.3391 20.0299 53.2921 20.7316 52.1389 21.2093C50.9858 21.687 49.7494 21.9312 48.5013 21.9277H45.5012C44.0983 21.9311 42.7124 21.6213 41.4445 21.0208C41.2603 20.9338 41.0539 20.9051 40.853 20.9385L36.4749 21.6682L37.5772 18.3603C37.6242 18.2193 37.6392 18.0697 37.6211 17.9222C37.603 17.7747 37.5523 17.6331 37.4727 17.5077C36.5632 16.0704 36.0562 14.4153 36.0043 12.7151C35.9525 11.0149 36.3579 9.33194 37.1781 7.84189C37.9983 6.35183 39.2032 5.10928 40.6673 4.24392C42.1313 3.37856 43.8007 2.92211 45.5012 2.92221H48.5013C50.3802 2.92232 52.2169 3.47971 53.7792 4.52392C55.3415 5.56813 56.5591 7.05225 57.2782 8.78864C57.9973 10.525 58.1855 12.4357 57.819 14.2791C57.4525 16.1224 56.5478 17.8157 55.2193 19.1448Z" fill="url(#paint7_linear_776_27)"/>
<path d="M47.0003 4.38747C46.4045 4.38585 45.8142 4.50246 45.2638 4.73055C44.7133 4.95864 44.2135 5.29369 43.7933 5.7163C43.7873 5.72228 43.7814 5.72838 43.7756 5.73449L43.3082 6.22648C42.7928 6.74751 42.505 7.45173 42.5078 8.18473C42.5107 8.91773 42.804 9.61969 43.3234 10.1367C43.8428 10.6537 44.546 10.9435 45.2787 10.9427C46.0115 10.9418 46.7139 10.6503 47.2322 10.1321L47.7073 9.65672C47.8002 9.56383 47.8739 9.45356 47.9241 9.33219C47.9744 9.21082 48.0003 9.08074 48.0003 8.94937C48.0003 8.818 47.9744 8.68791 47.9242 8.56654C47.8739 8.44517 47.8003 8.33489 47.7074 8.24199C47.6146 8.14909 47.5043 8.0754 47.383 8.02512C47.2617 7.97485 47.1316 7.94896 47.0003 7.94896C46.869 7.94895 46.739 7.97482 46.6176 8.02509C46.4963 8.07536 46.3861 8.14904 46.2932 8.24193L45.818 8.71731C45.7377 8.79767 45.6406 8.8592 45.5336 8.89747C45.4267 8.93573 45.3126 8.94977 45.1995 8.93858C45.0865 8.92739 44.9773 8.89125 44.88 8.83275C44.7826 8.77426 44.6994 8.69488 44.6364 8.60033C44.5383 8.45248 44.4943 8.27528 44.5117 8.0987C44.5292 7.92212 44.6071 7.75699 44.7323 7.63125C44.7382 7.62526 44.7442 7.61916 44.75 7.61305L45.2158 7.12277C45.6926 6.64974 46.3377 6.38531 47.0092 6.38751C47.6808 6.38971 48.3241 6.65837 48.7978 7.13452C49.2716 7.61066 49.5372 8.2554 49.5363 8.92724C49.5354 9.59907 49.2682 10.2431 48.7931 10.718L47.7073 11.8043C47.1644 12.3444 46.734 12.9869 46.441 13.6946C46.148 14.4022 45.9982 15.161 46.0003 15.9269C46.0003 16.1922 46.1057 16.4467 46.2932 16.6343C46.4807 16.8219 46.7351 16.9273 47.0003 16.9273C47.2655 16.9273 47.5198 16.8219 47.7074 16.6343C47.8949 16.4467 48.0002 16.1922 48.0002 15.9269C47.9989 15.4238 48.0973 14.9254 48.2897 14.4606C48.4822 13.9958 48.7649 13.5738 49.1215 13.219L50.2072 12.1328C50.8415 11.4983 51.2735 10.6898 51.4485 9.80972C51.6235 8.92961 51.5337 8.01734 51.1904 7.18829C50.8472 6.35924 50.2659 5.65063 49.52 5.15209C48.7742 4.65355 47.8973 4.38746 47.0003 4.38747Z" fill="url(#paint8_linear_776_27)"/>
<path d="M47.0009 19.9265C47.5532 19.9265 48.0009 19.4788 48.0009 18.9265C48.0009 18.3742 47.5532 17.9265 47.0009 17.9265C46.4487 17.9265 46.001 18.3742 46.001 18.9265C46.001 19.4788 46.4487 19.9265 47.0009 19.9265Z" fill="url(#paint9_linear_776_27)"/>
<defs>
<linearGradient id="paint0_linear_776_27" x1="13.701" y1="30.1653" x2="18.0819" y2="30.4972" gradientUnits="userSpaceOnUse">
<stop stop-color="#F86CA7"/>
<stop offset="1" stop-color="#FF7F18"/>
</linearGradient>
<linearGradient id="paint1_linear_776_27" x1="23.701" y1="30.1653" x2="28.0819" y2="30.4972" gradientUnits="userSpaceOnUse">
<stop stop-color="#F86CA7"/>
<stop offset="1" stop-color="#FF7F18"/>
</linearGradient>
<linearGradient id="paint2_linear_776_27" x1="19.775" y1="33.02" x2="23.0778" y2="33.095" gradientUnits="userSpaceOnUse">
<stop stop-color="#F86CA7"/>
<stop offset="1" stop-color="#FF7F18"/>
</linearGradient>
<linearGradient id="paint3_linear_776_27" x1="14.85" y1="32.1658" x2="17.0499" y2="32.2491" gradientUnits="userSpaceOnUse">
<stop stop-color="#F86CA7"/>
<stop offset="1" stop-color="#FF7F18"/>
</linearGradient>
<linearGradient id="paint4_linear_776_27" x1="24.851" y1="32.1658" x2="27.0508" y2="32.2491" gradientUnits="userSpaceOnUse">
<stop stop-color="#F86CA7"/>
<stop offset="1" stop-color="#FF7F18"/>
</linearGradient>
<linearGradient id="paint5_linear_776_27" x1="18.7" y1="38.1675" x2="23.0809" y2="38.4994" gradientUnits="userSpaceOnUse">
<stop stop-color="#F86CA7"/>
<stop offset="1" stop-color="#FF7F18"/>
</linearGradient>
<linearGradient id="paint6_linear_776_27" x1="-3.14998" y1="43.3523" x2="43.0607" y2="44.9505" gradientUnits="userSpaceOnUse">
<stop stop-color="#F86CA7"/>
<stop offset="1" stop-color="#FF7F18"/>
</linearGradient>
<linearGradient id="paint7_linear_776_27" x1="32.051" y1="15.135" x2="60.6394" y2="16.3592" gradientUnits="userSpaceOnUse">
<stop stop-color="#F86CA7"/>
<stop offset="1" stop-color="#FF7F18"/>
</linearGradient>
<linearGradient id="paint8_linear_776_27" x1="41.8307" y1="12.1345" x2="51.768" y2="12.4055" gradientUnits="userSpaceOnUse">
<stop stop-color="#F86CA7"/>
<stop offset="1" stop-color="#FF7F18"/>
</linearGradient>
<linearGradient id="paint9_linear_776_27" x1="45.851" y1="19.1621" x2="48.0508" y2="19.2454" gradientUnits="userSpaceOnUse">
<stop stop-color="#F86CA7"/>
<stop offset="1" stop-color="#FF7F18"/>
</linearGradient>
</defs>
</svg>
