<svg width="176" height="176" viewBox="0 0 176 176" fill="none" xmlns="http://www.w3.org/2000/svg">
<path fill-rule="evenodd" clip-rule="evenodd" d="M84.2629 143.35H91.7371V156.428H84.2629V143.35ZM153.607 29.358L144.946 38.0172C156.662 51.3618 163.78 68.858 163.78 87.9852C163.78 129.828 129.85 163.753 88 163.753C74.8311 163.753 62.4334 160.402 51.6373 154.471L56.027 149.607L43.2437 146.879L30.4604 144.151L34.4941 156.606L38.5278 169.061L43.2733 163.782C56.3829 171.552 71.6872 176 88 176C136.612 176 176 136.619 176 88.0148C176 65.4477 167.517 44.897 153.607 29.358ZM88 0C39.3879 0 0 39.3813 0 87.9852C0 110.523 8.48264 131.073 22.393 146.612L31.0536 137.953C19.3381 124.609 12.2198 107.142 12.2198 87.9852C12.2198 46.1425 46.1503 12.2177 88 12.2177C101.287 12.2177 113.774 15.628 124.63 21.6479L120.833 25.8588L133.616 28.587L146.4 31.3152L142.366 18.8603L138.332 6.40539L132.994 12.3363C119.854 4.5075 104.461 0 88 0ZM122.909 146.85L121.515 147.65L117.6 140.859L118.994 140.059L122.909 146.85ZM53.0907 146.85L57.0057 140.059L58.3997 140.859L54.4847 147.65L53.0907 146.85ZM147.675 121.525L146.874 122.918L140.082 119.004L140.883 117.61L147.675 121.525ZM140.082 56.9961L146.874 53.0817L147.675 54.4755L140.883 58.3899L140.082 56.9961ZM156.454 84.2487V91.7216H143.374V84.2487H156.454ZM103.838 149.667L105.114 149.311L106.359 153.907L105.084 154.263L103.838 149.667ZM132.549 133.475L133.468 132.556L136.849 135.937L135.9 136.886L132.549 133.475ZM149.336 105.096L149.692 103.821L154.289 105.066L153.933 106.341L149.336 105.096ZM149.692 72.1496L149.336 70.8745L153.933 69.629L154.289 70.9041L149.692 72.1496ZM133.498 43.444L132.578 42.495L135.96 39.1144L136.909 40.0634L133.498 43.444ZM70.9161 154.263L69.6407 153.907L70.8864 149.311L72.1618 149.667L70.9161 154.263ZM84.2629 19.5424H91.7371V32.62H84.2629V19.5424ZM58.3997 35.111L57.0057 35.9117L53.0907 29.1208L54.4847 28.3201L58.3997 35.111ZM117.6 35.111L121.515 28.3201L122.909 29.1208L118.994 35.9117L117.6 35.111ZM35.9178 56.9961L35.117 58.3899L28.3249 54.4755L29.1257 53.0817L35.9178 56.9961ZM28.3249 121.525L35.117 117.61L35.9178 119.004L29.1257 122.918L28.3249 121.525ZM32.6255 84.2487V91.7216H19.5457V84.2487H32.6255ZM69.6407 22.0334L70.9161 21.6775L72.1618 26.274L70.8864 26.6595L69.6407 22.0334ZM39.121 40.0634L40.0701 39.1144L43.4513 42.495L42.5022 43.444L39.121 40.0634ZM21.7108 70.9041L22.0667 69.629L26.664 70.8745L26.3081 72.1496L21.7108 70.9041ZM22.0371 106.341L21.6812 105.066L26.2784 103.821L26.6343 105.096L22.0371 106.341ZM40.0701 136.856L39.121 135.907L42.5022 132.526L43.4513 133.446L40.0701 136.856ZM105.114 26.6595L103.838 26.3036L105.084 21.7072L106.359 22.063L105.114 26.6595ZM87.822 52.1031H88.178L90.8177 79.2371C92.271 79.7115 93.5463 80.5122 94.5844 81.5798L135.307 61.474L135.485 61.7705L97.1648 87.3328C97.1648 87.5404 97.1945 87.7776 97.1945 87.9852C97.1945 93.0561 93.0718 97.1781 88 97.1781C86.5763 97.1781 85.212 96.8519 84.0256 96.2588L61.0394 136.085L59.1412 134.988L82.1867 95.0726C80.1402 93.3823 78.8352 90.832 78.8352 87.9852C78.8352 83.8928 81.5045 80.4232 85.212 79.2371L87.822 52.1031ZM88 81.1646C91.7668 81.1646 94.8217 84.219 94.8217 87.9852C94.8217 91.7513 91.7668 94.8057 88 94.8057C84.2332 94.8057 81.1783 91.7513 81.1783 87.9852C81.1783 84.219 84.2332 81.1646 88 81.1646Z" fill="url(#paint0_linear_1601_10)"/>
<defs>
<linearGradient id="paint0_linear_1601_10" x1="0" y1="88" x2="176" y2="88" gradientUnits="userSpaceOnUse">
<stop stop-color="#F86CA7"/>
<stop offset="1" stop-color="#FF7F18"/>
</linearGradient>
</defs>
</svg>
