<svg width="82" height="84" viewBox="0 0 82 84" fill="none" xmlns="http://www.w3.org/2000/svg">
<path opacity="0.2" d="M79.6448 42C79.6448 63.8568 61.932 81.636 40.1569 81.636C18.3817 81.636 0.668933 63.8568 0.668933 42C0.668933 20.1432 18.3817 2.36404 40.1569 2.36404C61.932 2.36404 79.6448 20.1432 79.6448 42ZM80.3137 42C80.3137 19.7376 62.3362 1.6926 40.1569 1.6926C17.9776 1.6926 0 19.7376 0 42C0 64.2625 17.9776 82.3074 40.1569 82.3074C62.3362 82.3074 80.3137 64.2625 80.3137 42Z" fill="#FF7F18"/>
<path opacity="0.2" d="M69.0951 42C69.0951 58.0376 56.1415 71.0468 40.1568 71.0468C24.179 71.0468 11.2185 58.0446 11.2185 42C11.2185 25.9624 24.1721 12.9532 40.1568 12.9532C56.1415 12.9532 69.0951 25.9624 69.0951 42ZM69.8267 42C69.8267 25.5777 56.5177 12.2188 40.1568 12.2188C23.7958 12.2188 10.4868 25.5777 10.4868 42C10.4868 58.4223 23.7958 71.7812 40.1568 71.7812C56.5177 71.7812 69.8267 58.4223 69.8267 42Z" fill="#FF7F18"/>
<path d="M67.6041 42C67.6041 57.2193 55.3125 69.55 40.157 69.55V84C63.27 84 82.0001 65.1927 82.0001 42C82.0001 18.8073 63.27 0 40.157 0V14.45C55.3195 14.45 67.6041 26.7807 67.6041 42Z" fill="#FFF2E8"/>
</svg>
