<svg width="59" height="18" viewBox="0 0 59 18" fill="none" xmlns="http://www.w3.org/2000/svg">
<path d="M4.13 0.577686L7.76 2.67834V6.87105L4.13 8.96292L0.5 6.87105V2.67834L4.13 0.577686Z" stroke="#FF7F18"/>
<path d="M14.12 0.577686L17.75 2.67834V6.87105L14.12 8.96292L10.49 6.87105V2.67834L14.12 0.577686Z" stroke="#FF7F18"/>
<path d="M24.1097 0.577511L27.74 2.67834V6.87105L24.1097 8.96309L20.47 6.87071V2.67869L24.1097 0.577511Z" stroke="#FF7F18"/>
<path d="M34.0903 0.577511L37.73 2.67869V6.87071L34.0903 8.96309L30.46 6.87105V2.67834L34.0903 0.577511Z" stroke="#FF7F18"/>
<path d="M44.08 0.577686L47.7099 2.67834V6.87105L44.08 8.96292L40.45 6.87105V2.67834L44.08 0.577686Z" stroke="#FF7F18"/>
<path d="M50.4399 6.87105V2.67834L54.0699 0.577686L57.6999 2.67834V6.87105L54.0699 8.96292L50.4399 6.87105Z" stroke="#FF7F18"/>
<path d="M9.12969 17.1331L5.48999 15.0407V10.8393L9.12969 8.74692L12.76 10.839V15.0411L9.12969 17.1331Z" stroke="#FF7F18"/>
<path d="M19.1103 17.1331L15.48 15.0411V10.839L19.1103 8.74692L22.75 10.8393V15.0407L19.1103 17.1331Z" stroke="#FF7F18"/>
<path d="M29.1 17.1329L25.47 15.0411V10.839L29.1 8.74709L32.73 10.839V15.0411L29.1 17.1329Z" stroke="#FF7F18"/>
<path d="M39.09 17.1329L35.46 15.0411V10.839L39.09 8.74709L42.72 10.839V15.0411L39.09 17.1329Z" stroke="#FF7F18"/>
<path d="M49.0796 17.1331L45.4399 15.0407V10.8393L49.0796 8.74692L52.7099 10.839V15.0411L49.0796 17.1331Z" stroke="#FF7F18"/>
</svg>
