<svg width="78" height="29" viewBox="0 0 78 29" fill="none" xmlns="http://www.w3.org/2000/svg">
<path d="M2.78021 5.56041C4.31567 5.56041 5.56041 4.31567 5.56041 2.78021C5.56041 1.24474 4.31567 0 2.78021 0C1.24474 0 0 1.24474 0 2.78021C0 4.31567 1.24474 5.56041 2.78021 5.56041Z" fill="#FF7F18"/>
<path d="M26.6767 5.56041C28.2122 5.56041 29.4569 4.31567 29.4569 2.78021C29.4569 1.24474 28.2122 0 26.6767 0C25.1412 0 23.8965 1.24474 23.8965 2.78021C23.8965 4.31567 25.1412 5.56041 26.6767 5.56041Z" fill="#FF7F18"/>
<path d="M53.3539 2.78021C53.3539 4.31299 52.1064 5.56041 50.5737 5.56041C49.0409 5.56041 47.7935 4.31299 47.7935 2.78021C47.7935 1.24742 49.0409 0 50.5737 0C52.1146 0 53.3539 1.24742 53.3539 2.78021Z" fill="#FF7F18"/>
<path d="M74.4701 5.56041C76.0056 5.56041 77.2504 4.31567 77.2504 2.78021C77.2504 1.24474 76.0056 0 74.4701 0C72.9347 0 71.6899 1.24474 71.6899 2.78021C71.6899 4.31567 72.9347 5.56041 74.4701 5.56041Z" fill="#FF7F18"/>
<path d="M2.78021 28.226C4.31567 28.226 5.56041 26.9813 5.56041 25.4458C5.56041 23.9103 4.31567 22.6656 2.78021 22.6656C1.24474 22.6656 0 23.9103 0 25.4458C0 26.9813 1.24474 28.226 2.78021 28.226Z" fill="#FF7F18"/>
<path d="M26.6767 28.226C28.2122 28.226 29.4569 26.9813 29.4569 25.4458C29.4569 23.9103 28.2122 22.6656 26.6767 22.6656C25.1412 22.6656 23.8965 23.9103 23.8965 25.4458C23.8965 26.9813 25.1412 28.226 26.6767 28.226Z" fill="#FF7F18"/>
<path d="M53.3539 25.4458C53.3539 26.9786 52.1064 28.226 50.5737 28.226C49.0409 28.226 47.7935 26.9786 47.7935 25.4458C47.7935 23.913 49.0409 22.6656 50.5737 22.6656C52.1146 22.6656 53.3539 23.9049 53.3539 25.4458Z" fill="#FF7F18"/>
<path d="M74.4701 28.226C76.0056 28.226 77.2504 26.9813 77.2504 25.4458C77.2504 23.9103 76.0056 22.6656 74.4701 22.6656C72.9347 22.6656 71.6899 23.9103 71.6899 25.4458C71.6899 26.9813 72.9347 28.226 74.4701 28.226Z" fill="#FF7F18"/>
</svg>
