<svg width="14" height="90" viewBox="0 0 14 90" fill="none" xmlns="http://www.w3.org/2000/svg">
<path d="M0 24.6776V20.3228L14 34.8389V39.1937L0 24.6776Z" fill="#EBE0D8"/>
<path d="M0 34.8385V30.4836L14 44.9997V49.3546L0 34.8385Z" fill="#EBE0D8"/>
<path d="M0 4.35483V0L14 14.5161V18.8709L0 4.35483Z" fill="#EBE0D8"/>
<path d="M0 14.516V10.1611L14 24.6772V29.0321L0 14.516Z" fill="#EBE0D8"/>
<path d="M0 44.9998V40.645L14 55.1611V59.516L0 44.9998Z" fill="#EBE0D8"/>
<path d="M0 55.1612V50.8064L14 65.3225V69.6773L0 55.1612Z" fill="#EBE0D8"/>
<path d="M0 65.3226V60.9678L14 75.4839V79.8387L0 65.3226Z" fill="#EBE0D8"/>
<path d="M0 75.4837V71.1289L14 85.645V89.9998L0 75.4837Z" fill="#EBE0D8"/>
</svg>
