<svg width="191" height="337" viewBox="0 0 191 337" fill="none" xmlns="http://www.w3.org/2000/svg">
<path opacity="0.5" d="M178.776 4.13352L11 316L0 306L9.48726 332.737C10.068 334.374 12.3155 334.543 13.1353 333.012L181 19.5L191 31L182.441 4.46705C181.9 2.78977 179.611 2.58148 178.776 4.13352Z" fill="url(#paint0_linear_1_98)"/>
<g opacity="0.1">
<path d="M67.8322 151L79.2971 189.528L77.7392 192.406L66.2743 153.878L67.8322 151Z" fill="white"/>
<path d="M64.0568 157.976L75.5217 196.504L73.9638 199.382L62.4989 160.854L64.0568 157.976Z" fill="white"/>
<path d="M60.2697 164.971L71.7346 203.499L70.1767 206.377L58.7118 167.849L60.2697 164.971Z" fill="white"/>
<path d="M56.4831 171.965L67.9458 210.486L66.3952 213.361L54.9303 174.834L56.4831 171.965Z" fill="white"/>
<path d="M52.7071 178.941L64.172 217.469L62.614 220.347L51.1491 181.819L52.7071 178.941Z" fill="white"/>
<path d="M48.926 185.926L60.3909 224.454L58.8329 227.332L47.368 188.804L48.926 185.926Z" fill="white"/>
<path d="M45.1389 192.922L56.6038 231.449L55.0458 234.327L43.5809 195.799L45.1389 192.922Z" fill="white"/>
<path d="M41.3527 199.916L52.8176 238.444L51.2597 241.322L39.7948 202.794L41.3527 199.916Z" fill="white"/>
<path d="M37.5763 206.892L49.0412 245.42L47.4832 248.298L36.0183 209.77L37.5763 206.892Z" fill="white"/>
<path d="M33.7897 213.886L45.2524 252.407L43.7018 255.283L32.2369 216.755L33.7897 213.886Z" fill="white"/>
<path d="M30.008 220.872L41.4729 259.4L39.915 262.277L28.45 223.75L30.008 220.872Z" fill="white"/>
<path d="M26.2326 227.848L37.6975 266.376L36.1395 269.254L24.6746 230.726L26.2326 227.848Z" fill="white"/>
<path d="M22.4457 234.843L33.9106 273.37L32.3527 276.248L20.8878 237.721L22.4457 234.843Z" fill="white"/>
</g>
<g opacity="0.1">
<path d="M158.654 61.0001L170.46 99.425L168.927 102.317L157.122 63.8917L158.654 61.0001Z" fill="white"/>
<path d="M154.94 68.0094L166.745 106.434L165.212 109.326L153.407 70.901L154.94 68.0094Z" fill="white"/>
<path d="M151.215 75.0372L163.02 113.462L161.488 116.354L149.683 77.9288L151.215 75.0372Z" fill="white"/>
<path d="M147.491 82.0648L159.294 120.482L157.769 123.372L145.963 84.9469L147.491 82.0648Z" fill="white"/>
<path d="M143.776 89.0743L155.582 127.499L154.049 130.391L142.244 91.9659L143.776 89.0743Z" fill="white"/>
<path d="M140.058 96.0924L151.863 134.517L150.33 137.409L138.525 98.984L140.058 96.0924Z" fill="white"/>
<path d="M136.332 103.121L148.137 141.546L146.605 144.437L134.8 106.012L136.332 103.121Z" fill="white"/>
<path d="M132.608 110.149L144.413 148.573L142.88 151.465L131.075 113.04L132.608 110.149Z" fill="white"/>
<path d="M128.894 117.157L140.699 155.582L139.166 158.474L127.361 120.049L128.894 117.157Z" fill="white"/>
<path d="M125.169 124.185L136.971 162.603L135.446 165.492L123.641 127.067L125.169 124.185Z" fill="white"/>
<path d="M121.449 131.204L133.254 169.629L131.722 172.52L119.917 134.095L121.449 131.204Z" fill="white"/>
<path d="M117.735 138.213L129.541 176.638L128.008 179.53L116.203 141.105L117.735 138.213Z" fill="white"/>
<path d="M114.011 145.241L125.816 183.666L124.284 186.557L112.478 148.132L114.011 145.241Z" fill="white"/>
</g>
<defs>
<linearGradient id="paint0_linear_1_98" x1="95.5" y1="0" x2="95.5" y2="337" gradientUnits="userSpaceOnUse">
<stop stop-color="#FF7222"/>
<stop offset="1" stop-color="#FF166A"/>
</linearGradient>
</defs>
</svg>
