<svg width="365" height="359" viewBox="0 0 365 359" fill="none" xmlns="http://www.w3.org/2000/svg">
<path d="M143.652 0L143.979 1.49698C61.4458 19.3033 1.54169 93.2968 1.54169 177.438C1.53641 188.238 2.5079 199.069 4.42444 209.621L2.9039 209.889C0.976776 199.242 -0.00524902 188.322 3.05176e-05 177.433C3.05176e-05 135.722 14.5669 94.9829 41.0237 62.7266C67.1163 30.9273 103.557 8.65106 143.652 0ZM264.141 15.0119C326.352 46.0233 365 108.261 365 177.438C365 192.608 363.115 207.678 359.403 222.233L357.909 221.854C361.589 207.42 363.458 192.482 363.458 177.438C363.458 108.845 325.138 47.1316 263.449 16.3828L264.141 15.0119ZM64.1437 313.628C96.9838 341.903 139.021 357.471 182.5 357.471C222.014 357.466 259.558 345.023 291.062 321.486L291.992 322.715C260.213 346.446 222.352 358.995 182.5 359C138.646 359 96.2552 343.3 63.1353 314.789L64.1437 313.628Z" fill="url(#paint0_linear_1357_552)"/>
<defs>
<linearGradient id="paint0_linear_1357_552" x1="-11" y1="28" x2="409.179" y2="341.43" gradientUnits="userSpaceOnUse">
<stop stop-color="#006CE4"/>
<stop offset="1" stop-color="#00B98D"/>
</linearGradient>
</defs>
</svg>
