<svg width="209" height="65" viewBox="0 0 209 65" fill="none" xmlns="http://www.w3.org/2000/svg">
<path d="M30.3149 1.34229V5.02148H21.3184V38H10.0391V5.02148H0.98877V1.34229H30.3149ZM52.041 28.0903L55.9888 29.2451C55.577 35.4935 51.8888 38.6177 44.9243 38.6177C35.9009 38.6177 31.3892 34.1149 31.3892 25.1094C31.3892 20.7409 32.5887 17.1602 34.9878 14.3672C37.3869 11.5742 40.4574 10.1777 44.1992 10.1777C52.0231 10.1777 55.9351 15.2266 55.9351 25.3242H41.6479C41.6479 32.4141 43.4473 35.959 47.0459 35.959C50.4118 35.959 52.0947 33.9538 52.0947 29.9434C52.0947 29.4062 52.0768 28.7886 52.041 28.0903ZM41.6211 22.2896H47.4756C47.4756 15.9875 46.5267 12.8364 44.6289 12.8364C42.9102 12.8364 41.9434 15.1729 41.7285 19.8457L41.6211 22.2896ZM79.3799 25.915L83.5156 27.1772L83.5425 28.2783C83.5425 35.1533 79.7827 38.5908 72.2632 38.5908C63.3472 38.5908 58.8892 34.0701 58.8892 25.0288C58.8892 20.4992 60.1872 16.8916 62.7832 14.2061C65.3792 11.5026 68.8615 10.1509 73.23 10.1509C79.5142 10.1509 82.6562 12.9976 82.6562 18.6909L78.064 20.9199L78.1177 18.3418C78.1177 14.4746 76.8197 12.541 74.2236 12.541C70.7861 12.541 69.0674 16.3366 69.0674 23.9277C69.0674 28.6185 69.4344 31.8411 70.1685 33.5957C70.9025 35.3324 72.2632 36.2007 74.2505 36.2007C77.8849 36.2007 79.7021 33.8464 79.7021 29.1377C79.7021 28.4753 79.5947 27.401 79.3799 25.915ZM86.9263 38V1.34229C89.8267 1.34229 93.0941 1.1543 96.7285 0.77832V15.5757C98.8411 12.0129 101.822 10.2314 105.671 10.2314C110.219 10.2314 112.493 12.2725 112.493 16.3545V38H102.69V17.4287C102.69 15.8711 102.171 15.0923 101.133 15.0923C100.059 15.0923 99.056 16.0949 98.125 18.1001C97.194 20.0874 96.7285 22.2269 96.7285 24.5186V38H86.9263Z" fill="url(#paint0_linear_1284_6958)"/>
<path d="M132.795 18.2075H147.888V38H144.504L143.35 35.4756C140.396 37.5703 137.271 38.6177 133.977 38.6177C128.552 38.6177 124.336 36.9974 121.328 33.7568C118.338 30.4984 116.843 25.915 116.843 20.0068C116.843 14.2598 118.428 9.61377 121.597 6.06885C124.784 2.50602 128.946 0.724609 134.084 0.724609C140.852 0.724609 144.97 4.18001 146.438 11.0908L141.443 13.3735V12.4873L141.362 10.5C141.022 6.18522 139.026 4.02783 135.374 4.02783C132.688 4.02783 130.853 5.17367 129.868 7.46533C128.883 9.757 128.391 14.027 128.391 20.2754C128.391 26.112 128.785 30.0776 129.573 32.1724C130.378 34.2671 131.9 35.3145 134.138 35.3145C136.77 35.3145 138.086 33.8464 138.086 30.9102V21.8867H132.795V18.2075ZM172.085 28.0903L176.033 29.2451C175.621 35.4935 171.933 38.6177 164.968 38.6177C155.945 38.6177 151.433 34.1149 151.433 25.1094C151.433 20.7409 152.633 17.1602 155.032 14.3672C157.431 11.5742 160.501 10.1777 164.243 10.1777C172.067 10.1777 175.979 15.2266 175.979 25.3242H161.692C161.692 32.4141 163.491 35.959 167.09 35.959C170.456 35.959 172.139 33.9538 172.139 29.9434C172.139 29.4062 172.121 28.7886 172.085 28.0903ZM161.665 22.2896H167.52C167.52 15.9875 166.571 12.8364 164.673 12.8364C162.954 12.8364 161.987 15.1729 161.772 19.8457L161.665 22.2896ZM205.789 38H195.986V18.127C195.986 16.1038 195.422 15.0923 194.294 15.0923C193.149 15.0923 192.155 15.8979 191.313 17.5093C190.472 19.1027 190.051 20.9915 190.051 23.1758V38H180.249V10.876C183.615 10.876 186.882 10.6522 190.051 10.2046V15.2803C192.486 11.9144 195.458 10.2314 198.967 10.2314C203.515 10.2314 205.789 12.541 205.789 17.1602V38Z" fill="white"/>
<path d="M84.346 60.216C83.422 60.216 82.618 60.048 81.934 59.712C81.25 59.376 80.722 58.908 80.35 58.308C79.978 57.708 79.792 57.012 79.792 56.22H81.376C81.376 56.712 81.49 57.168 81.718 57.588C81.946 57.996 82.276 58.326 82.708 58.578C83.152 58.818 83.698 58.938 84.346 58.938C85.198 58.938 85.858 58.734 86.326 58.326C86.794 57.918 87.028 57.408 87.028 56.796C87.028 56.292 86.92 55.89 86.704 55.59C86.488 55.278 86.194 55.026 85.822 54.834C85.462 54.642 85.042 54.474 84.562 54.33C84.094 54.186 83.602 54.024 83.086 53.844C82.114 53.508 81.394 53.094 80.926 52.602C80.458 52.098 80.224 51.444 80.224 50.64C80.212 49.968 80.368 49.374 80.692 48.858C81.016 48.33 81.472 47.922 82.06 47.634C82.66 47.334 83.368 47.184 84.184 47.184C84.988 47.184 85.684 47.334 86.272 47.634C86.872 47.934 87.334 48.348 87.658 48.876C87.994 49.404 88.168 50.004 88.18 50.676H86.596C86.596 50.328 86.506 49.986 86.326 49.65C86.146 49.302 85.87 49.02 85.498 48.804C85.138 48.588 84.682 48.48 84.13 48.48C83.446 48.468 82.882 48.642 82.438 49.002C82.006 49.362 81.79 49.86 81.79 50.496C81.79 51.036 81.94 51.45 82.24 51.738C82.552 52.026 82.984 52.266 83.536 52.458C84.088 52.638 84.724 52.848 85.444 53.088C86.044 53.304 86.584 53.556 87.064 53.844C87.544 54.132 87.916 54.504 88.18 54.96C88.456 55.416 88.594 55.998 88.594 56.706C88.594 57.306 88.438 57.876 88.126 58.416C87.814 58.944 87.34 59.376 86.704 59.712C86.08 60.048 85.294 60.216 84.346 60.216ZM94.1763 60C93.3603 60 92.7183 59.802 92.2503 59.406C91.7823 59.01 91.5483 58.296 91.5483 57.264V52.35H90.0002V51.072H91.5483L91.7463 48.93H93.0603V51.072H95.6883V52.35H93.0603V57.264C93.0603 57.828 93.1743 58.212 93.4023 58.416C93.6303 58.608 94.0323 58.704 94.6083 58.704H95.5443V60H94.1763ZM100.579 60.216C99.8352 60.216 99.2172 60.09 98.7252 59.838C98.2332 59.586 97.8672 59.25 97.6272 58.83C97.3872 58.41 97.2672 57.954 97.2672 57.462C97.2672 56.55 97.6152 55.848 98.3112 55.356C99.0072 54.864 99.9552 54.618 101.155 54.618H103.567V54.51C103.567 53.73 103.363 53.142 102.955 52.746C102.547 52.338 102.001 52.134 101.317 52.134C100.729 52.134 100.219 52.284 99.7872 52.584C99.3672 52.872 99.1032 53.298 98.9952 53.862H97.4472C97.5072 53.214 97.7232 52.668 98.0952 52.224C98.4792 51.78 98.9532 51.444 99.5172 51.216C100.081 50.976 100.681 50.856 101.317 50.856C102.565 50.856 103.501 51.192 104.125 51.864C104.761 52.524 105.079 53.406 105.079 54.51V60H103.729L103.639 58.398C103.387 58.902 103.015 59.334 102.523 59.694C102.043 60.042 101.395 60.216 100.579 60.216ZM100.813 58.938C101.389 58.938 101.881 58.788 102.289 58.488C102.709 58.188 103.027 57.798 103.243 57.318C103.459 56.838 103.567 56.334 103.567 55.806V55.788H101.281C100.393 55.788 99.7632 55.944 99.3912 56.256C99.0312 56.556 98.8512 56.934 98.8512 57.39C98.8512 57.858 99.0192 58.236 99.3552 58.524C99.7032 58.8 100.189 58.938 100.813 58.938ZM107.347 60V51.072H108.715L108.841 52.782C109.117 52.194 109.537 51.726 110.101 51.378C110.665 51.03 111.361 50.856 112.189 50.856V52.44H111.775C111.247 52.44 110.761 52.536 110.317 52.728C109.873 52.908 109.519 53.22 109.255 53.664C108.991 54.108 108.859 54.72 108.859 55.5V60H107.347ZM117.415 60C116.599 60 115.957 59.802 115.489 59.406C115.021 59.01 114.787 58.296 114.787 57.264V52.35H113.239V51.072H114.787L114.985 48.93H116.299V51.072H118.927V52.35H116.299V57.264C116.299 57.828 116.413 58.212 116.641 58.416C116.869 58.608 117.271 58.704 117.847 58.704H118.783V60H117.415ZM124.105 60.216C123.049 60.216 122.209 59.898 121.585 59.262C120.961 58.614 120.649 57.624 120.649 56.292V51.072H122.161V56.13C122.161 57.99 122.923 58.92 124.447 58.92C125.227 58.92 125.869 58.644 126.373 58.092C126.889 57.528 127.147 56.73 127.147 55.698V51.072H128.659V60H127.291L127.183 58.398C126.907 58.962 126.493 59.406 125.941 59.73C125.401 60.054 124.789 60.216 124.105 60.216ZM131.148 63.96V51.072H132.516L132.66 52.548C132.948 52.116 133.356 51.726 133.884 51.378C134.424 51.03 135.108 50.856 135.936 50.856C136.824 50.856 137.598 51.06 138.258 51.468C138.918 51.876 139.428 52.434 139.788 53.142C140.16 53.85 140.346 54.654 140.346 55.554C140.346 56.454 140.16 57.258 139.788 57.966C139.428 58.662 138.912 59.214 138.24 59.622C137.58 60.018 136.806 60.216 135.918 60.216C135.186 60.216 134.532 60.066 133.956 59.766C133.392 59.466 132.96 59.046 132.66 58.506V63.96H131.148ZM135.756 58.902C136.356 58.902 136.884 58.764 137.34 58.488C137.796 58.2 138.156 57.804 138.42 57.3C138.684 56.796 138.816 56.208 138.816 55.536C138.816 54.864 138.684 54.276 138.42 53.772C138.156 53.268 137.796 52.878 137.34 52.602C136.884 52.314 136.356 52.17 135.756 52.17C135.156 52.17 134.628 52.314 134.172 52.602C133.716 52.878 133.356 53.268 133.092 53.772C132.828 54.276 132.696 54.864 132.696 55.536C132.696 56.208 132.828 56.796 133.092 57.3C133.356 57.804 133.716 58.2 134.172 58.488C134.628 58.764 135.156 58.902 135.756 58.902ZM146.513 60L151.157 47.4H152.759L157.385 60H155.783L154.631 56.76H149.267L148.097 60H146.513ZM149.717 55.536H154.181L151.949 49.308L149.717 55.536ZM162.696 57.192C162.192 57.192 161.73 57.126 161.31 56.994L160.41 57.84C160.542 57.936 160.704 58.02 160.896 58.092C161.1 58.152 161.388 58.212 161.76 58.272C162.132 58.32 162.654 58.374 163.326 58.434C164.526 58.518 165.384 58.794 165.9 59.262C166.416 59.73 166.674 60.342 166.674 61.098C166.674 61.614 166.53 62.106 166.242 62.574C165.966 63.042 165.534 63.426 164.946 63.726C164.37 64.026 163.626 64.176 162.714 64.176C161.91 64.176 161.196 64.068 160.572 63.852C159.948 63.648 159.462 63.33 159.114 62.898C158.766 62.478 158.592 61.944 158.592 61.296C158.592 60.96 158.682 60.594 158.862 60.198C159.042 59.814 159.378 59.448 159.87 59.1C159.606 58.992 159.378 58.878 159.186 58.758C159.006 58.626 158.838 58.482 158.682 58.326V57.912L160.212 56.4C159.504 55.8 159.15 55.008 159.15 54.024C159.15 53.436 159.288 52.902 159.564 52.422C159.84 51.942 160.242 51.564 160.77 51.288C161.298 51 161.94 50.856 162.696 50.856C163.212 50.856 163.68 50.928 164.1 51.072H167.394V52.206L165.72 52.278C166.068 52.782 166.242 53.364 166.242 54.024C166.242 54.612 166.098 55.146 165.81 55.626C165.534 56.106 165.132 56.49 164.604 56.778C164.088 57.054 163.452 57.192 162.696 57.192ZM162.696 55.95C163.332 55.95 163.836 55.788 164.208 55.464C164.592 55.128 164.784 54.648 164.784 54.024C164.784 53.412 164.592 52.944 164.208 52.62C163.836 52.284 163.332 52.116 162.696 52.116C162.048 52.116 161.532 52.284 161.148 52.62C160.776 52.944 160.59 53.412 160.59 54.024C160.59 54.648 160.776 55.128 161.148 55.464C161.532 55.788 162.048 55.95 162.696 55.95ZM160.068 61.152C160.068 61.752 160.32 62.196 160.824 62.484C161.328 62.784 161.958 62.934 162.714 62.934C163.458 62.934 164.052 62.772 164.496 62.448C164.952 62.124 165.18 61.692 165.18 61.152C165.18 60.768 165.024 60.432 164.712 60.144C164.4 59.868 163.824 59.706 162.984 59.658C162.324 59.61 161.754 59.55 161.274 59.478C160.782 59.742 160.458 60.024 160.302 60.324C160.146 60.636 160.068 60.912 160.068 61.152ZM172.762 60.216C171.91 60.216 171.154 60.024 170.494 59.64C169.834 59.244 169.312 58.698 168.928 58.002C168.556 57.306 168.37 56.484 168.37 55.536C168.37 54.6 168.556 53.784 168.928 53.088C169.3 52.38 169.816 51.834 170.476 51.45C171.148 51.054 171.922 50.856 172.798 50.856C173.662 50.856 174.406 51.054 175.03 51.45C175.666 51.834 176.152 52.344 176.488 52.98C176.824 53.616 176.992 54.3 176.992 55.032C176.992 55.164 176.986 55.296 176.974 55.428C176.974 55.56 176.974 55.71 176.974 55.878H169.864C169.9 56.562 170.056 57.132 170.332 57.588C170.62 58.032 170.974 58.368 171.394 58.596C171.826 58.824 172.282 58.938 172.762 58.938C173.386 58.938 173.908 58.794 174.328 58.506C174.748 58.218 175.054 57.828 175.246 57.336H176.74C176.5 58.164 176.038 58.854 175.354 59.406C174.682 59.946 173.818 60.216 172.762 60.216ZM172.762 52.134C172.042 52.134 171.4 52.356 170.836 52.8C170.284 53.232 169.966 53.868 169.882 54.708H175.498C175.462 53.904 175.186 53.274 174.67 52.818C174.154 52.362 173.518 52.134 172.762 52.134ZM178.996 60V51.072H180.364L180.454 52.674C180.742 52.11 181.156 51.666 181.696 51.342C182.236 51.018 182.848 50.856 183.532 50.856C184.588 50.856 185.428 51.18 186.052 51.828C186.688 52.464 187.006 53.448 187.006 54.78V60H185.494V54.942C185.494 53.082 184.726 52.152 183.19 52.152C182.422 52.152 181.78 52.434 181.264 52.998C180.76 53.55 180.508 54.342 180.508 55.374V60H178.996ZM193.401 60.216C192.549 60.216 191.781 60.024 191.097 59.64C190.425 59.244 189.891 58.698 189.495 58.002C189.111 57.294 188.919 56.472 188.919 55.536C188.919 54.6 189.111 53.784 189.495 53.088C189.891 52.38 190.425 51.834 191.097 51.45C191.781 51.054 192.549 50.856 193.401 50.856C194.457 50.856 195.345 51.132 196.065 51.684C196.797 52.236 197.259 52.974 197.451 53.898H195.903C195.783 53.346 195.489 52.92 195.021 52.62C194.553 52.308 194.007 52.152 193.383 52.152C192.879 52.152 192.405 52.278 191.961 52.53C191.517 52.782 191.157 53.16 190.881 53.664C190.605 54.168 190.467 54.792 190.467 55.536C190.467 56.28 190.605 56.904 190.881 57.408C191.157 57.912 191.517 58.296 191.961 58.56C192.405 58.812 192.879 58.938 193.383 58.938C194.007 58.938 194.553 58.788 195.021 58.488C195.489 58.176 195.783 57.738 195.903 57.174H197.451C197.271 58.074 196.815 58.806 196.083 59.37C195.351 59.934 194.457 60.216 193.401 60.216ZM200.534 63.96L202.748 59.136H202.226L198.68 51.072H200.318L203.27 58.02L206.402 51.072H207.968L202.118 63.96H200.534Z" fill="white"/>
<defs>
<linearGradient id="paint0_linear_1284_6958" x1="12.8182" y1="20" x2="105" y2="20" gradientUnits="userSpaceOnUse">
<stop stop-color="#FF7222"/>
<stop offset="1" stop-color="#FF166A"/>
</linearGradient>
</defs>
</svg>
