<svg width="209" height="65" viewBox="0 0 209 65" fill="none" xmlns="http://www.w3.org/2000/svg">
<path d="M30.3149 1.34229V5.02148H21.3184V38H10.0391V5.02148H0.98877V1.34229H30.3149ZM52.041 28.0903L55.9888 29.2451C55.577 35.4935 51.8888 38.6177 44.9243 38.6177C35.9009 38.6177 31.3892 34.1149 31.3892 25.1094C31.3892 20.7409 32.5887 17.1602 34.9878 14.3672C37.3869 11.5742 40.4574 10.1777 44.1992 10.1777C52.0231 10.1777 55.9351 15.2266 55.9351 25.3242H41.6479C41.6479 32.4141 43.4473 35.959 47.0459 35.959C50.4118 35.959 52.0947 33.9538 52.0947 29.9434C52.0947 29.4062 52.0768 28.7886 52.041 28.0903ZM41.6211 22.2896H47.4756C47.4756 15.9875 46.5267 12.8364 44.6289 12.8364C42.9102 12.8364 41.9434 15.1729 41.7285 19.8457L41.6211 22.2896ZM79.3799 25.915L83.5156 27.1772L83.5425 28.2783C83.5425 35.1533 79.7827 38.5908 72.2632 38.5908C63.3472 38.5908 58.8892 34.0701 58.8892 25.0288C58.8892 20.4992 60.1872 16.8916 62.7832 14.2061C65.3792 11.5026 68.8615 10.1509 73.23 10.1509C79.5142 10.1509 82.6562 12.9976 82.6562 18.6909L78.064 20.9199L78.1177 18.3418C78.1177 14.4746 76.8197 12.541 74.2236 12.541C70.7861 12.541 69.0674 16.3366 69.0674 23.9277C69.0674 28.6185 69.4344 31.8411 70.1685 33.5957C70.9025 35.3324 72.2632 36.2007 74.2505 36.2007C77.8849 36.2007 79.7021 33.8464 79.7021 29.1377C79.7021 28.4753 79.5947 27.401 79.3799 25.915ZM86.9263 38V1.34229C89.8267 1.34229 93.0941 1.1543 96.7285 0.77832V15.5757C98.8411 12.0129 101.822 10.2314 105.671 10.2314C110.219 10.2314 112.493 12.2725 112.493 16.3545V38H102.69V17.4287C102.69 15.8711 102.171 15.0923 101.133 15.0923C100.059 15.0923 99.056 16.0949 98.125 18.1001C97.194 20.0874 96.7285 22.2269 96.7285 24.5186V38H86.9263Z" fill="#FF7F18"/>
<path d="M132.795 18.2075H147.888V38H144.504L143.35 35.4756C140.396 37.5703 137.271 38.6177 133.977 38.6177C128.552 38.6177 124.336 36.9974 121.328 33.7568C118.338 30.4984 116.843 25.915 116.843 20.0068C116.843 14.2598 118.428 9.61377 121.597 6.06885C124.784 2.50602 128.946 0.724609 134.084 0.724609C140.852 0.724609 144.97 4.18001 146.438 11.0908L141.443 13.3735V12.4873L141.362 10.5C141.022 6.18522 139.026 4.02783 135.374 4.02783C132.688 4.02783 130.853 5.17367 129.868 7.46533C128.883 9.757 128.391 14.027 128.391 20.2754C128.391 26.112 128.785 30.0776 129.573 32.1724C130.378 34.2671 131.9 35.3145 134.138 35.3145C136.77 35.3145 138.086 33.8464 138.086 30.9102V21.8867H132.795V18.2075ZM172.085 28.0903L176.033 29.2451C175.621 35.4935 171.933 38.6177 164.968 38.6177C155.945 38.6177 151.433 34.1149 151.433 25.1094C151.433 20.7409 152.633 17.1602 155.032 14.3672C157.431 11.5742 160.501 10.1777 164.243 10.1777C172.067 10.1777 175.979 15.2266 175.979 25.3242H161.692C161.692 32.4141 163.491 35.959 167.09 35.959C170.456 35.959 172.139 33.9538 172.139 29.9434C172.139 29.4062 172.121 28.7886 172.085 28.0903ZM161.665 22.2896H167.52C167.52 15.9875 166.571 12.8364 164.673 12.8364C162.954 12.8364 161.987 15.1729 161.772 19.8457L161.665 22.2896ZM205.789 38H195.986V18.127C195.986 16.1038 195.422 15.0923 194.294 15.0923C193.149 15.0923 192.155 15.8979 191.313 17.5093C190.472 19.1027 190.051 20.9915 190.051 23.1758V38H180.249V10.876C183.615 10.876 186.882 10.6522 190.051 10.2046V15.2803C192.486 11.9144 195.458 10.2314 198.967 10.2314C203.515 10.2314 205.789 12.541 205.789 17.1602V38Z" fill="white"/>
<path d="M112.551 60.216C111.627 60.216 110.823 60.048 110.139 59.712C109.455 59.376 108.927 58.908 108.555 58.308C108.183 57.708 107.997 57.012 107.997 56.22H109.581C109.581 56.712 109.695 57.168 109.923 57.588C110.151 57.996 110.481 58.326 110.913 58.578C111.357 58.818 111.903 58.938 112.551 58.938C113.403 58.938 114.063 58.734 114.531 58.326C114.999 57.918 115.233 57.408 115.233 56.796C115.233 56.292 115.125 55.89 114.909 55.59C114.693 55.278 114.399 55.026 114.027 54.834C113.667 54.642 113.247 54.474 112.767 54.33C112.299 54.186 111.807 54.024 111.291 53.844C110.319 53.508 109.599 53.094 109.131 52.602C108.663 52.098 108.429 51.444 108.429 50.64C108.417 49.968 108.573 49.374 108.897 48.858C109.221 48.33 109.677 47.922 110.265 47.634C110.865 47.334 111.573 47.184 112.389 47.184C113.193 47.184 113.889 47.334 114.477 47.634C115.077 47.934 115.539 48.348 115.863 48.876C116.199 49.404 116.373 50.004 116.385 50.676H114.801C114.801 50.328 114.711 49.986 114.531 49.65C114.351 49.302 114.075 49.02 113.703 48.804C113.343 48.588 112.887 48.48 112.335 48.48C111.651 48.468 111.087 48.642 110.643 49.002C110.211 49.362 109.995 49.86 109.995 50.496C109.995 51.036 110.145 51.45 110.445 51.738C110.757 52.026 111.189 52.266 111.741 52.458C112.293 52.638 112.929 52.848 113.649 53.088C114.249 53.304 114.789 53.556 115.269 53.844C115.749 54.132 116.121 54.504 116.385 54.96C116.661 55.416 116.799 55.998 116.799 56.706C116.799 57.306 116.643 57.876 116.331 58.416C116.019 58.944 115.545 59.376 114.909 59.712C114.285 60.048 113.499 60.216 112.551 60.216ZM118.943 60V47.4H126.737V48.642H120.455V53.034H126.197V54.258H120.455V58.758H126.737V60H118.943ZM134.827 60.216C133.591 60.216 132.505 59.946 131.569 59.406C130.645 58.854 129.919 58.086 129.391 57.102C128.875 56.118 128.617 54.984 128.617 53.7C128.617 52.416 128.875 51.288 129.391 50.316C129.919 49.332 130.645 48.564 131.569 48.012C132.505 47.46 133.591 47.184 134.827 47.184C136.075 47.184 137.161 47.46 138.085 48.012C139.021 48.564 139.747 49.332 140.263 50.316C140.779 51.288 141.037 52.416 141.037 53.7C141.037 54.984 140.779 56.118 140.263 57.102C139.747 58.086 139.021 58.854 138.085 59.406C137.161 59.946 136.075 60.216 134.827 60.216ZM134.827 58.884C135.751 58.884 136.561 58.68 137.257 58.272C137.965 57.852 138.511 57.258 138.895 56.49C139.291 55.71 139.489 54.78 139.489 53.7C139.489 52.62 139.291 51.696 138.895 50.928C138.511 50.16 137.965 49.572 137.257 49.164C136.561 48.744 135.751 48.534 134.827 48.534C133.903 48.534 133.087 48.744 132.379 49.164C131.683 49.572 131.137 50.16 130.741 50.928C130.357 51.696 130.165 52.62 130.165 53.7C130.165 54.78 130.357 55.71 130.741 56.49C131.137 57.258 131.683 57.852 132.379 58.272C133.087 58.68 133.903 58.884 134.827 58.884ZM147.19 60L151.834 47.4H153.436L158.062 60H156.46L155.308 56.76H149.944L148.774 60H147.19ZM150.394 55.536H154.858L152.626 49.308L150.394 55.536ZM163.374 57.192C162.87 57.192 162.408 57.126 161.988 56.994L161.088 57.84C161.22 57.936 161.382 58.02 161.574 58.092C161.778 58.152 162.066 58.212 162.438 58.272C162.81 58.32 163.332 58.374 164.004 58.434C165.204 58.518 166.062 58.794 166.578 59.262C167.094 59.73 167.352 60.342 167.352 61.098C167.352 61.614 167.208 62.106 166.92 62.574C166.644 63.042 166.212 63.426 165.624 63.726C165.048 64.026 164.304 64.176 163.392 64.176C162.588 64.176 161.874 64.068 161.25 63.852C160.626 63.648 160.14 63.33 159.792 62.898C159.444 62.478 159.27 61.944 159.27 61.296C159.27 60.96 159.36 60.594 159.54 60.198C159.72 59.814 160.056 59.448 160.548 59.1C160.284 58.992 160.056 58.878 159.864 58.758C159.684 58.626 159.516 58.482 159.36 58.326V57.912L160.89 56.4C160.182 55.8 159.828 55.008 159.828 54.024C159.828 53.436 159.966 52.902 160.242 52.422C160.518 51.942 160.92 51.564 161.448 51.288C161.976 51 162.618 50.856 163.374 50.856C163.89 50.856 164.358 50.928 164.778 51.072H168.072V52.206L166.398 52.278C166.746 52.782 166.92 53.364 166.92 54.024C166.92 54.612 166.776 55.146 166.488 55.626C166.212 56.106 165.81 56.49 165.282 56.778C164.766 57.054 164.13 57.192 163.374 57.192ZM163.374 55.95C164.01 55.95 164.514 55.788 164.886 55.464C165.27 55.128 165.462 54.648 165.462 54.024C165.462 53.412 165.27 52.944 164.886 52.62C164.514 52.284 164.01 52.116 163.374 52.116C162.726 52.116 162.21 52.284 161.826 52.62C161.454 52.944 161.268 53.412 161.268 54.024C161.268 54.648 161.454 55.128 161.826 55.464C162.21 55.788 162.726 55.95 163.374 55.95ZM160.746 61.152C160.746 61.752 160.998 62.196 161.502 62.484C162.006 62.784 162.636 62.934 163.392 62.934C164.136 62.934 164.73 62.772 165.174 62.448C165.63 62.124 165.858 61.692 165.858 61.152C165.858 60.768 165.702 60.432 165.39 60.144C165.078 59.868 164.502 59.706 163.662 59.658C163.002 59.61 162.432 59.55 161.952 59.478C161.46 59.742 161.136 60.024 160.98 60.324C160.824 60.636 160.746 60.912 160.746 61.152ZM173.44 60.216C172.588 60.216 171.832 60.024 171.172 59.64C170.512 59.244 169.99 58.698 169.606 58.002C169.234 57.306 169.048 56.484 169.048 55.536C169.048 54.6 169.234 53.784 169.606 53.088C169.978 52.38 170.494 51.834 171.154 51.45C171.826 51.054 172.6 50.856 173.476 50.856C174.34 50.856 175.084 51.054 175.708 51.45C176.344 51.834 176.83 52.344 177.166 52.98C177.502 53.616 177.67 54.3 177.67 55.032C177.67 55.164 177.664 55.296 177.652 55.428C177.652 55.56 177.652 55.71 177.652 55.878H170.542C170.578 56.562 170.734 57.132 171.01 57.588C171.298 58.032 171.652 58.368 172.072 58.596C172.504 58.824 172.96 58.938 173.44 58.938C174.064 58.938 174.586 58.794 175.006 58.506C175.426 58.218 175.732 57.828 175.924 57.336H177.418C177.178 58.164 176.716 58.854 176.032 59.406C175.36 59.946 174.496 60.216 173.44 60.216ZM173.44 52.134C172.72 52.134 172.078 52.356 171.514 52.8C170.962 53.232 170.644 53.868 170.56 54.708H176.176C176.14 53.904 175.864 53.274 175.348 52.818C174.832 52.362 174.196 52.134 173.44 52.134ZM179.674 60V51.072H181.042L181.132 52.674C181.42 52.11 181.834 51.666 182.374 51.342C182.914 51.018 183.526 50.856 184.21 50.856C185.266 50.856 186.106 51.18 186.73 51.828C187.366 52.464 187.684 53.448 187.684 54.78V60H186.172V54.942C186.172 53.082 185.404 52.152 183.868 52.152C183.1 52.152 182.458 52.434 181.942 52.998C181.438 53.55 181.186 54.342 181.186 55.374V60H179.674ZM194.078 60.216C193.226 60.216 192.458 60.024 191.774 59.64C191.102 59.244 190.568 58.698 190.172 58.002C189.788 57.294 189.596 56.472 189.596 55.536C189.596 54.6 189.788 53.784 190.172 53.088C190.568 52.38 191.102 51.834 191.774 51.45C192.458 51.054 193.226 50.856 194.078 50.856C195.134 50.856 196.022 51.132 196.742 51.684C197.474 52.236 197.936 52.974 198.128 53.898H196.58C196.46 53.346 196.166 52.92 195.698 52.62C195.23 52.308 194.684 52.152 194.06 52.152C193.556 52.152 193.082 52.278 192.638 52.53C192.194 52.782 191.834 53.16 191.558 53.664C191.282 54.168 191.144 54.792 191.144 55.536C191.144 56.28 191.282 56.904 191.558 57.408C191.834 57.912 192.194 58.296 192.638 58.56C193.082 58.812 193.556 58.938 194.06 58.938C194.684 58.938 195.23 58.788 195.698 58.488C196.166 58.176 196.46 57.738 196.58 57.174H198.128C197.948 58.074 197.492 58.806 196.76 59.37C196.028 59.934 195.134 60.216 194.078 60.216ZM201.212 63.96L203.426 59.136H202.904L199.358 51.072H200.996L203.948 58.02L207.08 51.072H208.646L202.796 63.96H201.212Z" fill="white"/>
</svg>
