<svg width="209" height="65" viewBox="0 0 209 65" fill="none" xmlns="http://www.w3.org/2000/svg">
<path d="M30.3149 1.34229V5.02148H21.3184V38H10.0391V5.02148H0.98877V1.34229H30.3149ZM52.041 28.0903L55.9888 29.2451C55.577 35.4935 51.8888 38.6177 44.9243 38.6177C35.9009 38.6177 31.3892 34.1149 31.3892 25.1094C31.3892 20.7409 32.5887 17.1602 34.9878 14.3672C37.3869 11.5742 40.4574 10.1777 44.1992 10.1777C52.0231 10.1777 55.9351 15.2266 55.9351 25.3242H41.6479C41.6479 32.4141 43.4473 35.959 47.0459 35.959C50.4118 35.959 52.0947 33.9538 52.0947 29.9434C52.0947 29.4062 52.0768 28.7886 52.041 28.0903ZM41.6211 22.2896H47.4756C47.4756 15.9875 46.5267 12.8364 44.6289 12.8364C42.9102 12.8364 41.9434 15.1729 41.7285 19.8457L41.6211 22.2896ZM79.3799 25.915L83.5156 27.1772L83.5425 28.2783C83.5425 35.1533 79.7827 38.5908 72.2632 38.5908C63.3472 38.5908 58.8892 34.0701 58.8892 25.0288C58.8892 20.4992 60.1872 16.8916 62.7832 14.2061C65.3792 11.5026 68.8615 10.1509 73.23 10.1509C79.5142 10.1509 82.6562 12.9976 82.6562 18.6909L78.064 20.9199L78.1177 18.3418C78.1177 14.4746 76.8197 12.541 74.2236 12.541C70.7861 12.541 69.0674 16.3366 69.0674 23.9277C69.0674 28.6185 69.4344 31.8411 70.1685 33.5957C70.9025 35.3324 72.2632 36.2007 74.2505 36.2007C77.8849 36.2007 79.7021 33.8464 79.7021 29.1377C79.7021 28.4753 79.5947 27.401 79.3799 25.915ZM86.9263 38V1.34229C89.8267 1.34229 93.0941 1.1543 96.7285 0.77832V15.5757C98.8411 12.0129 101.822 10.2314 105.671 10.2314C110.219 10.2314 112.493 12.2725 112.493 16.3545V38H102.69V17.4287C102.69 15.8711 102.171 15.0923 101.133 15.0923C100.059 15.0923 99.056 16.0949 98.125 18.1001C97.194 20.0874 96.7285 22.2269 96.7285 24.5186V38H86.9263Z" fill="url(#paint0_linear_1_2)"/>
<path d="M132.795 18.2075H147.888V38H144.504L143.35 35.4756C140.396 37.5703 137.271 38.6177 133.977 38.6177C128.552 38.6177 124.336 36.9974 121.328 33.7568C118.338 30.4984 116.843 25.915 116.843 20.0068C116.843 14.2598 118.428 9.61377 121.597 6.06885C124.784 2.50602 128.946 0.724609 134.084 0.724609C140.852 0.724609 144.97 4.18001 146.438 11.0908L141.443 13.3735V12.4873L141.362 10.5C141.022 6.18522 139.026 4.02783 135.374 4.02783C132.688 4.02783 130.853 5.17367 129.868 7.46533C128.883 9.757 128.391 14.027 128.391 20.2754C128.391 26.112 128.785 30.0776 129.573 32.1724C130.378 34.2671 131.9 35.3145 134.138 35.3145C136.77 35.3145 138.086 33.8464 138.086 30.9102V21.8867H132.795V18.2075ZM172.085 28.0903L176.033 29.2451C175.621 35.4935 171.933 38.6177 164.968 38.6177C155.945 38.6177 151.433 34.1149 151.433 25.1094C151.433 20.7409 152.633 17.1602 155.032 14.3672C157.431 11.5742 160.501 10.1777 164.243 10.1777C172.067 10.1777 175.979 15.2266 175.979 25.3242H161.692C161.692 32.4141 163.491 35.959 167.09 35.959C170.456 35.959 172.139 33.9538 172.139 29.9434C172.139 29.4062 172.121 28.7886 172.085 28.0903ZM161.665 22.2896H167.52C167.52 15.9875 166.571 12.8364 164.673 12.8364C162.954 12.8364 161.987 15.1729 161.772 19.8457L161.665 22.2896ZM205.789 38H195.986V18.127C195.986 16.1038 195.422 15.0923 194.294 15.0923C193.149 15.0923 192.155 15.8979 191.313 17.5093C190.472 19.1027 190.051 20.9915 190.051 23.1758V38H180.249V10.876C183.615 10.876 186.882 10.6522 190.051 10.2046V15.2803C192.486 11.9144 195.458 10.2314 198.967 10.2314C203.515 10.2314 205.789 12.541 205.789 17.1602V38Z" fill="white"/>
<path d="M72.414 60V47.4H76.284C78.504 47.4 80.136 47.964 81.18 49.092C82.236 50.22 82.764 51.768 82.764 53.736C82.764 55.668 82.236 57.198 81.18 58.326C80.136 59.442 78.504 60 76.284 60H72.414ZM73.926 58.74H76.248C77.472 58.74 78.444 58.542 79.164 58.146C79.896 57.738 80.418 57.162 80.73 56.418C81.042 55.662 81.198 54.768 81.198 53.736C81.198 52.68 81.042 51.774 80.73 51.018C80.418 50.262 79.896 49.68 79.164 49.272C78.444 48.864 77.472 48.66 76.248 48.66H73.926V58.74ZM85.7752 49.092C85.4752 49.092 85.2232 48.996 85.0192 48.804C84.8272 48.6 84.7312 48.348 84.7312 48.048C84.7312 47.76 84.8272 47.52 85.0192 47.328C85.2232 47.136 85.4752 47.04 85.7752 47.04C86.0632 47.04 86.3092 47.136 86.5132 47.328C86.7172 47.52 86.8192 47.76 86.8192 48.048C86.8192 48.348 86.7172 48.6 86.5132 48.804C86.3092 48.996 86.0632 49.092 85.7752 49.092ZM85.0192 60V51.072H86.5312V60H85.0192ZM92.6919 57.192C92.1879 57.192 91.7259 57.126 91.3059 56.994L90.4059 57.84C90.5379 57.936 90.6999 58.02 90.8919 58.092C91.0959 58.152 91.3839 58.212 91.7559 58.272C92.1279 58.32 92.6499 58.374 93.3219 58.434C94.5219 58.518 95.3799 58.794 95.8959 59.262C96.4119 59.73 96.6699 60.342 96.6699 61.098C96.6699 61.614 96.5259 62.106 96.2379 62.574C95.9619 63.042 95.5299 63.426 94.9419 63.726C94.3659 64.026 93.6219 64.176 92.7099 64.176C91.9059 64.176 91.1919 64.068 90.5679 63.852C89.9439 63.648 89.4579 63.33 89.1099 62.898C88.7619 62.478 88.5879 61.944 88.5879 61.296C88.5879 60.96 88.6779 60.594 88.8579 60.198C89.0379 59.814 89.3739 59.448 89.8659 59.1C89.6019 58.992 89.3739 58.878 89.1819 58.758C89.0019 58.626 88.8339 58.482 88.6779 58.326V57.912L90.2079 56.4C89.4999 55.8 89.1459 55.008 89.1459 54.024C89.1459 53.436 89.2839 52.902 89.5599 52.422C89.8359 51.942 90.2379 51.564 90.7659 51.288C91.2939 51 91.9359 50.856 92.6919 50.856C93.2079 50.856 93.6759 50.928 94.0959 51.072H97.3899V52.206L95.7159 52.278C96.0639 52.782 96.2379 53.364 96.2379 54.024C96.2379 54.612 96.0939 55.146 95.8059 55.626C95.5299 56.106 95.1279 56.49 94.5999 56.778C94.0839 57.054 93.4479 57.192 92.6919 57.192ZM92.6919 55.95C93.3279 55.95 93.8319 55.788 94.2039 55.464C94.5879 55.128 94.7799 54.648 94.7799 54.024C94.7799 53.412 94.5879 52.944 94.2039 52.62C93.8319 52.284 93.3279 52.116 92.6919 52.116C92.0439 52.116 91.5279 52.284 91.1439 52.62C90.7719 52.944 90.5859 53.412 90.5859 54.024C90.5859 54.648 90.7719 55.128 91.1439 55.464C91.5279 55.788 92.0439 55.95 92.6919 55.95ZM90.0639 61.152C90.0639 61.752 90.3159 62.196 90.8199 62.484C91.3239 62.784 91.9539 62.934 92.7099 62.934C93.4539 62.934 94.0479 62.772 94.4919 62.448C94.9479 62.124 95.1759 61.692 95.1759 61.152C95.1759 60.768 95.0199 60.432 94.7079 60.144C94.3959 59.868 93.8199 59.706 92.9799 59.658C92.3199 59.61 91.7499 59.55 91.2699 59.478C90.7779 59.742 90.4539 60.024 90.2979 60.324C90.1419 60.636 90.0639 60.912 90.0639 61.152ZM100.014 49.092C99.7135 49.092 99.4615 48.996 99.2575 48.804C99.0655 48.6 98.9695 48.348 98.9695 48.048C98.9695 47.76 99.0655 47.52 99.2575 47.328C99.4615 47.136 99.7135 47.04 100.014 47.04C100.302 47.04 100.548 47.136 100.752 47.328C100.956 47.52 101.058 47.76 101.058 48.048C101.058 48.348 100.956 48.6 100.752 48.804C100.548 48.996 100.302 49.092 100.014 49.092ZM99.2575 60V51.072H100.77V60H99.2575ZM106.93 60C106.114 60 105.472 59.802 105.004 59.406C104.536 59.01 104.302 58.296 104.302 57.264V52.35H102.754V51.072H104.302L104.5 48.93H105.814V51.072H108.442V52.35H105.814V57.264C105.814 57.828 105.928 58.212 106.156 58.416C106.384 58.608 106.786 58.704 107.362 58.704H108.298V60H106.93ZM113.333 60.216C112.589 60.216 111.971 60.09 111.479 59.838C110.987 59.586 110.621 59.25 110.381 58.83C110.141 58.41 110.021 57.954 110.021 57.462C110.021 56.55 110.369 55.848 111.065 55.356C111.761 54.864 112.709 54.618 113.909 54.618H116.321V54.51C116.321 53.73 116.117 53.142 115.709 52.746C115.301 52.338 114.755 52.134 114.071 52.134C113.483 52.134 112.973 52.284 112.541 52.584C112.121 52.872 111.857 53.298 111.749 53.862H110.201C110.261 53.214 110.477 52.668 110.849 52.224C111.233 51.78 111.707 51.444 112.271 51.216C112.835 50.976 113.435 50.856 114.071 50.856C115.319 50.856 116.255 51.192 116.879 51.864C117.515 52.524 117.833 53.406 117.833 54.51V60H116.483L116.393 58.398C116.141 58.902 115.769 59.334 115.277 59.694C114.797 60.042 114.149 60.216 113.333 60.216ZM113.567 58.938C114.143 58.938 114.635 58.788 115.043 58.488C115.463 58.188 115.781 57.798 115.997 57.318C116.213 56.838 116.321 56.334 116.321 55.806V55.788H114.035C113.147 55.788 112.517 55.944 112.145 56.256C111.785 56.556 111.605 56.934 111.605 57.39C111.605 57.858 111.773 58.236 112.109 58.524C112.457 58.8 112.943 58.938 113.567 58.938ZM120.101 60V47.04H121.613V60H120.101ZM128.945 60V47.4H130.709L135.245 56.184L139.745 47.4H141.527V60H140.015V50.1L135.803 58.2H134.669L130.457 50.118V60H128.945ZM147.066 60.216C146.322 60.216 145.704 60.09 145.212 59.838C144.72 59.586 144.354 59.25 144.114 58.83C143.874 58.41 143.754 57.954 143.754 57.462C143.754 56.55 144.102 55.848 144.798 55.356C145.494 54.864 146.442 54.618 147.642 54.618H150.054V54.51C150.054 53.73 149.85 53.142 149.442 52.746C149.034 52.338 148.488 52.134 147.804 52.134C147.216 52.134 146.706 52.284 146.274 52.584C145.854 52.872 145.59 53.298 145.482 53.862H143.934C143.994 53.214 144.21 52.668 144.582 52.224C144.966 51.78 145.44 51.444 146.004 51.216C146.568 50.976 147.168 50.856 147.804 50.856C149.052 50.856 149.988 51.192 150.612 51.864C151.248 52.524 151.566 53.406 151.566 54.51V60H150.216L150.126 58.398C149.874 58.902 149.502 59.334 149.01 59.694C148.53 60.042 147.882 60.216 147.066 60.216ZM147.3 58.938C147.876 58.938 148.368 58.788 148.776 58.488C149.196 58.188 149.514 57.798 149.73 57.318C149.946 56.838 150.054 56.334 150.054 55.806V55.788H147.768C146.88 55.788 146.25 55.944 145.878 56.256C145.518 56.556 145.338 56.934 145.338 57.39C145.338 57.858 145.506 58.236 145.842 58.524C146.19 58.8 146.676 58.938 147.3 58.938ZM153.834 60V51.072H155.202L155.328 52.782C155.604 52.194 156.024 51.726 156.588 51.378C157.152 51.03 157.848 50.856 158.676 50.856V52.44H158.262C157.734 52.44 157.248 52.536 156.804 52.728C156.36 52.908 156.006 53.22 155.742 53.664C155.478 54.108 155.346 54.72 155.346 55.5V60H153.834ZM160.373 60V47.04H161.885V54.834L165.539 51.072H167.393L163.433 55.104L167.897 60H165.971L161.885 55.374V60H160.373ZM172.807 60.216C171.955 60.216 171.199 60.024 170.539 59.64C169.879 59.244 169.357 58.698 168.973 58.002C168.601 57.306 168.415 56.484 168.415 55.536C168.415 54.6 168.601 53.784 168.973 53.088C169.345 52.38 169.861 51.834 170.521 51.45C171.193 51.054 171.967 50.856 172.843 50.856C173.707 50.856 174.451 51.054 175.075 51.45C175.711 51.834 176.197 52.344 176.533 52.98C176.869 53.616 177.037 54.3 177.037 55.032C177.037 55.164 177.031 55.296 177.019 55.428C177.019 55.56 177.019 55.71 177.019 55.878H169.909C169.945 56.562 170.101 57.132 170.377 57.588C170.665 58.032 171.019 58.368 171.439 58.596C171.871 58.824 172.327 58.938 172.807 58.938C173.431 58.938 173.953 58.794 174.373 58.506C174.793 58.218 175.099 57.828 175.291 57.336H176.785C176.545 58.164 176.083 58.854 175.399 59.406C174.727 59.946 173.863 60.216 172.807 60.216ZM172.807 52.134C172.087 52.134 171.445 52.356 170.881 52.8C170.329 53.232 170.011 53.868 169.927 54.708H175.543C175.507 53.904 175.231 53.274 174.715 52.818C174.199 52.362 173.563 52.134 172.807 52.134ZM182.27 60C181.454 60 180.812 59.802 180.344 59.406C179.876 59.01 179.642 58.296 179.642 57.264V52.35H178.094V51.072H179.642L179.84 48.93H181.154V51.072H183.782V52.35H181.154V57.264C181.154 57.828 181.268 58.212 181.496 58.416C181.724 58.608 182.126 58.704 182.702 58.704H183.638V60H182.27ZM186.621 49.092C186.321 49.092 186.069 48.996 185.865 48.804C185.673 48.6 185.577 48.348 185.577 48.048C185.577 47.76 185.673 47.52 185.865 47.328C186.069 47.136 186.321 47.04 186.621 47.04C186.909 47.04 187.155 47.136 187.359 47.328C187.563 47.52 187.665 47.76 187.665 48.048C187.665 48.348 187.563 48.6 187.359 48.804C187.155 48.996 186.909 49.092 186.621 49.092ZM185.865 60V51.072H187.377V60H185.865ZM190.01 60V51.072H191.378L191.468 52.674C191.756 52.11 192.17 51.666 192.71 51.342C193.25 51.018 193.862 50.856 194.546 50.856C195.602 50.856 196.442 51.18 197.066 51.828C197.702 52.464 198.02 53.448 198.02 54.78V60H196.508V54.942C196.508 53.082 195.74 52.152 194.204 52.152C193.436 52.152 192.794 52.434 192.278 52.998C191.774 53.55 191.522 54.342 191.522 55.374V60H190.01ZM203.838 57.192C203.334 57.192 202.872 57.126 202.452 56.994L201.552 57.84C201.684 57.936 201.846 58.02 202.038 58.092C202.242 58.152 202.53 58.212 202.902 58.272C203.274 58.32 203.796 58.374 204.468 58.434C205.668 58.518 206.526 58.794 207.042 59.262C207.558 59.73 207.816 60.342 207.816 61.098C207.816 61.614 207.672 62.106 207.384 62.574C207.108 63.042 206.676 63.426 206.088 63.726C205.512 64.026 204.768 64.176 203.856 64.176C203.052 64.176 202.338 64.068 201.714 63.852C201.09 63.648 200.604 63.33 200.256 62.898C199.908 62.478 199.734 61.944 199.734 61.296C199.734 60.96 199.824 60.594 200.004 60.198C200.184 59.814 200.52 59.448 201.012 59.1C200.748 58.992 200.52 58.878 200.328 58.758C200.148 58.626 199.98 58.482 199.824 58.326V57.912L201.354 56.4C200.646 55.8 200.292 55.008 200.292 54.024C200.292 53.436 200.43 52.902 200.706 52.422C200.982 51.942 201.384 51.564 201.912 51.288C202.44 51 203.082 50.856 203.838 50.856C204.354 50.856 204.822 50.928 205.242 51.072H208.536V52.206L206.862 52.278C207.21 52.782 207.384 53.364 207.384 54.024C207.384 54.612 207.24 55.146 206.952 55.626C206.676 56.106 206.274 56.49 205.746 56.778C205.23 57.054 204.594 57.192 203.838 57.192ZM203.838 55.95C204.474 55.95 204.978 55.788 205.35 55.464C205.734 55.128 205.926 54.648 205.926 54.024C205.926 53.412 205.734 52.944 205.35 52.62C204.978 52.284 204.474 52.116 203.838 52.116C203.19 52.116 202.674 52.284 202.29 52.62C201.918 52.944 201.732 53.412 201.732 54.024C201.732 54.648 201.918 55.128 202.29 55.464C202.674 55.788 203.19 55.95 203.838 55.95ZM201.21 61.152C201.21 61.752 201.462 62.196 201.966 62.484C202.47 62.784 203.1 62.934 203.856 62.934C204.6 62.934 205.194 62.772 205.638 62.448C206.094 62.124 206.322 61.692 206.322 61.152C206.322 60.768 206.166 60.432 205.854 60.144C205.542 59.868 204.966 59.706 204.126 59.658C203.466 59.61 202.896 59.55 202.416 59.478C201.924 59.742 201.6 60.024 201.444 60.324C201.288 60.636 201.21 60.912 201.21 61.152Z" fill="white"/>
<defs>
<linearGradient id="paint0_linear_1_2" x1="1" y1="20" x2="105.562" y2="20" gradientUnits="userSpaceOnUse">
<stop stop-color="#FFA811"/>
<stop offset="1" stop-color="#F33B00"/>
</linearGradient>
</defs>
</svg>
