<svg width="209" height="65" viewBox="0 0 209 65" fill="none" xmlns="http://www.w3.org/2000/svg">
<path d="M80.332 60V47.4H84.202C86.422 47.4 88.054 47.964 89.098 49.092C90.154 50.22 90.682 51.768 90.682 53.736C90.682 55.668 90.154 57.198 89.098 58.326C88.054 59.442 86.422 60 84.202 60H80.332ZM81.844 58.74H84.166C85.39 58.74 86.362 58.542 87.082 58.146C87.814 57.738 88.336 57.162 88.648 56.418C88.96 55.662 89.116 54.768 89.116 53.736C89.116 52.68 88.96 51.774 88.648 51.018C88.336 50.262 87.814 49.68 87.082 49.272C86.362 48.864 85.39 48.66 84.166 48.66H81.844V58.74ZM93.6932 49.092C93.3932 49.092 93.1412 48.996 92.9372 48.804C92.7452 48.6 92.6492 48.348 92.6492 48.048C92.6492 47.76 92.7452 47.52 92.9372 47.328C93.1412 47.136 93.3932 47.04 93.6932 47.04C93.9812 47.04 94.2272 47.136 94.4312 47.328C94.6352 47.52 94.7372 47.76 94.7372 48.048C94.7372 48.348 94.6352 48.6 94.4312 48.804C94.2272 48.996 93.9812 49.092 93.6932 49.092ZM92.9372 60V51.072H94.4492V60H92.9372ZM100.61 57.192C100.106 57.192 99.6438 57.126 99.2238 56.994L98.3238 57.84C98.4558 57.936 98.6178 58.02 98.8098 58.092C99.0138 58.152 99.3018 58.212 99.6738 58.272C100.046 58.32 100.568 58.374 101.24 58.434C102.44 58.518 103.298 58.794 103.814 59.262C104.33 59.73 104.588 60.342 104.588 61.098C104.588 61.614 104.444 62.106 104.156 62.574C103.88 63.042 103.448 63.426 102.86 63.726C102.284 64.026 101.54 64.176 100.628 64.176C99.8238 64.176 99.1098 64.068 98.4858 63.852C97.8618 63.648 97.3758 63.33 97.0278 62.898C96.6798 62.478 96.5058 61.944 96.5058 61.296C96.5058 60.96 96.5958 60.594 96.7758 60.198C96.9558 59.814 97.2918 59.448 97.7838 59.1C97.5198 58.992 97.2918 58.878 97.0998 58.758C96.9198 58.626 96.7518 58.482 96.5958 58.326V57.912L98.1258 56.4C97.4178 55.8 97.0638 55.008 97.0638 54.024C97.0638 53.436 97.2018 52.902 97.4778 52.422C97.7538 51.942 98.1558 51.564 98.6838 51.288C99.2118 51 99.8538 50.856 100.61 50.856C101.126 50.856 101.594 50.928 102.014 51.072H105.308V52.206L103.634 52.278C103.982 52.782 104.156 53.364 104.156 54.024C104.156 54.612 104.012 55.146 103.724 55.626C103.448 56.106 103.046 56.49 102.518 56.778C102.002 57.054 101.366 57.192 100.61 57.192ZM100.61 55.95C101.246 55.95 101.75 55.788 102.122 55.464C102.506 55.128 102.698 54.648 102.698 54.024C102.698 53.412 102.506 52.944 102.122 52.62C101.75 52.284 101.246 52.116 100.61 52.116C99.9618 52.116 99.4458 52.284 99.0618 52.62C98.6898 52.944 98.5038 53.412 98.5038 54.024C98.5038 54.648 98.6898 55.128 99.0618 55.464C99.4458 55.788 99.9618 55.95 100.61 55.95ZM97.9818 61.152C97.9818 61.752 98.2338 62.196 98.7378 62.484C99.2418 62.784 99.8718 62.934 100.628 62.934C101.372 62.934 101.966 62.772 102.41 62.448C102.866 62.124 103.094 61.692 103.094 61.152C103.094 60.768 102.938 60.432 102.626 60.144C102.314 59.868 101.738 59.706 100.898 59.658C100.238 59.61 99.6678 59.55 99.1878 59.478C98.6958 59.742 98.3718 60.024 98.2158 60.324C98.0598 60.636 97.9818 60.912 97.9818 61.152ZM107.931 49.092C107.631 49.092 107.379 48.996 107.175 48.804C106.983 48.6 106.887 48.348 106.887 48.048C106.887 47.76 106.983 47.52 107.175 47.328C107.379 47.136 107.631 47.04 107.931 47.04C108.219 47.04 108.465 47.136 108.669 47.328C108.873 47.52 108.975 47.76 108.975 48.048C108.975 48.348 108.873 48.6 108.669 48.804C108.465 48.996 108.219 49.092 107.931 49.092ZM107.175 60V51.072H108.687V60H107.175ZM114.848 60C114.032 60 113.39 59.802 112.922 59.406C112.454 59.01 112.22 58.296 112.22 57.264V52.35H110.672V51.072H112.22L112.418 48.93H113.732V51.072H116.36V52.35H113.732V57.264C113.732 57.828 113.846 58.212 114.074 58.416C114.302 58.608 114.704 58.704 115.28 58.704H116.216V60H114.848ZM121.251 60.216C120.507 60.216 119.889 60.09 119.397 59.838C118.905 59.586 118.539 59.25 118.299 58.83C118.059 58.41 117.939 57.954 117.939 57.462C117.939 56.55 118.287 55.848 118.983 55.356C119.679 54.864 120.627 54.618 121.827 54.618H124.239V54.51C124.239 53.73 124.035 53.142 123.627 52.746C123.219 52.338 122.673 52.134 121.989 52.134C121.401 52.134 120.891 52.284 120.459 52.584C120.039 52.872 119.775 53.298 119.667 53.862H118.119C118.179 53.214 118.395 52.668 118.767 52.224C119.151 51.78 119.625 51.444 120.189 51.216C120.753 50.976 121.353 50.856 121.989 50.856C123.237 50.856 124.173 51.192 124.797 51.864C125.433 52.524 125.751 53.406 125.751 54.51V60H124.401L124.311 58.398C124.059 58.902 123.687 59.334 123.195 59.694C122.715 60.042 122.067 60.216 121.251 60.216ZM121.485 58.938C122.061 58.938 122.553 58.788 122.961 58.488C123.381 58.188 123.699 57.798 123.915 57.318C124.131 56.838 124.239 56.334 124.239 55.806V55.788H121.953C121.065 55.788 120.435 55.944 120.063 56.256C119.703 56.556 119.523 56.934 119.523 57.39C119.523 57.858 119.691 58.236 120.027 58.524C120.375 58.8 120.861 58.938 121.485 58.938ZM128.019 60V47.04H129.531V60H128.019ZM136.071 60L140.715 47.4H142.317L146.943 60H145.341L144.189 56.76H138.825L137.655 60H136.071ZM139.275 55.536H143.739L141.507 49.308L139.275 55.536ZM152.254 57.192C151.75 57.192 151.288 57.126 150.868 56.994L149.968 57.84C150.1 57.936 150.262 58.02 150.454 58.092C150.658 58.152 150.946 58.212 151.318 58.272C151.69 58.32 152.212 58.374 152.884 58.434C154.084 58.518 154.942 58.794 155.458 59.262C155.974 59.73 156.232 60.342 156.232 61.098C156.232 61.614 156.088 62.106 155.8 62.574C155.524 63.042 155.092 63.426 154.504 63.726C153.928 64.026 153.184 64.176 152.272 64.176C151.468 64.176 150.754 64.068 150.13 63.852C149.506 63.648 149.02 63.33 148.672 62.898C148.324 62.478 148.15 61.944 148.15 61.296C148.15 60.96 148.24 60.594 148.42 60.198C148.6 59.814 148.936 59.448 149.428 59.1C149.164 58.992 148.936 58.878 148.744 58.758C148.564 58.626 148.396 58.482 148.24 58.326V57.912L149.77 56.4C149.062 55.8 148.708 55.008 148.708 54.024C148.708 53.436 148.846 52.902 149.122 52.422C149.398 51.942 149.8 51.564 150.328 51.288C150.856 51 151.498 50.856 152.254 50.856C152.77 50.856 153.238 50.928 153.658 51.072H156.952V52.206L155.278 52.278C155.626 52.782 155.8 53.364 155.8 54.024C155.8 54.612 155.656 55.146 155.368 55.626C155.092 56.106 154.69 56.49 154.162 56.778C153.646 57.054 153.01 57.192 152.254 57.192ZM152.254 55.95C152.89 55.95 153.394 55.788 153.766 55.464C154.15 55.128 154.342 54.648 154.342 54.024C154.342 53.412 154.15 52.944 153.766 52.62C153.394 52.284 152.89 52.116 152.254 52.116C151.606 52.116 151.09 52.284 150.706 52.62C150.334 52.944 150.148 53.412 150.148 54.024C150.148 54.648 150.334 55.128 150.706 55.464C151.09 55.788 151.606 55.95 152.254 55.95ZM149.626 61.152C149.626 61.752 149.878 62.196 150.382 62.484C150.886 62.784 151.516 62.934 152.272 62.934C153.016 62.934 153.61 62.772 154.054 62.448C154.51 62.124 154.738 61.692 154.738 61.152C154.738 60.768 154.582 60.432 154.27 60.144C153.958 59.868 153.382 59.706 152.542 59.658C151.882 59.61 151.312 59.55 150.832 59.478C150.34 59.742 150.016 60.024 149.86 60.324C149.704 60.636 149.626 60.912 149.626 61.152ZM162.32 60.216C161.468 60.216 160.712 60.024 160.052 59.64C159.392 59.244 158.87 58.698 158.486 58.002C158.114 57.306 157.928 56.484 157.928 55.536C157.928 54.6 158.114 53.784 158.486 53.088C158.858 52.38 159.374 51.834 160.034 51.45C160.706 51.054 161.48 50.856 162.356 50.856C163.22 50.856 163.964 51.054 164.588 51.45C165.224 51.834 165.71 52.344 166.046 52.98C166.382 53.616 166.55 54.3 166.55 55.032C166.55 55.164 166.544 55.296 166.532 55.428C166.532 55.56 166.532 55.71 166.532 55.878H159.422C159.458 56.562 159.614 57.132 159.89 57.588C160.178 58.032 160.532 58.368 160.952 58.596C161.384 58.824 161.84 58.938 162.32 58.938C162.944 58.938 163.466 58.794 163.886 58.506C164.306 58.218 164.612 57.828 164.804 57.336H166.298C166.058 58.164 165.596 58.854 164.912 59.406C164.24 59.946 163.376 60.216 162.32 60.216ZM162.32 52.134C161.6 52.134 160.958 52.356 160.394 52.8C159.842 53.232 159.524 53.868 159.44 54.708H165.056C165.02 53.904 164.744 53.274 164.228 52.818C163.712 52.362 163.076 52.134 162.32 52.134ZM168.555 60V51.072H169.923L170.013 52.674C170.301 52.11 170.715 51.666 171.255 51.342C171.795 51.018 172.407 50.856 173.091 50.856C174.147 50.856 174.987 51.18 175.611 51.828C176.247 52.464 176.564 53.448 176.564 54.78V60H175.053V54.942C175.053 53.082 174.285 52.152 172.749 52.152C171.981 52.152 171.339 52.434 170.823 52.998C170.319 53.55 170.067 54.342 170.067 55.374V60H168.555ZM182.959 60.216C182.107 60.216 181.339 60.024 180.655 59.64C179.983 59.244 179.449 58.698 179.053 58.002C178.669 57.294 178.477 56.472 178.477 55.536C178.477 54.6 178.669 53.784 179.053 53.088C179.449 52.38 179.983 51.834 180.655 51.45C181.339 51.054 182.107 50.856 182.959 50.856C184.015 50.856 184.903 51.132 185.623 51.684C186.355 52.236 186.817 52.974 187.009 53.898H185.461C185.341 53.346 185.047 52.92 184.579 52.62C184.111 52.308 183.565 52.152 182.941 52.152C182.437 52.152 181.963 52.278 181.519 52.53C181.075 52.782 180.715 53.16 180.439 53.664C180.163 54.168 180.025 54.792 180.025 55.536C180.025 56.28 180.163 56.904 180.439 57.408C180.715 57.912 181.075 58.296 181.519 58.56C181.963 58.812 182.437 58.938 182.941 58.938C183.565 58.938 184.111 58.788 184.579 58.488C185.047 58.176 185.341 57.738 185.461 57.174H187.009C186.829 58.074 186.373 58.806 185.641 59.37C184.909 59.934 184.015 60.216 182.959 60.216ZM190.093 63.96L192.307 59.136H191.785L188.239 51.072H189.877L192.829 58.02L195.961 51.072H197.527L191.677 63.96H190.093Z" fill="white"/>
<path d="M30.3149 1.34229V5.02148H21.3184V38H10.0391V5.02148H0.98877V1.34229H30.3149ZM52.041 28.0903L55.9888 29.2451C55.577 35.4935 51.8888 38.6177 44.9243 38.6177C35.9009 38.6177 31.3892 34.1149 31.3892 25.1094C31.3892 20.7409 32.5887 17.1602 34.9878 14.3672C37.3869 11.5742 40.4574 10.1777 44.1992 10.1777C52.0231 10.1777 55.9351 15.2266 55.9351 25.3242H41.6479C41.6479 32.4141 43.4473 35.959 47.0459 35.959C50.4118 35.959 52.0947 33.9538 52.0947 29.9434C52.0947 29.4062 52.0768 28.7886 52.041 28.0903ZM41.6211 22.2896H47.4756C47.4756 15.9875 46.5267 12.8364 44.6289 12.8364C42.9102 12.8364 41.9434 15.1729 41.7285 19.8457L41.6211 22.2896ZM79.3799 25.915L83.5156 27.1772L83.5425 28.2783C83.5425 35.1533 79.7827 38.5908 72.2632 38.5908C63.3472 38.5908 58.8892 34.0701 58.8892 25.0288C58.8892 20.4992 60.1872 16.8916 62.7832 14.2061C65.3792 11.5026 68.8615 10.1509 73.23 10.1509C79.5142 10.1509 82.6562 12.9976 82.6562 18.6909L78.064 20.9199L78.1177 18.3418C78.1177 14.4746 76.8197 12.541 74.2236 12.541C70.7861 12.541 69.0674 16.3366 69.0674 23.9277C69.0674 28.6185 69.4344 31.8411 70.1685 33.5957C70.9025 35.3324 72.2632 36.2007 74.2505 36.2007C77.8849 36.2007 79.7021 33.8464 79.7021 29.1377C79.7021 28.4753 79.5947 27.401 79.3799 25.915ZM86.9263 38V1.34229C89.8267 1.34229 93.0941 1.1543 96.7285 0.77832V15.5757C98.8411 12.0129 101.822 10.2314 105.671 10.2314C110.219 10.2314 112.493 12.2725 112.493 16.3545V38H102.69V17.4287C102.69 15.8711 102.171 15.0923 101.133 15.0923C100.059 15.0923 99.056 16.0949 98.125 18.1001C97.194 20.0874 96.7285 22.2269 96.7285 24.5186V38H86.9263Z" fill="url(#paint0_linear_1_2)"/>
<path d="M132.795 18.2075H147.888V38H144.504L143.35 35.4756C140.396 37.5703 137.271 38.6177 133.977 38.6177C128.552 38.6177 124.336 36.9974 121.328 33.7568C118.338 30.4984 116.843 25.915 116.843 20.0068C116.843 14.2598 118.428 9.61377 121.597 6.06885C124.784 2.50602 128.946 0.724609 134.084 0.724609C140.852 0.724609 144.97 4.18001 146.438 11.0908L141.443 13.3735V12.4873L141.362 10.5C141.022 6.18522 139.026 4.02783 135.374 4.02783C132.688 4.02783 130.853 5.17367 129.868 7.46533C128.883 9.757 128.391 14.027 128.391 20.2754C128.391 26.112 128.785 30.0776 129.573 32.1724C130.378 34.2671 131.9 35.3145 134.138 35.3145C136.77 35.3145 138.086 33.8464 138.086 30.9102V21.8867H132.795V18.2075ZM172.085 28.0903L176.033 29.2451C175.621 35.4935 171.933 38.6177 164.968 38.6177C155.945 38.6177 151.433 34.1149 151.433 25.1094C151.433 20.7409 152.633 17.1602 155.032 14.3672C157.431 11.5742 160.501 10.1777 164.243 10.1777C172.067 10.1777 175.979 15.2266 175.979 25.3242H161.692C161.692 32.4141 163.491 35.959 167.09 35.959C170.456 35.959 172.139 33.9538 172.139 29.9434C172.139 29.4062 172.121 28.7886 172.085 28.0903ZM161.665 22.2896H167.52C167.52 15.9875 166.571 12.8364 164.673 12.8364C162.954 12.8364 161.987 15.1729 161.772 19.8457L161.665 22.2896ZM205.789 38H195.986V18.127C195.986 16.1038 195.422 15.0923 194.294 15.0923C193.149 15.0923 192.155 15.8979 191.313 17.5093C190.472 19.1027 190.051 20.9915 190.051 23.1758V38H180.249V10.876C183.615 10.876 186.882 10.6522 190.051 10.2046V15.2803C192.486 11.9144 195.458 10.2314 198.967 10.2314C203.515 10.2314 205.789 12.541 205.789 17.1602V38Z" fill="white"/>
<defs>
<linearGradient id="paint0_linear_1_2" x1="12.8182" y1="20" x2="105" y2="20" gradientUnits="userSpaceOnUse">
<stop stop-color="#F86CA7"/>
<stop offset="1" stop-color="#FF7F18"/>
</linearGradient>
</defs>
</svg>
