<svg width="209" height="65" viewBox="0 0 209 65" fill="none" xmlns="http://www.w3.org/2000/svg">
<path d="M30.3149 1.34229V5.02148H21.3184V38H10.0391V5.02148H0.98877V1.34229H30.3149ZM52.041 28.0903L55.9888 29.2451C55.577 35.4935 51.8888 38.6177 44.9243 38.6177C35.9009 38.6177 31.3892 34.1149 31.3892 25.1094C31.3892 20.7409 32.5887 17.1602 34.9878 14.3672C37.3869 11.5742 40.4574 10.1777 44.1992 10.1777C52.0231 10.1777 55.9351 15.2266 55.9351 25.3242H41.6479C41.6479 32.4141 43.4473 35.959 47.0459 35.959C50.4118 35.959 52.0947 33.9538 52.0947 29.9434C52.0947 29.4062 52.0768 28.7886 52.041 28.0903ZM41.6211 22.2896H47.4756C47.4756 15.9875 46.5267 12.8364 44.6289 12.8364C42.9102 12.8364 41.9434 15.1729 41.7285 19.8457L41.6211 22.2896ZM79.3799 25.915L83.5156 27.1772L83.5425 28.2783C83.5425 35.1533 79.7827 38.5908 72.2632 38.5908C63.3472 38.5908 58.8892 34.0701 58.8892 25.0288C58.8892 20.4992 60.1872 16.8916 62.7832 14.2061C65.3792 11.5026 68.8615 10.1509 73.23 10.1509C79.5142 10.1509 82.6562 12.9976 82.6562 18.6909L78.064 20.9199L78.1177 18.3418C78.1177 14.4746 76.8197 12.541 74.2236 12.541C70.7861 12.541 69.0674 16.3366 69.0674 23.9277C69.0674 28.6185 69.4344 31.8411 70.1685 33.5957C70.9025 35.3324 72.2632 36.2007 74.2505 36.2007C77.8849 36.2007 79.7021 33.8464 79.7021 29.1377C79.7021 28.4753 79.5947 27.401 79.3799 25.915ZM86.9263 38V1.34229C89.8267 1.34229 93.0941 1.1543 96.7285 0.77832V15.5757C98.8411 12.0129 101.822 10.2314 105.671 10.2314C110.219 10.2314 112.493 12.2725 112.493 16.3545V38H102.69V17.4287C102.69 15.8711 102.171 15.0923 101.133 15.0923C100.059 15.0923 99.056 16.0949 98.125 18.1001C97.194 20.0874 96.7285 22.2269 96.7285 24.5186V38H86.9263Z" fill="url(#paint0_linear_1_2)"/>
<path d="M132.795 18.2075H147.888V38H144.504L143.35 35.4756C140.396 37.5703 137.271 38.6177 133.977 38.6177C128.552 38.6177 124.336 36.9974 121.328 33.7568C118.338 30.4984 116.843 25.915 116.843 20.0068C116.843 14.2598 118.428 9.61377 121.597 6.06885C124.784 2.50602 128.946 0.724609 134.084 0.724609C140.852 0.724609 144.97 4.18001 146.438 11.0908L141.443 13.3735V12.4873L141.362 10.5C141.022 6.18522 139.026 4.02783 135.374 4.02783C132.688 4.02783 130.853 5.17367 129.868 7.46533C128.883 9.757 128.391 14.027 128.391 20.2754C128.391 26.112 128.785 30.0776 129.573 32.1724C130.378 34.2671 131.9 35.3145 134.138 35.3145C136.77 35.3145 138.086 33.8464 138.086 30.9102V21.8867H132.795V18.2075ZM172.085 28.0903L176.033 29.2451C175.621 35.4935 171.933 38.6177 164.968 38.6177C155.945 38.6177 151.433 34.1149 151.433 25.1094C151.433 20.7409 152.633 17.1602 155.032 14.3672C157.431 11.5742 160.501 10.1777 164.243 10.1777C172.067 10.1777 175.979 15.2266 175.979 25.3242H161.692C161.692 32.4141 163.491 35.959 167.09 35.959C170.456 35.959 172.139 33.9538 172.139 29.9434C172.139 29.4062 172.121 28.7886 172.085 28.0903ZM161.665 22.2896H167.52C167.52 15.9875 166.571 12.8364 164.673 12.8364C162.954 12.8364 161.987 15.1729 161.772 19.8457L161.665 22.2896ZM205.789 38H195.986V18.127C195.986 16.1038 195.422 15.0923 194.294 15.0923C193.149 15.0923 192.155 15.8979 191.313 17.5093C190.472 19.1027 190.051 20.9915 190.051 23.1758V38H180.249V10.876C183.615 10.876 186.882 10.6522 190.051 10.2046V15.2803C192.486 11.9144 195.458 10.2314 198.967 10.2314C203.515 10.2314 205.789 12.541 205.789 17.1602V38Z" fill="white"/>
<path d="M118.872 60V48.642H115.11V47.4H124.146V48.642H120.384V60H118.872ZM128.299 60.216C127.447 60.216 126.691 60.024 126.031 59.64C125.371 59.244 124.849 58.698 124.465 58.002C124.093 57.306 123.907 56.484 123.907 55.536C123.907 54.6 124.093 53.784 124.465 53.088C124.837 52.38 125.353 51.834 126.013 51.45C126.685 51.054 127.459 50.856 128.335 50.856C129.199 50.856 129.943 51.054 130.567 51.45C131.203 51.834 131.689 52.344 132.025 52.98C132.361 53.616 132.529 54.3 132.529 55.032C132.529 55.164 132.523 55.296 132.511 55.428C132.511 55.56 132.511 55.71 132.511 55.878H125.401C125.437 56.562 125.593 57.132 125.869 57.588C126.157 58.032 126.511 58.368 126.931 58.596C127.363 58.824 127.819 58.938 128.299 58.938C128.923 58.938 129.445 58.794 129.865 58.506C130.285 58.218 130.591 57.828 130.783 57.336H132.277C132.037 58.164 131.575 58.854 130.891 59.406C130.219 59.946 129.355 60.216 128.299 60.216ZM128.299 52.134C127.579 52.134 126.937 52.356 126.373 52.8C125.821 53.232 125.503 53.868 125.419 54.708H131.035C130.999 53.904 130.723 53.274 130.207 52.818C129.691 52.362 129.055 52.134 128.299 52.134ZM138.637 60.216C137.785 60.216 137.017 60.024 136.333 59.64C135.661 59.244 135.127 58.698 134.731 58.002C134.347 57.294 134.155 56.472 134.155 55.536C134.155 54.6 134.347 53.784 134.731 53.088C135.127 52.38 135.661 51.834 136.333 51.45C137.017 51.054 137.785 50.856 138.637 50.856C139.693 50.856 140.581 51.132 141.301 51.684C142.033 52.236 142.495 52.974 142.687 53.898H141.139C141.019 53.346 140.725 52.92 140.257 52.62C139.789 52.308 139.243 52.152 138.619 52.152C138.115 52.152 137.641 52.278 137.197 52.53C136.753 52.782 136.393 53.16 136.117 53.664C135.841 54.168 135.703 54.792 135.703 55.536C135.703 56.28 135.841 56.904 136.117 57.408C136.393 57.912 136.753 58.296 137.197 58.56C137.641 58.812 138.115 58.938 138.619 58.938C139.243 58.938 139.789 58.788 140.257 58.488C140.725 58.176 141.019 57.738 141.139 57.174H142.687C142.507 58.074 142.051 58.806 141.319 59.37C140.587 59.934 139.693 60.216 138.637 60.216ZM144.799 60V47.04H146.311V52.602C146.611 52.05 147.037 51.624 147.589 51.324C148.141 51.012 148.741 50.856 149.389 50.856C150.421 50.856 151.249 51.18 151.873 51.828C152.497 52.464 152.809 53.448 152.809 54.78V60H151.315V54.942C151.315 53.082 150.565 52.152 149.065 52.152C148.285 52.152 147.631 52.434 147.103 52.998C146.575 53.55 146.311 54.342 146.311 55.374V60H144.799ZM155.099 60V51.072H156.467L156.557 52.674C156.845 52.11 157.259 51.666 157.799 51.342C158.339 51.018 158.951 50.856 159.635 50.856C160.691 50.856 161.531 51.18 162.155 51.828C162.791 52.464 163.109 53.448 163.109 54.78V60H161.597V54.942C161.597 53.082 160.829 52.152 159.293 52.152C158.525 52.152 157.883 52.434 157.367 52.998C156.863 53.55 156.611 54.342 156.611 55.374V60H155.099ZM169.468 60.216C168.628 60.216 167.872 60.024 167.2 59.64C166.528 59.256 165.994 58.716 165.598 58.02C165.214 57.312 165.022 56.484 165.022 55.536C165.022 54.588 165.22 53.766 165.616 53.07C166.012 52.362 166.546 51.816 167.218 51.432C167.902 51.048 168.664 50.856 169.504 50.856C170.344 50.856 171.1 51.048 171.772 51.432C172.444 51.816 172.972 52.362 173.356 53.07C173.752 53.766 173.95 54.588 173.95 55.536C173.95 56.484 173.752 57.312 173.356 58.02C172.96 58.716 172.42 59.256 171.736 59.64C171.064 60.024 170.308 60.216 169.468 60.216ZM169.468 58.92C169.984 58.92 170.464 58.794 170.908 58.542C171.352 58.29 171.712 57.912 171.988 57.408C172.264 56.904 172.402 56.28 172.402 55.536C172.402 54.792 172.264 54.168 171.988 53.664C171.724 53.16 171.37 52.782 170.926 52.53C170.482 52.278 170.008 52.152 169.504 52.152C168.988 52.152 168.508 52.278 168.064 52.53C167.62 52.782 167.26 53.16 166.984 53.664C166.708 54.168 166.57 54.792 166.57 55.536C166.57 56.28 166.708 56.904 166.984 57.408C167.26 57.912 167.614 58.29 168.046 58.542C168.49 58.794 168.964 58.92 169.468 58.92ZM176.053 60V47.04H177.565V60H176.053ZM184.111 60.216C183.271 60.216 182.515 60.024 181.843 59.64C181.171 59.256 180.637 58.716 180.241 58.02C179.857 57.312 179.665 56.484 179.665 55.536C179.665 54.588 179.863 53.766 180.259 53.07C180.655 52.362 181.189 51.816 181.861 51.432C182.545 51.048 183.307 50.856 184.147 50.856C184.987 50.856 185.743 51.048 186.415 51.432C187.087 51.816 187.615 52.362 187.999 53.07C188.395 53.766 188.593 54.588 188.593 55.536C188.593 56.484 188.395 57.312 187.999 58.02C187.603 58.716 187.063 59.256 186.379 59.64C185.707 60.024 184.951 60.216 184.111 60.216ZM184.111 58.92C184.627 58.92 185.107 58.794 185.551 58.542C185.995 58.29 186.355 57.912 186.631 57.408C186.907 56.904 187.045 56.28 187.045 55.536C187.045 54.792 186.907 54.168 186.631 53.664C186.367 53.16 186.013 52.782 185.569 52.53C185.125 52.278 184.651 52.152 184.147 52.152C183.631 52.152 183.151 52.278 182.707 52.53C182.263 52.782 181.903 53.16 181.627 53.664C181.351 54.168 181.213 54.792 181.213 55.536C181.213 56.28 181.351 56.904 181.627 57.408C181.903 57.912 182.257 58.29 182.689 58.542C183.133 58.794 183.607 58.92 184.111 58.92ZM193.836 57.192C193.332 57.192 192.87 57.126 192.45 56.994L191.55 57.84C191.682 57.936 191.844 58.02 192.036 58.092C192.24 58.152 192.528 58.212 192.9 58.272C193.272 58.32 193.794 58.374 194.466 58.434C195.666 58.518 196.524 58.794 197.04 59.262C197.556 59.73 197.814 60.342 197.814 61.098C197.814 61.614 197.67 62.106 197.382 62.574C197.106 63.042 196.674 63.426 196.086 63.726C195.51 64.026 194.766 64.176 193.854 64.176C193.05 64.176 192.336 64.068 191.712 63.852C191.088 63.648 190.602 63.33 190.254 62.898C189.906 62.478 189.732 61.944 189.732 61.296C189.732 60.96 189.822 60.594 190.002 60.198C190.182 59.814 190.518 59.448 191.01 59.1C190.746 58.992 190.518 58.878 190.326 58.758C190.146 58.626 189.978 58.482 189.822 58.326V57.912L191.352 56.4C190.644 55.8 190.29 55.008 190.29 54.024C190.29 53.436 190.428 52.902 190.704 52.422C190.98 51.942 191.382 51.564 191.91 51.288C192.438 51 193.08 50.856 193.836 50.856C194.352 50.856 194.82 50.928 195.24 51.072H198.534V52.206L196.86 52.278C197.208 52.782 197.382 53.364 197.382 54.024C197.382 54.612 197.238 55.146 196.95 55.626C196.674 56.106 196.272 56.49 195.744 56.778C195.228 57.054 194.592 57.192 193.836 57.192ZM193.836 55.95C194.472 55.95 194.976 55.788 195.348 55.464C195.732 55.128 195.924 54.648 195.924 54.024C195.924 53.412 195.732 52.944 195.348 52.62C194.976 52.284 194.472 52.116 193.836 52.116C193.188 52.116 192.672 52.284 192.288 52.62C191.916 52.944 191.73 53.412 191.73 54.024C191.73 54.648 191.916 55.128 192.288 55.464C192.672 55.788 193.188 55.95 193.836 55.95ZM191.208 61.152C191.208 61.752 191.46 62.196 191.964 62.484C192.468 62.784 193.098 62.934 193.854 62.934C194.598 62.934 195.192 62.772 195.636 62.448C196.092 62.124 196.32 61.692 196.32 61.152C196.32 60.768 196.164 60.432 195.852 60.144C195.54 59.868 194.964 59.706 194.124 59.658C193.464 59.61 192.894 59.55 192.414 59.478C191.922 59.742 191.598 60.024 191.442 60.324C191.286 60.636 191.208 60.912 191.208 61.152ZM201.212 63.96L203.426 59.136H202.904L199.358 51.072H200.996L203.948 58.02L207.08 51.072H208.646L202.796 63.96H201.212Z" fill="white"/>
<defs>
<linearGradient id="paint0_linear_1_2" x1="1" y1="20" x2="105.562" y2="20" gradientUnits="userSpaceOnUse">
<stop stop-color="#006CE4"/>
<stop offset="1" stop-color="#00B98D"/>
</linearGradient>
</defs>
</svg>
