<svg width="209" height="61" viewBox="0 0 209 61" fill="none" xmlns="http://www.w3.org/2000/svg">
<path d="M30.3149 1.34229V5.02148H21.3184V38H10.0391V5.02148H0.98877V1.34229H30.3149ZM52.041 28.0903L55.9888 29.2451C55.577 35.4935 51.8888 38.6177 44.9243 38.6177C35.9009 38.6177 31.3892 34.1149 31.3892 25.1094C31.3892 20.7409 32.5887 17.1602 34.9878 14.3672C37.3869 11.5742 40.4574 10.1777 44.1992 10.1777C52.0231 10.1777 55.9351 15.2266 55.9351 25.3242H41.6479C41.6479 32.4141 43.4473 35.959 47.0459 35.959C50.4118 35.959 52.0947 33.9538 52.0947 29.9434C52.0947 29.4062 52.0768 28.7886 52.041 28.0903ZM41.6211 22.2896H47.4756C47.4756 15.9875 46.5267 12.8364 44.6289 12.8364C42.9102 12.8364 41.9434 15.1729 41.7285 19.8457L41.6211 22.2896ZM79.3799 25.915L83.5156 27.1772L83.5425 28.2783C83.5425 35.1533 79.7827 38.5908 72.2632 38.5908C63.3472 38.5908 58.8892 34.0701 58.8892 25.0288C58.8892 20.4992 60.1872 16.8916 62.7832 14.2061C65.3792 11.5026 68.8615 10.1509 73.23 10.1509C79.5142 10.1509 82.6562 12.9976 82.6562 18.6909L78.064 20.9199L78.1177 18.3418C78.1177 14.4746 76.8197 12.541 74.2236 12.541C70.7861 12.541 69.0674 16.3366 69.0674 23.9277C69.0674 28.6185 69.4344 31.8411 70.1685 33.5957C70.9025 35.3324 72.2632 36.2007 74.2505 36.2007C77.8849 36.2007 79.7021 33.8464 79.7021 29.1377C79.7021 28.4753 79.5947 27.401 79.3799 25.915ZM86.9263 38V1.34229C89.8267 1.34229 93.0941 1.1543 96.7285 0.77832V15.5757C98.8411 12.0129 101.822 10.2314 105.671 10.2314C110.219 10.2314 112.493 12.2725 112.493 16.3545V38H102.69V17.4287C102.69 15.8711 102.171 15.0923 101.133 15.0923C100.059 15.0923 99.056 16.0949 98.125 18.1001C97.194 20.0874 96.7285 22.2269 96.7285 24.5186V38H86.9263Z" fill="url(#paint0_linear_4_14)"/>
<path d="M132.795 18.2075H147.888V38H144.504L143.35 35.4756C140.396 37.5703 137.271 38.6177 133.977 38.6177C128.552 38.6177 124.336 36.9974 121.328 33.7568C118.338 30.4984 116.843 25.915 116.843 20.0068C116.843 14.2598 118.428 9.61377 121.597 6.06885C124.784 2.50602 128.946 0.724609 134.084 0.724609C140.852 0.724609 144.97 4.18001 146.438 11.0908L141.443 13.3735V12.4873L141.362 10.5C141.022 6.18522 139.026 4.02783 135.374 4.02783C132.688 4.02783 130.853 5.17367 129.868 7.46533C128.883 9.757 128.391 14.027 128.391 20.2754C128.391 26.112 128.785 30.0776 129.573 32.1724C130.378 34.2671 131.9 35.3145 134.138 35.3145C136.77 35.3145 138.086 33.8464 138.086 30.9102V21.8867H132.795V18.2075ZM172.085 28.0903L176.033 29.2451C175.621 35.4935 171.933 38.6177 164.968 38.6177C155.945 38.6177 151.433 34.1149 151.433 25.1094C151.433 20.7409 152.633 17.1602 155.032 14.3672C157.431 11.5742 160.501 10.1777 164.243 10.1777C172.067 10.1777 175.979 15.2266 175.979 25.3242H161.692C161.692 32.4141 163.491 35.959 167.09 35.959C170.456 35.959 172.139 33.9538 172.139 29.9434C172.139 29.4062 172.121 28.7886 172.085 28.0903ZM161.665 22.2896H167.52C167.52 15.9875 166.571 12.8364 164.673 12.8364C162.954 12.8364 161.987 15.1729 161.772 19.8457L161.665 22.2896ZM205.789 38H195.986V18.127C195.986 16.1038 195.422 15.0923 194.294 15.0923C193.149 15.0923 192.155 15.8979 191.313 17.5093C190.472 19.1027 190.051 20.9915 190.051 23.1758V38H180.249V10.876C183.615 10.876 186.882 10.6522 190.051 10.2046V15.2803C192.486 11.9144 195.458 10.2314 198.967 10.2314C203.515 10.2314 205.789 12.541 205.789 17.1602V38Z" fill="white"/>
<path d="M68.332 60V47.4H72.76C73.648 47.4 74.38 47.544 74.956 47.832C75.544 48.108 75.982 48.492 76.27 48.984C76.558 49.464 76.702 50.004 76.702 50.604C76.702 51.42 76.48 52.062 76.036 52.53C75.604 52.998 75.082 53.322 74.47 53.502C74.938 53.586 75.364 53.772 75.748 54.06C76.132 54.348 76.432 54.708 76.648 55.14C76.876 55.572 76.99 56.046 76.99 56.562C76.99 57.198 76.834 57.78 76.522 58.308C76.21 58.824 75.748 59.238 75.136 59.55C74.524 59.85 73.78 60 72.904 60H68.332ZM69.844 52.908H72.652C73.456 52.908 74.074 52.722 74.506 52.35C74.938 51.966 75.154 51.438 75.154 50.766C75.154 50.13 74.938 49.62 74.506 49.236C74.086 48.852 73.45 48.66 72.598 48.66H69.844V52.908ZM69.844 58.74H72.742C73.606 58.74 74.272 58.542 74.74 58.146C75.208 57.738 75.442 57.174 75.442 56.454C75.442 55.746 75.196 55.182 74.704 54.762C74.212 54.33 73.546 54.114 72.706 54.114H69.844V58.74ZM82.3281 60.216C81.2721 60.216 80.4321 59.898 79.8081 59.262C79.1841 58.614 78.8721 57.624 78.8721 56.292V51.072H80.3841V56.13C80.3841 57.99 81.1461 58.92 82.6701 58.92C83.4501 58.92 84.0921 58.644 84.5961 58.092C85.1121 57.528 85.3701 56.73 85.3701 55.698V51.072H86.8821V60H85.5141L85.4061 58.398C85.1301 58.962 84.7161 59.406 84.1641 59.73C83.6241 60.054 83.0121 60.216 82.3281 60.216ZM92.7909 60.216C91.7229 60.216 90.8349 59.946 90.1269 59.406C89.4189 58.866 89.0049 58.134 88.8849 57.21H90.4329C90.5289 57.678 90.7749 58.086 91.1709 58.434C91.5789 58.77 92.1249 58.938 92.8089 58.938C93.4449 58.938 93.9129 58.806 94.2129 58.542C94.5129 58.266 94.6629 57.942 94.6629 57.57C94.6629 57.03 94.4649 56.67 94.0689 56.49C93.6849 56.31 93.1389 56.148 92.4309 56.004C91.9509 55.908 91.4709 55.77 90.9909 55.59C90.5109 55.41 90.1089 55.158 89.7849 54.834C89.4609 54.498 89.2989 54.06 89.2989 53.52C89.2989 52.74 89.5869 52.104 90.1629 51.612C90.7509 51.108 91.5429 50.856 92.5389 50.856C93.4869 50.856 94.2609 51.096 94.8609 51.576C95.4729 52.044 95.8269 52.716 95.9229 53.592H94.4289C94.3689 53.136 94.1709 52.782 93.8349 52.53C93.5109 52.266 93.0729 52.134 92.5209 52.134C91.9809 52.134 91.5609 52.248 91.2609 52.476C90.9729 52.704 90.8289 53.004 90.8289 53.376C90.8289 53.736 91.0149 54.018 91.3869 54.222C91.7709 54.426 92.2869 54.6 92.9349 54.744C93.4869 54.864 94.0089 55.014 94.5009 55.194C95.0049 55.362 95.4129 55.62 95.7249 55.968C96.0489 56.304 96.2109 56.796 96.2109 57.444C96.2229 58.248 95.9169 58.914 95.2929 59.442C94.6809 59.958 93.8469 60.216 92.7909 60.216ZM99.2889 49.092C98.9889 49.092 98.7369 48.996 98.5329 48.804C98.3409 48.6 98.2449 48.348 98.2449 48.048C98.2449 47.76 98.3409 47.52 98.5329 47.328C98.7369 47.136 98.9889 47.04 99.2889 47.04C99.5769 47.04 99.8229 47.136 100.027 47.328C100.231 47.52 100.333 47.76 100.333 48.048C100.333 48.348 100.231 48.6 100.027 48.804C99.8229 48.996 99.5769 49.092 99.2889 49.092ZM98.5329 60V51.072H100.045V60H98.5329ZM102.678 60V51.072H104.046L104.136 52.674C104.424 52.11 104.838 51.666 105.378 51.342C105.918 51.018 106.53 50.856 107.214 50.856C108.27 50.856 109.11 51.18 109.734 51.828C110.37 52.464 110.688 53.448 110.688 54.78V60H109.176V54.942C109.176 53.082 108.408 52.152 106.872 52.152C106.104 52.152 105.462 52.434 104.946 52.998C104.442 53.55 104.19 54.342 104.19 55.374V60H102.678ZM116.992 60.216C116.14 60.216 115.384 60.024 114.724 59.64C114.064 59.244 113.542 58.698 113.158 58.002C112.786 57.306 112.6 56.484 112.6 55.536C112.6 54.6 112.786 53.784 113.158 53.088C113.53 52.38 114.046 51.834 114.706 51.45C115.378 51.054 116.152 50.856 117.028 50.856C117.892 50.856 118.636 51.054 119.26 51.45C119.896 51.834 120.382 52.344 120.718 52.98C121.054 53.616 121.222 54.3 121.222 55.032C121.222 55.164 121.216 55.296 121.204 55.428C121.204 55.56 121.204 55.71 121.204 55.878H114.094C114.13 56.562 114.286 57.132 114.562 57.588C114.85 58.032 115.204 58.368 115.624 58.596C116.056 58.824 116.512 58.938 116.992 58.938C117.616 58.938 118.138 58.794 118.558 58.506C118.978 58.218 119.284 57.828 119.476 57.336H120.97C120.73 58.164 120.268 58.854 119.584 59.406C118.912 59.946 118.048 60.216 116.992 60.216ZM116.992 52.134C116.272 52.134 115.63 52.356 115.066 52.8C114.514 53.232 114.196 53.868 114.112 54.708H119.728C119.692 53.904 119.416 53.274 118.9 52.818C118.384 52.362 117.748 52.134 116.992 52.134ZM126.646 60.216C125.578 60.216 124.69 59.946 123.982 59.406C123.274 58.866 122.86 58.134 122.74 57.21H124.288C124.384 57.678 124.63 58.086 125.026 58.434C125.434 58.77 125.98 58.938 126.664 58.938C127.3 58.938 127.768 58.806 128.068 58.542C128.368 58.266 128.518 57.942 128.518 57.57C128.518 57.03 128.32 56.67 127.924 56.49C127.54 56.31 126.994 56.148 126.286 56.004C125.806 55.908 125.326 55.77 124.846 55.59C124.366 55.41 123.964 55.158 123.64 54.834C123.316 54.498 123.154 54.06 123.154 53.52C123.154 52.74 123.442 52.104 124.018 51.612C124.606 51.108 125.398 50.856 126.394 50.856C127.342 50.856 128.116 51.096 128.716 51.576C129.328 52.044 129.682 52.716 129.778 53.592H128.284C128.224 53.136 128.026 52.782 127.69 52.53C127.366 52.266 126.928 52.134 126.376 52.134C125.836 52.134 125.416 52.248 125.116 52.476C124.828 52.704 124.684 53.004 124.684 53.376C124.684 53.736 124.87 54.018 125.242 54.222C125.626 54.426 126.142 54.6 126.79 54.744C127.342 54.864 127.864 55.014 128.356 55.194C128.86 55.362 129.268 55.62 129.58 55.968C129.904 56.304 130.066 56.796 130.066 57.444C130.078 58.248 129.772 58.914 129.148 59.442C128.536 59.958 127.702 60.216 126.646 60.216ZM135.646 60.216C134.578 60.216 133.69 59.946 132.982 59.406C132.274 58.866 131.86 58.134 131.74 57.21H133.288C133.384 57.678 133.63 58.086 134.026 58.434C134.434 58.77 134.98 58.938 135.664 58.938C136.3 58.938 136.768 58.806 137.068 58.542C137.368 58.266 137.518 57.942 137.518 57.57C137.518 57.03 137.32 56.67 136.924 56.49C136.54 56.31 135.994 56.148 135.286 56.004C134.806 55.908 134.326 55.77 133.846 55.59C133.366 55.41 132.964 55.158 132.64 54.834C132.316 54.498 132.154 54.06 132.154 53.52C132.154 52.74 132.442 52.104 133.018 51.612C133.606 51.108 134.398 50.856 135.394 50.856C136.342 50.856 137.116 51.096 137.716 51.576C138.328 52.044 138.682 52.716 138.778 53.592H137.284C137.224 53.136 137.026 52.782 136.69 52.53C136.366 52.266 135.928 52.134 135.376 52.134C134.836 52.134 134.416 52.248 134.116 52.476C133.828 52.704 133.684 53.004 133.684 53.376C133.684 53.736 133.87 54.018 134.242 54.222C134.626 54.426 135.142 54.6 135.79 54.744C136.342 54.864 136.864 55.014 137.356 55.194C137.86 55.362 138.268 55.62 138.58 55.968C138.904 56.304 139.066 56.796 139.066 57.444C139.078 58.248 138.772 58.914 138.148 59.442C137.536 59.958 136.702 60.216 135.646 60.216ZM151.606 60.216C150.37 60.216 149.302 59.946 148.402 59.406C147.514 58.854 146.824 58.092 146.332 57.12C145.84 56.136 145.594 54.996 145.594 53.7C145.594 52.416 145.84 51.288 146.332 50.316C146.824 49.332 147.514 48.564 148.402 48.012C149.302 47.46 150.37 47.184 151.606 47.184C153.046 47.184 154.216 47.532 155.116 48.228C156.028 48.912 156.61 49.872 156.862 51.108H155.188C154.996 50.328 154.6 49.704 154 49.236C153.412 48.756 152.614 48.516 151.606 48.516C150.706 48.516 149.92 48.726 149.248 49.146C148.576 49.554 148.054 50.148 147.682 50.928C147.322 51.696 147.142 52.62 147.142 53.7C147.142 54.78 147.322 55.71 147.682 56.49C148.054 57.258 148.576 57.852 149.248 58.272C149.92 58.68 150.706 58.884 151.606 58.884C152.614 58.884 153.412 58.656 154 58.2C154.6 57.732 154.996 57.114 155.188 56.346H156.862C156.61 57.558 156.028 58.506 155.116 59.19C154.216 59.874 153.046 60.216 151.606 60.216ZM163.013 60.216C162.173 60.216 161.417 60.024 160.745 59.64C160.073 59.256 159.539 58.716 159.143 58.02C158.759 57.312 158.567 56.484 158.567 55.536C158.567 54.588 158.765 53.766 159.161 53.07C159.557 52.362 160.091 51.816 160.763 51.432C161.447 51.048 162.209 50.856 163.049 50.856C163.889 50.856 164.645 51.048 165.317 51.432C165.989 51.816 166.517 52.362 166.901 53.07C167.297 53.766 167.495 54.588 167.495 55.536C167.495 56.484 167.297 57.312 166.901 58.02C166.505 58.716 165.965 59.256 165.281 59.64C164.609 60.024 163.853 60.216 163.013 60.216ZM163.013 58.92C163.529 58.92 164.009 58.794 164.453 58.542C164.897 58.29 165.257 57.912 165.533 57.408C165.809 56.904 165.947 56.28 165.947 55.536C165.947 54.792 165.809 54.168 165.533 53.664C165.269 53.16 164.915 52.782 164.471 52.53C164.027 52.278 163.553 52.152 163.049 52.152C162.533 52.152 162.053 52.278 161.609 52.53C161.165 52.782 160.805 53.16 160.529 53.664C160.253 54.168 160.115 54.792 160.115 55.536C160.115 56.28 160.253 56.904 160.529 57.408C160.805 57.912 161.159 58.29 161.591 58.542C162.035 58.794 162.509 58.92 163.013 58.92ZM169.597 60V51.072H170.965L171.055 52.674C171.343 52.11 171.757 51.666 172.297 51.342C172.837 51.018 173.449 50.856 174.133 50.856C175.189 50.856 176.029 51.18 176.653 51.828C177.289 52.464 177.607 53.448 177.607 54.78V60H176.095V54.942C176.095 53.082 175.327 52.152 173.791 52.152C173.023 52.152 172.381 52.434 171.865 52.998C171.361 53.55 171.109 54.342 171.109 55.374V60H169.597ZM183.318 60.216C182.25 60.216 181.362 59.946 180.654 59.406C179.946 58.866 179.532 58.134 179.412 57.21H180.96C181.056 57.678 181.302 58.086 181.698 58.434C182.106 58.77 182.652 58.938 183.336 58.938C183.972 58.938 184.44 58.806 184.74 58.542C185.04 58.266 185.19 57.942 185.19 57.57C185.19 57.03 184.992 56.67 184.596 56.49C184.212 56.31 183.666 56.148 182.958 56.004C182.478 55.908 181.998 55.77 181.518 55.59C181.038 55.41 180.636 55.158 180.312 54.834C179.988 54.498 179.826 54.06 179.826 53.52C179.826 52.74 180.114 52.104 180.69 51.612C181.278 51.108 182.07 50.856 183.066 50.856C184.014 50.856 184.788 51.096 185.388 51.576C186 52.044 186.354 52.716 186.45 53.592H184.956C184.896 53.136 184.698 52.782 184.362 52.53C184.038 52.266 183.6 52.134 183.048 52.134C182.508 52.134 182.088 52.248 181.788 52.476C181.5 52.704 181.356 53.004 181.356 53.376C181.356 53.736 181.542 54.018 181.914 54.222C182.298 54.426 182.814 54.6 183.462 54.744C184.014 54.864 184.536 55.014 185.028 55.194C185.532 55.362 185.94 55.62 186.252 55.968C186.576 56.304 186.738 56.796 186.738 57.444C186.75 58.248 186.444 58.914 185.82 59.442C185.208 59.958 184.374 60.216 183.318 60.216ZM192.156 60.216C191.1 60.216 190.26 59.898 189.636 59.262C189.012 58.614 188.7 57.624 188.7 56.292V51.072H190.212V56.13C190.212 57.99 190.974 58.92 192.498 58.92C193.278 58.92 193.92 58.644 194.424 58.092C194.94 57.528 195.198 56.73 195.198 55.698V51.072H196.71V60H195.342L195.234 58.398C194.958 58.962 194.544 59.406 193.992 59.73C193.452 60.054 192.84 60.216 192.156 60.216ZM199.199 60V47.04H200.711V60H199.199ZM206.717 60C205.901 60 205.259 59.802 204.791 59.406C204.323 59.01 204.089 58.296 204.089 57.264V52.35H202.541V51.072H204.089L204.287 48.93H205.601V51.072H208.229V52.35H205.601V57.264C205.601 57.828 205.715 58.212 205.943 58.416C206.171 58.608 206.573 58.704 207.149 58.704H208.085V60H206.717Z" fill="white"/>
<defs>
<linearGradient id="paint0_linear_4_14" x1="1" y1="20" x2="105.562" y2="20" gradientUnits="userSpaceOnUse">
<stop stop-color="#FFA811"/>
<stop offset="1" stop-color="#F33B00"/>
</linearGradient>
</defs>
</svg>
