<svg width="135" height="52" viewBox="0 0 135 52" fill="none" xmlns="http://www.w3.org/2000/svg">
<path d="M22.043 1.33984V4.01562H15.5V28H7.29688V4.01562H0.714844V1.33984H22.043ZM23.8984 19.2109L27.4727 19.0156C27.1732 20.0443 27.0039 20.9622 26.9648 21.7695C26.8346 24.6211 28.3385 26.0469 31.4766 26.0469C34.5625 26.0469 36.1055 24.3086 36.1055 20.832C36.1055 17.3164 34.263 15.5586 30.5781 15.5586L28.4688 15.5977V12.4531L29.9922 12.4727C33.8724 12.4727 35.8125 10.832 35.8125 7.55078C35.8125 4.69922 34.4388 3.27344 31.6914 3.27344C28.9831 3.27344 27.6289 4.52995 27.6289 7.04297C27.6289 7.65495 27.707 8.36458 27.8633 9.17188L24.2891 8.42969C24.2891 3.39062 27.2188 0.871094 33.0781 0.871094C39.8359 0.871094 43.2148 3.17578 43.2148 7.78516C43.2148 10.806 41.3073 12.8568 37.4922 13.9375C41.8151 14.9271 43.9766 17.1667 43.9766 20.6562C43.9766 25.8516 40.3763 28.4492 33.1758 28.4492C26.7695 28.4492 23.5664 26.3008 23.5664 22.0039C23.5664 21.1966 23.6771 20.2656 23.8984 19.2109ZM66.2227 17.2969L69.5234 18.1562C69.5755 18.8333 69.6016 19.4193 69.6016 19.9141C69.6016 22.5052 68.6641 24.5755 66.7891 26.125C64.9141 27.6745 62.401 28.4492 59.25 28.4492C51.3464 28.4492 47.3945 24.0026 47.3945 15.1094C47.3945 10.8906 48.5469 7.47266 50.8516 4.85547C53.1562 2.22526 56.1576 0.910156 59.8555 0.910156C65.6237 0.910156 68.5078 3.68359 68.5078 9.23047L65.1875 10.7539C65.2266 9.97266 65.2461 9.36719 65.2461 8.9375C65.2461 5.00521 63.6706 3.03906 60.5195 3.03906C57.1862 3.03906 55.5195 7.21224 55.5195 15.5586C55.5195 22.7331 57.3815 26.3203 61.1055 26.3203C62.6419 26.3203 63.918 25.7083 64.9336 24.4844C65.9622 23.2604 66.4766 21.7305 66.4766 19.8945C66.4766 19.3086 66.3919 18.4427 66.2227 17.2969Z" fill="url(#paint0_linear_1184_13028)"/>
<path d="M80.2656 14.7383V28H72.5312V1.33984H80.2656V12.0625H86.5742V1.33984H94.3086V28H86.5742V14.7383H80.2656ZM106.672 1.33984V28H98.9375V1.33984H106.672ZM122.199 0.871094C129.96 0.871094 133.84 5.46745 133.84 14.6602C133.84 23.8529 129.888 28.4492 121.984 28.4492C114.081 28.4492 110.129 23.7487 110.129 14.3477C110.129 5.36328 114.152 0.871094 122.199 0.871094ZM121.984 3C120.526 3 119.536 3.80729 119.016 5.42188C118.508 7.02344 118.254 10.1029 118.254 14.6602C118.254 19.2174 118.508 22.3034 119.016 23.918C119.536 25.5195 120.526 26.3203 121.984 26.3203C123.443 26.3203 124.426 25.5195 124.934 23.918C125.454 22.3034 125.715 19.2174 125.715 14.6602C125.715 10.1159 125.454 7.03646 124.934 5.42188C124.426 3.80729 123.443 3 121.984 3Z" fill="#000C1F"/>
<path d="M24.752 48.192C23.9307 48.192 23.216 48.0427 22.608 47.744C22 47.4453 21.5307 47.0293 21.2 46.496C20.8693 45.9627 20.704 45.344 20.704 44.64H22.112C22.112 45.0773 22.2133 45.4827 22.416 45.856C22.6187 46.2187 22.912 46.512 23.296 46.736C23.6907 46.9493 24.176 47.056 24.752 47.056C25.5093 47.056 26.096 46.8747 26.512 46.512C26.928 46.1493 27.136 45.696 27.136 45.152C27.136 44.704 27.04 44.3467 26.848 44.08C26.656 43.8027 26.3947 43.5787 26.064 43.408C25.744 43.2373 25.3707 43.088 24.944 42.96C24.528 42.832 24.0907 42.688 23.632 42.528C22.768 42.2293 22.128 41.8613 21.712 41.424C21.296 40.976 21.088 40.3947 21.088 39.68C21.0773 39.0827 21.216 38.5547 21.504 38.096C21.792 37.6267 22.1973 37.264 22.72 37.008C23.2533 36.7413 23.8827 36.608 24.608 36.608C25.3227 36.608 25.9413 36.7413 26.464 37.008C26.9973 37.2747 27.408 37.6427 27.696 38.112C27.9947 38.5813 28.1493 39.1147 28.16 39.712H26.752C26.752 39.4027 26.672 39.0987 26.512 38.8C26.352 38.4907 26.1067 38.24 25.776 38.048C25.456 37.856 25.0507 37.76 24.56 37.76C23.952 37.7493 23.4507 37.904 23.056 38.224C22.672 38.544 22.48 38.9867 22.48 39.552C22.48 40.032 22.6133 40.4 22.88 40.656C23.1573 40.912 23.5413 41.1253 24.032 41.296C24.5227 41.456 25.088 41.6427 25.728 41.856C26.2613 42.048 26.7413 42.272 27.168 42.528C27.5947 42.784 27.9253 43.1147 28.16 43.52C28.4053 43.9253 28.528 44.4427 28.528 45.072C28.528 45.6053 28.3893 46.112 28.112 46.592C27.8347 47.0613 27.4133 47.4453 26.848 47.744C26.2933 48.0427 25.5947 48.192 24.752 48.192ZM33.49 48C32.7647 48 32.194 47.824 31.778 47.472C31.362 47.12 31.154 46.4853 31.154 45.568V41.2H29.778V40.064H31.154L31.33 38.16H32.498V40.064H34.834V41.2H32.498V45.568C32.498 46.0693 32.5993 46.4107 32.802 46.592C33.0047 46.7627 33.362 46.848 33.874 46.848H34.706V48H33.49ZM39.1815 48.192C38.5202 48.192 37.9708 48.08 37.5335 47.856C37.0962 47.632 36.7708 47.3333 36.5575 46.96C36.3442 46.5867 36.2375 46.1813 36.2375 45.744C36.2375 44.9333 36.5468 44.3093 37.1655 43.872C37.7842 43.4347 38.6268 43.216 39.6935 43.216H41.8375V43.12C41.8375 42.4267 41.6562 41.904 41.2935 41.552C40.9308 41.1893 40.4455 41.008 39.8375 41.008C39.3148 41.008 38.8615 41.1413 38.4775 41.408C38.1042 41.664 37.8695 42.0427 37.7735 42.544H36.3975C36.4508 41.968 36.6428 41.4827 36.9735 41.088C37.3148 40.6933 37.7362 40.3947 38.2375 40.192C38.7388 39.9787 39.2722 39.872 39.8375 39.872C40.9468 39.872 41.7788 40.1707 42.3335 40.768C42.8988 41.3547 43.1815 42.1387 43.1815 43.12V48H41.9815L41.9015 46.576C41.6775 47.024 41.3468 47.408 40.9095 47.728C40.4828 48.0373 39.9068 48.192 39.1815 48.192ZM39.3895 47.056C39.9015 47.056 40.3388 46.9227 40.7015 46.656C41.0748 46.3893 41.3575 46.0427 41.5495 45.616C41.7415 45.1893 41.8375 44.7413 41.8375 44.272V44.256H39.8055C39.0162 44.256 38.4562 44.3947 38.1255 44.672C37.8055 44.9387 37.6455 45.2747 37.6455 45.68C37.6455 46.096 37.7948 46.432 38.0935 46.688C38.4028 46.9333 38.8348 47.056 39.3895 47.056ZM45.1978 48V40.064H46.4138L46.5258 41.584C46.7711 41.0613 47.1444 40.6453 47.6458 40.336C48.1471 40.0267 48.7658 39.872 49.5018 39.872V41.28H49.1338C48.6644 41.28 48.2324 41.3653 47.8378 41.536C47.4431 41.696 47.1284 41.9733 46.8938 42.368C46.6591 42.7627 46.5418 43.3067 46.5418 44V48H45.1978ZM54.1463 48C53.4209 48 52.8503 47.824 52.4343 47.472C52.0183 47.12 51.8103 46.4853 51.8103 45.568V41.2H50.4342V40.064H51.8103L51.9863 38.16H53.1543V40.064H55.4903V41.2H53.1543V45.568C53.1543 46.0693 53.2556 46.4107 53.4583 46.592C53.6609 46.7627 54.0183 46.848 54.5303 46.848H55.3623V48H54.1463ZM60.0938 48.192C59.1551 48.192 58.4084 47.9093 57.8538 47.344C57.2991 46.768 57.0218 45.888 57.0218 44.704V40.064H58.3658V44.56C58.3658 46.2133 59.0431 47.04 60.3978 47.04C61.0911 47.04 61.6618 46.7947 62.1098 46.304C62.5684 45.8027 62.7978 45.0933 62.7978 44.176V40.064H64.1418V48H62.9258L62.8298 46.576C62.5844 47.0773 62.2164 47.472 61.7258 47.76C61.2458 48.048 60.7018 48.192 60.0938 48.192ZM66.354 51.52V40.064H67.57L67.698 41.376C67.954 40.992 68.3167 40.6453 68.786 40.336C69.266 40.0267 69.874 39.872 70.61 39.872C71.3993 39.872 72.0873 40.0533 72.674 40.416C73.2607 40.7787 73.714 41.2747 74.034 41.904C74.3647 42.5333 74.53 43.248 74.53 44.048C74.53 44.848 74.3647 45.5627 74.034 46.192C73.714 46.8107 73.2553 47.3013 72.658 47.664C72.0713 48.016 71.3833 48.192 70.594 48.192C69.9433 48.192 69.362 48.0587 68.85 47.792C68.3487 47.5253 67.9647 47.152 67.698 46.672V51.52H66.354ZM70.45 47.024C70.9833 47.024 71.4527 46.9013 71.858 46.656C72.2633 46.4 72.5833 46.048 72.818 45.6C73.0527 45.152 73.17 44.6293 73.17 44.032C73.17 43.4347 73.0527 42.912 72.818 42.464C72.5833 42.016 72.2633 41.6693 71.858 41.424C71.4527 41.168 70.9833 41.04 70.45 41.04C69.9167 41.04 69.4473 41.168 69.042 41.424C68.6367 41.6693 68.3167 42.016 68.082 42.464C67.8473 42.912 67.73 43.4347 67.73 44.032C67.73 44.6293 67.8473 45.152 68.082 45.6C68.3167 46.048 68.6367 46.4 69.042 46.656C69.4473 46.9013 69.9167 47.024 70.45 47.024ZM80.0113 48L84.1393 36.8H85.5633L89.6753 48H88.2513L87.2273 45.12H82.4593L81.4193 48H80.0113ZM82.8593 44.032H86.8273L84.8433 38.496L82.8593 44.032ZM94.3963 45.504C93.9483 45.504 93.5376 45.4453 93.1643 45.328L92.3643 46.08C92.4816 46.1653 92.6256 46.24 92.7963 46.304C92.9776 46.3573 93.2336 46.4107 93.5643 46.464C93.8949 46.5067 94.3589 46.5547 94.9563 46.608C96.0229 46.6827 96.7856 46.928 97.2443 47.344C97.7029 47.76 97.9323 48.304 97.9323 48.976C97.9323 49.4347 97.8043 49.872 97.5483 50.288C97.3029 50.704 96.9189 51.0453 96.3963 51.312C95.8843 51.5787 95.2229 51.712 94.4123 51.712C93.6976 51.712 93.0629 51.616 92.5082 51.424C91.9536 51.2427 91.5216 50.96 91.2122 50.576C90.9029 50.2027 90.7483 49.728 90.7483 49.152C90.7483 48.8533 90.8283 48.528 90.9883 48.176C91.1483 47.8347 91.4469 47.5093 91.8843 47.2C91.6496 47.104 91.4469 47.0027 91.2763 46.896C91.1163 46.7787 90.9669 46.6507 90.8283 46.512V46.144L92.1883 44.8C91.5589 44.2667 91.2443 43.5627 91.2443 42.688C91.2443 42.1653 91.3669 41.6907 91.6123 41.264C91.8576 40.8373 92.2149 40.5013 92.6843 40.256C93.1536 40 93.7243 39.872 94.3963 39.872C94.8549 39.872 95.2709 39.936 95.6443 40.064H98.5723V41.072L97.0843 41.136C97.3936 41.584 97.5483 42.1013 97.5483 42.688C97.5483 43.2107 97.4203 43.6853 97.1643 44.112C96.9189 44.5387 96.5616 44.88 96.0923 45.136C95.6336 45.3813 95.0683 45.504 94.3963 45.504ZM94.3963 44.4C94.9616 44.4 95.4096 44.256 95.7403 43.968C96.0816 43.6693 96.2523 43.2427 96.2523 42.688C96.2523 42.144 96.0816 41.728 95.7403 41.44C95.4096 41.1413 94.9616 40.992 94.3963 40.992C93.8203 40.992 93.3616 41.1413 93.0203 41.44C92.6896 41.728 92.5243 42.144 92.5243 42.688C92.5243 43.2427 92.6896 43.6693 93.0203 43.968C93.3616 44.256 93.8203 44.4 94.3963 44.4ZM92.0603 49.024C92.0603 49.5573 92.2843 49.952 92.7323 50.208C93.1803 50.4747 93.7403 50.608 94.4123 50.608C95.0736 50.608 95.6016 50.464 95.9963 50.176C96.4016 49.888 96.6043 49.504 96.6043 49.024C96.6043 48.6827 96.4656 48.384 96.1883 48.128C95.9109 47.8827 95.3989 47.7387 94.6523 47.696C94.0656 47.6533 93.5589 47.6 93.1323 47.536C92.6949 47.7707 92.4069 48.0213 92.2682 48.288C92.1296 48.5653 92.0603 48.8107 92.0603 49.024ZM103.344 48.192C102.587 48.192 101.915 48.0213 101.328 47.68C100.741 47.328 100.277 46.8427 99.9359 46.224C99.6052 45.6053 99.4399 44.8747 99.4399 44.032C99.4399 43.2 99.6052 42.4747 99.9359 41.856C100.267 41.2267 100.725 40.7413 101.312 40.4C101.909 40.048 102.597 39.872 103.376 39.872C104.144 39.872 104.805 40.048 105.36 40.4C105.925 40.7413 106.357 41.1947 106.656 41.76C106.955 42.3253 107.104 42.9333 107.104 43.584C107.104 43.7013 107.099 43.8187 107.088 43.936C107.088 44.0533 107.088 44.1867 107.088 44.336H100.768C100.8 44.944 100.939 45.4507 101.184 45.856C101.44 46.2507 101.755 46.5493 102.128 46.752C102.512 46.9547 102.917 47.056 103.344 47.056C103.899 47.056 104.363 46.928 104.736 46.672C105.109 46.416 105.381 46.0693 105.552 45.632H106.88C106.667 46.368 106.256 46.9813 105.648 47.472C105.051 47.952 104.283 48.192 103.344 48.192ZM103.344 41.008C102.704 41.008 102.133 41.2053 101.632 41.6C101.141 41.984 100.859 42.5493 100.784 43.296H105.776C105.744 42.5813 105.499 42.0213 105.04 41.616C104.581 41.2107 104.016 41.008 103.344 41.008ZM108.885 48V40.064H110.101L110.181 41.488C110.437 40.9867 110.805 40.592 111.285 40.304C111.765 40.016 112.309 39.872 112.917 39.872C113.856 39.872 114.603 40.16 115.157 40.736C115.723 41.3013 116.005 42.176 116.005 43.36V48H114.661V43.504C114.661 41.8507 113.979 41.024 112.613 41.024C111.931 41.024 111.36 41.2747 110.901 41.776C110.453 42.2667 110.229 42.9707 110.229 43.888V48H108.885ZM121.69 48.192C120.932 48.192 120.25 48.0213 119.642 47.68C119.044 47.328 118.57 46.8427 118.218 46.224C117.876 45.5947 117.706 44.864 117.706 44.032C117.706 43.2 117.876 42.4747 118.218 41.856C118.57 41.2267 119.044 40.7413 119.642 40.4C120.25 40.048 120.932 39.872 121.69 39.872C122.628 39.872 123.418 40.1173 124.058 40.608C124.708 41.0987 125.119 41.7547 125.29 42.576H123.914C123.807 42.0853 123.546 41.7067 123.13 41.44C122.714 41.1627 122.228 41.024 121.674 41.024C121.226 41.024 120.804 41.136 120.41 41.36C120.015 41.584 119.695 41.92 119.45 42.368C119.204 42.816 119.082 43.3707 119.082 44.032C119.082 44.6933 119.204 45.248 119.45 45.696C119.695 46.144 120.015 46.4853 120.41 46.72C120.804 46.944 121.226 47.056 121.674 47.056C122.228 47.056 122.714 46.9227 123.13 46.656C123.546 46.3787 123.807 45.9893 123.914 45.488H125.29C125.13 46.288 124.724 46.9387 124.074 47.44C123.423 47.9413 122.628 48.192 121.69 48.192ZM128.031 51.52L129.999 47.232H129.535L126.383 40.064H127.839L130.463 46.24L133.247 40.064H134.639L129.439 51.52H128.031Z" fill="#000C1F"/>
<defs>
<linearGradient id="paint0_linear_1184_13028" x1="8.61364" y1="15" x2="68" y2="15" gradientUnits="userSpaceOnUse">
<stop stop-color="#FF7222"/>
<stop offset="1" stop-color="#FF166A"/>
</linearGradient>
</defs>
</svg>
