<svg width="152" height="52" viewBox="0 0 152 52" fill="none" xmlns="http://www.w3.org/2000/svg">
<path d="M21.6836 1.33984V4.01562H15.1406V28H6.9375V4.01562H0.355469V1.33984H21.6836ZM37.4844 20.793L40.3555 21.6328C40.056 26.1771 37.3737 28.4492 32.3086 28.4492C25.7461 28.4492 22.4648 25.1745 22.4648 18.625C22.4648 15.4479 23.3372 12.8438 25.082 10.8125C26.8268 8.78125 29.0599 7.76562 31.7812 7.76562C37.4714 7.76562 40.3164 11.4375 40.3164 18.7812H29.9258C29.9258 23.9375 31.2344 26.5156 33.8516 26.5156C36.2995 26.5156 37.5234 25.0573 37.5234 22.1406C37.5234 21.75 37.5104 21.3008 37.4844 20.793ZM29.9062 16.5742H34.1641C34.1641 11.9909 33.474 9.69922 32.0938 9.69922C30.8438 9.69922 30.1406 11.3984 29.9844 14.7969L29.9062 16.5742ZM57.3672 19.2109L60.375 20.1289L60.3945 20.9297C60.3945 25.9297 57.6602 28.4297 52.1914 28.4297C45.707 28.4297 42.4648 25.1419 42.4648 18.5664C42.4648 15.2721 43.4089 12.6484 45.2969 10.6953C47.1849 8.72917 49.7174 7.74609 52.8945 7.74609C57.4648 7.74609 59.75 9.81641 59.75 13.957L56.4102 15.5781L56.4492 13.7031C56.4492 10.8906 55.5052 9.48438 53.6172 9.48438C51.1172 9.48438 49.8672 12.2448 49.8672 17.7656C49.8672 21.1771 50.1341 23.5208 50.668 24.7969C51.2018 26.0599 52.1914 26.6914 53.6367 26.6914C56.2799 26.6914 57.6016 24.9792 57.6016 21.5547C57.6016 21.0729 57.5234 20.2917 57.3672 19.2109ZM62.8555 28V1.33984C64.9648 1.33984 67.3411 1.20312 69.9844 0.929688V11.6914C71.5208 9.10026 73.6888 7.80469 76.4883 7.80469C79.7956 7.80469 81.4492 9.28906 81.4492 12.2578V28H74.3203V13.0391C74.3203 11.9062 73.9427 11.3398 73.1875 11.3398C72.4062 11.3398 71.6771 12.069 71 13.5273C70.3229 14.9727 69.9844 16.5286 69.9844 18.1953V28H62.8555Z" fill="url(#paint0_linear_1357_2458)"/>
<path d="M96.2148 13.6055H107.191V28H104.73L103.891 26.1641C101.742 27.6875 99.4701 28.4492 97.0742 28.4492C93.1289 28.4492 90.0625 27.2708 87.875 24.9141C85.7005 22.5443 84.6133 19.2109 84.6133 14.9141C84.6133 10.7344 85.7656 7.35547 88.0703 4.77734C90.388 2.1862 93.4154 0.890625 97.1523 0.890625C102.074 0.890625 105.069 3.40365 106.137 8.42969L102.504 10.0898V9.44531L102.445 8C102.198 4.86198 100.746 3.29297 98.0898 3.29297C96.1367 3.29297 94.8021 4.1263 94.0859 5.79297C93.3698 7.45964 93.0117 10.5651 93.0117 15.1094C93.0117 19.3542 93.2982 22.2383 93.8711 23.7617C94.457 25.2852 95.5638 26.0469 97.1914 26.0469C99.1055 26.0469 100.062 24.9792 100.062 22.8438V16.2812H96.2148V13.6055ZM124.789 20.793L127.66 21.6328C127.361 26.1771 124.678 28.4492 119.613 28.4492C113.051 28.4492 109.77 25.1745 109.77 18.625C109.77 15.4479 110.642 12.8438 112.387 10.8125C114.132 8.78125 116.365 7.76562 119.086 7.76562C124.776 7.76562 127.621 11.4375 127.621 18.7812H117.23C117.23 23.9375 118.539 26.5156 121.156 26.5156C123.604 26.5156 124.828 25.0573 124.828 22.1406C124.828 21.75 124.815 21.3008 124.789 20.793ZM117.211 16.5742H121.469C121.469 11.9909 120.779 9.69922 119.398 9.69922C118.148 9.69922 117.445 11.3984 117.289 14.7969L117.211 16.5742ZM149.301 28H142.172V13.5469C142.172 12.0755 141.762 11.3398 140.941 11.3398C140.108 11.3398 139.385 11.9258 138.773 13.0977C138.161 14.2565 137.855 15.6302 137.855 17.2188V28H130.727V8.27344C133.174 8.27344 135.551 8.11068 137.855 7.78516V11.4766C139.626 9.02865 141.788 7.80469 144.34 7.80469C147.647 7.80469 149.301 9.48438 149.301 12.8438V28Z" fill="#160803"/>
<path d="M71.8861 48V37.904H68.5421V36.8H76.5741V37.904H73.2301V48H71.8861ZM80.2658 48.192C79.5084 48.192 78.8364 48.0213 78.2498 47.68C77.6631 47.328 77.1991 46.8427 76.8578 46.224C76.5271 45.6053 76.3618 44.8747 76.3618 44.032C76.3618 43.2 76.5271 42.4747 76.8578 41.856C77.1884 41.2267 77.6471 40.7413 78.2338 40.4C78.8311 40.048 79.5191 39.872 80.2977 39.872C81.0658 39.872 81.7271 40.048 82.2818 40.4C82.8471 40.7413 83.2791 41.1947 83.5778 41.76C83.8764 42.3253 84.0258 42.9333 84.0258 43.584C84.0258 43.7013 84.0204 43.8187 84.0098 43.936C84.0098 44.0533 84.0098 44.1867 84.0098 44.336H77.6898C77.7218 44.944 77.8604 45.4507 78.1058 45.856C78.3618 46.2507 78.6764 46.5493 79.0498 46.752C79.4338 46.9547 79.8391 47.056 80.2658 47.056C80.8204 47.056 81.2844 46.928 81.6578 46.672C82.0311 46.416 82.3031 46.0693 82.4738 45.632H83.8018C83.5884 46.368 83.1778 46.9813 82.5698 47.472C81.9724 47.952 81.2044 48.192 80.2658 48.192ZM80.2658 41.008C79.6258 41.008 79.0551 41.2053 78.5538 41.6C78.0631 41.984 77.7804 42.5493 77.7057 43.296H82.6978C82.6658 42.5813 82.4204 42.0213 81.9618 41.616C81.5031 41.2107 80.9378 41.008 80.2658 41.008ZM89.4551 48.192C88.6978 48.192 88.0151 48.0213 87.4071 47.68C86.8098 47.328 86.3351 46.8427 85.9831 46.224C85.6418 45.5947 85.4711 44.864 85.4711 44.032C85.4711 43.2 85.6418 42.4747 85.9831 41.856C86.3351 41.2267 86.8098 40.7413 87.4071 40.4C88.0151 40.048 88.6978 39.872 89.4551 39.872C90.3938 39.872 91.1831 40.1173 91.8231 40.608C92.4738 41.0987 92.8845 41.7547 93.0551 42.576H91.6791C91.5725 42.0853 91.3111 41.7067 90.8951 41.44C90.4791 41.1627 89.9938 41.024 89.4391 41.024C88.9911 41.024 88.5698 41.136 88.1751 41.36C87.7805 41.584 87.4605 41.92 87.2151 42.368C86.9698 42.816 86.8471 43.3707 86.8471 44.032C86.8471 44.6933 86.9698 45.248 87.2151 45.696C87.4605 46.144 87.7805 46.4853 88.1751 46.72C88.5698 46.944 88.9911 47.056 89.4391 47.056C89.9938 47.056 90.4791 46.9227 90.8951 46.656C91.3111 46.3787 91.5725 45.9893 91.6791 45.488H93.0551C92.8951 46.288 92.4898 46.9387 91.8391 47.44C91.1885 47.9413 90.3938 48.192 89.4551 48.192ZM94.9321 48V36.48H96.2761V41.424C96.5428 40.9333 96.9215 40.5547 97.4121 40.288C97.9028 40.0107 98.4361 39.872 99.0121 39.872C99.9295 39.872 100.665 40.16 101.22 40.736C101.775 41.3013 102.052 42.176 102.052 43.36V48H100.724V43.504C100.724 41.8507 100.057 41.024 98.7241 41.024C98.0308 41.024 97.4495 41.2747 96.9801 41.776C96.5108 42.2667 96.2761 42.9707 96.2761 43.888V48H94.9321ZM104.088 48V40.064H105.304L105.384 41.488C105.64 40.9867 106.008 40.592 106.488 40.304C106.968 40.016 107.512 39.872 108.12 39.872C109.059 39.872 109.806 40.16 110.36 40.736C110.926 41.3013 111.208 42.176 111.208 43.36V48H109.864V43.504C109.864 41.8507 109.182 41.024 107.816 41.024C107.134 41.024 106.563 41.2747 106.104 41.776C105.656 42.2667 105.432 42.9707 105.432 43.888V48H104.088ZM116.861 48.192C116.114 48.192 115.442 48.0213 114.845 47.68C114.247 47.3387 113.773 46.8587 113.421 46.24C113.079 45.6107 112.909 44.8747 112.909 44.032C112.909 43.1893 113.085 42.4587 113.437 41.84C113.789 41.2107 114.263 40.7253 114.861 40.384C115.469 40.0427 116.146 39.872 116.893 39.872C117.639 39.872 118.311 40.0427 118.909 40.384C119.506 40.7253 119.975 41.2107 120.317 41.84C120.669 42.4587 120.845 43.1893 120.845 44.032C120.845 44.8747 120.669 45.6107 120.317 46.24C119.965 46.8587 119.485 47.3387 118.877 47.68C118.279 48.0213 117.607 48.192 116.861 48.192ZM116.861 47.04C117.319 47.04 117.746 46.928 118.141 46.704C118.535 46.48 118.855 46.144 119.101 45.696C119.346 45.248 119.469 44.6933 119.469 44.032C119.469 43.3707 119.346 42.816 119.101 42.368C118.866 41.92 118.551 41.584 118.157 41.36C117.762 41.136 117.341 41.024 116.893 41.024C116.434 41.024 116.007 41.136 115.613 41.36C115.218 41.584 114.898 41.92 114.653 42.368C114.407 42.816 114.285 43.3707 114.285 44.032C114.285 44.6933 114.407 45.248 114.653 45.696C114.898 46.144 115.213 46.48 115.597 46.704C115.991 46.928 116.413 47.04 116.861 47.04ZM122.713 48V36.48H124.057V48H122.713ZM129.876 48.192C129.13 48.192 128.458 48.0213 127.86 47.68C127.263 47.3387 126.788 46.8587 126.436 46.24C126.095 45.6107 125.924 44.8747 125.924 44.032C125.924 43.1893 126.1 42.4587 126.452 41.84C126.804 41.2107 127.279 40.7253 127.876 40.384C128.484 40.0427 129.162 39.872 129.908 39.872C130.655 39.872 131.327 40.0427 131.924 40.384C132.522 40.7253 132.991 41.2107 133.332 41.84C133.684 42.4587 133.86 43.1893 133.86 44.032C133.86 44.8747 133.684 45.6107 133.332 46.24C132.98 46.8587 132.5 47.3387 131.892 47.68C131.295 48.0213 130.623 48.192 129.876 48.192ZM129.876 47.04C130.335 47.04 130.762 46.928 131.156 46.704C131.551 46.48 131.871 46.144 132.116 45.696C132.362 45.248 132.484 44.6933 132.484 44.032C132.484 43.3707 132.362 42.816 132.116 42.368C131.882 41.92 131.567 41.584 131.172 41.36C130.778 41.136 130.356 41.024 129.908 41.024C129.45 41.024 129.023 41.136 128.628 41.36C128.234 41.584 127.914 41.92 127.668 42.368C127.423 42.816 127.3 43.3707 127.3 44.032C127.3 44.6933 127.423 45.248 127.668 45.696C127.914 46.144 128.228 46.48 128.612 46.704C129.007 46.928 129.428 47.04 129.876 47.04ZM138.521 45.504C138.073 45.504 137.663 45.4453 137.289 45.328L136.489 46.08C136.607 46.1653 136.751 46.24 136.921 46.304C137.103 46.3573 137.359 46.4107 137.689 46.464C138.02 46.5067 138.484 46.5547 139.081 46.608C140.148 46.6827 140.911 46.928 141.369 47.344C141.828 47.76 142.057 48.304 142.057 48.976C142.057 49.4347 141.929 49.872 141.673 50.288C141.428 50.704 141.044 51.0453 140.521 51.312C140.009 51.5787 139.348 51.712 138.537 51.712C137.823 51.712 137.188 51.616 136.633 51.424C136.079 51.2427 135.647 50.96 135.337 50.576C135.028 50.2027 134.873 49.728 134.873 49.152C134.873 48.8533 134.953 48.528 135.113 48.176C135.273 47.8347 135.572 47.5093 136.009 47.2C135.775 47.104 135.572 47.0027 135.401 46.896C135.241 46.7787 135.092 46.6507 134.953 46.512V46.144L136.313 44.8C135.684 44.2667 135.369 43.5627 135.369 42.688C135.369 42.1653 135.492 41.6907 135.737 41.264C135.983 40.8373 136.34 40.5013 136.809 40.256C137.279 40 137.849 39.872 138.521 39.872C138.98 39.872 139.396 39.936 139.769 40.064H142.697V41.072L141.209 41.136C141.519 41.584 141.673 42.1013 141.673 42.688C141.673 43.2107 141.545 43.6853 141.289 44.112C141.044 44.5387 140.687 44.88 140.217 45.136C139.759 45.3813 139.193 45.504 138.521 45.504ZM138.521 44.4C139.087 44.4 139.535 44.256 139.865 43.968C140.207 43.6693 140.377 43.2427 140.377 42.688C140.377 42.144 140.207 41.728 139.865 41.44C139.535 41.1413 139.087 40.992 138.521 40.992C137.945 40.992 137.487 41.1413 137.145 41.44C136.815 41.728 136.649 42.144 136.649 42.688C136.649 43.2427 136.815 43.6693 137.145 43.968C137.487 44.256 137.945 44.4 138.521 44.4ZM136.185 49.024C136.185 49.5573 136.409 49.952 136.857 50.208C137.305 50.4747 137.865 50.608 138.537 50.608C139.199 50.608 139.727 50.464 140.121 50.176C140.527 49.888 140.729 49.504 140.729 49.024C140.729 48.6827 140.591 48.384 140.313 48.128C140.036 47.8827 139.524 47.7387 138.777 47.696C138.191 47.6533 137.684 47.6 137.257 47.536C136.82 47.7707 136.532 48.0213 136.393 48.288C136.255 48.5653 136.185 48.8107 136.185 49.024ZM145.077 51.52L147.045 47.232H146.581L143.429 40.064H144.885L147.509 46.24L150.293 40.064H151.685L146.485 51.52H145.077Z" fill="#160803"/>
<defs>
<linearGradient id="paint0_linear_1357_2458" x1="9.34805e-07" y1="16" x2="75.9943" y2="14.6741" gradientUnits="userSpaceOnUse">
<stop stop-color="#006CE4"/>
<stop offset="1" stop-color="#00B98D"/>
</linearGradient>
</defs>
</svg>
