<svg width="151" height="48" viewBox="0 0 151 48" fill="none" xmlns="http://www.w3.org/2000/svg">
<path d="M7.036 47V37.2H10.48C11.1707 37.2 11.74 37.312 12.188 37.536C12.6453 37.7507 12.986 38.0493 13.21 38.432C13.434 38.8053 13.546 39.2253 13.546 39.692C13.546 40.3267 13.3733 40.826 13.028 41.19C12.692 41.554 12.286 41.806 11.81 41.946C12.174 42.0113 12.5053 42.156 12.804 42.38C13.1027 42.604 13.336 42.884 13.504 43.22C13.6813 43.556 13.77 43.9247 13.77 44.326C13.77 44.8207 13.6487 45.2733 13.406 45.684C13.1633 46.0853 12.804 46.4073 12.328 46.65C11.852 46.8833 11.2733 47 10.592 47H7.036ZM8.212 41.484H10.396C11.0213 41.484 11.502 41.3393 11.838 41.05C12.174 40.7513 12.342 40.3407 12.342 39.818C12.342 39.3233 12.174 38.9267 11.838 38.628C11.5113 38.3293 11.0167 38.18 10.354 38.18H8.212V41.484ZM8.212 46.02H10.466C11.138 46.02 11.656 45.866 12.02 45.558C12.384 45.2407 12.566 44.802 12.566 44.242C12.566 43.6913 12.3747 43.2527 11.992 42.926C11.6093 42.59 11.0913 42.422 10.438 42.422H8.212V46.02ZM17.9219 47.168C17.1005 47.168 16.4472 46.9207 15.9619 46.426C15.4765 45.922 15.2339 45.152 15.2339 44.116V40.056H16.4099V43.99C16.4099 45.4367 17.0025 46.16 18.1879 46.16C18.7945 46.16 19.2939 45.9453 19.6859 45.516C20.0872 45.0773 20.2879 44.4567 20.2879 43.654V40.056H21.4639V47H20.3999L20.3159 45.754C20.1012 46.1927 19.7792 46.538 19.3499 46.79C18.9299 47.042 18.4539 47.168 17.9219 47.168ZM26.0596 47.168C25.2289 47.168 24.5383 46.958 23.9876 46.538C23.4369 46.118 23.1149 45.5487 23.0216 44.83H24.2256C24.3003 45.194 24.4916 45.5113 24.7996 45.782C25.1169 46.0433 25.5416 46.174 26.0736 46.174C26.5683 46.174 26.9323 46.0713 27.1656 45.866C27.3989 45.6513 27.5156 45.3993 27.5156 45.11C27.5156 44.69 27.3616 44.41 27.0536 44.27C26.7549 44.13 26.3303 44.004 25.7796 43.892C25.4063 43.8173 25.0329 43.71 24.6596 43.57C24.2863 43.43 23.9736 43.234 23.7216 42.982C23.4696 42.7207 23.3436 42.38 23.3436 41.96C23.3436 41.3533 23.5676 40.8587 24.0156 40.476C24.4729 40.084 25.0889 39.888 25.8636 39.888C26.6009 39.888 27.2029 40.0747 27.6696 40.448C28.1456 40.812 28.4209 41.3347 28.4956 42.016H27.3336C27.2869 41.6613 27.1329 41.386 26.8716 41.19C26.6196 40.9847 26.2789 40.882 25.8496 40.882C25.4296 40.882 25.1029 40.9707 24.8696 41.148C24.6456 41.3253 24.5336 41.5587 24.5336 41.848C24.5336 42.128 24.6783 42.3473 24.9676 42.506C25.2663 42.6647 25.6676 42.8 26.1716 42.912C26.6009 43.0053 27.0069 43.122 27.3896 43.262C27.7816 43.3927 28.0989 43.5933 28.3416 43.864C28.5936 44.1253 28.7196 44.508 28.7196 45.012C28.7289 45.6373 28.4909 46.1553 28.0056 46.566C27.5296 46.9673 26.8809 47.168 26.0596 47.168ZM31.1136 38.516C30.8803 38.516 30.6843 38.4413 30.5256 38.292C30.3763 38.1333 30.3016 37.9373 30.3016 37.704C30.3016 37.48 30.3763 37.2933 30.5256 37.144C30.6843 36.9947 30.8803 36.92 31.1136 36.92C31.3376 36.92 31.5289 36.9947 31.6876 37.144C31.8463 37.2933 31.9256 37.48 31.9256 37.704C31.9256 37.9373 31.8463 38.1333 31.6876 38.292C31.5289 38.4413 31.3376 38.516 31.1136 38.516ZM30.5256 47V40.056H31.7016V47H30.5256ZM33.7492 47V40.056H34.8132L34.8832 41.302C35.1072 40.8633 35.4292 40.518 35.8492 40.266C36.2692 40.014 36.7452 39.888 37.2772 39.888C38.0985 39.888 38.7519 40.14 39.2372 40.644C39.7319 41.1387 39.9792 41.904 39.9792 42.94V47H38.8032V43.066C38.8032 41.6193 38.2059 40.896 37.0112 40.896C36.4139 40.896 35.9145 41.1153 35.5132 41.554C35.1212 41.9833 34.9252 42.5993 34.9252 43.402V47H33.7492ZM44.8829 47.168C44.2203 47.168 43.6323 47.0187 43.1189 46.72C42.6056 46.412 42.1996 45.9873 41.9009 45.446C41.6116 44.9047 41.4669 44.2653 41.4669 43.528C41.4669 42.8 41.6116 42.1653 41.9009 41.624C42.1903 41.0733 42.5916 40.6487 43.1049 40.35C43.6276 40.042 44.2296 39.888 44.9109 39.888C45.5829 39.888 46.1616 40.042 46.6469 40.35C47.1416 40.6487 47.5196 41.0453 47.7809 41.54C48.0423 42.0347 48.1729 42.5667 48.1729 43.136C48.1729 43.2387 48.1683 43.3413 48.1589 43.444C48.1589 43.5467 48.1589 43.6633 48.1589 43.794H42.6289C42.6569 44.326 42.7783 44.7693 42.9929 45.124C43.2169 45.4693 43.4923 45.7307 43.8189 45.908C44.1549 46.0853 44.5096 46.174 44.8829 46.174C45.3683 46.174 45.7743 46.062 46.1009 45.838C46.4276 45.614 46.6656 45.3107 46.8149 44.928H47.9769C47.7903 45.572 47.4309 46.1087 46.8989 46.538C46.3763 46.958 45.7043 47.168 44.8829 47.168ZM44.8829 40.882C44.3229 40.882 43.8236 41.0547 43.3849 41.4C42.9556 41.736 42.7083 42.2307 42.6429 42.884H47.0109C46.9829 42.2587 46.7683 41.7687 46.3669 41.414C45.9656 41.0593 45.4709 40.882 44.8829 40.882ZM52.3916 47.168C51.561 47.168 50.8703 46.958 50.3196 46.538C49.769 46.118 49.447 45.5487 49.3536 44.83H50.5576C50.6323 45.194 50.8236 45.5113 51.1316 45.782C51.449 46.0433 51.8736 46.174 52.4056 46.174C52.9003 46.174 53.2643 46.0713 53.4976 45.866C53.731 45.6513 53.8476 45.3993 53.8476 45.11C53.8476 44.69 53.6936 44.41 53.3856 44.27C53.087 44.13 52.6623 44.004 52.1116 43.892C51.7383 43.8173 51.365 43.71 50.9916 43.57C50.6183 43.43 50.3056 43.234 50.0536 42.982C49.8016 42.7207 49.6756 42.38 49.6756 41.96C49.6756 41.3533 49.8996 40.8587 50.3476 40.476C50.805 40.084 51.421 39.888 52.1956 39.888C52.933 39.888 53.535 40.0747 54.0016 40.448C54.4776 40.812 54.753 41.3347 54.8276 42.016H53.6656C53.619 41.6613 53.465 41.386 53.2036 41.19C52.9516 40.9847 52.611 40.882 52.1816 40.882C51.7616 40.882 51.435 40.9707 51.2016 41.148C50.9776 41.3253 50.8656 41.5587 50.8656 41.848C50.8656 42.128 51.0103 42.3473 51.2996 42.506C51.5983 42.6647 51.9996 42.8 52.5036 42.912C52.933 43.0053 53.339 43.122 53.7216 43.262C54.1136 43.3927 54.431 43.5933 54.6736 43.864C54.9256 44.1253 55.0516 44.508 55.0516 45.012C55.061 45.6373 54.823 46.1553 54.3376 46.566C53.8616 46.9673 53.213 47.168 52.3916 47.168ZM59.3916 47.168C58.561 47.168 57.8703 46.958 57.3196 46.538C56.769 46.118 56.447 45.5487 56.3536 44.83H57.5576C57.6323 45.194 57.8236 45.5113 58.1316 45.782C58.449 46.0433 58.8736 46.174 59.4056 46.174C59.9003 46.174 60.2643 46.0713 60.4976 45.866C60.731 45.6513 60.8476 45.3993 60.8476 45.11C60.8476 44.69 60.6936 44.41 60.3856 44.27C60.087 44.13 59.6623 44.004 59.1116 43.892C58.7383 43.8173 58.365 43.71 57.9916 43.57C57.6183 43.43 57.3056 43.234 57.0536 42.982C56.8016 42.7207 56.6756 42.38 56.6756 41.96C56.6756 41.3533 56.8996 40.8587 57.3476 40.476C57.805 40.084 58.421 39.888 59.1956 39.888C59.933 39.888 60.535 40.0747 61.0016 40.448C61.4776 40.812 61.753 41.3347 61.8276 42.016H60.6656C60.619 41.6613 60.465 41.386 60.2036 41.19C59.9516 40.9847 59.611 40.882 59.1816 40.882C58.7616 40.882 58.435 40.9707 58.2016 41.148C57.9776 41.3253 57.8656 41.5587 57.8656 41.848C57.8656 42.128 58.0103 42.3473 58.2996 42.506C58.5983 42.6647 58.9996 42.8 59.5036 42.912C59.933 43.0053 60.339 43.122 60.7216 43.262C61.1136 43.3927 61.431 43.5933 61.6736 43.864C61.9256 44.1253 62.0516 44.508 62.0516 45.012C62.061 45.6373 61.823 46.1553 61.3376 46.566C60.8616 46.9673 60.213 47.168 59.3916 47.168ZM71.8047 47.168C70.8434 47.168 70.0127 46.958 69.3127 46.538C68.622 46.1087 68.0854 45.516 67.7027 44.76C67.32 43.9947 67.1287 43.108 67.1287 42.1C67.1287 41.1013 67.32 40.224 67.7027 39.468C68.0854 38.7027 68.622 38.1053 69.3127 37.676C70.0127 37.2467 70.8434 37.032 71.8047 37.032C72.9247 37.032 73.8347 37.3027 74.5347 37.844C75.244 38.376 75.6967 39.1227 75.8927 40.084H74.5907C74.4414 39.4773 74.1334 38.992 73.6667 38.628C73.2094 38.2547 72.5887 38.068 71.8047 38.068C71.1047 38.068 70.4934 38.2313 69.9707 38.558C69.448 38.8753 69.042 39.3373 68.7527 39.944C68.4727 40.5413 68.3327 41.26 68.3327 42.1C68.3327 42.94 68.4727 43.6633 68.7527 44.27C69.042 44.8673 69.448 45.3293 69.9707 45.656C70.4934 45.9733 71.1047 46.132 71.8047 46.132C72.5887 46.132 73.2094 45.9547 73.6667 45.6C74.1334 45.236 74.4414 44.7553 74.5907 44.158H75.8927C75.6967 45.1007 75.244 45.838 74.5347 46.37C73.8347 46.902 72.9247 47.168 71.8047 47.168ZM80.6769 47.168C80.0235 47.168 79.4355 47.0187 78.9129 46.72C78.3902 46.4213 77.9749 46.0013 77.6669 45.46C77.3682 44.9093 77.2189 44.2653 77.2189 43.528C77.2189 42.7907 77.3729 42.1513 77.6809 41.61C77.9889 41.0593 78.4042 40.6347 78.9269 40.336C79.4589 40.0373 80.0515 39.888 80.7049 39.888C81.3582 39.888 81.9462 40.0373 82.4689 40.336C82.9915 40.6347 83.4022 41.0593 83.7009 41.61C84.0089 42.1513 84.1629 42.7907 84.1629 43.528C84.1629 44.2653 84.0089 44.9093 83.7009 45.46C83.3929 46.0013 82.9729 46.4213 82.4409 46.72C81.9182 47.0187 81.3302 47.168 80.6769 47.168ZM80.6769 46.16C81.0782 46.16 81.4515 46.062 81.7969 45.866C82.1422 45.67 82.4222 45.376 82.6369 44.984C82.8515 44.592 82.9589 44.1067 82.9589 43.528C82.9589 42.9493 82.8515 42.464 82.6369 42.072C82.4315 41.68 82.1562 41.386 81.8109 41.19C81.4655 40.994 81.0969 40.896 80.7049 40.896C80.3035 40.896 79.9302 40.994 79.5849 41.19C79.2395 41.386 78.9595 41.68 78.7449 42.072C78.5302 42.464 78.4229 42.9493 78.4229 43.528C78.4229 44.1067 78.5302 44.592 78.7449 44.984C78.9595 45.376 79.2349 45.67 79.5709 45.866C79.9162 46.062 80.2849 46.16 80.6769 46.16ZM85.798 47V40.056H86.862L86.932 41.302C87.156 40.8633 87.478 40.518 87.898 40.266C88.318 40.014 88.794 39.888 89.326 39.888C90.1474 39.888 90.8007 40.14 91.286 40.644C91.7807 41.1387 92.028 41.904 92.028 42.94V47H90.852V43.066C90.852 41.6193 90.2547 40.896 89.06 40.896C88.4627 40.896 87.9634 41.1153 87.562 41.554C87.17 41.9833 86.974 42.5993 86.974 43.402V47H85.798ZM96.4698 47.168C95.6391 47.168 94.9484 46.958 94.3978 46.538C93.8471 46.118 93.5251 45.5487 93.4318 44.83H94.6358C94.7104 45.194 94.9018 45.5113 95.2098 45.782C95.5271 46.0433 95.9518 46.174 96.4838 46.174C96.9784 46.174 97.3424 46.0713 97.5758 45.866C97.8091 45.6513 97.9258 45.3993 97.9258 45.11C97.9258 44.69 97.7718 44.41 97.4638 44.27C97.1651 44.13 96.7404 44.004 96.1898 43.892C95.8164 43.8173 95.4431 43.71 95.0698 43.57C94.6964 43.43 94.3838 43.234 94.1318 42.982C93.8798 42.7207 93.7538 42.38 93.7538 41.96C93.7538 41.3533 93.9778 40.8587 94.4258 40.476C94.8831 40.084 95.4991 39.888 96.2738 39.888C97.0111 39.888 97.6131 40.0747 98.0798 40.448C98.5558 40.812 98.8311 41.3347 98.9058 42.016H97.7438C97.6971 41.6613 97.5431 41.386 97.2818 41.19C97.0298 40.9847 96.6891 40.882 96.2598 40.882C95.8398 40.882 95.5131 40.9707 95.2798 41.148C95.0558 41.3253 94.9438 41.5587 94.9438 41.848C94.9438 42.128 95.0884 42.3473 95.3778 42.506C95.6764 42.6647 96.0778 42.8 96.5818 42.912C97.0111 43.0053 97.4171 43.122 97.7998 43.262C98.1918 43.3927 98.5091 43.5933 98.7518 43.864C99.0038 44.1253 99.1298 44.508 99.1298 45.012C99.1391 45.6373 98.9011 46.1553 98.4158 46.566C97.9398 46.9673 97.2911 47.168 96.4698 47.168ZM103.344 47.168C102.522 47.168 101.869 46.9207 101.384 46.426C100.898 45.922 100.656 45.152 100.656 44.116V40.056H101.832V43.99C101.832 45.4367 102.424 46.16 103.61 46.16C104.216 46.16 104.716 45.9453 105.108 45.516C105.509 45.0773 105.71 44.4567 105.71 43.654V40.056H106.886V47H105.822L105.738 45.754C105.523 46.1927 105.201 46.538 104.772 46.79C104.352 47.042 103.876 47.168 103.344 47.168ZM108.821 47V36.92H109.997V47H108.821ZM114.669 47C114.034 47 113.535 46.846 113.171 46.538C112.807 46.23 112.625 45.6747 112.625 44.872V41.05H111.421V40.056H112.625L112.779 38.39H113.801V40.056H115.845V41.05H113.801V44.872C113.801 45.3107 113.89 45.6093 114.067 45.768C114.244 45.9173 114.557 45.992 115.005 45.992H115.733V47H114.669Z" fill="#160803"/>
<path d="M21.3516 1.33984V4.01562H14.8086V28H6.60547V4.01562H0.0234375V1.33984H21.3516ZM37.1523 20.793L40.0234 21.6328C39.724 26.1771 37.0417 28.4492 31.9766 28.4492C25.4141 28.4492 22.1328 25.1745 22.1328 18.625C22.1328 15.4479 23.0052 12.8438 24.75 10.8125C26.4948 8.78125 28.7279 7.76562 31.4492 7.76562C37.1393 7.76562 39.9844 11.4375 39.9844 18.7812H29.5938C29.5938 23.9375 30.9023 26.5156 33.5195 26.5156C35.9674 26.5156 37.1914 25.0573 37.1914 22.1406C37.1914 21.75 37.1784 21.3008 37.1523 20.793ZM29.5742 16.5742H33.832C33.832 11.9909 33.1419 9.69922 31.7617 9.69922C30.5117 9.69922 29.8086 11.3984 29.6523 14.7969L29.5742 16.5742ZM57.0352 19.2109L60.043 20.1289L60.0625 20.9297C60.0625 25.9297 57.3281 28.4297 51.8594 28.4297C45.375 28.4297 42.1328 25.1419 42.1328 18.5664C42.1328 15.2721 43.0768 12.6484 44.9648 10.6953C46.8529 8.72917 49.3854 7.74609 52.5625 7.74609C57.1328 7.74609 59.418 9.81641 59.418 13.957L56.0781 15.5781L56.1172 13.7031C56.1172 10.8906 55.1732 9.48438 53.2852 9.48438C50.7852 9.48438 49.5352 12.2448 49.5352 17.7656C49.5352 21.1771 49.8021 23.5208 50.3359 24.7969C50.8698 26.0599 51.8594 26.6914 53.3047 26.6914C55.9479 26.6914 57.2695 24.9792 57.2695 21.5547C57.2695 21.0729 57.1914 20.2917 57.0352 19.2109ZM62.5234 28V1.33984C64.6328 1.33984 67.0091 1.20312 69.6523 0.929688V11.6914C71.1888 9.10026 73.3568 7.80469 76.1562 7.80469C79.4635 7.80469 81.1172 9.28906 81.1172 12.2578V28H73.9883V13.0391C73.9883 11.9062 73.6107 11.3398 72.8555 11.3398C72.0742 11.3398 71.3451 12.069 70.668 13.5273C69.9909 14.9727 69.6523 16.5286 69.6523 18.1953V28H62.5234Z" fill="url(#paint0_linear_2_2)"/>
<path d="M95.8828 13.6055H106.859V28H104.398L103.559 26.1641C101.41 27.6875 99.138 28.4492 96.7422 28.4492C92.7969 28.4492 89.7305 27.2708 87.543 24.9141C85.3685 22.5443 84.2812 19.2109 84.2812 14.9141C84.2812 10.7344 85.4336 7.35547 87.7383 4.77734C90.056 2.1862 93.0833 0.890625 96.8203 0.890625C101.742 0.890625 104.737 3.40365 105.805 8.42969L102.172 10.0898V9.44531L102.113 8C101.866 4.86198 100.414 3.29297 97.7578 3.29297C95.8047 3.29297 94.4701 4.1263 93.7539 5.79297C93.0378 7.45964 92.6797 10.5651 92.6797 15.1094C92.6797 19.3542 92.9661 22.2383 93.5391 23.7617C94.125 25.2852 95.2318 26.0469 96.8594 26.0469C98.7734 26.0469 99.7305 24.9792 99.7305 22.8438V16.2812H95.8828V13.6055ZM124.457 20.793L127.328 21.6328C127.029 26.1771 124.346 28.4492 119.281 28.4492C112.719 28.4492 109.438 25.1745 109.438 18.625C109.438 15.4479 110.31 12.8438 112.055 10.8125C113.799 8.78125 116.033 7.76562 118.754 7.76562C124.444 7.76562 127.289 11.4375 127.289 18.7812H116.898C116.898 23.9375 118.207 26.5156 120.824 26.5156C123.272 26.5156 124.496 25.0573 124.496 22.1406C124.496 21.75 124.483 21.3008 124.457 20.793ZM116.879 16.5742H121.137C121.137 11.9909 120.447 9.69922 119.066 9.69922C117.816 9.69922 117.113 11.3984 116.957 14.7969L116.879 16.5742ZM148.969 28H141.84V13.5469C141.84 12.0755 141.43 11.3398 140.609 11.3398C139.776 11.3398 139.053 11.9258 138.441 13.0977C137.829 14.2565 137.523 15.6302 137.523 17.2188V28H130.395V8.27344C132.842 8.27344 135.219 8.11068 137.523 7.78516V11.4766C139.294 9.02865 141.456 7.80469 144.008 7.80469C147.315 7.80469 148.969 9.48438 148.969 12.8438V28Z" fill="#160803"/>
<defs>
<linearGradient id="paint0_linear_2_2" x1="0" y1="15" x2="76.0763" y2="15" gradientUnits="userSpaceOnUse">
<stop stop-color="#FFA811"/>
<stop offset="1" stop-color="#F33B00"/>
</linearGradient>
</defs>
</svg>
