<svg width="133" height="47" viewBox="0 0 133 47" fill="none" xmlns="http://www.w3.org/2000/svg">
<path d="M57.158 43.168C56.4393 43.168 55.814 43.0373 55.282 42.776C54.75 42.5147 54.3393 42.1507 54.05 41.684C53.7607 41.2173 53.616 40.676 53.616 40.06H54.848C54.848 40.4427 54.9367 40.7973 55.114 41.124C55.2913 41.4413 55.548 41.698 55.884 41.894C56.2293 42.0807 56.654 42.174 57.158 42.174C57.8207 42.174 58.334 42.0153 58.698 41.698C59.062 41.3807 59.244 40.984 59.244 40.508C59.244 40.116 59.16 39.8033 58.992 39.57C58.824 39.3273 58.5953 39.1313 58.306 38.982C58.026 38.8327 57.6993 38.702 57.326 38.59C56.962 38.478 56.5793 38.352 56.178 38.212C55.422 37.9507 54.862 37.6287 54.498 37.246C54.134 36.854 53.952 36.3453 53.952 35.72C53.9427 35.1973 54.064 34.7353 54.316 34.334C54.568 33.9233 54.9227 33.606 55.38 33.382C55.8467 33.1487 56.3973 33.032 57.032 33.032C57.6573 33.032 58.1987 33.1487 58.656 33.382C59.1227 33.6153 59.482 33.9373 59.734 34.348C59.9953 34.7587 60.1307 35.2253 60.14 35.748H58.908C58.908 35.4773 58.838 35.2113 58.698 34.95C58.558 34.6793 58.3433 34.46 58.054 34.292C57.774 34.124 57.4193 34.04 56.99 34.04C56.458 34.0307 56.0193 34.166 55.674 34.446C55.338 34.726 55.17 35.1133 55.17 35.608C55.17 36.028 55.2867 36.35 55.52 36.574C55.7627 36.798 56.0987 36.9847 56.528 37.134C56.9573 37.274 57.452 37.4373 58.012 37.624C58.4787 37.792 58.8987 37.988 59.272 38.212C59.6453 38.436 59.9347 38.7253 60.14 39.08C60.3547 39.4347 60.462 39.8873 60.462 40.438C60.462 40.9047 60.3407 41.348 60.098 41.768C59.8553 42.1787 59.4867 42.5147 58.992 42.776C58.5067 43.0373 57.8953 43.168 57.158 43.168ZM62.1298 43V33.2H68.1918V34.166H63.3058V37.582H67.7718V38.534H63.3058V42.034H68.1918V43H62.1298ZM74.4841 43.168C73.5228 43.168 72.6781 42.958 71.9501 42.538C71.2314 42.1087 70.6668 41.5113 70.2561 40.746C69.8548 39.9807 69.6541 39.0987 69.6541 38.1C69.6541 37.1013 69.8548 36.224 70.2561 35.468C70.6668 34.7027 71.2314 34.1053 71.9501 33.676C72.6781 33.2467 73.5228 33.032 74.4841 33.032C75.4548 33.032 76.2994 33.2467 77.0181 33.676C77.7461 34.1053 78.3108 34.7027 78.7121 35.468C79.1134 36.224 79.3141 37.1013 79.3141 38.1C79.3141 39.0987 79.1134 39.9807 78.7121 40.746C78.3108 41.5113 77.7461 42.1087 77.0181 42.538C76.2994 42.958 75.4548 43.168 74.4841 43.168ZM74.4841 42.132C75.2028 42.132 75.8328 41.9733 76.3741 41.656C76.9248 41.3293 77.3494 40.8673 77.6481 40.27C77.9561 39.6633 78.1101 38.94 78.1101 38.1C78.1101 37.26 77.9561 36.5413 77.6481 35.944C77.3494 35.3467 76.9248 34.8893 76.3741 34.572C75.8328 34.2453 75.2028 34.082 74.4841 34.082C73.7654 34.082 73.1308 34.2453 72.5801 34.572C72.0388 34.8893 71.6141 35.3467 71.3061 35.944C71.0074 36.5413 70.8581 37.26 70.8581 38.1C70.8581 38.94 71.0074 39.6633 71.3061 40.27C71.6141 40.8673 72.0388 41.3293 72.5801 41.656C73.1308 41.9733 73.7654 42.132 74.4841 42.132ZM84.0997 43L87.7117 33.2H88.9577L92.5557 43H91.3097L90.4137 40.48H86.2417L85.3317 43H84.0997ZM86.5917 39.528H90.0637L88.3277 34.684L86.5917 39.528ZM96.6866 40.816C96.2946 40.816 95.9352 40.7647 95.6086 40.662L94.9086 41.32C95.0112 41.3947 95.1372 41.46 95.2866 41.516C95.4452 41.5627 95.6692 41.6093 95.9586 41.656C96.2479 41.6933 96.6539 41.7353 97.1766 41.782C98.1099 41.8473 98.7772 42.062 99.1786 42.426C99.5799 42.79 99.7806 43.266 99.7806 43.854C99.7806 44.2553 99.6686 44.638 99.4446 45.002C99.2299 45.366 98.8939 45.6647 98.4366 45.898C97.9886 46.1313 97.4099 46.248 96.7006 46.248C96.0752 46.248 95.5199 46.164 95.0346 45.996C94.5492 45.8373 94.1712 45.59 93.9006 45.254C93.6299 44.9273 93.4946 44.512 93.4946 44.008C93.4946 43.7467 93.5646 43.462 93.7046 43.154C93.8446 42.8553 94.1059 42.5707 94.4886 42.3C94.2832 42.216 94.1059 42.1273 93.9566 42.034C93.8166 41.9313 93.6859 41.8193 93.5646 41.698V41.376L94.7546 40.2C94.2039 39.7333 93.9286 39.1173 93.9286 38.352C93.9286 37.8947 94.0359 37.4793 94.2506 37.106C94.4652 36.7327 94.7779 36.4387 95.1886 36.224C95.5992 36 96.0986 35.888 96.6866 35.888C97.0879 35.888 97.4519 35.944 97.7786 36.056H100.341V36.938L99.0386 36.994C99.3092 37.386 99.4446 37.8387 99.4446 38.352C99.4446 38.8093 99.3326 39.2247 99.1086 39.598C98.8939 39.9713 98.5812 40.27 98.1706 40.494C97.7692 40.7087 97.2746 40.816 96.6866 40.816ZM96.6866 39.85C97.1812 39.85 97.5732 39.724 97.8626 39.472C98.1612 39.2107 98.3106 38.8373 98.3106 38.352C98.3106 37.876 98.1612 37.512 97.8626 37.26C97.5732 36.9987 97.1812 36.868 96.6866 36.868C96.1826 36.868 95.7812 36.9987 95.4826 37.26C95.1932 37.512 95.0486 37.876 95.0486 38.352C95.0486 38.8373 95.1932 39.2107 95.4826 39.472C95.7812 39.724 96.1826 39.85 96.6866 39.85ZM94.6426 43.896C94.6426 44.3627 94.8386 44.708 95.2306 44.932C95.6226 45.1653 96.1126 45.282 96.7006 45.282C97.2792 45.282 97.7412 45.156 98.0866 44.904C98.4412 44.652 98.6186 44.316 98.6186 43.896C98.6186 43.5973 98.4972 43.336 98.2546 43.112C98.0119 42.8973 97.5639 42.7713 96.9106 42.734C96.3972 42.6967 95.9539 42.65 95.5806 42.594C95.1979 42.7993 94.9459 43.0187 94.8246 43.252C94.7032 43.4947 94.6426 43.7093 94.6426 43.896ZM104.516 43.168C103.853 43.168 103.265 43.0187 102.752 42.72C102.238 42.412 101.832 41.9873 101.534 41.446C101.244 40.9047 101.1 40.2653 101.1 39.528C101.1 38.8 101.244 38.1653 101.534 37.624C101.823 37.0733 102.224 36.6487 102.738 36.35C103.26 36.042 103.862 35.888 104.544 35.888C105.216 35.888 105.794 36.042 106.28 36.35C106.774 36.6487 107.152 37.0453 107.414 37.54C107.675 38.0347 107.806 38.5667 107.806 39.136C107.806 39.2387 107.801 39.3413 107.792 39.444C107.792 39.5467 107.792 39.6633 107.792 39.794H102.262C102.29 40.326 102.411 40.7693 102.626 41.124C102.85 41.4693 103.125 41.7307 103.452 41.908C103.788 42.0853 104.142 42.174 104.516 42.174C105.001 42.174 105.407 42.062 105.734 41.838C106.06 41.614 106.298 41.3107 106.448 40.928H107.61C107.423 41.572 107.064 42.1087 106.532 42.538C106.009 42.958 105.337 43.168 104.516 43.168ZM104.516 36.882C103.956 36.882 103.456 37.0547 103.018 37.4C102.588 37.736 102.341 38.2307 102.276 38.884H106.644C106.616 38.2587 106.401 37.7687 106 37.414C105.598 37.0593 105.104 36.882 104.516 36.882ZM109.364 43V36.056H110.428L110.498 37.302C110.722 36.8633 111.044 36.518 111.464 36.266C111.884 36.014 112.36 35.888 112.892 35.888C113.714 35.888 114.367 36.14 114.852 36.644C115.347 37.1387 115.594 37.904 115.594 38.94V43H114.418V39.066C114.418 37.6193 113.821 36.896 112.626 36.896C112.029 36.896 111.53 37.1153 111.128 37.554C110.736 37.9833 110.54 38.5993 110.54 39.402V43H109.364ZM120.568 43.168C119.905 43.168 119.308 43.0187 118.776 42.72C118.253 42.412 117.838 41.9873 117.53 41.446C117.231 40.8953 117.082 40.256 117.082 39.528C117.082 38.8 117.231 38.1653 117.53 37.624C117.838 37.0733 118.253 36.6487 118.776 36.35C119.308 36.042 119.905 35.888 120.568 35.888C121.389 35.888 122.08 36.1027 122.64 36.532C123.209 36.9613 123.569 37.5353 123.718 38.254H122.514C122.421 37.8247 122.192 37.4933 121.828 37.26C121.464 37.0173 121.039 36.896 120.554 36.896C120.162 36.896 119.793 36.994 119.448 37.19C119.103 37.386 118.823 37.68 118.608 38.072C118.393 38.464 118.286 38.9493 118.286 39.528C118.286 40.1067 118.393 40.592 118.608 40.984C118.823 41.376 119.103 41.6747 119.448 41.88C119.793 42.076 120.162 42.174 120.554 42.174C121.039 42.174 121.464 42.0573 121.828 41.824C122.192 41.5813 122.421 41.2407 122.514 40.802H123.718C123.578 41.502 123.223 42.0713 122.654 42.51C122.085 42.9487 121.389 43.168 120.568 43.168ZM126.117 46.08L127.839 42.328H127.433L124.675 36.056H125.949L128.245 41.46L130.681 36.056H131.899L127.349 46.08H126.117Z" fill="#160803"/>
<path d="M18.9731 0.672363V3.01367H13.248V24H6.07031V3.01367H0.311035V0.672363H18.9731ZM32.7988 17.6938L35.311 18.4287C35.049 22.4049 32.702 24.3931 28.27 24.3931C22.5278 24.3931 19.6567 21.5277 19.6567 15.7969C19.6567 13.0169 20.4201 10.7383 21.9468 8.96094C23.4735 7.18359 25.4274 6.29492 27.8086 6.29492C32.7874 6.29492 35.2769 9.50781 35.2769 15.9336H26.1851C26.1851 20.4453 27.3301 22.7012 29.6201 22.7012C31.762 22.7012 32.833 21.4251 32.833 18.873C32.833 18.5312 32.8216 18.1382 32.7988 17.6938ZM26.168 14.0024H29.8936C29.8936 9.99202 29.2897 7.98682 28.082 7.98682C26.9883 7.98682 26.373 9.47363 26.2363 12.4473L26.168 14.0024ZM50.1963 16.3096L52.8281 17.1128L52.8452 17.8135C52.8452 22.1885 50.4526 24.376 45.6675 24.376C39.9937 24.376 37.1567 21.4992 37.1567 15.7456C37.1567 12.8631 37.9827 10.5674 39.6348 8.8584C41.2868 7.13802 43.5028 6.27783 46.2827 6.27783C50.2817 6.27783 52.2812 8.08936 52.2812 11.7124L49.3589 13.1309L49.3931 11.4902C49.3931 9.0293 48.5671 7.79883 46.915 7.79883C44.7275 7.79883 43.6338 10.2142 43.6338 15.0449C43.6338 18.0299 43.8674 20.0807 44.3345 21.1973C44.8016 22.3024 45.6675 22.855 46.9321 22.855C49.245 22.855 50.4014 21.3568 50.4014 18.3604C50.4014 17.9388 50.333 17.2552 50.1963 16.3096ZM54.9985 24V0.672363C56.8442 0.672363 58.9235 0.552734 61.2363 0.313477V9.72998C62.5807 7.46273 64.4777 6.3291 66.9272 6.3291C69.8211 6.3291 71.2681 7.62793 71.2681 10.2256V24H65.0303V10.9092C65.0303 9.91797 64.6999 9.42236 64.0391 9.42236C63.3555 9.42236 62.7174 10.0604 62.125 11.3364C61.5326 12.6011 61.2363 13.9626 61.2363 15.4209V24H54.9985Z" fill="#FF7F18"/>
<path d="M84.188 11.4048H93.7925V24H91.6392L90.9043 22.3936C89.0244 23.7266 87.0363 24.3931 84.9399 24.3931C81.4878 24.3931 78.8047 23.362 76.8906 21.2998C74.988 19.2262 74.0366 16.3096 74.0366 12.5498C74.0366 8.89258 75.0449 5.93604 77.0615 3.68018C79.0895 1.41292 81.7384 0.279297 85.0083 0.279297C89.3149 0.279297 91.9354 2.47819 92.8696 6.87598L89.6909 8.32861V7.76465L89.6396 6.5C89.4232 3.75423 88.1528 2.38135 85.8286 2.38135C84.1196 2.38135 82.9518 3.11051 82.3252 4.56885C81.6986 6.02718 81.3853 8.74447 81.3853 12.7207C81.3853 16.4349 81.6359 18.9585 82.1372 20.2915C82.6499 21.6245 83.6183 22.291 85.0425 22.291C86.7173 22.291 87.5547 21.3568 87.5547 19.4883V13.7461H84.188V11.4048ZM109.19 17.6938L111.703 18.4287C111.441 22.4049 109.094 24.3931 104.662 24.3931C98.9194 24.3931 96.0483 21.5277 96.0483 15.7969C96.0483 13.0169 96.8117 10.7383 98.3384 8.96094C99.8651 7.18359 101.819 6.29492 104.2 6.29492C109.179 6.29492 111.668 9.50781 111.668 15.9336H102.577C102.577 20.4453 103.722 22.7012 106.012 22.7012C108.154 22.7012 109.225 21.4251 109.225 18.873C109.225 18.5312 109.213 18.1382 109.19 17.6938ZM102.56 14.0024H106.285C106.285 9.99202 105.681 7.98682 104.474 7.98682C103.38 7.98682 102.765 9.47363 102.628 12.4473L102.56 14.0024ZM130.638 24H124.4V11.3535C124.4 10.0661 124.042 9.42236 123.324 9.42236C122.595 9.42236 121.962 9.93506 121.427 10.9604C120.891 11.9744 120.624 13.1764 120.624 14.5664V24H114.386V6.73926C116.528 6.73926 118.607 6.59684 120.624 6.31201V9.54199C122.173 7.40007 124.064 6.3291 126.297 6.3291C129.191 6.3291 130.638 7.79883 130.638 10.7383V24Z" fill="#160803"/>
</svg>
