<svg width="129" height="45" viewBox="0 0 129 45" fill="none" xmlns="http://www.w3.org/2000/svg">
<path d="M22.4048 1.33838V3.41211H17.334V22H10.9766V3.41211H5.87549V1.33838H22.4048ZM34.6504 16.4146L36.8755 17.0654C36.6434 20.5872 34.5646 22.3481 30.6392 22.3481C25.5532 22.3481 23.0103 19.8102 23.0103 14.7344C23.0103 12.2721 23.6864 10.2539 25.0386 8.67969C26.3908 7.10547 28.1214 6.31836 30.2305 6.31836C34.6403 6.31836 36.8452 9.16406 36.8452 14.8555H28.7925C28.7925 18.8516 29.8066 20.8496 31.835 20.8496C33.7321 20.8496 34.6807 19.7194 34.6807 17.459C34.6807 17.1562 34.6706 16.8081 34.6504 16.4146ZM28.7773 13.145H32.0771C32.0771 9.59294 31.5423 7.81689 30.4727 7.81689C29.5039 7.81689 28.959 9.13379 28.8379 11.7676L28.7773 13.145ZM50.0596 15.1885L52.3906 15.8999L52.4058 16.5205C52.4058 20.3955 50.2866 22.333 46.0483 22.333C41.0229 22.333 38.5103 19.785 38.5103 14.689C38.5103 12.1359 39.2419 10.1025 40.7051 8.58887C42.1683 7.0651 44.131 6.30322 46.5933 6.30322C50.1353 6.30322 51.9062 7.90771 51.9062 11.1167L49.3179 12.373L49.3481 10.9199C49.3481 8.74023 48.6165 7.65039 47.1533 7.65039C45.2158 7.65039 44.2471 9.78971 44.2471 14.0684C44.2471 16.7122 44.4539 18.5286 44.8677 19.5176C45.2814 20.4964 46.0483 20.9858 47.1685 20.9858C49.217 20.9858 50.2412 19.6589 50.2412 17.0049C50.2412 16.6315 50.1807 16.026 50.0596 15.1885ZM54.313 22V1.33838C55.9478 1.33838 57.7894 1.23242 59.8379 1.02051V9.36084C61.0286 7.3527 62.7088 6.34863 64.8784 6.34863C67.4416 6.34863 68.7231 7.49902 68.7231 9.7998V22H63.1982V10.4053C63.1982 9.52734 62.9056 9.08838 62.3203 9.08838C61.7148 9.08838 61.1497 9.65348 60.625 10.7837C60.1003 11.9038 59.8379 13.1097 59.8379 14.4014V22H54.313Z" fill="url(#paint0_linear_5_2)"/>
<path d="M80.1665 10.8442H88.6733V22H86.7661L86.1152 20.5771C84.4502 21.7578 82.6893 22.3481 80.8325 22.3481C77.7749 22.3481 75.3984 21.4349 73.7031 19.6084C72.0179 17.7718 71.1753 15.1885 71.1753 11.8584C71.1753 8.61914 72.0684 6.00049 73.8545 4.00244C75.6507 1.9943 77.9969 0.990234 80.8931 0.990234C84.7075 0.990234 87.0285 2.93783 87.856 6.83301L85.0405 8.11963V7.62012L84.9951 6.5C84.8034 4.06803 83.6782 2.85205 81.6196 2.85205C80.106 2.85205 79.0716 3.49788 78.5166 4.78955C77.9616 6.08122 77.6841 8.48796 77.6841 12.0098C77.6841 15.2995 77.9061 17.5347 78.3501 18.7153C78.8042 19.896 79.6619 20.4863 80.9233 20.4863C82.4067 20.4863 83.1484 19.6589 83.1484 18.0039V12.918H80.1665V10.8442ZM102.312 16.4146L104.537 17.0654C104.305 20.5872 102.226 22.3481 98.3003 22.3481C93.2144 22.3481 90.6714 19.8102 90.6714 14.7344C90.6714 12.2721 91.3475 10.2539 92.6997 8.67969C94.0519 7.10547 95.7826 6.31836 97.8916 6.31836C102.301 6.31836 104.506 9.16406 104.506 14.8555H96.4536C96.4536 18.8516 97.4678 20.8496 99.4961 20.8496C101.393 20.8496 102.342 19.7194 102.342 17.459C102.342 17.1562 102.332 16.8081 102.312 16.4146ZM96.4385 13.145H99.7383C99.7383 9.59294 99.2035 7.81689 98.1338 7.81689C97.165 7.81689 96.6201 9.13379 96.499 11.7676L96.4385 13.145ZM121.308 22H115.783V10.7988C115.783 9.65853 115.465 9.08838 114.83 9.08838C114.184 9.08838 113.624 9.54248 113.149 10.4507C112.675 11.3488 112.438 12.4134 112.438 13.6445V22H106.913V6.71191C108.81 6.71191 110.652 6.58577 112.438 6.3335V9.19434C113.81 7.2972 115.486 6.34863 117.463 6.34863C120.027 6.34863 121.308 7.65039 121.308 10.2539V22Z" fill="#160803"/>
<path d="M11.036 41V31.2H14.046C15.7727 31.2 17.042 31.6387 17.854 32.516C18.6753 33.3933 19.086 34.5973 19.086 36.128C19.086 37.6307 18.6753 38.8207 17.854 39.698C17.042 40.566 15.7727 41 14.046 41H11.036ZM12.212 40.02H14.018C14.97 40.02 15.726 39.866 16.286 39.558C16.8553 39.2407 17.2613 38.7927 17.504 38.214C17.7467 37.626 17.868 36.9307 17.868 36.128C17.868 35.3067 17.7467 34.602 17.504 34.014C17.2613 33.426 16.8553 32.9733 16.286 32.656C15.726 32.3387 14.97 32.18 14.018 32.18H12.212V40.02ZM21.428 32.516C21.1947 32.516 20.9987 32.4413 20.84 32.292C20.6907 32.1333 20.616 31.9373 20.616 31.704C20.616 31.48 20.6907 31.2933 20.84 31.144C20.9987 30.9947 21.1947 30.92 21.428 30.92C21.652 30.92 21.8434 30.9947 22.002 31.144C22.1607 31.2933 22.24 31.48 22.24 31.704C22.24 31.9373 22.1607 32.1333 22.002 32.292C21.8434 32.4413 21.652 32.516 21.428 32.516ZM20.84 41V34.056H22.016V41H20.84ZM26.8077 38.816C26.4157 38.816 26.0563 38.7647 25.7297 38.662L25.0297 39.32C25.1323 39.3947 25.2583 39.46 25.4077 39.516C25.5663 39.5627 25.7903 39.6093 26.0797 39.656C26.369 39.6933 26.775 39.7353 27.2977 39.782C28.231 39.8473 28.8983 40.062 29.2997 40.426C29.701 40.79 29.9017 41.266 29.9017 41.854C29.9017 42.2553 29.7897 42.638 29.5657 43.002C29.351 43.366 29.015 43.6647 28.5577 43.898C28.1097 44.1313 27.531 44.248 26.8217 44.248C26.1963 44.248 25.641 44.164 25.1557 43.996C24.6703 43.8373 24.2923 43.59 24.0217 43.254C23.751 42.9273 23.6157 42.512 23.6157 42.008C23.6157 41.7467 23.6857 41.462 23.8257 41.154C23.9657 40.8553 24.227 40.5707 24.6097 40.3C24.4043 40.216 24.227 40.1273 24.0777 40.034C23.9377 39.9313 23.807 39.8193 23.6857 39.698V39.376L24.8757 38.2C24.325 37.7333 24.0497 37.1173 24.0497 36.352C24.0497 35.8947 24.157 35.4793 24.3717 35.106C24.5863 34.7327 24.899 34.4387 25.3097 34.224C25.7203 34 26.2197 33.888 26.8077 33.888C27.209 33.888 27.573 33.944 27.8997 34.056H30.4617V34.938L29.1597 34.994C29.4303 35.386 29.5657 35.8387 29.5657 36.352C29.5657 36.8093 29.4537 37.2247 29.2297 37.598C29.015 37.9713 28.7023 38.27 28.2917 38.494C27.8903 38.7087 27.3957 38.816 26.8077 38.816ZM26.8077 37.85C27.3023 37.85 27.6943 37.724 27.9837 37.472C28.2823 37.2107 28.4317 36.8373 28.4317 36.352C28.4317 35.876 28.2823 35.512 27.9837 35.26C27.6943 34.9987 27.3023 34.868 26.8077 34.868C26.3037 34.868 25.9023 34.9987 25.6037 35.26C25.3143 35.512 25.1697 35.876 25.1697 36.352C25.1697 36.8373 25.3143 37.2107 25.6037 37.472C25.9023 37.724 26.3037 37.85 26.8077 37.85ZM24.7637 41.896C24.7637 42.3627 24.9597 42.708 25.3517 42.932C25.7437 43.1653 26.2337 43.282 26.8217 43.282C27.4003 43.282 27.8623 43.156 28.2077 42.904C28.5623 42.652 28.7397 42.316 28.7397 41.896C28.7397 41.5973 28.6183 41.336 28.3757 41.112C28.133 40.8973 27.685 40.7713 27.0317 40.734C26.5183 40.6967 26.075 40.65 25.7017 40.594C25.319 40.7993 25.067 41.0187 24.9457 41.252C24.8243 41.4947 24.7637 41.7093 24.7637 41.896ZM32.5023 32.516C32.2689 32.516 32.0729 32.4413 31.9143 32.292C31.7649 32.1333 31.6903 31.9373 31.6903 31.704C31.6903 31.48 31.7649 31.2933 31.9143 31.144C32.0729 30.9947 32.2689 30.92 32.5023 30.92C32.7263 30.92 32.9176 30.9947 33.0763 31.144C33.2349 31.2933 33.3143 31.48 33.3143 31.704C33.3143 31.9373 33.2349 32.1333 33.0763 32.292C32.9176 32.4413 32.7263 32.516 32.5023 32.516ZM31.9143 41V34.056H33.0903V41H31.9143ZM37.8819 41C37.2472 41 36.7479 40.846 36.3839 40.538C36.0199 40.23 35.8379 39.6747 35.8379 38.872V35.05H34.6339V34.056H35.8379L35.9919 32.39H37.0139V34.056H39.0579V35.05H37.0139V38.872C37.0139 39.3107 37.1025 39.6093 37.2799 39.768C37.4572 39.9173 37.7699 39.992 38.2179 39.992H38.9459V41H37.8819ZM42.8619 41.168C42.2833 41.168 41.8026 41.07 41.4199 40.874C41.0373 40.678 40.7526 40.4167 40.5659 40.09C40.3793 39.7633 40.2859 39.4087 40.2859 39.026C40.2859 38.3167 40.5566 37.7707 41.0979 37.388C41.6393 37.0053 42.3766 36.814 43.3099 36.814H45.1859V36.73C45.1859 36.1233 45.0273 35.666 44.7099 35.358C44.3926 35.0407 43.9679 34.882 43.4359 34.882C42.9786 34.882 42.5819 34.9987 42.2459 35.232C41.9193 35.456 41.7139 35.7873 41.6299 36.226H40.4259C40.4726 35.722 40.6406 35.2973 40.9299 34.952C41.2286 34.6067 41.5973 34.3453 42.0359 34.168C42.4746 33.9813 42.9413 33.888 43.4359 33.888C44.4066 33.888 45.1346 34.1493 45.6199 34.672C46.1146 35.1853 46.3619 35.8713 46.3619 36.73V41H45.3119L45.2419 39.754C45.0459 40.146 44.7566 40.482 44.3739 40.762C44.0006 41.0327 43.4966 41.168 42.8619 41.168ZM43.0439 40.174C43.4919 40.174 43.8746 40.0573 44.1919 39.824C44.5186 39.5907 44.7659 39.2873 44.9339 38.914C45.1019 38.5407 45.1859 38.1487 45.1859 37.738V37.724H43.4079C42.7173 37.724 42.2273 37.8453 41.9379 38.088C41.6579 38.3213 41.5179 38.6153 41.5179 38.97C41.5179 39.334 41.6486 39.628 41.9099 39.852C42.1806 40.0667 42.5586 40.174 43.0439 40.174ZM48.1262 41V30.92H49.3022V41H48.1262ZM55.0048 41V31.2H56.3768L59.9048 38.032L63.4048 31.2H64.7908V41H63.6148V33.3L60.3388 39.6H59.4568L56.1808 33.314V41H55.0048ZM69.0983 41.168C68.5196 41.168 68.0389 41.07 67.6563 40.874C67.2736 40.678 66.9889 40.4167 66.8023 40.09C66.6156 39.7633 66.5223 39.4087 66.5223 39.026C66.5223 38.3167 66.7929 37.7707 67.3343 37.388C67.8756 37.0053 68.6129 36.814 69.5463 36.814H71.4223V36.73C71.4223 36.1233 71.2636 35.666 70.9463 35.358C70.6289 35.0407 70.2043 34.882 69.6723 34.882C69.2149 34.882 68.8183 34.9987 68.4823 35.232C68.1556 35.456 67.9503 35.7873 67.8663 36.226H66.6623C66.7089 35.722 66.8769 35.2973 67.1663 34.952C67.4649 34.6067 67.8336 34.3453 68.2723 34.168C68.7109 33.9813 69.1776 33.888 69.6723 33.888C70.6429 33.888 71.3709 34.1493 71.8563 34.672C72.3509 35.1853 72.5983 35.8713 72.5983 36.73V41H71.5483L71.4783 39.754C71.2823 40.146 70.9929 40.482 70.6103 40.762C70.2369 41.0327 69.7329 41.168 69.0983 41.168ZM69.2803 40.174C69.7283 40.174 70.1109 40.0573 70.4283 39.824C70.7549 39.5907 71.0023 39.2873 71.1703 38.914C71.3383 38.5407 71.4223 38.1487 71.4223 37.738V37.724H69.6443C68.9536 37.724 68.4636 37.8453 68.1743 38.088C67.8943 38.3213 67.7543 38.6153 67.7543 38.97C67.7543 39.334 67.8849 39.628 68.1463 39.852C68.4169 40.0667 68.7949 40.174 69.2803 40.174ZM74.3625 41V34.056H75.4265L75.5245 35.386C75.7392 34.9287 76.0658 34.5647 76.5045 34.294C76.9432 34.0233 77.4845 33.888 78.1285 33.888V35.12H77.8065C77.3958 35.12 77.0178 35.1947 76.6725 35.344C76.3272 35.484 76.0518 35.7267 75.8465 36.072C75.6412 36.4173 75.5385 36.8933 75.5385 37.5V41H74.3625ZM79.4484 41V30.92H80.6244V36.982L83.4664 34.056H84.9084L81.8284 37.192L85.3004 41H83.8024L80.6244 37.402V41H79.4484ZM89.1193 41.168C88.4566 41.168 87.8686 41.0187 87.3553 40.72C86.8419 40.412 86.4359 39.9873 86.1373 39.446C85.8479 38.9047 85.7033 38.2653 85.7033 37.528C85.7033 36.8 85.8479 36.1653 86.1373 35.624C86.4266 35.0733 86.8279 34.6487 87.3413 34.35C87.8639 34.042 88.4659 33.888 89.1472 33.888C89.8193 33.888 90.3979 34.042 90.8833 34.35C91.3779 34.6487 91.7559 35.0453 92.0173 35.54C92.2786 36.0347 92.4093 36.5667 92.4093 37.136C92.4093 37.2387 92.4046 37.3413 92.3953 37.444C92.3953 37.5467 92.3953 37.6633 92.3953 37.794H86.8653C86.8933 38.326 87.0146 38.7693 87.2293 39.124C87.4533 39.4693 87.7286 39.7307 88.0553 39.908C88.3913 40.0853 88.7459 40.174 89.1193 40.174C89.6046 40.174 90.0106 40.062 90.3373 39.838C90.6639 39.614 90.9019 39.3107 91.0513 38.928H92.2133C92.0266 39.572 91.6673 40.1087 91.1353 40.538C90.6126 40.958 89.9406 41.168 89.1193 41.168ZM89.1193 34.882C88.5593 34.882 88.0599 35.0547 87.6213 35.4C87.1919 35.736 86.9446 36.2307 86.8792 36.884H91.2473C91.2193 36.2587 91.0046 35.7687 90.6033 35.414C90.2019 35.0593 89.7073 34.882 89.1193 34.882ZM96.4795 41C95.8449 41 95.3455 40.846 94.9815 40.538C94.6175 40.23 94.4355 39.6747 94.4355 38.872V35.05H93.2315V34.056H94.4355L94.5895 32.39H95.6115V34.056H97.6555V35.05H95.6115V38.872C95.6115 39.3107 95.7002 39.6093 95.8775 39.768C96.0549 39.9173 96.3675 39.992 96.8155 39.992H97.5435V41H96.4795ZM99.8636 32.516C99.6303 32.516 99.4343 32.4413 99.2756 32.292C99.1263 32.1333 99.0516 31.9373 99.0516 31.704C99.0516 31.48 99.1263 31.2933 99.2756 31.144C99.4343 30.9947 99.6303 30.92 99.8636 30.92C100.088 30.92 100.279 30.9947 100.438 31.144C100.596 31.2933 100.676 31.48 100.676 31.704C100.676 31.9373 100.596 32.1333 100.438 32.292C100.279 32.4413 100.088 32.516 99.8636 32.516ZM99.2756 41V34.056H100.452V41H99.2756ZM102.499 41V34.056H103.563L103.633 35.302C103.857 34.8633 104.179 34.518 104.599 34.266C105.019 34.014 105.495 33.888 106.027 33.888C106.849 33.888 107.502 34.14 107.987 34.644C108.482 35.1387 108.729 35.904 108.729 36.94V41H107.553V37.066C107.553 35.6193 106.956 34.896 105.761 34.896C105.164 34.896 104.665 35.1153 104.263 35.554C103.871 35.9833 103.675 36.5993 103.675 37.402V41H102.499ZM113.255 38.816C112.863 38.816 112.504 38.7647 112.177 38.662L111.477 39.32C111.58 39.3947 111.706 39.46 111.855 39.516C112.014 39.5627 112.238 39.6093 112.527 39.656C112.816 39.6933 113.222 39.7353 113.745 39.782C114.678 39.8473 115.346 40.062 115.747 40.426C116.148 40.79 116.349 41.266 116.349 41.854C116.349 42.2553 116.237 42.638 116.013 43.002C115.798 43.366 115.462 43.6647 115.005 43.898C114.557 44.1313 113.978 44.248 113.269 44.248C112.644 44.248 112.088 44.164 111.603 43.996C111.118 43.8373 110.74 43.59 110.469 43.254C110.198 42.9273 110.063 42.512 110.063 42.008C110.063 41.7467 110.133 41.462 110.273 41.154C110.413 40.8553 110.674 40.5707 111.057 40.3C110.852 40.216 110.674 40.1273 110.525 40.034C110.385 39.9313 110.254 39.8193 110.133 39.698V39.376L111.323 38.2C110.772 37.7333 110.497 37.1173 110.497 36.352C110.497 35.8947 110.604 35.4793 110.819 35.106C111.034 34.7327 111.346 34.4387 111.757 34.224C112.168 34 112.667 33.888 113.255 33.888C113.656 33.888 114.02 33.944 114.347 34.056H116.909V34.938L115.607 34.994C115.878 35.386 116.013 35.8387 116.013 36.352C116.013 36.8093 115.901 37.2247 115.677 37.598C115.462 37.9713 115.15 38.27 114.739 38.494C114.338 38.7087 113.843 38.816 113.255 38.816ZM113.255 37.85C113.75 37.85 114.142 37.724 114.431 37.472C114.73 37.2107 114.879 36.8373 114.879 36.352C114.879 35.876 114.73 35.512 114.431 35.26C114.142 34.9987 113.75 34.868 113.255 34.868C112.751 34.868 112.35 34.9987 112.051 35.26C111.762 35.512 111.617 35.876 111.617 36.352C111.617 36.8373 111.762 37.2107 112.051 37.472C112.35 37.724 112.751 37.85 113.255 37.85ZM111.211 41.896C111.211 42.3627 111.407 42.708 111.799 42.932C112.191 43.1653 112.681 43.282 113.269 43.282C113.848 43.282 114.31 43.156 114.655 42.904C115.01 42.652 115.187 42.316 115.187 41.896C115.187 41.5973 115.066 41.336 114.823 41.112C114.58 40.8973 114.132 40.7713 113.479 40.734C112.966 40.6967 112.522 40.65 112.149 40.594C111.766 40.7993 111.514 41.0187 111.393 41.252C111.272 41.4947 111.211 41.7093 111.211 41.896Z" fill="#160803"/>
<defs>
<linearGradient id="paint0_linear_5_2" x1="1.0447e-07" y1="11.5652" x2="65.0609" y2="11.5652" gradientUnits="userSpaceOnUse">
<stop stop-color="#FFA811"/>
<stop offset="1" stop-color="#F33B00"/>
</linearGradient>
</defs>
</svg>
