<svg width="152" height="52" viewBox="0 0 152 52" fill="none" xmlns="http://www.w3.org/2000/svg">
<path d="M25.3481 48V36.8H28.7881C30.7614 36.8 32.2121 37.3013 33.1401 38.304C34.0787 39.3067 34.5481 40.6827 34.5481 42.432C34.5481 44.1493 34.0787 45.5093 33.1401 46.512C32.2121 47.504 30.7614 48 28.7881 48H25.3481ZM26.6921 46.88H28.7561C29.8441 46.88 30.7081 46.704 31.3481 46.352C31.9987 45.9893 32.4627 45.4773 32.7401 44.816C33.0174 44.144 33.1561 43.3493 33.1561 42.432C33.1561 41.4933 33.0174 40.688 32.7401 40.016C32.4627 39.344 31.9987 38.8267 31.3481 38.464C30.7081 38.1013 29.8441 37.92 28.7561 37.92H26.6921V46.88ZM37.2247 38.304C36.958 38.304 36.734 38.2187 36.5527 38.048C36.382 37.8667 36.2967 37.6427 36.2967 37.376C36.2967 37.12 36.382 36.9067 36.5527 36.736C36.734 36.5653 36.958 36.48 37.2247 36.48C37.4807 36.48 37.6994 36.5653 37.8807 36.736C38.062 36.9067 38.1527 37.12 38.1527 37.376C38.1527 37.6427 38.062 37.8667 37.8807 38.048C37.6994 38.2187 37.4807 38.304 37.2247 38.304ZM36.5527 48V40.064H37.8967V48H36.5527ZM43.3728 45.504C42.9248 45.504 42.5141 45.4453 42.1408 45.328L41.3408 46.08C41.4581 46.1653 41.6021 46.24 41.7728 46.304C41.9541 46.3573 42.2101 46.4107 42.5408 46.464C42.8715 46.5067 43.3355 46.5547 43.9328 46.608C44.9995 46.6827 45.7621 46.928 46.2208 47.344C46.6795 47.76 46.9088 48.304 46.9088 48.976C46.9088 49.4347 46.7808 49.872 46.5248 50.288C46.2795 50.704 45.8955 51.0453 45.3728 51.312C44.8608 51.5787 44.1995 51.712 43.3888 51.712C42.6741 51.712 42.0395 51.616 41.4848 51.424C40.9301 51.2427 40.4981 50.96 40.1888 50.576C39.8795 50.2027 39.7248 49.728 39.7248 49.152C39.7248 48.8533 39.8048 48.528 39.9648 48.176C40.1248 47.8347 40.4235 47.5093 40.8608 47.2C40.6261 47.104 40.4235 47.0027 40.2528 46.896C40.0928 46.7787 39.9435 46.6507 39.8048 46.512V46.144L41.1648 44.8C40.5355 44.2667 40.2208 43.5627 40.2208 42.688C40.2208 42.1653 40.3435 41.6907 40.5888 41.264C40.8341 40.8373 41.1915 40.5013 41.6608 40.256C42.1301 40 42.7008 39.872 43.3728 39.872C43.8315 39.872 44.2475 39.936 44.6208 40.064H47.5488V41.072L46.0608 41.136C46.3701 41.584 46.5248 42.1013 46.5248 42.688C46.5248 43.2107 46.3968 43.6853 46.1408 44.112C45.8955 44.5387 45.5381 44.88 45.0688 45.136C44.6101 45.3813 44.0448 45.504 43.3728 45.504ZM43.3728 44.4C43.9381 44.4 44.3861 44.256 44.7168 43.968C45.0581 43.6693 45.2288 43.2427 45.2288 42.688C45.2288 42.144 45.0581 41.728 44.7168 41.44C44.3861 41.1413 43.9381 40.992 43.3728 40.992C42.7968 40.992 42.3381 41.1413 41.9968 41.44C41.6661 41.728 41.5008 42.144 41.5008 42.688C41.5008 43.2427 41.6661 43.6693 41.9968 43.968C42.3381 44.256 42.7968 44.4 43.3728 44.4ZM41.0368 49.024C41.0368 49.5573 41.2608 49.952 41.7088 50.208C42.1568 50.4747 42.7168 50.608 43.3888 50.608C44.0501 50.608 44.5781 50.464 44.9728 50.176C45.3781 49.888 45.5808 49.504 45.5808 49.024C45.5808 48.6827 45.4421 48.384 45.1648 48.128C44.8875 47.8827 44.3755 47.7387 43.6288 47.696C43.0421 47.6533 42.5355 47.6 42.1088 47.536C41.6715 47.7707 41.3835 48.0213 41.2448 48.288C41.1061 48.5653 41.0368 48.8107 41.0368 49.024ZM49.8809 38.304C49.6143 38.304 49.3903 38.2187 49.2089 38.048C49.0383 37.8667 48.9529 37.6427 48.9529 37.376C48.9529 37.12 49.0383 36.9067 49.2089 36.736C49.3903 36.5653 49.6143 36.48 49.8809 36.48C50.1369 36.48 50.3556 36.5653 50.5369 36.736C50.7183 36.9067 50.8089 37.12 50.8089 37.376C50.8089 37.6427 50.7183 37.8667 50.5369 38.048C50.3556 38.2187 50.1369 38.304 49.8809 38.304ZM49.2089 48V40.064H50.5529V48H49.2089ZM56.0291 48C55.3037 48 54.7331 47.824 54.3171 47.472C53.9011 47.12 53.6931 46.4853 53.6931 45.568V41.2H52.3171V40.064H53.6931L53.8691 38.16H55.0371V40.064H57.3731V41.2H55.0371V45.568C55.0371 46.0693 55.1384 46.4107 55.3411 46.592C55.5437 46.7627 55.9011 46.848 56.4131 46.848H57.2451V48H56.0291ZM61.7206 48.192C61.0592 48.192 60.5099 48.08 60.0726 47.856C59.6352 47.632 59.3099 47.3333 59.0966 46.96C58.8832 46.5867 58.7766 46.1813 58.7766 45.744C58.7766 44.9333 59.0859 44.3093 59.7046 43.872C60.3232 43.4347 61.1659 43.216 62.2326 43.216H64.3766V43.12C64.3766 42.4267 64.1952 41.904 63.8326 41.552C63.4699 41.1893 62.9846 41.008 62.3766 41.008C61.8539 41.008 61.4006 41.1413 61.0166 41.408C60.6432 41.664 60.4086 42.0427 60.3126 42.544H58.9366C58.9899 41.968 59.1819 41.4827 59.5126 41.088C59.8539 40.6933 60.2752 40.3947 60.7766 40.192C61.2779 39.9787 61.8112 39.872 62.3766 39.872C63.4859 39.872 64.3179 40.1707 64.8726 40.768C65.4379 41.3547 65.7206 42.1387 65.7206 43.12V48H64.5206L64.4406 46.576C64.2166 47.024 63.8859 47.408 63.4486 47.728C63.0219 48.0373 62.4459 48.192 61.7206 48.192ZM61.9286 47.056C62.4406 47.056 62.8779 46.9227 63.2406 46.656C63.6139 46.3893 63.8966 46.0427 64.0886 45.616C64.2806 45.1893 64.3766 44.7413 64.3766 44.272V44.256H62.3446C61.5552 44.256 60.9952 44.3947 60.6646 44.672C60.3446 44.9387 60.1846 45.2747 60.1846 45.68C60.1846 46.096 60.3339 46.432 60.6326 46.688C60.9419 46.9333 61.3739 47.056 61.9286 47.056ZM67.7368 48V36.48H69.0808V48H67.7368ZM74.8941 48L79.0221 36.8H80.4461L84.5581 48H83.1341L82.1101 45.12H77.3421L76.3021 48H74.8941ZM77.7421 44.032H81.7101L79.7261 38.496L77.7421 44.032ZM89.2791 45.504C88.8311 45.504 88.4204 45.4453 88.0471 45.328L87.2471 46.08C87.3644 46.1653 87.5084 46.24 87.6791 46.304C87.8604 46.3573 88.1164 46.4107 88.4471 46.464C88.7777 46.5067 89.2417 46.5547 89.8391 46.608C90.9057 46.6827 91.6684 46.928 92.1271 47.344C92.5857 47.76 92.8151 48.304 92.8151 48.976C92.8151 49.4347 92.6871 49.872 92.4311 50.288C92.1857 50.704 91.8017 51.0453 91.2791 51.312C90.7671 51.5787 90.1057 51.712 89.2951 51.712C88.5804 51.712 87.9457 51.616 87.3911 51.424C86.8364 51.2427 86.4044 50.96 86.0951 50.576C85.7857 50.2027 85.6311 49.728 85.6311 49.152C85.6311 48.8533 85.7111 48.528 85.8711 48.176C86.0311 47.8347 86.3297 47.5093 86.7671 47.2C86.5324 47.104 86.3297 47.0027 86.1591 46.896C85.9991 46.7787 85.8497 46.6507 85.7111 46.512V46.144L87.0711 44.8C86.4417 44.2667 86.1271 43.5627 86.1271 42.688C86.1271 42.1653 86.2497 41.6907 86.4951 41.264C86.7404 40.8373 87.0977 40.5013 87.5671 40.256C88.0364 40 88.6071 39.872 89.2791 39.872C89.7377 39.872 90.1537 39.936 90.5271 40.064H93.4551V41.072L91.9671 41.136C92.2764 41.584 92.4311 42.1013 92.4311 42.688C92.4311 43.2107 92.3031 43.6853 92.0471 44.112C91.8017 44.5387 91.4444 44.88 90.9751 45.136C90.5164 45.3813 89.9511 45.504 89.2791 45.504ZM89.2791 44.4C89.8444 44.4 90.2924 44.256 90.6231 43.968C90.9644 43.6693 91.1351 43.2427 91.1351 42.688C91.1351 42.144 90.9644 41.728 90.6231 41.44C90.2924 41.1413 89.8444 40.992 89.2791 40.992C88.7031 40.992 88.2444 41.1413 87.9031 41.44C87.5724 41.728 87.4071 42.144 87.4071 42.688C87.4071 43.2427 87.5724 43.6693 87.9031 43.968C88.2444 44.256 88.7031 44.4 89.2791 44.4ZM86.9431 49.024C86.9431 49.5573 87.1671 49.952 87.6151 50.208C88.0631 50.4747 88.6231 50.608 89.2951 50.608C89.9564 50.608 90.4844 50.464 90.8791 50.176C91.2844 49.888 91.4871 49.504 91.4871 49.024C91.4871 48.6827 91.3484 48.384 91.0711 48.128C90.7937 47.8827 90.2817 47.7387 89.5351 47.696C88.9484 47.6533 88.4417 47.6 88.0151 47.536C87.5777 47.7707 87.2897 48.0213 87.1511 48.288C87.0124 48.5653 86.9431 48.8107 86.9431 49.024ZM98.2267 48.192C97.4694 48.192 96.7974 48.0213 96.2107 47.68C95.624 47.328 95.16 46.8427 94.8187 46.224C94.488 45.6053 94.3227 44.8747 94.3227 44.032C94.3227 43.2 94.488 42.4747 94.8187 41.856C95.1494 41.2267 95.608 40.7413 96.1947 40.4C96.792 40.048 97.48 39.872 98.2587 39.872C99.0267 39.872 99.688 40.048 100.243 40.4C100.808 40.7413 101.24 41.1947 101.539 41.76C101.837 42.3253 101.987 42.9333 101.987 43.584C101.987 43.7013 101.981 43.8187 101.971 43.936C101.971 44.0533 101.971 44.1867 101.971 44.336H95.6507C95.6827 44.944 95.8214 45.4507 96.0667 45.856C96.3227 46.2507 96.6374 46.5493 97.0107 46.752C97.3947 46.9547 97.8 47.056 98.2267 47.056C98.7814 47.056 99.2454 46.928 99.6187 46.672C99.992 46.416 100.264 46.0693 100.435 45.632H101.763C101.549 46.368 101.139 46.9813 100.531 47.472C99.9334 47.952 99.1654 48.192 98.2267 48.192ZM98.2267 41.008C97.5867 41.008 97.016 41.2053 96.5147 41.6C96.024 41.984 95.7414 42.5493 95.6667 43.296H100.659C100.627 42.5813 100.381 42.0213 99.9227 41.616C99.464 41.2107 98.8987 41.008 98.2267 41.008ZM103.768 48V40.064H104.984L105.064 41.488C105.32 40.9867 105.688 40.592 106.168 40.304C106.648 40.016 107.192 39.872 107.8 39.872C108.739 39.872 109.485 40.16 110.04 40.736C110.605 41.3013 110.888 42.176 110.888 43.36V48H109.544V43.504C109.544 41.8507 108.861 41.024 107.496 41.024C106.813 41.024 106.243 41.2747 105.784 41.776C105.336 42.2667 105.112 42.9707 105.112 43.888V48H103.768ZM116.572 48.192C115.815 48.192 115.132 48.0213 114.524 47.68C113.927 47.328 113.452 46.8427 113.1 46.224C112.759 45.5947 112.588 44.864 112.588 44.032C112.588 43.2 112.759 42.4747 113.1 41.856C113.452 41.2267 113.927 40.7413 114.524 40.4C115.132 40.048 115.815 39.872 116.572 39.872C117.511 39.872 118.3 40.1173 118.94 40.608C119.591 41.0987 120.002 41.7547 120.172 42.576H118.796C118.69 42.0853 118.428 41.7067 118.012 41.44C117.596 41.1627 117.111 41.024 116.556 41.024C116.108 41.024 115.687 41.136 115.292 41.36C114.898 41.584 114.578 41.92 114.332 42.368C114.087 42.816 113.964 43.3707 113.964 44.032C113.964 44.6933 114.087 45.248 114.332 45.696C114.578 46.144 114.898 46.4853 115.292 46.72C115.687 46.944 116.108 47.056 116.556 47.056C117.111 47.056 117.596 46.9227 118.012 46.656C118.428 46.3787 118.69 45.9893 118.796 45.488H120.172C120.012 46.288 119.607 46.9387 118.956 47.44C118.306 47.9413 117.511 48.192 116.572 48.192ZM122.913 51.52L124.881 47.232H124.417L121.265 40.064H122.721L125.345 46.24L128.129 40.064H129.521L124.321 51.52H122.913Z" fill="#160803"/>
<path d="M22.1836 1.33984V4.01562H15.6406V28H7.4375V4.01562H0.855469V1.33984H22.1836ZM37.9844 20.793L40.8555 21.6328C40.556 26.1771 37.8737 28.4492 32.8086 28.4492C26.2461 28.4492 22.9648 25.1745 22.9648 18.625C22.9648 15.4479 23.8372 12.8438 25.582 10.8125C27.3268 8.78125 29.5599 7.76562 32.2812 7.76562C37.9714 7.76562 40.8164 11.4375 40.8164 18.7812H30.4258C30.4258 23.9375 31.7344 26.5156 34.3516 26.5156C36.7995 26.5156 38.0234 25.0573 38.0234 22.1406C38.0234 21.75 38.0104 21.3008 37.9844 20.793ZM30.4062 16.5742H34.6641C34.6641 11.9909 33.974 9.69922 32.5938 9.69922C31.3438 9.69922 30.6406 11.3984 30.4844 14.7969L30.4062 16.5742ZM57.8672 19.2109L60.875 20.1289L60.8945 20.9297C60.8945 25.9297 58.1602 28.4297 52.6914 28.4297C46.207 28.4297 42.9648 25.1419 42.9648 18.5664C42.9648 15.2721 43.9089 12.6484 45.7969 10.6953C47.6849 8.72917 50.2174 7.74609 53.3945 7.74609C57.9648 7.74609 60.25 9.81641 60.25 13.957L56.9102 15.5781L56.9492 13.7031C56.9492 10.8906 56.0052 9.48438 54.1172 9.48438C51.6172 9.48438 50.3672 12.2448 50.3672 17.7656C50.3672 21.1771 50.6341 23.5208 51.168 24.7969C51.7018 26.0599 52.6914 26.6914 54.1367 26.6914C56.7799 26.6914 58.1016 24.9792 58.1016 21.5547C58.1016 21.0729 58.0234 20.2917 57.8672 19.2109ZM63.3555 28V1.33984C65.4648 1.33984 67.8411 1.20312 70.4844 0.929688V11.6914C72.0208 9.10026 74.1888 7.80469 76.9883 7.80469C80.2956 7.80469 81.9492 9.28906 81.9492 12.2578V28H74.8203V13.0391C74.8203 11.9062 74.4427 11.3398 73.6875 11.3398C72.9062 11.3398 72.1771 12.069 71.5 13.5273C70.8229 14.9727 70.4844 16.5286 70.4844 18.1953V28H63.3555Z" fill="#160803"/>
<path d="M96.7148 13.6055H107.691V28H105.23L104.391 26.1641C102.242 27.6875 99.9701 28.4492 97.5742 28.4492C93.6289 28.4492 90.5625 27.2708 88.375 24.9141C86.2005 22.5443 85.1133 19.2109 85.1133 14.9141C85.1133 10.7344 86.2656 7.35547 88.5703 4.77734C90.888 2.1862 93.9154 0.890625 97.6523 0.890625C102.574 0.890625 105.569 3.40365 106.637 8.42969L103.004 10.0898V9.44531L102.945 8C102.698 4.86198 101.246 3.29297 98.5898 3.29297C96.6367 3.29297 95.3021 4.1263 94.5859 5.79297C93.8698 7.45964 93.5117 10.5651 93.5117 15.1094C93.5117 19.3542 93.7982 22.2383 94.3711 23.7617C94.957 25.2852 96.0638 26.0469 97.6914 26.0469C99.6055 26.0469 100.562 24.9792 100.562 22.8438V16.2812H96.7148V13.6055ZM125.289 20.793L128.16 21.6328C127.861 26.1771 125.178 28.4492 120.113 28.4492C113.551 28.4492 110.27 25.1745 110.27 18.625C110.27 15.4479 111.142 12.8438 112.887 10.8125C114.632 8.78125 116.865 7.76562 119.586 7.76562C125.276 7.76562 128.121 11.4375 128.121 18.7812H117.73C117.73 23.9375 119.039 26.5156 121.656 26.5156C124.104 26.5156 125.328 25.0573 125.328 22.1406C125.328 21.75 125.315 21.3008 125.289 20.793ZM117.711 16.5742H121.969C121.969 11.9909 121.279 9.69922 119.898 9.69922C118.648 9.69922 117.945 11.3984 117.789 14.7969L117.711 16.5742ZM149.801 28H142.672V13.5469C142.672 12.0755 142.262 11.3398 141.441 11.3398C140.608 11.3398 139.885 11.9258 139.273 13.0977C138.661 14.2565 138.355 15.6302 138.355 17.2188V28H131.227V8.27344C133.674 8.27344 136.051 8.11068 138.355 7.78516V11.4766C140.126 9.02865 142.288 7.80469 144.84 7.80469C148.147 7.80469 149.801 9.48438 149.801 12.8438V28Z" fill="url(#paint0_linear_1_2)"/>
<defs>
<linearGradient id="paint0_linear_1_2" x1="81.0758" y1="15" x2="152" y2="15" gradientUnits="userSpaceOnUse">
<stop stop-color="#F86CA7"/>
<stop offset="1" stop-color="#FF7F18"/>
</linearGradient>
</defs>
</svg>
