<svg width="402" height="60" viewBox="0 0 402 60" fill="none" xmlns="http://www.w3.org/2000/svg">
<path d="M42.0498 30.65L60 25.4207L41.9865 25.7752L56.2394 14.751L38.9814 21.9387L47.9755 5.55008L35.4868 18.5369L37.7701 0.662634L30.65 17.9502L25.4207 0L25.7752 18.0177L14.751 3.76477L21.9387 21.0228L5.55008 12.0245L18.5369 24.5132L0.662634 22.2341L17.9502 29.3542L0 34.5793L18.0177 34.2248L3.76477 45.2532L21.0228 38.0656L12.0245 54.4541L24.5132 41.4631L22.2341 59.3374L29.3542 42.0498L34.5793 60L34.229 41.9865L45.2532 56.2394L38.0656 38.9814L54.4541 47.9755L41.4631 35.4868L59.3374 37.7701L42.0498 30.65Z" fill="#000C1F"/>
<path d="M384.05 30.65L402 25.4207L383.986 25.7752L398.239 14.751L380.981 21.9387L389.976 5.55008L377.487 18.5369L379.77 0.662634L372.65 17.9502L367.421 0L367.775 18.0177L356.751 3.76477L363.939 21.0228L347.55 12.0245L360.537 24.5132L342.663 22.2341L359.95 29.3542L342 34.5793L360.018 34.2248L345.765 45.2532L363.023 38.0656L354.024 54.4541L366.513 41.4631L364.234 59.3374L371.354 42.0498L376.579 60L376.229 41.9865L387.253 56.2394L380.066 38.9814L396.454 47.9755L383.463 35.4868L401.337 37.7701L384.05 30.65Z" fill="#000C1F"/>
<path d="M131.523 10.0098V14.0234H121.709V50H109.404V14.0234H99.5312V10.0098H131.523ZM134.307 36.8164L139.668 36.5234C139.219 38.0664 138.965 39.4434 138.906 40.6543C138.711 44.9316 140.967 47.0703 145.674 47.0703C150.303 47.0703 152.617 44.4629 152.617 39.248C152.617 33.9746 149.854 31.3379 144.326 31.3379L141.162 31.3965V26.6797L143.447 26.709C149.268 26.709 152.178 24.248 152.178 19.3262C152.178 15.0488 150.117 12.9102 145.996 12.9102C141.934 12.9102 139.902 14.7949 139.902 18.5645C139.902 19.4824 140.02 20.5469 140.254 21.7578L134.893 20.6445C134.893 13.0859 139.287 9.30664 148.076 9.30664C158.213 9.30664 163.281 12.7637 163.281 19.6777C163.281 24.209 160.42 27.2852 154.697 28.9062C161.182 30.3906 164.424 33.75 164.424 38.9844C164.424 46.7773 159.023 50.6738 148.223 50.6738C138.613 50.6738 133.809 47.4512 133.809 41.0059C133.809 39.7949 133.975 38.3984 134.307 36.8164ZM197.793 33.9453L202.744 35.2344C202.822 36.25 202.861 37.1289 202.861 37.8711C202.861 41.7578 201.455 44.8633 198.643 47.1875C195.83 49.5117 192.061 50.6738 187.334 50.6738C175.479 50.6738 169.551 44.0039 169.551 30.6641C169.551 24.3359 171.279 19.209 174.736 15.2832C178.193 11.3379 182.695 9.36523 188.242 9.36523C196.895 9.36523 201.221 13.5254 201.221 21.8457L196.24 24.1309C196.299 22.959 196.328 22.0508 196.328 21.4062C196.328 15.5078 193.965 12.5586 189.238 12.5586C184.238 12.5586 181.738 18.8184 181.738 31.3379C181.738 42.0996 184.531 47.4805 190.117 47.4805C192.422 47.4805 194.336 46.5625 195.859 44.7266C197.402 42.8906 198.174 40.5957 198.174 37.8418C198.174 36.9629 198.047 35.6641 197.793 33.9453Z" fill="url(#paint0_linear_1_5)"/>
<path d="M218.857 30.1074V50H207.256V10.0098H218.857V26.0938H228.32V10.0098H239.922V50H228.32V30.1074H218.857ZM258.467 10.0098V50H246.865V10.0098H258.467ZM281.758 9.30664C293.398 9.30664 299.219 16.2012 299.219 29.9902C299.219 43.7793 293.291 50.6738 281.436 50.6738C269.58 50.6738 263.652 43.623 263.652 29.5215C263.652 16.0449 269.688 9.30664 281.758 9.30664ZM281.436 12.5C279.248 12.5 277.764 13.7109 276.982 16.1328C276.221 18.5352 275.84 23.1543 275.84 29.9902C275.84 36.8262 276.221 41.4551 276.982 43.877C277.764 46.2793 279.248 47.4805 281.436 47.4805C283.623 47.4805 285.098 46.2793 285.859 43.877C286.641 41.4551 287.031 36.8262 287.031 29.9902C287.031 23.1738 286.641 18.5547 285.859 16.1328C285.098 13.7109 283.623 12.5 281.436 12.5Z" fill="#000C1F"/>
<defs>
<linearGradient id="paint0_linear_1_5" x1="111.477" y1="30" x2="201" y2="30" gradientUnits="userSpaceOnUse">
<stop stop-color="#FF7222"/>
<stop offset="1" stop-color="#FF166A"/>
</linearGradient>
</defs>
</svg>
