<?xml version="1.0" encoding="UTF-8"?>
<!DOCTYPE svg PUBLIC "-//W3C//DTD SVG 1.1//EN" "http://www.w3.org/Graphics/SVG/1.1/DTD/svg11.dtd">
<!-- Creator: CorelDRAW 2021 (64-Bit) -->
<svg xmlns="http://www.w3.org/2000/svg" xml:space="preserve" width="50.324mm" height="50.324mm" version="1.1" style="shape-rendering:geometricPrecision; text-rendering:geometricPrecision; image-rendering:optimizeQuality; fill-rule:evenodd; clip-rule:evenodd"
viewBox="0 0 5018.18 5018.18"
 xmlns:xlink="http://www.w3.org/1999/xlink"
 xmlns:xodm="http://www.corel.com/coreldraw/odm/2003">
 <defs>
  <style type="text/css">
   <![CDATA[
    .fil0 {fill:none}
    .fil3 {fill:#FEFEFE}
    .fil5 {fill:#146DBD}
    .fil7 {fill:#34A54D}
    .fil2 {fill:#EC8A29}
    .fil4 {fill:#EC8A29}
    .fil1 {fill:#EE0390}
    .fil6 {fill:#EF1B17}
    .fil8 {fill:#FDC705}
    .fil9 {fill:#FEFEFE;fill-rule:nonzero}
    .fil10 {fill:#373435;fill-rule:nonzero}
    .fil11 {fill:#373435;fill-rule:nonzero}
   ]]>
  </style>
    <clipPath id="id0">
     <path d="M2509.09 491.29l1521.07 726.22 0 1374.33 0 878.19 -1521.07 878.18 -1521.07 -878.18 0 -878.19 0 -1374.33 1521.07 -726.22z"/>
    </clipPath>
 </defs>
 <g id="Layer_x0020_1">
  <metadata id="CorelCorpID_0Corel-Layer"/>
  <rect class="fil0" width="5018.18" height="5018.18"/>
  <g id="_2133824252560">
   <polygon class="fil1" points="2509.09,491.29 4030.16,1217.51 4030.16,2591.84 4030.16,3470.03 2509.09,4348.21 988.02,3470.03 988.02,2591.84 988.02,1217.51 "/>
   <g style="clip-path:url(#id0)">
    <g>
     <path id="_1" class="fil2" d="M-33.57 2110.52c130.51,0 1021.6,221.86 1021.6,221.86l1888.77 639.5 652.55 -443.73 835.26 -378.48 835.26 2035.95c0,0 -1735.79,1044.08 -1814.09,1044.08 -78.3,0 -3445.46,-430.68 -3445.46,-430.68l-261.02 -1474.76 287.13 -1213.74z"/>
    </g>
   </g>
   <polygon class="fil0" points="2509.09,491.29 4030.16,1217.51 4030.16,2591.84 4030.16,3470.03 2509.09,4348.21 988.02,3470.03 988.02,2591.84 988.02,1217.51 "/>
   <polygon class="fil3" points="2509.09,967.7 1417.94,1488.65 1417.94,3221.81 2509.09,3851.78 3600.24,3221.81 3600.24,1488.65 "/>
   <rect class="fil4" x="368.31" y="2787.43" width="4281.54" height="610.98" rx="206.13" ry="206.13"/>
   <g>
    <path class="fil5" d="M2129.27 1438.97c0,0 404.99,181.18 379.82,790.53 0,0 139.64,-666.65 457.51,-843.25 0,0 -258.26,-8.11 -418.67,286.97 0,0 -230.32,-300.21 -418.66,-234.25z"/>
    <path class="fil6" d="M2997.51 1425.99c0,0 -419.42,388.51 -419.42,935.96 0,0 362.02,-441.49 710.81,-507.71 0,0 -207.95,-97.13 -447.96,94.14 0,0 -24.43,-182.44 156.58,-522.39z"/>
    <path class="fil7" d="M1792.23 1916.04c0,0 454.74,-52.98 662.24,432.66 0,0 92.72,-547.46 -309.04,-847.67 0,0 124.22,237.66 110.37,397.34 0,0 -375.27,-110.37 -463.57,17.66z"/>
    <circle class="fil7" cx="2120.95" cy="1758.58" r="69.85"/>
    <circle class="fil5" cx="2537.95" cy="1445.75" r="82.9"/>
    <circle class="fil6" cx="2972.93" cy="1759.25" r="69.85"/>
   </g>
   <g>
    <path class="fil8" d="M1486.85 1593.66c0,0 -120.96,1032.89 1022.24,1193.77 0,0 -2.22,-500.58 -668.07,-734.21 0,0 216.1,140.17 262.83,292.03 0,0 -256.98,128.5 -617,-751.59z"/>
    <path class="fil8" d="M3531.33 1593.66c0,0 120.96,1032.89 -1022.24,1193.77 0,0 2.22,-500.58 668.07,-734.21 0,0 -216.1,140.17 -262.83,292.03 0,0 256.98,128.5 617,-751.59z"/>
   </g>
   <path class="fil9" d="M740.22 3053.5c0,-71.37 0,-84.52 0.94,-99.54 0.95,-16.43 4.7,-24.42 17.38,-26.76 5.63,-0.95 8.45,-1.42 13.14,-1.42 3.76,0 6.57,-0.94 6.57,-4.22 0,-3.29 -3.28,-4.23 -9.86,-4.23 -15.96,0 -45.54,1.41 -56.81,1.41 -11.27,0 -40.85,-1.41 -65.74,-1.41 -7.04,0 -10.32,0.94 -10.32,4.23 0,3.28 2.81,4.22 7.98,4.22 6.57,0 14.56,0.47 18.31,1.42 15.5,3.28 19.26,10.8 20.19,26.76 0.94,15.02 0.94,28.17 0.94,99.54l0 82.65c0,43.2 0,80.29 -2.34,100.01 -1.87,13.62 -4.23,23.95 -13.62,25.83 -4.22,0.95 -9.85,1.88 -16.9,1.88 -5.63,0 -7.51,1.41 -7.51,3.75 0,3.29 3.28,4.7 9.39,4.7 18.78,0 48.36,-1.41 59.16,-1.41 11.74,0 41.31,1.41 67.61,1.41 5.17,0 8.92,-1.41 8.92,-4.7 0,-2.34 -2.34,-3.75 -6.1,-3.75 -6.1,0 -16.43,-0.94 -23,-1.88 -11.75,-1.87 -15.96,-12.21 -16.91,-25.35 -1.41,-20.19 -1.41,-57.29 -1.41,-100.49l0 -42.73 2.35 0 5.17 7.04c9.85,13.62 102.36,122.08 123.02,140.39 20.18,17.85 32.87,28.18 58.23,30.52 9.85,0.94 18.31,0.94 32.4,0.94l40.84 0c8.92,0 11.27,-1.41 11.27,-4.7 0,-2.81 -2.81,-3.75 -6.1,-3.75 -5.63,0 -15.03,-1.42 -29.11,-7.05 -25.36,-9.85 -46.49,-30.98 -67.15,-50.71 -18.31,-17.37 -110.34,-116.45 -127.25,-138.52 15.96,-16.9 86.87,-87.33 101.42,-101.42 20.19,-19.72 36.16,-29.59 50.72,-35.22 8.92,-3.28 20.66,-5.17 27.23,-5.17 4.7,0 7.04,-0.94 7.04,-4.22 0,-3.29 -3.28,-4.23 -7.98,-4.23 -14.56,0 -40.39,1.41 -54.94,1.41 -12.67,0 -38.5,-1.41 -48.36,-1.41 -5.17,0 -7.51,0.94 -7.51,4.23 0,2.81 1.87,3.75 6.1,4.69 4.7,0.95 6.57,4.23 6.57,9.39 0,7.99 -10.33,19.72 -23.47,35.22 -13.62,15.96 -82.17,85.93 -98.13,103.3l-2.35 0 0 -20.66zm303.33 82.65c0,43.2 0,80.29 -2.34,100.01 -1.87,13.62 -4.23,23.95 -13.62,25.83 -4.22,0.95 -9.85,1.88 -16.9,1.88 -5.63,0 -7.51,1.41 -7.51,3.75 0,3.29 3.28,4.7 9.39,4.7 9.38,0 21.6,-0.94 32.4,-0.94 11.27,-0.47 21.6,-0.47 26.76,-0.47 14.08,0 28.64,0.47 48.83,1.41 20.19,0.47 46.01,1.42 81.23,1.42 17.84,0 22.07,0 25.36,-12.22 2.34,-9.39 6.1,-41.32 6.1,-52.12 0,-4.69 0,-8.45 -3.76,-8.45 -3.28,0 -4.23,1.87 -5.17,7.04 -3.28,19.26 -8.91,29.12 -21.13,34.75 -12.21,5.63 -31.93,5.63 -44.13,5.63 -47.89,0 -55.4,-7.05 -56.34,-39.45 -0.48,-13.61 0,-56.81 0,-72.77l0 -37.09c0,-2.82 0.47,-4.7 2.81,-4.7 11.27,0 57.76,0.47 66.68,1.41 17.37,1.88 23.94,8.92 26.29,18.32 1.42,6.1 1.42,12.21 1.88,16.9 0,2.34 0.94,4.23 4.23,4.23 4.22,0 4.22,-5.17 4.22,-8.92 0,-3.29 1.42,-22.07 1.88,-31.46 1.87,-23.94 3.75,-31.46 3.75,-34.27 0,-2.82 -1.41,-3.76 -3.28,-3.76 -2.35,0 -4.23,2.34 -7.52,6.1 -4.22,4.7 -11.27,6.1 -22.54,7.04 -10.8,0.95 -64.8,0.95 -75.13,0.95 -2.81,0 -3.28,-1.88 -3.28,-5.17l0 -118.8c0,-3.28 0.94,-4.7 3.28,-4.7 9.39,0 58.69,0.95 66.68,1.88 23.47,2.81 28.17,8.45 31.46,16.9 2.34,5.63 2.81,13.61 2.81,16.9 0,4.23 0.94,6.57 4.23,6.57 3.28,0 4.23,-2.81 4.7,-5.17 0.94,-5.63 1.87,-26.3 2.34,-30.98 1.41,-21.61 3.76,-27.24 3.76,-30.52 0,-2.35 -0.47,-4.23 -2.82,-4.23 -2.34,0 -5.17,1.41 -7.51,1.87 -3.76,0.95 -11.27,1.88 -20.19,2.82 -8.92,0.47 -102.36,0.47 -117.39,0.47 -6.57,0 -17.37,-0.47 -29.58,-0.94 -11.75,0 -25.36,-0.47 -38.04,-0.47 -7.04,0 -10.32,0.94 -10.32,4.23 0,3.28 2.81,4.22 7.98,4.22 6.57,0 14.56,0.47 18.31,1.42 15.5,3.28 19.26,10.8 20.19,26.76 0.94,15.02 0.94,28.17 0.94,99.54l0 82.65zm354.98 53.06c0,7.51 0,27.23 -1.41,46.95 -0.94,13.62 -5.17,23.95 -14.56,25.83 -4.22,0.95 -9.86,1.88 -16.43,1.88 -5.17,0 -7.51,1.41 -7.51,3.75 0,3.76 3.76,4.7 10.33,4.7 17.37,0 46.96,-1.41 58.69,-1.41 12.67,0 42.26,1.41 71.84,1.41 6.1,0 9.86,-1.41 9.86,-4.7 0,-2.34 -2.34,-3.75 -7.51,-3.75 -6.58,0 -16.91,-0.94 -23.48,-1.88 -14.08,-1.87 -18.31,-12.21 -19.25,-25.83 -1.42,-19.71 -1.42,-39.44 -1.42,-46.95l0 -38.51c0,-15.49 0,-30.04 7.05,-46.95 8.45,-20.19 74.19,-130.54 89.69,-149.32 10.32,-12.68 15.49,-18.32 25.35,-23.01 7.05,-3.75 15.96,-5.63 20.66,-5.63 5.17,0 8.92,-1.41 8.92,-4.7 0,-2.81 -3.29,-3.75 -8.46,-3.75 -8.91,0 -39.91,1.41 -50.24,1.41 -13.62,0 -28.65,-1.41 -44.13,-1.41 -5.64,0 -7.99,0.94 -7.99,4.23 0,2.81 4.23,3.75 8.46,4.69 7.98,1.88 9.85,7.05 9.85,11.75 0,6.1 -1.87,14.08 -6.57,24.41 -6.57,14.56 -65.73,117.86 -70.43,129.12 -7.51,-13.14 -73.25,-126.3 -79.82,-140.39 -3.29,-6.57 -5.63,-12.21 -5.63,-15.96 0,-3.76 2.34,-7.51 6.57,-8.46 7.05,-1.87 10.33,-2.34 10.33,-5.16 0,-2.82 -2.34,-4.23 -7.04,-4.23 -21.13,0 -40.39,1.41 -50.25,1.41 -15.49,0 -50.71,-1.41 -59.16,-1.41 -5.63,0 -8.91,1.41 -8.91,4.23 0,3.28 3.28,4.22 7.04,4.22 5.63,0 13.62,2.82 19.72,6.1 8.91,5.17 20.66,16.91 32.4,34.28 16.43,24.41 79.36,127.72 82.64,135.23 6.1,13.62 10.8,23.95 10.8,49.3l0 38.51zm241.82 -67.15c0,68.09 17.84,102.83 41.78,124.43 34.28,30.99 79.36,32.4 104.24,32.4 30.52,0 64.33,-5.16 97.66,-33.8 39.45,-33.8 44.61,-89.22 44.61,-141.33l0 -50.25c0,-71.37 0,-84.52 0.94,-99.54 0.94,-16.43 4.7,-24.42 17.37,-26.76 5.63,-0.95 8.46,-1.42 13.62,-1.42 5.63,0 8.45,-0.94 8.45,-4.22 0,-3.29 -3.28,-4.23 -9.86,-4.23 -18.31,0 -47.89,1.41 -53.53,1.41 -0.47,0 -30.04,-1.41 -54,-1.41 -6.57,0 -9.86,0.94 -9.86,4.23 0,3.28 2.82,4.22 7.99,4.22 5.17,0 13.14,0.47 16.9,1.42 15.5,3.28 19.26,10.8 20.19,26.76 0.94,15.02 0.94,28.17 0.94,99.54l0 58.69c0,48.36 -1.41,90.62 -27.23,116.45 -18.79,18.79 -44.13,25.36 -64.8,25.36 -15.96,0 -37.56,-1.88 -58.69,-19.26 -23.01,-18.78 -36.63,-47.43 -36.63,-115.5l0 -65.74c0,-71.37 0,-84.52 0.94,-99.54 0.94,-16.43 4.7,-24.42 17.37,-26.76 5.63,-0.95 8.46,-1.42 13.62,-1.42 4.7,0 7.51,-0.94 7.51,-4.22 0,-3.29 -3.28,-4.23 -10.33,-4.23 -16.9,0 -46.48,1.41 -57.75,1.41 -14.09,0 -43.68,-1.41 -68.56,-1.41 -7.05,0 -10.33,0.94 -10.33,4.23 0,3.28 2.81,4.22 7.98,4.22 6.57,0 14.56,0.47 18.32,1.42 15.5,3.28 19.25,10.8 20.18,26.76 0.95,15.02 0.95,28.17 0.95,99.54l0 68.56zm378.46 0.94c-7.99,0 -9.86,0.47 -11.28,6.1l-7.04 32.4c-0.94,4.7 0,8.46 3.76,8.46 3.76,0 11.27,-5.17 20.66,-7.51 16.43,-4.7 102.36,-19.72 121.14,-22.55 13.15,-2.34 21.13,-3.75 21.13,-10.32 0,-5.64 -6.57,-6.58 -15.02,-6.58l-133.35 0zm284.07 155.89c24.89,0 51.18,-4.22 74.66,-19.25 33.81,-22.07 44.14,-54.47 44.14,-81.7 0,-44.61 -20.19,-77.01 -77.01,-119.74l-13.14 -9.86c-38.97,-29.58 -49.78,-46.01 -49.78,-67.61 0,-28.18 21.13,-48.36 55.88,-48.36 30.52,0 44.13,14.08 51.18,23 9.85,12.21 12.21,26.76 12.21,30.99 0,5.63 1.41,8.45 4.7,8.45 3.75,0 5.17,-3.75 5.17,-14.08 0,-36.63 1.87,-50.25 1.87,-56.35 0,-3.29 -2.34,-4.7 -6.57,-5.63 -12.21,-3.29 -31.93,-7.98 -62.45,-7.98 -65.27,0 -108.46,37.08 -108.46,88.74 0,38.03 17.84,70.9 69.49,111.28l21.6 16.9c38.97,30.52 46.01,52.12 46.01,75.13 0,24.89 -20.65,53.53 -62.91,53.53 -29.12,0 -56.82,-12.67 -67.15,-47.43 -2.34,-7.98 -4.23,-17.84 -4.23,-23.94 0,-3.76 -0.47,-7.99 -4.7,-7.99 -3.75,0 -5.17,5.17 -5.63,12.22 -0.47,7.51 -2.34,35.68 -2.34,61.51 0,10.33 1.41,12.68 8.92,15.96 20.18,8.92 41.31,12.21 68.55,12.21zm230.55 -142.74c0,43.2 0,80.29 -2.34,100.01 -1.87,13.62 -4.23,23.95 -13.62,25.83 -4.22,0.95 -9.85,1.88 -16.9,1.88 -5.63,0 -7.51,1.41 -7.51,3.75 0,3.29 3.28,4.7 9.39,4.7 9.38,0 21.6,-0.94 32.4,-0.94 11.27,-0.47 21.6,-0.47 26.76,-0.47 14.08,0 28.64,0.47 48.83,1.41 20.19,0.47 46.01,1.42 81.23,1.42 17.84,0 22.07,0 25.36,-12.22 2.34,-9.39 6.1,-41.32 6.1,-52.12 0,-4.69 0,-8.45 -3.76,-8.45 -3.28,0 -4.23,1.87 -5.17,7.04 -3.28,19.26 -8.91,29.12 -21.13,34.75 -12.21,5.63 -31.93,5.63 -44.13,5.63 -47.89,0 -55.4,-7.05 -56.34,-39.45 -0.48,-13.61 0,-56.81 0,-72.77l0 -37.09c0,-2.82 0.47,-4.7 2.81,-4.7 11.27,0 57.76,0.47 66.68,1.41 17.37,1.88 23.94,8.92 26.29,18.32 1.42,6.1 1.42,12.21 1.88,16.9 0,2.34 0.94,4.23 4.23,4.23 4.22,0 4.22,-5.17 4.22,-8.92 0,-3.29 1.42,-22.07 1.88,-31.46 1.87,-23.94 3.75,-31.46 3.75,-34.27 0,-2.82 -1.41,-3.76 -3.28,-3.76 -2.35,0 -4.23,2.34 -7.52,6.1 -4.22,4.7 -11.27,6.1 -22.54,7.04 -10.8,0.95 -64.8,0.95 -75.13,0.95 -2.81,0 -3.28,-1.88 -3.28,-5.17l0 -118.8c0,-3.28 0.94,-4.7 3.28,-4.7 9.39,0 58.69,0.95 66.68,1.88 23.47,2.81 28.17,8.45 31.46,16.9 2.34,5.63 2.81,13.61 2.81,16.9 0,4.23 0.94,6.57 4.23,6.57 3.28,0 4.23,-2.81 4.7,-5.17 0.94,-5.63 1.87,-26.3 2.34,-30.98 1.41,-21.61 3.76,-27.24 3.76,-30.52 0,-2.35 -0.47,-4.23 -2.82,-4.23 -2.34,0 -5.17,1.41 -7.51,1.87 -3.76,0.95 -11.27,1.88 -20.19,2.82 -8.92,0.47 -102.36,0.47 -117.39,0.47 -6.57,0 -17.37,-0.47 -29.58,-0.94 -11.75,0 -25.36,-0.47 -38.04,-0.47 -7.04,0 -10.32,0.94 -10.32,4.23 0,3.28 2.81,4.22 7.98,4.22 6.57,0 14.56,0.47 18.31,1.42 15.5,3.28 19.26,10.8 20.19,26.76 0.94,15.02 0.94,28.17 0.94,99.54l0 82.65zm434.81 142.74c119.27,0 194.4,-84.98 194.4,-192.51 0,-107.53 -72.78,-175.6 -189.7,-175.6 -140.86,0 -193.92,103.77 -193.92,184.06 0,83.11 54.47,184.06 189.22,184.06zm19.72 -23.47c-90.15,0 -144.15,-77.47 -144.15,-175.14 0,-116.92 61.52,-146.96 115.51,-146.96 77,0 137.57,65.27 137.57,170.45 0,135.7 -76.06,151.66 -108.93,151.66zm272.81 -119.26c0,43.2 0,80.29 -2.34,100.01 -1.87,13.62 -4.23,23.95 -13.62,25.83 -4.22,0.95 -9.85,1.88 -16.9,1.88 -5.63,0 -7.51,1.41 -7.51,3.75 0,3.29 3.28,4.7 9.39,4.7 9.38,0 21.6,-0.94 32.4,-0.94 11.27,-0.47 21.6,-0.47 26.76,-0.47 7.04,0 21.13,0.47 35.21,1.41 13.62,0.47 27.23,1.42 32.87,1.42 86.41,0 125.37,-52.12 125.37,-102.37 0,-54.93 -46.96,-88.27 -85.46,-101.42 25.83,-20.66 47.89,-43.67 47.89,-82.17 0,-24.89 -15.03,-70.43 -100.02,-70.43 -15.96,0 -34.27,1.41 -57.29,1.41 -9.38,0 -38.97,-1.41 -63.86,-1.41 -7.04,0 -10.32,0.94 -10.32,4.23 0,3.28 2.81,4.22 7.98,4.22 6.57,0 14.56,0.47 18.31,1.42 15.5,3.28 19.26,10.8 20.19,26.76 0.94,15.02 0.94,28.17 0.94,99.54l0 82.65zm56.35 -190.64c0,-5.17 0.94,-7.04 4.23,-7.98 4.7,-0.95 8.91,-0.95 15.5,-0.95 40.38,0 58.69,41.32 58.69,72.78 0,23 -7.05,39.91 -19.26,49.77 -7.98,7.05 -18.31,8.92 -33.8,8.92 -10.8,0 -17.85,-0.47 -22.07,-1.41 -1.88,-0.47 -3.29,-1.42 -3.29,-5.17l0 -115.98zm107.53 246.98c0,48.83 -35.69,60.11 -56.82,60.11 -10.8,0 -21.6,-0.48 -34.27,-5.63 -15.03,-6.11 -16.43,-14.09 -16.43,-45.08l0 -111.28c0,-2.34 0.94,-3.28 2.82,-3.28 7.04,0 11.74,0 20.18,0.47 18.32,0.94 29.12,4.22 38.98,11.27 35.68,24.88 45.54,64.33 45.54,93.44zm293.95 -42.73c2.34,0 3.75,0.94 4.69,3.29l37.56 99.55c2.35,5.63 -0.94,9.85 -4.22,10.8 -4.7,0.47 -6.58,1.41 -6.58,4.22 0,3.29 5.64,3.29 14.09,3.76 37.56,0.94 71.85,0.94 88.75,0.94 17.37,0 21.6,-0.94 21.6,-4.7 0,-3.28 -2.35,-3.75 -6.1,-3.75 -5.63,0 -12.68,-0.47 -19.72,-1.88 -9.86,-2.81 -23.47,-9.31 -41.32,-51.41 -30.04,-71.14 -105.18,-262.72 -116.45,-288.53 -4.69,-10.8 -7.51,-15.03 -11.74,-15.03 -4.7,0 -7.51,5.17 -13.14,18.78l-117.86 294.88c-9.39,23.47 -18.32,39.44 -39.92,42.26 -3.76,0.47 -10.33,0.94 -14.56,0.94 -3.75,0 -5.63,0.94 -5.63,3.75 0,3.76 2.82,4.7 8.92,4.7 24.42,0 50.24,-1.41 55.4,-1.41 14.56,0 34.75,1.41 49.78,1.41 5.17,0 7.98,-0.94 7.98,-4.7 0,-2.81 -1.41,-3.75 -7.04,-3.75l-7.04 0c-14.56,0 -18.79,-6.1 -18.79,-14.56 0,-5.63 2.35,-16.9 7.04,-28.64l25.36 -67.15c0.94,-2.82 1.88,-3.76 4.23,-3.76l104.71 0zm-95.32 -23.47c-1.88,0 -2.35,-1.41 -1.88,-3.29l43.2 -115.5c0.48,-1.88 1.42,-4.23 2.82,-4.23 1.41,0 1.87,2.34 2.34,4.23l42.26 115.97c0.47,1.42 0,2.82 -2.34,2.82l-86.4 0zm338.54 152.6c24.89,0 51.18,-4.22 74.66,-19.25 33.81,-22.07 44.14,-54.47 44.14,-81.7 0,-44.61 -20.19,-77.01 -77.01,-119.74l-13.14 -9.86c-38.97,-29.58 -49.78,-46.01 -49.78,-67.61 0,-28.18 21.13,-48.36 55.88,-48.36 30.52,0 44.13,14.08 51.18,23 9.85,12.21 12.21,26.76 12.21,30.99 0,5.63 1.41,8.45 4.7,8.45 3.75,0 5.17,-3.75 5.17,-14.08 0,-36.63 1.87,-50.25 1.87,-56.35 0,-3.29 -2.34,-4.7 -6.57,-5.63 -12.21,-3.29 -31.93,-7.98 -62.45,-7.98 -65.27,0 -108.46,37.08 -108.46,88.74 0,38.03 17.84,70.9 69.49,111.28l21.6 16.9c38.97,30.52 46.01,52.12 46.01,75.13 0,24.89 -20.65,53.53 -62.91,53.53 -29.12,0 -56.82,-12.67 -67.15,-47.43 -2.34,-7.98 -4.23,-17.84 -4.23,-23.94 0,-3.76 -0.47,-7.99 -4.7,-7.99 -3.75,0 -5.17,5.17 -5.63,12.22 -0.47,7.51 -2.34,35.68 -2.34,61.51 0,10.33 1.41,12.68 8.92,15.96 20.18,8.92 41.31,12.21 68.55,12.21zm230.55 -142.74c0,43.2 0,80.29 -2.34,100.01 -1.87,13.62 -4.23,23.95 -13.62,25.83 -4.22,0.95 -9.85,1.88 -16.9,1.88 -5.63,0 -7.51,1.41 -7.51,3.75 0,3.29 3.28,4.7 9.39,4.7 9.38,0 21.6,-0.94 32.4,-0.94 11.27,-0.47 21.6,-0.47 26.76,-0.47 14.08,0 28.64,0.47 48.83,1.41 20.19,0.47 46.01,1.42 81.23,1.42 17.84,0 22.07,0 25.36,-12.22 2.34,-9.39 6.1,-41.32 6.1,-52.12 0,-4.69 0,-8.45 -3.76,-8.45 -3.28,0 -4.23,1.87 -5.17,7.04 -3.28,19.26 -8.91,29.12 -21.13,34.75 -12.21,5.63 -31.93,5.63 -44.13,5.63 -47.89,0 -55.4,-7.05 -56.34,-39.45 -0.48,-13.61 0,-56.81 0,-72.77l0 -37.09c0,-2.82 0.47,-4.7 2.81,-4.7 11.27,0 57.76,0.47 66.68,1.41 17.37,1.88 23.94,8.92 26.29,18.32 1.42,6.1 1.42,12.21 1.88,16.9 0,2.34 0.94,4.23 4.23,4.23 4.22,0 4.22,-5.17 4.22,-8.92 0,-3.29 1.42,-22.07 1.88,-31.46 1.87,-23.94 3.75,-31.46 3.75,-34.27 0,-2.82 -1.41,-3.76 -3.28,-3.76 -2.35,0 -4.23,2.34 -7.52,6.1 -4.22,4.7 -11.27,6.1 -22.54,7.04 -10.8,0.95 -64.8,0.95 -75.13,0.95 -2.81,0 -3.28,-1.88 -3.28,-5.17l0 -118.8c0,-3.28 0.94,-4.7 3.28,-4.7 9.39,0 58.69,0.95 66.68,1.88 23.47,2.81 28.17,8.45 31.46,16.9 2.34,5.63 2.81,13.61 2.81,16.9 0,4.23 0.94,6.57 4.23,6.57 3.28,0 4.23,-2.81 4.7,-5.17 0.94,-5.63 1.87,-26.3 2.34,-30.98 1.41,-21.61 3.76,-27.24 3.76,-30.52 0,-2.35 -0.47,-4.23 -2.82,-4.23 -2.34,0 -5.17,1.41 -7.51,1.87 -3.76,0.95 -11.27,1.88 -20.19,2.82 -8.92,0.47 -102.36,0.47 -117.39,0.47 -6.57,0 -17.37,-0.47 -29.58,-0.94 -11.75,0 -25.36,-0.47 -38.04,-0.47 -7.04,0 -10.32,0.94 -10.32,4.23 0,3.28 2.81,4.22 7.98,4.22 6.57,0 14.56,0.47 18.31,1.42 15.5,3.28 19.26,10.8 20.19,26.76 0.94,15.02 0.94,28.17 0.94,99.54l0 82.65z"/>
   <path class="fil10" d="M661.19 3554.73c0,-1.82 0.52,-2.35 1.82,-2.35 4.45,0 32.13,0 38.66,0.79 8.1,1.05 12.02,5.74 13.32,9.4 1.05,3.13 1.57,6.26 1.57,8.1 0,1.82 0.52,3.65 2.08,3.65 2.61,0 2.61,-2.6 2.61,-4.96 0,-1.83 0.53,-13.84 1.05,-19.07 0.79,-8.1 2.09,-14.63 2.09,-16.19 0,-1.57 -0.53,-2.35 -1.57,-2.35 -1.58,0 -2.09,1.05 -3.4,2.61 -2.61,3.39 -6.27,4.44 -11.23,4.7 -3.66,0.27 -7.32,0.27 -11.76,0.27l-33.44 0.26c-1.57,0 -1.82,-0.79 -1.82,-2.35l0 -65.29c0,-2.87 0.79,-3.66 2.35,-3.66l40.22 0.79c9.93,0.26 15.42,4.18 17.24,7.83 1.57,3.66 1.57,7.84 1.57,9.93 0.27,2.87 0.79,4.18 2.61,4.18 1.83,0 2.35,-1.57 2.61,-3.66 0.53,-3.13 1.05,-18.55 1.31,-21.15 0.79,-6.79 2.09,-9.93 2.09,-11.76 0,-1.31 -0.79,-2.35 -1.83,-2.35 -1.31,0 -2.61,1.05 -4.18,1.57 -2.61,0.79 -5.74,0.79 -10.71,1.05 -6,0.26 -59.02,0.26 -68.95,0.26 -3.65,0 -9.66,-0.26 -16.45,-0.52 -6.79,0 -14.36,-0.26 -21.15,-0.26 -3.92,0 -6.01,0.52 -6.01,2.61 0,1.57 1.83,2.08 4.44,2.08 3.66,0 8.1,0.26 10.19,0.79 8.62,1.82 10.71,6 11.23,14.89 0.53,8.36 0.53,15.67 0.53,55.37l0 45.97c0,25.07 0,44.66 -1.31,55.63 -1.05,7.57 -2.35,13.32 -7.58,14.36 -2.35,0.53 -5.48,1.05 -9.4,1.05 -2.87,0 -3.92,0.79 -3.92,2.09 0,2.08 1.83,2.61 5.48,2.61 9.93,0 26.39,-0.79 33.18,-0.79 6.79,0 23.24,0.79 39.7,0.79 3.92,0 5.74,-0.79 5.74,-2.61 0,-1.31 -1.04,-2.09 -4.44,-2.09 -3.66,0 -9.4,-0.52 -13.06,-1.05 -7.83,-1.04 -9.39,-6.79 -10.18,-14.36 -1.31,-10.97 -1.31,-30.56 -1.31,-55.63l0 -21.16zm403.35 100.56c66.34,0 108.13,-47.28 108.13,-107.09 0,-59.81 -40.49,-97.68 -105.52,-97.68 -78.36,0 -107.86,57.73 -107.86,102.39 0,46.23 30.29,102.38 105.25,102.38zm10.98 -13.05c-50.16,0 -80.19,-43.1 -80.19,-97.42 0,-65.04 34.22,-81.76 64.26,-81.76 42.83,0 76.52,36.31 76.52,94.81 0,75.49 -42.31,84.37 -60.59,84.37zm340.14 -74.18c0,37.87 9.93,57.2 23.25,69.21 19.07,17.24 44.13,18.02 57.98,18.02 16.98,0 35.79,-2.87 54.34,-18.81 21.94,-18.81 24.81,-49.62 24.81,-78.62l0 -27.94c0,-39.71 0,-47.02 0.52,-55.37 0.53,-9.14 2.61,-13.58 9.66,-14.89 3.14,-0.53 4.71,-0.79 7.58,-0.79 3.13,0 4.7,-0.52 4.7,-2.35 0,-1.82 -1.82,-2.34 -5.48,-2.34 -10.18,0 -26.63,0.78 -29.78,0.78 -0.26,0 -16.71,-0.78 -30.03,-0.78 -3.65,0 -5.48,0.52 -5.48,2.34 0,1.83 1.57,2.35 4.44,2.35 2.88,0 7.32,0.26 9.4,0.79 8.63,1.82 10.71,6 11.24,14.89 0.52,8.36 0.52,15.67 0.52,55.37l0 32.65c0,26.9 -0.79,50.41 -15.15,64.78 -10.45,10.44 -24.55,14.1 -36.05,14.1 -8.87,0 -20.89,-1.05 -32.65,-10.71 -12.79,-10.45 -20.37,-26.38 -20.37,-64.25l0 -36.57c0,-39.71 0,-47.02 0.52,-55.37 0.53,-9.14 2.61,-13.58 9.67,-14.89 3.13,-0.53 4.7,-0.79 7.57,-0.79 2.61,0 4.18,-0.52 4.18,-2.35 0,-1.82 -1.82,-2.34 -5.74,-2.34 -9.4,0 -25.86,0.78 -32.13,0.78 -7.84,0 -24.29,-0.78 -38.13,-0.78 -3.92,0 -5.74,0.52 -5.74,2.34 0,1.83 1.57,2.35 4.44,2.35 3.66,0 8.1,0.26 10.19,0.79 8.62,1.82 10.71,6 11.23,14.89 0.52,8.36 0.52,15.67 0.52,55.37l0 38.13zm442.62 -61.65l0.79 0c4.7,4.97 33.69,37.61 62.11,65.82 27.16,26.9 60.6,61.12 77.01,76.79 2.87,2.87 6,5.74 8.87,5.74 2.35,0 3.4,-2.35 3.4,-8.1l2.87 -164.81c0.26,-14.63 2.35,-20.11 9.66,-22.2 3.13,-0.79 5.23,-0.79 7.84,-0.79 3.13,0 4.7,-0.78 4.7,-2.35 0,-2.08 -2.61,-2.34 -6,-2.34 -12.8,0 -22.73,0.78 -25.6,0.78 -5.48,0 -18.02,-0.78 -31.56,-0.78 -3.92,0 -6.79,0.26 -6.79,2.34 0,1.58 1.05,2.35 4.18,2.35 3.66,0 9.92,0 13.8,1.57 6.27,2.61 8.62,7.58 8.88,23.51l2.6 117.27 -1.3 0c-4.45,-4.18 -39.66,-41.79 -57.43,-59.55 -38.08,-37.87 -77.79,-80.44 -80.92,-83.84 -4.49,-4.7 -6.83,-8.1 -9.71,-8.1 -2.6,0 -3.39,3.66 -3.39,8.88l-2.35 154.62c-0.26,22.73 -1.31,30.3 -8.1,32.39 -3.65,1.05 -8.36,1.31 -11.75,1.31 -2.61,0 -4.19,0.52 -4.19,2.09 0,2.34 2.35,2.61 5.75,2.61 13.58,0 25.86,-0.79 28.21,-0.79 5.01,0 15.45,0.79 32.43,0.79 3.66,0 6,-0.53 6,-2.61 0,-1.58 -1.57,-2.09 -4.44,-2.09 -4.18,0 -9.14,-0.26 -13.58,-1.82 -5.23,-1.83 -8.62,-8.63 -9.14,-29l-2.87 -109.7zm432.52 69.48c0,24.02 0,44.66 -1.31,55.63 -1.05,7.57 -2.35,13.32 -7.58,14.36 -2.35,0.53 -5.48,1.05 -9.4,1.05 -3.13,0 -4.18,0.79 -4.18,2.09 0,1.82 1.82,2.61 5.23,2.61 5.23,0 12.02,-0.53 18.02,-0.53 6.27,-0.26 12.02,-0.26 14.89,-0.26 6.53,0 15.68,0.79 25.6,1.57 9.92,0.79 20.63,1.57 30.03,1.57 48.32,0 75.49,-18.54 87.5,-30.81 14.63,-14.89 28.47,-39.97 28.47,-72.87 0,-31.08 -12.28,-52.76 -25.34,-66.34 -28.47,-29.78 -72.09,-29.78 -104.73,-29.78 -15.68,0 -32.13,0.78 -40.23,0.78 -7.31,0 -23.76,-0.78 -37.61,-0.78 -3.91,0 -5.74,0.52 -5.74,2.34 0,1.83 1.57,2.35 4.44,2.35 3.66,0 8.1,0.26 10.19,0.79 8.62,1.82 10.71,6 11.23,14.89 0.53,8.36 0.53,15.67 0.53,55.37l0 45.97zm32.65 -50.15c0,-20.64 0,-43.36 0.26,-52.24 0,-2.87 0.79,-4.18 3.13,-5.23 2.09,-1.05 11.76,-1.82 16.98,-1.82 20.37,0 50.15,3.13 74.18,26.12 11.23,10.71 25.07,32.13 25.07,65.29 0,26.9 -5.23,50.68 -21.94,65.04 -15.68,13.58 -33.44,18.81 -60.07,18.81 -20.64,0 -30.82,-5.48 -34.22,-10.44 -2.08,-2.88 -2.61,-13.32 -2.87,-19.85 -0.26,-4.97 -0.52,-25.08 -0.52,-52.76l0 -32.91zm477.53 57.72c1.31,0 2.09,0.53 2.61,1.83l20.9 55.36c1.31,3.14 -0.53,5.49 -2.35,6.01 -2.61,0.26 -3.66,0.78 -3.66,2.35 0,1.82 3.14,1.82 7.84,2.08 20.9,0.53 39.97,0.53 49.37,0.53 9.66,0 12.01,-0.53 12.01,-2.61 0,-1.83 -1.3,-2.09 -3.39,-2.09 -3.13,0 -7.05,-0.26 -10.97,-1.05 -5.48,-1.57 -13.06,-5.18 -22.98,-28.6 -16.71,-39.57 -58.5,-146.14 -64.78,-160.5 -2.61,-6.01 -4.18,-8.37 -6.53,-8.37 -2.61,0 -4.18,2.88 -7.31,10.45l-65.56 164.03c-5.23,13.06 -10.18,21.95 -22.2,23.51 -2.09,0.26 -5.74,0.52 -8.1,0.52 -2.09,0 -3.13,0.52 -3.13,2.09 0,2.08 1.57,2.61 4.96,2.61 13.58,0 27.95,-0.79 30.82,-0.79 8.1,0 19.33,0.79 27.69,0.79 2.87,0 4.44,-0.53 4.44,-2.61 0,-1.58 -0.79,-2.09 -3.92,-2.09l-3.92 0c-8.1,0 -10.45,-3.39 -10.45,-8.1 0,-3.13 1.31,-9.4 3.92,-15.93l14.11 -37.34c0.52,-1.57 1.04,-2.09 2.34,-2.09l58.24 0zm-53.02 -13.05c-1.05,0 -1.31,-0.79 -1.05,-1.83l24.03 -64.25c0.26,-1.05 0.79,-2.35 1.57,-2.35 0.79,0 1.05,1.31 1.31,2.35l23.51 64.51c0.26,0.79 0,1.58 -1.31,1.58l-48.06 0zm381.94 5.48c0,24.02 0,44.66 -1.31,55.63 -0.78,7.57 -2.34,13.32 -7.57,14.36 -2.35,0.53 -5.48,1.05 -9.4,1.05 -3.14,0 -4.18,0.79 -4.18,2.09 0,1.82 1.82,2.61 5.23,2.61 10.44,0 26.89,-0.79 32.91,-0.79 7.31,0 23.76,0.79 41,0.79 2.87,0 4.97,-0.79 4.97,-2.61 0,-1.31 -1.31,-2.09 -4.18,-2.09 -3.92,0 -9.66,-0.52 -13.32,-1.05 -7.84,-1.04 -9.4,-6.79 -10.19,-14.1 -1.31,-11.23 -1.31,-31.87 -1.31,-55.89l0 -107.1 32.92 0.79c23.24,0.52 30.29,7.84 30.82,14.63l0.26 2.87c0.26,3.92 0.78,5.23 2.87,5.23 1.57,0 2.08,-1.57 2.35,-4.18 0,-6.79 0.78,-24.82 0.78,-30.3 0,-3.92 -0.26,-5.48 -2.08,-5.48 -1.05,0 -3.14,0.53 -7.06,1.31 -3.91,0.53 -9.66,1.31 -18.02,1.31l-103.43 0c-8.63,0 -18.55,-0.52 -26.13,-1.31 -6.52,-0.52 -9.13,-3.13 -11.23,-3.13 -1.57,0 -2.35,1.57 -3.13,4.97 -0.53,2.08 -5.48,25.86 -5.48,30.03 0,2.87 0.52,4.18 2.34,4.18 1.58,0 2.35,-1.05 2.88,-3.13 0.52,-2.09 1.82,-5.23 4.44,-9.14 3.92,-5.74 10.18,-7.05 25.34,-7.58l38.91 -1.05 0 107.1zm347.72 0c0,25.33 0,45.97 -1.31,56.94 -0.79,7.57 -2.35,12.02 -7.58,13.05 -2.35,0.53 -5.48,1.05 -9.4,1.05 -3.13,0 -4.18,0.79 -4.18,2.09 0,1.82 1.82,2.61 5.23,2.61 10.45,0 26.9,-0.79 32.91,-0.79 7.05,0 23.51,0.79 40.74,0.79 2.87,0 4.97,-0.79 4.97,-2.61 0,-1.31 -1.31,-2.09 -4.18,-2.09 -3.92,0 -9.66,-0.52 -13.32,-1.05 -7.84,-1.04 -9.66,-5.74 -10.45,-12.79 -1.04,-11.23 -1.04,-31.87 -1.04,-57.2l0 -45.97c0,-39.71 0,-47.02 0.52,-55.37 0.52,-9.14 2.61,-13.58 9.66,-14.89 3.13,-0.53 5.23,-0.79 7.84,-0.79 2.61,0 4.18,-0.52 4.18,-2.61 0,-1.57 -2.09,-2.08 -5.48,-2.08 -9.92,0 -25.34,0.78 -31.87,0.78 -7.57,0 -24.02,-0.78 -33.95,-0.78 -4.18,0 -6.26,0.52 -6.26,2.08 0,2.09 1.57,2.61 4.18,2.61 3.13,0 6.53,0.26 9.4,1.05 5.74,1.31 8.36,5.74 8.87,14.63 0.53,8.36 0.53,15.67 0.53,55.37l0 45.97zm389.24 79.4c66.34,0 108.13,-47.28 108.13,-107.09 0,-59.81 -40.49,-97.68 -105.52,-97.68 -78.36,0 -107.86,57.73 -107.86,102.39 0,46.23 30.29,102.38 105.25,102.38zm10.98 -13.05c-50.16,0 -80.19,-43.1 -80.19,-97.42 0,-65.04 34.22,-81.76 64.26,-81.76 42.83,0 76.52,36.31 76.52,94.81 0,75.49 -42.31,84.37 -60.59,84.37zm360.6 -135.83l0.79 0c4.7,4.97 33.69,37.61 62.11,65.82 27.16,26.9 60.6,61.12 77.01,76.79 2.87,2.87 6,5.74 8.87,5.74 2.35,0 3.4,-2.35 3.4,-8.1l2.87 -164.81c0.26,-14.63 2.35,-20.11 9.66,-22.2 3.13,-0.79 5.23,-0.79 7.84,-0.79 3.13,0 4.7,-0.78 4.7,-2.35 0,-2.08 -2.61,-2.34 -6,-2.34 -12.8,0 -22.73,0.78 -25.6,0.78 -5.48,0 -18.02,-0.78 -31.56,-0.78 -3.92,0 -6.79,0.26 -6.79,2.34 0,1.58 1.05,2.35 4.18,2.35 3.66,0 9.92,0 13.8,1.57 6.27,2.61 8.62,7.58 8.88,23.51l2.6 117.27 -1.3 0c-4.45,-4.18 -39.66,-41.79 -57.43,-59.55 -38.08,-37.87 -77.79,-80.44 -80.92,-83.84 -4.49,-4.7 -6.83,-8.1 -9.71,-8.1 -2.6,0 -3.39,3.66 -3.39,8.88l-2.35 154.62c-0.26,22.73 -1.31,30.3 -8.1,32.39 -3.65,1.05 -8.36,1.31 -11.75,1.31 -2.61,0 -4.19,0.52 -4.19,2.09 0,2.34 2.35,2.61 5.75,2.61 13.58,0 25.86,-0.79 28.21,-0.79 5.01,0 15.45,0.79 32.43,0.79 3.66,0 6,-0.53 6,-2.61 0,-1.58 -1.57,-2.09 -4.44,-2.09 -4.18,0 -9.14,-0.26 -13.58,-1.82 -5.23,-1.83 -8.62,-8.63 -9.14,-29l-2.87 -109.7z"/>
   <g>
    <path class="fil11" d="M1260.45 4482.93c0,0.72 -0.23,1.36 -0.68,1.92 -0.42,0.56 -1.17,1.02 -2.26,1.39 -1.06,0.34 -2.48,0.65 -4.22,0.84 -1.76,0.18 -4.03,0.26 -6.74,0.26 -2.71,0 -4.98,-0.08 -6.74,-0.26 -1.74,-0.19 -3.16,-0.5 -4.22,-0.84 -1.1,-0.37 -1.84,-0.83 -2.26,-1.39 -0.45,-0.57 -0.68,-1.21 -0.68,-1.92l0 -98.31c0,-0.72 0.23,-1.36 0.68,-1.91 0.42,-0.57 1.17,-1.06 2.26,-1.44 1.06,-0.42 2.48,-0.72 4.22,-0.94 1.76,-0.23 4.03,-0.34 6.74,-0.34 2.71,0 4.98,0.11 6.74,0.34 1.74,0.22 3.16,0.52 4.22,0.94 1.1,0.38 1.84,0.87 2.26,1.44 0.45,0.56 0.68,1.2 0.68,1.91l0 98.31zm2.25 -131.99c0,5.61 -1.13,9.45 -3.42,11.61 -2.3,2.14 -6.52,3.2 -12.73,3.2 -6.25,0 -10.51,-1.02 -12.65,-3.09 -2.18,-2.07 -3.28,-5.8 -3.28,-11.15 0,-5.61 1.14,-9.49 3.39,-11.68 2.22,-2.14 6.48,-3.24 12.77,-3.24 6.17,0 10.39,1.06 12.61,3.16 2.22,2.07 3.31,5.8 3.31,11.19zm182.08 131.99c0,0.72 -0.22,1.36 -0.68,1.92 -0.41,0.56 -1.17,1.02 -2.18,1.39 -1.06,0.34 -2.44,0.65 -4.22,0.84 -1.76,0.18 -4.03,0.26 -6.74,0.26 -2.82,0 -5.13,-0.08 -6.89,-0.26 -1.77,-0.19 -3.2,-0.5 -4.26,-0.84 -1.06,-0.37 -1.8,-0.83 -2.22,-1.39 -0.41,-0.57 -0.6,-1.21 -0.6,-1.92l0 -58.38c0,-3.31 -0.31,-6.32 -0.95,-9.03 -0.6,-2.75 -1.58,-5.09 -2.86,-7.01 -1.28,-1.95 -2.9,-3.46 -4.82,-4.56 -1.96,-1.06 -4.26,-1.59 -6.97,-1.59 -3.32,0 -6.67,1.29 -10.02,3.88 -3.39,2.56 -7.04,6.33 -11,11.23l0 65.46c0,0.72 -0.23,1.36 -0.68,1.92 -0.41,0.56 -1.17,1.02 -2.26,1.39 -1.05,0.34 -2.48,0.65 -4.25,0.84 -1.77,0.18 -4,0.26 -6.63,0.26 -2.75,0 -5.02,-0.08 -6.78,-0.26 -1.77,-0.19 -3.2,-0.5 -4.26,-0.84 -1.1,-0.37 -1.84,-0.83 -2.26,-1.39 -0.45,-0.57 -0.68,-1.21 -0.68,-1.92l0 -58.38c0,-3.31 -0.3,-6.32 -0.94,-9.03 -0.6,-2.75 -1.55,-5.09 -2.82,-7.01 -1.25,-1.95 -2.86,-3.46 -4.83,-4.56 -1.99,-1.06 -4.33,-1.59 -6.97,-1.59 -3.39,0 -6.74,1.29 -10.13,3.88 -3.39,2.56 -7.04,6.33 -10.92,11.23l0 65.46c0,0.72 -0.23,1.36 -0.68,1.92 -0.42,0.56 -1.17,1.02 -2.26,1.39 -1.06,0.34 -2.48,0.65 -4.22,0.84 -1.76,0.18 -4.03,0.26 -6.74,0.26 -2.71,0 -4.98,-0.08 -6.74,-0.26 -1.74,-0.19 -3.16,-0.5 -4.22,-0.84 -1.1,-0.37 -1.84,-0.83 -2.26,-1.39 -0.45,-0.57 -0.68,-1.21 -0.68,-1.92l0 -98.53c0,-0.72 0.19,-1.36 0.57,-1.92 0.34,-0.57 1.02,-1.02 1.95,-1.4 0.98,-0.34 2.18,-0.64 3.69,-0.83 1.52,-0.19 3.43,-0.26 5.69,-0.26 2.37,0 4.29,0.07 5.83,0.26 1.55,0.19 2.75,0.49 3.62,0.83 0.83,0.38 1.43,0.83 1.8,1.4 0.38,0.57 0.57,1.21 0.57,1.92l0 11.37c5.42,-5.87 10.85,-10.24 16.27,-13.18 5.42,-2.93 11.07,-4.41 16.94,-4.41 4.07,0 7.73,0.42 10.97,1.29 3.24,0.83 6.1,2.03 8.66,3.61 2.53,1.59 4.72,3.47 6.56,5.65 1.84,2.22 3.39,4.67 4.63,7.38 2.94,-3.16 5.84,-5.87 8.67,-8.14 2.82,-2.25 5.65,-4.14 8.4,-5.57 2.75,-1.43 5.5,-2.48 8.29,-3.16 2.75,-0.72 5.54,-1.06 8.45,-1.06 6.51,0 12.05,1.1 16.53,3.32 4.48,2.18 8.1,5.2 10.85,8.99 2.78,3.77 4.75,8.22 5.91,13.3 1.17,5.09 1.76,10.43 1.76,16.12l0 63.01zm126.22 -50.7c0,8.74 -0.94,16.64 -2.82,23.65 -1.84,7.01 -4.6,12.99 -8.22,17.93 -3.58,4.94 -8.06,8.7 -13.4,11.38 -5.39,2.63 -11.53,3.95 -18.43,3.95 -2.86,0 -5.49,-0.26 -7.87,-0.83 -2.41,-0.56 -4.71,-1.4 -6.97,-2.52 -2.22,-1.17 -4.45,-2.56 -6.66,-4.26 -2.19,-1.7 -4.49,-3.69 -6.82,-5.95l0 46.34c0,0.75 -0.23,1.39 -0.68,1.99 -0.42,0.56 -1.17,1.09 -2.26,1.47 -1.06,0.42 -2.48,0.72 -4.22,0.95 -1.76,0.22 -4.03,0.34 -6.74,0.34 -2.71,0 -4.98,-0.12 -6.74,-0.34 -1.74,-0.23 -3.16,-0.53 -4.22,-0.95 -1.1,-0.38 -1.84,-0.91 -2.26,-1.47 -0.45,-0.61 -0.68,-1.25 -0.68,-1.99l0 -137.52c0,-0.72 0.19,-1.36 0.57,-1.92 0.34,-0.57 0.98,-1.02 1.91,-1.4 0.91,-0.34 2.11,-0.64 3.66,-0.83 1.51,-0.19 3.39,-0.26 5.64,-0.26 2.22,0 4.07,0.07 5.58,0.26 1.51,0.19 2.74,0.49 3.65,0.83 0.91,0.38 1.55,0.83 1.92,1.4 0.37,0.57 0.56,1.21 0.56,1.95l0 11.61c2.86,-2.94 5.65,-5.54 8.44,-7.76 2.75,-2.26 5.54,-4.11 8.41,-5.61 2.9,-1.51 5.83,-2.64 8.88,-3.39 3.05,-0.72 6.29,-1.1 9.75,-1.1 7.2,0 13.34,1.44 18.43,4.26 5.05,2.82 9.18,6.7 12.38,11.64 3.2,4.9 5.54,10.66 7.01,17.22 1.47,6.51 2.18,13.52 2.18,20.94zm-28.93 1.91c0,-4.18 -0.3,-8.21 -0.94,-12.05 -0.61,-3.85 -1.7,-7.27 -3.2,-10.29 -1.52,-3.01 -3.47,-5.41 -5.92,-7.19 -2.48,-1.8 -5.53,-2.71 -9.18,-2.71 -1.84,0 -3.66,0.26 -5.46,0.83 -1.8,0.57 -3.62,1.44 -5.49,2.71 -1.88,1.25 -3.81,2.86 -5.76,4.83 -2,1.99 -4.11,4.44 -6.29,7.38l0 32.43c3.88,4.9 7.61,8.67 11.11,11.34 3.54,2.67 7.2,4 11,4 3.62,0 6.67,-0.91 9.19,-2.75 2.52,-1.84 4.63,-4.26 6.21,-7.2 1.62,-2.97 2.82,-6.32 3.58,-10.09 0.79,-3.73 1.17,-7.5 1.17,-11.23zm135.08 49.12c0,1.02 -0.38,1.8 -1.1,2.41 -0.76,0.6 -1.92,1.02 -3.5,1.28 -1.59,0.27 -3.92,0.38 -7.05,0.38 -3.31,0 -5.72,-0.11 -7.23,-0.38 -1.51,-0.26 -2.6,-0.68 -3.2,-1.28 -0.64,-0.61 -0.94,-1.4 -0.94,-2.41l0 -7.84c-4.07,4.34 -8.67,7.69 -13.86,10.1 -5.17,2.4 -10.93,3.61 -17.26,3.61 -5.2,0 -10.01,-0.68 -14.38,-2.03 -4.38,-1.36 -8.14,-3.39 -11.34,-6.06 -3.21,-2.71 -5.69,-6.02 -7.46,-9.98 -1.77,-3.99 -2.64,-8.63 -2.64,-13.9 0,-5.76 1.14,-10.73 3.35,-14.95 2.26,-4.26 5.61,-7.73 10.06,-10.51 4.45,-2.75 9.94,-4.79 16.57,-6.1 6.59,-1.32 14.28,-1.99 23.01,-1.99l9.6 0 0 -5.95c0,-3.09 -0.3,-5.8 -0.94,-8.14 -0.61,-2.29 -1.66,-4.26 -3.09,-5.8 -1.44,-1.55 -3.31,-2.67 -5.72,-3.42 -2.37,-0.72 -5.35,-1.1 -8.85,-1.1 -4.63,0 -8.78,0.53 -12.39,1.55 -3.65,1.02 -6.85,2.18 -9.64,3.43 -2.78,1.24 -5.12,2.4 -7,3.42 -1.88,1.02 -3.39,1.55 -4.56,1.55 -0.83,0 -1.55,-0.26 -2.15,-0.75 -0.64,-0.53 -1.17,-1.29 -1.54,-2.22 -0.42,-0.95 -0.72,-2.14 -0.95,-3.54 -0.22,-1.4 -0.34,-2.94 -0.34,-4.6 0,-2.29 0.19,-4.11 0.57,-5.42 0.34,-1.32 1.06,-2.48 2.07,-3.58 1.05,-1.06 2.82,-2.22 5.42,-3.5 2.55,-1.29 5.57,-2.48 9.03,-3.58 3.47,-1.13 7.23,-2.03 11.3,-2.71 4.11,-0.72 8.33,-1.06 12.65,-1.06 7.73,0 14.32,0.76 19.81,2.26 5.46,1.51 9.98,3.84 13.49,6.97 3.54,3.12 6.13,7.15 7.76,12.09 1.62,4.9 2.41,10.78 2.41,17.52l0 66.25zm-27.35 -42.26l-10.58 0c-4.49,0 -8.29,0.34 -11.46,0.98 -3.16,0.68 -5.72,1.66 -7.72,3.01 -1.99,1.32 -3.43,2.9 -4.33,4.79 -0.95,1.88 -1.4,4.03 -1.4,6.44 0,4.14 1.32,7.38 3.92,9.71 2.59,2.37 6.21,3.55 10.85,3.55 3.88,0 7.46,-0.99 10.73,-2.98 3.28,-1.99 6.59,-4.9 9.98,-8.74l0 -16.76zm129.42 26.22c0,1.92 -0.04,3.5 -0.15,4.82 -0.12,1.29 -0.27,2.37 -0.46,3.28 -0.19,0.87 -0.41,1.59 -0.68,2.14 -0.26,0.57 -0.83,1.25 -1.7,2.11 -0.9,0.83 -2.41,1.88 -4.52,3.09 -2.14,1.2 -4.56,2.29 -7.31,3.27 -2.71,0.95 -5.64,1.74 -8.85,2.3 -3.2,0.6 -6.51,0.9 -9.9,0.9 -7.57,0 -14.28,-1.17 -20.11,-3.54 -5.87,-2.33 -10.77,-5.83 -14.77,-10.43 -3.95,-4.6 -6.97,-10.25 -8.96,-16.87 -2.03,-6.63 -3.05,-14.2 -3.05,-22.76 0,-9.87 1.25,-18.42 3.69,-25.58 2.49,-7.19 5.91,-13.14 10.32,-17.85 4.41,-4.71 9.64,-8.22 15.68,-10.51 6.02,-2.29 12.65,-3.43 19.88,-3.43 2.94,0 5.8,0.27 8.67,0.8 2.82,0.49 5.46,1.2 7.95,2.06 2.45,0.91 4.67,1.88 6.59,2.98 1.95,1.13 3.35,2.07 4.15,2.9 0.83,0.79 1.39,1.47 1.73,2.03 0.31,0.56 0.57,1.28 0.76,2.14 0.19,0.91 0.34,1.99 0.45,3.28 0.12,1.32 0.15,2.86 0.15,4.71 0,4.29 -0.34,7.31 -1.09,9.03 -0.76,1.74 -1.7,2.6 -2.86,2.6 -1.25,0 -2.6,-0.53 -4,-1.55 -1.39,-1.02 -3.05,-2.18 -4.97,-3.43 -1.88,-1.24 -4.19,-2.4 -6.82,-3.42 -2.63,-1.02 -5.8,-1.55 -9.49,-1.55 -7.23,0 -12.73,2.78 -16.57,8.32 -3.8,5.58 -5.72,13.71 -5.72,24.45 0,5.28 0.49,9.94 1.43,14.01 0.99,4.03 2.37,7.42 4.26,10.13 1.88,2.71 4.22,4.79 7.05,6.14 2.86,1.36 6.13,2.03 9.9,2.03 3.81,0 7.12,-0.57 9.87,-1.74 2.74,-1.13 5.16,-2.41 7.23,-3.8 2.03,-1.4 3.77,-2.68 5.2,-3.81 1.4,-1.17 2.56,-1.74 3.51,-1.74 0.68,0 1.2,0.19 1.66,0.57 0.45,0.38 0.79,1.06 1.06,2.03 0.26,1.02 0.45,2.29 0.6,3.84 0.15,1.55 0.23,3.54 0.23,5.99zm116.39 -86.55c3.05,0 5.24,0.68 6.44,1.99 1.2,1.32 1.8,3.24 1.8,5.72l0 94.54c0,0.72 -0.23,1.36 -0.68,1.92 -0.42,0.56 -1.17,1.02 -2.18,1.39 -1.06,0.34 -2.48,0.65 -4.3,0.84 -1.8,0.18 -4.03,0.26 -6.66,0.26 -2.75,0 -5.02,-0.08 -6.82,-0.26 -1.8,-0.19 -3.24,-0.5 -4.3,-0.84 -1.02,-0.37 -1.76,-0.83 -2.18,-1.39 -0.45,-0.57 -0.68,-1.21 -0.68,-1.92l0 -79.66 -44.07 0 0 46.26c0,5.38 0.83,9.41 2.52,12.09 1.7,2.67 4.71,4.03 9.03,4.03 1.48,0 2.79,-0.11 3.96,-0.38 1.17,-0.26 2.22,-0.56 3.13,-0.9 0.94,-0.3 1.7,-0.61 2.33,-0.87 0.6,-0.27 1.21,-0.38 1.7,-0.38 0.45,0 0.87,0.11 1.28,0.38 0.38,0.26 0.72,0.75 0.95,1.55 0.18,0.75 0.41,1.8 0.6,3.12 0.19,1.36 0.26,3.02 0.26,5.09 0,3.24 -0.18,5.69 -0.56,7.35 -0.34,1.66 -0.87,2.86 -1.55,3.61 -0.64,0.8 -1.66,1.48 -2.97,2 -1.33,0.56 -2.87,1.05 -4.6,1.43 -1.7,0.42 -3.58,0.72 -5.61,0.95 -2.03,0.22 -4.07,0.34 -6.14,0.34 -5.49,0 -10.28,-0.72 -14.35,-2.11 -4.03,-1.4 -7.38,-3.54 -10.06,-6.44 -2.63,-2.9 -4.59,-6.55 -5.83,-11 -1.25,-4.41 -1.88,-9.64 -1.88,-15.67l0 -50.44 -11.94 0c-1.4,0 -2.49,-0.87 -3.2,-2.6 -0.76,-1.73 -1.14,-4.63 -1.14,-8.7 0,-2.15 0.08,-3.96 0.27,-5.42 0.19,-1.47 0.49,-2.64 0.87,-3.5 0.34,-0.84 0.83,-1.44 1.39,-1.81 0.53,-0.38 1.21,-0.56 1.92,-0.56l11.83 0 0 -22.04c0,-0.72 0.19,-1.4 0.61,-1.99 0.41,-0.57 1.17,-1.06 2.21,-1.48 1.06,-0.41 2.52,-0.71 4.34,-0.9 1.8,-0.19 4.03,-0.27 6.7,-0.27 2.71,0 4.98,0.08 6.78,0.27 1.8,0.19 3.24,0.49 4.3,0.9 1.02,0.42 1.76,0.91 2.18,1.48 0.45,0.6 0.68,1.28 0.68,1.99l0 22.04 63.62 0zm10.28 -29.5c0,5.61 -1.13,9.45 -3.43,11.6 -2.29,2.15 -6.51,3.2 -12.73,3.2 -6.25,0 -10.5,-1.02 -12.65,-3.08 -2.18,-2.07 -3.27,-5.8 -3.27,-11.15 0,-5.61 1.13,-9.49 3.39,-11.68 2.21,-2.15 6.47,-3.24 12.76,-3.24 6.18,0 10.4,1.06 12.62,3.16 2.21,2.07 3.31,5.8 3.31,11.19zm119.89 131.76c0,0.72 -0.22,1.36 -0.68,1.92 -0.41,0.56 -1.17,1.02 -2.18,1.39 -1.05,0.34 -2.48,0.65 -4.29,0.84 -1.81,0.18 -4.03,0.26 -6.67,0.26 -2.75,0 -5.01,-0.08 -6.82,-0.26 -1.8,-0.19 -3.23,-0.5 -4.29,-0.84 -1.02,-0.37 -1.77,-0.83 -2.18,-1.39 -0.46,-0.57 -0.68,-1.21 -0.68,-1.92l0 -56.16c0,-4.79 -0.34,-8.55 -1.06,-11.26 -0.68,-2.75 -1.7,-5.09 -3.01,-7.01 -1.32,-1.95 -3.05,-3.46 -5.13,-4.56 -2.1,-1.06 -4.52,-1.59 -7.31,-1.59 -3.54,0 -7.08,1.29 -10.7,3.88 -3.57,2.56 -7.34,6.33 -11.22,11.23l0 65.46c0,0.72 -0.23,1.36 -0.68,1.92 -0.42,0.56 -1.17,1.02 -2.26,1.39 -1.06,0.34 -2.48,0.65 -4.22,0.84 -1.76,0.18 -4.03,0.26 -6.74,0.26 -2.71,0 -4.98,-0.08 -6.74,-0.26 -1.74,-0.19 -3.16,-0.5 -4.22,-0.84 -1.1,-0.37 -1.84,-0.83 -2.26,-1.39 -0.45,-0.57 -0.68,-1.21 -0.68,-1.92l0 -98.53c0,-0.72 0.19,-1.36 0.57,-1.92 0.34,-0.57 1.02,-1.02 1.95,-1.4 0.98,-0.34 2.18,-0.64 3.69,-0.83 1.52,-0.19 3.43,-0.26 5.69,-0.26 2.37,0 4.29,0.07 5.83,0.26 1.55,0.19 2.75,0.49 3.62,0.83 0.83,0.38 1.43,0.83 1.8,1.4 0.38,0.57 0.57,1.21 0.57,1.92l0 11.37c5.42,-5.87 10.96,-10.24 16.61,-13.18 5.61,-2.93 11.49,-4.41 17.59,-4.41 6.7,0 12.35,1.1 16.95,3.32 4.59,2.18 8.29,5.2 11.15,8.99 2.82,3.77 4.86,8.22 6.1,13.3 1.24,5.09 1.87,11.19 1.87,18.31l0 60.83zm115.9 -91.64c0,3.54 -0.41,6.13 -1.24,7.83 -0.8,1.7 -1.77,2.56 -2.98,2.56l-11.56 0c1.62,1.77 2.74,3.77 3.46,5.99 0.72,2.26 1.06,4.6 1.06,7.01 0,5.72 -0.98,10.81 -2.86,15.25 -1.92,4.45 -4.68,8.22 -8.26,11.27 -3.54,3.05 -7.87,5.34 -12.87,6.93 -5.06,1.58 -10.66,2.37 -16.84,2.37 -3.16,0 -6.17,-0.38 -9.03,-1.17 -2.9,-0.76 -5.09,-1.67 -6.63,-2.68 -0.91,0.95 -1.7,2.07 -2.37,3.43 -0.72,1.32 -1.06,2.79 -1.06,4.41 0,2.14 0.95,3.92 2.82,5.28 1.84,1.36 4.49,2.11 7.88,2.26l23.95 0.87c5.57,0.22 10.59,1.01 14.96,2.36 4.37,1.36 8.06,3.28 11.04,5.76 2.97,2.45 5.27,5.42 6.85,8.85 1.59,3.47 2.37,7.42 2.37,11.83 0,4.86 -1.1,9.41 -3.2,13.71 -2.14,4.34 -5.34,8.06 -9.6,11.23 -4.3,3.16 -9.64,5.64 -16.08,7.49 -6.44,1.85 -13.94,2.75 -22.57,2.75 -8.36,0 -15.52,-0.68 -21.47,-1.99 -5.91,-1.32 -10.77,-3.16 -14.54,-5.49 -3.8,-2.37 -6.55,-5.17 -8.29,-8.45 -1.74,-3.27 -2.6,-6.85 -2.6,-10.77 0,-2.41 0.31,-4.75 0.95,-6.93 0.64,-2.22 1.55,-4.33 2.75,-6.36 1.2,-2 2.71,-3.96 4.48,-5.76 1.77,-1.84 3.77,-3.62 6.06,-5.31 -3.16,-1.7 -5.61,-3.99 -7.34,-6.89 -1.74,-2.9 -2.6,-6.1 -2.6,-9.57 0,-4.33 1.02,-8.29 2.97,-11.86 2,-3.58 4.6,-6.78 7.77,-9.68 -2.6,-2.56 -4.64,-5.65 -6.18,-9.23 -1.55,-3.61 -2.33,-8.1 -2.33,-13.44 0,-5.76 1.02,-10.89 3.05,-15.41 1.99,-4.52 4.82,-8.33 8.44,-11.45 3.58,-3.13 7.91,-5.5 12.88,-7.16 5.01,-1.66 10.54,-2.48 16.57,-2.48 3.09,0 6.06,0.18 8.88,0.52 2.83,0.38 5.46,0.87 7.88,1.52l31.22 0c1.25,0 2.26,0.83 3.05,2.44 0.76,1.63 1.17,4.34 1.17,8.18zm-35.67 23.31c0,-5.28 -1.47,-9.41 -4.41,-12.35 -2.93,-2.94 -7.08,-4.41 -12.46,-4.41 -2.71,0 -5.13,0.45 -7.16,1.4 -2.07,0.9 -3.77,2.14 -5.16,3.73 -1.36,1.58 -2.37,3.43 -3.02,5.53 -0.68,2.11 -0.98,4.3 -0.98,6.55 0,5.02 1.48,8.96 4.41,11.87 2.94,2.9 7.01,4.37 12.25,4.37 2.78,0 5.24,-0.45 7.27,-1.32 2.07,-0.91 3.77,-2.1 5.13,-3.65 1.39,-1.55 2.4,-3.32 3.12,-5.35 0.68,-2.03 1.02,-4.14 1.02,-6.36zm6.52 78.54c0,-3.28 -1.33,-5.84 -3.96,-7.58 -2.67,-1.76 -6.29,-2.74 -10.92,-2.86l-19.78 -0.56c-1.87,1.39 -3.42,2.74 -4.56,4.03 -1.17,1.28 -2.06,2.48 -2.78,3.69 -0.68,1.17 -1.13,2.29 -1.36,3.39 -0.23,1.1 -0.34,2.26 -0.34,3.43 0,3.65 1.84,6.44 5.57,8.36 3.73,1.92 8.96,2.86 15.71,2.86 4.22,0 7.76,-0.41 10.62,-1.28 2.86,-0.83 5.17,-1.95 6.93,-3.35 1.77,-1.4 3.01,-2.94 3.77,-4.68 0.72,-1.73 1.1,-3.54 1.1,-5.45zm255.38 -10.21c0,0.72 -0.22,1.36 -0.68,1.92 -0.41,0.56 -1.17,1.02 -2.18,1.39 -1.06,0.34 -2.44,0.65 -4.22,0.84 -1.76,0.18 -4.03,0.26 -6.74,0.26 -2.82,0 -5.13,-0.08 -6.89,-0.26 -1.77,-0.19 -3.2,-0.5 -4.26,-0.84 -1.06,-0.37 -1.8,-0.83 -2.22,-1.39 -0.41,-0.57 -0.6,-1.21 -0.6,-1.92l0 -58.38c0,-3.31 -0.31,-6.32 -0.95,-9.03 -0.6,-2.75 -1.58,-5.09 -2.86,-7.01 -1.28,-1.95 -2.9,-3.46 -4.82,-4.56 -1.96,-1.06 -4.26,-1.59 -6.97,-1.59 -3.32,0 -6.67,1.29 -10.02,3.88 -3.39,2.56 -7.04,6.33 -11,11.23l0 65.46c0,0.72 -0.23,1.36 -0.68,1.92 -0.41,0.56 -1.17,1.02 -2.26,1.39 -1.05,0.34 -2.48,0.65 -4.25,0.84 -1.77,0.18 -4,0.26 -6.63,0.26 -2.75,0 -5.02,-0.08 -6.78,-0.26 -1.77,-0.19 -3.2,-0.5 -4.26,-0.84 -1.1,-0.37 -1.84,-0.83 -2.26,-1.39 -0.45,-0.57 -0.68,-1.21 -0.68,-1.92l0 -58.38c0,-3.31 -0.3,-6.32 -0.94,-9.03 -0.6,-2.75 -1.55,-5.09 -2.82,-7.01 -1.25,-1.95 -2.86,-3.46 -4.83,-4.56 -1.99,-1.06 -4.33,-1.59 -6.97,-1.59 -3.39,0 -6.74,1.29 -10.13,3.88 -3.39,2.56 -7.04,6.33 -10.92,11.23l0 65.46c0,0.72 -0.23,1.36 -0.68,1.92 -0.42,0.56 -1.17,1.02 -2.26,1.39 -1.06,0.34 -2.48,0.65 -4.22,0.84 -1.76,0.18 -4.03,0.26 -6.74,0.26 -2.71,0 -4.98,-0.08 -6.74,-0.26 -1.74,-0.19 -3.16,-0.5 -4.22,-0.84 -1.1,-0.37 -1.84,-0.83 -2.26,-1.39 -0.45,-0.57 -0.68,-1.21 -0.68,-1.92l0 -98.53c0,-0.72 0.19,-1.36 0.57,-1.92 0.34,-0.57 1.02,-1.02 1.95,-1.4 0.98,-0.34 2.18,-0.64 3.69,-0.83 1.52,-0.19 3.43,-0.26 5.69,-0.26 2.37,0 4.29,0.07 5.83,0.26 1.55,0.19 2.75,0.49 3.62,0.83 0.83,0.38 1.43,0.83 1.8,1.4 0.38,0.57 0.57,1.21 0.57,1.92l0 11.37c5.42,-5.87 10.85,-10.24 16.27,-13.18 5.42,-2.93 11.07,-4.41 16.94,-4.41 4.07,0 7.73,0.42 10.97,1.29 3.24,0.83 6.1,2.03 8.66,3.61 2.53,1.59 4.72,3.47 6.56,5.65 1.84,2.22 3.39,4.67 4.63,7.38 2.94,-3.16 5.84,-5.87 8.67,-8.14 2.82,-2.25 5.65,-4.14 8.4,-5.57 2.75,-1.43 5.5,-2.48 8.29,-3.16 2.75,-0.72 5.54,-1.06 8.45,-1.06 6.51,0 12.05,1.1 16.53,3.32 4.48,2.18 8.1,5.2 10.85,8.99 2.78,3.77 4.75,8.22 5.91,13.3 1.17,5.09 1.76,10.43 1.76,16.12l0 63.01zm126.67 -50.25c0,8.37 -1.09,16 -3.31,22.94 -2.22,6.9 -5.53,12.85 -10.06,17.86 -4.48,5.01 -10.09,8.85 -16.87,11.6 -6.78,2.71 -14.69,4.07 -23.73,4.07 -8.78,0 -16.38,-1.21 -22.86,-3.65 -6.48,-2.41 -11.87,-5.95 -16.12,-10.59 -4.26,-4.63 -7.42,-10.32 -9.49,-17.09 -2.07,-6.75 -3.09,-14.47 -3.09,-23.16 0,-8.37 1.14,-16.05 3.35,-22.98 2.26,-6.96 5.61,-12.91 10.14,-17.89 4.48,-4.94 10.09,-8.78 16.83,-11.53 6.7,-2.71 14.62,-4.07 23.65,-4.07 8.85,0 16.5,1.21 22.97,3.58 6.48,2.41 11.83,5.91 16.04,10.55 4.26,4.63 7.39,10.32 9.46,17.1 2.06,6.74 3.08,14.5 3.08,23.27zm-28.47 1.1c0,-4.87 -0.38,-9.34 -1.17,-13.41 -0.8,-4.11 -2.07,-7.65 -3.96,-10.66 -1.84,-3.01 -4.3,-5.38 -7.35,-7.08 -3.08,-1.7 -6.93,-2.52 -11.6,-2.52 -4.15,0 -7.76,0.75 -10.89,2.25 -3.08,1.51 -5.64,3.73 -7.65,6.63 -1.99,2.9 -3.5,6.4 -4.48,10.47 -1.02,4.11 -1.51,8.75 -1.51,13.98 0,4.86 0.41,9.33 1.21,13.4 0.83,4.11 2.14,7.65 3.95,10.66 1.81,3.02 4.26,5.35 7.39,7.01 3.08,1.66 6.93,2.48 11.53,2.48 4.22,0 7.87,-0.75 11,-2.25 3.08,-1.52 5.64,-3.7 7.64,-6.56 2,-2.9 3.47,-6.36 4.45,-10.43 0.95,-4.11 1.44,-8.74 1.44,-13.97z"/>
    <path class="fil11" d="M2574.97 4473.24c0,3.24 -0.18,5.72 -0.6,7.46 -0.42,1.74 -0.94,2.94 -1.62,3.62 -0.65,0.72 -1.63,1.36 -2.9,1.88 -1.32,0.56 -2.83,1.05 -4.56,1.43 -1.7,0.42 -3.58,0.72 -5.61,0.95 -2.03,0.22 -4.07,0.34 -6.14,0.34 -5.49,0 -10.28,-0.72 -14.35,-2.11 -4.03,-1.4 -7.38,-3.54 -10.06,-6.44 -2.63,-2.9 -4.59,-6.55 -5.83,-11 -1.25,-4.41 -1.88,-9.64 -1.88,-15.67l0 -50.44 -11.94 0c-1.4,0 -2.49,-0.87 -3.2,-2.6 -0.76,-1.73 -1.14,-4.63 -1.14,-8.7 0,-2.15 0.08,-3.96 0.27,-5.42 0.19,-1.47 0.49,-2.64 0.87,-3.5 0.34,-0.84 0.83,-1.44 1.39,-1.81 0.53,-0.38 1.21,-0.56 1.92,-0.56l11.83 0 0 -22.04c0,-0.72 0.19,-1.4 0.61,-1.99 0.41,-0.57 1.17,-1.06 2.21,-1.48 1.06,-0.41 2.52,-0.71 4.34,-0.9 1.8,-0.19 4.03,-0.27 6.7,-0.27 2.71,0 4.98,0.08 6.78,0.27 1.8,0.19 3.24,0.49 4.3,0.9 1.02,0.42 1.76,0.91 2.18,1.48 0.45,0.6 0.68,1.28 0.68,1.99l0 22.04 21.36 0c0.75,0 1.39,0.18 1.91,0.56 0.57,0.38 1.02,0.98 1.4,1.81 0.38,0.86 0.64,2.03 0.83,3.5 0.19,1.47 0.26,3.27 0.26,5.42 0,4.07 -0.37,6.97 -1.09,8.7 -0.76,1.74 -1.8,2.6 -3.2,2.6l-21.47 0 0 46.26c0,5.38 0.83,9.41 2.52,12.09 1.7,2.67 4.71,4.03 9.03,4.03 1.48,0 2.79,-0.11 3.96,-0.38 1.17,-0.26 2.22,-0.56 3.13,-0.9 0.94,-0.3 1.7,-0.61 2.33,-0.87 0.6,-0.27 1.21,-0.38 1.7,-0.38 0.45,0 0.87,0.11 1.28,0.38 0.38,0.26 0.72,0.75 0.95,1.55 0.18,0.75 0.41,1.8 0.6,3.12 0.19,1.36 0.26,3.02 0.26,5.09zm114.06 9.68c0,0.72 -0.22,1.36 -0.68,1.92 -0.41,0.56 -1.17,1.02 -2.18,1.39 -1.05,0.34 -2.48,0.65 -4.29,0.84 -1.81,0.18 -4.03,0.26 -6.67,0.26 -2.75,0 -5.01,-0.08 -6.82,-0.26 -1.8,-0.19 -3.23,-0.5 -4.29,-0.84 -1.02,-0.37 -1.77,-0.83 -2.18,-1.39 -0.46,-0.57 -0.68,-1.21 -0.68,-1.92l0 -56.16c0,-4.79 -0.34,-8.55 -1.06,-11.26 -0.68,-2.75 -1.7,-5.09 -3.01,-7.01 -1.32,-1.95 -3.05,-3.46 -5.13,-4.56 -2.1,-1.06 -4.52,-1.59 -7.31,-1.59 -3.54,0 -7.08,1.29 -10.7,3.88 -3.57,2.56 -7.34,6.33 -11.22,11.23l0 65.46c0,0.72 -0.23,1.36 -0.68,1.92 -0.42,0.56 -1.17,1.02 -2.26,1.39 -1.06,0.34 -2.48,0.65 -4.22,0.84 -1.76,0.18 -4.03,0.26 -6.74,0.26 -2.71,0 -4.98,-0.08 -6.74,-0.26 -1.74,-0.19 -3.16,-0.5 -4.22,-0.84 -1.1,-0.37 -1.84,-0.83 -2.26,-1.39 -0.45,-0.57 -0.68,-1.21 -0.68,-1.92l0 -145.21c0,-0.75 0.23,-1.39 0.68,-1.99 0.42,-0.56 1.17,-1.09 2.26,-1.47 1.06,-0.42 2.48,-0.72 4.22,-0.95 1.76,-0.22 4.03,-0.34 6.74,-0.34 2.71,0 4.98,0.12 6.74,0.34 1.74,0.23 3.16,0.53 4.22,0.95 1.1,0.38 1.84,0.91 2.26,1.47 0.45,0.61 0.68,1.29 0.68,1.99l0 54.47c4.79,-4.71 9.64,-8.21 14.61,-10.54 4.98,-2.3 10.14,-3.47 15.53,-3.47 6.7,0 12.35,1.1 16.95,3.32 4.59,2.18 8.29,5.24 11.15,9.03 2.82,3.85 4.86,8.29 6.1,13.41 1.24,5.13 1.87,11.34 1.87,18.61l0 60.38zm118.13 -52.09c0,3.39 -0.75,5.87 -2.26,7.5 -1.51,1.62 -3.57,2.44 -6.25,2.44l-59.96 0c0,4.18 0.49,7.95 1.51,11.38 0.98,3.39 2.56,6.29 4.71,8.67 2.18,2.37 4.98,4.18 8.41,5.42 3.42,1.24 7.49,1.88 12.28,1.88 4.86,0 9.11,-0.34 12.8,-1.06 3.66,-0.72 6.86,-1.48 9.53,-2.33 2.67,-0.87 4.9,-1.63 6.66,-2.34 1.77,-0.71 3.21,-1.05 4.3,-1.05 0.68,0 1.25,0.11 1.66,0.37 0.46,0.27 0.83,0.72 1.14,1.4 0.26,0.64 0.49,1.59 0.6,2.79 0.11,1.21 0.15,2.74 0.15,4.56 0,1.62 -0.04,3.01 -0.11,4.14 -0.08,1.14 -0.19,2.11 -0.34,2.9 -0.15,0.83 -0.34,1.51 -0.64,2.03 -0.31,0.57 -0.68,1.1 -1.17,1.63 -0.5,0.49 -1.77,1.2 -3.92,2.1 -2.15,0.91 -4.87,1.77 -8.18,2.63 -3.31,0.87 -7.08,1.63 -11.34,2.26 -4.26,0.64 -8.82,0.98 -13.67,0.98 -8.78,0 -16.42,-1.09 -23.01,-3.31 -6.55,-2.18 -12.06,-5.53 -16.5,-10.02 -4.41,-4.48 -7.68,-10.17 -9.86,-16.98 -2.15,-6.86 -3.24,-14.88 -3.24,-24.07 0,-8.75 1.13,-16.61 3.43,-23.65 2.25,-7.01 5.57,-12.96 9.94,-17.86 4.33,-4.9 9.6,-8.63 15.82,-11.19 6.25,-2.59 13.26,-3.88 21.06,-3.88 8.25,0 15.29,1.21 21.13,3.66 5.87,2.4 10.66,5.79 14.43,10.09 3.73,4.3 6.51,9.41 8.29,15.3 1.76,5.87 2.63,12.28 2.63,19.21l0 4.41zm-26.89 -7.91c0.23,-7.8 -1.36,-13.94 -4.71,-18.39 -3.35,-4.48 -8.52,-6.7 -15.52,-6.7 -3.54,0 -6.63,0.68 -9.23,1.99 -2.63,1.32 -4.82,3.09 -6.55,5.35 -1.74,2.25 -3.05,4.9 -3.96,7.95 -0.94,3.08 -1.47,6.32 -1.62,9.79l41.58 0zm113.11 -29.35c0,2.64 -0.07,4.83 -0.23,6.52 -0.15,1.7 -0.37,3.01 -0.64,3.95 -0.3,0.95 -0.72,1.63 -1.17,2 -0.49,0.37 -1.09,0.52 -1.84,0.52 -0.57,0 -1.25,-0.11 -1.99,-0.37 -0.72,-0.27 -1.55,-0.53 -2.48,-0.83 -0.91,-0.31 -1.92,-0.57 -3.02,-0.84 -1.13,-0.26 -2.33,-0.37 -3.65,-0.37 -1.55,0 -3.09,0.3 -4.64,0.94 -1.55,0.64 -3.16,1.59 -4.82,2.94 -1.66,1.32 -3.39,3.08 -5.2,5.28 -1.81,2.21 -3.73,4.93 -5.8,8.17l0 61.44c0,0.72 -0.23,1.36 -0.68,1.92 -0.42,0.56 -1.17,1.02 -2.26,1.39 -1.06,0.34 -2.48,0.65 -4.22,0.84 -1.76,0.18 -4.03,0.26 -6.74,0.26 -2.71,0 -4.98,-0.08 -6.74,-0.26 -1.74,-0.19 -3.16,-0.5 -4.22,-0.84 -1.1,-0.37 -1.84,-0.83 -2.26,-1.39 -0.45,-0.57 -0.68,-1.21 -0.68,-1.92l0 -98.53c0,-0.72 0.19,-1.36 0.57,-1.92 0.34,-0.57 1.02,-1.02 1.95,-1.4 0.98,-0.34 2.18,-0.64 3.69,-0.83 1.52,-0.19 3.43,-0.26 5.69,-0.26 2.37,0 4.29,0.07 5.83,0.26 1.55,0.19 2.75,0.49 3.62,0.83 0.83,0.38 1.43,0.83 1.8,1.4 0.38,0.57 0.57,1.21 0.57,1.92l0 12.28c2.56,-3.69 5.01,-6.7 7.27,-9.07 2.29,-2.37 4.48,-4.3 6.51,-5.69 2.07,-1.4 4.15,-2.37 6.22,-2.9 2.03,-0.56 4.1,-0.83 6.17,-0.83 0.95,0 1.99,0.04 3.09,0.15 1.09,0.12 2.26,0.31 3.43,0.57 1.17,0.26 2.21,0.57 3.08,0.87 0.91,0.34 1.55,0.68 1.96,1.06 0.38,0.37 0.68,0.79 0.87,1.21 0.19,0.45 0.34,1.05 0.49,1.84 0.15,0.75 0.26,1.91 0.34,3.46 0.07,1.55 0.11,3.62 0.11,6.25zm151.99 89.69c0,1.02 -0.38,1.8 -1.1,2.41 -0.76,0.6 -1.92,1.02 -3.5,1.28 -1.59,0.27 -3.92,0.38 -7.05,0.38 -3.31,0 -5.72,-0.11 -7.23,-0.38 -1.51,-0.26 -2.6,-0.68 -3.2,-1.28 -0.64,-0.61 -0.94,-1.4 -0.94,-2.41l0 -7.84c-4.07,4.34 -8.67,7.69 -13.86,10.1 -5.17,2.4 -10.93,3.61 -17.26,3.61 -5.2,0 -10.01,-0.68 -14.38,-2.03 -4.38,-1.36 -8.14,-3.39 -11.34,-6.06 -3.21,-2.71 -5.69,-6.02 -7.46,-9.98 -1.77,-3.99 -2.64,-8.63 -2.64,-13.9 0,-5.76 1.14,-10.73 3.35,-14.95 2.26,-4.26 5.61,-7.73 10.06,-10.51 4.45,-2.75 9.94,-4.79 16.57,-6.1 6.59,-1.32 14.28,-1.99 23.01,-1.99l9.6 0 0 -5.95c0,-3.09 -0.3,-5.8 -0.94,-8.14 -0.61,-2.29 -1.66,-4.26 -3.09,-5.8 -1.44,-1.55 -3.31,-2.67 -5.72,-3.42 -2.37,-0.72 -5.35,-1.1 -8.85,-1.1 -4.63,0 -8.78,0.53 -12.39,1.55 -3.65,1.02 -6.85,2.18 -9.64,3.43 -2.78,1.24 -5.12,2.4 -7,3.42 -1.88,1.02 -3.39,1.55 -4.56,1.55 -0.83,0 -1.55,-0.26 -2.15,-0.75 -0.64,-0.53 -1.17,-1.29 -1.54,-2.22 -0.42,-0.95 -0.72,-2.14 -0.95,-3.54 -0.22,-1.4 -0.34,-2.94 -0.34,-4.6 0,-2.29 0.19,-4.11 0.57,-5.42 0.34,-1.32 1.06,-2.48 2.07,-3.58 1.05,-1.06 2.82,-2.22 5.42,-3.5 2.55,-1.29 5.57,-2.48 9.03,-3.58 3.47,-1.13 7.23,-2.03 11.3,-2.71 4.11,-0.72 8.33,-1.06 12.65,-1.06 7.73,0 14.32,0.76 19.81,2.26 5.46,1.51 9.98,3.84 13.49,6.97 3.54,3.12 6.13,7.15 7.76,12.09 1.62,4.9 2.41,10.78 2.41,17.52l0 66.25zm-27.35 -42.26l-10.58 0c-4.49,0 -8.29,0.34 -11.46,0.98 -3.16,0.68 -5.72,1.66 -7.72,3.01 -1.99,1.32 -3.43,2.9 -4.33,4.79 -0.95,1.88 -1.4,4.03 -1.4,6.44 0,4.14 1.32,7.38 3.92,9.71 2.59,2.37 6.21,3.55 10.85,3.55 3.88,0 7.46,-0.99 10.73,-2.98 3.28,-1.99 6.59,-4.9 9.98,-8.74l0 -16.76zm149.08 41.92c0,0.72 -0.22,1.36 -0.68,1.92 -0.41,0.56 -1.17,1.02 -2.18,1.39 -1.05,0.34 -2.48,0.65 -4.29,0.84 -1.81,0.18 -4.03,0.26 -6.67,0.26 -2.75,0 -5.01,-0.08 -6.82,-0.26 -1.8,-0.19 -3.23,-0.5 -4.29,-0.84 -1.02,-0.37 -1.77,-0.83 -2.18,-1.39 -0.46,-0.57 -0.68,-1.21 -0.68,-1.92l0 -56.16c0,-4.79 -0.34,-8.55 -1.06,-11.26 -0.68,-2.75 -1.7,-5.09 -3.01,-7.01 -1.32,-1.95 -3.05,-3.46 -5.13,-4.56 -2.1,-1.06 -4.52,-1.59 -7.31,-1.59 -3.54,0 -7.08,1.29 -10.7,3.88 -3.57,2.56 -7.34,6.33 -11.22,11.23l0 65.46c0,0.72 -0.23,1.36 -0.68,1.92 -0.42,0.56 -1.17,1.02 -2.26,1.39 -1.06,0.34 -2.48,0.65 -4.22,0.84 -1.76,0.18 -4.03,0.26 -6.74,0.26 -2.71,0 -4.98,-0.08 -6.74,-0.26 -1.74,-0.19 -3.16,-0.5 -4.22,-0.84 -1.1,-0.37 -1.84,-0.83 -2.26,-1.39 -0.45,-0.57 -0.68,-1.21 -0.68,-1.92l0 -98.53c0,-0.72 0.19,-1.36 0.57,-1.92 0.34,-0.57 1.02,-1.02 1.95,-1.4 0.98,-0.34 2.18,-0.64 3.69,-0.83 1.52,-0.19 3.43,-0.26 5.69,-0.26 2.37,0 4.29,0.07 5.83,0.26 1.55,0.19 2.75,0.49 3.62,0.83 0.83,0.38 1.43,0.83 1.8,1.4 0.38,0.57 0.57,1.21 0.57,1.92l0 11.37c5.42,-5.87 10.96,-10.24 16.61,-13.18 5.61,-2.93 11.49,-4.41 17.59,-4.41 6.7,0 12.35,1.1 16.95,3.32 4.59,2.18 8.29,5.2 11.15,8.99 2.82,3.77 4.86,8.22 6.1,13.3 1.24,5.09 1.87,11.19 1.87,18.31l0 60.83zm120.61 0c0,0.79 -0.18,1.47 -0.56,2.03 -0.34,0.57 -0.98,1.02 -1.84,1.4 -0.91,0.34 -2.11,0.6 -3.62,0.75 -1.51,0.15 -3.35,0.23 -5.53,0.23 -2.37,0 -4.3,-0.08 -5.76,-0.23 -1.47,-0.15 -2.64,-0.41 -3.58,-0.75 -0.91,-0.38 -1.59,-0.87 -1.95,-1.4 -0.42,-0.57 -0.65,-1.25 -0.65,-2.07l0 -10.96c-5.05,5.46 -10.39,9.68 -15.92,12.69 -5.58,3.01 -11.72,4.52 -18.5,4.52 -7.5,0 -13.86,-1.47 -19.03,-4.37 -5.2,-2.9 -9.41,-6.82 -12.69,-11.75 -3.27,-4.9 -5.64,-10.66 -7.12,-17.25 -1.47,-6.59 -2.21,-13.52 -2.21,-20.8 0,-8.74 0.94,-16.6 2.82,-23.61 1.88,-6.97 4.6,-12.92 8.21,-17.85 3.62,-4.94 8.1,-8.71 13.49,-11.38 5.34,-2.64 11.52,-3.96 18.53,-3.96 5.5,0 10.51,1.14 14.99,3.35 4.53,2.26 8.96,5.54 13.37,9.87l0 -53.22c0,-0.76 0.19,-1.4 0.61,-1.99 0.41,-0.57 1.13,-1.1 2.22,-1.48 1.05,-0.41 2.48,-0.72 4.22,-0.94 1.76,-0.23 4.03,-0.34 6.74,-0.34 2.71,0 4.98,0.11 6.74,0.34 1.74,0.22 3.16,0.53 4.18,0.94 1.02,0.38 1.77,0.91 2.18,1.48 0.46,0.6 0.68,1.24 0.68,1.99l0 144.75zm-27.57 -65.8c-3.95,-5.01 -7.8,-8.82 -11.41,-11.49 -3.66,-2.63 -7.46,-3.96 -11.45,-3.96 -3.58,0 -6.71,0.91 -9.3,2.71 -2.64,1.81 -4.72,4.19 -6.29,7.2 -1.59,3.05 -2.79,6.4 -3.54,10.09 -0.8,3.73 -1.17,7.54 -1.17,11.42 0,4.14 0.34,8.14 0.98,12.02 0.68,3.91 1.76,7.38 3.27,10.43 1.51,3.05 3.51,5.49 6.03,7.35 2.48,1.84 5.64,2.74 9.49,2.74 1.88,0 3.76,-0.26 5.57,-0.83 1.8,-0.57 3.61,-1.43 5.49,-2.71 1.88,-1.24 3.81,-2.86 5.8,-4.9 1.99,-2.03 4.18,-4.48 6.51,-7.42l0 -32.66zm180.96 50.1c0,1.92 -0.04,3.5 -0.15,4.82 -0.12,1.29 -0.27,2.37 -0.46,3.28 -0.19,0.87 -0.41,1.59 -0.68,2.14 -0.26,0.57 -0.83,1.25 -1.7,2.11 -0.9,0.83 -2.41,1.88 -4.52,3.09 -2.14,1.2 -4.56,2.29 -7.31,3.27 -2.71,0.95 -5.64,1.74 -8.85,2.3 -3.2,0.6 -6.51,0.9 -9.9,0.9 -7.57,0 -14.28,-1.17 -20.11,-3.54 -5.87,-2.33 -10.77,-5.83 -14.77,-10.43 -3.95,-4.6 -6.97,-10.25 -8.96,-16.87 -2.03,-6.63 -3.05,-14.2 -3.05,-22.76 0,-9.87 1.25,-18.42 3.69,-25.58 2.49,-7.19 5.91,-13.14 10.32,-17.85 4.41,-4.71 9.64,-8.22 15.68,-10.51 6.02,-2.29 12.65,-3.43 19.88,-3.43 2.94,0 5.8,0.27 8.67,0.8 2.82,0.49 5.46,1.2 7.95,2.06 2.45,0.91 4.67,1.88 6.59,2.98 1.95,1.13 3.35,2.07 4.15,2.9 0.83,0.79 1.39,1.47 1.73,2.03 0.31,0.56 0.57,1.28 0.76,2.14 0.19,0.91 0.34,1.99 0.45,3.28 0.12,1.32 0.15,2.86 0.15,4.71 0,4.29 -0.34,7.31 -1.09,9.03 -0.76,1.74 -1.7,2.6 -2.86,2.6 -1.25,0 -2.6,-0.53 -4,-1.55 -1.39,-1.02 -3.05,-2.18 -4.97,-3.43 -1.88,-1.24 -4.19,-2.4 -6.82,-3.42 -2.63,-1.02 -5.8,-1.55 -9.49,-1.55 -7.23,0 -12.73,2.78 -16.57,8.32 -3.8,5.58 -5.72,13.71 -5.72,24.45 0,5.28 0.49,9.94 1.43,14.01 0.99,4.03 2.37,7.42 4.26,10.13 1.88,2.71 4.22,4.79 7.05,6.14 2.86,1.36 6.13,2.03 9.9,2.03 3.81,0 7.12,-0.57 9.87,-1.74 2.74,-1.13 5.16,-2.41 7.23,-3.8 2.03,-1.4 3.77,-2.68 5.2,-3.81 1.4,-1.17 2.56,-1.74 3.51,-1.74 0.68,0 1.2,0.19 1.66,0.57 0.45,0.38 0.79,1.06 1.06,2.03 0.26,1.02 0.45,2.29 0.6,3.84 0.15,1.55 0.23,3.54 0.23,5.99zm114.24 15.71c0,0.72 -0.22,1.36 -0.68,1.92 -0.41,0.56 -1.17,1.02 -2.18,1.39 -1.05,0.34 -2.48,0.65 -4.29,0.84 -1.81,0.18 -4.03,0.26 -6.67,0.26 -2.75,0 -5.01,-0.08 -6.82,-0.26 -1.8,-0.19 -3.23,-0.5 -4.29,-0.84 -1.02,-0.37 -1.77,-0.83 -2.18,-1.39 -0.46,-0.57 -0.68,-1.21 -0.68,-1.92l0 -56.16c0,-4.79 -0.34,-8.55 -1.06,-11.26 -0.68,-2.75 -1.7,-5.09 -3.01,-7.01 -1.32,-1.95 -3.05,-3.46 -5.13,-4.56 -2.1,-1.06 -4.52,-1.59 -7.31,-1.59 -3.54,0 -7.08,1.29 -10.7,3.88 -3.57,2.56 -7.34,6.33 -11.22,11.23l0 65.46c0,0.72 -0.23,1.36 -0.68,1.92 -0.42,0.56 -1.17,1.02 -2.26,1.39 -1.06,0.34 -2.48,0.65 -4.22,0.84 -1.76,0.18 -4.03,0.26 -6.74,0.26 -2.71,0 -4.98,-0.08 -6.74,-0.26 -1.74,-0.19 -3.16,-0.5 -4.22,-0.84 -1.1,-0.37 -1.84,-0.83 -2.26,-1.39 -0.45,-0.57 -0.68,-1.21 -0.68,-1.92l0 -145.21c0,-0.75 0.23,-1.39 0.68,-1.99 0.42,-0.56 1.17,-1.09 2.26,-1.47 1.06,-0.42 2.48,-0.72 4.22,-0.95 1.76,-0.22 4.03,-0.34 6.74,-0.34 2.71,0 4.98,0.12 6.74,0.34 1.74,0.23 3.16,0.53 4.22,0.95 1.1,0.38 1.84,0.91 2.26,1.47 0.45,0.61 0.68,1.29 0.68,1.99l0 54.47c4.79,-4.71 9.64,-8.21 14.61,-10.54 4.98,-2.3 10.14,-3.47 15.53,-3.47 6.7,0 12.35,1.1 16.95,3.32 4.59,2.18 8.29,5.24 11.15,9.03 2.82,3.85 4.86,8.29 6.1,13.41 1.24,5.13 1.87,11.34 1.87,18.61l0 60.38zm55.07 0c0,0.72 -0.23,1.36 -0.68,1.92 -0.42,0.56 -1.17,1.02 -2.26,1.39 -1.06,0.34 -2.48,0.65 -4.22,0.84 -1.76,0.18 -4.03,0.26 -6.74,0.26 -2.71,0 -4.98,-0.08 -6.74,-0.26 -1.74,-0.19 -3.16,-0.5 -4.22,-0.84 -1.1,-0.37 -1.84,-0.83 -2.26,-1.39 -0.45,-0.57 -0.68,-1.21 -0.68,-1.92l0 -98.31c0,-0.72 0.23,-1.36 0.68,-1.91 0.42,-0.57 1.17,-1.06 2.26,-1.44 1.06,-0.42 2.48,-0.72 4.22,-0.94 1.76,-0.23 4.03,-0.34 6.74,-0.34 2.71,0 4.98,0.11 6.74,0.34 1.74,0.22 3.16,0.52 4.22,0.94 1.1,0.38 1.84,0.87 2.26,1.44 0.45,0.56 0.68,1.2 0.68,1.91l0 98.31zm2.25 -131.99c0,5.61 -1.13,9.45 -3.42,11.61 -2.3,2.14 -6.52,3.2 -12.73,3.2 -6.25,0 -10.51,-1.02 -12.65,-3.09 -2.18,-2.07 -3.28,-5.8 -3.28,-11.15 0,-5.61 1.14,-9.49 3.39,-11.68 2.22,-2.14 6.48,-3.24 12.77,-3.24 6.17,0 10.39,1.06 12.61,3.16 2.22,2.07 3.31,5.8 3.31,11.19zm53.27 131.99c0,0.72 -0.23,1.36 -0.68,1.92 -0.42,0.56 -1.17,1.02 -2.26,1.39 -1.06,0.34 -2.48,0.65 -4.22,0.84 -1.76,0.18 -4.03,0.26 -6.74,0.26 -2.71,0 -4.98,-0.08 -6.74,-0.26 -1.74,-0.19 -3.16,-0.5 -4.22,-0.84 -1.1,-0.37 -1.84,-0.83 -2.26,-1.39 -0.45,-0.57 -0.68,-1.21 -0.68,-1.92l0 -145.21c0,-0.75 0.23,-1.39 0.68,-1.99 0.42,-0.56 1.17,-1.09 2.26,-1.47 1.06,-0.42 2.48,-0.72 4.22,-0.95 1.76,-0.22 4.03,-0.34 6.74,-0.34 2.71,0 4.98,0.12 6.74,0.34 1.74,0.23 3.16,0.53 4.22,0.95 1.1,0.38 1.84,0.91 2.26,1.47 0.45,0.61 0.68,1.25 0.68,1.99l0 145.21zm121.06 0c0,0.79 -0.18,1.47 -0.56,2.03 -0.34,0.57 -0.98,1.02 -1.84,1.4 -0.91,0.34 -2.11,0.6 -3.62,0.75 -1.51,0.15 -3.35,0.23 -5.53,0.23 -2.37,0 -4.3,-0.08 -5.76,-0.23 -1.47,-0.15 -2.64,-0.41 -3.58,-0.75 -0.91,-0.38 -1.59,-0.87 -1.95,-1.4 -0.42,-0.57 -0.65,-1.25 -0.65,-2.07l0 -10.96c-5.05,5.46 -10.39,9.68 -15.92,12.69 -5.58,3.01 -11.72,4.52 -18.5,4.52 -7.5,0 -13.86,-1.47 -19.03,-4.37 -5.2,-2.9 -9.41,-6.82 -12.69,-11.75 -3.27,-4.9 -5.64,-10.66 -7.12,-17.25 -1.47,-6.59 -2.21,-13.52 -2.21,-20.8 0,-8.74 0.94,-16.6 2.82,-23.61 1.88,-6.97 4.6,-12.92 8.21,-17.85 3.62,-4.94 8.1,-8.71 13.49,-11.38 5.34,-2.64 11.52,-3.96 18.53,-3.96 5.5,0 10.51,1.14 14.99,3.35 4.53,2.26 8.96,5.54 13.37,9.87l0 -53.22c0,-0.76 0.19,-1.4 0.61,-1.99 0.41,-0.57 1.13,-1.1 2.22,-1.48 1.05,-0.41 2.48,-0.72 4.22,-0.94 1.76,-0.23 4.03,-0.34 6.74,-0.34 2.71,0 4.98,0.11 6.74,0.34 1.74,0.22 3.16,0.53 4.18,0.94 1.02,0.38 1.77,0.91 2.18,1.48 0.46,0.6 0.68,1.24 0.68,1.99l0 144.75zm-27.57 -65.8c-3.95,-5.01 -7.8,-8.82 -11.41,-11.49 -3.66,-2.63 -7.46,-3.96 -11.45,-3.96 -3.58,0 -6.71,0.91 -9.3,2.71 -2.64,1.81 -4.72,4.19 -6.29,7.2 -1.59,3.05 -2.79,6.4 -3.54,10.09 -0.8,3.73 -1.17,7.54 -1.17,11.42 0,4.14 0.34,8.14 0.98,12.02 0.68,3.91 1.76,7.38 3.27,10.43 1.51,3.05 3.51,5.49 6.03,7.35 2.48,1.84 5.64,2.74 9.49,2.74 1.88,0 3.76,-0.26 5.57,-0.83 1.8,-0.57 3.61,-1.43 5.49,-2.71 1.88,-1.24 3.81,-2.86 5.8,-4.9 1.99,-2.03 4.18,-4.48 6.51,-7.42l0 -32.66z"/>
   </g>
  </g>
 </g>
</svg>
