<svg width="313" height="314" viewBox="0 0 313 314" fill="none" xmlns="http://www.w3.org/2000/svg">
<path fill-rule="evenodd" clip-rule="evenodd" d="M5.39551 156.539C5.94779 156.539 6.39551 156.987 6.39551 157.539V157.54L4.39551 157.54V157.539C4.39551 156.987 4.84322 156.539 5.39551 156.539ZM15.1104 185.594C15.1104 188.775 13.1439 191.496 10.3601 192.61C23.3402 248.718 66.9901 291.84 123.417 304.089C124.408 301.072 127.248 298.894 130.597 298.894C134.77 298.894 138.152 302.275 138.152 306.447C138.152 310.618 134.77 314 130.597 314C126.424 314 123.042 310.618 123.042 306.447C123.042 306.316 123.045 306.186 123.052 306.056C65.8537 293.664 21.5886 249.959 8.41989 193.099C8.13614 193.131 7.84761 193.148 7.5552 193.148C3.38258 193.148 0 189.766 0 185.594C0 181.423 3.38258 178.041 7.5552 178.041C11.7278 178.041 15.1104 181.423 15.1104 185.594ZM7.5552 192.148C11.1758 192.148 14.1104 189.213 14.1104 185.594C14.1104 181.975 11.1758 179.041 7.5552 179.041C3.93462 179.041 1 181.975 1 185.594C1 189.213 3.93462 192.148 7.5552 192.148ZM137.152 306.447C137.152 310.066 134.218 313 130.597 313C126.976 313 124.042 310.066 124.042 306.447C124.042 302.828 126.976 299.894 130.597 299.894C134.218 299.894 137.152 302.828 137.152 306.447Z" fill="url(#paint0_linear_1244_1375)"/>
<path fill-rule="evenodd" clip-rule="evenodd" d="M191.117 7.55326C191.117 11.1723 188.183 14.1065 184.562 14.1065C180.941 14.1065 178.007 11.1723 178.007 7.55326C178.007 3.93424 180.941 1 184.562 1C188.183 1 191.117 3.93424 191.117 7.55326ZM192.117 7.55326C192.117 11.7248 188.735 15.1065 184.562 15.1065C180.389 15.1065 177.007 11.7248 177.007 7.55326C177.007 3.38171 180.389 0 184.562 0C188.735 0 192.117 3.38171 192.117 7.55326ZM192.839 9.62412C192.708 10.1605 193.036 10.702 193.572 10.8337C194.851 11.1477 196.123 11.4777 197.388 11.8235C197.921 11.9691 198.471 11.6553 198.616 11.1226C198.762 10.5898 198.448 10.0399 197.915 9.89427C196.634 9.54391 195.345 9.20954 194.049 8.89138C193.512 8.75971 192.971 9.08776 192.839 9.62412ZM200.499 11.6638C200.34 12.1926 200.639 12.7505 201.168 12.91C202.429 13.2903 203.682 13.6865 204.928 14.0982C205.452 14.2716 206.018 13.987 206.191 13.4626C206.365 12.9382 206.08 12.3726 205.556 12.1993C204.293 11.782 203.023 11.3806 201.746 10.9952C201.217 10.8357 200.659 11.1351 200.499 11.6638ZM208.043 14.1017C207.856 14.6213 208.125 15.1942 208.645 15.3813C209.884 15.8272 211.115 16.2889 212.337 16.7658C212.852 16.9665 213.432 16.7122 213.633 16.1976C213.833 15.6831 213.579 15.1033 213.064 14.9026C211.825 14.4192 210.578 13.9514 209.322 13.4995C208.803 13.3124 208.23 13.582 208.043 14.1017ZM215.45 16.9343C215.235 17.4434 215.474 18.0297 215.983 18.2439C217.196 18.7543 218.4 19.2801 219.595 19.8209C220.099 20.0485 220.691 19.8252 220.919 19.322C221.146 18.8189 220.923 18.2264 220.42 17.9987C219.208 17.4506 217.988 16.9178 216.759 16.4006C216.25 16.1863 215.664 16.4253 215.45 16.9343ZM222.696 20.1547C222.455 20.6517 222.662 21.2499 223.159 21.4908C224.342 22.0644 225.516 22.653 226.681 23.2563C227.171 23.5104 227.775 23.3188 228.029 22.8285C228.283 22.3381 228.091 21.7346 227.601 21.4805C226.421 20.869 225.231 20.2725 224.032 19.6912C223.535 19.4502 222.937 19.6578 222.696 20.1547ZM229.76 23.7551C229.493 24.2385 229.669 24.8469 230.152 25.114C231.302 25.7493 232.443 26.3992 233.573 27.0636C234.05 27.3434 234.662 27.1843 234.942 26.7081C235.222 26.232 235.063 25.6191 234.587 25.3393C233.441 24.6659 232.285 24.0072 231.119 23.3633C230.636 23.0962 230.027 23.2717 229.76 23.7551ZM236.623 27.7263C236.331 28.1948 236.473 28.8116 236.942 29.1041C238.056 29.7994 239.16 30.5091 240.253 31.2328C240.714 31.5376 241.334 31.4114 241.639 30.9508C241.944 30.4903 241.818 29.8698 241.357 29.565C240.249 28.8315 239.13 28.1122 238.001 27.4074C237.532 27.115 236.915 27.2578 236.623 27.7263ZM243.264 32.0576C242.947 32.5098 243.056 33.1334 243.509 33.4505C244.584 34.204 245.648 34.9715 246.701 35.7526C247.145 36.0816 247.771 35.9887 248.1 35.5451C248.429 35.1015 248.336 34.4751 247.893 34.1462C246.825 33.3545 245.746 32.5766 244.657 31.8127C244.204 31.4957 243.581 31.6054 243.264 32.0576ZM249.664 36.7372C249.323 37.1719 249.399 37.8005 249.834 38.1412C250.867 38.9511 251.889 39.7745 252.899 40.6111C253.325 40.9633 253.955 40.904 254.307 40.4786C254.659 40.0532 254.6 39.4228 254.175 39.0706C253.151 38.2226 252.115 37.3881 251.067 36.5671C250.633 36.2264 250.004 36.3026 249.664 36.7372ZM255.804 41.7521C255.441 42.168 255.483 42.7997 255.899 43.1632C256.887 44.0271 257.864 44.9041 258.828 45.7938C259.234 46.1683 259.867 46.1428 260.241 45.7368C260.616 45.3309 260.59 44.6982 260.184 44.3238C259.207 43.4219 258.217 42.5331 257.215 41.6574C256.799 41.2939 256.168 41.3363 255.804 41.7521ZM261.668 47.0882C261.283 47.484 261.291 48.1171 261.687 48.5023C262.628 49.4178 263.556 50.3457 264.472 51.286C264.857 51.6817 265.49 51.69 265.886 51.3047C266.281 50.9193 266.29 50.2862 265.904 49.8906C264.976 48.9375 264.035 47.9969 263.082 47.069C262.686 46.6839 262.053 46.6924 261.668 47.0882ZM267.238 52.7304C266.832 53.105 266.807 53.7377 267.181 54.1435C268.071 55.1077 268.949 56.084 269.813 57.072C270.177 57.4877 270.809 57.5299 271.224 57.1663C271.64 56.8026 271.682 56.1709 271.318 55.7552C270.442 54.7537 269.553 53.7642 268.651 52.7869C268.276 52.3811 267.644 52.3558 267.238 52.7304ZM272.498 58.6627C272.073 59.0151 272.014 59.6455 272.366 60.0707C273.203 61.0808 274.027 62.1024 274.837 63.1353C275.178 63.5699 275.807 63.6458 276.241 63.3049C276.676 62.964 276.752 62.3354 276.411 61.9009C275.59 60.854 274.755 59.8185 273.906 58.7946C273.554 58.3694 272.924 58.3103 272.498 58.6627ZM277.434 64.8679C276.991 65.197 276.898 65.8234 277.227 66.2669C278.009 67.3199 278.776 68.3839 279.53 69.4586C279.848 69.9108 280.471 70.0202 280.923 69.703C281.376 69.3858 281.485 68.7622 281.168 68.31C280.404 67.2207 279.625 66.1422 278.833 65.0749C278.504 64.6314 277.878 64.5387 277.434 64.8679ZM282.031 71.3272C281.57 71.6322 281.444 72.2527 281.749 72.7131C282.473 73.8063 283.183 74.9099 283.879 76.0238C284.172 76.4922 284.789 76.6347 285.257 76.3422C285.725 76.0496 285.868 75.4327 285.575 74.9642C284.87 73.8353 284.151 72.7167 283.417 71.6087C283.112 71.1483 282.491 71.0222 282.031 71.3272ZM286.276 78.0226C285.8 78.3026 285.641 78.9155 285.921 79.3915C286.586 80.5218 287.236 81.662 287.872 82.812C288.139 83.2953 288.747 83.4705 289.231 83.2033C289.714 82.9361 289.889 82.3277 289.622 81.8444C288.978 80.6789 288.318 79.5232 287.645 78.3776C287.365 77.9016 286.752 77.7426 286.276 78.0226ZM290.158 84.9347C289.667 85.189 289.476 85.7925 289.73 86.2828C290.334 87.4471 290.923 88.6208 291.497 89.8036C291.738 90.3005 292.336 90.5079 292.833 90.2668C293.33 90.0257 293.537 89.4274 293.296 88.9305C292.715 87.7318 292.118 86.5422 291.506 85.3622C291.252 84.8719 290.648 84.6805 290.158 84.9347ZM293.666 92.0437C293.163 92.2715 292.94 92.8641 293.168 93.3672C293.709 94.5622 294.235 95.7661 294.746 96.9786C294.96 97.4876 295.547 97.7264 296.056 97.512C296.565 97.2976 296.803 96.7112 296.589 96.2023C296.071 94.9735 295.538 93.7533 294.99 92.5422C294.762 92.0391 294.169 91.8159 293.666 92.0437ZM296.793 99.329C296.278 99.5299 296.024 100.11 296.225 100.624C296.702 101.847 297.164 103.078 297.61 104.316C297.798 104.836 298.371 105.105 298.89 104.918C299.41 104.731 299.679 104.158 299.492 103.639C299.04 102.383 298.572 101.136 298.088 99.8968C297.887 99.3824 297.307 99.1281 296.793 99.329ZM299.53 106.77C299.005 106.943 298.721 107.509 298.894 108.033C299.306 109.279 299.703 110.532 300.083 111.793C300.243 112.321 300.801 112.621 301.33 112.461C301.858 112.301 302.158 111.743 301.998 111.215C301.612 109.937 301.211 108.667 300.793 107.405C300.62 106.881 300.054 106.596 299.53 106.77ZM301.871 114.344C301.339 114.49 301.025 115.04 301.171 115.572C301.517 116.837 301.847 118.109 302.161 119.388C302.293 119.925 302.835 120.253 303.371 120.121C303.907 119.989 304.235 119.447 304.103 118.911C303.785 117.615 303.45 116.326 303.1 115.045C302.954 114.512 302.404 114.198 301.871 114.344ZM303.814 122.031C303.274 122.148 302.932 122.681 303.05 123.221C303.062 123.276 303.074 123.331 303.086 123.386C300.069 124.376 297.89 127.215 297.89 130.564C297.89 134.735 301.272 138.117 305.445 138.117C309.617 138.117 313 134.735 313 130.564C313 126.392 309.617 123.01 305.445 123.01C305.314 123.01 305.183 123.014 305.053 123.02C305.037 122.945 305.021 122.87 305.004 122.794C304.886 122.255 304.354 121.913 303.814 122.031ZM305.445 137.117C309.065 137.117 312 134.183 312 130.564C312 126.944 309.065 124.01 305.445 124.01C301.824 124.01 298.89 126.944 298.89 130.564C298.89 134.183 301.824 137.117 305.445 137.117Z" fill="url(#paint1_linear_1244_1375)"/>
<defs>
<linearGradient id="paint0_linear_1244_1375" x1="-15.5" y1="184.5" x2="154" y2="330.5" gradientUnits="userSpaceOnUse">
<stop stop-color="#FF7222"/>
<stop offset="1" stop-color="#FF166A"/>
</linearGradient>
<linearGradient id="paint1_linear_1244_1375" x1="170" y1="-10" x2="313" y2="138" gradientUnits="userSpaceOnUse">
<stop stop-color="#FF7222"/>
<stop offset="1" stop-color="#FF166A"/>
</linearGradient>
</defs>
</svg>
