<svg width="88" height="87" viewBox="0 0 88 87" fill="none" xmlns="http://www.w3.org/2000/svg">
<path d="M83.8806 34.3061C80.0431 49.5635 65.5004 60.2494 51.001 64.5581C44.0509 66.6253 36.214 66.894 30.1027 62.4457C27.2385 60.3606 24.9706 57.3434 24.3072 53.818C23.8777 51.5371 24.116 48.5408 26.3465 47.2598C29.3611 45.5234 31.2933 49.074 30.4351 51.661C28.8719 56.3882 21.6207 55.3972 18.049 54.4118C13.3293 53.1088 9.12303 50.5031 5.21354 47.6289C4.16268 46.8582 3.11483 48.6081 4.17049 49.3708C8.66545 52.6391 13.61 55.5563 19.1228 56.6705C23.0152 57.4563 27.9021 57.5809 30.8762 54.4766C33.1274 52.1253 33.2914 47.5178 30.3705 45.5729C26.9153 43.2755 23.0497 46.5967 22.3259 50.004C20.4773 58.6784 29.2759 66.0524 36.931 67.5137C46.3834 69.3168 56.3742 65.333 64.3472 60.5217C74.0346 54.6644 82.2194 45.8291 84.7581 34.5486C84.8873 33.9786 84.025 33.7288 83.8806 34.3061Z" fill="#FF7F18"/>
<path d="M14.3364 46.6942C14.1307 47.6645 11.0418 47.6264 10.3822 47.6286C9.0863 47.6305 7.83819 47.3891 6.58683 47.0804C5.59006 46.8371 4.21462 46.5086 3.60169 47.6593C3.03192 48.738 4.03293 50.1643 4.46918 51.0893C5.56866 53.4504 6.60336 55.8652 7.81805 58.1703C8.39774 59.2736 9.92658 58.3557 9.47417 57.2579C8.69769 55.3839 7.77479 53.5637 6.9095 51.7291C6.67854 51.2426 5.56047 49.5939 5.76333 49.0734C5.9534 48.5834 6.75664 49.0317 7.41469 49.132C9.65544 49.4782 13.7819 49.7187 15.3867 47.7746C15.5922 47.5223 15.6568 47.2509 15.5165 46.9493C15.4587 46.8277 15.3994 46.6996 15.3416 46.578C15.1412 46.1588 14.4336 46.241 14.3364 46.6942Z" fill="#FF7F18"/>
<path d="M85.9368 34.5693C86.41 33.7973 85.6367 32.7902 84.7644 33.0567C84.6076 33.1097 84.4436 33.2291 84.4093 33.4044C84.2587 34.201 84.4787 34.9692 85.1283 35.4834C85.3022 35.6201 85.568 35.7303 85.776 35.5828C87.0663 34.6908 86.3212 32.9553 85.4127 32.0468C84.9632 31.5982 84.3498 31.2417 83.7024 31.4688C82.939 31.7352 82.7565 32.567 82.886 33.2865C83.1209 34.6022 84.3127 36.355 85.8618 35.7212C87.3741 35.1036 86.8247 33.0229 85.841 32.1945C84.8021 31.3221 83.2333 31.4436 82.5605 32.6945C81.9579 33.8188 82.4155 35.3713 83.8053 35.5398C85.2862 35.7194 86.4696 34.1975 85.7184 32.8446C85.4041 32.2974 84.8026 31.8664 84.1598 31.8406C83.3922 31.8052 82.7419 32.3461 82.8794 33.152C82.9599 33.6354 83.2053 34.1251 83.3778 34.582C83.5278 34.9765 83.6882 35.3718 84.0527 35.6172C84.6197 36.0057 85.3304 35.8546 85.811 35.3971C86.3253 34.9108 86.5192 34.1782 86.2768 33.5109C85.9559 32.6387 85.1246 32.1463 84.3334 31.7596C84.0347 31.6134 83.5785 31.6394 83.4179 31.9893C82.7588 33.3899 83.2711 35.1872 84.746 35.8311C85.0559 35.9677 85.5066 35.9601 85.6743 35.5981C86.3039 34.256 85.1972 32.761 83.723 32.988C82.8546 33.1208 83.192 34.4381 84.0539 34.3069C84.3036 34.2714 84.6209 34.6682 84.5107 34.9068C84.8204 34.8257 85.1317 34.751 85.4414 34.6698C84.6935 34.3471 84.1901 33.4799 84.5632 32.6751C84.2559 32.7522 83.9486 32.8293 83.6477 32.9048C84.0793 33.1198 85.3733 33.6661 84.988 34.3276C84.8362 34.5903 84.8113 34.5319 84.6927 34.3575C84.4667 34.0263 84.3253 33.4357 84.1993 33.0556C84.1712 32.93 84.148 32.9596 84.1305 33.1341C84.205 33.1461 84.2698 33.174 84.3275 33.214C84.4429 33.3484 84.5886 33.4139 84.6432 33.6043C84.7428 33.9468 84.4813 34.22 84.1507 34.2723C83.4873 34.381 83.4386 33.6446 83.7072 33.2234C84.0685 32.6563 84.7778 32.8526 85.1784 33.2829C85.4028 33.526 85.5928 33.8901 85.5563 34.2327C85.5023 34.6954 85.1132 34.6637 84.8048 34.4247C84.5045 34.1904 84.3023 33.7103 84.1828 33.3558C84.08 33.0549 83.9346 32.4075 84.4168 32.7561C84.8589 33.0807 85.7572 34.2605 85.1469 34.7165C85.3638 34.6995 85.5815 34.6721 85.7968 34.6487C85.4299 34.3801 85.3247 33.9744 85.3788 33.5389C85.2556 33.6991 85.1309 33.8529 85.0102 34.009C85.1046 33.9513 85.1606 33.9849 85.176 34.1138C84.9139 34.6151 85.6379 35.0595 85.9368 34.5693Z" fill="#FF7F18"/>
</svg>
