<svg width="74" height="72" viewBox="0 0 74 72" fill="none" xmlns="http://www.w3.org/2000/svg">
<path d="M3.15268 12.58C1.03504 28.1695 10.5549 43.5008 22.4085 52.8971C28.0896 57.4029 35.2633 60.5694 42.5913 58.7157C46.0258 57.8466 49.2539 55.8904 51.182 52.8653C52.4296 50.9082 53.3237 48.0385 51.7304 46.0192C49.5788 43.2855 46.4638 45.8618 46.2973 48.5823C45.9885 53.5516 53.0875 55.3311 56.7693 55.746C61.6349 56.2935 66.5088 55.4407 71.2073 54.2284C72.4695 53.9042 72.7907 55.9184 71.527 56.2334C66.1384 57.5936 60.4633 58.4607 54.9319 57.4427C51.0267 56.7231 46.4447 55.0197 44.8398 51.0313C43.6257 48.0111 45.1885 43.6736 48.6235 42.9557C52.6855 42.1095 55.0371 46.631 54.4405 50.0629C52.9273 58.8021 42.0162 62.371 34.3673 60.8777C24.9229 59.0327 17.133 51.6162 11.5239 44.1829C4.71295 35.1404 0.405188 23.8934 2.24795 12.4785C2.34025 11.9014 3.23356 11.9905 3.15268 12.58Z" fill="#FF7F18"/>
<path d="M63.0874 49.9649C62.9171 50.942 65.7983 52.0564 66.4096 52.304C67.6117 52.7882 68.86 53.0287 70.1363 53.208C71.152 53.3533 72.5509 53.5603 72.6914 54.8565C72.8187 56.0698 71.3587 57.021 70.6095 57.7171C68.7101 59.4993 66.8509 61.3554 64.8655 63.0426C63.9168 63.8508 62.8395 62.4299 63.668 61.5793C65.0862 60.1291 66.6204 58.7832 68.1064 57.4025C68.5019 57.037 70.1533 55.9229 70.1588 55.3643C70.1647 54.8388 69.2523 54.9559 68.6043 54.804C66.3957 54.2913 62.4762 52.9784 61.7104 50.5767C61.6136 50.266 61.6546 49.9901 61.8972 49.7624C61.996 49.671 62.0988 49.5742 62.1976 49.4829C62.5398 49.1684 63.1658 49.5081 63.0874 49.9649Z" fill="#FF7F18"/>
<path d="M1.14564 12.0589C0.993841 11.1662 2.08645 10.5193 2.79681 11.0914C2.92267 11.1989 3.03042 11.3708 2.99696 11.5463C2.84021 12.3417 2.35005 12.9728 1.55575 13.2082C1.34353 13.2704 1.05576 13.2737 0.917616 13.0594C0.0520577 11.7512 1.38967 10.4178 2.57106 9.91272C3.15521 9.66361 3.85727 9.56112 4.37358 10.0129C4.98293 10.5443 4.84275 11.3843 4.45473 12.0039C3.74696 13.1376 1.98838 14.3208 0.786492 13.1559C-0.387205 12.0197 0.897155 10.2931 2.1185 9.89036C3.40751 9.46741 4.81833 10.1641 4.97722 11.5755C5.11794 12.8434 4.11533 14.1139 2.76276 13.753C1.32136 13.3684 0.78958 11.5154 1.9904 10.5394C2.48577 10.1485 3.20446 9.97242 3.81066 10.1877C4.53631 10.4406 4.93853 11.1847 4.51084 11.8815C4.25621 12.3002 3.84621 12.6633 3.51604 13.0232C3.22994 13.3335 2.9339 13.6406 2.50432 13.7328C1.83339 13.8823 1.23005 13.4775 0.954216 12.874C0.657941 12.2312 0.750702 11.4791 1.22402 10.9499C1.84657 10.2598 2.80139 10.1123 3.67967 10.0479C4.01132 10.0234 4.42508 10.2173 4.44387 10.6019C4.53429 12.1472 3.3898 13.6247 1.78115 13.6732C1.44268 13.6846 1.02725 13.5098 1.00626 13.1115C0.921512 11.6315 2.50522 10.6558 3.78899 11.4153C4.54551 11.8618 3.74208 12.9588 2.99091 12.5161C2.77234 12.3903 2.33014 12.6404 2.34364 12.9029C2.08639 12.7124 1.82527 12.5271 1.56802 12.3366C2.3823 12.3154 3.17238 11.6979 3.12566 10.8121C3.38217 10.9981 3.63869 11.184 3.88986 11.3661C3.40924 11.4049 2.00485 11.4304 2.11617 12.1877C2.15933 12.488 2.20415 12.4431 2.37916 12.3254C2.71221 12.1021 3.06329 11.6066 3.32173 11.3007C3.3946 11.1946 3.40509 11.2307 3.35633 11.3992C3.28279 11.3825 3.21218 11.3844 3.14378 11.4C2.98667 11.4818 2.82702 11.4883 2.70545 11.6448C2.48556 11.9256 2.62658 12.2765 2.91389 12.4481C3.48924 12.7959 3.80852 12.1306 3.71606 11.6396C3.59179 10.9788 2.86033 10.8969 2.32835 11.1472C2.02963 11.2893 1.71776 11.5565 1.62411 11.8881C1.50202 12.3376 1.8749 12.4531 2.2501 12.346C2.61609 12.2403 2.98241 11.87 3.22535 11.5855C3.43268 11.3445 3.80868 10.7977 3.23141 10.9417C2.70022 11.0784 1.42725 11.8391 1.824 12.4895C1.62901 12.393 1.43716 12.2865 1.24604 12.1847C1.68651 12.0719 1.93519 11.7345 2.04713 11.3102C2.10178 11.5047 2.1603 11.6939 2.21422 11.8838C2.14808 11.7951 2.08356 11.8054 2.02137 11.9193C2.07803 12.4821 1.24064 12.6251 1.14564 12.0589Z" fill="#FF7F18"/>
</svg>
