<svg width="23" height="23" viewBox="0 0 23 23" fill="none" xmlns="http://www.w3.org/2000/svg">
<path d="M3.16 6.32C4.90522 6.32 6.32 4.90522 6.32 3.16C6.32 1.41478 4.90522 0 3.16 0C1.41478 0 0 1.41478 0 3.16C0 4.90522 1.41478 6.32 3.16 6.32Z" fill="#FF7F18"/>
<path d="M3.16 22.8C4.90522 22.8 6.32 21.3852 6.32 19.64C6.32 17.8948 4.90522 16.48 3.16 16.48C1.41478 16.48 0 17.8948 0 19.64C0 21.3852 1.41478 22.8 3.16 22.8Z" fill="#FF7F18"/>
<path d="M19.2098 6.32C20.955 6.32 22.3698 4.90522 22.3698 3.16C22.3698 1.41478 20.955 0 19.2098 0C17.4646 0 16.0498 1.41478 16.0498 3.16C16.0498 4.90522 17.4646 6.32 19.2098 6.32Z" fill="#FF7F18"/>
<path d="M19.2098 22.8C20.955 22.8 22.3698 21.3852 22.3698 19.64C22.3698 17.8948 20.955 16.48 19.2098 16.48C17.4646 16.48 16.0498 17.8948 16.0498 19.64C16.0498 21.3852 17.4646 22.8 19.2098 22.8Z" fill="#FF7F18"/>
</svg>
